<svg id="Layer_1" data-name="Layer 1" xmlns="http://www.w3.org/2000/svg" width="251" height="264" viewBox="0 0 251 264"><title>Artboard 1</title><g opacity="0.5"><path d="M34.3,88.9c-.7,1.9-1.3,3.7-1.9,5.5l-1,2.7-.9,2.7-1.7,5.4-1.3,5.5c-.5,1.9-.8,3.7-1.2,5.6s-.7,3.6-.9,5.5-.4,3.7-.6,5.6l-.2,5.5a84.8,84.8,0,0,0,2.7,21.9,67.6,67.6,0,0,0,9,20.2c8.2,12.4,20.1,22.4,33.4,29.6a113.4,113.4,0,0,0,21,8.7,74.9,74.9,0,0,0,22.5,3.4v.6a74.7,74.7,0,0,1-11.6-.2A87.9,87.9,0,0,1,90.3,215a108.2,108.2,0,0,1-21.9-7.9c-13.9-6.8-26.6-16.7-35.9-29.5a79.7,79.7,0,0,1-10.7-21.2,68,68,0,0,1-2.9-23.7,86.3,86.3,0,0,1,4.7-23.1c.7-1.8,1.3-3.7,2-5.5l2.5-5.3c.4-.8.8-1.7,1.3-2.6l1.4-2.5,2.9-5Z" fill="#b2966d"/><path d="M29.5,99.3C13,98.1,7.7,112,8.8,121.4,23.9,123.6,27.5,106.7,29.5,99.3Z" fill="#62877b"/><path d="M21.4,139.6C7.8,143.9,7.9,156.8,11.7,164,24.6,161,22.2,146.2,21.4,139.6Z" fill="#62877b"/><path d="M34.4,180.6C28,192.5,36.7,201,44,203.4,50.7,192.9,39.3,184.5,34.4,180.6Z" fill="#62877b"/><path d="M74.6,210.1c-.8,11.8,9.2,15.6,15.9,14.8C92,214.1,79.9,211.5,74.6,210.1Z" fill="#62877b"/><path d="M25.8,117.7C19,131.4,29,140.8,37.5,143.2,44.6,131,31.4,121.9,25.8,117.7Z" fill="#62877b"/><path d="M28.6,158.7c.9,13.4,12.6,16.1,20,14.2C48.7,160.5,34.7,159.5,28.6,158.7Z" fill="#62877b"/><path d="M54.6,194.4c6.9,11.8,18.9,9,24.9,3.8C73.9,186.9,60.6,192.2,54.6,194.4Z" fill="#62877b"/><path d="M217.3,88.7l2.9,5,1.4,2.5,1.3,2.6,2.5,5.3c.7,1.8,1.3,3.7,2,5.5a86.3,86.3,0,0,1,4.7,23.1,68,68,0,0,1-2.9,23.7,79.7,79.7,0,0,1-10.7,21.2c-9.3,12.8-22,22.7-35.9,29.5a108.2,108.2,0,0,1-21.9,7.9,87.9,87.9,0,0,1-11.4,2.1,74.7,74.7,0,0,1-11.6.2v-.6a74.9,74.9,0,0,0,22.5-3.4,113.4,113.4,0,0,0,21-8.7c13.3-7.2,25.2-17.2,33.4-29.6a67.6,67.6,0,0,0,9-20.2,84.8,84.8,0,0,0,2.7-21.9l-.2-5.5c-.2-1.9-.5-3.7-.6-5.6s-.6-3.7-.9-5.5-.7-3.7-1.2-5.6l-1.3-5.5-1.7-5.4-.9-2.7-1-2.7c-.6-1.8-1.2-3.6-1.9-5.5Z" fill="#b2966d"/><path d="M221.5,99.3c16.5-1.2,21.8,12.7,20.7,22.1C227.1,123.6,223.5,106.7,221.5,99.3Z" fill="#62877b"/><path d="M229.6,139.6c13.6,4.3,13.5,17.2,9.7,24.4C226.4,161,228.8,146.2,229.6,139.6Z" fill="#62877b"/><path d="M216.6,180.6c6.4,11.9-2.3,20.4-9.6,22.8C200.3,192.9,211.7,184.5,216.6,180.6Z" fill="#62877b"/><path d="M176.4,210.1c.8,11.8-9.2,15.6-15.9,14.8C159,214.1,171.1,211.5,176.4,210.1Z" fill="#62877b"/><path d="M225.2,117.7c6.8,13.7-3.2,23.1-11.7,25.5C206.4,131,219.6,121.9,225.2,117.7Z" fill="#62877b"/><path d="M222.4,158.7c-.9,13.4-12.6,16.1-20,14.2C202.3,160.5,216.3,159.5,222.4,158.7Z" fill="#62877b"/><path d="M196.4,194.4c-6.9,11.8-18.9,9-24.9,3.8C177.1,186.9,190.4,192.2,196.4,194.4Z" fill="#62877b"/><path d="M187.9,67.9l1.5,1.8Z" fill="#9eb2c2"/><path d="M206.5,133.3h0Z" fill="#9eb2c2"/><path d="M190.7,71.4l.7.9Z" fill="#9eb2c2"/><path d="M185.5,65.1l1.5,1.7Z" fill="#9eb2c2"/><path d="M183.2,62.8l.8.8Z" fill="#9eb2c2"/><path d="M109.3,201l-4.7-1.1Z" fill="#9eb2c2"/><path d="M43.9,117.9a101.4,101.4,0,0,1,4.3-23.3A82.1,82.1,0,0,0,43.9,117.9Z" fill="#9eb2c2"/><path d="M180.5,60.2l.3.3Z" fill="#9eb2c2"/><path d="M112.2,166.3c-2.2,2-3.8,2-5.2,4.8s1.4,3.9.2,7.3-4.1,5-3.4,9.4,2.2,7.7,5.6,13.2a71.2,71.2,0,0,0,15.4,1.6,273,273,0,0,1-10.9-38.9A6.9,6.9,0,0,1,112.2,166.3Z" fill="#91a4b3"/><path d="M200.3,120.9c-1.4-3.5-5.6-.2-8.3-2s-8.1-3.2-8.1-1.6,3.9,3.1,7,4.6-.9,3.9-4.1,8-4.8,1.2-7.2,2.4.4,1.7,3.3,1.7,2.2,3.4-3.7,7.5-4.2,2.6-2.7,9.6.6,4.6-3.2,8.7-1.4,1.9-2,5-5,9.2-7.7,12.8-7.9.8-7.6-4.3-4.9-10.4-3.6-14.5,1.1-3.4-2.1-7.2-.1-4.4.3-9.2-2.1-2.6-6.7-.7-9,.3-15.3-4.8-.6-5.3-1.7-10.7,7.3-10.1,10-13.7-2.7-3.4-2.7-7,6.3-2.4,5.6-5.5-4.6-3.4-6.8-7.9,0-5.7,5.4-7.1,1.6,2.9,3,6.8,2.5,0,5.9-1.7.7-3.2-.8-5.1-3.6-4.4-2.1-6.2,2.1-.3,5-3.2,0-1.9,2.2-6.8,2.1-3.1,7.5-4.6,4.5,1.7,5.8,4.2,3.3,1.5,4.7,0,2.5-2.5,6.3-3.1,3.7-2,2.8-6.7a81.4,81.4,0,0,0-44.8-19.1c.9.9,3,3.4,3,5.3s-2.2,1.8-3.1,5.2-2,7.3-4.6,10.1-.3,2.5,1.2,5.4-2.4,3.3-9.7,6.7c-4.3,2-6.1,3.9-7.4,5.9a224.3,224.3,0,0,0-1.6,72.7,7.1,7.1,0,0,1,2.8,2.2c1.6,2.5.8,7.5-.6,10.7a273,273,0,0,0,10.9,38.9h.8a81.8,81.8,0,0,0,80.6-68C205.8,134.7,201.7,124.3,200.3,120.9Z" fill="#9eb2c2"/><path d="M92.9,177.4c-.4-2.9-2.4-10.2-4.7-12.8s-3.7-.7-8.7-6.7c0,0-5.1-4.6-4.6-8.7s2.6-4.1,2.1-7.7-8.1-3.7-9.1-4.9-10.9-2.9-14.5-5-5.5-7.2-9.5-13c0,.8-.1,1.5-.1,2.3a81.8,81.8,0,0,0,60.4,78.9,38.2,38.2,0,0,0-5-6.5C96.8,190.8,93.4,180.3,92.9,177.4Z" fill="#91a4b3"/><path d="M92.5,51.2c1.8,4.3-1,4.9.9,6.3s4.9-1.7,6.8,0,2.7,8,2.9,13.3-3.4,7.2-5.8,8-3.1-3.2-3.3-6.6,3.8-6.3,1.4-7.7-4.9,6.3-5.5,7.9-2.5,2-4.6.3-7.5,3.9-9.5,8.7,5.1,4.1,5.1,6.3,1,4.4,1,2.9,2.4-2.7,3.8-4.8,1.4-8.5,5.1-9.2,6,6,6.3,9.4,4.6,12.2,2.1,14-3.4-4.4-7.5-5.3,1.1,4.8-.6,7.2-2.7,3.2-7,2.9-2.2,3.8-4.5,6.3-4,2.6-5.9,5.5,2.4,8.2,0,8.4-1-3.8-8.5-6.4-7,6.7-5,10.1,10.6,2.4,10.6,5,2.4,2.2,5,3.9,3.9,0,5.8-1.4,7.2.9,9.5,2.9,3.1,1.4,6.2,2.6,2.4,4.6,4.6,5.8,6.5,1.6,9.8,3.3a224.3,224.3,0,0,1,1.6-72.7c-.8,1.5-1.5,3.1-2.5,4.8l-2.4-4c-2.4-3.9-.9-7.3,1.2-11.9s1.7-5.4,2.6-9.2-.6-1.7-4-4.1.5-3.2,4-5.3,3.4-1.9,2.3-3-3.2.8-6.3,3-4.4,4-6.8,2.6.2-4.7,2.5-9A83,83,0,0,0,87,48.8C87.6,48.5,90.9,47.3,92.5,51.2Z" fill="#91a4b3"/><path d="M87,48.8h-.1A76.8,76.8,0,0,0,48.2,94.6,82.1,82.1,0,0,1,87,48.8Z" fill="#9eb2c2"/><path d="M109.4,201Z" fill="#9eb2c2"/><path d="M43.8,118.5h.1v-.7C43.9,118.2,43.9,118.4,43.8,118.5Z" fill="#9eb2c2"/><path d="M104.2,199.8h0Z" fill="#9eb2c2"/><path d="M114.5,153a7.1,7.1,0,0,0-2.8-2.2c.6,4.3,1.4,8.6,2.2,12.9C115.3,160.5,116.1,155.5,114.5,153Z" fill="#597f74"/><path d="M107.2,178.4c1.2-3.4-1.6-4.5-.2-7.3s3-2.8,5.2-4.8a6.9,6.9,0,0,0,1.7-2.6c-.8-4.3-1.6-8.6-2.2-12.9-3.3-1.7-8.1-2.4-9.8-3.3s-1.4-4.6-4.6-5.8-4-.7-6.2-2.6-7.6-4.3-9.5-2.9-3.2,3-5.8,1.4-5-1.3-5-3.9-8.7-1.7-10.6-5-2.5-12.8,5-10.1,6,6.6,8.5,6.4-2-5.5,0-8.4,3.7-3.1,5.9-5.5.1-6.6,4.5-6.3,5.3-.5,7-2.9-3.5-8.2.6-7.2,5.1,7.1,7.5,5.3-1.9-10.7-2.1-14-2.7-10-6.3-9.4-3.7,7-5.1,9.2-3.8,3.3-3.8,4.8-1-.8-1-2.9-7.1-1.5-5.1-6.3,7.3-10.4,9.5-8.7,3.9,1.3,4.6-.3,3-9.3,5.5-7.9-1.6,4.3-1.4,7.7,1,7.3,3.3,6.6,5.9-2.7,5.8-8-.9-11.6-2.9-13.3-4.9,1.4-6.8,0,.9-2-.9-6.3-4.9-2.7-5.5-2.4A82.1,82.1,0,0,0,48.2,94.6a101.4,101.4,0,0,0-4.3,23.3v.7c4,5.8,6,10.8,9.5,13s13.4,3.8,14.5,5,8.7,1.3,9.1,4.9-1.7,3.6-2.1,7.7,4.6,8.7,4.6,8.7c5,6,6.3,4.1,8.7,6.7s4.3,9.9,4.7,12.8,3.9,13.4,6.3,15.9a38.2,38.2,0,0,1,5,6.5h.4l4.7,1.1h.1c-3.4-5.5-4.8-8.9-5.6-13.2S106,181.8,107.2,178.4Z" fill="#3e7165"/><path d="M124.5,39c-16.2.4-20.6,3-20.6,3h0a82,82,0,0,1,20.6-2.9Z" fill="#9eb2c2"/><path d="M125.6,39.1a75.6,75.6,0,0,1,8.3.4l-.4-.4h-7.9Z" fill="#9eb2c2"/><path d="M124.5,39.1a232.8,232.8,0,0,0-11.2,39c1.3-2,3.1-3.9,7.4-5.9,7.3-3.4,11.2-3.8,9.7-6.7s-3.8-2.6-1.2-5.4,3.6-6.7,4.6-10.1,3.1-2.8,3.1-5.2-2.1-4.4-3-5.3a75.6,75.6,0,0,0-8.3-.4Z" fill="#597f74"/><path d="M101.4,51c2.4,1.4,3.7-.3,6.8-2.6s5.2-4,6.3-3,1.3,1-2.3,3-7.4,2.8-4,5.3,5,.2,4,4.1-.4,4.6-2.6,9.2-3.6,8-1.2,11.9l2.4,4c1-1.7,1.7-3.3,2.5-4.8a232.8,232.8,0,0,1,11.2-39A82,82,0,0,0,103.9,42C101.6,46.3,98.9,49.6,101.4,51Z" fill="#3e7165"/><path d="M178.7,58.6h0l1.8,1.6Z" fill="#9eb2c2"/><path d="M206.5,133.4l-.3,1.3h0Z" fill="#9eb2c2"/><path d="M206.5,133.3c4.2-25.8-4.4-46.6-15.1-61a81.1,81.1,0,0,1,16,48.6A85.2,85.2,0,0,1,206.5,133.3Z" fill="#9eb2c2"/><path d="M187,66.8l.9,1.1Z" fill="#9eb2c2"/><path d="M184,63.6l1.5,1.5Z" fill="#9eb2c2"/><path d="M189.4,69.7l1.3,1.7Z" fill="#9eb2c2"/><path d="M180.8,60.5l2.4,2.3Z" fill="#9eb2c2"/><path d="M206.5,133.3a85.2,85.2,0,0,0,.9-12.4,81.1,81.1,0,0,0-16-48.6l-.7-.9-1.3-1.7-1.5-1.8-.9-1.1-1.5-1.7L184,63.6l-.8-.8-2.4-2.3-.3-.3-1.8-1.6c.9,4.7,1,6-2.8,6.7s-4.9,1.6-6.3,3.1-3.5,2.4-4.7,0-.5-5.7-5.8-4.2-5.4-.2-7.5,4.6.7,3.9-2.2,6.8-3.6,1.3-5,3.2.6,4.4,2.1,6.2,4.1,3.4.8,5.1-4.4,5.5-5.9,1.7,2.3-8.2-3-6.8-7.5,2.6-5.4,7.1,6,4.8,6.8,7.9-5.6,2-5.6,5.5,5.3,3.3,2.7,7-11,8.4-10,13.7-4.6,5.7,1.7,10.7,10.7,6.7,15.3,4.8,7.2-4,6.7.7-3.4,5.4-.3,9.2,3.4,3.1,2.1,7.2,3.8,9.5,3.6,14.5,5,8,7.6,4.3,7.2-9.7,7.7-12.8-1.9-1,2-5,4.7-1.6,3.2-8.7-3.2-5.5,2.7-9.6,6.6-7.5,3.7-7.5-5.8-.5-3.3-1.7,4,1.7,7.2-2.4,7.2-6.5,4.1-8-7-2.9-7-4.6,5.4-.1,8.1,1.6,6.9-1.5,8.3,2,5.5,13.8,5.9,13.8l.3-1.3Z" fill="#597f74"/></g></svg>