<?xml version="1.0" encoding="UTF-8"?>
<svg id="Layer_1" xmlns="http://www.w3.org/2000/svg" version="1.1" viewBox="0 0 252 266.4">
  <!-- Generator: Adobe Illustrator 29.7.1, SVG Export Plug-In . SVG Version: 2.1.1 Build 8)  -->
  <defs>
    <style>
      .st0 {
        fill: #597f74;
      }

      .st1 {
        fill: #9eb2c2;
      }
    </style>
  </defs>
  <circle class="st1" cx="126" cy="133.2" r="100.1"/>
  <path class="st1" d="M125.1,53.6c-13.9.3-17.6,2.6-17.6,2.6h0c5.7-1.5,11.6-2.4,17.6-2.5h0Z"/>
  <path class="st1" d="M126.1,53.7c2.4,0,4.7,0,7.1.3l-.3-.3h-6.8Z"/>
  <path class="st1" d="M105.9,231.5l-5.7-1.4,5.7,1.4Z"/>
  <path class="st1" d="M25.7,129.6c.6-9.7,2.4-19.2,5.3-28.6-3.2,9.2-4.9,18.8-5.3,28.6Z"/>
  <path class="st1" d="M25.5,130.3h0v-.9c0,.5,0,.8,0,.9Z"/>
  <path class="st0" d="M112.4,172.6h0c-.9-1.2-2.1-2.1-3.4-2.7,0,.2,0,.2,0,0-4-2.1-9.9-2.9-12-4s-1.7-5.7-5.7-7.1c-3.9-1.5-4.9-.9-7.6-3.2s-9.3-5.3-11.6-3.6c-2.3,1.7-3.9,3.7-7.1,1.7-3.2-2-6.2-1.6-6.2-4.8s-10.7-2.1-13-6.2c-2.3-4.1-3.1-15.7,6.2-12.4s7.4,8.1,10.4,7.9c3.1-.3-2.5-6.8,0-10.3s4.5-3.8,7.3-6.8c2.7-3,0-8.1,5.6-7.7,5.5.4,6.5-.6,8.6-3.6,2.1-3-4.3-10.1.8-8.8,5.1,1.3,6.3,8.7,9.2,6.5,3-2.2-2.3-13.1-2.6-17.2-.3-4.1-3.3-12.2-7.7-11.6-4.4.7-4.5,8.6-6.3,11.3-1.7,2.7-4.6,4-4.6,5.9s-1.2-.9-1.2-3.6-8.7-1.9-6.3-7.7c2.5-5.8,9-12.8,11.6-10.7,2.7,2.1,4.8,1.6,5.7-.3.9-2,3.7-11.4,6.8-9.7,3.1,1.7-2,5.3-1.7,9.4.3,4.1,1.2,9,4,8.1,2.8-.9,7.3-3.3,7.1-9.8-.2-6.5-1.1-14.2-3.6-16.4-2.5-2.1-6,1.7-8.3,0-2.3-1.7,1.1-2.5-1.1-7.7-2.2-5.2-6-3.3-6.8-2.9-22.4,12.1-39.4,32.1-47.6,56.2-2.9,9.3-4.6,18.9-5.3,28.6v.9c4.9,7.1,7.4,13.3,11.6,15.9,4.3,2.7,16.4,4.6,17.8,6.2,1.4,1.5,10.7,1.6,11.1,6,.4,4.4-2.1,4.5-2.6,9.4-.5,5,5.7,10.7,5.7,10.7,6.2,7.4,7.7,5.1,10.7,8.2,3,3.2,5.3,12.2,5.7,15.7s4.8,16.4,7.7,19.5c2.3,2.4,4.4,5.1,6.2,8h.5l5.7,1.4h0c-4.2-6.8-5.9-11-6.9-16.2-.9-5.2,2.7-7.3,4.2-11.4h-.2c1.5-4.1-2-5.5-.3-8.9,1.7-3.4,3.7-3.4,6.4-5.9.9-.9,1.6-2,2.1-3.2,0-.1,0-.3,0-.4,0,.1,0,.3,0,.4,1.7-3.9,2.7-10.1.8-13.1Z"/>
  <path class="st0" d="M136,33.4c-3.4-.3-6.8-.5-10.2-.5h-1.4,0c0,.1,0,.1,0,.2-8.5,0-17,1.3-25.2,3.6-2.8,5.3-6.2,9.3-3.1,11h0c2.9,1.6,4.5-.4,8.3-3.3,3.8-2.8,6.4-4.9,7.7-3.7s1.6,1.2-2.8,3.7c-4.4,2.5-9.1,3.4-4.9,6.5,4.2,3.1,6.2.3,4.9,5s-.5,5.6-3.2,11.3c-2.7,5.6-4.4,9.8-1.5,14.6l2.9,4.9c1.2-2.1,2.1-4,3.1-5.9,0,0,0,0,0-.1,1.6-2.5,3.8-4.8,9-7.2,9-4.2,13.8-4.6,11.9-8.2-1.9-3.6-4.6-3.2-1.5-6.6,3.2-3.4,4.4-8.2,5.6-12.4s3.8-3.4,3.8-6.4-2.6-5.4-3.7-6.5Z"/>
  <path class="st0" d="M225,148.4c.8-5,1.1-10.1,1.1-15.2,0-21.5-6.8-42.3-19.6-59.6l-.9-1.1-1.6-2.1-1.9-2.2-1.1-1.4-1.9-2.1-1.9-1.9-.9-.9-2.9-2.8-.3-.3-2.2-2c1.1,5.7,1.2,7.4-3.4,8.2s-6,2-7.7,3.8c-1.7,1.9-4.3,2.9-5.7,0s-.6-7-7.1-5.1-6.6-.3-9.2,5.6c-2.7,5.9.9,4.8-2.7,8.3-3.6,3.6-4.4,1.6-6.2,3.9s.8,5.4,2.6,7.6,5,4.2.9,6.2-5.4,6.8-7.3,2.1,2.8-10.1-3.7-8.3-9.2,3.2-6.6,8.7,7.4,5.9,8.3,9.7-6.8,2.5-6.8,6.8,6.5,4,3.3,8.6c-3.2,4.5-13.5,10.3-12.2,16.8,1.3,6.5-5.6,7,2.1,13.1,7.7,6.2,13.1,8.2,18.7,5.9,5.6-2.3,8.8-4.9,8.2.9-.6,5.7-4.2,6.6-.3,11.3s4.2,3.8,2.6,8.8c-1.6,5,4.6,11.6,4.4,17.8-.3,6.2,6.2,9.8,9.3,5.3s8.8-11.9,9.4-15.7c.6-3.8-2.3-1.2,2.5-6.2,4.8-5,5.7-2,3.9-10.7-1.9-8.7-3.9-6.8,3.3-11.8,7.3-5,8.1-9.2,4.5-9.2s-7.1-.6-4-2.1,4.9,2.1,8.8-2.9c3.9-5,8.8-8,5-9.8s-8.6-3.6-8.6-5.6,6.6,0,9.9,2,8.5-1.9,10.2,2.5c1.7,4.3,6.8,16.9,7.3,16.9l.3-1.6h0Z"/>
</svg>