<?xml version="1.0" encoding="UTF-8"?>
<svg id="Layer_1" xmlns="http://www.w3.org/2000/svg" version="1.1" viewBox="0 0 251.5 265">
  <!-- Generator: Adobe Illustrator 29.7.1, SVG Export Plug-In . SVG Version: 2.1.1 Build 8)  -->
  <defs>
    <style>
      .st0 {
        fill: #006187;
      }
    </style>
  </defs>
  <path class="st0" d="M119,242.1c5.6-17.1-14.9-31.1-20.8-33-2.4,12.9,7.8,33.8,20.8,33Z"/>
  <path class="st0" d="M117,245.6c-14.3,12-36.8.6-41-3.5,11.7-7.4,36.4-7.8,41,3.5Z"/>
  <path class="st0" d="M83.3,213.6c10.4-14.8-4.6-33.6-9.5-36.9-6,11.7-2.8,34.2,9.5,36.9Z"/>
  <path class="st0" d="M52.7,168.3c-16.8-1-22.7-21.9-22.5-27.2,12.2,2.2,27.4,17,22.5,27.2Z"/>
  <path class="st0" d="M52.8,109.5c14.8-.7,21.5-18.9,21.6-23.6-10.8,1.8-25.1,14.6-21.6,23.6Z"/>
  <path class="st0" d="M76.8,64.3c11.4,4.4,23.2-7.5,25.1-11-8.9-2.1-24.4,2.9-25.1,11Z"/>
  <path class="st0" d="M74.8,62.2c-6-10.1,5.3-22.4,8.8-24.5,3.3,7.9-.3,22.9-8.8,24.5Z"/>
  <path class="st0" d="M114.2,34c7.4,7.1,21,1.2,23.7-1.1-6.2-4.6-20.3-5.2-23.7,1.1Z"/>
  <path class="st0" d="M113.3,31.7c-1.2-10.1,12.2-16.7,15.7-17.3-.2,7.5-8.4,18.6-15.7,17.3Z"/>
  <path class="st0" d="M160.9,24.2c2.9,8.8,16.3,9,19.5,8.3-3-6.2-13.9-12.2-19.5-8.3Z"/>
  <path class="st0" d="M161.3,22.2c2.7-9,16.1-10.4,19.3-9.7-3,6.3-13.7,13.2-19.3,9.7Z"/>
  <path class="st0" d="M53.4,100.3c-7.9-2.1-14.9-6.9-18.8-22.6-2.1-13.8,2.8-26,10.9-27.4,8.1-1.4,16.6,8.7,18.7,22.6.6,15-3.8,21.7-10.8,27.4Z"/>
  <path class="st0" d="M74,214.2c-7.2,4.1-15.9,5.6-30.7-2-12.3-7.6-18.3-19.1-13.6-25.6,4.7-6.5,18.4-5.7,30.7,2,12,9.5,14.2,17,13.6,25.6Z"/>
  <path class="st0" d="M53.7,157.8c-4.6-4.8-7.1-11.4-2.4-24.4,5.1-11,14.4-18,20.8-15.5s7.5,13.4,2.4,24.4c-6.8,11.3-13.1,14.4-20.8,15.5Z"/>
  <path class="st0" d="M143.6,254.1c-15.8-3-30.9-8.7-44.5-17.2-6.9-4.4-13.2-9.4-19.1-15.1-5.8-5.7-11.1-12-15.7-18.8-9.2-13.7-15-29.1-17.5-45.4-1.2-8.1-1.7-16.3-1.4-24.4.4-8.1,1.5-16.2,3.3-24.1,3.7-15.9,10.8-30.7,20.4-43.8,9.7-12.9,22.2-23.5,36.7-30.9,14.3-7.2,30-11.3,46-12.2,7.9-.5,15.9-.3,23.8.5,7.9.9,15.7,2.3,23.4,4.1l-.2.9c-7.7-1.5-15.5-2.6-23.3-3.1-7.8-.6-15.6-.4-23.4.4-15.5,1.4-30.6,5.9-44.2,13.4-13.5,7.5-25.1,17.8-34,30.4-8.8,12.6-14.9,26.8-18,41.8-3.1,15-3.2,30.4-.2,45.4,2.7,14.9,8.3,29.2,16.2,42,4,6.4,8.5,12.5,13.7,18.1,5.2,5.6,10.9,10.7,17,15.3,12.6,9.2,26.4,16.4,41.1,21.7l-.2.9h0Z"/>
  <path class="st0" d="M145.4,33.1l1.1.4"/>
</svg>