<svg id="Layer_1" data-name="Layer 1" xmlns="http://www.w3.org/2000/svg" width="251.5" height="265" viewBox="0 0 251.5 265"><title>olive-branch</title><path d="M93.1,230.7c9.5-15.3-7-33.8-12.3-37C75.4,205.7,80.3,228.4,93.1,230.7Z" fill="#dfe9ea"/><path d="M90.4,233.6c-16.8,8.2-35.9-8.2-39-13.2C64.5,216,88.6,221.6,90.4,233.6Z" fill="#dfe9ea"/><path d="M65.3,194.5c13.6-11.9,3.6-33.7-.4-38.1C56.3,166.3,54,188.9,65.3,194.5Z" fill="#dfe9ea"/><path d="M46.5,143.2c-16.1-5-16.8-26.7-15.3-31.8C42.5,116.5,53.7,134.5,46.5,143.2Z" fill="#dfe9ea"/><path d="M60.7,86.1C75.2,89,86.1,72.9,87.3,68.4,76.4,67.6,59.4,76.6,60.7,86.1Z" fill="#dfe9ea"/><path d="M94.8,48c10,7,24.3-1.7,27-4.7C113.7,39.1,97.4,40.3,94.8,48Z" fill="#dfe9ea"/><path d="M93.3,45.5C89.9,34.3,103.8,25,107.7,23.8,109,32.3,101.9,46,93.3,45.5Z" fill="#dfe9ea"/><path d="M138.4,27.5c5.5,8.7,20.1,6.2,23.3,4.6C156.8,26.2,143.2,22.2,138.4,27.5Z" fill="#dfe9ea"/><path d="M138,25.1c1.3-10.1,15.8-13.3,19.4-13C155.4,19.3,144.8,28.1,138,25.1Z" fill="#dfe9ea"/><path d="M186,29.2c.7,9.2,13.7,12.7,16.9,12.7C201.5,35.2,192.3,26.7,186,29.2Z" fill="#dfe9ea"/><path d="M186.9,27.4c4.8-8.1,18.1-6.2,21.1-4.8C203.6,28,191.5,32.1,186.9,27.4Z" fill="#dfe9ea"/><path d="M63.4,77.3C56.2,73.4,50.6,67,50.6,50.9c1.3-13.9,9-24.6,17.2-24s14,12.4,12.7,26.4C77.5,68,71.6,73.5,63.4,77.3Z" fill="#dfe9ea"/><path d="M56.1,192.8c-8,2.2-16.8,1.6-29.3-9.3-10.1-10.3-13.2-22.9-7.1-28.1s19.2-1.1,29.3,9.3C58.4,176.8,58.7,184.6,56.1,192.8Z" fill="#dfe9ea"/><path d="M50,133.2c-3.3-5.8-4.2-12.8,3.5-24.3,7.6-9.5,18.3-14,23.9-10.1s4.1,14.8-3.5,24.3C64.6,132.4,57.7,133.9,50,133.2Z" fill="#dfe9ea"/><path d="M114.1,248.3A130.5,130.5,0,0,1,75,220.9a116,116,0,0,1-14.9-19.2,117.8,117.8,0,0,1-10.7-22,111.7,111.7,0,0,1-6.1-48.3,131.8,131.8,0,0,1,4.5-24,133.1,133.1,0,0,1,9-22.6A120,120,0,0,1,87.1,47.2a107.1,107.1,0,0,1,43-21.2,115.7,115.7,0,0,1,47.6-.8,142.1,142.1,0,0,1,23,6.2A198.9,198.9,0,0,1,222.4,41l-.4.8a202.8,202.8,0,0,0-21.9-8.6A139.2,139.2,0,0,0,177.3,28a111.9,111.9,0,0,0-46.1,2.4A102.6,102.6,0,0,0,90.9,51.8,111.3,111.3,0,0,0,63.4,88.1a114.3,114.3,0,0,0-11.1,44A123.1,123.1,0,0,0,58,176.8a116.6,116.6,0,0,0,9,20.9,125.6,125.6,0,0,0,12.8,18.9,162.8,162.8,0,0,0,34.7,30.9Z" fill="#dfe9ea"/><path d="M168.9,34.1l1,.7" fill="#dfe9ea"/></svg>