<?xml version="1.0" encoding="UTF-8"?><svg id="Layer_1" xmlns="http://www.w3.org/2000/svg" width="316.4" height="469.4" viewBox="0 0 316.4 469.4"><path d="M162.9,250.4c.2,0,.3,0,.5,0,2.5.9,3.8,4.3,6.4,5.7,11.4,6.6,21.4,19,9.7,34.8-4,2.2-7.6,3.3-10.9,3.3-12.1,0-19-13.8-18.5-29.3,0-1.3-.9-3.9-.8-5.2.2-1.8,3.7-4.3,3.7-4.3,0,0-.4-2.7.9-3.5.4-.2,1-.3,1.6-.3,1.1,0,2.3.3,3.1.5,0,0,.1,0,.2,0,1.2,0,2.8-1.8,4.2-1.8M162.9,247.6h0c-1.5,0-2.7.8-3.7,1.4-.2.1-.4.3-.6.4-.9-.2-2.1-.4-3.2-.4s-2.2.2-3,.7c-1.8,1.1-2.2,3-2.3,4.5-1.5,1.2-3.4,3.2-3.6,5.3-.1,1.2.2,2.5.5,3.7.1.6.3,1.4.3,1.7-.3,10.9,2.8,20.8,8.4,26.6,3.6,3.7,8,5.6,12.9,5.6s8-1.2,12.2-3.6l.5-.3.4-.5c4.9-6.6,6.7-13.2,5.3-19.7-2-9.9-10.8-16.3-15.9-19.2-.8-.4-1.5-1.3-2.3-2.2-1.2-1.4-2.5-3-4.6-3.7-.5-.2-.9-.2-1.4-.2h0Z" fill="#fff"/><path d="M179.1,290.6c0-3.5-.2-6.6-1-9.8-.6-2.1-1.1-4.4-2.4-6.3-2.2-2.6-4.4-5-6.3-8,0,0,.1-.1.1-.1,1.1.5,1.9,1.3,2.8,2.1,1.8,1.5,2.9,3.7,3.8,5.7,1.8,3,3.8,5.9,4.2,9.5.3,2.4-.1,4.8-1.1,6.9,0,0-.2,0-.2,0h0Z" fill="#fff"/><path d="M175.5,293.9c-3.6-.4-6.9-2.6-9.2-5.5-1.6-1.8-2.5-4.1-3.9-6-2.2-2.8-4.1-6-4.4-9.6,0,0,.1,0,.1,0,2,3,3.3,6.2,4.7,9.4,1.8,3,4.5,5.3,7.1,7.6,1.7,1.5,3.5,2.8,5.6,4,0,0,0,.1,0,.1h0Z" fill="#fff"/><path d="M168.7,298.2c-2.4.8-5.2,1.4-8.6.3-6.9-2.3-9.1-8.4-9.1-8.4,3.7,5,7.4,7.7,16.7,5.2,0,0,4.4-2.5,10.6-2.6,3.3-5,7.5-7.3,7.5-7.3,6.9-6.7,6.6-11.2,4.2-17,0,0,4,5.1,2.4,12.2-.9,3.8-3.1,5.9-5.3,7.7-2.2,2.8-.5,7.4-.7,11.1,0,1.3-.7,2.2-1.5,3,0,0,0,0,0,0-.4.3-1,.7-1.7,1.1-.7.4-1.4.6-1.9.8,0,0,0,0,0,0-1.1.3-2.2.2-3.3-.4-3.1-1.8-5.9-5.6-9.3-5.6Z" fill="none" stroke="#fff" stroke-linecap="round" stroke-linejoin="round" stroke-width="2.8"/><path d="M178.3,290c-.3-2.2-.4-4.1-.6-6.3-1.2-3.4-3.5-6.1-4.4-9.6,0,0,.1,0,.1,0,2.9,2.4,3.9,6.1,4.7,9.6.9,2,1.5,4.4.3,6.4,0,0-.1,0-.1,0h0Z" fill="#fff"/><path d="M173.8,292.2c-2.3-.7-3.8-2.7-5-4.7-1.4-1.8-3.1-3.4-4.3-5.4-.7-1.3-1.4-2.7-1.8-4.3,0,0,.1,0,.1,0,2.7,2.8,4,6.4,6.2,9.5,1.7,1.5,3.2,3.1,4.7,4.9,0,0,0,.1,0,.1h0Z" fill="#fff"/><path d="M176,291.8c-1.9-.8-3.2-2.2-4.3-3.8-1.1-1.6-2.2-3.2-2.9-5,0,0,.1,0,.1,0,1,1.6,2.2,3.1,3.5,4.4,1.4,1.3,2.7,2.6,3.6,4.4,0,0,0,0,0,0h0Z" fill="#fff"/><path d="M172,279.5c1.5,1.4,2.8,3.2,3.8,5,1.1,1.8,2,3.8,1.8,6,0,0-.1,0-.1,0-1.2-1.8-1.9-3.6-2.6-5.6-.8-1.9-1.8-3.7-3-5.4,0,0,0,0,0,0h0Z" fill="#fff"/><path d="M172.5,284c1.4,2.5,3.9,4.2,4.6,7,0,0,0,0,0,0-1.4-.6-2.2-1.8-2.9-3.1-.7-1.2-1.3-2.5-1.8-3.9,0,0,.1,0,.1,0h0Z" fill="#fff"/><path d="M182.6,285.6c.2-2.2.4-4.1.6-6.3-.5-3.5-2.3-6.7-2.6-10.3,0,0,.1,0,.1,0,2.4,2.9,2.7,6.7,2.9,10.3.6,2.1.6,4.6-.9,6.3,0,0-.1,0-.1,0h0Z" fill="#fff"/><path d="M179.7,273.4c1,1.8,1.7,3.9,2.1,5.9.5,2.1.7,4.2,0,6.3,0,0-.1,0-.1,0-.9-3-.5-6.1-1.2-9.1-.2-1-.5-2-.8-3h.1Z" fill="#fff"/><path d="M180.4,278.8c0,2.9,1.4,5.5.7,8.4,0,0-.1,0-.1,0-.9-1.2-1.1-2.7-1-4.1,0-1.4,0-2.9.3-4.3h.1Z" fill="#fff"/><path d="M168,294.8c-2.3.1-4.2-1.4-5.6-3.2-2.8-2.3-5.6-4.8-6.5-8.5,0,0,.1,0,.1,0,2.7,2.4,4.2,5.7,6.6,8.3,1.8,1.1,3.5,2.1,5.3,3.3,0,0,0,.1,0,.1h0Z" fill="#fff"/><path d="M160,284.9c2.4,3.5,6.1,5.4,8.8,8.5,0,0,0,.1,0,.1-2.1-.5-3.8-1.9-5.2-3.5-1.5-1.5-2.7-3.2-3.7-5.1h.1Z" fill="#fff"/><path d="M163.7,287.7c1.9.9,3.8,2,5.4,3.4.5.5.9,1.1,1.1,1.9,0,0,0,0,0,0-1.4-.5-2.4-1.4-3.4-2.5-1-1-2-1.9-3.1-2.8h0Z" fill="#fff"/><path d="M182.5,302.4c.1-1.2.7-2.4.8-3.3.2-1.1-.2-2.3-.6-3.4-.6-1.6-.7-3.6.1-5.2.5-.7.9-1.1,1.6-1.7,0,0,.1,0,.1,0-.1.6-.3,1.2-.6,1.8-.5,1.6-.4,3.2-.6,4.9-.1,1.3.7,2.2,1,3.5,0,1.4-.8,2.4-1.7,3.3,0,0-.1,0-.1,0h0Z" fill="#fff"/><path d="M176,299.5c-.6,0-1-.2-1.4-.4-.6-.5-1.1-1.3-1.8-1.7-.3-.3-.7-.5-1-.7,0,0,0-.2,0-.2.9,0,1.8.3,2.7.7,1,.3,1.7,1,1.6,2.2,0,0-.1.1-.1.1h0Z" fill="#fff"/><path d="M157.7,250.7c1.6,0,2.6,1.3,3,2.7.5,1.3.8,2.6.9,3.9h-.2c-.8-1.7-1.9-3.3-3-4.7-.3-.5-.5-1-.9-1.7h0Z" fill="#fff"/><path d="M150.3,254c1.7.5,2.8,1.6,3.8,2.9,1,1.2,2,2.4,3,3.7h-.1c-1.9-1.4-3.9-2.7-5.6-4.4-.5-.6-.9-1.3-1.2-2.2,0,0,.1-.1.1-.1h0Z" fill="#fff"/><path d="M185.7,301.9c.2,0,.3.1.5.4,3.6,6.1,9.2,12.4,14.8,17.1,1.8,2.6,3.1,5.4,4,8.4l-1.7,2.6c-1.1-3-2.7-5.7-4.9-8-7.4-4.1-10.9-8.3-14.2-16.2,0,0,.6-4.3,1.5-4.3M185.7,299.1c-3,0-3.8,3.4-4.3,6.7v.8c-.1,0,.2.7.2.7,3.6,8.5,7.5,13.1,15,17.3,1.7,1.9,3.1,4.1,4.1,6.8l2,5.2,3-4.7,1.7-2.6.7-1.1-.4-1.3c-1.1-3.5-2.5-6.5-4.3-9.1l-.2-.3-.3-.2c-5.5-4.5-10.8-10.7-14.2-16.4-1-1.6-2.4-1.8-2.9-1.8h0Z" fill="#fff"/><path d="M121.2,402.5l-16,17.5s-6.2,8.2-10.6,12.8c-7.5,5-15.3,7.9-24.4,8-2.4-.4-4.2-.9-6-.9s-1.8.1-2.9.4c-4.2,1-8.5,2.3-12.8,3.4l2.1-2.4c3.4-1.1,6.8-2.4,9.9-3.9,1.8-.9,4.4-1.2,6.8-1.2s2.3,0,3.3.2c6.6-.6,14.2-4.8,20.1-8,6.7-3.6,8.3-6.8,13-11.1l17.7-14.8M119.4,400.4l-17.7,14.8h0s0,0,0,0c-1.5,1.4-2.7,2.6-3.9,3.9-2.4,2.5-4.3,4.6-8.6,6.8l-.6.3c-5.5,3-12.4,6.7-18.1,7.3-1.1-.1-2.2-.2-3.3-.2-3.3,0-6,.5-8,1.5-3.7,1.6-6.7,2.8-9.5,3.7l-.8.2-.5.6-2.1,2.4-5.7,6.7,8.5-2.2c1.8-.5,3.6-1,5.4-1.5,2.6-.7,5-1.4,7.4-1.9h0s0,0,0,0c.7-.2,1.4-.3,2.1-.3,1.1,0,2.2.2,3.6.5.6.1,1.2.2,1.9.3h.2s.2,0,.2,0c9,0,17.3-2.7,26-8.4l.3-.2.2-.2c4.2-4.4,10-11.9,10.7-12.9l15.9-17.4-3.9-4h0Z" fill="#fff"/><path d="M150.1,126l5,1.1,4.8,4.5c6.5,2,13.8,5,17.6,11.2,2.3,7.6,6,17.1,8.8,24.5.6,1.5.8,3,2.4,4,5.5,2.8,8.1,10.1,7.9,15.9.3,5.8-.7,11.5.7,17,.7,1.8.9,4.1.8,5.9.1,7.6-2.8,15.4-1.8,22.8,5.9,18.4,17.5,33.8,16.3,53.9l-.4,3.8s-3-19.5-5.1-24.9c-3.6-11-8.6-21.4-12-32.5-1-7.9,1.6-15.3,1.4-23.1,0-3.9-2.1-7.4-2.1-11.3-.6-7.6.2-16-3.8-21.5-1.6-2.2-5-3.1-6.5-6.1-3.6-8.8-6.9-18-9.6-27.2-6.1-9.1-18.5-8.3-24.4-18.1M144.5,122l3.2,5.4c3.5,5.8,9,8.4,13.8,10.6,4.1,1.9,8,3.7,10.5,7.3,2.5,8.6,5.7,17.7,9.5,27h0c0,.1,0,.2,0,.2,1.2,2.3,3.1,3.6,4.6,4.6.9.6,1.7,1.2,2.2,1.8,2.6,3.6,2.8,8.9,3,14.5,0,1.8.1,3.7.3,5.5,0,2.3.6,4.3,1.2,6.2.5,1.7,1,3.4,1,4.9h0s0,0,0,0c0,3.2-.4,6.3-.8,9.7-.6,4.4-1.2,8.9-.6,13.7v.2s0,.2,0,.2c1.8,6,4.2,11.9,6.4,17.6,1.9,4.9,4,9.9,5.6,15h0c0,0,0,.1,0,.1,1.6,4.2,4.1,19,4.9,24.4l3.1,20.2,2.3-20.3.4-3.8h0c0,0,0-.1,0-.1.9-14.4-4.5-26.5-9.7-38.3-2.3-5.3-4.8-10.8-6.6-16.4-.4-3.7.2-7.6.8-11.7.5-3.4,1.1-6.9,1.1-10.5.1-2.3-.3-4.8-.9-6.8-.7-3.1-.6-6.4-.6-9.9,0-2.1.1-4.2,0-6.4.1-6.4-2.7-14.7-9.2-18.1-.4-.3-.5-.7-.9-1.7-.1-.3-.3-.7-.4-1.1-.4-1-.8-2.1-1.2-3.2-2.6-6.9-5.6-14.7-7.5-21.1v-.3c-.1,0-.3-.3-.3-.3-4.2-6.9-12-10.1-18.5-12.1l-4.3-4.1-.5-.5-.7-.2-5-1.1-6.1-1.3h0Z" fill="#fff"/><path d="M205.7,131.1c.1,0,.2,0,.2.2-1.2,7.6-2.3,15.2-4.6,22.6-1.7,5.5-6.2,9.6-5.5,15.3l1.5,7.8-3.9-8.5c-1.2-5.3,4-10.2,6-15.3,2.6-7,4.4-14.5,6.1-22,0-.1,0-.2.2-.2M205.7,128.4h0c-1.4,0-2.6,1-2.8,2.3-1.6,7.1-3.4,14.6-6,21.6-.6,1.5-1.5,3.1-2.5,4.7-2.2,3.6-4.6,7.6-3.5,12.1,0,.2.1.4.2.5l3.9,8.5c.5,1,1.4,1.6,2.4,1.6s.6,0,.8-.1c1.3-.4,2.1-1.7,1.8-3.1l-1.5-7.7c-.3-2.7,1-5.1,2.6-8,1-1.9,2.1-3.9,2.8-6.1,2.2-7.2,3.4-14.6,4.5-21.7l.2-1.2c.1-.8,0-1.7-.6-2.3-.6-.7-1.4-1-2.2-1h0Z" fill="#fff"/><path d="M135.3,394.6c-.8.1-1.4.2-1.9.1,0,0,0-.1,0-.2-.2-.5-.5-.9-.9-1.2.2-.7,0-1.5-.4-2.1.1-.4.3-.7.5-1.1,21-5.4,41.2-19.3,32.4-35.3-1.8-3.2,2.4-10.9-1.2-14-7.8-6.6-15.9.2-22.2,3.3-13.6,6.8-17.1,24.4-13.6,42.1-.5,1.3-1,2-1.5,2.4-.6-.3-1.3-.3-1.9,0-.7-.5-1.4-1.3-1.7-1.9-.3-4.5.5-9.9-1.8-19.6-1.6-6.8,1.7-15.7-1.8-21.7-4.1-7.1-16.1-13.5-24.2-7.8-2.1,1.4-3.3,6.3-5,7.8-6.2,5.6-9.9,8.2-9.8,14.1,0,6,3.5,11.9,10.5,17.2,6.2,4.7,15.2,9,27.1,12.5.6.6,1.1,1.2,1.5,1.8-.2.8-.1,1.7.4,2.3,0,0,0,0,0,0,0,0-.2,0-.2.1-.8.7-1,1.7-.8,2.6-.5.4-1,.7-1.2.8-12.5-6.7-41.7-24.9-50.5-6.1-1.1,2.3-7,4.7-7.3,10.5.8,7,7.3,9.1,8.9,11.9,5.5,10.2,24.1,7,50.4-11.5.8-.3,1.4-.4,1.9-.3.1,0,.2,0,.4.1.9.3,1.2,1.3,1.3,2.3-4.7,4.6-11.1,11.8-15,19.5-3.9,7.8-6.7,20-.4,26.6,2.9,3,12.8,0,20.1,1.6,8.8,3.2,11.9-.8,16.6-6.1,8.7-9.8,7.7-26-11.4-43-.6-1-.8-1.7-.9-2.2.1-.3.2-.5.3-.8.5-.4,1.6-.3,2.4,0,11.2,8.5,28.4,41.6,53.2,13.2,3.5-4.1-2.1-1.1,10.2-18.8,0-9.6-19.4-16.8-62.4,1.1Z" fill="none" stroke="#fff" stroke-miterlimit="10" stroke-width="3.7"/><path d="M122.6,403.7c1.4,2.8,3-.6,3.9-.3.9.3,1.2.9,2.1.9.8,0,1.2.2,2.1-1.6.9-1.8-.5-1.2.2-2.1.7-.9,1.6-1.1,2-1.9s.8-1,.3-1.8c-.5-.7-1-.9-.5-1.4.5-.5,0-1.3-.2-2.2-.2-.9,0-2.2-.8-2.6s-1,.3-.9-1c.1-1.3.6-2-.7-2.3s-1.6-.5-2.3.2c-.7.7-1.4.2-2.5.9-1.1.7-1.7-.8-2.8-.3-1.1.6-2.3,1.9-1.9,2.4s-.3.9-.8,2-2.2,2.3-1.5,2.8c.7.4,1,.9.9,1.8,0,.9-.9,1.4-.6,2.3s1.6,2,2.3,1.7c.7-.2,1.6,2.4,1.6,2.4Z" fill="none" stroke="#fff" stroke-miterlimit="10" stroke-width="1.2"/><path d="M124.2,404.9c-.6,3.3-2.3,6-4.1,8.6-1,1.9-1.1,4.1-1.8,6.1-.8,3.1-2,6-3.6,8.9,0,0-.2,0-.2,0,0-2.2.3-4.4.9-6.5.8-3.2,2.9-5.8,4.1-8.8.6-2.1,1-4.3,2.4-6,.6-.9,1.3-1.7,2.2-2.5,0,0,.2,0,.2.1h0Z" fill="#fff"/><path d="M128.7,404.3c0,4-.9,7.9-1.7,11.9-.3,2.7.4,5.3.5,8,.4,4,.4,8,0,12,0,.1-.2.1-.2,0-1.4-3.9-1.8-7.9-1.7-12,0-2.7.7-5.4.8-8.1,0-2-.4-4.1,0-6.1,0-.6.3-1.4.5-2,.4-1.3.9-2.6,1.6-3.8,0,0,.2,0,.2,0h0Z" fill="#fff"/><path d="M130.8,402.7c1.7,2.4,2,5,2.2,7.8.3,1.8,1.5,3.3,2.2,5,1.1,2.5,1.9,5,2.2,7.8,0,0-.1.2-.2,0-1.4-1.4-2.3-3-3-4.7-1.1-2.5-1-5.4-1.8-8-1.3-2.5-2.3-5-1.8-8,0,0,.1-.1.2,0h0Z" fill="#fff"/><path d="M126.7,404.5l-.5,5.1c-.2,1.7-.7,3.3-1,5-.6,3.4-1.1,6.8-1.6,10.2,0,0-.2,0-.2,0,0-5.2-.1-10.4.8-15.6.5-1.7,1.1-3.5,2.3-4.8,0,0,.2,0,.2,0h0Z" fill="#fff"/><path d="M125,403.4c.1,2.9-.7,5.5-1.8,8.1-.8,2.3-2,5.5-3,7.8,0,0-.2,0-.2,0,.4-2.4,1.1-5.8,1.6-8.2.5-2.8,1.2-5.5,3.1-7.7,0,0,.2,0,.2,0h0Z" fill="#fff"/><path d="M122.4,405.1c-1,2.8-2.5,5.1-4.3,7.4-1.6,2.4-2.9,4.9-4.1,7.5,0,0-.2,0-.2,0,.6-2.9,1.6-5.6,2.9-8.2,1.1-2.7,2.8-5.3,5.5-6.8,0,0,.2.1.2.1h0Z" fill="#fff"/><path d="M129.7,405c1.2,2.1,1.4,4.2,1.5,6.5.3,2.2.5,4.4.8,6.7,0,0-.2,0-.2,0-.9-2.1-1.6-4.2-2.2-6.4-.8-2.2-1.1-4.5-.1-6.8,0,0,.2,0,.2,0h0Z" fill="#fff"/><path d="M131.6,402.9c2.2,1.1,3.3,3.1,4.1,5.2.9,2,1.6,4.1,2.3,6.2,0,0-.2,0-.2,0-.9-1.4-2.6-4.1-3.5-5.5-1.4-1.8-2.4-3.5-2.8-5.8,0,0,.2-.1.2-.1h0Z" fill="#fff"/><path d="M137.9,449.8c0-1.8.2-3.4.8-5,.3-.8.8-1.5,1.1-2.3.5-1.6,0-3.4.2-5.1,0-2.5.4-4.9.7-7.4,0,0,.2,0,.2,0,.6.8.8,1.6,1,2.5.4,1.7.3,3.5,0,5.2-.3,1.7-1.3,3.3-1.4,5,0,1.7,0,3.5-.8,5.1-.4.8-.8,1.5-1.5,2.2h-.2Z" fill="#fff"/><path d="M117.8,451c-1.4-1.5-2-3.2-2.2-5.1-.2-1.2.3-2.5,0-3.7-.2-.6-.6-1.1-.8-1.7-.3-.9-.2-1.9,0-2.8.1-.3.3-.8.6-1,0,0,0,0,0,0,.5,1.1,1,2.3.9,3.5,0,.6-.3,1.2-.2,1.8.2,1.8,1.5,3.3,1.8,5.1.2,1.2.3,2.4,0,3.7,0,0-.1.1-.2,0h0Z" fill="#fff"/><path d="M132.5,452.9c-.2-3.1,0-5.9.5-8.9.3-3,0-6.2.3-9.1.9,2.8,1,6.1,1.2,9.1.3,3.1,0,6.4-1.9,9,0,0-.2,0-.2,0h0Z" fill="#fff"/><path d="M120.4,451.6c-1.3-2.9-1.7-5.8-1.8-8.9,0-1.6-.4-5.2-.3-6.8,0-.8-.1-1.6.4-2.3.1,0,.2,0,.1.2-.1.2,0,.7,0,1,.2,2.1,1.1,5.6,1.4,7.7.7,3,1.2,6,.4,9.1,0,0-.2.1-.2,0h0Z" fill="#fff"/><path d="M130.8,451.8c-.7-.9-1-1.9-.8-3,0-.5.4-1,.4-1.5,0-1.4-1.2-2.8-1.2-4.4,0-1,0-2,.4-3.1,0,0,0,0,.1,0,1.3,1.2,1.7,2.8,1.7,4.5,0,1-.6,2.1-.3,3.1.4,1.1.9,1.8.6,3.1-.1.5-.3,1-.6,1.6,0,0-.2,0-.2,0h0Z" fill="#fff"/><path d="M123.6,450.1c-.8-.9-1.2-1.8-1.1-2.9,0-.5.3-1.1.3-1.6,0-.5-.2-1-.4-1.5-.7-1.4-1.1-3-.7-4.6,0-.3.3-1.5.8-1.6,0,0,0,0,0,0h0c.7,1.5,1.2,2.9,1.1,4.5,0,1-.5,2.1-.2,3.1.4,1,1.1,1.7.9,3,0,.5-.1,1.1-.5,1.6,0,0-.1,0-.2,0h0Z" fill="#fff"/><path d="M112.2,450.7c-1.2-1.2-1.9-2.6-2.3-4.2-.2-1.5,0-3.2-.6-4.7-.4-1.1-1-2.3-.6-3.5,0,0,0,.4,0,.4-.3-2.7.3-5.5,2.2-7.5,0,0,.2,0,.2,0,0,1.3-.1,2.6-.2,3.8,0,1.3-.2,3.1-.4,4.1-.3,1.8-.5,3.8.6,5.5,1.1,1.8,1.5,3.8,1.5,5.9,0,0-.2,0-.2,0h0Z" fill="#fff"/><path d="M135.4,451.2c-.4-2.1-.3-3.8.2-5.8,0,0,.8-5.8.8-5.8,0,0,.2,0,.2,0,.3,1.9.5,3.9.6,5.9.2,2,0,4.2-1.6,5.7,0,0-.2,0-.2,0h0Z" fill="#fff"/><path d="M110.5,450.9c-1.9-1.1-2.5-3.2-2.8-5.2-.4-1.9-.6-3.9-.7-5.8,0,0,.2,0,.2,0l2.1,5.4c.9,1.8,1.4,3.5,1.4,5.6,0,0-.2.1-.2.1h0Z" fill="#fff"/><path d="M115.8,450.7c-1.9-.6-2.5-2.4-2.7-4.1-.2-1.2-.3-2.5-.3-3.7,0-.5,0-.9.4-1.3,0,0,0,.2,0,.2,0,1.5.9,3,1.4,4.3.3.7.8,1.3,1,2.1.2.7.3,1.5.4,2.4h-.1Z" fill="#fff"/><path d="M140.7,447.7c0-1.8.6-3.1,1.5-4.6.7-1.4,1.4-2.9,1.9-4.4,0,0,.2,0,.2,0,0,1.7-.2,3.3-.7,4.9-.3,1.7-1.1,3.3-2.8,4.1,0,0-.2-.1-.2-.1h0Z" fill="#fff"/><path d="M126.2,451c-.8-1.7-.7-3.1-.3-4.8.1-1.6.2-3.2.2-4.8,0,0,.2,0,.2,0,.6,1.5,1,3.2,1.2,4.8.4,1.7.2,3.5-1.1,4.9,0,0-.2,0-.2,0h0Z" fill="#fff"/><path d="M129,451.8c-1.3-.9-1.4-2.2-1.2-3.6,0-1.3.3-2.5.6-3.7,0,0,.2,0,.2,0l.4,1.8.4,1.8c.1.6.4,1.2.4,1.8,0,.6-.2,1.2-.6,1.9h-.2Z" fill="#fff"/><path d="M100.7,336.4c1.8,0,3.5.7,4.9,1.7.7.6,1.2,1.3,1.9,1.8,1.3,1.1,3.1,1.5,4.5,2.5,1.5.9,2.8,2.1,3.7,3.6.5.8.9,1.6,1,2.5,0,0-.2,0-.2,0-2-1.6-4-2.9-5.7-4.8-1.3-1.1-2.2-2.6-3.7-3.5-1.5-.7-3.2-1.1-4.5-2.2-.7-.5-1.3-1-2-1.7v-.2h0Z" fill="#fff"/><path d="M85.6,349.8c1.6,1.2,2.7,2.5,3.4,4.2.6,1,.7,2.4,1.5,3.3.4.5,1,.8,1.5,1.1.9.8,1.4,1.9,1.8,3h0c0,.1,0,.2,0,.2-.4,0-.8-.1-1.1-.3-.8-.5-1.6-1.1-2-2-.3-.6-.4-1.2-.7-1.8-1-1.5-2.8-2.4-3.6-4.2-.6-1.1-1-2.3-1-3.6,0,0,.1-.1.2,0h0Z" fill="#fff"/><path d="M94.6,338c3.2.5,5.7,2.6,7.6,5,2,2.3,4.2,4.8,5.5,7.4-2.2-2-4.3-4.3-6.6-6.2-2.4-1.9-4.6-3.7-6.6-6,0,0,0-.2,0-.2h0Z" fill="#fff"/><path d="M87.1,347.5c4,2.2,6,6.9,8.6,10.5.8,1.1,1.6,2.6,2.6,3.5.1,0,.2.2,0,.2-.8-.1-1.3-.9-1.9-1.4-1.1-1.1-3.5-3.9-4.5-5.1-2.1-2.2-3.9-4.6-5-7.5,0,0,0-.2.2-.1h0Z" fill="#fff"/><path d="M94.4,340.1c1.1.2,2,.8,2.6,1.8.4,1,.7,2,1.8,2.5,1.9,1.1,3.2,2.9,3.2,5.3,0,0,0,.1-.2.1-1.1-.5-1.8-1.2-2.5-2-1.1-1.2-1.2-3-2.2-4-.9-.6-1.8-.8-2.4-2-.2-.5-.5-.9-.5-1.6,0,0,0-.2.1-.1h0Z" fill="#fff"/><path d="M90.4,346.3c1.1.4,1.9,1,2.4,2,.2.5.3,1.1.5,1.5.8,1.2,2.5,1.7,3.4,3.2.6.8,1,1.9,1.3,2.9,0,0,0,0,0,0-1.8-.2-3-1.5-3.7-2.9-.6-.8-.6-2.1-1.4-2.8-.9-.7-1.8-1-2.2-2.2-.2-.5-.4-1-.4-1.6,0,0,0-.1.2-.1h0Z" fill="#fff"/><path d="M81.9,353.9c1.2,1.1,2,2.4,2.7,3.8.5,1.4.8,3.1,2,4.1.5.5,1.6,1.4,2,1.7,2.2,1.6,4,3.3,6,5.2,0,0,0,.2,0,.2-2.7-.1-5.2-1.7-6.9-3.8,0,0,.4.2.4.2-1.1-.6-1.5-1.9-2-3-.8-2-2.9-3.1-3.5-5.2-.4-1-.6-2-.6-3.1,0,0,.2,0,.2,0h0Z" fill="#fff"/><path d="M98,337.2c2.2,0,3.9,1.4,5.2,3,1.3,1.4,2.6,3,3.7,4.6,0,0-.1.1-.1.1l-4.7-3.5c-1.7-1-3-2.2-4.2-4,0,0,0-.2,0-.2h0Z" fill="#fff"/><path d="M80.6,355.1c1.4,1.5,2.3,3,2.9,5,0,0,2.3,5.3,2.3,5.3h-.2c-1.3-1.4-2.5-2.9-3.6-4.6-1.2-1.6-2.3-3.5-1.7-5.7,0,0,.2,0,.2,0h0Z" fill="#fff"/><path d="M84.4,351.5c1.2,1.3,1.8,2.5,2.2,4.1.6,1.3,1.1,2.9,2.1,4,0,0,0,.2,0,.2-.8,0-1.4-1-2-1.5-1.5-1.9-3.8-4.1-2.5-6.8,0,0,.2,0,.2,0h0Z" fill="#fff"/><path d="M91.6,343.9c2.9,0,4.2,2.7,5.6,4.8.4.7.8,1.5,1.1,2.2h-.2c-1.6-1.7-3.6-3.1-5.3-4.7-.5-.6-1-1.2-1.3-2.2,0,0,.1-.2.1-.2h0Z" fill="#fff"/><path d="M93.1,341.4c1.5.4,2.1,1.2,2.7,2.4,0,0,1,1.5,1,1.5l1,1.6h-.1c-.5-.2-1-.6-1.6-.9-1.5-1.3-3.5-2.2-3.2-4.6,0,0,.2-.1.2-.1h0Z" fill="#fff"/><path d="M146.3,341.3c-.6,1.6-1.5,3.1-2.6,4.3-.6.6-1.3,1.1-1.9,1.8-1.1,1.3-1.3,3.1-2.1,4.6-.9,2.4-2.2,4.4-3.5,6.6,0,0-.2,0-.2,0-.3-.9-.2-1.8,0-2.7.3-1.7,1-3.4,2-4.8.9-1.5,2.4-2.5,3.2-4.1.7-1.6,1.3-3.3,2.7-4.4.7-.6,1.3-1.1,2.2-1.5,0,0,.1.1.1.1h0Z" fill="#fff"/><path d="M164.7,344.6c.2,2-.4,3.8-1.6,5.3-.6,1-1.8,1.8-2.3,2.9-.3.6-.3,1.2-.5,1.8-.4.9-1,1.6-1.8,2.1-.3.2-.7.4-1.1.4,0,0,0,0,0,0,.3-1.2.7-2.4,1.5-3.3.4-.4,1-.8,1.4-1.3,1-1.5.9-3.5,1.9-5.1.6-1,1.3-2,2.3-2.9,0,0,.2,0,.2,0h0Z" fill="#fff"/><path d="M152.6,339.7c-1.9,2.5-3.8,4.5-6,6.6-2.2,2.1-4,4.7-6,6.8,1.1-2.8,3.1-5.4,4.8-7.9,1.7-2.6,4-4.9,7.2-5.7,0,0,.2,0,.1.2h0Z" fill="#fff"/><path d="M164.1,341.5c-.8,3-2.4,5.5-4.3,8-.9,1.3-3,4.3-4.1,5.5-.6.6-1,1.3-1.8,1.6-.1,0-.1-.2,0-.2,1-.9,1.6-2.5,2.3-3.7,0,0,2.1-4,2.1-4,1.3-2.8,2.9-5.4,5.5-7.2,0,0,.2,0,.2.1h0Z" fill="#fff"/><path d="M155.6,337.5c0,1.1-.5,2.1-1.3,2.9-.4.3-1,.6-1.3.9-.9,1.1-.9,2.9-1.9,4.2-.6.8-1.3,1.6-2.3,2.2,0,0-.1,0-.2,0-.2-1.8.4-3.3,1.5-4.5.6-.8,1.8-1.3,2.2-2.2.4-1.1.4-2,1.5-2.8.4-.3.9-.6,1.5-.8,0,0,.2,0,.2.1h0Z" fill="#fff"/><path d="M162.4,339.9c0,1.1-.3,2.2-1,3-.4.4-.9.6-1.2,1-.3.4-.5.9-.6,1.4-.3,1.6-1.1,3-2.3,4-.4.3-.9.7-1.6.8,0,0,0,0,0,0,0,0,0,0,0,0h0c.3-1.6.8-3.1,1.9-4.2.6-.8,1.7-1.3,2.1-2.3.3-1.1.3-2,1.2-2.8.4-.4.8-.7,1.4-1,0,0,.2,0,.2.1h0Z" fill="#fff"/><path d="M165.5,355.7c.2,1.6-.2,3.2-.9,4.6-.8,1.3-2,2.5-2.5,4-.4,1.1-.7,2.5-1.8,3.1,0,0,.4-.3.4-.3-1.4,2.3-3.8,4.1-6.5,4.4,0,0,0-.2,0-.2.9-1,1.7-1.9,2.5-2.8.9-1,2.2-2.2,2.9-2.9,1.4-1.2,2.8-2.7,3-4.6.3-2.1,1.3-3.9,2.6-5.5,0,0,.2,0,.2,0h0Z" fill="#fff"/><path d="M166.8,356.7c.8,2.1,0,4.1-1.1,5.8-.9,1.7-2,3.4-3.1,5,0,0-.2,0-.2,0l1.8-5.5c.4-2,1.1-3.6,2.4-5.2,0,0,.2,0,.2,0h0Z" fill="#fff"/><path d="M163.8,352.2c1.1,1.7.4,3.5-.5,4.9-.6,1.1-1.3,2.1-2.1,3-.3.3-.5.7-1.1.8,0,0,0-.2,0-.2.9-1.2,1.2-2.8,1.7-4.2.2-.7.2-1.5.6-2.2.3-.7.7-1.3,1.2-2.1,0,0,.2,0,.2,0h0Z" fill="#fff"/><path d="M160.8,338.6c-.8,2.6-2.3,4.6-4,6.6-1.6,2-3,4.1-4.4,6.3,0,0-.2,0-.2,0,.9-2.5,2-4.8,3.3-7.1,1.2-2.4,2.7-4.5,5.2-5.8,0,0,.2.1.2.1h0Z" fill="#fff"/><path d="M157.4,338.4c.4,1.5-.3,2.6-1.4,3.5-.9.9-1.8,1.7-2.8,2.5,0,0-.2-.1-.2-.1l.8-1.7.8-1.6c.3-.5.4-1.2.8-1.6.4-.4.9-.8,1.7-1.1h.2Z" fill="#fff"/><path d="M70.2,413.6c1.7-.3,3.4-.3,5.1,0,.8.2,1.6.6,2.5.7,1.7.2,3.4-.5,5-.6,2.5-.4,4.9-.4,7.4-.5,0,0,.1.2.1.2-.7.7-1.5,1.1-2.3,1.4-1.6.7-3.4.9-5.2.8-1.7,0-3.4-.7-5.1-.6-1.7.2-3.5.6-5.1,0-.8-.3-1.7-.6-2.4-1.1v-.2h0Z" fill="#fff"/><path d="M63.4,396.1c1.6-1.2,3.4-1.6,5.3-1.4,1.2,0,2.5.6,3.7.4.6,0,1.2-.4,1.8-.5.9-.2,1.9,0,2.8.4.3.1.7.4.9.7,0,0,0,0,0,0-1.2.3-2.4.6-3.6.4-.6-.1-1.2-.4-1.8-.5-1.8,0-3.5,1.1-5.3,1.1-1.2,0-2.4,0-3.7-.5,0,0-.1-.1,0-.2h0Z" fill="#fff"/><path d="M65.6,409.1c3.1.3,5.8.9,8.8,1.7,2.9.8,6.1,1,9,1.6-2.9.5-6.2.2-9.2,0-3.1-.2-6.3-.8-8.6-3.1,0,0,0-.2,0-.2h0Z" fill="#fff"/><path d="M61,398.3c3-.9,6-.9,9-.5,1.6.1,5.2.4,6.8.6.8.2,1.6.1,2.3.7,0,.1,0,.2-.2,0-1.3-.4-3,0-4.4,0,0,0-4.5.3-4.5.3-3.1.3-6.1.4-9-.9,0,0,0-.2,0-.2h0Z" fill="#fff"/><path d="M62.1,407.6c1-.5,2-.7,3.1-.4.5.2,1,.5,1.5.6,1.4.2,3-.8,4.6-.6,1,0,2,.3,3.1.8,0,0,0,0,0,.2-1.4,1.1-3,1.3-4.6,1-1,0-2-.8-3.1-.7-1.1.2-1.9.7-3.1.2-.5-.2-1-.4-1.5-.8,0,0,0-.2,0-.2h0Z" fill="#fff"/><path d="M60.7,400.6c.9-.6,2-.9,3.1-.7.5.1,1,.5,1.5.5.5,0,1,0,1.5-.2,1.5-.5,3.1-.7,4.6,0,.5.2,1,.4,1.5,1,0,0,0,0,0,0,0,0,0,0,0,0h-.1c-1.5.6-3,.9-4.5.5-1,0-2-.8-3-.7-1.1.3-1.8.8-3.1.4-.5-.1-1-.3-1.5-.7,0,0,0-.2,0-.2h0Z" fill="#fff"/><path d="M68.1,389.6c1.3-1,2.8-1.5,4.4-1.7,1.6,0,3.2.5,4.7,0,1.1-.2,2.5-.7,3.6-.1,0,0-.4-.2-.4-.2,2.7,0,5.4,1.1,7.2,3.2,0,0-.1.2-.1.2-1.3-.2-2.5-.5-3.7-.7-1.3-.3-3-.7-4-1-1.8-.5-3.7-1-5.5-.2-2,.8-4,.9-6.1.6,0,0,0-.2,0-.2h0Z" fill="#fff"/><path d="M71.3,386.6c1.4-1.8,3.5-2.1,5.6-2,2-.1,3.9,0,5.9,0,0,0,0,.2,0,.2l-5.7,1.3c-1.9.7-3.6.9-5.7.7,0,0,0-.2,0-.2h0Z" fill="#fff"/><path d="M66.1,393.3c.9-1.8,2.7-2.2,4.5-2.1,1.2,0,2.5,0,3.7.2.4.1.9,0,1.2.5,0,0-.2,0-.2,0-1.5-.1-3.1.4-4.5.7-.8.2-1.4.6-2.2.7-.8,0-1.5,0-2.4,0v-.2h-.1Z" fill="#fff"/><path d="M60.4,402.6c2.6-.7,5.1-.4,7.7,0,2.5.3,5.1.5,7.7.5,0,0,0,.2,0,.2-2.5.6-5.2.8-7.8.9-2.7.2-5.3,0-7.7-1.4,0,0,0-.2,0-.2h0Z" fill="#fff"/><path d="M62,405.7c1.1-1.1,2.4-1.1,3.7-.7,1.2.3,2.4.6,3.6,1.1,0,0,0,.2,0,.2l-1.9.2h-1.8c-.6.2-1.2.4-1.8.2-.6-.1-1.2-.3-1.8-.8,0,0,0-.2,0-.2h0Z" fill="#fff"/><path d="M193.5,388c-1.7.5-3.3.7-5,.6-.8-.1-1.7-.4-2.5-.4-1.7,0-3.3.9-4.9,1.2-2.4.7-4.8,1-7.3,1.4,0,0-.1-.2-.1-.2.6-.8,1.4-1.3,2.1-1.7,3.2-1.9,6.7-1.2,10.2-1.4,1.7-.4,3.4-1,5.1-.6.9.2,1.7.4,2.5.8v.2h0Z" fill="#fff"/><path d="M185.9,413c-1.7,1.1-3.5,1.4-5.4,1.1-1.2,0-2.4-.8-3.6-.7-.6,0-1.2.3-1.8.4-.9,0-1.9-.2-2.7-.6-.3-.2-.7-.4-.8-.8,0,0,0,0,0,0,1.2-.3,2.4-.5,3.6-.2.6.2,1.2.5,1.8.6,1.8.1,3.6-.9,5.4-.7,1.2,0,2.4.2,3.6.7,0,0,0,.2,0,.2h0Z" fill="#fff"/><path d="M196.8,394.3c-3.1.5-5.9.5-8.9.4-3,0-6.2.6-9.1.6,2.7-1.2,5.9-1.7,8.9-2.2,3-.6,6.3-.7,9.1.9,0,0,0,.2,0,.2h0Z" fill="#fff"/><path d="M188.4,410.2c-3.1.7-6,.5-9,0-1.6-.2-5.2-.7-6.7-1-.8-.2-1.6-.2-2.2-.8,0-.1.1-.2.2,0,1.3.5,2.9.3,4.3.3,0,0,4.5,0,4.5,0,3.1-.1,6.1,0,9,1.4,0,0,0,.2,0,.2h0Z" fill="#fff"/><path d="M195.5,397.3c-1,.6-2,.8-3.1.7-.5-.1-1-.5-1.5-.5-1.4,0-2.9,1-4.5,1-1,0-2-.1-3.1-.6,0,0,0,0,0-.2,1.3-1.2,2.9-1.6,4.5-1.4,1,0,2.1.7,3.1.5,1.1-.3,1.9-.8,3.1-.4.5.1,1,.3,1.5.7,0,0,0,.2,0,.2h0Z" fill="#fff"/><path d="M189,406.4c-1,.6-2,.8-3.1.5-.5-.2-1-.5-1.5-.6-.5-.1-1,0-1.5.1-1.5.4-3.2.5-4.6-.2-.5-.2-1-.5-1.4-1.1,0,0,0,0,0,0,0,0,0,0,0,0h.1c1.5-.5,3-.7,4.5-.2,1,.1,2,.9,3,.8,1.1-.2,1.9-.7,3.1-.3.5.2,1,.4,1.5.8,0,0,0,.2,0,.2h0Z" fill="#fff"/><path d="M180.8,419.3c-1.4.9-2.9,1.3-4.5,1.4-1.6,0-3.1-.6-4.7-.3-1.2.1-2.5.6-3.6,0,0,0,.4.2.4.2-2.7-.2-5.4-1.4-7-3.6,0,0,.1-.2.1-.2,1.3.3,2.5.6,3.7.9,1.3.3,3,.8,3.9,1.2,1.7.6,3.6,1.2,5.5.5,2-.7,4-.7,6.1-.2,0,0,0,.2,0,.2h0Z" fill="#fff"/><path d="M196.5,390.5c-1.9.8-3.7,1-5.7.9,0,0-5.8.3-5.8.3v-.2c1.8-.7,3.7-1.2,5.6-1.6,2-.6,4.1-.8,5.9.5,0,0,0,.2,0,.2h0Z" fill="#fff"/><path d="M183.5,415.8c-1,1.7-2.9,2-4.6,1.8-1.2,0-2.5-.1-3.7-.5-.4-.2-.9-.1-1.2-.6,0,0,.2,0,.2,0,1.5.2,3.1-.3,4.5-.5.8-.2,1.5-.5,2.2-.5.8,0,1.5,0,2.4.1v.2h.1Z" fill="#fff"/><path d="M186.8,385.6c-1.6.9-3.1.9-4.8.7-1.6,0-3.2,0-4.8.2,0,0,0-.2,0-.2,1.5-.8,3.1-1.3,4.7-1.6,1.7-.5,3.4-.5,4.9.7,0,0,0,.2,0,.2h0Z" fill="#fff"/><path d="M190.5,404.3c-1.8.4-3.2,0-4.8-.6-1.5-.5-3.1-.9-4.7-1.1,0,0,0-.2,0-.2,1.6-.3,3.3-.4,5-.2,1.8,0,3.5.5,4.5,2,0,0,0,.2,0,.2h0Z" fill="#fff"/><path d="M192.9,400.7c-1.2,1.1-2.5,1-3.8.4-1.2-.3-2.4-.8-3.5-1.3,0,0,0-.2,0-.2h1.9c0,0,1.8,0,1.8,0,.6,0,1.2-.2,1.8,0,.6.2,1.1.4,1.7,1v.2h0Z" fill="#fff"/><path d="M135.4,398.1c3.1,1.1,5.5,3.3,7.9,5.5,1.7,1.3,3.9,1.8,5.8,2.7,3,1.3,5.6,2.9,8.2,5,0,0,0,.2,0,.2-2.2-.3-4.3-1-6.2-1.9-3-1.3-5.3-3.8-8-5.5-3-1.2-5.9-2.9-7.6-5.9,0,0,0-.2.1-.2h0Z" fill="#fff"/><path d="M134.2,396c4,.7,7.7,2.2,11.4,3.6,2.6.8,5.3.5,8,.8,4,.3,7.9.9,11.9,2,0,0,0,.2,0,.2-4.1.7-8.1.5-12.1-.3-2.7-.5-5.2-1.6-7.8-2.1-2-.3-4.1-.3-6-1.1-.6-.2-1.4-.5-1.9-.8-1.2-.6-2.4-1.3-3.5-2.2,0,0,0-.2,0-.2h0Z" fill="#fff"/><path d="M134.5,395.7c2.7-1.3,5.3-1.2,8.1-.9,1.8,0,3.5-1,5.3-1.3,2.7-.7,5.3-1,8.1-.9,0,0,.1.1,0,.2-1.6,1.1-3.3,1.7-5.1,2.2-2.7.7-5.5.1-8.2.5-2.7.9-5.4,1.4-8.2.5,0,0-.1-.2,0-.2h0Z" fill="#fff"/><path d="M134.6,396.4l4.7,2c1.5.7,3,1.7,4.5,2.4,3,1.6,6.1,3.1,9.2,4.6,0,0,0,.2,0,.2-4.9-1.5-10-3-14.6-5.5-1.5-1-3-2.1-3.9-3.6,0,0,.1-.1.1-.1h0Z" fill="#fff"/><path d="M136,396.5c2.2-1.1,4.4-.8,6.6,0,2.1.5,4.2,1.2,6.3,1.9,0,0,0,.2,0,.2-1.6-.1-4.9-.4-6.5-.6-2.3,0-4.3-.2-6.4-1.3,0,0,0-.2,0-.2h0Z" fill="#fff"/><path d="M129.9,387.8c-1.3-3.1-.9-6.5-.1-9.6.3-3.2-.3-6.5.4-9.7.4-2.1,1.1-4.2,2.2-6.1,0,0,.2,0,.2,0,.2,3.3-.2,6.4-.9,9.6-.3,2.1-1.3,4.1-1.3,6.3.4,3.2.6,6.4-.3,9.6,0,0-.2.1-.2,0h0Z" fill="#fff"/><path d="M130.9,389.4c-.2-4.3,1.7-8,4.1-11.4,1.4-2.3,2.1-5,3.4-7.4,1.9-3.6,4.3-6.9,7.5-9.5,0,0,.2,0,.2.1-1.7,3.7-3.7,7.1-6.1,10.4-1.4,2.2-3.4,4.2-4.5,6.7-1.3,3.8-2.5,7.6-4.5,11.1,0,0-.2,0-.2,0h0Z" fill="#fff"/><path d="M131.1,389.8c1.4-2.6,3.7-4.1,6.2-5.3,2.2-1.6,3.9-4,6.3-5.3,1.6-.9,3.3-1.7,5.2-1.9,0,0,.2.1,0,.2-2,2-4,3.6-6.5,4.9-1.5.9-3.4,1.4-4.8,2.6-1.9,2.1-3.7,4-6.5,4.9,0,0-.2,0-.1-.2h0Z" fill="#fff"/><path d="M130.4,388.1c-.6-2.9,0-5.6.8-8.3.6-2.4,1.6-5.7,2.3-8,0,0,.2,0,.2,0-.2,2.4-.6,5.9-1,8.3-.2,2.8-.7,5.5-2.2,8,0,0-.2,0-.2,0h0Z" fill="#fff"/><path d="M131.5,388.7c.3-2.4,1.8-4.3,3.6-5.8,1.6-1.6,3.3-3.1,5.2-4.4,0,0,.1.1.1.1-1.4,1.8-2.8,3.6-4.1,5.3-1.2,2-2.5,3.6-4.6,4.9,0,0-.2-.1-.2-.1h0Z" fill="#fff"/><path d="M119.3,388.1c-3.4-.2-6.3-1.9-8.8-4-2.8-1.6-6-2.5-8.6-4.5-1.7-1.3-3.3-2.7-4.6-4.6,0,0,0-.2.1-.2,3.1,1.2,5.7,2.9,8.3,4.8,1.7,1.2,3.2,2.9,5.1,3.8,3.1,1,6.1,2.1,8.5,4.3,0,0,0,.2,0,.2h0Z" fill="#fff"/><path d="M122,388.4c-1.9-.7-3.7-1.9-5.2-3.3-1.6-1.3-2.6-3.2-3.8-4.8-1.7-2.1-3.9-3.8-5.5-5.9-2.6-3.1-4.7-6.6-6-10.5,0,0,.1-.2.2-.1,2.8,3,5.2,6.1,7.3,9.5,1.5,2.2,2.6,4.7,4.5,6.6,3,2.6,6.1,5.2,8.6,8.3,0,0,0,.2-.1.2h0Z" fill="#fff"/><path d="M121.9,388.6c-2.1-2.1-2.8-4.8-3.2-7.5-.9-2.6-2.6-4.9-3.2-7.6-.4-1.8-.6-3.6-.3-5.6,0,0,.2-.1.2,0,1.4,2.5,2.3,4.9,2.8,7.6.5,1.7.4,3.7,1.1,5.3,1.5,2.4,2.7,4.7,2.8,7.7,0,0-.1.2-.2,0h0Z" fill="#fff"/><path d="M121.5,389.1c-3.6-.6-6.4-3.1-8.7-5.7-2.4-2.5-4.8-5-6.9-7.7,0,0,.1-.1.1-.1,1.3,1.1,2.6,2.3,3.9,3.4,2.5,2.3,5.4,4.3,8,6.4,0,0,3.7,3.5,3.7,3.5,0,0,0,.2,0,.2h0Z" fill="#fff"/><path d="M120.9,387.7c-2.1-1.2-3.3-3.3-4-5.5-.9-2.1-1.6-4.2-2.2-6.4,0,0,.2,0,.2,0,1.1,2,2.3,3.9,3.4,5.8,1.4,1.9,2.4,3.7,2.8,6.1,0,0-.2.1-.2.1h0Z" fill="#fff"/><path d="M118.3,398.7c-3.3,0-6.3-1.1-9.3-2.3-2.1-.6-4.3-.2-6.4-.5-3.2-.2-6.3-.7-9.4-1.7,0,0,0-.2,0-.2,2.2-.5,4.3-.6,6.5-.4,3.3.2,6.3,1.6,9.4,2.2,2.1.2,4.4.1,6.4,1.1,1,.4,2,.9,2.9,1.6,0,0,0,.2,0,.2h0Z" fill="#fff"/><path d="M119.3,400.1c-3.9,1.1-7.8,1.5-11.8,1.9-2.6.5-5,1.9-7.5,2.9-3.7,1.6-7.5,2.8-11.5,3.6,0,0-.2-.1,0-.2,3.3-2.5,7-4.1,11-5.2,2.6-.8,5.3-.9,7.9-1.7,1.9-.6,3.8-1.6,5.8-1.8.6,0,1.5-.2,2-.2,1.4,0,2.8,0,4.1.4,0,0,.1.2,0,.2h0Z" fill="#fff"/><path d="M118.7,399.4l-5.1.3c-1.7.1-3.4-.1-5.1-.1-3.4,0-6.9,0-10.3.1,0,0,0-.2,0-.2,5.1-.9,10.3-1.9,15.5-1.8,1.8.2,3.6.5,5.1,1.5,0,0,0,.2,0,.2h0Z" fill="#fff"/><path d="M117.9,400.4c-1.7,1.8-3.6,2.6-5.8,3.4-2,.9-4.1,1.8-6.1,2.8v-.2c1.6-1.5,3.5-2.8,5.4-4,1.9-1.4,4-2.4,6.5-2.2,0,0,0,.2,0,.2h0Z" fill="#fff"/><path d="M126.4,389.2c-1.6-1.6-2,1.1-2.7,1.1-.7,0-1.1-.4-1.7-.2-.6.2-.9.1-1.1,1.6-.2,1.5.6.7.3,1.5-.3.8-.8,1.1-.9,1.8,0,.7-.3.9.2,1.3.5.4.9.4.7.9-.2.5.3,1,.6,1.5s.5,1.5,1.1,1.7.7-.5.9.5,0,1.5,1.1,1.5c1,0,1.3,0,1.6-.7.3-.6.9-.5,1.6-1.2.6-.7,1.4.2,2-.5.6-.6,1.2-1.8.7-2.1s0-.7,0-1.6c0-.9,1-2.2.4-2.3-.6-.2-.9-.4-1.1-1.1-.2-.7.3-1.2,0-1.7s-1.6-1-2-.7-1.7-1.3-1.7-1.3Z" fill="none" stroke="#fff" stroke-miterlimit="10" stroke-width=".9"/><path d="M125.4,400.3c1.1,1.3,1.5-.8,2.1-.8.5,0,.8.3,1.3.2s.7,0,.9-1.2c.2-1.1-.4-.6-.2-1.2s.7-.8.8-1.3.3-.7,0-1-.7-.3-.5-.7c.2-.4-.2-.7-.4-1.2s-.4-1.2-.8-1.3-.5.3-.6-.4c-.1-.7,0-1.2-.7-1.1-.8,0-1,0-1.2.4s-.7.3-1.2.9c-.5.5-1-.2-1.5.3-.5.5-1,1.3-.6,1.6s0,.5-.1,1.2-.8,1.6-.4,1.7.7.3.8.9c.1.5-.3.9,0,1.3.3.4,1.2.8,1.5.6.3-.2,1.3,1.1,1.3,1.1Z" fill="none" stroke="#fff" stroke-miterlimit="10" stroke-width=".7"/><path d="M125.1,392.3c-1.1-.5-.8.9-1.1,1.1s-.6,0-.9.2-.4.2-.3,1,.4.2.4.7-.2.7-.1,1.1,0,.5.3.6.5,0,.5.3.3.4.6.6c.3.2.6.6.9.6s.2-.4.5,0,.3.8.8.5c.5-.2.6-.3.7-.6s.4-.4.6-.9.7-.2.9-.6c.2-.4.3-1.1,0-1.2-.3,0-.1-.4-.3-.8s0-1.3-.2-1.2-.5,0-.7-.3,0-.6-.4-.8-1-.2-1.1,0-1.1-.3-1.1-.3Z" fill="none" stroke="#fff" stroke-miterlimit="10" stroke-width=".5"/><path d="M249.5,242.5c-.1-.5-.1-.9-.1-1.2,0,0,0,0,.1,0,.3-.1.6-.3.8-.6.5.1,1,0,1.3-.3.2,0,.5.2.7.3,4,13.6,13.6,26.4,23.9,20.3,2.1-1.2,7.2,1.3,9.1-1.1,4.1-5.3-.5-10.4-2.7-14.4-4.8-8.7-16.3-10.6-27.8-7.9-.8-.3-1.3-.6-1.6-.9.2-.4.2-.9,0-1.3.3-.5.8-.9,1.2-1.2,3-.3,6.5,0,12.8-1.6,4.4-1.2,10.3.7,14.2-1.7,4.5-2.9,8.4-10.8,4.5-16-1-1.3-4.2-2-5.2-3.1-3.8-3.9-5.6-6.3-9.4-6.1-3.9.2-7.7,2.6-11,7.3-2.9,4.2-5.5,10.1-7.5,18-.4.4-.8.8-1.1,1-.5-.1-1.1,0-1.5.3,0,0,0,0,0,0,0,0,0-.1,0-.2-.4-.5-1.1-.6-1.7-.4-.3-.3-.5-.6-.6-.8,4.1-8.3,15.2-27.8,2.8-33.1-1.5-.7-3.2-4.5-7-4.5-4.5.7-5.8,5-7.6,6.1-6.5,3.9-4,15.9,8.8,32.7.2.5.3.9.2,1.2,0,0,0,.2,0,.2-.2.6-.8.8-1.5.9-3.1-2.9-8-7-13.1-9.3-5.2-2.4-13.2-3.9-17.4.4-1.9,2,.3,8.4-.6,13.2-1.8,5.8.8,7.7,4.4,10.7,6.6,5.4,17.2,4.4,27.8-8.5.6-.4,1.1-.6,1.4-.6.2,0,.4.1.6.2.3.3.2,1,0,1.6-5.3,7.5-26.5,19.6-7.3,35.1,2.7,2.2.7-1.4,12.6,6.2,6.3-.2,10.5-13.1-2.2-40.7Z" fill="none" stroke="#fff" stroke-miterlimit="10" stroke-width="2.4"/><path d="M243.3,234.4c-1.8,1,.5,2,.3,2.6s-.6.8-.6,1.4-.1.8,1.1,1.4c1.2.5.8-.4,1.4.1s.8,1,1.3,1.2c.6.2.7.5,1.2.2.5-.3.6-.6.9-.3s.9,0,1.4-.2,1.4,0,1.7-.6-.2-.7.6-.6c.9,0,1.3.3,1.5-.5.2-.9.3-1.1-.2-1.5s-.2-.9-.6-1.6c-.5-.7.5-1.1.1-1.8-.4-.7-1.3-1.5-1.6-1.2-.4.3-.6-.2-1.3-.4s-1.6-1.4-1.9-.9-.6.6-1.2.6c-.6,0-.9-.6-1.5-.4s-1.3,1.1-1.1,1.5-1.5,1.1-1.5,1.1Z" fill="none" stroke="#fff" stroke-miterlimit="10" stroke-width=".8"/><path d="M242.5,235.5c-2.2-.3-3.9-1.4-5.8-2.5-3.4-1.1-6.8-1.3-10-3.2,0,0,0-.1,0-.1,1.5-.1,2.9,0,4.2.4,2.1.5,3.9,1.7,5.8,2.5,2.1.4,4.2,1.1,5.7,2.8,0,0,0,.1,0,.1h0Z" fill="#fff"/><path d="M243,238.4c-2.7,0-5.2-.4-7.8-.8-4.4,0-8.6,1.3-13.1.8,0,0,0-.1,0-.1,1.7-.7,3.4-1,5.2-1.3,2.6-.4,5.3.1,7.9.2,2.6-.3,5.4-.3,7.8,1.1,0,0,0,.1,0,.1h0Z" fill="#fff"/><path d="M244.1,239.8c-1.5,1.2-3.3,1.5-5.1,1.6-1.2.3-2.1,1.1-3.2,1.5-1.6.8-3.2,1.3-5.1,1.6,0,0-.1,0,0-.1.9-.9,1.9-1.5,3-2.1,1.6-.8,3.5-.8,5.2-1.4,1.6-.9,3.2-1.6,5.2-1.4,0,0,0,0,0,.1h0Z" fill="#fff"/><path d="M242.8,237.1c-2,0-4.7-.3-6.6-.7-2.2-.3-4.4-.6-6.7-.8,0,0,0-.1,0-.1,2.3-.2,4.5-.2,6.8-.1,2.3,0,4.7.2,6.6,1.7,0,0,0,.1,0,.1h0Z" fill="#fff"/><path d="M243.5,236c-1.9.2-3.6-.2-5.4-.9-1.7-.6-3.4-1.1-5.1-1.8h0c1.8.1,3.6.5,5.4.8,1.8.2,3.6.7,5.1,1.8,0,0,0,.1,0,.1h0Z" fill="#fff"/><path d="M242.3,234.3c-3.6-1.2-6.3-3.9-10-5.1,0,0,0-.1,0-.1,1.9.3,3.7.9,5.5,1.7,1.8.7,3.5,1.7,4.6,3.4,0,0,0,.1,0,.1h0Z" fill="#fff"/><path d="M242.6,239.1c-2.5,1.4-5.7,1.1-8.6,1.8,0,0,0-.1,0-.1,1.3-.6,2.7-1.1,4.2-1.6,1.4-.5,2.9-.8,4.4-.3,0,0,0,.1,0,.1h0Z" fill="#fff"/><path d="M244,240.3c-.6,1.4-1.9,2.2-3.3,2.8-1.3.6-2.6,1.2-4,1.6h0c1.2-.9,2.4-1.7,3.5-2.5,1.1-.9,2.2-1.7,3.7-2,0,0,0,0,0,0h0Z" fill="#fff"/><path d="M213.5,245.5c1.7-.2,3.3.4,4.8,1.1.5.1,1.1.1,1.7,0,2.3-.2,4.3,0,6.5.2,0,0,0,.1,0,.1-1,.8-2.2.9-3.3,1-1.7,0-3.3-.7-5-1-1.1,0-2.3.1-3.3-.4-.5-.2-1-.5-1.5-.9h0Z" fill="#fff"/><path d="M212.2,232.4c.9-.9,2-1.4,3.3-1.5.8-.2,1.7.1,2.4-.1.7-.3,1.4-.8,2.3-.7.4,0,.9,0,1.3.5,0,0,0,0,0,0-.7.3-1.5.7-2.3.7-.4,0-.8-.1-1.2-.1-1.2.2-2.1,1.1-3.3,1.3-.8.1-1.5.2-2.4,0,0,0,0,0,0-.1h0Z" fill="#fff"/><path d="M211.3,242.1c2-.2,3.8,0,5.8.1,1.9.1,4,0,6,0-1.8.6-4,.8-5.9,1-2,.3-4.2.2-5.9-1,0,0,0-.1,0-.1h0Z" fill="#fff"/><path d="M211.9,234.2c2.6-1.4,5.8-1.3,8.7-1.7,1,0,2.1-.3,3,.1,0,0,0,.1,0,0-.9-.2-1.9.3-2.9.4,0,0-2.9.7-2.9.7-1.9.6-3.9.9-5.9.5,0,0,0-.1,0-.1h0Z" fill="#fff"/><path d="M212.1,241c.6-.5,1.2-.7,1.9-.6.3,0,.7.2,1,.2,1,0,1.8-.8,2.9-.9.4,0,1.8,0,2.1.3-.8.9-1.8,1.2-2.9,1.2-.7,0-1.4-.3-2.1-.1-1,.5-1.9.8-3,.1,0,0,0,0,0-.1h0Z" fill="#fff"/><path d="M212.9,236.2c.5-.5,1.2-.8,1.9-.8.3,0,.7.2,1,.2.3,0,.7-.1,1-.3.9-.5,1.9-.8,3-.6.3,0,.9.2,1.1.5,0,0,0,0,0,0h0c-.9.6-1.8.9-2.8.9-.7,0-1.4-.3-2,0-.6.3-1.2.8-1.9.6-.3,0-.7,0-1.1-.3,0,0,0,0,0-.1h0Z" fill="#fff"/><path d="M212.3,228.8c1-1,2.3-1.7,3.7-1.7.7,0,1.4-.1,2-.4.7-.3,1.5-.7,2.3-.5,0,0-.3,0-.3,0,1.7-.3,3.6,0,5,1.2,0,0,0,.1,0,.1-1.7,0-3.7,0-5.1-.2-.6,0-1.2-.1-1.7,0-1.4,0-2.4,1.2-3.7,1.4-.6.2-1.3.3-2,.3,0,0,0-.1,0-.1h0Z" fill="#fff"/><path d="M212.5,243.9c2.6-.6,5,.3,7.6.4,0,0,0,.1,0,.1-1.3.3-2.5.4-3.8.5-1.3.2-2.7.1-3.8-.9,0,0,0-.1,0-.1h0Z" fill="#fff"/><path d="M212.2,227.7c.7-1.3,2-1.7,3.3-2,1.3-.3,2.5-.5,3.8-.6,0,0,0,.1,0,.1l-3.5,1.5c-1.2.6-2.2,1-3.6,1.1,0,0,0-.1,0-.1h0Z" fill="#fff"/><path d="M212.4,231.1c.7-2.1,3.3-2,5-2.1.3,0,.5,0,.8.2h-.1c-1.4.2-2.9,1.2-4.1,1.7-.5.1-.9.2-1.5.3h0Z" fill="#fff"/><path d="M215,247.3c1.2-.1,2.1.3,3,.9.9.4,1.9.8,2.9,1.2h0c-1.1.2-2.2,0-3.2-.2-1.1-.2-2.2-.6-2.8-1.7,0,0,0-.1,0-.1h0Z" fill="#fff"/><path d="M212.5,237.9c1.1-.5,2-.5,3.1-.3,1,0,2.1,0,3.1,0h0c-1,.6-2,.9-3.1,1-1.1.3-2.3.2-3.2-.6,0,0,0-.1,0-.1h0Z" fill="#fff"/><path d="M212,239.8c.6-.8,1.4-1,2.3-.9.8,0,1.6.1,2.4.3,0,0,0,.1,0,.1-1.2.3-2.3.7-3.5.9-.4,0-.8,0-1.3-.3h0Z" fill="#fff"/><path d="M286.7,218.5c0,1.8-.9,3.3-2.1,4.5-.9,1.4-1.3,3.2-2.5,4.4-.8.8-1.7,1.6-2.9,1.9h0c1.3-1.9,2.5-3.6,4.1-5.2.4-.4.8-.8,1-1.3.4-1,.6-2.1,1.3-3,.3-.5.6-.9,1.1-1.3h.1Z" fill="#fff"/><path d="M277.6,209c-.7,1.1-1.6,1.8-2.7,2.4-.7.4-1.6.5-2.1,1.1-.3.3-.5.7-.7,1-.4.4-1.6,1.2-2.1,1.2,0-.9.7-1.6,1.4-2.1.4-.2.8-.3,1.1-.5,1-.7,1.5-1.9,2.6-2.5.7-.4,1.5-.7,2.4-.7,0,0,0,0,0,.1h0Z" fill="#fff"/><path d="M285.5,214.6c-.2,2.1-1.6,3.8-3.1,5.1-1.5,1.3-3,2.9-4.7,3.8,1.2-1.5,2.7-2.9,3.9-4.5,1.2-1.6,2.3-3.1,3.8-4.5,0,0,.1,0,.1,0h0Z" fill="#fff"/><path d="M279.1,209.8c-1.4,2.7-4.3,4.1-6.6,5.9-.7.6-1.7,1.1-2.2,1.9,0,0,0,0,0,0,0,0,0,0,0,0,.1-.6.5-.9.9-1.3.7-.8,2.4-2.4,3.2-3.1,1.4-1.4,2.9-2.7,4.8-3.4,0,0,.1,0,0,0h0Z" fill="#fff"/><path d="M284.1,214.4c-.2,1.3-1,1.8-2.1,2.2-.6.4-.8,1.2-1.3,1.6-.7.8-1.6,1.3-2.8,1.4,0,0,0,0,0,0,.5-1,1.1-1.7,2-2.3.5-.4,1.3-.5,1.8-1,.4-.6.6-1.3,1.2-1.6.3-.2.6-.3,1-.4,0,0,.1,0,0,0h0Z" fill="#fff"/><path d="M279.9,212c-.2.7-.6,1.3-1.3,1.6-.3.1-.7.2-1,.4-.8.6-1.1,1.7-2,2.3-.5.4-1.2.7-1.9.9,0,0,0,0,0,0,.1-1.2.9-2,1.8-2.5.5-.4,1.3-.5,1.8-1,.4-.5.7-1.2,1.4-1.5.3-.1.6-.3,1.1-.3,0,0,0,0,0,.1h0Z" fill="#fff"/><path d="M274.8,206.6c-1,1-2,1.8-3.4,2.2-.7.2-1.2.5-1.7,1-.4.4-.8.9-1.1,1.4-.8,1.2-2.1,2.7-3.2,4,0,0-.1,0-.1,0,0-1.8,1-3.5,2.3-4.6,0,0-.1.2-.1.2.3-.8,1.2-1,1.9-1.4,1.3-.6,2-2,3.3-2.4.6-.3,1.3-.5,2-.5,0,0,0,.1,0,.1h0Z" fill="#fff"/><path d="M286.1,216.7c.1,1.5-.8,2.6-1.8,3.4-.9.9-1.9,1.8-2.9,2.6h0c.7-1.1,1.5-2.2,2.2-3.2.6-1.2,1.4-2,2.5-2.8,0,0,.1,0,.1,0h0Z" fill="#fff"/><path d="M274,205.8c-1,1-1.9,1.6-3.2,2,0,0-3.4,1.7-3.4,1.7h0c.9-1,1.9-1.8,3-2.5,1-.9,2.2-1.6,3.7-1.2,0,0,0,.1,0,.1h0Z" fill="#fff"/><path d="M276.4,208.2c-1.4,1.5-3.7,1.6-5.2,3,0,0-.1,0-.1,0,0-.6.6-.9,1-1.4,1.2-1,2.6-2.6,4.4-1.8,0,0,0,.1,0,.1h0Z" fill="#fff"/><path d="M281.6,212.7c0,1.2-.7,2.1-1.7,2.8-.8.7-1.7,1.3-2.7,1.8h0c1.2-1.2,2-2.5,3-3.7.4-.3.8-.7,1.4-.9h.1Z" fill="#fff"/><path d="M283.3,213.6c-.2,1-.7,1.4-1.5,1.8-.7.4-1.3.9-2,1.4h0c.4-.8.9-1.5,1.4-2.1.5-.8,1.1-1.3,2.2-1.2,0,0,0,.1,0,.1h0Z" fill="#fff"/><path d="M284.6,248.4c-1.7-.5-2.9-1.6-4.1-2.8-1.4-.9-3.1-1.1-4.6-1.9-1-.5-1.9-1-2.9-1.5h0c1.2-.5,2.4-.1,3.4.2,1.6.6,2.8,1.9,4.2,2.8,1,.4,2.2.8,2.9,1.7.4.4.8.9,1,1.4,0,0,0,0,0,0h0Z" fill="#fff"/><path d="M282.9,260.5c-1.3.2-2.5-.2-3.5-.9-.7-.4-1.2-1.1-1.9-1.4-.8-.2-1.6-.3-2.2-.9-.3-.3-.6-.6-.7-1.2,0,0,0,0,0,0,.8.2,1.6.4,2.2.9.3.3.5.6.9.9,1,.6,2.3.5,3.4,1.1.7.4,1.3.8,1.9,1.5,0,0,0,.1,0,.1h0Z" fill="#fff"/><path d="M285.8,252.4c-1.7-1.1-3-2.4-4.4-3.8-1.4-1.3-3.2-2.5-4.6-3.8,1.8.7,3.6,1.9,5.2,3,1.7,1.1,3.3,2.5,3.9,4.5,0,0,0,.1-.1,0h0Z" fill="#fff"/><path d="M284.9,260c-2.9-.6-5.3-2.7-7.8-4.2-.7-.6-1.8-1.1-2.3-2,0,0,0,0,.1,0,.6.7,1.7,1,2.5,1.5,0,0,2.6,1.3,2.6,1.3,1.8.8,3.6,1.7,4.9,3.4,0,0,0,.1,0,.1h0Z" fill="#fff"/><path d="M287.3,254.4c-.7,0-1.4-.3-1.9-.8-.2-.3-.4-.6-.6-.8-.5-.5-1.3-.4-1.9-.7-1-.4-1.7-.9-2.4-1.9,0,0,0,0,0-.1.8-.2,1.5,0,2.1.3,1,.4,1.5,1.4,2.4,2,1.1.2,2,.6,2.4,1.8,0,0,0,.1,0,.1h0Z" fill="#fff"/><path d="M285.9,258.8c-.7,0-1.4-.1-2-.6-.2-.2-.4-.6-.7-.8-.3-.2-.6-.3-.9-.4-1-.2-2-.6-2.7-1.4-.2-.2-.6-.7-.5-1.1,0,0,0,0,0,0h0c1,.2,2,.5,2.7,1.2.5.4.9,1.1,1.5,1.3.6.2,1.4.2,1.9.7.3.2.5.5.7.9,0,0,0,.1,0,.1h0Z" fill="#fff"/><path d="M275.7,261.3c-1.4.2-2.8-.1-3.9-1-.5-.4-1.1-.7-1.8-1-.7-.3-1.6-.4-2.1-1.1,0,0,.2.2.2.2-1.5-.9-2.7-2.3-3.1-4.1,0,0,.1,0,.1,0,1.3,1.1,2.8,2.3,3.8,3.4.4.4.8.8,1.3,1.2,1.1.9,2.6.6,3.8,1.3.6.3,1.2.6,1.8,1.1h0Z" fill="#fff"/><path d="M275.1,262.2c-1.4.6-2.7,0-3.8-.6-1.2-.6-2.3-1.2-3.3-1.9h0c0-.1,3.6.9,3.6.9,1.3.2,2.4.6,3.5,1.4,0,0,0,.1,0,.1h0Z" fill="#fff"/><path d="M277.9,260.1c-1.8,1.2-3.8-.5-5.3-1.6-.2-.2-.4-.3-.5-.7h.1c1.2.8,2.9,1,4.3,1.4.5.2.9.4,1.4.8,0,0,0,.1,0,.1h0Z" fill="#fff"/><path d="M286.7,257.8c-3.3-1-5.6-3.7-8.6-5.2,0,0,0-.1,0-.1,1.6.5,3.2,1.2,4.7,2,1.6.7,3,1.7,3.9,3.3,0,0,0,.1,0,.1h0Z" fill="#fff"/><path d="M286.8,255.5c-1,.3-1.7-.1-2.3-.8-.6-.6-1.2-1.1-1.7-1.8h0c.8.2,1.5.6,2.2.9.9.3,1.4.7,1.8,1.6,0,0,0,.1,0,.1h0Z" fill="#fff"/><path d="M235.5,200.4c.5,1.7.1,3.3-.3,4.9,0,.5,0,1.1.2,1.6.6,2.2.7,4.2.8,6.5,0,0-.1,0-.1,0-.9-.9-1.2-2-1.5-3.1-.4-1.7.2-3.4.2-5.1-.2-1.1-.5-2.2-.1-3.4.1-.6.3-1.1.7-1.6,0,0,.1,0,.1,0h0Z" fill="#fff"/><path d="M246.8,195.6c.8,1,1.1,2.2,1.1,3.5,0,.8-.4,1.6-.2,2.4.2.8.6,1.5.4,2.4-.1.4-.2.8-.6,1.2,0,0,0,0,0,0-.2-.8-.5-1.6-.4-2.4,0-.4.3-.8.3-1.2,0-1.2-.8-2.3-.8-3.4,0-.8,0-1.6.2-2.4,0,0,0,0,.1,0h0Z" fill="#fff"/><path d="M238.4,197.3c-.1,2-.5,3.8-.9,5.8-.4,1.9-.5,4-.8,5.9-.4-1.9-.3-4-.2-6,0-2,.4-4.1,1.8-5.7,0,0,.1,0,.1,0h0Z" fill="#fff"/><path d="M245.3,194.1c1,2.8.5,6,.4,8.8-.1,1,0,2.1-.5,3,0,0-.1,0,0,0,.3-.9,0-2,0-2.9,0,0-.3-2.9-.3-2.9-.3-2-.4-4,.4-5.9,0,0,.1,0,.1,0h0Z" fill="#fff"/><path d="M239.2,195c.4.7.5,1.3.3,2,0,.3-.3.6-.4,1,0,1,.6,1.9.5,3,0,.4-.2,1.8-.6,2.1-.8-.9-.9-1.9-.8-3,0-.7.5-1.3.4-2-.4-1.1-.5-2,.3-3,0,0,.1,0,.1,0h0Z" fill="#fff"/><path d="M243.8,193.9c.4.6.6,1.3.6,2,0,.3-.3.7-.3,1,0,.3,0,.7.2,1,.4,1,.5,2,.2,3-.1.3-.3.9-.7,1,0,0,0,0,0,0h0c-.4-1-.6-2-.4-3,0-.7.5-1.3.4-2-.2-.6-.6-1.3-.4-2,0-.3.2-.7.4-1,0,0,0,0,.1,0h0Z" fill="#fff"/><path d="M251.2,198.5c.9,1.1,1.3,2.5,1.2,3.9,0,.7,0,1.4.1,2,.2.7.5,1.6.2,2.3,0,0,0-.3,0-.3,0,1.8-.6,3.6-1.9,4.8,0,0-.1,0-.1,0,.2-1.7.5-3.6.9-5,.2-.5.3-1.1.3-1.7.2-1.4-.8-2.5-.9-3.9,0-.7-.1-1.3,0-2,0,0,.1,0,.1,0h0Z" fill="#fff"/><path d="M253.2,200.5c1.2.9,1.4,2.3,1.5,3.6.1,1.3.2,2.6.1,3.8,0,0-.1,0-.1,0l-1-3.7c-.5-1.2-.7-2.3-.6-3.7,0,0,.1,0,.1,0h0Z" fill="#fff"/><path d="M248.6,197.3c1.9.9,1.5,3.5,1.4,5.3,0,.3,0,.5-.3.8h0c0-1.5-.7-3.1-1.1-4.5,0-.5,0-1,0-1.6h.1Z" fill="#fff"/><path d="M242.4,193.7c.9,3.3-.2,6.7,0,10.1,0,0-.1,0-.1,0-.4-1.7-.6-3.3-.8-5-.2-1.7-.1-3.5.7-5,0,0,.1,0,.1,0h0Z" fill="#fff"/><path d="M240.5,194.9c.8.7.8,1.6.5,2.4-.2.8-.3,1.6-.6,2.4,0,0-.1,0-.1,0-.1-1.2-.4-2.4-.4-3.6,0-.4.2-.8.5-1.2h.1Z" fill="#fff"/><path d="M255.2,280.3c-.7-1.6-.5-3.3-.3-4.9,0-.6-.2-1.1-.4-1.6-.9-2.1-1.2-4.1-1.6-6.3,0,0,0,0,0,0,1,.7,1.5,1.9,1.9,2.9.6,1.6.2,3.4.4,5.1.3,1.1.7,2.2.5,3.3,0,.6-.2,1.1-.5,1.7h-.1Z" fill="#fff"/><path d="M238.7,276c-.7-1.1-1-2.3-.9-3.5,0-.8.5-1.6.3-2.4-.2-.8-.5-1.6-.2-2.4.1-.4.2-.8.7-1.2,0,0,0,0,0,0,.2.8.4,1.6.2,2.4,0,.4-.3.8-.3,1.2,0,1.2.6,2.3.6,3.5,0,.8,0,1.6-.4,2.4,0,0,0,0-.1,0h0Z" fill="#fff"/><path d="M251.2,282.7c-.4-2-.5-3.8-.5-5.8,0-2-.5-4-.6-5.9.8,1.8,1.2,3.8,1.7,5.8.5,2,.6,4.1-.4,6,0,0-.1,0-.1,0h0Z" fill="#fff"/><path d="M240.6,277.6c-.8-2.8-.1-6,.1-8.8.2-1,.1-2.1.7-2.9,0,0,.1,0,0,0-.3.9-.1,2-.1,2.9,0,0,0,2.9,0,2.9.2,2,.2,4-.7,5.9,0,0-.1,0-.1,0h0Z" fill="#fff"/><path d="M249.2,281.9c-.4-.6-.6-1.3-.5-2,0-.3.3-.7.3-1,0-1-.7-1.9-.7-2.9,0-.4,0-1.8.4-2.1.8.8,1.1,1.9,1,2.9,0,.7-.4,1.4-.3,2,.4,1,.7,1.9,0,3,0,0,0,0-.1,0h0Z" fill="#fff"/><path d="M243.1,277.9c-.4-.6-.6-1.3-.4-2,0-.3.3-.7.4-1,0-.3,0-.7-.1-1-.3-1-.4-2.1,0-3,.1-.3.3-.9.7-1,0,0,0,0,0,0h0c.3,1,.5,2,.2,3,0,.7-.6,1.3-.5,2,.1.7.5,1.3.2,2,0,.3-.2.7-.5,1,0,0,0,0-.1,0h0Z" fill="#fff"/><path d="M234.5,272.8c-.8-1.2-1.2-2.6-.9-4,.1-.7.1-1.4,0-2-.1-.8-.4-1.6,0-2.3,0,0-.1.3-.1.3,0-1.8.8-3.5,2.2-4.6,0,0,.1,0,.1,0-.3,1.7-.7,3.6-1.2,5-.2.5-.3,1.1-.4,1.7-.3,1.3.7,2.6.6,3.9,0,.7,0,1.3-.1,2,0,0-.1,0-.1,0h0Z" fill="#fff"/><path d="M253.7,282.4c-1.1-2.4-.7-4.9-1-7.5,0,0,.1,0,.1,0,.5,1.2.9,2.4,1.2,3.7.4,1.3.7,2.7-.2,3.9,0,0-.1,0-.1,0h0Z" fill="#fff"/><path d="M236.8,274.5c-1.9-1.1-1.3-3.6-1.1-5.4,0-.3,0-.5.4-.8h0c-.1,1.5.5,3.1.8,4.5,0,.5,0,1,0,1.6h-.1Z" fill="#fff"/><path d="M256.6,275.9c-.6-1-.7-2-.6-3.1,0-1,0-2.1-.2-3.1h.1c.5.9.9,1.9,1.1,3,.4,1.1.4,2.2-.4,3.2,0,0-.1,0-.1,0h0Z" fill="#fff"/><path d="M244.5,278.8c-.3-1.2,0-2.1.3-3.1.3-1,.5-2,.6-3.1h.1c.3,1,.3,2.1.3,3.2,0,1.2-.2,2.3-1.2,3,0,0-.1,0-.1,0h0Z" fill="#fff"/><path d="M247,280.3c-.7-.7-.7-1.6-.4-2.4.2-.8.4-1.6.8-2.3,0,0,.1,0,.1,0,0,1.2.2,2.4.2,3.6-.1.4-.2.8-.6,1.2h-.1Z" fill="#fff"/><path d="M247.2,242.6c-.7,2.1-2,3.7-3.4,5.3-1.6,3.1-2.3,6.5-4.7,9.3,0,0-.1,0-.1,0,.1-1.5.6-2.8,1.1-4.1.8-2,2.3-3.5,3.4-5.4.7-2,1.8-3.9,3.6-5.1,0,0,.1,0,.1,0h0Z" fill="#fff"/><path d="M248.5,241.8c-.4,2.7-1.2,5-2.1,7.5-.6,4.3-.1,8.7-1.4,13,0,0-.1,0-.1,0-.4-1.8-.5-3.5-.4-5.3,0-2.7,1-5.2,1.5-7.8.1-1.8.2-3.6,1-5.2.3-.8.8-1.6,1.4-2.3,0,0,.1,0,.1,0h0Z" fill="#fff"/><path d="M248.8,242c.9,1.7.9,3.5.8,5.3,0,1.2.7,2.3,1,3.4.5,1.7.8,3.4.8,5.3,0,0,0,0-.1,0-.8-1-1.2-2.1-1.5-3.3-.5-1.7-.2-3.6-.5-5.4-.6-1.7-1.1-3.5-.5-5.3,0,0,.1,0,.1,0h0Z" fill="#fff"/><path d="M248.3,242.1c-.7,1.9-1.7,4.4-2.7,6.1-1,2-1.9,4.1-2.8,6.1h-.1c.5-2.2,1.2-4.4,2-6.5.7-2.2,1.6-4.4,3.6-5.8,0,0,0,0,0,0h0Z" fill="#fff"/><path d="M248.3,243c.7,1.4.6,2.9.2,4.3-.3,1.4-.6,2.8-1.1,4.2h-.1c0-1.5.2-2.9.2-4.3,0-1.5,0-2.8.7-4.2,0,0,.1,0,.1,0h0Z" fill="#fff"/><path d="M253.8,238.8c2-.9,4.2-.8,6.3-.3,2.1,0,4.2-.4,6.3,0,1.4.2,2.8.6,4.1,1.3,0,0,0,.1,0,.1-3.7.5-6.9-.7-10.4-1-2.1.3-4.1.6-6.3,0,0,0,0-.1,0-.1h0Z" fill="#fff"/><path d="M252.8,239.5c2.7-.2,5.3.9,7.5,2.4,2.4,1.1,5,1.8,7.2,3.3,1.5,1,2.9,2,4.1,3.4,0,0,0,.1,0,.1-4.2-1.5-7.5-4.4-11.4-6.5-2.5-.7-5-1.4-7.4-2.7,0,0,0-.1,0-.1h0Z" fill="#fff"/><path d="M252.5,239.6c1.7.8,2.8,2.3,3.6,4,1.1,1.4,2.7,2.4,3.6,4,.6,1,1.2,2.1,1.4,3.4,0,0,0,.1-.1,0-1.4-1.2-2.5-2.6-3.4-4.1-.7-1-1-2.2-1.8-3-1.4-1.1-2.7-2.3-3.4-4.1,0,0,0-.1,0,0h0Z" fill="#fff"/><path d="M253.7,239.1c1.9-.4,3.6-.1,5.4.4,1.8.4,3.5.8,5.3,1.3h0c-1.8,0-3.6,0-5.4-.2-1.9,0-3.6-.3-5.3-1.3,0,0,0-.1,0-.1h0Z" fill="#fff"/><path d="M253.3,239.9c1.6.2,2.8,1.1,3.9,2.2,1.1,1,2.1,2.1,3,3.3,0,0,0,0,0,0-1.2-.9-2.4-1.7-3.6-2.5-1.3-.8-2.4-1.6-3.3-2.9,0,0,0-.1,0-.1h0Z" fill="#fff"/><path d="M253.4,231.9c0-2.2,1.1-4.1,2.4-5.8,1-1.9,1.5-4,2.7-5.7.8-1.2,1.7-2.3,2.9-3.1,0,0,.1,0,.1,0-1.1,3.6-3.5,5.9-5.3,9-.6,2-1.2,4-2.6,5.7,0,0-.1,0-.1,0h0Z" fill="#fff"/><path d="M253.2,233.6c.8-2.6,2.9-4.5,5.1-6.1,1.4-1.1,2.4-2.6,3.7-3.8,2-1.7,4.3-3.5,6.8-4.1-2.9,3.4-7,5.3-10.3,8.2-1.6,2.1-3.2,4-5.2,5.8,0,0-.1,0-.1,0h0Z" fill="#fff"/><path d="M253.1,233.6c1.3-1.4,3-2,4.8-2.3,1.7-.6,3.1-1.8,4.9-2.3,1.2-.3,2.4-.5,3.6-.3,0,0,0,0,0,.1-1.6,1-3.2,1.6-4.9,2-1.1.3-2.4.3-3.5.9-1.5,1-3.1,1.9-4.9,2,0,0-.1,0,0-.1h0Z" fill="#fff"/><path d="M252.8,233.3c.3-2.4,1.9-4.2,3.5-5.8,1.6-1.7,3.2-3.2,4.9-4.7h0c-2.2,2.7-4.1,5.4-6.1,8.1,0,0-2.2,2.5-2.2,2.5h-.1Z" fill="#fff"/><path d="M253.7,232.9c.7-1.4,2.1-2.2,3.5-2.8,1.4-.6,2.7-1.2,4.1-1.6h0c-1.2.9-2.5,1.7-3.7,2.5-1.2.9-2.4,1.7-3.9,2,0,0,0-.1,0-.1h0Z" fill="#fff"/><path d="M246.4,231.5c-.1-2.2.5-4.1,1.3-6.1.4-3.5-.1-6.9,1.1-10.4,0,0,.1,0,.1,0,.4,1.4.5,2.8.4,4.2,0,2.1-.9,4.1-1.2,6.2,0,2.1-.2,4.3-1.6,6.1,0,0-.1,0-.1,0h0Z" fill="#fff"/><path d="M245.5,232.2c-.8-2.6-1.2-5.1-1.5-7.7-1.4-4.2-3.8-7.8-4.7-12.2,0,0,0-.1.1,0,3,3.5,3.9,7.9,5,12.2,1.1,2.4,1.9,5.1,1.3,7.8,0,0-.1,0-.1,0h0Z" fill="#fff"/><path d="M246,231.8c-.2-2-.5-4.7-.4-6.7,0-2.2-.2-4.5-.3-6.7h.1c.5,2.2.9,4.4,1.2,6.6.4,2.2.6,4.7-.5,6.8,0,0-.1,0-.1,0h0Z" fill="#fff"/><path d="M245.3,231.3c-2.1-1.9-2.8-5.1-4.3-7.6,0,0,.1,0,.1,0,1,1.1,1.9,2.3,2.8,3.5,1,1.2,1.7,2.6,1.6,4.2,0,0-.1,0-.1,0h0Z" fill="#fff"/><path d="M252.8,236.6c1-1.1-.8-1.3-.8-1.7s.2-.7,0-1.1,0-.6-1.1-.7c-1,0-.4.4-1,.2s-.8-.5-1.2-.6-.6-.2-.9.2c-.3.4-.2.6-.6.5s-.6.2-1,.5c-.4.2-1,.4-1.1.8s.3.4-.3.6c-.6.2-1,0-.9.7,0,.7,0,.8.5,1s.3.6.8,1c.5.4,0,.9.4,1.3s1.2.7,1.4.4.5,0,1.1,0,1.4.6,1.5.2.2-.6.7-.7.8.2,1.1,0,.6-1.1.4-1.3.8-1.2.8-1.2Z" fill="none" stroke="#fff" stroke-miterlimit="10" stroke-width=".6"/><path d="M245.6,236.1c-.8.8.6,1,.5,1.3s-.2.5,0,.8,0,.5.8.6.4-.3.8-.1c.4.2.6.4.9.5s.4.2.7,0,.2-.4.4-.3.5-.1.7-.3.7-.3.8-.6c0-.3-.2-.3.3-.4s.8,0,.7-.5c0-.5,0-.6-.3-.8s-.2-.5-.6-.8,0-.7-.2-1c-.3-.3-.9-.6-1.1-.4s-.4,0-.8,0c-.4,0-1.1-.5-1.1-.2s-.2.4-.5.5-.6-.2-.9,0-.5.8-.4,1-.7.8-.7.8Z" fill="none" stroke="#fff" stroke-miterlimit="10" stroke-width=".5"/><path d="M250.7,235.8c.3-.7-.6-.5-.7-.7s0-.4-.2-.6-.2-.3-.7-.1-.1.3-.4.3-.5-.1-.7,0-.3,0-.4.2,0,.3-.2.3-.3.2-.4.4c-.1.2-.4.4-.4.6s.2.1,0,.3-.5.2-.3.5.2.4.4.4.3.2.6.3c.3.1.1.5.4.6s.8.1.8,0,.2,0,.5-.2.8,0,.8-.2,0-.3.2-.5.4,0,.5-.3.1-.7,0-.7.2-.7.2-.7Z" fill="none" stroke="#fff" stroke-miterlimit="10" stroke-width=".3"/><path d="M108,78.8c-.4.8-.8,1.4-1.2,1.8,0,0-.1,0-.2-.1-.6-.2-1.1-.2-1.7,0-.5-.7-1.3-1-2.1-1.1-.2-.4-.4-.8-.6-1.2,9.4-22.6,10.6-50.3-9.8-53.3-4.1-.6-8.2-9.6-13.4-8.4-11.3,2.6-10.7,14.5-12.1,22.3-3.1,16.9,10.3,32,28.6,41,.8,1.3,1.1,2.2,1.1,2.9-.7.4-1.2,1-1.4,1.7-.9.3-2.1.3-2.9.3-4.3-2.8-8.6-7.2-18.9-11.8-7.3-3.2-13-12.2-20.9-13.2-9.2-1.1-23.1,5.3-23.6,16.5-.1,2.8,3.4,7.3,3.6,9.8.8,9.4.6,14.5,6,18.4,5.5,4,13.1,4.9,22.7,2.3,8.5-2.4,18.5-7.5,29.8-15.9,1-.2,1.9-.2,2.6-.1.5.8,1.4,1.3,2.4,1.2,0,0,0,0,.1,0,0,.1,0,.2,0,.3,0,1.1.8,2.1,1.8,2.5,0,.7,0,1.4-.1,1.7-14.5,6.7-50.8,20.6-39.9,41.4,1.4,2.6-.6,9.5,4.5,13.8,6.9,4,13.2-.4,16.8.1,12.9,1.9,22.7-17,24-53.3.3-.9.6-1.5,1-1.9.1,0,.2-.2.3-.3.9-.6,2-.2,3,.4,1,7.3,3,18.1,7.3,26.8,4.4,8.9,13.4,19.7,23.7,18.5,4.7-.6,8.8-11.6,15.2-17,8.8-5.8,7.3-11.3,5.8-19.1-2.9-14.5-18.2-24.7-46.6-19-1.3-.1-2.1-.4-2.6-.7-.1-.3-.3-.6-.6-.8,0-.8.8-1.6,1.6-2.2,15.2-4.3,56.9,2.7,48.2-39-1.2-6-2.5,1.2-10-22-8.6-6.5-28.4,6-41.5,57Z" fill="none" stroke="#fff" stroke-miterlimit="10" stroke-width="4.2"/><path d="M107.5,96.5c3.4.7,1.5-3.1,2.4-3.8.9-.6,1.7-.5,2.2-1.2s1.1-1,0-3-1.4-.3-1.7-1.6c-.3-1.3,0-2.1-.4-3.1-.5-1-.4-1.4-1.4-1.5s-1.5.2-1.6-.5-1.2-.9-2.1-1.3-2-1.4-2.9-1.1c-.9.3-.4,1.1-1.5.1s-1.4-1.9-2.6-.9c-1.2,1-1.6,1.1-1.5,2.2s-.8,1.4-.9,2.9c-.2,1.5-1.9,1-2.1,2.3-.2,1.4,0,3.4.9,3.3.8,0,.6.9,1.3,2.1.7,1.2.6,3.6,1.5,3.3s1.5-.2,2.3.4c.8.7.6,1.7,1.6,2.1s2.9-.1,3.1-.9c.2-.8,3.3.2,3.3.2Z" fill="none" stroke="#fff" stroke-miterlimit="10" stroke-width="1.4"/><path d="M109.7,95.8c2.5,2.8,3.8,6.1,5,9.6,1,2.2,3,3.8,4.3,5.8,2.3,2.9,4.1,5.9,5.5,9.3,0,.1,0,.2-.2.1-2.1-1.4-3.7-3.3-5.2-5.2-2.3-2.9-3.3-6.5-5.1-9.7-2.4-2.9-4.3-6-4.6-9.9,0-.1.1-.2.2,0h0Z" fill="#fff"/><path d="M112.2,91.5c3.6,2.9,6.5,6.2,9.5,9.6,2.2,2.1,5.1,3.3,7.5,5,3.9,2.4,7.5,5,10.8,8.2,0,0,0,.2-.1.2-4.4-1.4-8.4-3.8-12-6.7-2.4-1.9-4.3-4.3-6.8-6.2-1.8-1.4-4-2.4-5.5-4.2-.5-.5-1.1-1.2-1.5-1.8-.9-1.2-1.7-2.6-2.3-4.1,0-.1,0-.2.2-.1h0Z" fill="#fff"/><path d="M112.2,88.4c2.1.1,4.1.7,5.9,1.7.9.5,1.7,1.2,2.6,1.7,1.8.9,4,.9,6,1.4,3,.7,5.8,1.8,8.6,3.4,0,0,0,.2,0,.2-2.2.3-4.3,0-6.3-.5-3.1-.7-5.6-2.8-8.5-3.8-3.1-.5-6.1-1.4-8.4-3.8,0,0,0-.2,0-.2h0Z" fill="#fff"/><path d="M111.1,93.4c4.5,3.8,8,8.3,12.1,12.5,1.3,1.4,2.7,2.8,4.1,4.2v.2c-4.8-3.5-9.6-7-13.6-11.4-1.2-1.6-2.4-3.4-2.8-5.3,0,0,.2-.1.2-.1h0Z" fill="#fff"/><path d="M108.8,94.2c2.7,1.9,4.5,4.4,6.1,7.1,0,0,2.5,4,2.5,4,.8,1.3,1.7,2.7,2.5,4,0,0-.2.1-.2.1-1.9-2-4.5-4.9-6.3-7-2.2-2.3-4.1-4.8-4.9-8.1,0,0,.2-.1.2-.1h0Z" fill="#fff"/><path d="M108.7,97.6c1.9,2.8,2.8,5.7,3.8,8.9,1.1,3,2.4,6,4,8.8,0,0-.2.1-.2.1-2.2-2.5-4-5.3-5.5-8.2-1.7-2.9-2.8-6.1-2.4-9.6,0,0,.2,0,.2,0h0Z" fill="#fff"/><path d="M113.6,91c2.7.4,4.8,1.6,6.9,3.1,2.2,1.3,4.4,2.6,6.6,3.8,0,0,0,.2,0,.2-2.5-.6-4.9-1.5-7.3-2.4-2.5-.8-4.8-2.1-6.2-4.5,0,0,.1-.2.1-.2h0Z" fill="#fff"/><path d="M112.9,87.8c2.4-1.2,5-.9,7.5-.1,2.4.6,4.8,1.3,7.1,2.2,0,0,0,.2,0,.2l-3.7-.3-3.7-.3c-1.2,0-2.4,0-3.6-.2-1.2-.3-2.3-.6-3.6-1.2,0,0,0-.2,0-.2h0Z" fill="#fff"/><path d="M159.6,114.1c-1.6-1.1-2.9-2.5-3.9-4.2-.5-.8-.8-1.8-1.4-2.5-1.1-1.6-3-2.4-4.4-3.6-2.3-1.7-4.1-3.7-6.2-5.7,0,0,0-.2,0-.2,1.1,0,2.1.4,3,.8,1.8.8,3.4,2.1,4.6,3.6,1.3,1.4,2.1,3.3,3.5,4.7,1.5,1.2,3.2,2.4,4,4.2.4.9.8,1.8,1,2.8h-.2Z" fill="#fff"/><path d="M146.9,133.1c-2.3.3-4.3-.3-6.1-1.5-1.2-.6-2.1-2-3.4-2.5-1.4-.4-2.8-.4-3.9-1.6-.5-.6-1.1-1.1-1.2-2,0,0,0,0,0,0,1.3.3,2.7.7,3.8,1.6.5.5.9,1.1,1.5,1.5,1.7,1,4,.9,5.8,1.9,1.2.6,2.3,1.4,3.3,2.5,0,0,0,.2,0,.2h0Z" fill="#fff"/><path d="M158.6,121.2c-2.9-2-5.2-4.1-7.7-6.5-2.5-2.3-5.5-4.3-8-6.5,3.2,1.2,6.2,3.2,9.1,5.1,1.4,1,2.9,1.9,4.1,3.2,1.1,1.3,2.2,2.8,2.7,4.6,0,.1,0,.2-.2.1h0Z" fill="#fff"/><path d="M149.3,131.1c-3.5-.8-6.4-2.4-9.2-4.5-1.5-1-5-3.2-6.4-4.3-.6-.6-1.6-1-1.8-1.9,0-.2.2-.1.2,0,0,0,.2.3.4.4,2.2,1.4,6.1,3.1,8.5,4.3,3.2,1.4,6.2,3,8.4,5.8,0,0,0,.2-.1.2h0Z" fill="#fff"/><path d="M156.4,121.8c-1.3,0-2.4-.5-3.3-1.3-.4-.4-.7-1.1-1.1-1.4-.4-.4-1-.6-1.6-.7-1.2-.2-2.2-.6-3.2-1.2-.9-.6-1.8-1.4-2.6-2.5,0,0,0-.1,0-.2,2-.3,3.7.3,5.1,1.5,1,.6,1.5,1.9,2.6,2.4.5.3,1.2.3,1.8.5.6.2,1,.6,1.4,1,.4.4.7,1,1,1.6,0,0,0,.2-.1.2h0Z" fill="#fff"/><path d="M150.1,127.2c-1.3.1-2.5-.2-3.4-1-.4-.4-.8-1-1.2-1.3-.5-.4-1-.5-1.6-.6-1.8-.3-3.5-1.1-4.6-2.5-.4-.5-.8-1-1-1.8,0,0,0,0,0,0,0,0,0,0,0,0,0,0,.1,0,.1,0,1.7.3,3.4.8,4.7,2,.9.6,1.5,1.9,2.6,2.3.5.2,1.2.2,1.8.3.6.2,1,.5,1.5.9.4.4.8.9,1.1,1.5,0,0,0,.2-.1.2h0Z" fill="#fff"/><path d="M142.9,137.9c-1.9.2-3.6,0-5.3-.8-1.6-.9-2.9-2.2-4.6-2.6-1.2-.4-2.8-.7-3.6-1.8,0,0,.3.4.3.4-2.6-1.5-4.8-4.1-5.3-7.1,0,0,.2-.1.2-.1,1.2.9,2.3,1.9,3.3,2.8,1.1,1,2.6,2.3,3.4,3.2,1.5,1.5,3.1,3,5.3,3.2,2.4.3,4.4,1.3,6.3,2.7,0,0,0,.2,0,.2h0Z" fill="#fff"/><path d="M159.1,117.3c-2.1-1-3.6-2.3-5.1-4.1,0,0-4.6-4.7-4.6-4.7v-.2c2.1,1,4,2.2,5.8,3.5,2,1.2,3.9,2.9,4.1,5.3,0,0-.2.1-.2.1h0Z" fill="#fff"/><path d="M141.8,139.5c-3.4,1.4-6.6-1.1-9.6-2.6-1-.6-1.9-1.1-2.8-1.7v-.2c0,0,6.4,1.8,6.4,1.8,2.2.4,4.1,1.1,6,2.5,0,0,0,.2,0,.2h0Z" fill="#fff"/><path d="M145.3,134.7c-2.8,1.9-5.6-.4-8-1.8-.7-.6-1.8-1.1-2-2,0,0,.2,0,.2,0,1.4,1,3.3,1.2,4.8,1.7.9.2,1.8.2,2.5.6.8.3,1.5.7,2.4,1.3v.2h0Z" fill="#fff"/><path d="M159.5,110.2c-1.7-1.2-2.5-2.6-3.1-4.5-.8-1.6-1.6-3.2-2.6-4.7,0,0,.2-.2.2-.2,1.5,1.1,2.9,2.5,4,4,1.4,1.5,2.3,3.2,1.8,5.3,0,0-.2,0-.2,0h0Z" fill="#fff"/><path d="M152.6,125.5c-2-.5-3.3-1.5-4.5-3-1.3-1.2-2.7-2.4-4.2-3.4,0,0,0-.2,0-.2,1.8.5,3.6,1.2,5.2,2.2,1.8.8,3.3,2.2,3.6,4.3,0,0-.2.2-.2.2h0Z" fill="#fff"/><path d="M155.3,123.5c-1.7.5-3-.2-4-1.4-1.1-.9-2.1-2-3-3.1,0,0,.1-.2.1-.2l1.9.9,1.9.9c.6.3,1.3.4,1.8.9.5.5,1,1,1.3,1.8v.2h0Z" fill="#fff"/><path d="M31.9,70.4c1.3-1.6,3-2.7,4.9-3.2,1-.2,2-.2,2.9-.5,1.9-.5,3.5-1.8,5.3-2.4,1.8-.7,3.8-1,5.8-.9,1,0,2,.2,3,.8v.2c-2.9.7-5.4,1.6-8.3,1.9-1.8.4-3.9.2-5.6,1-.9.4-1.6,1.1-2.5,1.5-1.2.7-2.6,1.1-4,1.4-.5.1-1,.2-1.5.2v-.2h-.1Z" fill="#fff"/><path d="M33.7,93.1c2.2-.7,4.1-.7,6.1-.2,1.3.2,2.6,1.1,4,.9.7,0,1.4-.4,2-.5,1.4-.2,2.8.1,4.1.5,0,0,0,0,0,0-.3.5-.7.6-1,.8-1,.4-2.1.7-3.1.5-.7-.1-1.4-.5-2.1-.6-2.1-.1-4,.9-6.2.4-1.4-.2-2.7-.7-3.9-1.6,0,0,0-.2,0-.2h0Z" fill="#fff"/><path d="M29.3,77c2.6-2.6,6.3-3.3,9.7-3.5,3.1-.2,7.5-.5,10.4,0-3.3.7-6.8.9-10.2,1.7-3.3.9-6.4,1.6-9.9,1.9-.1,0-.2-.1,0-.2h0Z" fill="#fff"/><path d="M32.6,90.2c4.8-2.1,10.3-.7,15.3-.6,1.6,0,3.4.4,4.9,0,0-.1.3,0,.2,0-.7.6-1.7.6-2.5.8-1.7.3-5.9.5-7.7.6-3.5.4-6.8.4-10.2-.6-.1,0-.1-.2,0-.2h0Z" fill="#fff"/><path d="M30.9,78.6c1-.8,2.1-1.3,3.4-1.2,1.2.4,2.3.7,3.5.1,2.3-.9,4.8-.9,6.9.7,0,0,0,.2,0,.2-1.2.6-2.3.8-3.5.9-1.2,0-2.3-.2-3.4-.5-.6-.2-1.2-.3-1.7-.2-.6,0-1.1.5-1.7.7-.6.2-1.1.2-1.7,0-.6,0-1.2-.2-1.8-.6,0,0,0-.2,0-.2h0Z" fill="#fff"/><path d="M33.8,86.5c1.1-.7,2.2-1,3.5-.8.6.1,1.1.5,1.7.6,1.2.2,2.3-.6,3.4-.7,1.7-.4,3.4,0,5.1.6,0,0,.1,0,.1,0,0,0,0,0,0,.1-1.4,1.5-3.4,1.7-5.2,1.4-1.1,0-2.3-.9-3.5-.7-.6,0-1.2.4-1.7.6-.6.1-1.2,0-1.7,0-.6-.1-1.2-.3-1.7-.8,0,0,0-.2,0-.2h0Z" fill="#fff"/><path d="M34.9,99.3c1.8-.3,3.5-.2,5.2.2,1.6.5,3.3,1.4,5.1,1,1-.1,2-.4,2.9-.7,2.4-.7,5.7-1.4,8.6-1.8,0,0,.1.2.1.2-2,2.4-5.1,3.6-8.1,3.6,0,0,.5-.2.5-.2-1.3.6-2.8,0-4-.2-2.3-.6-4.8.5-7.1-.3-1.1-.3-2.2-.8-3.2-1.6,0,0,0-.2,0-.2h0Z" fill="#fff"/><path d="M30.8,73.4c2.1-3.1,6.2-2.6,9.5-2.9,1.1,0,2.2,0,3.3,0v.2s-6.3,1.8-6.3,1.8c-2.1.9-4.1,1.2-6.4,1.1,0,0-.1-.2-.1-.2h0Z" fill="#fff"/><path d="M35.1,101.2c2.3-.3,4.3,0,6.4.8,0,0,6.4,1.5,6.4,1.5,0,0,0,.2,0,.2-2.2.2-4.4.2-6.6,0-2.3,0-4.8-.4-6.3-2.4,0,0,.1-.2.1-.2h0Z" fill="#fff"/><path d="M34.4,95.4c2-.2,3.4,0,5.2.8,1.6.4,3.4,1,5.1.9,0,0,.2,0,.2,0-.2.3-.5.3-.7.4-1.6.4-3.2.5-4.9.4-2,0-4.1-.4-5-2.4,0,0,.1-.2.1-.2h0Z" fill="#fff"/><path d="M32.4,83.7c2-2.5,5.3-2,8.1-1.8.9.1,1.9.3,2.8.5v.2c-2.7.2-5.4,1-8,1.6-.9,0-1.8,0-2.9-.3v-.2h0Z" fill="#fff"/><path d="M31.2,80.7c1.4-1,2.5-1.1,4.1-.8,0,0,2.1.2,2.1.2l2.1.2v.2c-.6.3-1.3.5-2,.7-1.2.3-3,1-4.2.8-.7-.1-1.5-.4-2.1-1.1v-.2h0Z" fill="#fff"/><path d="M67.4,32.6c1,1.6,1.8,3.4,2.1,5.3.1.9,0,2,.3,2.9.5,1.9,1.9,3.3,2.7,5,1.5,2.5,2.4,5,3.6,7.6,0,0-.1.2-.1.2-1-.4-1.8-1.1-2.5-1.8-1.4-1.5-2.4-3.2-2.9-5.1-.7-1.8-.7-3.9-1.5-5.6-.9-1.7-2.1-3.4-2.1-5.4,0-1,0-2,.2-3h.2Z" fill="#fff"/><path d="M83,18.2c1.9,1.2,3.1,3,3.7,5,.5,1.3.3,2.8,1.1,4,.8,1.2,1.9,2.1,2,3.7,0,.8.2,1.5-.3,2.3,0,0,0,0-.1,0-.8-1.1-1.7-2.3-1.9-3.6-.1-.7,0-1.4-.2-2.1-.7-1.9-2.6-3.2-3.3-5.2-.5-1.2-.9-2.5-1-4.1,0,0,.1-.2.2-.1h0Z" fill="#fff"/><path d="M70.2,25.9c1,3.4,1.5,6.5,1.8,9.9.5,3.3,1.3,6.7,2.1,10,0,0,0,.1,0,.1-1.7-2.9-2.7-6.4-3.8-9.7-1.1-3.3-1.7-7-.3-10.3,0,0,.2,0,.2,0h0Z" fill="#fff"/><path d="M79.7,16.6c2.2,2.8,3.4,5.9,4.3,9.3.5,1.7,1.8,5.7,2.2,7.4.1.9.6,1.8.2,2.7-.1.1-.2,0-.2-.2,0,0,0-.3,0-.5-.8-2.5-2.7-6.2-3.8-8.7-1.6-3.1-2.9-6.3-2.8-9.9,0-.1.2-.2.2,0h0Z" fill="#fff"/><path d="M70.3,21.6c1,.9,1.6,1.9,1.7,3.1,0,.6-.2,1.2,0,1.8,0,.6.4,1.1.8,1.6.8.9,1.3,1.9,1.7,3,.3,1.1.5,2.2.4,3.6,0,0,0,.1-.1.1-1.7-1-2.7-2.6-3-4.5-.3-1.1,0-2.5-.5-3.5-.2-.5-.8-1-1.1-1.5-.3-.5-.4-1.1-.4-1.7,0-.6,0-1.2.3-1.9,0,0,.1-.1.2,0h0Z" fill="#fff"/><path d="M77.1,17.2c1.1.7,1.8,1.7,2,2.9,0,.6,0,1.3,0,1.8.1.6.5,1.1.9,1.5,1.2,1.4,2,3,2,4.8,0,.6,0,1.3-.4,2,0,0,0,0-.1,0,0,0,0,0,0,0,0,0,0,0,0,0-1.2-1.3-2.1-2.8-2.4-4.5-.3-1.1,0-2.5-.6-3.5-.3-.5-.8-.9-1.2-1.4-.3-.5-.5-1.1-.6-1.6,0-.6-.1-1.2,0-1.9,0,0,.1-.1.2,0h0Z" fill="#fff"/><path d="M93.5,25.1c1.6,1,2.7,2.4,3.6,4,.7,1.6.8,3.5,1.9,5,.7,1.1,1.8,2.3,1.6,3.7,0,0,0-.5,0-.5,1.1,2.8,1.1,6.2-.4,8.9,0,0-.2,0-.2,0-.3-1.5-.6-2.9-.8-4.2-.3-1.4-.6-3.5-.6-4.6-.2-2.1-.5-4.3-2.1-5.9-1.7-1.7-2.6-3.8-3.2-6.1,0,0,.2-.1.2-.1h0Z" fill="#fff"/><path d="M95.3,24.5c3.6,1.1,4.4,5.1,5.7,8.1.4,1,.8,2.1,1.1,3.1h-.2c0,0-3.7-5.3-3.7-5.3-1.5-1.7-2.4-3.4-3-5.7,0,0,.1-.2.1-.2h0Z" fill="#fff"/><path d="M89.1,24.3c3.3.3,4.1,3.9,5,6.5.2.9.7,2,.3,2.9,0,0-.2-.2-.2-.2-.5-1.6-1.7-3-2.6-4.4-.5-.7-1.2-1.3-1.6-2-.4-.8-.7-1.5-1-2.5v-.2h.1Z" fill="#fff"/><path d="M74.8,17.7c1.8,2.5,2.5,5.2,3.2,8.1.8,2.8,1.6,5.6,2.6,8.3,0,0-.2.1-.2.1-1.6-2.5-3-5.1-4.1-7.8-1.4-2.7-2.2-5.6-1.7-8.7,0,0,.2,0,.2,0h0Z" fill="#fff"/><path d="M72.3,20.7c1.6.7,2.2,2.1,2.2,3.6.2,1.4.3,2.8.3,4.2,0,0-.2,0-.2,0l-.9-1.9-.9-1.9c-.3-.6-.8-1.2-.9-1.8,0-.7-.1-1.4.1-2.2h.2Z" fill="#fff"/><path d="M80.7,150.5c.9-1.7,2-3.3,3.5-4.6.7-.6,1.6-1.1,2.3-1.8,1.3-1.4,1.9-3.4,2.9-5,1.3-2.5,3-4.7,4.6-7,0,0,.2,0,.2,0,.2,1.1,0,2.1-.3,3.1-.5,1.9-1.5,3.7-2.8,5.2-1.2,1.6-3,2.6-4,4.2-1,1.7-1.8,3.5-3.5,4.6-.8.6-1.6,1.1-2.6,1.4v-.2h-.1Z" fill="#fff"/><path d="M60.4,144.7c0-2.3.9-4.2,2.3-5.8.8-1.1,2.2-1.8,2.9-3,.6-1.3.8-2.7,2.1-3.6.7-.5,1.2-1,2.2-.9,0,0,0,0,0,0-.5,1.3-1.1,2.6-2.1,3.5-.5.4-1.2.8-1.7,1.3-1.2,1.6-1.4,3.9-2.7,5.5-.8,1.1-1.7,2.1-3,3,0,0-.2,0-.2-.1h0Z" fill="#fff"/><path d="M73.5,151.6c2.4-2.6,4.8-4.6,7.5-6.7,2.7-2.1,5-4.9,7.6-7-1.6,3-4.1,5.7-6.3,8.3-1.2,1.3-2.3,2.7-3.8,3.6-1.5,1-3.1,1.8-4.9,2-.1,0-.2-.1-.1-.2h0Z" fill="#fff"/><path d="M60.7,148.3c1.3-3.3,3.3-6,5.7-8.5,1.2-1.4,3.9-4.5,5.2-5.7.7-.6,1.2-1.4,2.2-1.6.2,0,.1.2,0,.2,0,0-.3.2-.4.3-1.7,2-3.9,5.6-5.4,7.8-1.8,3-3.8,5.8-6.9,7.5,0,0-.2,0-.2-.1h0Z" fill="#fff"/><path d="M69.8,153.7c.2-1.3.8-2.3,1.7-3.1.5-.3,1.1-.5,1.6-.9.4-.4.7-.9.9-1.5.4-1.1.9-2.1,1.6-3,.8-.9,1.6-1.6,2.8-2.2,0,0,.1,0,.2,0,0,2-.9,3.6-2.2,4.9-.8.9-2.1,1.2-2.8,2.2-.3.5-.4,1.2-.7,1.7-.3.5-.7.9-1.2,1.2-.5.3-1,.6-1.7.7,0,0-.2,0-.2-.2h0Z" fill="#fff"/><path d="M62.5,150.2c0-1.3.5-2.4,1.4-3.3.5-.4,1.1-.6,1.5-1,.4-.4.7-.9.9-1.5.6-1.7,1.5-3.3,3.1-4.2.5-.3,1.1-.7,1.9-.7,0,0,0,0,0,0,0,0,0,0,0,0h0c-.5,1.8-1.3,3.4-2.6,4.5-.8.9-2.1,1.3-2.7,2.3-.3.5-.4,1.2-.6,1.7-.2.5-.7.9-1.1,1.3-.5.4-1,.7-1.6.9,0,0-.2,0-.2-.1h0Z" fill="#fff"/><path d="M57.7,136c0-1.9.6-3.6,1.5-5.1,1.1-1.4,2.6-2.5,3.2-4.2.6-1.2,1-2.7,2.3-3.3,0,0-.4.3-.4.3,1.9-2.4,4.7-4.2,7.8-4.3,0,0,0,.2,0,.2-1.1,1.1-2.1,2-3.2,2.9-1.1,1-2.7,2.3-3.6,2.9-1.7,1.2-3.4,2.7-3.9,4.8-.6,2.3-1.9,4.2-3.6,5.9,0,0-.2,0-.2,0h0Z" fill="#fff"/><path d="M57.1,131.1c-1-3.6,2-6.4,3.9-9.1.7-.9,1.4-1.7,2.1-2.6,0,0,.2.1.2.1l-2.7,6c-.7,2.2-1.7,3.9-3.3,5.6,0,0-.2,0-.2,0h0Z" fill="#fff"/><path d="M59.7,140.4c-1.5-3,1.2-5.5,2.9-7.7.6-.6,1.4-1.7,2.3-1.7,0,0,0,.2,0,.2-1.1,1.2-1.7,3-2.4,4.6-.3.8-.4,1.7-.9,2.4-.5.7-.9,1.4-1.6,2.2,0,0-.2,0-.2,0h0Z" fill="#fff"/><path d="M64.2,151.9c1.2-2.9,3.1-4.9,5.3-6.9,2-2.1,3.9-4.3,5.7-6.6,0,0,.2.1.2.1-1.2,2.7-2.8,5.2-4.5,7.6-1.6,2.6-3.6,4.8-6.5,6,0,0-.2-.2-.2-.2h0Z" fill="#fff"/><path d="M68,152.5c-.3-1.7.6-2.9,1.9-3.8,1.1-.9,2.2-1.8,3.4-2.5,0,0,.2.2.2.2l-1.1,1.8-1.1,1.7c-.4.6-.6,1.3-1.1,1.7-.5.4-1.1.8-2,1.1h-.2Z" fill="#fff"/><path d="M141.6,21.9c-.6,1.8-1.6,3.5-2.9,5-.7.7-1.5,1.3-2.1,2-1.2,1.5-1.4,3.6-2.2,5.3-1,2.7-2.4,5-3.8,7.5,0,0-.2,0-.2,0-.3-1-.2-2.1,0-3.1.3-2,1.1-3.8,2.2-5.5,1-1.7,2.6-2.9,3.5-4.7.8-1.8,1.4-3.7,2.9-5,.7-.7,1.5-1.3,2.5-1.7l.2.2h0Z" fill="#fff"/><path d="M159.1,45.7c-.2,2.3-1.2,4.1-2.7,5.6-.9,1.1-2.3,1.6-3.1,2.8-.4.6-.5,1.3-.9,1.9-.6.9-1.4,1.6-2.4,2.1-.4.1-.7.3-1.2.2-.1,0,0-.2,0-.2.6-1.2,1.2-2.4,2.2-3.3.5-.4,1.3-.7,1.7-1.2,1.3-1.5,1.6-3.7,3-5.3.9-1,1.8-2,3.1-2.8,0,0,.2,0,.2.1h0Z" fill="#fff"/><path d="M149.6,23.2c-1.7,3.1-3.5,5.6-5.7,8.3-2.1,2.7-3.7,6-5.6,8.6.8-3.3,2.6-6.5,4.1-9.6.8-1.5,1.6-3.1,2.8-4.4,1.2-1.3,2.6-2.5,4.3-3.1,0,0,.2,0,.1.2h0Z" fill="#fff"/><path d="M158.2,41.6c-1.5,3.2-3.6,5.8-6.2,8.1-1.3,1.3-4.2,4.2-5.5,5.4-.7.5-1.3,1.3-2.2,1.4-.2,0,0-.2,0-.2,0,0,.3-.2.4-.3,1.9-1.9,4.2-5.4,5.9-7.5,2-2.9,4.2-5.5,7.4-7.1,0,0,.2,0,.2.2h0Z" fill="#fff"/><path d="M151.4,26.4c-.1,1.3-.6,2.4-1.5,3.2-.5.4-1.1.6-1.5,1-.4.4-.6,1-.8,1.5-.3,1.2-.8,2.2-1.4,3.2-.7.9-1.5,1.7-2.6,2.4,0,0-.1,0-.2,0-.2-2,.6-3.7,1.8-5.1.7-.9,2-1.4,2.6-2.5.3-.5.3-1.2.6-1.7.2-.6.7-1,1.1-1.3.5-.4,1-.7,1.7-.9,0,0,.2,0,.2.1h0Z" fill="#fff"/><path d="M155.2,38.4c-.1,1.3-.7,2.4-1.6,3.2-.5.3-1.1.5-1.6.9-.4.4-.7.9-.9,1.5-.7,1.7-1.7,3.2-3.3,4.1-.6.3-1.1.6-1.9.6,0,0,0,0,0,0,0,0,0,0,0,0h0c.6-1.8,1.5-3.3,2.9-4.3.8-.8,2.2-1.1,2.8-2.1.3-.5.4-1.2.7-1.7.3-.5.7-.9,1.2-1.3.5-.3,1-.7,1.7-.8,0,0,.2,0,.2.1h0Z" fill="#fff"/><path d="M161.3,54.7c-.1,1.9-.8,3.5-1.8,5-1.1,1.4-2.7,2.4-3.5,4-.7,1.1-1.2,2.6-2.5,3.2,0,0,.4-.2.4-.2-2,2.3-4.9,3.9-8,3.8,0,0,0-.2,0-.2,1.2-1,2.3-1.8,3.4-2.7,1.2-.9,2.8-2.1,3.8-2.7,1.8-1.1,3.6-2.5,4.2-4.6.7-2.3,2.1-4.1,3.9-5.7,0,0,.2.1.2.1h0Z" fill="#fff"/><path d="M146,20.8c-.6,2.3-1.6,4-3.1,5.7,0,0-3.7,5.4-3.7,5.4h-.2c.7-2.2,1.4-4.3,2.4-6.3.8-2.1,2.1-4.4,4.5-5,0,0,.1.2.1.2h0Z" fill="#fff"/><path d="M160,49.8c1.3,3.1-1.5,5.4-3.4,7.5-.7.5-1.5,1.6-2.4,1.6,0,0,0-.2,0-.2,1.2-1.2,1.9-2.9,2.7-4.4.4-.8.5-1.7,1.1-2.4.5-.7,1-1.3,1.7-2.1h.2Z" fill="#fff"/><path d="M135,26.3c-.3,2.1-1.3,3.4-2.6,4.8-1.1,1.4-2.2,2.9-3.1,4.5,0,0-.2,0-.2,0,.3-1.9,1-3.6,1.8-5.3.7-1.9,1.9-3.4,4-3.9,0,0,.2.2.2.2h0Z" fill="#fff"/><path d="M154.3,35.6c-.8,1.9-2.2,2.9-3.8,3.9-1.5,1.1-2.9,2.2-4.2,3.4,0,0-.2-.1-.2-.1.8-1.7,1.9-3.3,3.2-4.7,1.2-1.6,2.8-2.8,4.9-2.7,0,0,.1.2.1.2h0Z" fill="#fff"/><path d="M152.7,31c.2,1.8-.8,2.9-2.2,3.7-1.1.9-2.3,1.6-3.6,2.3,0,0-.1-.2-.1-.2l1.2-1.7,1.2-1.7c.4-.6.7-1.2,1.2-1.6.6-.4,1.1-.7,2-.9h.2Z" fill="#fff"/><path d="M111.2,81.2c3.2-2,6.7-2.7,10.3-3.4,2.3-.7,4.2-2.3,6.4-3.3,3.2-1.8,6.5-3.1,10.1-3.9.1,0,.2.1.1.2-1.8,1.8-3.8,3.2-6,4.3-3.2,1.8-7,2.2-10.4,3.5-3.2,1.9-6.6,3.3-10.5,2.9-.1,0-.1-.2,0-.2h0Z" fill="#fff"/><path d="M108.5,80.8c3.4-3.1,7.2-5.4,11.1-7.8,2.4-1.8,4.1-4.5,6.2-6.6,3-3.4,6.2-6.5,9.9-9.3,0,0,.2,0,.2.1-2.1,4.2-5.1,7.7-8.6,10.7-2.2,2.1-5,3.6-7.2,5.7-1.7,1.6-3.1,3.5-5.1,4.7-.6.4-1.4.9-2,1.2-1.4.7-2.8,1.3-4.4,1.6-.1,0-.2-.1,0-.2h0Z" fill="#fff"/><path d="M108.4,80.3c.5-2.1,1.4-3.9,2.6-5.6.7-.8,1.5-1.5,2.1-2.3,1.2-1.7,1.5-3.8,2.4-5.7,1.2-2.9,2.7-5.4,4.7-7.9,0,0,.2,0,.2,0,0,2.2-.7,4.2-1.5,6.1-1.2,2.9-3.6,5.1-5.2,7.7-1,3-2.4,5.8-5.1,7.7,0,0-.2,0-.2-.1h0Z" fill="#fff"/><path d="M109.2,80.7c5-3.1,10.3-5.1,15.5-7.7,1.7-.8,3.5-1.7,5.2-2.6v.2c-4.6,3.4-9.4,6.9-14.8,9.4-1.9.7-3.9,1.2-5.9,1,0,0,0-.2,0-.2h0Z" fill="#fff"/><path d="M110.2,79.5c.5-2.7,2.3-4.5,4.4-6,1.9-1.6,3.9-3,6-4.3,0,0,.1.2.1.2l-2.5,2.7-2.4,2.7c-.8.9-1.5,2-2.4,2.7-.9.8-1.9,1.5-3.1,2.1h-.2Z" fill="#fff"/><path d="M98.2,79.1c-3.8-1-6.4-3.5-8.8-6.5-2.7-2.4-6.1-4.1-8.5-7-1.6-1.8-3.1-3.8-4.1-6.1,0-.1,0-.2.2-.1,3.1,2.1,5.7,4.5,8,7.3,1.6,1.7,2.9,4,4.8,5.4,3.2,1.9,6.1,3.7,8.4,6.8,0,0,0,.2-.1.2h0Z" fill="#fff"/><path d="M100.3,79.3c-1.9-1.4-3.5-3.1-4.7-5.1-1.4-1.9-1.8-4.2-2.7-6.3-1.2-2.8-3.1-5.3-4.3-8.1-2-4.2-3.2-8.6-3.5-13.3,0-.1.2-.2.2,0,2.2,4.1,3.9,8.2,5.2,12.5,1,2.8,1.5,5.9,3,8.6,2.6,3.8,5.1,7.4,7,11.6,0,0,0,.2-.2.1h0Z" fill="#fff"/><path d="M100.8,79.4c-1.4-3-1.2-6.1-.5-9.2,0-3.1-.9-6.2-.5-9.3.3-2.1.7-4.1,1.8-6,0,0,.2,0,.2,0,.5,3.2.5,6.1,0,9.2-.2,2-1,4-.9,6.1,0,1,.4,2,.6,3.1.2,2.1,0,4.1-.6,6.1,0,.1-.2.1-.2,0h0Z" fill="#fff"/><path d="M98.7,78.8c-3-1.4-5.1-3.7-7-6.4-1.7-2.2-4.1-5.3-5.6-7.5,0,0,.2-.1.2-.1,2,1.8,4.8,4.6,6.8,6.5,2.4,2.1,4.5,4.4,5.8,7.4,0,0-.2.2-.2.2h0Z" fill="#fff"/><path d="M100.1,78.3c-3-2.9-2.7-7.2-3.2-11,0-1.3-.1-2.6-.1-3.8h.2c.6,2.4,1.3,4.9,2,7.3.9,2.5,1.5,4.8,1.2,7.5,0,0-.2,0-.2,0h0Z" fill="#fff"/><path d="M91.2,88.8c-2.5,3-5.9,4.3-9.6,5.2-3.4,1.4-6.3,3.7-9.9,4.7-2.3.7-4.8,1.1-7.3,1.1-.1,0-.2-.2,0-.2,3.2-1.9,6.5-3.2,10-4.2,2.3-.8,4.8-.9,6.9-2,3.1-2.1,6-4,9.7-4.7.1,0,.2.1.1.2h0Z" fill="#fff"/><path d="M93.3,86.7c-2,1.3-4.2,2-6.5,2.4-2.3.5-4.6.1-6.9.1-3.1,0-6.1.9-9.1.9-4.6.2-9.2-.2-13.6-1.8-.1,0,0-.2,0-.2,4.6-.5,9-.5,13.6-.1,3,.1,6,.9,9,.5,4.4-1,8.8-1.9,13.4-2.1.1,0,.2.2,0,.2h0Z" fill="#fff"/><path d="M93.4,86.9c-3.3.5-6.2-.7-8.9-2.3-2.9-1-6.2-.9-9-2.3-1.9-.9-3.7-1.9-5.2-3.5,0,0,0-.2.1-.2,3.2.4,6,1.3,8.8,2.7,1.9.8,3.6,2.2,5.6,2.6,1,.2,2.1.2,3.1.3,2.1.4,3.9,1.2,5.7,2.4,0,0,0,.2,0,.2h0Z" fill="#fff"/><path d="M93.5,87.6c-2.9,2.8-7.2,3.6-11.1,4-3.9.5-7.8.9-11.7,1,0,0,0-.2,0-.2,3.8-.8,7.6-1.6,11.4-2.5,3.7-1.2,7.4-1.9,11.3-2.4,0,0,.1.2.1.2h0Z" fill="#fff"/><path d="M91.9,87.2c-3.8,1.7-7.7-.2-11.4-1.2-1.2-.4-2.4-.8-3.6-1.3,0,0,0-.2,0-.2,2.5.3,5,.6,7.5.8,2.6,0,5,.3,7.4,1.6,0,0,0,.2,0,.2h0Z" fill="#fff"/><path d="M100.1,97c-2.3,3.1-5.2,4.9-8.4,6.8-1.9,1.5-3.1,3.7-4.8,5.4-2.4,2.8-4.9,5.2-8,7.3,0,0-.2,0-.2-.1,1-2.3,2.4-4.3,4-6.2,2.4-2.8,5.7-4.5,8.4-7,2.3-2.9,5-5.5,8.7-6.5.1,0,.2.1.1.2h0Z" fill="#fff"/><path d="M102.1,97c-1.6,4.3-3.9,8-6.3,12-1.4,2.7-1.6,5.8-2.5,8.7-1.1,4.4-2.6,8.6-4.6,12.8,0,.1-.2,0-.2,0,0-4.7,1-9.2,2.8-13.4,1-2.9,2.8-5.4,3.9-8.3.8-2.2,1.1-4.5,2.4-6.5.3-.6.8-1.4,1.2-1.9.9-1.3,2-2.4,3.2-3.4,0,0,.2,0,.2.1h0Z" fill="#fff"/><path d="M100.9,97.1c-3,5.1-6.9,9.2-10.2,14-1.2,1.6-2.3,3.1-3.4,4.7,0,0-.2-.1-.2-.1,2.7-5.2,5.3-10.6,8.9-15.2,1.4-1.4,2.9-2.9,4.8-3.6,0,0,.1.2.1.2h0Z" fill="#fff"/><path d="M101.4,98.5c.4,2.7,0,5-.9,7.5-.6,2.5-1.1,4.9-1.7,7.4,0,0-.2,0-.2,0-.2-2.6,0-5.1.1-7.7,0-2.6.6-5.2,2.4-7.3,0,0,.2,0,.2,0h0Z" fill="#fff"/><path d="M97.1,83.2c-2.6.3-.3,2.6-.8,3.2s-1.1.7-1.3,1.4-.5.9.7,2.1,1.1,0,1.6.8c.5.8.4,1.5,1,2.1.6.6.6.9,1.3.7s1-.5,1.3,0c.3.5,1.1.4,1.8.4.7,0,1.7.5,2.3.1s0-.9,1-.4,1.4,1,2,0c.6-1,.8-1.2.5-1.9-.3-.7.2-1.2,0-2.2-.2-1.1,1.1-1.1,1-2.1-.2-1-.8-2.3-1.4-2.1s-.6-.5-1.4-1.2c-.8-.7-1.3-2.4-1.8-2-.5.4-1,.5-1.7.2-.7-.3-.9-1.1-1.6-1.1s-2,.8-2,1.4c0,.6-2.4.7-2.4.7Z" fill="none" stroke="#fff" stroke-miterlimit="10" stroke-width="1"/><path d="M106.3,91.7c2-.2.3-1.9.7-2.4.4-.5.8-.5,1-1s.4-.7-.4-1.6c-.9-.9-.8,0-1.2-.6-.4-.7-.3-1.2-.7-1.6s-.4-.7-1-.6-.8.4-1,0c-.2-.4-.8-.3-1.3-.4-.6,0-1.3-.5-1.7-.2s0,.7-.8.3-1-.8-1.5,0c-.5.7-.7.8-.5,1.4s-.2.9,0,1.7c.1.8-.9.8-.8,1.6s.5,1.8,1,1.7c.5-.1.5.4,1,.9s.9,1.9,1.3,1.6c.4-.3.8-.4,1.3-.1s.6.9,1.2.9,1.5-.5,1.6-.9c0-.4,1.8-.4,1.8-.4Z" fill="none" stroke="#fff" stroke-miterlimit="10" stroke-width=".8"/><path d="M99,86.5c-1.2.6.3,1.3.2,1.7s-.4.6-.4.9,0,.6.7.9.5-.2.9,0,.5.7.9.8.5.3.8.1.4-.4.6-.2.6,0,1-.1c.4-.1,1,0,1.2-.4s-.2-.5.4-.4c.6,0,.9.2,1-.4.1-.6.2-.7-.1-1s-.1-.6-.4-1.1c-.3-.5.3-.8,0-1.2s-.9-1-1.1-.8c-.3.2-.4-.1-.9-.3s-1.1-1-1.3-.6-.4.4-.8.4-.6-.4-1-.2-.9.8-.7,1-1.1.8-1.1.8Z" fill="none" stroke="#fff" stroke-miterlimit="10" stroke-width=".6"/><path d="M216.1,87.6c-1.9,5.1.6,6.7,1.3,9.8s-1.3,4.7-.7,6.9c.6,2.2,2.2,4.2,2.3,7.4.1,3.2-8.2,13.7-8.2,13.7-1.4,1.8-2.4,2.9-3.3,2.9s-2.1-1.6-3.6-5.6c-6.3-16,1-23.3,1-23.3,2.4-6.1,11.3-11.8,11.3-11.8M220.5,82.3l-5.5,3.5c-.4.2-9.2,5.9-12,12.5-1.5,1.8-7.2,9.9-1.1,25.3,1.5,4,2.9,7,5.7,7s3.4-1.7,5-3.8c2.7-3.3,8.8-11.5,8.7-15.1,0-2.5-.9-4.5-1.6-6-.3-.7-.6-1.3-.8-1.9,0-.3,0-.7.3-1.6.4-1.2,1-2.9.4-5.2-.3-1.1-.7-2-1.1-2.9-.8-1.8-1.3-2.9-.3-5.7l2.3-6.1h0Z" fill="#fff"/><path d="M205.9,125.7c-2.5-12.2,2.5-25,9.8-34.7,0,0,0,0,0,0-4.3,6.3-7.3,13.5-8.6,21-.2,1.3-.5,3.2-.6,4.5-.5,3-.4,6-.5,9.1,0,0-.1,0-.1,0h0Z" fill="#fff"/><path d="M206.4,127.6c-.8-2.6-.4-5.2.4-7.8.6-4.3,1.3-8.7,3.9-12.3,0,0,.1,0,.1,0-.8,4.3-2.7,8.1-3.7,12.3-.2,2.6-.2,5.1-.7,7.7,0,0,0,0-.1,0h0Z" fill="#fff"/><path d="M206.4,127.7c-.1-4.7,1.4-9.4,3.4-13.6,2-4.2,4.4-8.3,7.2-12,0,0,0,0,0,0-2.5,3.9-4.6,8.1-6.4,12.3-1.7,4.3-3,8.7-4.2,13.2,0,0-.1,0-.1,0h0Z" fill="#fff"/><path d="M207.2,128.2c-.2-2.8,1.1-5.5,2.7-7.7,2.1-4.1,4.3-8.2,8.1-10.9,0,0,.1,0,0,0-1.9,3.1-4.2,5.9-6.4,8.7-2.3,2.8-2.9,6.5-4.3,9.8,0,0-.1,0-.1,0h0Z" fill="#fff"/><path d="M208.1,127.9c-.2-1.9.8-3.5,2.1-4.8,1-1.5,1.6-3.2,2.8-4.5.8-.9,1.7-1.6,2.8-2.2,0,0,.1,0,0,0-1.3,2.7-3.7,4.4-5.4,6.8-.6,1.6-1.2,3.1-2.2,4.7,0,0-.1,0-.1,0h0Z" fill="#fff"/><path d="M229.5,118.8c.3,0,.5.1.3.4-1.4,1.9-.4,4.6-1.1,7.4-.7,2.7-.4,7.2-13.7,11.3l-6,.6s.8-4.4,1.6-6.9c.8-2.5,3.8-6.1,5.5-7.5,1.5-1.2,11.4-5.2,13.4-5.2M229.5,116.6c-2.6,0-13,4.3-14.7,5.7-1.9,1.5-5.2,5.5-6.3,8.5-.8,2.6-1.7,7-1.7,7.2l-.5,2.9,2.9-.3,6-.6h.2s.2,0,.2,0c12.3-3.7,14.2-8,15-12.1,0-.2,0-.5.2-.7.4-1.4.4-2.7.4-3.9,0-1.2,0-2.2.4-2.7.6-.8.7-1.8.3-2.6-.2-.4-.8-1.3-2.3-1.3h0Z" fill="#fff"/><path d="M209.1,138.3c4.8-2.6,10.7-4.2,13.4-9.2.6-.9.8-2,1.5-3.1.6-1,1.5-1.8,2.3-2.6.8-.8,1.6-1.6,2.5-2.3,0,0,0,0,0,0-.8.8-1.5,1.6-2.3,2.5-.7.9-1.5,1.7-2,2.7-.8,2-1.6,4.3-3.2,6.1-1.5,1.8-3.6,3.1-5.6,4-2.1.9-4.3,1.6-6.5,2,0,0,0-.1,0-.1h0Z" fill="#fff"/><path d="M209.5,138.2c1-1.2,2.1-2.1,3.3-3,1.2-.8,2.6-1.5,3.6-2.6,1.9-2.2,3.8-4.3,5.6-6.6,0,0,.1,0,.1,0,0,3.2-2.9,5.3-5.4,7-1.3.8-2.2,2-3.2,3.1-1.1.9-2.4,1.8-3.8,2.3h0Z" fill="#fff"/><path d="M208.5,138.7c1.6-2.1,3.8-4.8,5.6-6.6,1.9-2.2,3.8-4.4,5.7-6.6,0,0,0,0,0,0-1.6,2.4-3.3,4.8-5,7.2-1.7,2.4-3.6,4.8-6.2,6.1,0,0,0,0,0,0h0Z" fill="#fff"/><path d="M209.7,137.7c-.9-1.3-.1-2.9.7-4,.5-1.2.5-2.7,1.3-3.9.5-.8,1-1.5,1.8-2.1h.1c-.2,1.5-.7,2.7-1.4,3.8-.4.8-1.2,1.4-1.4,2.3-.1,1.4-.4,2.4-.9,3.8,0,0-.1,0-.1,0h0Z" fill="#fff"/><path d="M208.8,138.4c.4-1.2,1-2.3,1.7-3.2.8-.9,1.7-1.7,2.2-2.9,1.1-2.2,1.7-4.5,3.3-6.4,0,0,.1,0,.1,0,0,1.3-.3,2.5-.8,3.6-.8,1.8-2.4,2.8-3.2,4.5-.7,1.7-1.6,3.3-3.2,4.4,0,0,0,0,0,0h0Z" fill="#fff"/><path d="M209.7,138.1c2-.7,3.9-1.2,5.9-1.7,2-.6,3.9-1.4,5.8-2.3,0,0,0,.1,0,.1-2.6,1.8-5.4,3.4-8.5,4.2-1.1.2-2.2.2-3.2-.1h0Z" fill="#fff"/><path d="M222.4,353.7c4.7,0,27.1,4.6,23.5,5.9-3.7,1.4-4.9,6.1-8.5,9.3-2.4,2.2-5,6-13.6,6s-9.2-.8-16.3-2.9l-9.1-4.8s5.3-5.5,8.8-8.2,11.1-5.1,14.8-5.4c.1,0,.2,0,.4,0M222.4,351.5c-.2,0-.4,0-.5,0-3.9.3-12,2.7-16,5.9-3.5,2.8-8.8,8.2-9,8.4l-2,2.1,2.6,1.4,9.1,4.8h.2c0,0,.2.2.2.2,6.8,2,12.3,3,16.9,3,8.4,0,11.9-3.4,14.2-5.7.3-.3.6-.6.9-.9,1.7-1.5,2.9-3.3,3.9-4.8,1.3-1.9,2.4-3.5,3.9-4.1,1.5-.5,2-1.8,1.8-2.8-.3-1.6-1.8-2.4-4.7-3.3-1.9-.6-4.4-1.2-7.4-1.9-4.9-1.1-11.3-2.2-13.9-2.2h0Z" fill="#fff"/><path d="M198.7,367.3c3.8.4,7.6,1,11.4,1.4,5.6.8,11.2.8,16.2-2,1.7-.8,3.2-2.1,4.9-3,1.8-.9,3.8-1.2,5.6-1.6,1.9-.4,3.8-.7,5.7-1v.2c-1.8.4-3.7.9-5.5,1.4-1.8.5-3.7,1-5.3,1.9-3.2,2.2-6.3,4.6-10.2,5.6-3.9,1.2-8,1.1-11.8.4-3.8-.7-7.5-1.8-11.1-3.3v-.2h0Z" fill="#fff"/><path d="M199.4,367.5c3.7-1.1,7.4-1.3,11.2-1.1,2.5,0,4.9-.9,7.3-1.5,3.7-.9,6.8-1.9,10.5-3.1,0,0,.1.2.1.2-3.2,4.5-9.2,4.8-14.2,4.8-2.6,0-5,.9-7.5,1.3-2.5.3-5.1.2-7.6-.4v-.2h0Z" fill="#fff"/><path d="M197.5,367.4c4.7-1.6,9.3-3.1,14.1-4.2,4.1-1.1,10-2.9,14.2-4.1,0,0,0,.2,0,.2-4.5,2-9.1,3.8-13.8,5.4-4.6,1.7-9.6,3.4-14.6,2.8,0,0,0-.2,0-.2h0Z" fill="#fff"/><path d="M200.2,367.1c0-1.7,1.2-3.1,2.5-4,.7-.4,1.5-.6,2.2-1,1.9-1.3,3.3-3.3,5.4-4.3,1.4-.7,2.8-1.2,4.5-1.2v.2c-1.5,1.8-3.3,3.1-5.4,4-1.3.7-3,.9-4.1,1.9-.6.5-1,1.2-1.5,1.8-1,1.1-2.2,1.8-3.4,2.7h-.2Z" fill="#fff"/><path d="M198.2,367.1c1.7-1.4,3.5-2.3,5.4-3,2-.5,4.1-.8,5.8-2,3.5-2.1,6.7-4.8,10.7-5.9,0,0,.1.2.1.2-.6.9-1.3,1.7-2.1,2.4-2.2,2.4-5.3,3.4-8.4,4.1-2.1.5-3.7,1.8-5.5,2.9-1.9.9-3.9,1.5-6,1.6,0,0,0-.2,0-.2h0Z" fill="#fff"/><path d="M199.8,367.7c3.5.9,6.6,2,10,3.2,3.4,1,6.9,1.7,10.4,2.1,0,0,0,.2,0,.2-5.4.1-10.9-.2-16-2.1-1.7-.8-3.3-1.8-4.5-3.2v-.2h.1Z" fill="#fff"/><path d="M231.8,253.4l.3.3c-1.3,2.6-.8,5.1-.6,8.1.2,3.1-.2,6.7-2.3,9.4-4.4,5.4-10.9,5.6-11.1,11.2-.2,2.7-1.5,10.4-1,13.3,1.6,7.3,1,12.9.2,17.6-1.8,7.7-7.9,27.7-9.8,35.6-3.9,8-8.9,14.4-16.5,19.3-3.4,1.4-5.5,1.9-7.6,4.2-7.9,7.7-22.4,12.8-33.4,16.3l-14.8,5.3-1.9-2.9,14.2-6.2c10.5-1.6,27.9-5.9,33.8-14.4,1.6-2.6,5.4-4.9,7.9-6.1,5.2-4,10.1-11.1,12.9-17,1.4-11.1,11.1-28.7,12-34.2.3-4.4.8-31.2,2.7-35.7,1.8-4,6.8-6.3,9.1-9.2,3.6-3.5,1.6-11.5,6.1-14.9M230.5,251.7c-3,2.3-3.7,6-4.3,9.3-.4,2.4-.8,4.6-2,5.8l-.2.2c-.8.9-2,1.9-3.2,2.9-2.3,1.8-4.8,3.8-6.1,6.7h0c-1.5,3.7-2.1,17.5-2.6,31.3,0,2.3-.1,4.1-.2,5-.4,2-2.1,6.1-4,10.4-3.1,7.3-7,16.4-8,23.4-2.4,4.9-6.8,11.8-11.9,15.8-1.7.8-6.4,3.4-8.5,6.8-3.2,4.6-13.4,10.5-32.3,13.5l-.5.2-14.2,6.2-.9,3.1,1.9,2.9,2.5.8,14.8-5.2c12.5-4,26.3-9.1,34.2-16.8h0c1.4-1.7,2.8-2.2,5.1-3.1.5-.2,1.1-.4,1.7-.7l.3-.2c7.4-4.7,12.9-11,17.3-20.1l.2-.4c.9-3.8,2.9-10.7,4.8-17.3,2-7,4.1-14.3,5-18.3h0c.8-4.5,1.5-10.6-.2-18.5-.3-1.8.3-6.7.7-9.7.2-1.2.3-2.3.4-3h0c0-2.2,1.4-3.1,4.2-4.8,2-1.2,4.4-2.7,6.5-5.2,2.1-2.6,3-6.2,2.8-10.8,0-.6,0-1.1-.1-1.7-.2-2.1-.3-3.8.5-5.4l-.5-2.6-.3-.3h-2.7Z" fill="#fff"/></svg>