<?xml version="1.0" encoding="UTF-8"?><svg id="Layer_1" xmlns="http://www.w3.org/2000/svg" width="316.4" height="469.4" viewBox="0 0 316.4 469.4"><path d="M153.5,250.4c1.4,0,2.9,1.8,4.2,1.8s.2,0,.2,0c.9-.2,2.1-.5,3.1-.5s1.2,0,1.6.3c1.2.7.9,3.5.9,3.5,0,0,3.5,2.4,3.7,4.3.1,1.3-.8,3.9-.8,5.2.5,15.5-6.4,29.3-18.5,29.3s-6.9-1-10.9-3.3c-11.7-15.8-1.7-28.2,9.7-34.8,2.6-1.5,3.9-4.9,6.4-5.7.2,0,.3,0,.5,0M153.5,247.6c-.5,0-1,0-1.4.2-2,.7-3.4,2.3-4.6,3.7-.8.9-1.5,1.8-2.3,2.2-5.1,2.9-13.8,9.3-15.9,19.2-1.3,6.5.5,13.1,5.3,19.7l.4.5.5.3c4.2,2.4,8.4,3.6,12.2,3.6s9.4-1.9,12.9-5.6c5.6-5.8,8.7-15.7,8.4-26.6,0-.3.2-1.1.3-1.7.3-1.3.6-2.6.5-3.7-.2-2.1-2.1-4.1-3.6-5.3,0-1.5-.5-3.5-2.3-4.5-.8-.5-1.8-.7-3-.7s-2.3.2-3.2.4c-.2-.1-.4-.2-.6-.4-1-.6-2.2-1.4-3.7-1.4h0Z" fill="#fff"/><path d="M137.2,290.6c-2.8-5.9-.2-11.4,3.1-16.4,1-2.1,2.1-4.2,3.8-5.7.8-.8,1.7-1.5,2.8-2.1,0,0,.1.1.1.1-1.9,2.9-4.1,5.3-6.3,8-1.8,2.8-2.4,6.2-3,9.5-.4,2.2-.4,4.3-.4,6.6h-.2Z" fill="#fff"/><path d="M140.8,293.8c3.1-1.8,5.6-3.9,8.1-6.3,1.6-1.7,3.4-3.2,4.5-5.3,1.4-3.2,2.7-6.4,4.7-9.4,0,0,.1,0,.1,0-.4,3.6-2.2,6.8-4.4,9.6-1.9,3-3.5,6.4-6.4,8.6-1.9,1.5-4.2,2.6-6.6,2.9,0,0,0-.1,0-.1h0Z" fill="#fff"/><path d="M147.7,298.2c2.4.8,5.2,1.4,8.6.3,6.9-2.3,9.1-8.4,9.1-8.4-3.7,5-7.4,7.7-16.7,5.2,0,0-4.4-2.5-10.6-2.6-3.3-5-7.5-7.3-7.5-7.3-6.9-6.7-6.6-11.2-4.2-17,0,0-4,5.1-2.4,12.2.9,3.8,3.1,5.9,5.3,7.7,2.2,2.8.5,7.4.7,11.1,0,1.3.7,2.2,1.5,3,0,0,0,0,0,0,.4.3,1,.7,1.7,1.1.7.4,1.4.6,1.9.8,0,0,0,0,0,0,1.1.3,2.2.2,3.3-.4,3.1-1.8,5.9-5.6,9.3-5.6Z" fill="none" stroke="#fff" stroke-linecap="round" stroke-linejoin="round" stroke-width="2.8"/><path d="M138,290c-1.2-2-.6-4.4.3-6.4.8-3.5,1.8-7.2,4.7-9.6,0,0,.1,0,.1,0-.9,3.5-3.2,6.3-4.4,9.6-.2,2.1-.3,4.1-.6,6.3,0,0-.1,0-.1,0h0Z" fill="#fff"/><path d="M142.6,292.1c1.5-1.8,3-3.3,4.7-4.9,2.2-3.1,3.5-6.8,6.2-9.5,0,0,.1,0,.1,0-.4,1.5-1,2.9-1.8,4.3-1.1,2-2.9,3.6-4.3,5.4-1,1.7-2.1,3.4-3.9,4.3-.4.2-.7.3-1.1.5,0,0,0-.1,0-.1h0Z" fill="#fff"/><path d="M140.4,291.7c1.9-3.4,5.2-5.4,7.2-8.8,0,0,.1,0,.1,0-.7,1.8-1.7,3.5-2.9,5-1.1,1.6-2.5,3.1-4.3,3.8,0,0,0,0,0,0h0Z" fill="#fff"/><path d="M144.6,279.6c-2.6,3.3-3.4,7.4-5.6,10.9,0,0-.1,0-.1,0-.1-2.2.7-4.2,1.8-6,1-1.8,2.3-3.5,3.8-5h0Z" fill="#fff"/><path d="M144,284c-.7,2-1.6,4-2.9,5.7-.5.5-1,1-1.8,1.3h0c.4-1.6,1.2-2.6,2.2-3.7.9-1.1,1.7-2.2,2.5-3.4h.1Z" fill="#fff"/><path d="M133.7,285.7c-1.5-1.8-1.4-4.2-.9-6.3.2-3.6.5-7.4,2.9-10.3,0,0,.1,0,.1,0-.3,3.6-2,6.8-2.6,10.3.2,2.1.4,4.1.6,6.3,0,0-.1,0-.1,0h0Z" fill="#fff"/><path d="M136.9,273.4c-1.5,3.9-1,8.1-2,12.1,0,0-.1,0-.1,0-.8-2-.6-4.2,0-6.3.4-2.1,1.1-4.1,2.1-5.9h.1Z" fill="#fff"/><path d="M136.2,278.8c.4,2.1.5,4.3.2,6.4-.2.7-.4,1.4-.9,2h-.1c-.4-1.5-.2-2.8.1-4.2.2-1.4.4-2.7.5-4.2,0,0,.1,0,.1,0h0Z" fill="#fff"/><path d="M148.4,294.6c1.8-1.2,3.5-2.2,5.3-3.3,2.5-2.6,3.9-5.9,6.6-8.3,0,0,.1,0,.1,0-.9,3.7-3.7,6.2-6.5,8.5-1.3,1.7-3.2,3.3-5.6,3.2,0,0,0-.1,0-.1h0Z" fill="#fff"/><path d="M156.5,285c-.9,1.9-2.2,3.6-3.7,5.1-1.4,1.6-3.1,3-5.2,3.5,0,0,0-.1,0-.1,1.4-1.6,2.9-2.9,4.6-4.1,1.6-1.3,3-2.8,4.3-4.4,0,0,.1,0,.1,0h0Z" fill="#fff"/><path d="M152.8,287.8c-2.4,1.6-3.8,4.3-6.5,5.3,0,0,0,0,0,0,.5-1.5,1.6-2.4,2.8-3.2,1.2-.8,2.4-1.6,3.7-2.1,0,0,0,.1,0,.1h0Z" fill="#fff"/><path d="M133.8,302.5c-.9-.9-1.8-1.9-1.7-3.3.3-1.3,1.2-2.2,1-3.5-.1-1.7,0-3.3-.6-4.9-.2-.6-.4-1.2-.6-1.8,0,0,.1,0,.1,0,.6.6,1.1,1,1.6,1.7.8,1.6.7,3.5.1,5.2-.4,1.1-.9,2.3-.6,3.4,0,.9.7,2,.8,3.3h-.1Z" fill="#fff"/><path d="M140.3,299.4c0-1.2.6-1.8,1.6-2.2.8-.4,1.7-.7,2.7-.7v.2c-1.4.8-1.8,1.7-2.8,2.4-.4.2-.8.4-1.4.4h-.1Z" fill="#fff"/><path d="M158.8,250.8c-.6,1.3-1.1,2.1-2,3.1-.7,1-1.3,2.2-1.9,3.3,0,0-.2,0-.2,0,.1-1.3.4-2.6.9-3.9.4-1.4,1.4-2.7,3-2.7,0,0,0,.1,0,.1h0Z" fill="#fff"/><path d="M166.2,254.1c-.5,1.7-1.6,2.8-3,3.7-1.2,1-2.5,2-3.8,2.9h-.1c1.5-2,2.9-4,4.6-5.6.6-.5,1.3-.9,2.2-1.2h.1Z" fill="#fff"/><path d="M130.7,301.9c.9,0,1.5,4.3,1.5,4.3-3.3,7.9-6.8,12.1-14.2,16.2-2.2,2.3-3.8,5.1-4.9,8l-1.7-2.6c.9-3,2.2-5.8,4-8.4,5.7-4.7,11.3-11,14.8-17.1.2-.3.3-.4.5-.4M130.7,299.1h0c-.6,0-2,.2-2.9,1.8-3.4,5.7-8.7,11.8-14.2,16.4l-.3.2-.2.3c-1.9,2.7-3.3,5.7-4.3,9.1l-.4,1.3.7,1.1,1.7,2.6,3,4.7,2-5.2c1-2.6,2.4-4.9,4.1-6.8,7.5-4.2,11.5-8.8,15-17.3l.3-.7v-.8c-.6-3.3-1.4-6.7-4.4-6.7h0Z" fill="#fff"/><path d="M195.2,402.5l17.7,14.8c4.7,4.3,6.3,7.5,13,11.1,5.8,3.1,13.5,7.3,20.1,8,1-.1,2.1-.2,3.3-.2,2.4,0,4.9.3,6.8,1.2,3.1,1.4,6.4,2.8,9.9,3.9l2.1,2.4c-4.4-1.1-8.7-2.5-12.8-3.4-1-.3-2-.4-2.9-.4-1.8,0-3.5.5-6,.9-9.2,0-16.9-3-24.4-8-4.4-4.6-10.6-12.8-10.6-12.8l-16-17.5M197,400.4l-3.9,4,15.9,17.4c.8,1,6.5,8.5,10.7,12.9l.2.2.3.2c8.7,5.7,17,8.4,26,8.4h.2s.2,0,.2,0c.7-.1,1.3-.2,1.9-.3,1.4-.3,2.6-.5,3.6-.5.7,0,1.4,0,2.1.3h0s0,0,0,0c2.4.6,4.8,1.2,7.4,1.9,1.8.5,3.6,1,5.4,1.5l8.5,2.2-5.7-6.7-2.1-2.4-.5-.6-.8-.2c-2.8-.9-5.8-2.1-9.5-3.7-2-1-4.7-1.5-8-1.5s-2.2,0-3.3.2c-5.7-.7-12.6-4.3-18.1-7.3l-.6-.3c-4.3-2.3-6.2-4.3-8.6-6.8-1.1-1.2-2.3-2.5-3.9-3.9h0s0,0,0,0l-17.7-14.8h0Z" fill="#fff"/><path d="M166.4,126c-6,9.9-18.4,9.1-24.4,18.1-2.7,9.1-6,18.3-9.6,27.2-1.6,3-4.9,3.8-6.5,6.1-4,5.5-3.1,13.8-3.8,21.5,0,3.9-2.1,7.4-2.1,11.3-.2,7.8,2.4,15.2,1.4,23.1-3.4,11.1-8.4,21.5-12,32.5-2.1,5.4-5.1,24.9-5.1,24.9l-.4-3.8c-1.3-20.2,10.3-35.5,16.3-53.9,1-7.4-2-15.2-1.8-22.8,0-1.9.2-4.2.8-5.9,1.3-5.5.3-11.3.7-17-.2-5.7,2.5-13.1,7.9-15.9,1.6-1.1,1.8-2.6,2.4-4,2.8-7.4,6.5-16.9,8.8-24.5,3.8-6.1,11.1-9.2,17.6-11.2l4.8-4.5,5-1.1M171.9,122l-6.1,1.3-5,1.1-.7.2-.5.5-4.3,4.1c-6.5,2-14.2,5.3-18.5,12.1l-.2.3v.3c-2.1,6.4-5,14.2-7.7,21.1-.4,1.1-.8,2.2-1.2,3.2-.2.4-.3.8-.4,1.1-.3,1-.5,1.4-.9,1.7-6.5,3.4-9.4,11.8-9.2,18.1-.1,2.2,0,4.3,0,6.4,0,3.5.2,6.8-.6,9.9-.7,2-1,4.5-.9,6.8,0,3.6.5,7.1,1.1,10.5.7,4.1,1.3,8,.8,11.7-1.8,5.6-4.3,11.1-6.6,16.4-5.2,11.7-10.6,23.9-9.7,38.3h0c0,0,0,.1,0,.1l.4,3.8,2.3,20.3,3.1-20.2c.8-5.3,3.3-20.2,4.9-24.4h0c0,0,0-.1,0-.1,1.6-5,3.6-10.1,5.6-15,2.3-5.7,4.6-11.5,6.4-17.6v-.2c0,0,0-.2,0-.2.6-4.8,0-9.3-.6-13.7-.5-3.3-.9-6.5-.8-9.7h0s0,0,0,0c0-1.6.5-3.2,1-4.9.6-2,1.1-4,1.2-6.2.1-1.8.2-3.7.3-5.5.2-5.6.4-11,3-14.5.4-.6,1.3-1.2,2.2-1.8,1.5-1,3.4-2.3,4.6-4.6h0c0-.1,0-.2,0-.2,3.8-9.3,7-18.4,9.5-27,2.5-3.5,6.4-5.4,10.5-7.3,4.8-2.3,10.3-4.8,13.8-10.6l3.2-5.4h0Z" fill="#fff"/><path d="M110.7,131.1c0,0,.2,0,.2.2,1.7,7.4,3.5,14.9,6.1,22,1.9,5.1,7.2,10,6,15.3l-3.9,8.5,1.5-7.8c.7-5.7-3.8-9.8-5.5-15.3-2.3-7.5-3.4-15-4.6-22.6,0-.1,0-.2.2-.2M110.7,128.4c-.9,0-1.7.4-2.2,1-.5.6-.8,1.5-.6,2.3l.2,1.2c1.1,7.1,2.2,14.5,4.5,21.7.7,2.3,1.8,4.2,2.8,6.1,1.5,2.8,2.9,5.3,2.6,8l-1.5,7.7c-.3,1.3.5,2.7,1.8,3.1.3,0,.6.1.8.1,1,0,2-.6,2.4-1.6l3.9-8.5c0-.2.1-.3.2-.5,1.1-4.6-1.4-8.6-3.5-12.1-1-1.7-2-3.2-2.5-4.7-2.6-7-4.4-14.5-5.9-21.6-.3-1.3-1.4-2.3-2.8-2.3h0Z" fill="#fff"/><path d="M181.1,394.6c.8.1,1.4.2,1.9.1,0,0,0-.1,0-.2.2-.5.5-.9.9-1.2-.2-.7,0-1.5.4-2.1-.1-.4-.3-.7-.5-1.1-21-5.4-41.2-19.3-32.4-35.3,1.8-3.2-2.4-10.9,1.2-14,7.8-6.6,15.9.2,22.2,3.3,13.6,6.8,17.1,24.4,13.6,42.1.5,1.3,1,2,1.5,2.4.6-.3,1.3-.3,1.9,0,.7-.5,1.4-1.3,1.7-1.9.3-4.5-.5-9.9,1.8-19.6,1.6-6.8-1.7-15.7,1.8-21.7,4.1-7.1,16.1-13.5,24.2-7.8,2.1,1.4,3.3,6.3,5,7.8,6.2,5.6,9.9,8.2,9.8,14.1,0,6-3.5,11.9-10.5,17.2-6.2,4.7-15.2,9-27.1,12.5-.6.6-1.1,1.2-1.5,1.8.2.8.1,1.7-.4,2.3,0,0,0,0,0,0,0,0,.2,0,.2.1.8.7,1,1.7.8,2.6.5.4,1,.7,1.2.8,12.5-6.7,41.7-24.9,50.5-6.1,1.1,2.3,7,4.7,7.3,10.5-.8,7-7.3,9.1-8.9,11.9-5.5,10.2-24.1,7-50.4-11.5-.8-.3-1.4-.4-1.9-.3-.1,0-.2,0-.4.1-.9.3-1.2,1.3-1.3,2.3,4.7,4.6,11.1,11.8,15,19.5,3.9,7.8,6.7,20,.4,26.6-2.9,3-12.8,0-20.1,1.6-8.8,3.2-11.9-.8-16.6-6.1-8.7-9.8-7.7-26,11.4-43,.6-1,.8-1.7.9-2.2-.1-.3-.2-.5-.3-.8-.5-.4-1.6-.3-2.4,0-11.2,8.5-28.4,41.6-53.2,13.2-3.5-4.1,2.1-1.1-10.2-18.8,0-9.6,19.4-16.8,62.4,1.1Z" fill="none" stroke="#fff" stroke-miterlimit="10" stroke-width="3.7"/><path d="M193.9,403.7c-1.4,2.8-3-.6-3.9-.3-.9.3-1.2.9-2.1.9-.8,0-1.2.2-2.1-1.6-.9-1.8.5-1.2-.2-2.1-.7-.9-1.6-1.1-2-1.9s-.8-1-.3-1.8c.5-.7,1-.9.5-1.4-.5-.5,0-1.3.2-2.2.2-.9,0-2.2.8-2.6s1,.3.9-1c-.1-1.3-.6-2,.7-2.3s1.6-.5,2.3.2c.7.7,1.4.2,2.5.9,1.1.7,1.7-.8,2.8-.3,1.1.6,2.3,1.9,1.9,2.4s.3.9.8,2,2.2,2.3,1.5,2.8c-.7.4-1,.9-.9,1.8,0,.9.9,1.4.6,2.3s-1.6,2-2.3,1.7c-.7-.2-1.6,2.4-1.6,2.4Z" fill="none" stroke="#fff" stroke-miterlimit="10" stroke-width="1.2"/><path d="M192.3,404.8c2.6,2.2,3.8,5.3,4.5,8.5,1.2,3,3.3,5.6,4.1,8.8.6,2.1,1,4.2.9,6.5,0,0-.1.1-.2,0-1.7-2.8-2.8-5.8-3.6-8.9-.6-2-.8-4.3-1.8-6.1-1.8-2.7-3.5-5.4-4.1-8.6,0,0,0-.2.2-.1h0Z" fill="#fff"/><path d="M188,404.3c2.3,3.6,2.5,7.7,2.2,11.9,0,2.7.7,5.4.8,8.1.2,4.1-.3,8.1-1.7,12,0,0-.2,0-.2,0-.4-4.1-.4-8,0-12,.1-2.7.8-5.3.5-8-.8-3.9-1.7-7.8-1.7-11.9,0,0,.1-.2.2,0h0Z" fill="#fff"/><path d="M185.8,402.7c.5,2.9-.5,5.5-1.8,8-.8,2.6-.7,5.5-1.8,8-.7,1.7-1.6,3.3-3,4.7,0,0-.2,0-.2,0,.3-2.8,1-5.3,2.2-7.8.6-1.7,1.8-3.2,2.2-5,.2-2.8.5-5.4,2.2-7.8,0,0,.2,0,.2,0h0Z" fill="#fff"/><path d="M189.9,404.5c2.3,2.8,2.8,6.5,2.9,10,.2,3.5.3,6.9.2,10.4,0,0-.2,0-.2,0-.3-1.7-.5-3.4-.8-5.1-.4-3.4-1.3-6.7-1.8-10.1,0,0-.5-5.1-.5-5.1,0,0,.2,0,.2,0h0Z" fill="#fff"/><path d="M191.7,403.3c1.9,2.3,2.6,4.9,3.1,7.7.5,2.4,1.2,5.8,1.6,8.2,0,0-.2,0-.2,0-.9-2.2-2.1-5.5-3-7.8-1.1-2.6-1.9-5.2-1.8-8.1,0,0,.2,0,.2,0h0Z" fill="#fff"/><path d="M194.2,405c4,2.3,5.6,6.8,7.2,10.8.5,1.4.9,2.8,1.2,4.2h-.2c-1.1-2.6-2.5-5.1-4.1-7.5-1.7-2.4-3.3-4.6-4.3-7.4,0,0,.2-.1.2-.1h0Z" fill="#fff"/><path d="M186.9,405.1c1,2.3.6,4.6-.1,6.8-.6,2.2-1.3,4.3-2.2,6.4,0,0-.2,0-.2,0,.3-2.2.6-4.5.8-6.7,0-2.3.3-4.4,1.5-6.5,0,0,.2,0,.2,0h0Z" fill="#fff"/><path d="M185,403c-.4,2.3-1.5,4-2.8,5.8,0,0-1.7,2.7-1.7,2.7l-1.7,2.8h-.2c.3-1.1.7-2.2,1-3.2,1.3-3,2.1-6.6,5.3-8.3,0,0,.2.1.2.1h0Z" fill="#fff"/><path d="M178.3,449.9c-1.2-1.3-2-2.9-2.2-4.7,0-.9,0-1.8,0-2.6-.2-1.7-1.2-3.3-1.4-5-.4-1.7-.5-3.5,0-5.2.2-.9.4-1.8,1-2.5,0,0,.2,0,.2,0,.3,2.5.8,4.9.7,7.4.1,1.7-.3,3.4.2,5.1.6,1.6,1.5,3,1.7,4.7.1.8.2,1.7.2,2.6h-.2Z" fill="#fff"/><path d="M198.4,451c-.3-2-.2-3.7.5-5.4.3-1.1,1.2-2.2,1.3-3.4,0-.6-.2-1.2-.2-1.8,0-1.2.4-2.3.9-3.4,0,0,0-.1,0-.1,0,0,0,0,0,0,.9.9,1,2.6.6,3.8-.2.6-.6,1.1-.8,1.7-.4,1.8.3,3.7-.3,5.5-.4,1.2-.9,2.3-1.9,3.3,0,0-.2,0-.2,0h0Z" fill="#fff"/><path d="M183.8,453c-1.9-2.6-2.2-5.9-1.9-9,.2-3,.4-6.3,1.3-9.1.2,2.9,0,6.1.3,9.1.4,3,.7,5.8.5,8.9,0,0-.1.1-.2,0h0Z" fill="#fff"/><path d="M195.8,451.6c-1.3-4.4.5-9.1,1.2-13.5.2-1.4.7-3,.5-4.3,0,0,0-.2.1-.2.5.7.3,1.5.4,2.3,0,1.5-.2,5.2-.3,6.8,0,3.1-.5,6-1.8,8.9,0,0-.2,0-.2,0h0Z" fill="#fff"/><path d="M185.4,451.7c-.6-1-.9-2-.6-3.1.5-1,.9-1.9.5-3.1-.5-2.1-.2-4.3,1.4-6,0,0,.2,0,.2,0,.4,1.1.4,2.1.4,3.1,0,1.6-1.2,3-1.2,4.4.2,1.1.7,1.9.3,3.1-.1.5-.3,1-.7,1.5,0,0-.2,0-.2,0h0Z" fill="#fff"/><path d="M192.6,450.1c-.5-1-.6-2.1-.3-3.1.2-.5.6-.9.7-1.4.3-1.4-.5-3-.2-4.6.2-1,.6-2,1.1-3,0,0,0,0,.1,0,1.1,1.4,1,3.1.6,4.7-.2,1-1,1.9-1,3,.1,1.1.6,2,0,3.1-.2.5-.4,1-.9,1.4,0,0-.2,0-.2,0h0Z" fill="#fff"/><path d="M204,450.7c0-1.6.3-3.1.8-4.6.6-1.4,1.6-2.7,1.5-4.3,0-.7-.1-2.2-.2-2.6-.4-2.6-.5-5.1-.6-7.9,0,0,.2,0,.2,0,1.9,2,2.5,4.9,2.2,7.5,0,0,0-.4,0-.4.4,1.2-.3,2.4-.6,3.5-.8,2-.1,4.2-1.1,6.2-.4,1-1,1.9-1.8,2.7h-.2Z" fill="#fff"/><path d="M180.8,451.3c-1.7-1.5-1.8-3.7-1.6-5.7,0-2,.2-3.9.6-5.9,0,0,.2,0,.2,0l.8,5.8c.5,2,.6,3.7.2,5.8,0,0-.2,0-.2,0h0Z" fill="#fff"/><path d="M205.7,450.7c0-2.1.5-3.7,1.4-5.6,0,0,2.1-5.4,2.1-5.4h.2c-.1,2-.4,3.9-.7,5.9-.2,2-.9,4.1-2.8,5.2,0,0-.2-.1-.2-.1h0Z" fill="#fff"/><path d="M200.5,450.6c0-1.8.5-3,1.3-4.5.5-1.4,1.3-2.9,1.4-4.3,0,0,0-.2,0-.2.6.6.3,1.7.4,2.5-.3,2.4-.2,5.6-3,6.6,0,0-.1-.1-.1-.1h0Z" fill="#fff"/><path d="M175.6,447.8c-1.7-.8-2.5-2.4-2.8-4.1-.4-1.6-.7-3.3-.7-4.9,0,0,.2,0,.2,0,.7,2.3,2,4.3,3.1,6.5.2.8.4,1.5.4,2.5,0,0-.2.1-.2.1h0Z" fill="#fff"/><path d="M190.1,451c-1.3-1.4-1.5-3.1-1.1-4.9.2-1.7.6-3.3,1.2-4.8,0,0,.2,0,.2,0-.2,2.4.3,4.8.4,7.1,0,.8-.2,1.6-.6,2.5h-.2Z" fill="#fff"/><path d="M187.2,451.8c-.7-1.3-.7-2.4-.2-3.7,0,0,.4-1.8.4-1.8l.4-1.8h.2c.2.6.3,1.2.4,1.8.2,2,1,4.1-1,5.5,0,0-.2,0-.2,0h0Z" fill="#fff"/><path d="M215.8,336.6c-1.2,1.3-2.5,2.2-4.1,3-.8.3-1.7.5-2.4.9-1.5.8-2.4,2.4-3.7,3.5-1.8,1.8-3.7,3.2-5.7,4.8,0,0-.2,0-.2,0,.1-1,.6-1.8,1-2.5.9-1.5,2.2-2.7,3.7-3.6,1.4-1,3.2-1.4,4.5-2.5,1.3-1.2,2.4-2.5,4.2-3,.8-.3,1.7-.5,2.6-.5v.2h0Z" fill="#fff"/><path d="M231,349.9c0,2-.8,3.7-2,5.1-.7,1-2,1.6-2.5,2.7-.3.5-.4,1.2-.7,1.8-.4.8-1.2,1.5-2,2-.3.2-.7.3-1.1.3,0,0,0,0,0,0,.4-1.1.9-2.3,1.8-3.1.5-.4,1.1-.7,1.5-1.1,1.1-1.4,1.2-3.4,2.3-4.9.7-1,1.5-1.9,2.6-2.6,0,0,.2,0,.2,0h0Z" fill="#fff"/><path d="M221.9,338.2c-2.1,2.3-4.2,4.1-6.6,6-2.3,1.9-4.4,4.3-6.6,6.2,1.4-2.6,3.5-5.1,5.5-7.4,2-2.4,4.4-4.6,7.6-5,0,0,.2.1,0,.2h0Z" fill="#fff"/><path d="M229.5,347.6c-1.1,3-2.9,5.3-5,7.5-1.1,1.2-3.4,4-4.5,5.1-.6.5-1.1,1.3-1.9,1.4-.1,0,0-.2,0-.2,1.1-.8,1.8-2.3,2.6-3.5,0,0,2.5-3.8,2.5-3.8,1.6-2.6,3.3-5.1,6.1-6.7,0,0,.2,0,.2.1h0Z" fill="#fff"/><path d="M222.2,340.2c-.2,1.1-.7,2-1.5,2.7-.4.3-1,.5-1.4.8-1,1-1.1,2.8-2.2,4-.7.8-1.4,1.4-2.5,2,0,0-.1,0-.2,0,0-1.8.7-3.2,2-4.3.7-.8,1.9-1.1,2.4-2,.5-1,.6-2,1.7-2.6.4-.3.9-.6,1.5-.7,0,0,.2,0,.1.1h0Z" fill="#fff"/><path d="M226.2,346.5c0,1.1-.4,2.1-1.2,2.9-.4.3-1,.5-1.3.9-.4.4-.6.8-.7,1.4-.5,1.5-1.3,2.9-2.7,3.8-.5.3-.9.6-1.7.6,0,0,0,0,0,0,0,0,0,0,0,0h0c.4-1.6,1.1-3,2.3-4,.7-.8,1.9-1.1,2.3-2,.4-1,.4-2,1.5-2.7.4-.3.8-.6,1.5-.8,0,0,.2,0,.2.1h0Z" fill="#fff"/><path d="M234.7,354c0,1.7-.5,3.2-1.3,4.5-.9,1.3-2.3,2.3-2.8,3.7-.5,1-.9,2.4-2,3,0,0,.4-.2.4-.2-1.6,2.1-4.1,3.7-6.9,3.8,0,0,0-.2,0-.2,1-1,1.9-1.8,2.8-2.6,1-.9,2.3-2,3.2-2.6,1.5-1.1,3-2.4,3.4-4.3.5-2.1,1.6-3.7,3.1-5.2,0,0,.2,0,.2,0h0Z" fill="#fff"/><path d="M218.5,337.4c-1.2,1.7-2.4,2.9-4.2,4,0,0-4.7,3.5-4.7,3.5,0,0-.1-.1-.1-.1,1.1-1.6,2.4-3.1,3.7-4.6,1.3-1.6,2.9-3,5.2-3,0,0,0,.2,0,.2h0Z" fill="#fff"/><path d="M236,355.1c.6,2.2-.4,4.1-1.7,5.7-1.1,1.6-2.3,3.2-3.6,4.7,0,0-.2-.1-.2-.1l2.3-5.3c.6-1.9,1.4-3.4,2.9-5,0,0,.2,0,.2,0h0Z" fill="#fff"/><path d="M232.2,351.5c.9,1.7,0,3.5-1,4.8-.7,1-1.5,2-2.4,2.8-.4.3-.6.7-1.2.7,0,0,0-.2,0-.2,1-1.1,1.5-2.7,2.1-4,.3-.7.4-1.5.8-2.1.4-.7.8-1.2,1.4-1.9,0,0,.2,0,.2,0h0Z" fill="#fff"/><path d="M225,344c-.6,1.7-1.7,2.7-3.2,3.6-1.2,1-2.4,2.1-3.5,3.3,0,0-.2-.1-.2-.1.6-1.5,1.5-3,2.5-4.3,1-1.5,2.3-2.6,4.2-2.7,0,0,.1.2.1.2h0Z" fill="#fff"/><path d="M223.5,341.5c.2,1.5-.5,2.6-1.7,3.4-.9.8-2,1.6-3,2.2,0,0-.1-.1-.1-.1l1-1.6,1-1.5c.3-.5.5-1.1,1-1.5.5-.4,1-.7,1.8-.9h.2Z" fill="#fff"/><path d="M170.2,341.2c1.6.7,2.9,2,3.8,3.5.4.8.6,1.7,1.1,2.4.8,1.5,2.3,2.6,3.2,4.1,1,1.4,1.7,3.1,2,4.8.1.9.3,1.8,0,2.7,0,0-.2,0-.2,0-1.3-2.2-2.5-4.2-3.5-6.6-.7-1.5-1-3.3-2.1-4.6-1.1-1.2-2.6-2.2-3.3-3.8-.4-.7-.9-1.4-1.2-2.3,0,0,.1-.1.1-.1h0Z" fill="#fff"/><path d="M151.9,344.5c1.5,1.3,2.4,2.7,3,4.5.5,1.1.4,2.5,1.2,3.4.4.5.9.8,1.4,1.3.8.9,1.2,2.1,1.5,3.2h0c0,.1,0,.2,0,.2-.4,0-.8-.2-1.1-.4-.8-.5-1.5-1.3-1.8-2.1-.2-.6-.2-1.3-.5-1.8-.9-1.6-2.6-2.7-3.2-4.5-.4-1.1-.8-2.4-.6-3.7,0,0,.1-.1.2,0h0Z" fill="#fff"/><path d="M164,339.5c3.1.8,5.4,3.2,7.2,5.7,1.7,2.5,3.7,5.1,4.8,7.9-2-2.1-3.9-4.7-6-6.8-2.2-2.1-4.2-4.1-6-6.6,0,0,0-.2.1-.2h0Z" fill="#fff"/><path d="M152.4,341.3c3.8,2.6,5.4,7.4,7.6,11.2.7,1.2,1.3,2.8,2.3,3.7.1,0,.2.2,0,.2-.8-.2-1.2-1-1.8-1.6-1-1.2-3.1-4.2-4.1-5.5-1.9-2.4-3.5-4.9-4.3-8,0,0,0-.2.2-.1h0Z" fill="#fff"/><path d="M161,337.4c1.1.4,2,1,2.4,2,.3,1.1.5,2.1,1.5,2.7,1.8,1.3,2.9,3.2,2.7,5.5,0,0-.1.1-.2,0-1-.6-1.7-1.4-2.3-2.2-1-1.3-1-3.1-1.9-4.2-.8-.7-1.7-1-2.2-2.2-.2-.5-.4-1-.4-1.6,0,0,0-.1.2-.1h0Z" fill="#fff"/><path d="M154.2,339.8c1,.5,1.8,1.2,2.2,2.2.2.5.2,1.1.4,1.6.7,1.3,2.3,2,3.1,3.5.5.9.8,2,1,3,0,0,0,0,0,0-1.7-.4-2.8-1.8-3.5-3.3-.5-.9-.4-2.1-1.1-2.9-.8-.8-1.7-1.1-2-2.4-.2-.5-.3-1-.2-1.7,0,0,0-.1.2-.1h0Z" fill="#fff"/><path d="M151.1,355.6c1.1,1.3,1.7,2.5,2.3,4,.4,1.5.5,3.1,1.6,4.3.5.6,1.5,1.6,1.8,1.8,2,1.8,3.7,3.6,5.5,5.7,0,0,0,.2,0,.2-2.7-.4-5-2.2-6.5-4.4,0,0,.4.3.4.3-1.1-.7-1.3-2-1.8-3.1-.6-2-2.6-3.3-3-5.5-.3-1-.5-2.1-.3-3.2h.2Z" fill="#fff"/><path d="M149.8,356.6c1.3,1.6,2,3.2,2.4,5.2,0,0,1.8,5.5,1.8,5.5,0,0-.2,0-.2,0-1.1-1.6-2.2-3.2-3.1-5-1.1-1.7-1.9-3.7-1.1-5.8,0,0,.2,0,.2,0h0Z" fill="#fff"/><path d="M152.9,352.2c1,1.4,1.5,2.6,1.8,4.3.5,1.4.8,3,1.7,4.2,0,0,0,.2,0,.2-.8-.2-1.3-1.1-1.9-1.7-1.3-2-3.4-4.5-1.9-7,0,0,.2,0,.2,0h0Z" fill="#fff"/><path d="M155.8,338.5c2.5,1.3,4,3.4,5.2,5.8,1.3,2.3,2.4,4.6,3.3,7.1h-.2c-1.4-2.1-2.9-4.2-4.4-6.2-1.7-2-3.2-3.9-4-6.6,0,0,.2-.1.2-.1h0Z" fill="#fff"/><path d="M159.2,338.3c1.4.5,2,1.4,2.5,2.7,0,0,.8,1.6.8,1.6l.8,1.7h-.2c-.5-.2-1-.7-1.5-1.1-1.4-1.4-3.3-2.5-2.7-4.8,0,0,.2,0,.2,0h0Z" fill="#fff"/><path d="M246.3,413.8c-1.5,1-3.2,1.5-5,1.5-.9,0-1.7-.3-2.6-.3-1.7,0-3.4.6-5.1.6-1.7.1-3.5-.1-5.2-.8-.8-.3-1.7-.7-2.3-1.4,0,0,.1-.2.1-.2,2.6,0,4.9,0,7.4.5,1.7.1,3.3.8,5,.6,1.6-.3,3.2-1,5-.9.8,0,1.7,0,2.6.2v.2h0Z" fill="#fff"/><path d="M253,396.3c-1.9.6-3.6.7-5.4.2-1.2-.1-2.3-.9-3.6-.8-.6,0-1.2.4-1.8.5-1.2.2-2.4,0-3.5-.4h-.1s0,0,0-.1c.7-1,2.5-1.3,3.6-1.2.6.1,1.2.5,1.8.5,1.8.1,3.6-.8,5.5-.4,1.2.2,2.4.6,3.5,1.4,0,0,0,.2,0,.2h0Z" fill="#fff"/><path d="M250.9,409.3c-2.3,2.3-5.5,3-8.6,3.1-3,.2-6.3.5-9.2,0,2.9-.6,6-.8,9-1.6,2.9-.8,5.7-1.5,8.8-1.7,0,0,.2.1,0,.2h0Z" fill="#fff"/><path d="M255.4,398.5c-4.2,1.9-9.1.7-13.5.6-1.4,0-3-.3-4.4,0,0,0-.2,0-.2,0,.6-.6,1.5-.5,2.2-.7,1.5-.3,5.2-.5,6.8-.6,3.1-.4,6-.4,9,.5,0,0,.1.2,0,.2h0Z" fill="#fff"/><path d="M254.3,407.8c-.9.7-1.9,1.1-3,1-1-.3-2-.6-3.1,0-2,.8-4.3.8-6.1-.5,0,0,0-.2,0-.2,1.1-.5,2.1-.7,3.1-.8,1.6-.2,3.1.8,4.6.6,1.1-.3,1.8-1,3-.7.5,0,1,.2,1.6.5,0,0,0,.1,0,.2h0Z" fill="#fff"/><path d="M255.8,400.8c-1,.6-2,.9-3.1.7-.5-.1-1-.4-1.5-.5-1.4,0-2.9.9-4.6.8-1,0-2.1-.3-3.1-.7,0,0,0,0,0-.1,1.2-1.3,3-1.5,4.6-1.2,1,0,2,.8,3.1.6,1.1-.3,1.9-.8,3.1-.5.5.1,1,.3,1.5.7,0,0,0,.2,0,.2h0Z" fill="#fff"/><path d="M248.2,389.8c-1.6.3-3.1.2-4.6-.1-1.5-.4-2.9-1.2-4.5-.9-.7,0-2.1.4-2.5.6-2.6.8-5,1.2-7.7,1.7,0,0-.1-.2-.1-.2,1.7-2.1,4.5-3.2,7.2-3.2,0,0-.4.2-.4.2,1.1-.6,2.4,0,3.6.1,2.1.5,4.2-.5,6.2.2,1,.3,2,.7,2.9,1.4v.2h0Z" fill="#fff"/><path d="M245.1,386.8c-2.1.2-3.8,0-5.7-.7,0,0-5.7-1.3-5.7-1.3v-.2c2-.1,3.9-.2,5.9,0,2,0,4.2.3,5.6,2,0,0,0,.2,0,.2h0Z" fill="#fff"/><path d="M250.2,393.5c-1.8.2-3,0-4.6-.7-1.4-.3-3-.9-4.5-.7,0,0-.2,0-.2,0,.6-.6,1.7-.6,2.4-.7,2.4,0,5.6-.6,6.9,2,0,0-.1.2-.1.2h0Z" fill="#fff"/><path d="M256.1,402.8c-2.4,1.4-5,1.7-7.7,1.4-2.6,0-5.2-.3-7.8-.9v-.2c2.6,0,5.2-.2,7.7-.5,2.6-.4,5.1-.7,7.7,0,0,0,0,.2,0,.2h0Z" fill="#fff"/><path d="M254.4,405.9c-1.2.9-2.2,1-3.6.7,0,0-1.8-.1-1.8-.1l-1.9-.2v-.2c.6-.2,1.2-.4,1.7-.6,1.9-.4,3.9-1.5,5.5.2,0,0,0,.2,0,.2h0Z" fill="#fff"/><path d="M123,387.8c1.6-.8,3.4-1.1,5.1-.9.9.2,1.7.5,2.5.7,3.5.2,7-.6,10.2,1.4.8.4,1.6.9,2.1,1.7v.2c-2.7-.4-5-.6-7.5-1.4-1.6-.3-3.2-1.2-4.9-1.2-1.7.1-3.3.6-5,.3-.8-.1-1.7-.2-2.5-.5v-.2h0Z" fill="#fff"/><path d="M130.5,412.8c1.9-.7,3.5-.9,5.4-.6,1.2,0,2.4.8,3.6.6.6,0,1.2-.4,1.8-.6,1.2-.3,2.4,0,3.5.2,0,0,.1,0,.1,0,0,0,0,0,0,0-.7,1.1-2.4,1.5-3.6,1.4-.6,0-1.2-.4-1.8-.4-1.8,0-3.6,1-5.5.8-1.2-.1-2.4-.4-3.6-1.2,0,0,0-.2,0-.2h0Z" fill="#fff"/><path d="M119.6,394.1c2.8-1.7,6.1-1.5,9.1-.9,3,.6,6.3,1,8.9,2.2-2.9-.1-6.1-.6-9.1-.6-3.1,0-5.8,0-8.9-.4,0,0-.1-.1,0-.2h0Z" fill="#fff"/><path d="M128,410c4.1-2.1,9.1-1.3,13.5-1.5,1.4,0,3,.1,4.3-.3,0,0,.2,0,.2,0-.6.6-1.4.6-2.2.8-1.5.4-5.2.8-6.7,1-3,.5-6,.7-9,0,0,0-.1-.2,0-.2h0Z" fill="#fff"/><path d="M120.9,397.1c.9-.7,2-1,3.1-.8,1,.4,2,.8,3.1.3,2.1-.7,4.3-.5,6.1,1,0,0,0,.2,0,.2-1.1.4-2.1.6-3.1.6-1.6,0-3.1-1-4.5-1-1.1.2-1.8.8-3,.5-.5-.1-1-.3-1.5-.6,0,0,0-.1,0-.2h0Z" fill="#fff"/><path d="M127.4,406.2c.9-.7,1.9-1,3-.9.5,0,1,.4,1.6.4,1.4,0,2.8-1.1,4.5-1.1,1,0,2.1.2,3.1.5,0,0,0,0,0,.1-1.2,1.4-2.9,1.6-4.5,1.5-1,0-2.1-.6-3.1-.4-1.1.3-1.8.9-3,.6-.5-.1-1-.2-1.6-.6,0,0,0-.1,0-.2h0Z" fill="#fff"/><path d="M135.7,419.1c1.6-.4,3.1-.4,4.6-.2,1.5.3,3,1,4.5.6.7-.1,2.1-.6,2.5-.7,2.5-.9,4.9-1.5,7.6-2.2,0,0,.1.2.1.2-1.6,2.2-4.3,3.4-7,3.6,0,0,.4-.2.4-.2-1.1.6-2.4.2-3.6,0-2.1-.4-4.2.7-6.2.1-1-.2-2-.6-3-1.2v-.2h0Z" fill="#fff"/><path d="M119.8,390.3c1.8-1.3,4-1.1,5.9-.5,1.9.4,3.8,1,5.7,1.6,0,0,0,.2,0,.2l-5.8-.3c-2,.1-3.7,0-5.7-.9,0,0,0-.2,0-.2h0Z" fill="#fff"/><path d="M133,415.7c1.7-.3,3-.1,4.6.4,1.5.2,3.1.7,4.5.5,0,0,.2,0,.2,0-.5.7-1.6.7-2.4.9-2.4.2-5.6.9-7.1-1.6,0,0,.1-.2.1-.2h0Z" fill="#fff"/><path d="M129.6,385.4c2.2-1.8,4.9-.8,7.3,0,.8.3,1.6.6,2.3,1v.2c-2.4-.3-4.9,0-7.2,0-.8-.1-1.6-.3-2.4-.8v-.2h0Z" fill="#fff"/><path d="M125.8,404.1c1.1-1.6,2.8-2,4.5-2,1.7-.1,3.3,0,5,.2,0,0,0,.2,0,.2-2.4.3-4.6,1.2-6.9,1.9-.8,0-1.6.1-2.5,0,0,0,0-.2,0-.2h0Z" fill="#fff"/><path d="M123.5,400.5c1.1-1,2.2-1.1,3.5-.9,0,0,1.8,0,1.8,0h1.9c0,0,0,.2,0,.2-.6.3-1.2.5-1.7.7-1.9.6-3.8,1.8-5.5.1,0,0,0-.2,0-.2h0Z" fill="#fff"/><path d="M181.2,398.3c-1.7,2.9-4.6,4.6-7.6,5.9-2.7,1.7-5,4.1-8,5.5-2,.9-4,1.7-6.2,1.9,0,0-.2-.1,0-.2,2.5-2.1,5.2-3.7,8.2-5,1.9-1,4.1-1.5,5.8-2.7,2.4-2.2,4.7-4.3,7.9-5.5,0,0,.2,0,.1.2h0Z" fill="#fff"/><path d="M182.3,396.2c-3.2,2.9-7.2,3.8-11.4,4.1-2.7.5-5.2,1.6-7.8,2.1-4,.8-8.1,1.1-12.1.3,0,0-.1-.2,0-.2,3.9-1.1,7.8-1.7,11.9-2,2.6-.3,5.4,0,8-.8,3.7-1.4,7.4-2.9,11.4-3.6,0,0,.2.1,0,.2h0Z" fill="#fff"/><path d="M181.9,395.9c-2.8,1-5.5.4-8.2-.5-2.7-.4-5.5.2-8.2-.5-1.8-.4-3.5-1-5.1-2.2,0,0,0-.2,0-.2,2.8-.2,5.4.1,8.1.9,1.8.4,3.5,1.3,5.3,1.3,2.8-.3,5.4-.4,8.1.9,0,0,0,.2,0,.2h0Z" fill="#fff"/><path d="M181.9,396.6c-1.9,3-5.4,4.6-8.6,5.8-3.2,1.3-6.5,2.4-9.8,3.4,0,0,0-.2,0-.2,1.5-.8,3.1-1.5,4.6-2.3,3.1-1.4,6-3.3,9.1-4.8,0,0,4.7-2,4.7-2h.1Z" fill="#fff"/><path d="M180.4,396.7c-2.1,1.1-4.1,1.3-6.4,1.3,0,0-3.2.3-3.2.3l-3.3.3v-.2c1-.4,2-.7,3.1-1.1,3.2-.8,6.5-2.4,9.8-.8,0,0,0,.2,0,.2h0Z" fill="#fff"/><path d="M186.4,387.8c-1-3.2-.7-6.4-.3-9.6,0-2.1-.9-4.2-1.3-6.3-.7-3.2-1-6.3-.9-9.6,0,0,.1-.1.2,0,1.1,1.9,1.7,4,2.2,6.1.7,3.2.1,6.5.4,9.7.8,3.2,1.2,6.5-.1,9.6,0,0-.2,0-.2,0h0Z" fill="#fff"/><path d="M185.3,389.5c-2-3.5-3.2-7.3-4.5-11.1-1.1-2.5-3-4.4-4.5-6.7-2.4-3.3-4.4-6.7-6.1-10.4,0,0,0-.2.2-.1,3.2,2.7,5.6,5.9,7.5,9.5,1.4,2.3,2.1,5,3.4,7.4,1,1.7,2.4,3.3,3,5.3.2.6.5,1.4.6,2,.4,1.3.5,2.7.5,4.1,0,0-.2.1-.2,0h0Z" fill="#fff"/><path d="M185.2,390c-2.9-.9-4.6-2.8-6.5-4.9-1.4-1.2-3.2-1.7-4.8-2.6-2.4-1.3-4.5-2.9-6.5-4.9,0,0,0-.2,0-.2,1.9.3,3.6,1,5.2,1.9,2.4,1.3,4.1,3.7,6.3,5.3,2.5,1.2,4.9,2.6,6.2,5.3,0,0,0,.2-.1.2h0Z" fill="#fff"/><path d="M185.9,388.1c-1.5-2.5-2-5.2-2.2-8-.3-2.4-.7-5.9-1-8.3,0,0,.2,0,.2,0,.8,2.3,1.7,5.7,2.3,8,.9,2.7,1.4,5.4.8,8.3,0,0-.2,0-.2,0h0Z" fill="#fff"/><path d="M184.8,388.8c-2.1-1.2-3.4-2.9-4.6-4.9-1.3-1.8-2.7-3.6-4.1-5.3h.1c1.8,1.2,3.5,2.7,5.2,4.3,1.8,1.5,3.3,3.3,3.6,5.8,0,0-.2.1-.2.1h0Z" fill="#fff"/><path d="M197,387.9c2.5-2.2,5.5-3.3,8.5-4.3,1.9-.9,3.4-2.6,5.1-3.8,2.6-2,5.2-3.6,8.3-4.8,0,0,.2,0,.1.2-1.3,1.8-2.9,3.3-4.6,4.6-2.6,2-5.8,2.9-8.6,4.5-2.5,2.1-5.4,3.8-8.8,4,0,0-.2-.1,0-.2h0Z" fill="#fff"/><path d="M194.3,388.3c2.5-3.2,5.6-5.7,8.6-8.3,1.9-1.9,3-4.5,4.5-6.6,2.2-3.4,4.5-6.6,7.3-9.5,0,0,.2,0,.2.1-1.3,3.9-3.4,7.4-6,10.5-1.7,2.1-3.9,3.8-5.5,5.9-1.2,1.6-2.2,3.5-3.8,4.8-.4.4-1.1,1-1.6,1.3-1.1.8-2.3,1.5-3.6,2,0,0-.2,0-.1-.2h0Z" fill="#fff"/><path d="M194.3,388.5c0-3,1.3-5.2,2.8-7.7.8-1.7.7-3.6,1.1-5.3.5-2.7,1.4-5.2,2.8-7.6,0,0,.2,0,.2,0,.3,1.9,0,3.8-.3,5.6-.6,2.7-2.3,5-3.2,7.6-.4,2.8-1.1,5.4-3.2,7.5,0,0-.2,0-.2,0h0Z" fill="#fff"/><path d="M194.9,388.9l3.7-3.5c1.2-1.2,2.7-2.1,4-3.2,2.7-2.2,5.3-4.4,7.9-6.7,0,0,.1.1.1.1-3.4,3.9-6.7,8-10.8,11.2-1.5,1-3.1,1.9-4.9,2.1,0,0,0-.2,0-.2h0Z" fill="#fff"/><path d="M195.4,387.6c.4-2.4,1.4-4.2,2.8-6.1,1.1-1.9,2.3-3.8,3.4-5.8h.2c-.6,2.3-1.3,4.4-2.2,6.5-.8,2.2-1.9,4.3-4,5.5,0,0-.2-.1-.2-.1h0Z" fill="#fff"/><path d="M198.1,398.5c2.7-2.1,6-2.6,9.2-2.7,3.2-.6,6.2-2.1,9.4-2.2,2.2-.1,4.3-.1,6.5.4,0,0,.1.2,0,.2-3.1,1.1-6.2,1.6-9.4,1.7-2.1.2-4.3-.1-6.4.5-3,1.2-6,2.3-9.3,2.3,0,0-.1-.1,0-.2h0Z" fill="#fff"/><path d="M197.1,399.9c4.1-1.1,8.2,0,12,1.5,2.6.8,5.3.9,7.9,1.7,3.9,1.1,7.7,2.7,11,5.2,0,0,0,.2,0,.2-4-.8-7.8-2-11.5-3.6-2.5-.9-4.8-2.4-7.5-2.9-4-.4-8-.8-11.8-1.9,0,0-.1-.2,0-.2h0Z" fill="#fff"/><path d="M197.7,399.2c3.1-1.8,6.9-1.6,10.3-1.2,3.4.4,6.9.8,10.3,1.5,0,0,0,.2,0,.2-1.7,0-3.4,0-5.2-.1-3.4-.2-6.9.1-10.2,0,0,0-5.1-.3-5.1-.3v-.2h0Z" fill="#fff"/><path d="M198.6,400.2c2.5-.2,4.6.8,6.5,2.2,1.9,1.2,3.8,2.5,5.5,4,0,0-.1.2-.1.2-2-1-4.1-1.9-6.1-2.8-2.2-.8-4.1-1.6-5.8-3.4,0,0,0-.2,0-.2h0Z" fill="#fff"/><path d="M190,389.2c1.6-1.6,2,1.1,2.7,1.1.7,0,1.1-.4,1.7-.2.6.2.9.1,1.1,1.6.2,1.5-.6.7-.3,1.5.3.8.8,1.1.9,1.8,0,.7.3.9-.2,1.3-.5.4-.9.4-.7.9.2.5-.3,1-.6,1.5s-.5,1.5-1.1,1.7-.7-.5-.9.5,0,1.5-1.1,1.5c-1,0-1.3,0-1.6-.7-.3-.6-.9-.5-1.6-1.2-.6-.7-1.4.2-2-.5-.6-.6-1.2-1.8-.7-2.1s0-.7,0-1.6c0-.9-1-2.2-.4-2.3.6-.2.9-.4,1.1-1.1.2-.7-.3-1.2,0-1.7s1.6-1,2-.7,1.7-1.3,1.7-1.3Z" fill="none" stroke="#fff" stroke-miterlimit="10" stroke-width=".9"/><path d="M191.1,400.3c-1.1,1.3-1.5-.8-2.1-.8-.5,0-.8.3-1.3.2s-.7,0-.9-1.2c-.2-1.1.4-.6.2-1.2s-.7-.8-.8-1.3-.3-.7,0-1,.7-.3.5-.7c-.2-.4.2-.7.4-1.2s.4-1.2.8-1.3.5.3.6-.4c.1-.7,0-1.2.7-1.1.8,0,1,0,1.2.4s.7.3,1.2.9c.5.5,1-.2,1.5.3.5.5,1,1.3.6,1.6s0,.5.1,1.2.8,1.6.4,1.7-.7.3-.8.9c-.1.5.3.9,0,1.3-.3.4-1.2.8-1.5.6-.3-.2-1.3,1.1-1.3,1.1Z" fill="none" stroke="#fff" stroke-miterlimit="10" stroke-width=".7"/><path d="M191.3,392.3c1.1-.5.8.9,1.1,1.1s.6,0,.9.2.4.2.3,1-.4.2-.4.7.2.7.1,1.1,0,.5-.3.6-.5,0-.5.3-.3.4-.6.6c-.3.2-.6.6-.9.6s-.2-.4-.5,0-.3.8-.8.5c-.5-.2-.6-.3-.7-.6s-.4-.4-.6-.9-.7-.2-.9-.6c-.2-.4-.3-1.1,0-1.2.3,0,.1-.4.3-.8s0-1.3.2-1.2.5,0,.7-.3,0-.6.4-.8,1-.2,1.1,0,1.1-.3,1.1-.3Z" fill="none" stroke="#fff" stroke-miterlimit="10" stroke-width=".5"/><path d="M66.9,242.5c.1-.5.1-.9.1-1.2,0,0,0,0-.1,0-.3-.1-.6-.3-.8-.6-.5.1-1,0-1.3-.3-.2,0-.5.2-.7.3-4,13.6-13.6,26.4-23.9,20.3-2.1-1.2-7.2,1.3-9.1-1.1-4.1-5.3.5-10.4,2.7-14.4,4.8-8.7,16.3-10.6,27.8-7.9.8-.3,1.3-.6,1.6-.9-.2-.4-.2-.9,0-1.3-.3-.5-.8-.9-1.2-1.2-3-.3-6.5,0-12.8-1.6-4.4-1.2-10.3.7-14.2-1.7-4.5-2.9-8.4-10.8-4.5-16,1-1.3,4.2-2,5.2-3.1,3.8-3.9,5.6-6.3,9.4-6.1,3.9.2,7.7,2.6,11,7.3,2.9,4.2,5.5,10.1,7.5,18,.4.4.8.8,1.1,1,.5-.1,1.1,0,1.5.3,0,0,0,0,0,0,0,0,0-.1,0-.2.4-.5,1.1-.6,1.7-.4.3-.3.5-.6.6-.8-4.1-8.3-15.2-27.8-2.8-33.1,1.5-.7,3.2-4.5,7-4.5,4.5.7,5.8,5,7.6,6.1,6.5,3.9,4,15.9-8.8,32.7-.2.5-.3.9-.2,1.2,0,0,0,.2,0,.2.2.6.8.8,1.5.9,3.1-2.9,8-7,13.1-9.3,5.2-2.4,13.2-3.9,17.4.4,1.9,2-.3,8.4.6,13.2,1.8,5.8-.8,7.7-4.4,10.7-6.6,5.4-17.2,4.4-27.8-8.5-.6-.4-1.1-.6-1.4-.6-.2,0-.4.1-.6.2-.3.3-.2,1,0,1.6,5.3,7.5,26.5,19.6,7.3,35.1-2.7,2.2-.7-1.4-12.6,6.2-6.3-.2-10.5-13.1,2.2-40.7Z" fill="none" stroke="#fff" stroke-miterlimit="10" stroke-width="2.4"/><path d="M73.2,234.4c1.8,1-.5,2-.3,2.6s.6.8.6,1.4.1.8-1.1,1.4c-1.2.5-.8-.4-1.4.1s-.8,1-1.3,1.2c-.6.2-.7.5-1.2.2-.5-.3-.6-.6-.9-.3s-.9,0-1.4-.2-1.4,0-1.7-.6.2-.7-.6-.6c-.9,0-1.3.3-1.5-.5-.2-.9-.3-1.1.2-1.5s.2-.9.6-1.6c.5-.7-.5-1.1-.1-1.8.4-.7,1.3-1.5,1.6-1.2.4.3.6-.2,1.3-.4s1.6-1.4,1.9-.9.6.6,1.2.6c.6,0,.9-.6,1.5-.4s1.3,1.1,1.1,1.5,1.5,1.1,1.5,1.1Z" fill="none" stroke="#fff" stroke-miterlimit="10" stroke-width=".8"/><path d="M73.9,235.4c1.5-1.6,3.6-2.4,5.7-2.8,2-.7,3.8-2,5.8-2.5,1.4-.3,2.8-.5,4.2-.4,0,0,0,0,0,.1-3.2,1.9-6.6,2.1-10,3.2-1.8,1.1-3.6,2.1-5.8,2.5,0,0-.1,0,0-.1h0Z" fill="#fff"/><path d="M73.4,238.3c2.4-1.4,5.2-1.5,7.8-1.1,4.3-.2,9-.9,13.1,1.2-4.4.6-8.7-.7-13.1-.7-2.6.4-5.1.9-7.8.8,0,0,0,0,0-.1h0Z" fill="#fff"/><path d="M72.4,239.6c1.9-.3,3.6.4,5.2,1.4,1.7.6,3.6.6,5.2,1.4,1.1.5,2.1,1.1,3,2.1,0,0,0,.1,0,.1-1.8-.3-3.5-.8-5.1-1.6-1.1-.5-2-1.3-3.2-1.5-1.8-.2-3.6-.5-5.1-1.6,0,0,0-.1,0-.1h0Z" fill="#fff"/><path d="M73.6,237c1.9-1.5,4.3-1.6,6.6-1.7,2.3,0,4.5,0,6.8.1h0c-3.4.4-6.7,1-10,1.5,0,0-3.3.2-3.3.2h0Z" fill="#fff"/><path d="M72.9,235.8c1.5-1.1,3.3-1.5,5.1-1.8,1.8-.3,3.6-.7,5.4-.9h0c-1.7.8-3.4,1.4-5.1,1.9-1.7.7-3.5,1.1-5.4.9,0,0,0-.1,0-.1h0Z" fill="#fff"/><path d="M74,234.2c1.1-1.7,2.7-2.7,4.6-3.4,1.8-.8,3.6-1.4,5.5-1.7h0c-1.7.8-3.4,1.6-5,2.6-1.6,1.1-3.1,2-5,2.6,0,0,0-.1,0-.1h0Z" fill="#fff"/><path d="M73.9,239c1.5-.6,3-.3,4.4.3,1.4.4,2.8.9,4.2,1.6h0c-1.5-.1-2.9-.4-4.3-.6-1.5-.1-2.9-.3-4.2-1.1,0,0,0-.1,0-.1h0Z" fill="#fff"/><path d="M72.5,240.2c2.8.7,4.8,3,7.3,4.4,0,0,0,.1,0,.1-1.4-.5-2.7-1-4-1.6-1.4-.6-2.7-1.3-3.3-2.8,0,0,0,0,0,0h0Z" fill="#fff"/><path d="M103,245.7c-1.3,1.2-3.1,1.4-4.8,1.3-1.7.2-3.2,1.1-5,1-1.1,0-2.3-.2-3.3-1,0,0,0-.1,0-.1,2.2-.2,4.3-.4,6.5-.2.6,0,1.1,0,1.7,0,1-.4,2-.9,3.1-1,.5,0,1.1-.1,1.7,0h0Z" fill="#fff"/><path d="M104.2,232.6c-1.3.2-2.4,0-3.5-.5-.7-.2-1.4-.9-2.2-.9-.4,0-.8,0-1.2.1-.6,0-1.9-.4-2.3-.7.7-.6,1.7-.6,2.5-.3.4.2.7.4,1.1.5,1.2.3,2.4,0,3.6.4.8.3,1.5.7,2.1,1.3,0,0,0,.1,0,.1h0Z" fill="#fff"/><path d="M105.1,242.2c-1.7,1.2-3.9,1.3-5.9,1-2-.2-4.1-.4-5.9-1,1.9,0,4,.1,6,0,2-.2,3.8-.3,5.8-.1,0,0,0,0,0,.1h0Z" fill="#fff"/><path d="M104.5,234.3c-2.9.7-6-.6-8.8-1.1-.9-.2-2-.6-2.9-.4,0,0,0,0,0,0,0,0,0,0,0,0,.5-.3,1-.2,1.5-.2,1,0,3.4.3,4.4.4,2,.1,3.9.4,5.7,1.4,0,0,0,.1,0,.1h0Z" fill="#fff"/><path d="M104.4,241.1c-1.1.7-2,.4-3-.1-.7-.2-1.4.2-2.1.1-1.1,0-2.1-.3-2.9-1.2,0,0,0,0,0-.1,1.1-.3,2-.3,3,0,.6.1,1.2.7,1.9.7.7,0,1.3-.4,2-.1.3.1.6.2,1,.5,0,0,0,.1,0,.1h0Z" fill="#fff"/><path d="M103.5,236.3c-.7.3-1.4.4-2.1.1-.3-.1-.6-.4-.9-.5-1-.2-2,.3-3,0-.7-.1-1.3-.4-1.9-.8,0,0,0,0,0,0,.9-.7,2.1-.6,3.1-.3.6.1,1.2.7,1.9.7.7,0,1.4-.3,2,0,.3.1.6.3.9.6,0,0,0,.1,0,.1h0Z" fill="#fff"/><path d="M104.1,228.9c-1.4,0-2.7-.3-3.8-1.1-.6-.4-1.2-.6-1.9-.6-.6,0-1.2,0-1.7,0-1.4.2-3.4.2-5.1.2,0,0,0-.1,0-.1,1.4-1.2,3.2-1.5,5-1.2,0,0-.3,0-.3,0,.8-.2,1.6.2,2.3.5,1.3.6,2.8.2,4,.9.6.3,1.2.7,1.7,1.2h0Z" fill="#fff"/><path d="M103.9,244.1c-1,1-2.5,1.1-3.8.9-1.3,0-2.6-.2-3.8-.5h0c1.3-.3,2.5-.4,3.8-.5,1.3-.3,2.4-.3,3.8,0,0,0,0,.1,0,.1h0Z" fill="#fff"/><path d="M104.2,227.8c-1.4,0-2.4-.4-3.6-1.1,0,0-3.5-1.5-3.5-1.5h0c1.3,0,2.5.2,3.8.5,1.3.2,2.7.7,3.3,2,0,0,0,.1,0,.1h0Z" fill="#fff"/><path d="M104,231.2c-2.1,0-3.7-1.7-5.7-2,0,0-.1,0-.1,0,.5-.3,1.1-.2,1.7-.2,1.6.3,3.7.2,4.2,2.1,0,0,0,0,0,0h0Z" fill="#fff"/><path d="M101.5,247.4c-.6,1.1-1.6,1.6-2.8,1.7-1.1.2-2.2.4-3.2.3h0c1.5-.6,2.9-1.3,4.3-2,.5-.1,1-.2,1.6-.2h0Z" fill="#fff"/><path d="M104,238c-.9.8-2.1.9-3.2.6-1.1-.2-2.1-.5-3.1-.9,0,0,0-.1,0-.1,1.6.2,3.1,0,4.7-.1.5,0,1,.2,1.6.4h0Z" fill="#fff"/><path d="M104.4,239.9c-.9.5-1.6.4-2.4,0-.8-.2-1.5-.4-2.3-.6h0c.8-.3,1.6-.4,2.4-.4.9-.1,1.7,0,2.3.9,0,0,0,.1,0,.1h0Z" fill="#fff"/><path d="M29.9,218.4c1.3,1.2,1.9,2.7,2.4,4.3.3.5.6.9,1,1.3,1.7,1.5,2.8,3.2,4.1,5.1,0,0,0,.1,0,.1-1.2-.3-2.1-1.1-2.9-1.9-1.2-1.2-1.6-3-2.5-4.4-.7-.9-1.6-1.7-1.9-2.8-.2-.5-.3-1.1-.3-1.7,0,0,.1,0,.1,0h0Z" fill="#fff"/><path d="M38.9,208.9c1.3,0,2.4.6,3.3,1.5.6.5,1,1.3,1.7,1.7.7.3,1.6.5,2,1.3.2.3.5.7.5,1.3,0,0,0,0,0,0-.7-.3-1.5-.7-2-1.3-.2-.3-.4-.7-.7-1-.9-.7-2.2-.9-3.1-1.6-.6-.5-1.2-1-1.7-1.8,0,0,0-.1,0-.1h0Z" fill="#fff"/><path d="M31.1,214.5c1.5,1.4,2.6,2.8,3.8,4.5,1.2,1.6,2.7,3,3.9,4.5-1.7-1-3.2-2.4-4.7-3.8-1.5-1.3-2.9-3-3.1-5.1,0,0,0-.1.1,0h0Z" fill="#fff"/><path d="M37.4,209.8c2.8,1.1,4.8,3.5,7,5.5.6.7,1.6,1.4,1.9,2.3,0,0,0,0-.1,0-.5-.8-1.5-1.3-2.2-1.9,0,0-2.4-1.7-2.4-1.7-1.7-1.1-3.3-2.3-4.2-4.1,0,0,0-.1,0,0h0Z" fill="#fff"/><path d="M32.4,214.3c.7.2,1.3.5,1.7,1.1.2.3.3.7.5.9.4.5,1.2.6,1.8,1,.9.5,1.5,1.2,2,2.2,0,0,0,.1,0,.1-.8,0-1.4-.3-2-.7-.9-.6-1.2-1.7-2-2.3-1-.4-1.8-.9-2.1-2.2,0,0,0-.1,0,0h0Z" fill="#fff"/><path d="M36.6,211.9c.7,0,1.4.3,1.9.9.2.3.3.6.6.9.2.2.5.4.9.5,1,.4,1.9.9,2.4,1.9.1.2.5.8.3,1.2,0,0,0,0,0,0h0c-1-.3-1.9-.8-2.5-1.6-.5-.5-.7-1.2-1.3-1.6-.6-.3-1.3-.4-1.7-1-.2-.3-.4-.6-.5-1,0,0,0-.1,0-.1h0Z" fill="#fff"/><path d="M41.7,206.5c1.4,0,2.8.6,3.7,1.7.5.5,1,.9,1.6,1.2.7.4,1.5.6,1.9,1.4,0,0-.1-.2-.1-.2,1.4,1.1,2.3,2.8,2.3,4.6,0,0-.1,0-.1,0-1.1-1.3-2.4-2.8-3.2-4-.3-.5-.7-1-1.1-1.4-.9-1.1-2.5-1.1-3.5-1.9-.5-.4-1.1-.8-1.6-1.3,0,0,0-.1,0-.1h0Z" fill="#fff"/><path d="M30.5,216.7c2.1,1.5,3.1,3.9,4.7,5.9,0,0,0,0,0,0-1-.8-2-1.6-2.9-2.6-1-.9-1.9-2-1.8-3.4,0,0,.1,0,.1,0h0Z" fill="#fff"/><path d="M42.5,205.7c1.4-.3,2.6.4,3.7,1.2,1,.8,2,1.6,3,2.4h0c0,.1-3.4-1.5-3.4-1.5-1.2-.4-2.2-1-3.2-2,0,0,0-.1,0-.1h0Z" fill="#fff"/><path d="M40,208.1c2-.9,3.6,1.2,4.9,2.4.2.2.4.4.4.8h-.1c-1-1-2.7-1.4-4-2.1-.4-.3-.8-.6-1.2-1h0Z" fill="#fff"/><path d="M35,212.6c1.1.5,1.7,1.2,2.3,2.1.6.8,1.3,1.6,2.1,2.4h0c-1-.3-1.9-.9-2.7-1.6-1-.7-1.7-1.5-1.7-2.8,0,0,.1,0,.1,0h0Z" fill="#fff"/><path d="M33.2,213.5c1-.1,1.7.4,2.2,1.2.5.6,1,1.3,1.4,2h0c-.7-.4-1.3-.8-2-1.3-.8-.4-1.3-.9-1.5-1.8,0,0,0-.1,0-.1h0Z" fill="#fff"/><path d="M31.7,248.3c.8-1.6,2.3-2.5,4-3.1,1.5-.8,2.6-2.2,4.2-2.8,1.1-.4,2.2-.7,3.4-.3,0,0,0,.1,0,.1-2,1-3.8,2-6,2.6-.5.2-1,.4-1.5.7-.8.7-1.5,1.6-2.5,2.1-.5.3-1,.5-1.5.7h0Z" fill="#fff"/><path d="M33.5,260.4c.9-1,1.8-1.5,3-1.9.7-.3,1.6-.2,2.3-.7.3-.2.6-.6.9-.9.4-.4,1.8-.9,2.2-.9-.2.9-1,1.5-1.7,1.8-.4.1-.8.1-1.2.3-1.1.5-1.8,1.6-3,2-.8.3-1.6.4-2.4.3,0,0,0,0,0-.1h0Z" fill="#fff"/><path d="M30.5,252.4c.6-2,2.2-3.5,3.9-4.5,1.7-1.1,3.4-2.3,5.3-3-1.5,1.3-3.2,2.4-4.6,3.8-1.4,1.4-2.8,2.6-4.4,3.8,0,0-.1,0-.1,0h0Z" fill="#fff"/><path d="M31.4,259.9c1.8-2.4,5-3.3,7.5-4.7.8-.5,1.9-.8,2.5-1.5,0,0,0,0,0,0,0,0,0,0,0,0-.2.6-.7.8-1.1,1.1-.8.6-2.8,1.9-3.7,2.5-1.6,1.2-3.3,2.1-5.3,2.6,0,0-.1,0,0-.1h0Z" fill="#fff"/><path d="M29,254.3c.4-1.2,1.3-1.6,2.4-1.8.6-.3.9-1,1.5-1.4.8-.7,1.8-1.1,2.9-.9,0,0,0,0,0,0-.6.9-1.4,1.5-2.4,1.9-.6.3-1.4.2-1.9.7-.5.5-.8,1.2-1.5,1.4-.3.1-.6.2-1.1.2,0,0,0,0,0-.1h0Z" fill="#fff"/><path d="M30.5,258.7c.3-.7.8-1.1,1.5-1.4.3,0,.7,0,1-.2.9-.5,1.4-1.5,2.3-1.9.6-.3,1.3-.5,2-.6,0,0,0,0,0,0-.3,1.1-1.2,1.8-2.2,2.2-.6.3-1.4.2-1.9.7-.5.5-.9,1.1-1.6,1.2-.3,0-.7.2-1.1.1,0,0,0,0,0-.1h0Z" fill="#fff"/><path d="M40.7,261.2c1.1-.9,2.3-1.4,3.7-1.6.7,0,1.3-.3,1.8-.7.4-.3.9-.8,1.3-1.2,1-1.1,2.5-2.3,3.8-3.4,0,0,.1,0,.1,0-.3,1.8-1.5,3.2-3.1,4.1,0,0,.2-.2.2-.2-.5.7-1.4.8-2.1,1.1-1.3.3-2.3,1.6-3.6,1.9-.7.2-1.4.2-2.1.1,0,0,0-.1,0-.1h0Z" fill="#fff"/><path d="M41.4,262.1c1.1-.8,2.2-1.2,3.5-1.4,0,0,3.6-1.1,3.6-1.1,0,0,0,.1,0,.1-1.1.7-2.2,1.3-3.3,1.9-1.1.7-2.5,1.2-3.8.6,0,0,0-.1,0-.1h0Z" fill="#fff"/><path d="M38.5,259.9c1.7-1.3,3.9-1,5.6-2.1,0,0,.1,0,.1,0-.2.6-.7.8-1.2,1.2-1.4.8-3,2.1-4.6,1.1,0,0,0-.1,0-.1h0Z" fill="#fff"/><path d="M29.6,257.7c.9-1.6,2.3-2.6,3.9-3.3,1.5-.8,3.1-1.5,4.7-2h0c-1.5,1-2.9,1.9-4.2,2.9-1.3,1.1-2.7,2-4.4,2.5,0,0,0-.1,0-.1h0Z" fill="#fff"/><path d="M29.6,255.4c.4-.9,1-1.3,1.8-1.6.7-.3,1.4-.7,2.2-1h0c-.5.7-1.1,1.3-1.7,1.9-.6.7-1.4,1.1-2.3.8,0,0,0-.1,0-.1h0Z" fill="#fff"/><path d="M81,200.4c1,1.5.9,3.3.5,5,0,1.7.5,3.4.2,5.1-.3,1.1-.6,2.3-1.5,3.1h-.1c.1-2.3.3-4.4.8-6.5.1-.5.2-1.1.2-1.6-.2-1.1-.6-2.1-.5-3.3,0-.5,0-1.1.2-1.7h.1Z" fill="#fff"/><path d="M69.8,195.6c.4,1.3.3,2.4,0,3.6-.1.8-.7,1.5-.6,2.3,0,.4.2.8.3,1.2.1.6-.1,2-.4,2.4-.7-.6-.8-1.6-.7-2.4,0-.4.3-.8.4-1.2.1-1.2-.4-2.4-.1-3.6.2-.8.4-1.6,1-2.3,0,0,.1,0,.1,0h0Z" fill="#fff"/><path d="M78.2,197.2c1.4,1.6,1.8,3.7,1.8,5.7,0,2,.2,4.1-.2,6-.3-1.9-.4-4-.8-5.9-.5-1.9-.8-3.7-.9-5.8,0,0,0-.1.1,0h0Z" fill="#fff"/><path d="M71.3,194.1c1.1,2.8.3,6,0,8.9,0,.9-.3,2,0,2.9,0,0,0,0,0,0,0,0,0,0,0,0-.4-.5-.3-1-.4-1.5-.1-1-.2-3.4-.2-4.4-.2-2-.1-3.9.6-5.9,0,0,.1,0,.1,0h0Z" fill="#fff"/><path d="M77.3,195c.8,1,.7,1.9.3,3,0,.7.4,1.3.4,2,.2,1.1,0,2.1-.8,3,0,0,0,0-.1,0-.5-1-.6-2-.4-3,0-.6.5-1.3.4-2-.2-.6-.6-1.3-.4-2,0-.3.1-.7.4-1,0,0,0,0,.1,0h0Z" fill="#fff"/><path d="M72.8,193.9c.4.6.5,1.3.4,2,0,.3-.3.7-.4,1,0,1,.5,2,.4,3,0,.7-.3,1.4-.5,2,0,0,0,0,0,0-.8-.8-.9-2-.7-3,0-.7.5-1.3.5-2-.1-.7-.5-1.3-.2-2,0-.3.2-.7.5-1,0,0,.1,0,.1,0h0Z" fill="#fff"/><path d="M65.4,198.5c.1,1.4,0,2.7-.5,4-.3.6-.4,1.3-.3,2,0,.6.2,1.2.3,1.7.4,1.4.7,3.3.9,5,0,0-.1,0-.1,0-1.3-1.2-2-3-1.9-4.8,0,0,0,.3,0,.3-.3-.8,0-1.6.2-2.3.4-1.3-.2-2.8.3-4.1.2-.7.5-1.3,1-1.9,0,0,.1,0,.1,0h0Z" fill="#fff"/><path d="M63.4,200.5c.1,1.4,0,2.5-.6,3.7,0,0-1,3.7-1,3.7h-.1c0-1.3,0-2.6.1-3.9,0-1.3.3-2.7,1.5-3.6,0,0,.1,0,.1,0h0Z" fill="#fff"/><path d="M67.9,197.4c.2,2.1-1.2,3.9-1.2,5.9,0,0,0,.1,0,.1-.4-.5-.3-1-.4-1.6,0-1.6-.3-3.7,1.5-4.5,0,0,.1,0,.1,0h0Z" fill="#fff"/><path d="M74.1,193.7c.9,1.6,1,3.3.7,5-.1,1.7-.3,3.4-.8,5h-.1c0-1.7,0-3.4-.1-5-.2-1.7-.3-3.3.2-5,0,0,.1,0,.1,0h0Z" fill="#fff"/><path d="M76.1,194.9c.6.8.6,1.5.4,2.4,0,.8-.2,1.6-.3,2.4h-.1c-.3-.8-.5-1.6-.6-2.4-.3-.9-.2-1.7.5-2.4,0,0,.1,0,.1,0h0Z" fill="#fff"/><path d="M61.1,280.3c-.8-1.6-.5-3.4,0-5,.2-1.7-.1-3.4.4-5.1.4-1.1.9-2.2,1.9-2.9h0c-.4,2.3-.8,4.3-1.6,6.4-.2.5-.3,1.1-.4,1.6,0,1.1.3,2.2,0,3.3,0,.5-.2,1.1-.4,1.6h-.1Z" fill="#fff"/><path d="M77.6,276c-.4-1.2-.5-2.3-.2-3.5,0-.8.6-1.5.5-2.3,0-.4-.3-.8-.3-1.2-.1-.6,0-2,.3-2.4.7.6.9,1.6.8,2.4,0,.4-.3.8-.3,1.2,0,1.2.6,2.4.4,3.6-.1.8-.3,1.6-.9,2.3,0,0-.1,0-.1,0h0Z" fill="#fff"/><path d="M65.1,282.7c-1-1.9-.9-4-.4-6,.4-1.9.8-4.1,1.7-5.8-.2,1.9-.6,4-.6,5.9,0,2-.1,3.8-.5,5.8,0,0,0,0-.1,0h0Z" fill="#fff"/><path d="M75.7,277.6c-1.3-2.7-.6-5.9-.6-8.8,0-.9.2-2-.1-2.9,0,0,0,0,0,0,0,0,0,0,0,0,.4.4.4.9.5,1.5.2,1,.4,3.4.5,4.4.3,2,.3,3.9-.2,5.9,0,0-.1,0-.1,0h0Z" fill="#fff"/><path d="M67.1,281.9c-.7-1.1-.5-2,0-3,.1-.7-.3-1.4-.3-2,0-1.1.2-2.1,1-2.9,0,0,0,0,.1,0,.4,1.1.4,2,.1,3-.1.6-.6,1.3-.6,1.9.1.7.5,1.3.2,2,0,.3-.2.7-.4,1,0,0,0,0-.1,0h0Z" fill="#fff"/><path d="M73.2,277.9c-.4-.6-.6-1.3-.5-2,0-.3.3-.7.3-1,0-1-.7-1.9-.6-3,0-.7.2-1.4.4-2,0,0,0,0,0,0,.9.8,1,1.9.9,3,0,.7-.5,1.3-.3,2,.2.6.6,1.3.3,2,0,.3-.2.7-.4,1,0,0,0,0-.1,0h0Z" fill="#fff"/><path d="M81.8,272.8c-.2-1.4-.2-2.7.3-4,.3-.6.3-1.3.2-2,0-.6-.3-1.2-.4-1.7-.5-1.4-.9-3.3-1.2-5,0,0,.1,0,.1,0,1.4,1.1,2.1,2.9,2.2,4.6,0,0-.1-.3-.1-.3.4.7,0,1.6,0,2.3-.3,1.3.4,2.8,0,4.1-.2.7-.4,1.3-.9,1.9,0,0-.1,0-.1,0h0Z" fill="#fff"/><path d="M62.6,282.4c-.8-1.2-.6-2.6-.2-3.9.3-1.2.7-2.5,1.2-3.7h.1c0,1.3-.2,2.6-.3,3.8,0,1.3-.2,2.4-.7,3.7,0,0-.1,0-.1,0h0Z" fill="#fff"/><path d="M79.5,274.4c-.3-2.1,1-3.9.8-6,0,0,0-.1,0-.1.5.5.4,1,.5,1.6,0,1.6.5,3.7-1.2,4.6,0,0-.1,0-.1,0h0Z" fill="#fff"/><path d="M59.7,275.9c-.8-1-.7-2.1-.4-3.2.3-1.1.6-2.1,1.1-3h.1c-.3,1.6-.2,3.2-.2,4.7-.1.5-.2,1-.6,1.6h-.1Z" fill="#fff"/><path d="M71.8,278.9c-1-.8-1.3-1.9-1.2-3,0-1.1,0-2.2.3-3.2h.1c.1,1.6.7,3.1,1,4.6,0,.5,0,1-.1,1.7h-.1Z" fill="#fff"/><path d="M69.3,280.3c-.6-.8-.7-1.5-.5-2.3,0-.8,0-1.6.1-2.4,0,0,.1,0,.1,0,.3.8.6,1.5.8,2.3.3.8.3,1.7-.4,2.4,0,0-.1,0-.1,0h0Z" fill="#fff"/><path d="M69.3,242.5c1.9,1.2,2.9,3.1,3.6,5.1,1,1.8,2.6,3.4,3.4,5.4.5,1.3,1,2.7,1.1,4.1,0,0,0,.1-.1,0-2.4-2.9-3.1-6.2-4.7-9.3-1.4-1.6-2.7-3.2-3.4-5.3,0,0,0-.1.1,0h0Z" fill="#fff"/><path d="M68,241.8c1.8,2.1,2.3,4.9,2.4,7.5.9,4.3,2.3,8.8,1,13.2-1.3-4.2-.8-8.7-1.4-13.1-.9-2.5-1.7-4.9-2.1-7.5,0,0,0-.1.1,0h0Z" fill="#fff"/><path d="M67.8,242c.6,1.9.1,3.6-.5,5.3-.3,1.8,0,3.6-.5,5.4-.3,1.2-.8,2.3-1.5,3.3,0,0-.1,0-.1,0,0-1.9.2-3.5.8-5.3.3-1.1.9-2.2,1-3.4-.1-1.8-.1-3.6.8-5.3,0,0,.1,0,.1,0h0Z" fill="#fff"/><path d="M68.2,242c2,1.4,2.9,3.6,3.6,5.8.8,2.1,1.4,4.3,2,6.5h-.1c-1.3-3.1-2.8-6.1-4.3-9.1,0,0-1.2-3.1-1.2-3.1,0,0,0,0,0,0h0Z" fill="#fff"/><path d="M68.3,243c1.2,2.7.5,5.6.9,8.4,0,0-.1,0-.1,0-.5-1.4-.8-2.7-1.1-4.2-.4-1.4-.5-2.9.2-4.3,0,0,.1,0,.1,0h0Z" fill="#fff"/><path d="M62.6,238.9c-2.2.5-4.2.3-6.3,0-3.5.3-6.7,1.5-10.4,1,0,0,0,0,0-.1,1.3-.7,2.7-1,4.1-1.3,2.1-.4,4.2,0,6.3,0,2.1-.5,4.3-.6,6.3.3,0,0,0,.1,0,.1h0Z" fill="#fff"/><path d="M63.7,239.6c-2.4,1.2-4.8,1.9-7.4,2.7-3.9,2-7.2,5-11.4,6.5,0,0-.1,0,0-.1,3-3.5,7.2-5,11.3-6.7,2.2-1.5,4.8-2.6,7.5-2.4,0,0,0,.1,0,.1h0Z" fill="#fff"/><path d="M64,239.7c-.6,1.8-2,3-3.4,4.1-.8.9-1.2,2.1-1.8,3-.9,1.6-2,2.9-3.4,4.1,0,0-.1,0-.1,0,.2-1.2.8-2.3,1.4-3.4.9-1.6,2.5-2.6,3.6-4,.8-1.6,1.8-3.1,3.6-4,0,0,.1,0,0,0h0Z" fill="#fff"/><path d="M62.8,239.2c-1.7,1-3.4,1.2-5.3,1.3-1.8.1-3.6.3-5.4.4h0c1.8-.6,3.5-1,5.3-1.4,1.8-.5,3.6-.8,5.4-.4,0,0,0,.1,0,.1h0Z" fill="#fff"/><path d="M63.2,240c-1.6,2.4-4.6,3.6-6.9,5.4,0,0,0,0,0,0,.9-1.2,1.9-2.2,3-3.3,1-1.1,2.3-2,3.9-2.2,0,0,0,.1,0,.1h0Z" fill="#fff"/><path d="M62.9,231.9c-1.4-1.7-2-3.6-2.6-5.7-1.8-3.1-4.2-5.4-5.3-9,0,0,0-.1.1,0,1.2.9,2.1,2,2.9,3.1,1.2,1.7,1.7,3.9,2.7,5.7,1.3,1.7,2.4,3.6,2.4,5.8,0,0,0,0-.1,0h0Z" fill="#fff"/><path d="M63.1,233.7c-2-1.8-3.6-3.8-5.2-5.8-2.9-2.6-7.6-4.9-10.3-8.2,4.4,1.3,7.4,4.8,10.6,7.9,2.2,1.5,4.2,3.4,5.1,6.1,0,0,0,.1-.1,0h0Z" fill="#fff"/><path d="M63.3,233.7c-1.9,0-3.4-1-4.9-2-1.1-.5-2.3-.5-3.5-.9-1.8-.4-3.3-1-4.9-2,0,0,0-.1,0-.1,1.3-.2,2.5,0,3.6.3,1.8.4,3.2,1.6,4.9,2.3,1.8.3,3.5.8,4.8,2.3,0,0,0,.1,0,.1h0Z" fill="#fff"/><path d="M63.5,233.4c-1.3-1.5-3.1-3.6-4.2-5.2-1.3-1.8-2.8-3.5-4.2-5.3h0c1.7,1.4,3.3,3,4.9,4.6,1.6,1.6,3.2,3.5,3.5,5.8,0,0-.1,0-.1,0h0Z" fill="#fff"/><path d="M62.7,233c-2.8-.6-5-3-7.6-4.4,0,0,0-.1,0-.1,1.4.4,2.8,1,4.1,1.6,1.4.5,2.7,1.3,3.5,2.8,0,0,0,.1,0,.1h0Z" fill="#fff"/><path d="M69.9,231.5c-1.3-1.8-1.6-4-1.6-6.1-.3-2.1-1.2-4.1-1.2-6.2,0-1.4,0-2.8.4-4.2,0,0,.1,0,.1,0,1.2,3.5.7,6.9,1.1,10.4.7,2,1.4,3.9,1.3,6.1,0,0,0,0-.1,0h0Z" fill="#fff"/><path d="M70.8,232.2c-.6-2.7.2-5.4,1.3-7.8.8-2.5,1.1-5.2,2.2-7.6.7-1.6,1.6-3.2,2.8-4.5,0,0,.1,0,.1,0-.9,4.4-3.3,8.1-4.7,12.2-.4,2.6-.7,5.1-1.5,7.7,0,0-.1,0-.1,0h0Z" fill="#fff"/><path d="M70.3,231.8c-1.1-2.1-.9-4.5-.5-6.8.3-2.2.7-4.5,1.2-6.7,0,0,.1,0,.1,0-.3,3.4-.3,6.7-.4,10.1,0,0-.3,3.3-.3,3.3,0,0-.1,0-.1,0h0Z" fill="#fff"/><path d="M71,231.3c0-1.6.6-3,1.6-4.2.8-1.2,1.8-2.4,2.8-3.5,0,0,.1,0,.1,0-.7,1.3-1.3,2.6-2,3.9-.6,1.4-1.2,2.6-2.4,3.7,0,0-.1,0-.1,0h0Z" fill="#fff"/><path d="M63.6,236.6c-1-1.1.8-1.3.8-1.7s-.2-.7,0-1.1,0-.6,1.1-.7c1,0,.4.4,1,.2s.8-.5,1.2-.6.6-.2.9.2c.3.4.2.6.6.5s.6.2,1,.5c.4.2,1,.4,1.1.8s-.3.4.3.6c.6.2,1,0,.9.7,0,.7,0,.8-.5,1s-.3.6-.8,1c-.5.4,0,.9-.4,1.3s-1.2.7-1.4.4-.5,0-1.1,0-1.4.6-1.5.2-.2-.6-.7-.7-.8.2-1.1,0-.6-1.1-.4-1.3-.8-1.2-.8-1.2Z" fill="none" stroke="#fff" stroke-miterlimit="10" stroke-width=".6"/><path d="M70.9,236.1c.8.8-.6,1-.5,1.3s.2.5,0,.8,0,.5-.8.6-.4-.3-.8-.1c-.4.2-.6.4-.9.5s-.4.2-.7,0-.2-.4-.4-.3-.5-.1-.7-.3-.7-.3-.8-.6c0-.3.2-.3-.3-.4s-.8,0-.7-.5c0-.5,0-.6.3-.8s.2-.5.6-.8,0-.7.2-1c.3-.3.9-.6,1.1-.4s.4,0,.8,0c.4,0,1.1-.5,1.1-.2s.2.4.5.5.6-.2.9,0,.5.8.4,1,.7.8.7.8Z" fill="none" stroke="#fff" stroke-miterlimit="10" stroke-width=".5"/><path d="M65.7,235.8c-.3-.7.6-.5.7-.7s0-.4.2-.6.2-.3.7-.1.1.3.4.3.5-.1.7,0,.3,0,.4.2,0,.3.2.3.3.2.4.4c.1.2.4.4.4.6s-.2.1,0,.3.5.2.3.5-.2.4-.4.4-.3.2-.6.3c-.3.1-.1.5-.4.6s-.8.1-.8,0-.2,0-.5-.2-.8,0-.8-.2,0-.3-.2-.5-.4,0-.5-.3-.1-.7,0-.7-.2-.7-.2-.7Z" fill="none" stroke="#fff" stroke-miterlimit="10" stroke-width=".3"/><path d="M208.5,78.8c.4.8.8,1.4,1.2,1.8,0,0,.1,0,.2-.1.6-.2,1.1-.2,1.7,0,.5-.7,1.3-1,2.1-1.1.2-.4.4-.8.6-1.2-9.4-22.6-10.6-50.3,9.8-53.3,4.1-.6,8.2-9.6,13.4-8.4,11.3,2.6,10.7,14.5,12.1,22.3,3.1,16.9-10.3,32-28.6,41-.8,1.3-1.1,2.2-1.1,2.9.7.4,1.2,1,1.4,1.7.9.3,2.1.3,2.9.3,4.3-2.8,8.6-7.2,18.9-11.8,7.3-3.2,13-12.2,20.9-13.2,9.2-1.1,23.1,5.3,23.6,16.5.1,2.8-3.4,7.3-3.6,9.8-.8,9.4-.6,14.5-6,18.4-5.5,4-13.1,4.9-22.7,2.3-8.5-2.4-18.5-7.5-29.8-15.9-1-.2-1.9-.2-2.6-.1-.5.8-1.4,1.3-2.4,1.2,0,0,0,0-.1,0,0,.1,0,.2,0,.3,0,1.1-.8,2.1-1.8,2.5,0,.7,0,1.4.1,1.7,14.5,6.7,50.8,20.6,39.9,41.4-1.4,2.6.6,9.5-4.5,13.8-6.9,4-13.2-.4-16.8.1-12.9,1.9-22.7-17-24-53.3-.3-.9-.6-1.5-1-1.9-.1,0-.2-.2-.3-.3-.9-.6-2-.2-3,.4-1,7.3-3,18.1-7.3,26.8-4.4,8.9-13.4,19.7-23.7,18.5-4.7-.6-8.8-11.6-15.2-17-8.8-5.8-7.3-11.3-5.8-19.1,2.9-14.5,18.2-24.7,46.6-19,1.3-.1,2.1-.4,2.6-.7.1-.3.3-.6.6-.8,0-.8-.8-1.6-1.6-2.2-15.2-4.3-56.9,2.7-48.2-39,1.2-6,2.5,1.2,10-22,8.6-6.5,28.4,6,41.5,57Z" fill="none" stroke="#fff" stroke-miterlimit="10" stroke-width="4.2"/><path d="M208.9,96.5c-3.4.7-1.5-3.1-2.4-3.8-.9-.6-1.7-.5-2.2-1.2s-1.1-1,0-3,1.4-.3,1.7-1.6c.3-1.3,0-2.1.4-3.1.5-1,.4-1.4,1.4-1.5s1.5.2,1.6-.5,1.2-.9,2.1-1.3,2-1.4,2.9-1.1c.9.3.4,1.1,1.5.1s1.4-1.9,2.6-.9c1.2,1,1.6,1.1,1.5,2.2s.8,1.4.9,2.9c.2,1.5,1.9,1,2.1,2.3.2,1.4,0,3.4-.9,3.3-.8,0-.6.9-1.3,2.1-.7,1.2-.6,3.6-1.5,3.3s-1.5-.2-2.3.4c-.8.7-.6,1.7-1.6,2.1s-2.9-.1-3.1-.9c-.2-.8-3.3.2-3.3.2Z" fill="none" stroke="#fff" stroke-miterlimit="10" stroke-width="1.4"/><path d="M206.9,95.9c-.2,3.9-2.2,7-4.6,9.9-1.8,3.1-2.8,6.8-5.1,9.7-1.5,1.9-3.1,3.8-5.2,5.2,0,0-.2,0-.2-.1,1.4-3.5,3.3-6.4,5.5-9.3,1.4-2,3.3-3.6,4.3-5.8,1.2-3.5,2.4-6.8,5-9.6,0,0,.2,0,.2,0h0Z" fill="#fff"/><path d="M204.4,91.6c-.8,2.2-2.2,4.1-3.8,5.8-1.5,1.8-3.6,2.8-5.5,4.2-2.4,1.9-4.3,4.3-6.8,6.2-3.5,2.9-7.5,5.3-12,6.7-.1,0-.2-.1-.1-.2,3.4-3.2,6.9-5.8,10.8-8.2,2.5-1.7,5.4-2.9,7.5-5,3-3.5,5.9-6.8,9.5-9.6,0,0,.2,0,.2.1h0Z" fill="#fff"/><path d="M204.3,88.6c-2.3,2.4-5.3,3.3-8.4,3.8-2.9,1.1-5.4,3.1-8.5,3.8-2,.5-4.1.8-6.3.5-.1,0-.1-.2,0-.2,2.8-1.6,5.5-2.7,8.5-3.4,1.9-.6,4.1-.5,6-1.4.9-.4,1.7-1.2,2.6-1.7,1.9-1,3.8-1.6,5.9-1.7.1,0,.2.1,0,.2h0Z" fill="#fff"/><path d="M205.5,93.5c-.9,4-4,7-7,9.4-3,2.6-6,5-9.2,7.3,0,0-.1-.2-.1-.2,2.7-2.8,5.5-5.5,8.1-8.4,2.5-3,5.1-5.6,8.1-8.2,0,0,.2.1.2.1h0Z" fill="#fff"/><path d="M207.8,94.3c-.7,3.2-2.7,5.8-4.9,8.1-1.8,2.1-4.4,5.1-6.3,7,0,0-.2-.1-.2-.1,1.4-2.3,3.5-5.7,5-8,1.6-2.8,3.4-5.3,6.1-7.1,0,0,.2.1.2.1h0Z" fill="#fff"/><path d="M207.9,97.7c.7,5.2-2.3,9.6-4.9,13.8-.9,1.4-1.9,2.7-3,3.9h-.2c1.6-2.9,2.9-5.9,4-8.9,1-3.2,1.9-6.1,3.8-8.9,0,0,.2,0,.2,0h0Z" fill="#fff"/><path d="M203,91.2c-2.1,3.6-6.2,4.5-9.8,5.9-1.2.4-2.4.8-3.7,1.1,0,0,0-.2,0-.2,2.2-1.3,4.4-2.5,6.6-3.8,2.1-1.5,4.2-2.7,6.9-3.1,0,0,.1.2.1.2h0Z" fill="#fff"/><path d="M203.5,88c-2.4,1.2-4.6,1.4-7.2,1.4,0,0-3.7.3-3.7.3l-3.7.3v-.2c1.1-.5,2.3-.8,3.5-1.2,3.6-.9,7.4-2.7,11.1-.9,0,0,0,.2,0,.2h0Z" fill="#fff"/><path d="M156.7,114c.3-2,1.3-3.8,2.7-5.2.7-.7,1.6-1.2,2.3-1.9,1.4-1.3,2.1-3.3,3.5-4.7,1.2-1.5,2.8-2.8,4.6-3.6.9-.4,1.9-.8,3-.8v.2c-2,2-3.8,4-6.1,5.7-1.4,1.2-3.3,2.1-4.4,3.6-.6.8-.9,1.7-1.4,2.5-.7,1.2-1.7,2.2-2.8,3.2-.4.3-.7.6-1.2.9h-.2Z" fill="#fff"/><path d="M169.4,132.9c1.5-1.7,3.2-2.6,5.2-3.2,1.2-.5,2.8-.4,3.9-1.2.6-.4,1-1,1.5-1.5,1.1-.9,2.5-1.3,3.8-1.6,0,0,0,0,0,0,0,.6-.3.9-.5,1.2-.6.9-1.5,1.6-2.5,2-.7.2-1.5.2-2.1.5-1.9.9-3.1,2.7-5.2,3.4-1.3.5-2.7.8-4.2.5,0,0-.1-.1,0-.2h0Z" fill="#fff"/><path d="M157.6,121c1-3.5,3.8-6,6.8-7.8,2.6-1.7,6.2-4.2,9.1-5.1-2.5,2.2-5.5,4.2-8,6.5-2.5,2.4-4.8,4.6-7.7,6.5,0,0-.2,0-.2-.1h0Z" fill="#fff"/><path d="M167.1,130.9c2.2-2.8,5.2-4.5,8.4-5.8,0,0,4.6-2.2,4.6-2.2,1.4-.8,3.1-1.3,4.3-2.5,0-.1.2-.2.2,0-.3.9-1.2,1.3-1.8,1.9-1.3,1.1-4.9,3.4-6.4,4.3-2.8,2-5.7,3.7-9.2,4.5-.1,0-.2-.1-.1-.2h0Z" fill="#fff"/><path d="M159.9,121.7c.4-1.2,1.2-2.2,2.4-2.7,1.2-.3,2.4-.5,3.1-1.6,1.6-1.9,3.8-3.2,6.4-2.8,0,0,.1.1,0,.2-.8,1.1-1.6,1.9-2.6,2.5-1,.6-2.1,1-3.2,1.2-.6.1-1.2.3-1.6.7-.4.4-.7,1-1.1,1.4-.4.4-.9.7-1.4.9-.5.2-1.1.4-1.8.4,0,0-.2,0-.1-.2h0Z" fill="#fff"/><path d="M166.3,127c.6-1.2,1.5-2,2.6-2.4.6-.2,1.3-.1,1.8-.3.5-.2,1-.6,1.4-1.1.8-.9,1.7-1.6,2.7-2.2,1-.5,2.3-.8,3.4-1,0,0,.1,0,0,0-.5,1.9-2.1,3.1-3.9,3.8-1,.5-2.4.4-3.4,1.1-.5.3-.8.9-1.2,1.3-.4.4-1,.6-1.5.8-.6.2-1.2.3-1.9.2,0,0-.1-.1-.1-.2h0Z" fill="#fff"/><path d="M173.5,137.7c1.5-1.2,2.9-1.9,4.6-2.4,1.7-.4,3.5-.4,4.9-1.6.8-.6,1.6-1.3,2.2-2,1.7-1.8,4.3-4,6.6-5.8,0,0,.2.1.2.1-.5,3-2.7,5.6-5.3,7.1,0,0,.3-.4.3-.4-.8,1.2-2.4,1.4-3.6,1.8-2.3.6-3.9,2.8-6.3,3.2-1.2.3-2.4.4-3.6.2,0,0,0-.2,0-.2h0Z" fill="#fff"/><path d="M157.2,117.2c.4-3.7,4.2-5.3,6.9-7.2,1-.6,1.9-1.1,2.9-1.7v.2c.1,0-4.5,4.7-4.5,4.7-1.4,1.8-2.9,3.1-5.1,4.1,0,0-.2-.1-.2-.1h0Z" fill="#fff"/><path d="M174.6,139.3c1.9-1.4,3.7-2.1,6-2.5,0,0,6.3-1.8,6.3-1.8,0,0,0,.2,0,.2-1.9,1.2-3.8,2.3-5.8,3.3-2,1.2-4.4,2-6.6,1,0,0,0-.2,0-.2h0Z" fill="#fff"/><path d="M171.2,134.5c1.7-1.1,3-1.6,4.9-1.9,1.6-.5,3.5-.8,4.8-1.7,0,0,.2,0,.2,0,0,.4-.2.5-.4.7-1.2,1.1-2.6,2-4.1,2.7-1.7,1-3.8,1.7-5.6.4,0,0,0-.2,0-.2h0Z" fill="#fff"/><path d="M156.7,110.1c-.7-3.2,1.8-5.4,3.7-7.5.7-.7,1.4-1.3,2.1-1.8l.2.2c-1,1.5-1.8,3.1-2.6,4.7-.7,1.8-1.4,3.3-3.1,4.5,0,0-.2,0-.2,0h0Z" fill="#fff"/><path d="M163.7,125.3c.5-3.2,3.6-4.3,6.2-5.6.9-.4,1.7-.7,2.7-.9,0,0,0,.2,0,.2-1.5,1-2.9,2.2-4.2,3.4-1.3,1.5-2.5,2.5-4.5,3,0,0-.2-.2-.2-.2h0Z" fill="#fff"/><path d="M161.1,123.3c.7-1.6,1.7-2.2,3.1-2.7,0,0,1.9-.9,1.9-.9l1.9-.9v.2c-.3.6-.8,1.1-1.3,1.6-.9.8-2.1,2.3-3.2,2.8-.7.2-1.5.4-2.4,0v-.2h0Z" fill="#fff"/><path d="M284.4,70.6c-1.9-.2-3.8-.8-5.5-1.7-.8-.5-1.6-1.2-2.5-1.5-1.7-.8-3.8-.6-5.6-1-2.8-.4-5.4-1.2-8.2-1.9,0,0,0-.2,0-.2.9-.6,2-.7,3-.8,2-.2,4,.2,5.8.9,1.9.6,3.5,1.9,5.3,2.4,1.9.3,3.9.5,5.6,1.7.8.5,1.6,1.2,2.2,2,0,0-.1.2-.1.2h0Z" fill="#fff"/><path d="M282.7,93.3c-1.8,1.4-3.9,1.8-6,1.7-1.4,0-2.8-.7-4.1-.5-1.4.4-2.6,1-4.1.5-.8-.2-1.5-.4-2-1.2,0,0,0,0,0-.1,1.3-.4,2.7-.7,4.1-.5.7.1,1.4.5,2,.5,2,0,3.9-1.2,6-1.2,1.3,0,2.7,0,4.2.5,0,0,.1.2,0,.2h0Z" fill="#fff"/><path d="M287.1,77.2c-3.5-.3-6.6-1-9.9-1.9-3.3-.7-6.7-1.2-10-1.6,0,0-.1,0-.1-.1,3.3-.6,7-.2,10.4,0,3.5.1,7.1.9,9.7,3.5,0,0,0,.2,0,.2h0Z" fill="#fff"/><path d="M283.8,90.4c-3.4,1-6.7,1-10.2.6-1.8-.1-5.9-.4-7.7-.6-.9-.2-1.9-.1-2.5-.8,0-.2.1-.2.2,0,0,0,.3.1.5.1,2.6.2,6.8-.3,9.5-.4,3.4-.4,6.9-.5,10.2.9,0,0,0,.2,0,.2h0Z" fill="#fff"/><path d="M285.5,78.8c-1.1.6-2.3.8-3.5.5-.6-.2-1.1-.6-1.7-.7-.6-.1-1.1,0-1.7.2-1.1.4-2.3.5-3.4.5-1.1,0-2.3-.3-3.5-.9,0,0,0-.1,0-.2,1.6-1.3,3.4-1.5,5.2-1.2,1.2,0,2.3.9,3.5.8.6,0,1.2-.4,1.8-.5.6-.1,1.2,0,1.7.2.6.2,1.1.5,1.6.9,0,0,0,.2,0,.2h0Z" fill="#fff"/><path d="M282.6,86.7c-1.1.7-2.2,1.1-3.5.8-.6-.1-1.2-.5-1.7-.6-.6,0-1.2,0-1.7.2-1.7.6-3.5.8-5.2.1-.6-.2-1.2-.4-1.7-1.1,0-.1,0-.1.1-.2,1.7-.6,3.4-1,5.1-.6,1.1,0,2.3.9,3.4.7.6,0,1.2-.4,1.7-.6.6-.1,1.2,0,1.7,0,.6.1,1.2.3,1.7.7,0,0,0,.2,0,.2h0Z" fill="#fff"/><path d="M281.6,99.5c-1.5,1.1-3.2,1.7-5,1.9-1.8,0-3.6-.5-5.3,0-1.3.2-2.8.8-4,.2,0,0,.5.2.5.2-3,0-6.2-1.2-8.1-3.6,0,0,.1-.2.1-.2,1.5.2,2.9.5,4.2.8,1.4.3,3.4.7,4.5,1.1.9.3,1.9.5,2.8.6,2.4.4,4.4-1.3,6.7-1.3,1.1,0,2.3-.1,3.5,0,0,0,0,.2,0,.2h0Z" fill="#fff"/><path d="M285.5,73.6c-2.4.2-4.3-.2-6.4-1.1,0,0-6.3-1.8-6.3-1.8v-.2c2.3,0,4.5,0,6.7.3,2.3,0,4.8.6,6.2,2.6,0,0-.1.2-.1.2h0Z" fill="#fff"/><path d="M281.5,101.4c-2.3,2.9-6.3,2.3-9.6,2.5-1.1,0-2.2,0-3.3-.1v-.2s6.4-1.5,6.4-1.5c2.2-.8,4.1-1,6.4-.8,0,0,.1.2.1.2h0Z" fill="#fff"/><path d="M282.1,95.5c-1,2-3.1,2.5-5,2.4-1.4,0-2.8,0-4.2-.2-.5-.1-1,0-1.4-.6,0,0,.2,0,.2,0,1.7.1,3.4-.5,5.1-.9.9-.2,1.6-.7,2.5-.8.9,0,1.7,0,2.7,0,0,0,.1.2.1.2h0Z" fill="#fff"/><path d="M283.9,83.9c-2,.6-3.6.3-5.4-.4-1.8-.4-3.5-.7-5.4-.9,0,0,0-.2,0-.2,1.8-.5,3.7-.7,5.6-.7,2-.2,3.9.3,5.3,1.9,0,0,0,.2,0,.2h0Z" fill="#fff"/><path d="M285.3,80.9c-1.2,1.3-2.7,1.3-4.2.8-1.4-.3-2.8-.7-4.1-1.2,0,0,0-.2,0-.2l2.1-.2,2.1-.2c.7,0,1.4-.3,2-.1.7.2,1.3.4,2,.9v.2h0Z" fill="#fff"/><path d="M249.2,32.6c.4,2,.2,4-.5,5.8-.4.9-1.1,1.7-1.4,2.6-.8,1.8-.8,3.8-1.5,5.6-.6,1.9-1.6,3.7-2.9,5.1-.7.7-1.4,1.4-2.5,1.8v-.2c1-2.7,2-5.2,3.5-7.6.8-1.7,2.3-3.2,2.7-5,.2-.9.2-1.9.3-2.9.2-1.4.8-2.7,1.4-4,.2-.4.4-.9.7-1.3,0,0,.2,0,.2,0h0Z" fill="#fff"/><path d="M233.7,18.4c-.1,2.3-.8,4.1-2,5.8-.6,1.2-1.9,2.1-2.3,3.4-.2.7-.1,1.4-.2,2.1-.3,1.4-1.1,2.5-1.9,3.6,0,0,0,0,0,0-.4-.4-.3-.8-.4-1.2,0-1.1.1-2.2.7-3.1.4-.6,1-1.1,1.3-1.7.9-1.9.7-4.1,1.8-6,.7-1.2,1.6-2.3,2.9-3.1,0,0,.2,0,.2.1h0Z" fill="#fff"/><path d="M246.4,25.8c1.4,3.4.8,7-.3,10.3-1,3-2.2,7.2-3.8,9.7.6-3.3,1.6-6.7,2.1-10.1.4-3.4.8-6.6,1.8-9.9,0-.1.2-.1.2,0h0Z" fill="#fff"/><path d="M236.9,16.7c.2,5.3-3,9.8-4.9,14.5-.6,1.5-1.6,3-1.7,4.6,0,.1,0,.3-.2.2-.4-.9,0-1.8.2-2.7.4-1.7,1.6-5.7,2.2-7.4.9-3.4,2.1-6.5,4.3-9.3,0,0,.2,0,.2,0h0Z" fill="#fff"/><path d="M246.3,21.7c.4,1.2.4,2.5-.1,3.6-.8,1-1.5,1.9-1.4,3.2,0,2.5-.9,4.8-3.1,6.2,0,0-.2,0-.2,0-.1-1.3,0-2.5.4-3.6.4-1.1,1-2.1,1.7-3,.4-.5.7-1,.8-1.6.1-.6,0-1.2,0-1.8,0-.6.3-1.1.5-1.6.3-.5.6-1,1.2-1.5,0,0,.2,0,.2,0h0Z" fill="#fff"/><path d="M239.5,17.3c.3,1.3.1,2.5-.5,3.5-.3.5-.9.9-1.2,1.4-.3.5-.4,1.1-.4,1.7,0,1.2-.2,2.3-.6,3.4-.5,1.1-1.2,2.1-2,3,0,0-.1,0-.1,0-.8-1.8-.3-3.7.6-5.4.5-1.1,1.6-1.8,1.9-3,.1-.6,0-1.2,0-1.8,0-.6.4-1.1.7-1.6.3-.5.7-.9,1.3-1.3,0,0,.2,0,.2,0h0Z" fill="#fff"/><path d="M223.1,25.2c-.4,1.8-1.1,3.3-2,4.8-1.1,1.3-2.5,2.6-2.8,4.3-.2.8-.4,2.4-.4,2.9-.2,3-.8,5.8-1.4,8.8,0,0-.2,0-.2,0-1.5-2.7-1.5-6-.4-8.9,0,0,0,.5,0,.5-.1-1.4.9-2.6,1.6-3.7,1.4-1.9,1.2-4.6,2.8-6.5.7-.9,1.6-1.8,2.6-2.5,0,0,.2.1.2.1h0Z" fill="#fff"/><path d="M221.3,24.7c-.6,2.3-1.6,4-3,5.7,0,0-3.7,5.4-3.7,5.4,0,0-.2,0-.2,0,.7-2.1,1.4-4.2,2.4-6.2.8-2.1,2.1-4.3,4.5-5,0,0,.1.2.1.2h0Z" fill="#fff"/><path d="M227.5,24.4c-.6,1.9-1.3,3.2-2.6,4.6-.9,1.4-2.2,2.8-2.6,4.4,0,0-.2.2-.2.2-.2-.3-.1-.5-.2-.8.2-1.6.7-3.2,1.4-4.7.6-1.9,1.8-3.7,4.1-3.8,0,0,.1.2.1.2h0Z" fill="#fff"/><path d="M241.8,17.7c.5,3.1-.3,6-1.7,8.7-1.2,2.7-2.5,5.3-4.1,7.8h-.2c1-2.8,1.9-5.6,2.6-8.4.6-2.9,1.4-5.6,3.2-8.1,0,0,.2,0,.2,0h0Z" fill="#fff"/><path d="M244.3,20.8c.5,1.6.1,2.8-.7,4.1,0,0-.9,1.9-.9,1.9l-.9,1.9h-.2c0-.8,0-1.5,0-2.2.2-1.2.2-3.1.7-4.2.4-.6.9-1.2,1.8-1.6,0,0,.2.1.2.1h0Z" fill="#fff"/><path d="M235.6,150.6c-1.9-.7-3.5-1.9-4.7-3.5-.5-.8-.9-1.8-1.5-2.6-1.1-1.6-2.9-2.7-4-4.2-1.3-1.5-2.3-3.2-2.8-5.2-.3-1-.5-2-.3-3.1,0,0,.2,0,.2,0,1.7,2.4,3.3,4.5,4.6,7,1,1.6,1.5,3.6,2.9,5,.7.7,1.6,1.2,2.3,1.8,1.1.9,1.9,2.1,2.7,3.3.3.4.5.8.7,1.3,0,0-.1.2-.1.2h0Z" fill="#fff"/><path d="M255.8,144.8c-1.8-1.3-3-2.8-3.9-4.7-.7-1.2-.8-2.7-1.7-3.7-.5-.5-1.1-.8-1.7-1.3-1-.9-1.6-2.3-2.1-3.5,0,0,0,0,0,0,.5,0,.9.1,1.2.3.9.5,1.8,1.3,2.3,2.2.3.6.4,1.4.8,2,1.1,1.7,3.1,2.7,4.1,4.7.6,1.2,1.1,2.6,1.1,4.1,0,0-.1.2-.2.1h0Z" fill="#fff"/><path d="M242.8,151.8c-3.6-.5-6.4-2.9-8.7-5.6-2.1-2.4-5-5.6-6.3-8.3,2.5,2.2,4.9,4.9,7.5,7,2.8,2.1,5.2,4.1,7.5,6.7,0,0,0,.2-.1.2h0Z" fill="#fff"/><path d="M255.6,148.5c-3.1-1.8-5.2-4.6-6.9-7.5,0,0-2.8-4.2-2.8-4.2-1-1.3-1.7-2.9-3-3.9-.1,0-.2-.2,0-.2.9.1,1.5,1,2.2,1.6,1.3,1.2,4,4.4,5.2,5.7,2.4,2.5,4.4,5.2,5.7,8.5,0,0,0,.2-.2.1h0Z" fill="#fff"/><path d="M246.4,153.9c-1.3-.3-2.3-.9-3-2-.4-1.2-.8-2.3-2-2.9-2.1-1.3-3.7-3.3-3.7-5.9,0,0,.1-.2.2-.1,1.2.6,2.1,1.3,2.8,2.2.7.9,1.3,1.9,1.6,3,.2.6.5,1.1.9,1.5.4.4,1.1.6,1.6.9.5.3.8.8,1.1,1.3.3.5.5,1.1.6,1.8,0,0,0,.2-.2.2h0Z" fill="#fff"/><path d="M253.7,150.4c-1.2-.4-2.2-1.2-2.7-2.3-.2-.5-.3-1.2-.6-1.7-.3-.5-.7-.9-1.3-1.2-1-.6-1.9-1.4-2.6-2.3-.7-.9-1.1-2.1-1.5-3.3,0,0,0-.1,0-.1,2,.3,3.3,1.7,4.3,3.3.7.9.7,2.4,1.6,3.2.4.4,1,.7,1.5,1,.5.4.7.9,1,1.4.2.5.4,1.1.4,1.8,0,0,0,.2-.2.1h0Z" fill="#fff"/><path d="M258.5,136.1c-1.3-1.3-2.2-2.7-3-4.3-.6-1.6-.9-3.5-2.3-4.6-.7-.7-1.5-1.4-2.3-1.9-2-1.5-4.6-3.7-6.7-5.7,0,0,0-.2,0-.2,3.1.1,5.9,1.9,7.8,4.3,0,0-.4-.3-.4-.3,1.3.6,1.7,2.2,2.3,3.3.9,2.2,3.3,3.5,4,5.8.4,1.1.7,2.3.7,3.5h-.2Z" fill="#fff"/><path d="M259.1,131.2c-1.6-1.7-2.6-3.4-3.3-5.6,0,0-2.7-6-2.7-6,0,0,.2-.1.2-.1,1.5,1.7,2.8,3.4,4.1,5.3,1.4,1.8,2.6,4.1,1.9,6.4,0,0-.2,0-.2,0h0Z" fill="#fff"/><path d="M256.5,140.4c-1.3-1.5-2-2.8-2.5-4.6-.7-1.5-1.3-3.3-2.4-4.6,0,0,0-.2,0-.2.4,0,.5.2.8.3,1.3,1,2.3,2.3,3.3,3.6,1.3,1.5,2.2,3.5,1.2,5.5,0,0-.2,0-.2,0h0Z" fill="#fff"/><path d="M252.1,152.1c-2.9-1.1-4.9-3.4-6.5-6-1.7-2.4-3.3-4.9-4.5-7.6h.2c1.8,2.2,3.7,4.4,5.7,6.5,2.2,2,4.1,4.1,5.3,6.9,0,0-.2.2-.2.2h0Z" fill="#fff"/><path d="M248.2,152.6c-1.6-.4-2.4-1.3-3.1-2.7,0,0-1.1-1.7-1.1-1.7l-1.1-1.8.2-.2c.6.4,1.2.8,1.8,1.2,1,.8,2.6,1.8,3.2,2.8.3.7.6,1.4.4,2.3h-.2Z" fill="#fff"/><path d="M174.9,21.8c1.8.9,3.3,2.3,4.2,4,.4.9.7,1.9,1.1,2.7.9,1.7,2.5,3,3.5,4.7,1.1,1.6,1.9,3.5,2.2,5.5.1,1,.2,2,0,3.1,0,0-.2,0-.2,0-1.4-2.6-2.8-4.8-3.8-7.5-.8-1.7-1.1-3.7-2.2-5.3-.6-.8-1.4-1.4-2.1-2-1-1-1.7-2.3-2.3-3.6-.2-.4-.4-.9-.6-1.4l.2-.2h0Z" fill="#fff"/><path d="M157.5,45.6c1.9,1.2,3.2,2.6,4.2,4.5.7,1.1.9,2.7,1.9,3.6.5.5,1.2.8,1.7,1.2,1.1.9,1.7,2.2,2.3,3.4,0,0,0,0,0,0-.5.1-.9,0-1.3-.2-1-.5-1.9-1.1-2.4-2.1-.3-.6-.5-1.4-.9-1.9-1.2-1.6-3.3-2.5-4.4-4.4-.7-1.2-1.3-2.5-1.4-4,0,0,.1-.2.2-.1h0Z" fill="#fff"/><path d="M166.9,23c3.4,1.4,5.5,4.4,7.1,7.6,1.4,2.8,3.5,6.6,4.1,9.6-1.9-2.7-3.6-5.9-5.6-8.6-2.2-2.7-4-5.2-5.7-8.3,0,0,0-.2.1-.2h0Z" fill="#fff"/><path d="M158.4,41.4c3.2,1.6,5.4,4.2,7.4,7.1,0,0,3.1,4.1,3.1,4.1,1,1.2,1.9,2.8,3.3,3.7.1,0,.2.2,0,.2-.9,0-1.5-.9-2.2-1.4-1.3-1.1-4.3-4.1-5.5-5.4-2.6-2.4-4.7-4.9-6.2-8.1,0,0,0-.2.2-.2h0Z" fill="#fff"/><path d="M165.2,26.3c1.2.4,2.2,1.1,2.8,2.2.3,1.2.6,2.3,1.8,3,2,1.4,3.4,3.6,3.2,6.2,0,0-.1.2-.2.1-1.2-.7-2-1.5-2.6-2.4-.6-1-1.1-2-1.4-3.2-.2-.6-.4-1.1-.8-1.5-.4-.4-1-.7-1.5-1-.5-.4-.7-.9-1-1.4-.2-.5-.5-1.1-.5-1.8,0,0,0-.2.2-.1h0Z" fill="#fff"/><path d="M161.4,38.3c1.3.3,2.2,1,2.9,2.1.3.5.4,1.2.7,1.7.3.5.8.8,1.3,1.1,1.1.6,1.9,1.3,2.7,2.2.7.9,1.3,2,1.7,3.2,0,0,0,.1,0,.1-2-.1-3.4-1.5-4.5-3-.7-.9-.9-2.3-1.8-3.1-.4-.4-1.1-.6-1.6-.9-.5-.3-.8-.8-1.1-1.4-.3-.5-.5-1.1-.5-1.8,0,0,0-.2.2-.1h0Z" fill="#fff"/><path d="M155.3,54.6c1.4,1.2,2.4,2.5,3.3,4.1.7,1.6,1.1,3.4,2.5,4.5.6.6,2,1.5,2.4,1.7,2.6,1.6,4.7,3.4,7.1,5.4,0,0,0,.2,0,.2-3.1,0-6-1.5-8-3.8,0,0,.4.2.4.2-1.3-.6-1.8-2-2.5-3.2-1-2.2-3.5-3.3-4.4-5.5-.5-1.1-.9-2.2-.9-3.5h.2Z" fill="#fff"/><path d="M170.5,20.7c3.6,1,4.4,5.1,5.8,8.1.4,1,.8,2.1,1.1,3.2h-.2c0,0-3.7-5.3-3.7-5.3-1.5-1.7-2.5-3.4-3.1-5.7,0,0,.1-.2.1-.2h0Z" fill="#fff"/><path d="M156.7,49.8c1.4,1.4,2.2,2.6,2.8,4.4.8,1.5,1.5,3.2,2.7,4.4,0,0,0,.2,0,.2-.4,0-.5-.1-.8-.2-1.4-.9-2.5-2.1-3.5-3.4-1.3-1.4-2.4-3.3-1.5-5.4,0,0,.2,0,.2,0h0Z" fill="#fff"/><path d="M181.6,26.2c3.2.7,4,3.9,5.1,6.6.3.9.6,1.8.7,2.7h-.2c-.9-1.5-2-3-3.1-4.4-1.4-1.4-2.3-2.7-2.6-4.8,0,0,.2-.2.2-.2h0Z" fill="#fff"/><path d="M162.2,35.4c3.2-.1,5,2.7,6.7,4.9.5.8,1,1.6,1.4,2.4h-.2c-1.3-1.1-2.7-2.3-4.2-3.3-1.7-1-3-1.9-3.8-3.9,0,0,.1-.2.1-.2h0Z" fill="#fff"/><path d="M163.9,30.9c1.7.3,2.5,1.2,3.3,2.5,0,0,1.2,1.7,1.2,1.7l1.2,1.7s-.1.2-.1.2c-.6-.3-1.2-.7-1.8-1.1-1-.8-2.7-1.6-3.4-2.6-.4-.6-.6-1.4-.6-2.3h.2Z" fill="#fff"/><path d="M205.2,81.4c-3.9.4-7.3-1-10.5-2.9-3.4-1.3-7.2-1.7-10.4-3.5-2.2-1.1-4.2-2.5-6-4.3,0,0,0-.2.1-.2,3.6.8,6.9,2.2,10.1,3.9,2.2,1,4.1,2.7,6.4,3.3,3.6.6,7.1,1.3,10.3,3.4,0,0,0,.2,0,.2h0Z" fill="#fff"/><path d="M207.8,81c-2.3-.5-4.4-1.5-6.4-2.8-2-1.2-3.4-3.1-5.1-4.7-2.2-2.1-5-3.6-7.2-5.7-3.5-3-6.5-6.6-8.6-10.7,0-.1,0-.2.2-.1,3.7,2.8,6.9,5.9,9.9,9.3,2.1,2.2,3.7,4.8,6.2,6.6,3.3,2.1,6.3,3.8,9.3,6.3.6.5,1.2.9,1.8,1.5,0,0,0,.2-.1.2h0Z" fill="#fff"/><path d="M207.8,80.4c-2.8-1.9-4.1-4.7-5.1-7.7-1.5-2.7-4-4.8-5.2-7.7-.8-1.9-1.5-3.9-1.5-6.1,0-.1.1-.2.2,0,2.1,2.4,3.6,5,4.7,7.9.9,1.8,1.2,4,2.4,5.7.6.8,1.4,1.5,2.1,2.3,1.3,1.7,2.2,3.5,2.6,5.6,0,.1-.1.2-.2.1h0Z" fill="#fff"/><path d="M207.2,80.9c-4,.3-7.8-1.7-11.1-3.8-3.3-2-6.6-4.2-9.7-6.6,0,0,.1-.2.1-.2,3.5,1.8,6.9,3.5,10.4,5.2,3.6,1.4,6.9,3.2,10.3,5.2,0,0,0,.2,0,.2h0Z" fill="#fff"/><path d="M206.1,79.6c-2.4-1.2-4-2.8-5.5-4.8,0,0-2.4-2.7-2.4-2.7l-2.5-2.7v-.2c1.2.6,2.2,1.4,3.2,2.1,2.9,2.3,6.6,4.3,7.4,8.3,0,0-.2.1-.2.1h0Z" fill="#fff"/><path d="M218.1,78.9c2.3-3.1,5.2-4.9,8.4-6.8,1.9-1.5,3.1-3.7,4.8-5.4,2.4-2.8,4.9-5.2,8-7.3,0,0,.2,0,.2.1-1,2.3-2.5,4.3-4.1,6.1-2.4,2.8-5.8,4.5-8.5,7-2.4,2.9-5,5.4-8.8,6.5-.1,0-.2-.1-.1-.2h0Z" fill="#fff"/><path d="M215.9,79.1c1.9-4.3,4.4-7.8,7-11.6,1.5-2.6,1.9-5.7,3-8.6,1.4-4.4,3-8.5,5.2-12.5,0-.1.2,0,.2,0-.2,4.7-1.5,9.1-3.5,13.3-1.2,2.8-3.1,5.3-4.3,8.1-.9,2.1-1.4,4.4-2.7,6.3-.4.6-.9,1.4-1.3,1.9-1,1.2-2.1,2.3-3.4,3.2,0,0-.2,0-.2-.1h0Z" fill="#fff"/><path d="M215.4,79.4c-.7-2-.8-4.1-.6-6.1.2-1,.5-2,.6-3.1.2-2.1-.7-4.1-.9-6.1-.5-3.1-.5-6,0-9.2,0-.1.2-.1.2,0,1.1,1.9,1.5,4,1.8,6,.5,3.1-.5,6.2-.5,9.3.7,3.1.9,6.2-.5,9.2,0,0-.2,0-.2,0h0Z" fill="#fff"/><path d="M217.5,78.7c1.3-3,3.4-5.3,5.8-7.4,0,0,3.4-3.3,3.4-3.3,1.2-1.1,2.3-2.2,3.4-3.2,0,0,.2.1.2.1-1.5,2.2-3.9,5.4-5.6,7.5-1.8,2.6-3.9,5-7,6.4,0,0-.2-.2-.2-.2h0Z" fill="#fff"/><path d="M216.2,78.2c-.3-2.7.3-5,1.2-7.5.7-2.4,1.4-4.9,2-7.3,0,0,.2,0,.2,0,0,2.6-.2,5.1-.5,7.7-.2,2.6-.8,5.2-2.8,7.2,0,0-.2,0-.2,0h0Z" fill="#fff"/><path d="M225.3,88.6c3.7.7,6.7,2.7,9.7,4.7,2.1,1.1,4.7,1.3,6.9,2,3.5,1,6.8,2.3,10,4.2,0,0,0,.2,0,.2-2.5,0-4.9-.4-7.3-1.1-3.6-1-6.5-3.3-9.9-4.7-2.3-.7-4.8-1.2-6.8-2.7-1-.7-2-1.5-2.8-2.5,0,0,0-.2.1-.2h0Z" fill="#fff"/><path d="M223.2,86.5c4.6.1,8.9,1.1,13.4,2.1,3,.4,6-.4,9-.5,4.6-.4,9-.4,13.6.1.1,0,.1.2,0,.2-4.4,1.5-9,2-13.6,1.8-3.1,0-6.1-.9-9.1-.9-2.3,0-4.6.4-6.9-.1-.7-.1-1.6-.3-2.2-.5-1.5-.4-2.9-1.1-4.3-1.9,0,0,0-.2,0-.2h0Z" fill="#fff"/><path d="M222.9,86.6c1.7-1.2,3.6-2,5.7-2.4,1-.2,2.1,0,3.1-.3,2-.4,3.7-1.9,5.6-2.6,2.8-1.4,5.6-2.3,8.8-2.7.1,0,.2.1.1.2-1.5,1.6-3.3,2.6-5.2,3.5-2.8,1.4-6.1,1.3-9,2.3-2.7,1.6-5.6,2.7-8.9,2.3-.1,0-.1-.2,0-.2h0Z" fill="#fff"/><path d="M223,87.4c5.8.7,11.2,2.6,16.9,3.7,1.9.4,3.8.8,5.7,1.2v.2c-5.9-.3-11.8-.6-17.5-2.1-1.9-.7-3.8-1.5-5.2-2.9,0,0,.1-.2.1-.2h0Z" fill="#fff"/><path d="M224.5,86.9c2.4-1.3,4.8-1.6,7.4-1.6,2.5-.2,5-.5,7.5-.8,0,0,0,.2,0,.2-2.4,1-4.8,1.7-7.3,2.4-2.5.8-5.1,1.2-7.7,0,0,0,0-.2,0-.2h0Z" fill="#fff"/><path d="M216.5,96.8c3.8,1,6.4,3.5,8.7,6.5,2.7,2.4,6.1,4.2,8.4,7,1.6,1.8,3,3.8,4,6.2,0,.1,0,.2-.2.1-3.1-2.1-5.6-4.5-8-7.3-1.6-1.8-2.8-4-4.8-5.4-3.2-1.9-6.1-3.8-8.4-6.8,0,0,0-.2.1-.2h0Z" fill="#fff"/><path d="M214.5,96.9c1.8,1.5,3.3,3.3,4.4,5.3,1.3,2,1.6,4.3,2.4,6.5,1,2.9,2.8,5.4,3.9,8.3,1.7,4.3,2.8,8.8,2.8,13.4,0,.1-.2.2-.2,0-2-4.2-3.5-8.4-4.6-12.8-.9-2.9-1.2-6-2.5-8.7-2.4-3.9-4.7-7.6-6.3-12,0-.1,0-.2.2-.1h0Z" fill="#fff"/><path d="M215.6,96.9c3.8,1.6,6.2,5.1,8.1,8.5,2,3.3,3.9,6.8,5.6,10.3,0,0-.2.1-.2.1-2.3-3.2-4.5-6.3-6.9-9.4-2.6-3-4.7-6-6.8-9.4,0,0,.1-.2.1-.2h0Z" fill="#fff"/><path d="M215.2,98.4c2.8,3.1,2.4,7.3,2.6,11.1,0,1.3,0,2.6,0,3.8,0,0-.2,0-.2,0-.5-2.5-1.1-5-1.7-7.4-.8-2.5-1.3-4.8-.9-7.5,0,0,.2,0,.2,0h0Z" fill="#fff"/><path d="M219.4,83.2c2.6.3.3,2.6.8,3.2s1.1.7,1.3,1.4.5.9-.7,2.1-1.1,0-1.6.8c-.5.8-.4,1.5-1,2.1-.6.6-.6.9-1.3.7s-1-.5-1.3,0c-.3.5-1.1.4-1.8.4-.7,0-1.7.5-2.3.1s0-.9-1-.4-1.4,1-2,0c-.6-1-.8-1.2-.5-1.9.3-.7-.2-1.2,0-2.2.2-1.1-1.1-1.1-1-2.1.2-1,.8-2.3,1.4-2.1s.6-.5,1.4-1.2c.8-.7,1.3-2.4,1.8-2,.5.4,1,.5,1.7.2.7-.3.9-1.1,1.6-1.1s2,.8,2,1.4c0,.6,2.4.7,2.4.7Z" fill="none" stroke="#fff" stroke-miterlimit="10" stroke-width="1"/><path d="M210.1,91.7c-2-.2-.3-1.9-.7-2.4-.4-.5-.8-.5-1-1s-.4-.7.4-1.6c.9-.9.8,0,1.2-.6.4-.7.3-1.2.7-1.6s.4-.7,1-.6.8.4,1,0c.2-.4.8-.3,1.3-.4.6,0,1.3-.5,1.7-.2s0,.7.8.3,1-.8,1.5,0c.5.7.7.8.5,1.4s.2.9,0,1.7c-.1.8.9.8.8,1.6s-.5,1.8-1,1.7c-.5-.1-.5.4-1,.9s-.9,1.9-1.3,1.6c-.4-.3-.8-.4-1.3-.1s-.6.9-1.2.9-1.5-.5-1.6-.9c0-.4-1.8-.4-1.8-.4Z" fill="none" stroke="#fff" stroke-miterlimit="10" stroke-width=".8"/><path d="M217.4,86.5c1.2.6-.3,1.3-.2,1.7s.4.6.4.9,0,.6-.7.9-.5-.2-.9,0-.5.7-.9.8-.5.3-.8.1-.4-.4-.6-.2-.6,0-1-.1c-.4-.1-1,0-1.2-.4s.2-.5-.4-.4c-.6,0-.9.2-1-.4-.1-.6-.2-.7.1-1s.1-.6.4-1.1c.3-.5-.3-.8,0-1.2s.9-1,1.1-.8c.3.2.4-.1.9-.3s1.1-1,1.3-.6.4.4.8.4.6-.4,1-.2.9.8.7,1,1.1.8,1.1.8Z" fill="none" stroke="#fff" stroke-miterlimit="10" stroke-width=".6"/><path d="M100.3,87.6s8.9,5.7,11.3,11.8c0,0,7.3,7.3,1,23.3-1.6,4-2.6,5.6-3.6,5.6s-1.9-1.2-3.3-2.9c0,0-8.3-10.4-8.2-13.7.1-3.2,1.7-5.3,2.3-7.4.6-2.2-1.4-3.7-.7-6.9s3.2-4.7,1.3-9.8M96,82.3l2.3,6.1c1,2.8.5,3.9-.3,5.7-.4.8-.8,1.7-1.1,2.9-.5,2.3,0,4,.4,5.2.3.9.4,1.2.3,1.6-.2.6-.5,1.2-.8,1.9-.7,1.6-1.5,3.5-1.6,6-.1,3.6,6,11.8,8.7,15.1,1.6,2,3,3.8,5,3.8s4.1-3,5.7-7c6.1-15.3.4-23.5-1.1-25.3-2.8-6.5-11.7-12.2-12-12.5l-5.5-3.5h0Z" fill="#fff"/><path d="M110.4,125.7c.1-12.2-2.6-24.6-9.8-34.6,0,0,0,0,0,0,7.1,9.3,12.6,23.2,9.7,34.7h0Z" fill="#fff"/><path d="M109.9,127.6c-.5-2.6-.5-5.1-.7-7.7-.9-4.2-2.9-8.1-3.7-12.3,0,0,0,0,.1,0,2.6,3.6,3.3,8,3.9,12.3,0,0,.7,2.5.7,2.5.3,1.7.2,3.5-.2,5.2,0,0-.1,0-.1,0h0Z" fill="#fff"/><path d="M109.9,127.7c-2.3-9-5.6-17.7-10.6-25.5,0,0,0,0,0,0,2.8,3.8,5.2,7.8,7.2,12,1.9,4.1,3.8,9.1,3.3,13.6h0Z" fill="#fff"/><path d="M109.1,128.2c-1.5-3.3-2.1-7-4.3-9.8-2.2-2.8-4.5-5.7-6.4-8.7,0,0,0-.1,0,0,3.8,2.7,6,6.8,8.1,10.9,1.6,2.2,2.9,4.9,2.7,7.7,0,0,0,0-.1,0h0Z" fill="#fff"/><path d="M108.2,127.9c-1-1.5-1.6-3-2.2-4.7-1.7-2.4-4.1-4.1-5.4-6.8,0,0,0-.1,0,0,1.1.6,2,1.4,2.8,2.2,1.2,1.3,1.9,3,2.8,4.5,1.2,1.3,2.3,2.9,2.1,4.8,0,0,0,0-.1,0h0Z" fill="#fff"/><path d="M86.9,118.8c2,0,11.9,4.1,13.4,5.2,1.7,1.4,4.7,5,5.5,7.5.8,2.5,1.6,6.9,1.6,6.9l-6-.6c-13.3-4.1-13-8.5-13.7-11.3s.2-5.5-1.1-7.4c-.2-.3,0-.4.3-.4M86.9,116.6h0c-1.5,0-2.1.9-2.3,1.3-.4.8-.3,1.8.3,2.6.4.5.4,1.5.4,2.7,0,1.2,0,2.5.4,3.9,0,.2.1.5.2.7.8,4.1,2.7,8.4,15,12.1h.2c0,0,.2,0,.2,0l6,.6,2.9.3-.5-2.9c0-.2-.9-4.6-1.7-7.2-1-3-4.3-7-6.3-8.5-1.8-1.4-12.1-5.7-14.7-5.7h0Z" fill="#fff"/><path d="M107.3,138.4c-5.5-1.1-11.6-3.5-14-9-.9-2.3-1.5-4-3.3-5.8-.7-.9-1.5-1.7-2.3-2.5,0,0,0,0,0,0,.9.7,1.7,1.5,2.5,2.3.8.8,1.6,1.6,2.3,2.6.6,1,.9,2.1,1.5,3.1,2.6,5.2,9,6.5,13.3,9.4h0Z" fill="#fff"/><path d="M106.9,138.3c-1.4-.5-2.7-1.3-3.8-2.3-1.1-1-2-2.2-3.2-3.1-2.4-1.7-5.3-3.7-5.4-7,0,0,.1,0,.1,0,1.8,2.4,3.7,4.4,5.6,6.6,1,1.2,2.3,1.8,3.6,2.6,1.2.9,2.3,1.8,3.3,3h0Z" fill="#fff"/><path d="M107.8,138.8c-2.7-1.4-4.5-3.8-6.2-6.1-1.7-2.3-3.4-4.7-5-7.2h0c.9,1,1.9,2.2,2.8,3.2,1.8,2.2,3.9,4.3,5.7,6.5,0,0,2.7,3.4,2.7,3.4h0Z" fill="#fff"/><path d="M106.6,137.7c-.6-1.4-.8-2.4-.9-3.8-.2-.9-1-1.5-1.4-2.3-.7-1.1-1.2-2.3-1.4-3.8,0,0,.1,0,.1,0,.8.6,1.3,1.3,1.8,2.1.7,1.2.8,2.6,1.3,3.9.5.8,1.1,1.5,1,2.5,0,.5,0,1-.4,1.4h-.1Z" fill="#fff"/><path d="M107.6,138.4c-1-.7-1.8-1.7-2.4-2.7-.5-1.1-.9-2.3-1.8-3.2-1.7-1.7-3-4-3-6.6,0,0,.1,0,.1,0,1.6,1.9,2.2,4.2,3.3,6.4.5,1.2,1.4,2,2.2,2.9.7,1,1.3,2,1.7,3.2h0Z" fill="#fff"/><path d="M106.7,138.3c-2.1.6-4.4,0-6.3-.9-1.9-.9-3.8-1.9-5.5-3.1,0,0,0-.1,0-.1,1.9.9,3.8,1.7,5.8,2.3,2,.5,3.9,1,5.9,1.7,0,0,0,.1,0,.1h0Z" fill="#fff"/><path d="M94.1,353.7c.1,0,.3,0,.4,0,3.8.3,11.4,2.7,14.8,5.4,3.5,2.7,8.8,8.2,8.8,8.2l-9.1,4.8c-7.1,2.1-12.4,2.9-16.3,2.9-8.7,0-11.2-3.8-13.6-6-3.6-3.2-4.8-8-8.5-9.3-3.6-1.3,18.8-5.9,23.5-5.9M94.1,351.5h0c-2.7,0-9.1,1.1-13.9,2.2-2.9.6-5.5,1.3-7.4,1.9-2.9.9-4.5,1.7-4.7,3.3-.2,1,.3,2.3,1.8,2.8,1.5.6,2.6,2.2,3.9,4.1,1.1,1.6,2.2,3.3,3.9,4.8.3.3.6.6.9.9,2.3,2.3,5.8,5.7,14.2,5.7s10.1-1,16.9-3h.2c0,0,.2-.2.2-.2l9.1-4.8,2.6-1.4-2-2.1c-.2-.2-5.5-5.6-9-8.4-4-3.1-12.2-5.6-16-5.9-.2,0-.3,0-.5,0h0Z" fill="#fff"/><path d="M117.7,367.5c-8.9,3.6-19.6,5.9-28.3.5-1.7-.9-3.1-2.3-4.7-3.2-1.6-.9-3.5-1.4-5.3-1.9-1.8-.5-3.7-1-5.6-1.4v-.2c1.9.2,3.8.6,5.7,1,1.9.4,3.8.7,5.6,1.6,1.8.8,3.2,2.1,4.9,3,5,2.8,10.6,2.8,16.2,2,3.8-.4,7.5-1,11.4-1.4v.2h0Z" fill="#fff"/><path d="M117,367.7c-2.5.6-5.1.7-7.6.4-2.5-.5-4.9-1.3-7.5-1.3-5,0-11-.3-14.2-4.8,0,0,.1-.2.1-.2,3.8,1.2,6.9,2.2,10.5,3.1,2.4.6,4.8,1.6,7.3,1.5,3.8-.3,7.5,0,11.2,1.1,0,0,0,.2,0,.2h0Z" fill="#fff"/><path d="M118.9,367.6c-5,.6-10-1.1-14.6-2.8-4.7-1.7-9.3-3.5-13.8-5.4,0,0,0-.2,0-.2,4.2,1.2,10.1,2.9,14.2,4.1,4.8,1.1,9.4,2.6,14.1,4.2,0,0,0,.2,0,.2h0Z" fill="#fff"/><path d="M116.1,367.2c-1.3-1-2.4-1.6-3.4-2.7-.5-.6-.9-1.3-1.5-1.8-1.1-1-2.8-1.2-4.1-1.9-2.1-.9-3.9-2.2-5.5-4,0,0,0-.2,0-.2,1.7,0,3.1.6,4.5,1.2,2.1,1,3.5,3,5.4,4.3,1.4.6,3,1.2,3.9,2.6.5.7.8,1.5.8,2.4h-.2Z" fill="#fff"/><path d="M118.2,367.3c-2.2,0-4.2-.7-6-1.6-1.8-1-3.4-2.4-5.5-2.9-3-.7-6.1-1.8-8.4-4.1-.7-.7-1.5-1.5-2.1-2.4v-.2c5.1,1.3,8.7,5.5,13.6,7.2,3.1.6,5.9,1.7,8.4,3.8,0,0,0,.2,0,.2h0Z" fill="#fff"/><path d="M116.8,367.9c-2.4,2.9-6.1,4.1-9.7,4.6-3.6.6-7.1.9-10.7.7,0,0,0-.2,0-.2,3.5-.5,7-1.2,10.4-2.1,3.4-1.2,6.5-2.3,10-3.2,0,0,.1.2.1.2h0Z" fill="#fff"/><path d="M84.6,253.4c4.5,3.4,2.5,11.4,6.1,14.9,2.3,2.9,7.3,5.1,9.1,9.2,1.9,4.5,2.4,31.4,2.7,35.7.9,5.5,10.6,23.1,12,34.2,2.8,5.9,7.7,13,12.9,17,2.5,1.2,6.3,3.5,7.9,6.1,5.9,8.5,23.2,12.8,33.8,14.4l14.2,6.2-1.9,2.9-14.8-5.3c-10.9-3.5-25.5-8.6-33.4-16.3-2.2-2.4-4.3-2.9-7.6-4.2-7.7-4.8-12.7-11.3-16.5-19.3-1.9-7.9-8-27.9-9.8-35.6-.8-4.7-1.4-10.3.2-17.6.5-2.9-.8-10.6-1-13.3-.2-5.6-6.7-5.8-11.1-11.2-2.1-2.6-2.5-6.2-2.3-9.4.2-3,.7-5.5-.6-8.1l.3-.3M85.9,251.7h-2.7c0,0-.3.4-.3.4l-.5,2.6c.8,1.6.7,3.2.5,5.4,0,.5,0,1.1-.1,1.7-.2,4.6.7,8.2,2.8,10.8,2.1,2.5,4.5,4,6.5,5.2,2.8,1.7,4.1,2.6,4.2,4.7h0c0,.8.2,1.9.4,3.1.4,2.9,1,7.8.7,9.7-1.7,7.9-1,14-.2,18.4h0c.9,4.1,3,11.4,5,18.4,1.9,6.7,3.9,13.5,4.8,17.3l.2.4c4.4,9.1,9.9,15.5,17.3,20.1l.3.2c.6.3,1.2.5,1.7.7,2.3.9,3.7,1.5,5.1,3h0c7.9,7.8,21.7,12.9,34.2,16.9l14.8,5.2,2.5-.8,1.9-2.9-.9-3.1-14.2-6.2-.5-.2c-18.9-2.9-29.1-8.9-32.3-13.5-2.1-3.4-6.8-5.9-8.5-6.8-5.1-4-9.6-10.9-11.9-15.8-1-7-4.8-16-8-23.4-1.9-4.4-3.6-8.5-4-10.4,0-.9-.1-2.7-.2-5-.5-13.8-1.1-27.6-2.6-31.3h0c-1.3-3-3.9-5-6.1-6.8-1.3-1-2.5-2-3.2-2.9l-.2-.2c-1.2-1.2-1.6-3.4-2-5.8-.6-3.3-1.2-7-4.3-9.3h0Z" fill="#fff"/></svg>