<?xml version="1.0" encoding="UTF-8"?><svg id="Layer_1" xmlns="http://www.w3.org/2000/svg" width="316.4" height="469.4" viewBox="0 0 316.4 469.4"><path d="M168.6,254.7c1.3,0,2.9,1.5,4.1,1.5s.2,0,.3,0c1-.3,2.3-.7,3.5-.7s.9,0,1.2.2c1.3.7,1.1,3.4,1.1,3.4,0,0,3.6,2.2,4,4,.2,1.3-.6,3.9-.4,5.2,1.6,15.9-4.8,30.6-17.6,30.6s-6.3-.8-9.9-2.5c-12.8-15-3.6-28.1,7.3-35.4,2.4-1.7,3.6-5.1,6-6.2.2,0,.4-.1.6-.1M168.6,251.9c-.6,0-1.2.1-1.7.3-2,.9-3.2,2.5-4.3,4-.7,1-1.4,1.9-2.1,2.4-4.8,3.3-13.2,10.3-14.5,20.3-.9,6.5,1.4,13,6.7,19.3l.4.5.5.3c3.9,1.9,7.6,2.8,11.1,2.8,5.2,0,9.8-2.1,13.3-6,5.5-6.1,8.2-16.5,7-27.7,0-.3.1-1.1.2-1.7.2-1.3.4-2.6.2-3.8-.4-2.1-2.4-3.9-4-5-.2-1.5-.8-3.5-2.6-4.4-.7-.4-1.6-.5-2.5-.5s-2.7.4-3.7.6c-.2,0-.4-.2-.6-.3-.9-.5-2.1-1.1-3.5-1.1h0Z" fill="#fff"/><path d="M155,295.9c-3.2-5.7-1-11.4,2-16.6.8-2.1,1.8-4.3,3.4-6,.8-.9,1.6-1.7,2.6-2.3h.1c-1.7,3.2-3.8,5.7-5.7,8.5-1.6,2.9-2,6.4-2.4,9.7-.2,2.2-.1,4.3,0,6.6,0,0-.1,0-.1,0h0Z" fill="#fff"/><path d="M158.8,298.8c3-2,5.4-4.3,7.7-6.9,1.5-1.8,3.2-3.5,4.2-5.6,1.2-3.3,2.3-6.6,4.1-9.7,0,0,.2,0,.2,0-.1,3.7-1.7,7-3.8,9.9-1.7,3.2-3.1,6.6-5.8,9-1.8,1.6-4,2.9-6.4,3.3h0Z" fill="#fff"/><path d="M166,302.8c2.5.7,5.3,1,8.6-.3,6.7-2.8,8.5-9,8.5-9-3.3,5.2-6.9,8.1-16.3,6.3,0,0-4.5-2.2-10.7-1.9-3.6-4.7-8-6.8-8-6.8-7.4-6.2-7.4-10.8-5.4-16.6,0,0-3.7,5.4-1.6,12.3,1.1,3.7,3.5,5.7,5.8,7.3,2.4,2.7,1,7.3,1.5,11,.2,1.3.9,2.2,1.7,2.9,0,0,0,0,0,0,.4.3,1,.7,1.7,1,.8.3,1.5.5,1.9.6,0,0,0,0,0,0,1.1.2,2.2,0,3.3-.6,3-2,5.5-6,8.9-6.2Z" fill="none" stroke="#fff" stroke-linecap="round" stroke-linejoin="round" stroke-width="2.8"/><path d="M155.7,295.3c-1.3-2-.9-4.4-.1-6.4.6-3.6,1.3-7.3,4-9.9,0,0,.1,0,.1,0-.7,3.6-2.8,6.5-3.7,9.9,0,2.1,0,4.1-.1,6.3,0,0-.1,0-.1,0h0Z" fill="#fff"/><path d="M160.4,297c1.4-1.9,2.8-3.5,4.4-5.2,1.9-3.3,3-7,5.5-10,0,0,.1,0,.1,0-.6,4-3.1,7-5.3,10.1-.8,1.7-1.8,3.5-3.6,4.5-.3.2-.7.4-1.1.5h0Z" fill="#fff"/><path d="M158.2,296.8c1.7-3.5,4.8-5.8,6.5-9.3,0,0,.1,0,.1,0-.6,1.9-1.5,3.6-2.5,5.2-1,1.7-2.2,3.2-4,4.1,0,0,0,0,0,0h0Z" fill="#fff"/><path d="M161.5,284.4c-2.4,3.5-2.9,7.6-4.9,11.3,0,0-.1,0-.1,0-.3-2.2.4-4.2,1.4-6.1.9-1.9,2-3.7,3.5-5.2h0Z" fill="#fff"/><path d="M161.3,288.9c-.6,2-1.4,4.1-2.5,5.9-.5.5-1,1.1-1.7,1.4h-.1c.2-1.6,1-2.7,1.9-3.8.8-1.1,1.6-2.3,2.2-3.5h.1Z" fill="#fff"/><path d="M151.2,291.2c-1.6-1.7-1.7-4.1-1.3-6.3,0-3.6,0-7.4,2.1-10.5,0,0,.1,0,.1,0,0,3.6-1.6,6.9-1.8,10.4.3,2.1.7,4,1,6.2,0,0-.1,0-.1,0h0Z" fill="#fff"/><path d="M153.4,278.8c-1.2,4-.4,8.2-1.2,12.2,0,0-.1,0-.1,0-.9-2-.9-4.2-.5-6.3.3-2.1.8-4.1,1.7-6h.1Z" fill="#fff"/><path d="M153.1,284.2c.5,2.1.8,4.2.7,6.4-.1.7-.3,1.4-.8,2.1,0,0-.1,0-.1,0-.5-1.4-.4-2.8-.1-4.2.1-1.4.2-2.8.2-4.2h.1Z" fill="#fff"/><path d="M166.4,299.2c1.7-1.3,3.4-2.4,5.1-3.7,2.3-2.7,3.5-6.1,6-8.7,0,0,.1,0,.1,0-.6,3.7-3.3,6.4-5.9,9-1.2,1.8-3,3.5-5.3,3.5,0,0,0-.1,0-.1h0Z" fill="#fff"/><path d="M173.8,289c-.8,1.9-2,3.7-3.3,5.3-1.3,1.7-2.9,3.2-5,3.8,0,0,0-.1,0-.1,1.2-1.7,2.7-3,4.3-4.4,1.5-1.4,2.8-3,3.9-4.7,0,0,.1,0,.1,0h0Z" fill="#fff"/><path d="M170.3,292.1c-2.2,1.8-3.5,4.5-6.1,5.7,0,0,0,0,0,0,.4-1.5,1.4-2.5,2.6-3.4,1.1-.9,2.3-1.7,3.5-2.4,0,0,0,.1,0,.1h0Z" fill="#fff"/><path d="M152.4,308c-1-.9-1.9-1.8-2-3.2.2-1.3,1-2.2.8-3.6-.3-1.7-.3-3.3-.9-4.8-.3-.6-.5-1.1-.7-1.7h.1c.7.5,1.1.9,1.7,1.5,1,1.5.9,3.5.5,5.1-.3,1.1-.7,2.4-.4,3.4.2.9.8,2,1,3.2h-.1Z" fill="#fff"/><path d="M158.7,304.5c-.1-1.1.5-1.9,1.5-2.3.8-.5,1.7-.8,2.6-.9v.2c-1.3.9-1.7,1.8-2.6,2.6-.4.2-.7.4-1.4.5h-.1Z" fill="#fff"/><path d="M173.7,254.7c-.5,1.3-1,2.2-1.8,3.2-.7,1.1-1.2,2.3-1.7,3.5,0,0-.2,0-.2,0,0-1.3.3-2.6.7-3.9.3-1.4,1.2-2.8,2.8-2.9,0,0,0,.1,0,.1h0Z" fill="#fff"/><path d="M181.4,257.5c-.4,1.7-1.4,2.9-2.7,3.9-1.2,1.1-2.3,2.2-3.6,3.2h-.1c1.4-2.1,2.6-4.1,4.2-5.9.6-.5,1.3-1,2.1-1.3h.1Z" fill="#fff"/><path d="M149.3,307.6c.9,0,1.8,4.2,1.8,4.2-2.8,8.1-5.9,12.5-13.1,17.1-2.1,2.5-3.5,5.3-4.4,8.3l-1.9-2.5c.7-3,1.8-5.9,3.4-8.6,5.4-5.1,10.5-11.8,13.6-18.1.2-.3.3-.5.5-.5M149.3,304.8h0c-.6,0-2.1.2-3,2-3,5.9-7.9,12.4-13.1,17.3l-.3.3-.2.3c-1.7,2.8-2.9,5.9-3.7,9.4l-.3,1.3.8,1,1.9,2.5,3.3,4.5,1.6-5.3c.8-2.7,2-5,3.6-7,7.2-4.7,10.8-9.6,13.8-18.3l.2-.7-.2-.8c-.7-3.2-1.7-6.4-4.5-6.4h0Z" fill="#fff"/><path d="M233.8,422.8c4.7,4.3,6.3,7.5,13,11.1,5.8,3.1,13.5,7.3,20.1,8,1-.1,2.1-.2,3.3-.2,2.4,0,4.9.3,6.8,1.2,3.1,1.4,6.4,2.8,9.9,3.9l2.1,2.4c-4.4-1.1-8.7-2.5-12.8-3.4-1-.3-2-.4-2.9-.4-1.8,0-3.5.5-6,.9-9.2,0-16.9-3-24.4-8-4.4-4.6-10.6-12.8-10.6-12.8l1.7-2.7M233.2,418.5l-1.8,2.9-1.7,2.7-1,1.6,1.2,1.5c.3.3,6.4,8.4,10.8,13l.2.2.3.2c8.7,5.7,17,8.4,26,8.4h.2s.2,0,.2,0c.7-.1,1.3-.2,1.9-.3,1.4-.3,2.6-.5,3.6-.5.7,0,1.4,0,2.1.3h0s0,0,0,0c2.4.6,4.8,1.2,7.4,1.9,1.8.5,3.6,1,5.4,1.5l8.5,2.2-5.7-6.7-2.1-2.4-.5-.6-.8-.2c-2.8-.9-5.8-2.1-9.5-3.7-2-1-4.7-1.5-8-1.5s-2.2,0-3.3.2c-5.7-.7-12.6-4.3-18.1-7.3l-.6-.3c-4.3-2.3-6.2-4.3-8.6-6.8-1.1-1.2-2.3-2.5-3.9-3.9l-2.5-2.3h0Z" fill="#fff"/><path d="M183.9,131.8c-6,9.9-18.4,9.1-24.4,18.1-2.7,9.1-6,18.3-9.6,27.2-1.6,3-4.9,3.8-6.5,6.1-4,5.5-3.1,13.8-3.8,21.5,0,3.9-2.1,7.4-2.1,11.3-.2,7.8,2.4,15.2,1.4,23.1-3.4,11.1-8.4,21.5-12,32.5-2.1,5.4-2.1,11.3-2,17.2l-3,5.2c-1.6-20.1,9.9-36.8,15.8-55.2,1-7.4-2-15.2-1.8-22.8,0-1.9.2-4.2.8-5.9,1.3-5.5.3-11.3.7-17-.2-5.7,2.5-13.1,7.9-15.9,1.6-1.1,1.8-2.6,2.4-4,2.8-7.4,6.5-16.9,8.8-24.5,3.8-6.1,11.1-9.2,17.6-11.2l4.8-4.5,5-1.1M183.9,129.1c-.2,0-.4,0-.6,0l-5,1.1c-.5.1-.9.3-1.3.7l-4.3,4.1c-6.5,2-14.2,5.3-18.5,12.1-.1.2-.2.4-.3.6-2,6.4-4.9,14.2-7.5,21.1-.4,1.1-.8,2.2-1.2,3.2-.2.4-.3.8-.4,1.1-.3,1-.5,1.4-.9,1.7-6.5,3.4-9.4,11.8-9.2,18.1-.1,2.2,0,4.3,0,6.4,0,3.5.2,6.8-.6,9.9-.7,2-1,4.5-.9,6.8,0,3.6.5,7.1,1.1,10.5.7,4.1,1.3,8,.8,11.7-1.7,5.4-4,10.7-6.2,15.9-5.3,12.5-10.9,25.4-9.6,40.1,0,1.2.9,2.1,2.1,2.4.2,0,.4,0,.6,0,.9,0,1.8-.5,2.3-1.3l3-5.2c.2-.4.4-.9.4-1.4,0-6.2,0-11.4,1.8-16.2,0,0,0,0,0-.1,1.6-5,3.6-10.1,5.6-15,2.3-5.7,4.6-11.5,6.4-17.6,0-.1,0-.3,0-.4.6-4.8,0-9.3-.6-13.7-.5-3.3-.9-6.5-.8-9.7,0,0,0,0,0,0,0-1.6.5-3.2,1-4.9.6-2,1.1-4,1.2-6.2.1-1.8.2-3.7.3-5.5.2-5.6.4-11,3-14.5.4-.6,1.3-1.2,2.2-1.8,1.5-1,3.4-2.3,4.6-4.6,0,0,0-.2.1-.2,3.8-9.3,7-18.4,9.5-27,2.5-3.5,6.4-5.4,10.5-7.3,4.8-2.3,10.3-4.8,13.8-10.6.6-.9.5-2.1-.1-3-.5-.7-1.3-1.1-2.2-1.1h0Z" fill="#fff"/><path d="M128.4,139.4c0,0,.2,0,.2.2,1.4,7.5,2.9,15.1,5.3,22.2,1.7,5.2,6.8,10.3,5.8,16.6-2.1,11-1.7,19.8-2.6,31,0,0,0,0,0,0-.1,0-3.8-1.9-3.8-1.9,1.3-11.6.8-18.2,3.5-29.6.9-5.7-3.4-10-4.9-15.5-2-7.5-2.9-15.1-3.8-22.8,0-.1,0-.2.2-.2M128.4,136.7c-.8,0-1.7.4-2.2,1-.5.6-.8,1.4-.7,2.2v1.2c1,7.2,1.9,14.6,3.8,21.9.6,2.3,1.6,4.3,2.6,6.2,1.4,2.9,2.7,5.4,2.3,8.1-1.9,7.8-2.2,13.4-2.7,19.8-.2,3.1-.4,6.3-.9,10l-.2,1.9,1.7.8q4.3,2.2,5,2.2h2.5l.2-2.5c.3-3.8.5-7.3.6-10.7.3-6.6.5-12.8,1.9-19.9h0c0,0,0-.1,0-.1.8-5.1-1.6-9.4-3.6-13.1-.9-1.7-1.8-3.3-2.3-4.8-2.3-7.1-3.8-14.7-5.2-21.8-.2-1.4-1.4-2.4-2.8-2.4h0Z" fill="#fff"/><path d="M202,400c.8.1,1.4.2,1.9.1,0,0,0-.1,0-.2.2-.5.5-.9.9-1.2-.2-.7,0-1.5.4-2.1-.1-.4-.3-.7-.5-1.1-21-5.4-41.2-19.3-32.4-35.3,1.8-3.2-2.4-10.9,1.2-14,7.8-6.6,15.9.2,22.2,3.3,13.6,6.8,17.1,24.4,13.6,42.1.5,1.3,1,2,1.5,2.4.6-.3,1.3-.3,1.9,0,.7-.5,1.4-1.3,1.7-1.9.3-4.5-.5-9.9,1.8-19.6,1.6-6.8-1.7-15.7,1.8-21.7,4.1-7.1,16.1-13.5,24.2-7.8,2.1,1.4,3.3,6.3,5,7.8,6.2,5.6,9.9,8.2,9.8,14.1,0,6-3.5,11.9-10.5,17.2-6.2,4.7-15.2,9-27.1,12.5-.6.6-1.1,1.2-1.5,1.8.2.8.1,1.7-.4,2.3,0,0,0,0,0,0,0,0,.2,0,.2.1.8.7,1,1.7.8,2.6.5.4,1,.7,1.2.8,12.5-6.7,41.7-24.9,50.5-6.1s7,4.7,7.3,10.5c-.8,7-7.3,9.1-8.9,11.9-5.5,10.2-24.1,7-50.4-11.5-.8-.3-1.4-.4-1.9-.3-.1,0-.2,0-.4.1-.9.3-1.2,1.3-1.3,2.3,4.7,4.6,11.1,11.8,15,19.5,3.9,7.8,6.7,20,.4,26.6-2.9,3-12.8,0-20.1,1.6-8.8,3.2-11.9-.8-16.6-6.1-8.7-9.8-7.7-26,11.4-43,.6-1,.8-1.7.9-2.2-.1-.3-.2-.5-.3-.8-.5-.4-1.6-.3-2.4,0-11.2,8.5-28.4,41.6-53.2,13.2-3.5-4.1,2.1-1.1-10.2-18.8,0-9.6,19.4-16.8,62.4,1.1Z" fill="none" stroke="#fff" stroke-miterlimit="10" stroke-width="3.7"/><path d="M214.8,409.2c-1.4,2.8-3-.6-3.9-.3-.9.3-1.2.9-2.1.9-.8,0-1.2.2-2.1-1.6-.9-1.8.5-1.2-.2-2.1-.7-.9-1.6-1.1-2-1.9s-.8-1-.3-1.8c.5-.7,1-.9.5-1.4-.5-.5,0-1.3.2-2.2s0-2.2.8-2.6,1,.3.9-1c-.1-1.3-.6-2,.7-2.3,1.3-.3,1.6-.5,2.3.2s1.4.2,2.5.9c1.1.7,1.7-.8,2.8-.3,1.1.6,2.3,1.9,1.9,2.4s.3.9.8,2c.4,1.1,2.2,2.3,1.5,2.8-.7.4-1,.9-.9,1.8s.9,1.4.6,2.3-1.6,2-2.3,1.7c-.7-.2-1.6,2.4-1.6,2.4Z" fill="none" stroke="#fff" stroke-miterlimit="10" stroke-width="1.2"/><path d="M213.3,410.3c2.6,2.2,3.8,5.3,4.5,8.5,1.2,3,3.3,5.6,4.1,8.8.6,2.1,1,4.2.9,6.5,0,0-.1.1-.2,0-1.7-2.8-2.8-5.8-3.6-8.9-.6-2-.8-4.3-1.8-6.1-1.8-2.7-3.5-5.4-4.1-8.6,0,0,0-.2.2-.1h0Z" fill="#fff"/><path d="M208.9,409.7c2.3,3.6,2.5,7.7,2.2,11.9,0,2.7.7,5.4.8,8.1.2,4.1-.3,8.1-1.7,12,0,0-.2,0-.2,0-.4-4.1-.4-8,0-12,.1-2.7.8-5.3.5-8-.8-3.9-1.7-7.8-1.7-11.9,0,0,.1-.2.2,0h0Z" fill="#fff"/><path d="M206.8,408.2c.5,2.9-.5,5.5-1.8,8-.8,2.6-.7,5.5-1.8,8-.7,1.7-1.6,3.3-3,4.7,0,0-.2,0-.2,0,.3-2.8,1-5.3,2.2-7.8.6-1.7,1.8-3.2,2.2-5,.2-2.8.5-5.4,2.2-7.8,0,0,.2,0,.2,0h0Z" fill="#fff"/><path d="M210.8,409.9c2.3,2.8,2.8,6.5,2.9,10,.2,3.5.3,6.9.2,10.4,0,0-.2,0-.2,0-.3-1.7-.5-3.4-.8-5.1-.4-3.4-1.3-6.7-1.8-10.1,0,0-.5-5.1-.5-5.1h.2Z" fill="#fff"/><path d="M212.6,408.8c1.9,2.3,2.6,4.9,3.1,7.7.5,2.4,1.2,5.8,1.6,8.2,0,0-.2,0-.2,0-.9-2.2-2.1-5.5-3-7.8-1.1-2.6-1.9-5.2-1.8-8.1,0,0,.2,0,.2,0h0Z" fill="#fff"/><path d="M215.1,410.5c4,2.3,5.6,6.8,7.2,10.8.5,1.4.9,2.8,1.2,4.2h-.2c-1.1-2.6-2.5-5.1-4.1-7.5-1.7-2.4-3.3-4.6-4.3-7.4,0,0,.2-.1.2-.1h0Z" fill="#fff"/><path d="M207.8,410.5c1,2.3.6,4.6-.1,6.8-.6,2.2-1.3,4.3-2.2,6.4,0,0-.2,0-.2,0,.3-2.2.6-4.5.8-6.7,0-2.3.3-4.4,1.5-6.5,0,0,.2,0,.2,0h0Z" fill="#fff"/><path d="M205.9,408.5c-.4,2.3-1.5,4-2.8,5.8,0,0-1.7,2.7-1.7,2.7l-1.7,2.8h-.2c.3-1.1.7-2.2,1-3.2,1.3-3,2.1-6.7,5.3-8.3,0,0,.2.1.2.1h0Z" fill="#fff"/><path d="M199.3,455.4c-1.2-1.3-2-2.9-2.2-4.7,0-.9,0-1.8,0-2.6-.2-1.7-1.2-3.3-1.4-5-.4-1.7-.5-3.5,0-5.2.2-.9.4-1.8,1-2.5h.2c.3,2.6.8,5,.7,7.5.1,1.7-.3,3.4.2,5.1.6,1.6,1.5,3,1.7,4.7.1.8.2,1.7.2,2.6h-.2Z" fill="#fff"/><path d="M219.4,456.5c-.3-2-.2-3.7.5-5.4.3-1.1,1.2-2.2,1.3-3.4,0-.6-.2-1.2-.2-1.8,0-1.2.4-2.3.9-3.4,0,0,0-.1,0-.1,0,0,0,0,0,0,.9.9,1,2.6.6,3.8-.2.6-.6,1.1-.8,1.7-.4,1.8.3,3.7-.3,5.5-.4,1.2-.9,2.3-1.9,3.3,0,0-.2,0-.2,0h0Z" fill="#fff"/><path d="M204.7,458.5c-1.9-2.6-2.2-5.9-1.9-9,.2-3,.4-6.3,1.3-9.1.2,2.9,0,6.1.3,9.1.4,3,.7,5.8.5,8.9,0,0-.1.1-.2,0h0Z" fill="#fff"/><path d="M216.7,457.1c-1.3-4.4.5-9.1,1.2-13.5.2-1.4.7-3,.5-4.3,0,0,0-.2.1-.2.5.7.3,1.5.4,2.3,0,1.5-.2,5.2-.3,6.8,0,3.1-.5,6-1.8,8.9,0,0-.2,0-.2,0h0Z" fill="#fff"/><path d="M206.4,457.2c-.6-1-.9-2-.6-3.1.5-1,.9-1.9.5-3.1-.5-2.1-.2-4.3,1.4-6,0,0,.2,0,.2,0,.4,1.1.4,2.1.4,3.1,0,1.6-1.2,3-1.2,4.4.2,1.1.7,1.9.3,3.1-.1.5-.3,1-.7,1.5,0,0-.2,0-.2,0h0Z" fill="#fff"/><path d="M213.6,455.6c-.5-1-.6-2.1-.3-3.1.2-.5.6-.9.7-1.4.3-1.4-.5-3-.2-4.6.2-1,.6-2,1.1-3,0,0,0,0,.1,0,1.1,1.4,1,3.1.6,4.7-.2,1-1,1.9-1,3,.1,1.1.6,2,0,3.1-.2.5-.4,1-.9,1.4,0,0-.2,0-.2,0h0Z" fill="#fff"/><path d="M225,456.1c0-1.6.3-3.1.8-4.6.6-1.4,1.6-2.7,1.5-4.3,0-.7-.1-2.2-.2-2.6-.4-2.6-.5-5.1-.6-7.9,0,0,.2,0,.2,0,1.9,2,2.5,4.9,2.2,7.5,0,0,0-.4,0-.4.4,1.2-.3,2.4-.6,3.5-.8,2-.1,4.2-1.1,6.2-.4,1-1,1.9-1.8,2.7h-.2Z" fill="#fff"/><path d="M201.8,456.7c-1.7-1.5-1.8-3.7-1.6-5.7,0-2,.2-3.9.6-5.9,0,0,.2,0,.2,0l.8,5.8c.5,2,.6,3.7.2,5.8,0,0-.2,0-.2,0h0Z" fill="#fff"/><path d="M226.7,456.2c0-2.1.5-3.7,1.4-5.6,0,0,2.1-5.4,2.1-5.4h.2c-.1,2-.4,3.9-.7,5.9-.2,2-.9,4.1-2.8,5.2,0,0-.2-.1-.2-.1h0Z" fill="#fff"/><path d="M221.5,456.1c0-1.8.5-3,1.3-4.5.5-1.4,1.3-2.9,1.4-4.3,0,0,0-.2,0-.2.6.6.3,1.7.4,2.5-.3,2.4-.2,5.6-3,6.6,0,0-.1-.1-.1-.1h0Z" fill="#fff"/><path d="M196.5,453.3c-1.7-.8-2.5-2.4-2.8-4.1-.4-1.6-.7-3.3-.7-4.9,0,0,.2,0,.2,0,.7,2.3,2,4.3,3.1,6.5.2.8.4,1.5.4,2.5h-.2Z" fill="#fff"/><path d="M211,456.5c-2-2.1-1.1-4.9-.6-7.3.2-.8.4-1.6.8-2.4h.2c-.2,2.5.3,4.8.4,7.2,0,.8-.2,1.6-.6,2.5h-.2Z" fill="#fff"/><path d="M208.2,457.2c-.7-1.3-.7-2.4-.2-3.7,0,0,.4-1.8.4-1.8l.4-1.8h.2c.2.6.3,1.2.4,1.8.2,2,1,4.1-1,5.5,0,0-.2,0-.2,0h0Z" fill="#fff"/><path d="M236.8,342.1c-1.2,1.3-2.5,2.2-4.1,3-.8.3-1.7.5-2.4.9-1.5.8-2.4,2.4-3.7,3.5-1.8,1.8-3.7,3.2-5.7,4.8,0,0-.2,0-.2,0,.1-1,.6-1.8,1-2.5.9-1.5,2.2-2.7,3.7-3.6,1.4-1,3.2-1.4,4.5-2.5,1.3-1.2,2.4-2.5,4.2-3,.8-.3,1.7-.5,2.6-.5v.2h0Z" fill="#fff"/><path d="M251.9,355.3c0,2-.8,3.7-2,5.1-.7,1-2,1.6-2.5,2.7-.3.5-.4,1.2-.7,1.8-.4.8-1.2,1.5-2,2-.3.2-.7.3-1.1.3,0,0,0,0,0,0,.4-1.1.9-2.3,1.8-3.1.5-.4,1.1-.7,1.5-1.1,1.1-1.4,1.2-3.4,2.3-4.9.7-1,1.5-1.9,2.6-2.6,0,0,.2,0,.2,0h0Z" fill="#fff"/><path d="M242.8,343.7c-2.1,2.3-4.2,4.1-6.6,6-2.3,1.9-4.4,4.3-6.6,6.2,1.4-2.6,3.5-5.1,5.5-7.4,2-2.4,4.4-4.6,7.6-5,0,0,.2.1,0,.2h0Z" fill="#fff"/><path d="M250.4,353.1c-1.1,3-2.9,5.3-5,7.5-1.1,1.2-3.4,4-4.5,5.1-.6.5-1.1,1.3-1.9,1.4-.1,0,0-.2,0-.2,1.1-.8,1.8-2.3,2.6-3.5,0,0,2.5-3.8,2.5-3.8,1.6-2.6,3.3-5.1,6.1-6.7,0,0,.2,0,.2.1h0Z" fill="#fff"/><path d="M243.2,345.7c-.2,1.1-.7,2-1.5,2.7-.4.3-1,.5-1.4.8-1,1-1.1,2.8-2.2,4-.7.8-1.4,1.4-2.5,2,0,0-.1,0-.2,0,0-1.8.7-3.2,2-4.3.7-.8,1.9-1.1,2.4-2,.5-1,.6-2,1.7-2.6.4-.3.9-.6,1.5-.7,0,0,.2,0,.1.1h0Z" fill="#fff"/><path d="M247.1,351.9c0,1.1-.4,2.1-1.2,2.9-.4.3-1,.5-1.3.9-.4.4-.6.8-.7,1.4-.5,1.5-1.3,2.9-2.7,3.8-.5.3-.9.6-1.7.6,0,0,0,0,0,0,0,0,0,0,0,0h0c.4-1.6,1.1-3,2.3-4,.7-.8,1.9-1.1,2.3-2,.4-1,.4-2,1.5-2.7.4-.3.8-.6,1.5-.8,0,0,.2,0,.2.1h0Z" fill="#fff"/><path d="M255.7,359.5c0,1.7-.5,3.2-1.3,4.5-.9,1.3-2.3,2.3-2.8,3.7-.5,1-.9,2.4-2,3,0,0,.4-.2.4-.2-1.6,2.1-4.1,3.7-6.9,3.8,0,0,0-.2,0-.2,1-1,1.9-1.8,2.8-2.6,1-.9,2.3-2,3.2-2.6,1.5-1.1,3-2.4,3.4-4.3.5-2.1,1.6-3.7,3.1-5.2,0,0,.2,0,.2,0h0Z" fill="#fff"/><path d="M239.5,342.9c-1.2,1.7-2.4,2.9-4.2,4,0,0-4.7,3.5-4.7,3.5,0,0-.1-.1-.1-.1,1.1-1.6,2.4-3.1,3.7-4.6,1.3-1.6,2.9-3,5.2-3,0,0,0,.2,0,.2h0Z" fill="#fff"/><path d="M256.9,360.6c.6,2.2-.4,4.1-1.7,5.7-1.1,1.6-2.3,3.2-3.6,4.7,0,0-.2-.1-.2-.1l2.3-5.3c.6-1.9,1.4-3.4,2.9-5,0,0,.2,0,.2,0h0Z" fill="#fff"/><path d="M253.2,357c.9,1.7,0,3.5-1,4.8-.7,1-1.5,2-2.4,2.8-.4.3-.6.7-1.2.7,0,0,0-.2,0-.2,1-1.1,1.5-2.7,2.1-4,.3-.7.4-1.5.8-2.1.4-.7.8-1.2,1.4-1.9h.2Z" fill="#fff"/><path d="M245.9,349.5c-.6,1.7-1.7,2.7-3.2,3.6-1.2,1-2.4,2.1-3.5,3.3,0,0-.2-.1-.2-.1.6-1.5,1.5-3,2.5-4.3,1-1.5,2.3-2.6,4.2-2.7,0,0,.1.2.1.2h0Z" fill="#fff"/><path d="M244.5,346.9c.2,1.5-.5,2.6-1.7,3.4-.9.8-2,1.6-3,2.2,0,0-.1-.1-.1-.1l1-1.6,1-1.5c.3-.5.5-1.1,1-1.5.5-.4,1-.7,1.8-.9,0,0,.2.1.2.1h0Z" fill="#fff"/><path d="M191.2,346.6c1.6.7,2.9,2,3.8,3.5.4.8.6,1.7,1.1,2.4.8,1.5,2.3,2.6,3.2,4.1,1,1.4,1.7,3.1,2,4.8.1.9.3,1.8,0,2.7,0,0-.2,0-.2,0-1.3-2.2-2.5-4.2-3.5-6.6-.7-1.5-1-3.3-2.1-4.6-1.1-1.2-2.6-2.2-3.3-3.8-.4-.7-.9-1.4-1.2-2.3h.1Z" fill="#fff"/><path d="M172.8,350c1.5,1.3,2.4,2.7,3,4.5.5,1.1.4,2.5,1.2,3.4.4.5.9.8,1.4,1.3.8.9,1.2,2.1,1.5,3.2h0c0,.1,0,.2,0,.2-.4,0-.8-.2-1.1-.4-.8-.5-1.5-1.3-1.8-2.1-.2-.6-.2-1.3-.5-1.8-.9-1.6-2.6-2.7-3.2-4.5-.4-1.1-.8-2.4-.6-3.7,0,0,.1-.1.2,0h0Z" fill="#fff"/><path d="M184.9,345c3.1.8,5.4,3.2,7.2,5.7,1.7,2.5,3.7,5.1,4.8,7.9-2-2.1-3.9-4.7-6-6.8-2.2-2.1-4.2-4.1-6-6.6,0,0,0-.2.1-.2h0Z" fill="#fff"/><path d="M173.4,346.8c3.8,2.6,5.4,7.4,7.6,11.2.7,1.2,1.3,2.8,2.3,3.7.1,0,.2.2,0,.2-.8-.2-1.2-1-1.8-1.6-1-1.2-3.1-4.2-4.1-5.5-1.9-2.4-3.5-4.9-4.3-8,0,0,0-.2.2-.1h0Z" fill="#fff"/><path d="M181.9,342.8c1.1.4,2,1,2.4,2,.3,1.1.5,2.1,1.5,2.7,1.8,1.3,2.9,3.2,2.7,5.5,0,0-.1.1-.2,0-1-.6-1.7-1.4-2.3-2.2-1-1.3-1-3.1-1.9-4.2-.8-.7-1.7-1-2.2-2.2-.2-.5-.4-1-.4-1.6,0,0,0-.1.2-.1h0Z" fill="#fff"/><path d="M175.2,345.3c1,.5,1.8,1.2,2.2,2.2.2.5.2,1.1.4,1.6.7,1.3,2.3,2,3.1,3.5.5.9.8,2,1,3,0,0,0,0,0,0-1.7-.4-2.8-1.8-3.5-3.3-.5-.9-.4-2.1-1.1-2.9-.8-.8-1.7-1.1-2-2.4-.2-.5-.3-1-.2-1.7,0,0,0-.1.2-.1h0Z" fill="#fff"/><path d="M172.1,361.1c1.1,1.3,1.7,2.5,2.3,4,.4,1.5.5,3.1,1.6,4.3.5.6,1.5,1.6,1.8,1.8,2,1.8,3.7,3.6,5.5,5.7,0,0,0,.2,0,.2-2.7-.4-5-2.2-6.5-4.4,0,0,.4.3.4.3-1.1-.7-1.3-2-1.8-3.1-.6-2-2.6-3.3-3-5.5-.3-1-.5-2.1-.3-3.2h.2Z" fill="#fff"/><path d="M170.7,362.1c1.3,1.6,2,3.2,2.4,5.2,0,0,1.8,5.5,1.8,5.5h-.2c-1.1-1.5-2.2-3.2-3.1-4.9-1.1-1.7-1.9-3.7-1.1-5.8,0,0,.2,0,.2,0h0Z" fill="#fff"/><path d="M173.8,357.6c1,1.4,1.5,2.6,1.8,4.3.5,1.4.8,3,1.7,4.2,0,0,0,.2,0,.2-.8-.2-1.3-1.1-1.9-1.7-1.3-2-3.4-4.5-1.9-7,0,0,.2,0,.2,0h0Z" fill="#fff"/><path d="M176.7,343.9c2.5,1.3,4,3.4,5.2,5.8,1.3,2.3,2.4,4.6,3.3,7.1h-.2c-1.4-2.1-2.9-4.2-4.4-6.2-1.7-2-3.2-3.9-4-6.6,0,0,.2-.1.2-.1h0Z" fill="#fff"/><path d="M180.2,343.8c1.4.5,2,1.4,2.5,2.7,0,0,.8,1.6.8,1.6l.8,1.7h-.2c-.5-.2-1-.7-1.5-1.1-1.4-1.4-3.3-2.5-2.7-4.8,0,0,.2,0,.2,0h0Z" fill="#fff"/><path d="M267.2,419.2c-1.5,1-3.2,1.5-5,1.5-.9,0-1.7-.3-2.6-.3-1.7,0-3.4.6-5.1.6-1.7.1-3.5-.1-5.2-.8-.8-.3-1.7-.7-2.3-1.4v-.2c2.7,0,5,0,7.5.5,1.7.1,3.3.8,5,.6,1.6-.3,3.2-1,5-.9.8,0,1.7,0,2.6.2,0,0,0,.2,0,.2h0Z" fill="#fff"/><path d="M273.9,401.8c-1.9.6-3.6.7-5.4.2-1.2-.1-2.3-.9-3.6-.8-.6,0-1.2.4-1.8.5-1.2.2-2.4,0-3.5-.4h-.1s0,0,0-.1c.7-1,2.5-1.3,3.6-1.2.6.1,1.2.5,1.8.5,1.8.1,3.6-.8,5.5-.4,1.2.2,2.4.6,3.5,1.4,0,0,0,.2,0,.2h0Z" fill="#fff"/><path d="M271.9,414.7c-2.3,2.3-5.5,3-8.6,3.1-3,.2-6.3.5-9.2,0,2.9-.6,6-.8,9-1.6,2.9-.8,5.7-1.5,8.8-1.7,0,0,.2.1,0,.2h0Z" fill="#fff"/><path d="M276.3,404c-4.2,1.9-9.1.7-13.5.6-1.4,0-3-.3-4.4,0,0,0-.2,0-.2,0,.6-.6,1.5-.5,2.2-.7,1.5-.3,5.2-.5,6.8-.6,3.1-.4,6-.4,9,.5,0,0,.1.2,0,.2h0Z" fill="#fff"/><path d="M275.3,413.3c-.9.7-1.9,1.1-3,1-1-.3-2-.6-3.1,0-2,.8-4.3.8-6.1-.5,0,0,0-.2,0-.2,1.1-.5,2.1-.7,3.1-.8,1.6-.2,3.1.8,4.6.6,1.1-.3,1.8-1,3-.7.5,0,1,.2,1.6.5,0,0,0,.1,0,.2h0Z" fill="#fff"/><path d="M276.7,406.3c-1,.6-2,.9-3.1.7-.5-.1-1-.4-1.5-.5-1.4,0-2.9.9-4.6.8-1,0-2.1-.3-3.1-.7,0,0,0,0,0-.1,1.2-1.3,3-1.5,4.6-1.2,1,0,2,.8,3.1.6,1.1-.3,1.9-.8,3.1-.5.5.1,1,.3,1.5.7,0,0,0,.2,0,.2h0Z" fill="#fff"/><path d="M269.2,395.2c-1.6.3-3.1.2-4.6-.1-1.5-.4-2.9-1.2-4.5-.9-.7,0-2.1.4-2.5.6-2.6.8-5,1.2-7.7,1.7,0,0-.1-.2-.1-.2,1.7-2.1,4.5-3.2,7.2-3.2,0,0-.4.2-.4.2,1.1-.6,2.4,0,3.6.1,2.1.5,4.2-.5,6.2.2,1,.3,2,.7,2.9,1.4v.2h0Z" fill="#fff"/><path d="M266,392.2c-2.1.2-3.8,0-5.7-.7,0,0-5.7-1.3-5.7-1.3v-.2c2-.1,3.9-.2,5.9,0,2,0,4.2.3,5.6,2,0,0,0,.2,0,.2h0Z" fill="#fff"/><path d="M271.1,399c-1.8.2-3,0-4.6-.7-1.4-.3-3-.9-4.5-.7,0,0-.2,0-.2,0,.6-.6,1.7-.6,2.4-.7,2.4,0,5.6-.6,6.9,2,0,0-.1.2-.1.2h0Z" fill="#fff"/><path d="M277.1,408.3c-2.4,1.4-5,1.7-7.7,1.4-2.6,0-5.2-.3-7.8-.9v-.2c2.6,0,5.2-.2,7.7-.5,2.6-.4,5.1-.7,7.7,0,0,0,0,.2,0,.2h0Z" fill="#fff"/><path d="M275.4,411.3c-1.2.9-2.2,1-3.6.7,0,0-1.8-.1-1.8-.1l-1.9-.2s0-.2,0-.2c.6-.2,1.2-.4,1.8-.6,1.9-.4,3.9-1.5,5.5.2,0,0,0,.2,0,.2h0Z" fill="#fff"/><path d="M143.9,393.3c1.6-.8,3.4-1.1,5.1-.9.9.2,1.7.5,2.5.7,3.5.2,7-.6,10.2,1.4.8.4,1.6.9,2.1,1.7v.2c-2.7-.4-5-.6-7.5-1.4-1.6-.3-3.2-1.2-4.9-1.2-1.7.1-3.3.6-5,.3-.8-.1-1.7-.2-2.5-.5v-.2h0Z" fill="#fff"/><path d="M151.5,418.3c1.9-.7,3.5-.9,5.4-.6,1.2,0,2.4.8,3.6.6.6,0,1.2-.4,1.8-.6,1.2-.3,2.4,0,3.5.2,0,0,.1,0,.1,0,0,0,0,0,0,0-.7,1.1-2.4,1.5-3.6,1.4-.6,0-1.2-.4-1.8-.4-1.8,0-3.6,1-5.5.8-1.2-.1-2.4-.4-3.6-1.2,0,0,0-.2,0-.2h0Z" fill="#fff"/><path d="M140.5,399.6c2.8-1.7,6.1-1.5,9.1-.9,3,.6,6.3,1,8.9,2.2-2.9-.1-6.1-.6-9.1-.6-3.1,0-5.8,0-8.9-.4,0,0-.1-.1,0-.2h0Z" fill="#fff"/><path d="M148.9,415.4c4.1-2.1,9.1-1.3,13.5-1.5,1.4,0,3,.1,4.3-.3,0,0,.2,0,.2,0-.6.6-1.4.6-2.2.8-1.5.4-5.2.8-6.7,1-3,.5-6,.7-9,0,0,0-.1-.2,0-.2h0Z" fill="#fff"/><path d="M141.9,402.5c.9-.7,2-1,3.1-.8,1,.4,2,.8,3.1.3,2.1-.7,4.3-.5,6.1,1,0,0,0,.2,0,.2-1.1.4-2.1.6-3.1.6-1.6,0-3.1-1-4.5-1-1.1.2-1.8.8-3,.5-.5-.1-1-.3-1.5-.6,0,0,0-.1,0-.2h0Z" fill="#fff"/><path d="M148.3,411.7c.9-.7,1.9-1,3-.9.5,0,1,.4,1.6.4,1.4,0,2.8-1.1,4.5-1.1,1,0,2.1.2,3.1.5,0,0,0,0,0,.1-1.2,1.4-2.9,1.6-4.5,1.5-1,0-2.1-.6-3.1-.4-1.1.3-1.8.9-3,.6-.5-.1-1-.2-1.6-.6,0,0,0-.1,0-.2h0Z" fill="#fff"/><path d="M156.6,424.6c1.6-.4,3.1-.4,4.6-.2,1.5.3,3,1,4.5.6.7-.1,2.1-.6,2.5-.7,2.5-.9,4.9-1.5,7.6-2.2,0,0,.1.2.1.2-1.6,2.2-4.3,3.4-7,3.6,0,0,.4-.2.4-.2-1.1.6-2.4.2-3.6,0-2.1-.4-4.2.7-6.2.1-1-.2-2-.6-3-1.2v-.2h0Z" fill="#fff"/><path d="M140.8,395.8c1.8-1.3,4-1.1,5.9-.5,1.9.4,3.8,1,5.7,1.6,0,0,0,.2,0,.2l-5.8-.3c-2,.1-3.7,0-5.7-.9,0,0,0-.2,0-.2h0Z" fill="#fff"/><path d="M154,421.1c1.7-.3,3-.1,4.6.4,1.5.2,3.1.7,4.5.5,0,0,.2,0,.2,0-.5.7-1.6.7-2.4.9-2.4.2-5.6.9-7.1-1.6,0,0,.1-.2.1-.2h0Z" fill="#fff"/><path d="M150.6,390.9c2.2-1.8,4.9-.8,7.3,0,.8.3,1.6.6,2.3,1v.2c-2.4-.3-4.9,0-7.2,0-.8-.1-1.6-.3-2.4-.8v-.2h0Z" fill="#fff"/><path d="M146.8,409.5c1.1-1.6,2.8-2,4.5-2,1.7-.1,3.3,0,5,.2,0,0,0,.2,0,.2-2.4.3-4.6,1.2-6.9,1.9-.8,0-1.6.1-2.5,0,0,0,0-.2,0-.2h0Z" fill="#fff"/><path d="M144.5,405.9c1.1-1,2.2-1.1,3.5-.9,0,0,1.8,0,1.8,0h1.9c0,0,0,.2,0,.2-.6.3-1.2.5-1.7.7-1.9.6-3.8,1.8-5.5.1,0,0,0-.2,0-.2h0Z" fill="#fff"/><path d="M202.1,403.7c-1.7,2.9-4.6,4.6-7.6,5.9-2.7,1.7-5,4.1-8,5.5-2,.9-4,1.7-6.2,1.9,0,0-.2-.1,0-.2,2.5-2.1,5.2-3.7,8.2-5,1.9-1,4.1-1.5,5.8-2.7,2.4-2.2,4.7-4.3,7.9-5.5,0,0,.2,0,.1.2h0Z" fill="#fff"/><path d="M203.3,401.7c-3.2,2.9-7.2,3.8-11.4,4.1-2.7.5-5.2,1.6-7.8,2.1-4,.8-8.1,1.1-12.1.3,0,0-.1-.2,0-.2,3.9-1.1,7.8-1.7,11.9-2,2.6-.3,5.4,0,8-.8,3.7-1.4,7.4-2.9,11.4-3.6,0,0,.2.1,0,.2h0Z" fill="#fff"/><path d="M202.8,401.3c-2.8,1-5.5.4-8.2-.5-2.7-.4-5.5.2-8.2-.5-1.8-.4-3.5-1-5.1-2.2,0,0,0-.2,0-.2,2.8-.2,5.4.1,8.1.9,1.8.4,3.5,1.3,5.3,1.3,2.8-.3,5.4-.4,8.1.9,0,0,0,.2,0,.2h0Z" fill="#fff"/><path d="M202.9,402.1c-1.9,3-5.4,4.6-8.6,5.8-3.2,1.3-6.5,2.4-9.8,3.4,0,0,0-.2,0-.2,1.5-.8,3.1-1.5,4.6-2.3,3.1-1.4,6-3.3,9.1-4.8,0,0,4.7-2,4.7-2h.1Z" fill="#fff"/><path d="M201.4,402.2c-2.1,1.1-4.1,1.3-6.4,1.3,0,0-3.2.3-3.2.3l-3.3.3v-.2c1-.4,2-.7,3.1-1.1,3.2-.8,6.5-2.4,9.8-.8,0,0,0,.2,0,.2h0Z" fill="#fff"/><path d="M207.3,393.3c-1-3.2-.7-6.4-.3-9.6,0-2.1-.9-4.2-1.3-6.3-.7-3.2-1-6.3-.9-9.6,0,0,.1-.1.2,0,1.1,1.9,1.7,4,2.2,6.1.7,3.2.1,6.5.4,9.7.8,3.2,1.2,6.5-.1,9.6,0,0-.2,0-.2,0h0Z" fill="#fff"/><path d="M206.3,394.9c-2-3.5-3.2-7.3-4.5-11.1-1.1-2.5-3-4.4-4.5-6.7-2.4-3.3-4.4-6.7-6.1-10.4,0,0,0-.2.2-.1,3.2,2.7,5.6,5.9,7.5,9.5,1.4,2.3,2.1,5,3.4,7.4,1,1.7,2.4,3.3,3,5.3.2.6.5,1.4.6,2,.4,1.3.5,2.7.5,4.1,0,0-.2.1-.2,0h0Z" fill="#fff"/><path d="M206.2,395.5c-2.9-.9-4.6-2.8-6.5-4.9-1.4-1.2-3.2-1.7-4.8-2.6-2.4-1.3-4.5-2.9-6.5-4.9,0,0,0-.2,0-.2,1.9.3,3.6,1,5.2,1.9,2.4,1.3,4.1,3.7,6.3,5.3,2.5,1.2,4.9,2.6,6.2,5.3,0,0,0,.2-.1.2h0Z" fill="#fff"/><path d="M206.8,393.6c-1.5-2.5-2-5.2-2.2-8-.3-2.4-.7-5.9-1-8.3,0,0,.2,0,.2,0,.8,2.3,1.7,5.7,2.3,8,.9,2.7,1.4,5.4.8,8.3,0,0-.2,0-.2,0h0Z" fill="#fff"/><path d="M205.7,394.3c-2.1-1.2-3.4-2.9-4.6-4.9-1.3-1.8-2.7-3.6-4.1-5.3h.1c1.8,1.2,3.5,2.7,5.2,4.3,1.8,1.5,3.3,3.3,3.6,5.8,0,0-.2.1-.2.1h0Z" fill="#fff"/><path d="M218,393.4c2.5-2.2,5.5-3.3,8.5-4.3,1.9-.9,3.4-2.6,5.1-3.8,2.6-2,5.2-3.6,8.3-4.8,0,0,.2,0,.1.2-1.3,1.8-2.9,3.3-4.6,4.6-2.6,2-5.8,2.9-8.6,4.5-2.5,2.1-5.4,3.8-8.8,4,0,0-.2-.1,0-.2h0Z" fill="#fff"/><path d="M215.3,393.7c2.5-3.2,5.6-5.7,8.6-8.3,1.9-1.9,3-4.5,4.5-6.6,2.2-3.4,4.5-6.6,7.3-9.5,0,0,.2,0,.2.1-1.3,3.9-3.4,7.4-6,10.5-1.7,2.1-3.9,3.8-5.5,5.9-1.2,1.6-2.2,3.5-3.8,4.8-.4.4-1.1,1-1.6,1.3-1.1.8-2.3,1.5-3.6,2,0,0-.2,0-.1-.2h0Z" fill="#fff"/><path d="M215.3,394c0-3,1.3-5.2,2.8-7.7.8-1.7.7-3.6,1.1-5.3.5-2.7,1.4-5.2,2.8-7.6,0,0,.2,0,.2,0,.3,1.9,0,3.8-.3,5.6-.6,2.7-2.3,5-3.2,7.6-.4,2.8-1.1,5.4-3.2,7.5,0,0-.2,0-.2,0h0Z" fill="#fff"/><path d="M215.8,394.3l3.7-3.5c1.2-1.2,2.7-2.1,4-3.2,2.7-2.2,5.3-4.4,7.9-6.7,0,0,.1.1.1.1-3.4,3.9-6.7,8-10.8,11.2-1.5,1-3.1,1.9-4.9,2.1,0,0,0-.2,0-.2h0Z" fill="#fff"/><path d="M216.3,393.1c.4-2.4,1.4-4.2,2.8-6.1,1.1-1.9,2.3-3.8,3.4-5.8,0,0,.2,0,.2,0-.6,2.2-1.3,4.3-2.2,6.4-.8,2.2-1.9,4.3-4,5.5,0,0-.2-.1-.2-.1h0Z" fill="#fff"/><path d="M219,404c2.7-2.1,6-2.6,9.2-2.7,3.2-.6,6.2-2.1,9.4-2.2,2.2-.1,4.3-.1,6.5.4,0,0,.1.2,0,.2-3.1,1.1-6.2,1.6-9.4,1.7-2.1.2-4.3-.1-6.4.5-3,1.2-6,2.3-9.3,2.3,0,0-.1-.1,0-.2h0Z" fill="#fff"/><path d="M218,405.4c4.1-1.1,8.2,0,12,1.5,2.6.8,5.3.9,7.9,1.7,3.9,1.1,7.7,2.7,11,5.2,0,0,0,.2,0,.2-4-.8-7.8-2-11.5-3.6-2.5-.9-4.8-2.4-7.5-2.9-4-.4-8-.8-11.8-1.9,0,0-.1-.2,0-.2h0Z" fill="#fff"/><path d="M218.6,404.6c3.1-1.8,6.9-1.6,10.3-1.2,3.4.4,6.9.8,10.3,1.5,0,0,0,.2,0,.2-1.7,0-3.4,0-5.2-.1-3.4-.2-6.9.1-10.2,0,0,0-5.1-.3-5.1-.3v-.2h0Z" fill="#fff"/><path d="M219.5,405.7c2.5-.2,4.6.8,6.5,2.2,1.9,1.2,3.8,2.5,5.5,4,0,0-.1.2-.1.2-2-1-4.1-1.9-6.1-2.8-2.2-.8-4.1-1.6-5.8-3.4,0,0,0-.2,0-.2h0Z" fill="#fff"/><path d="M211,394.7c1.6-1.6,2,1.1,2.7,1.1.7,0,1.1-.4,1.7-.2.6.2.9.1,1.1,1.6.2,1.5-.6.7-.3,1.5.3.8.8,1.1.9,1.8,0,.7.3.9-.2,1.3s-.9.4-.7.9c.2.5-.3,1-.6,1.5s-.5,1.5-1.1,1.7-.7-.5-.9.5,0,1.5-1.1,1.5c-1,0-1.3,0-1.6-.7-.3-.6-.9-.5-1.6-1.2-.6-.7-1.4.2-2-.5-.6-.6-1.2-1.8-.7-2.1s0-.7,0-1.6c0-.9-1-2.2-.4-2.3.6-.2.9-.4,1.1-1.1.2-.7-.3-1.2,0-1.7s1.6-1,2-.7,1.7-1.3,1.7-1.3Z" fill="none" stroke="#fff" stroke-miterlimit="10" stroke-width=".9"/><path d="M212,405.7c-1.1,1.3-1.5-.8-2.1-.8s-.8.3-1.3.2-.7,0-.9-1.2.4-.6.2-1.2-.7-.8-.8-1.3-.3-.7,0-1,.7-.3.5-.7c-.2-.4.2-.7.4-1.2s.4-1.2.8-1.3.5.3.6-.4c.1-.7,0-1.2.7-1.1.8,0,1,0,1.2.4s.7.3,1.2.9c.5.5,1-.2,1.5.3.5.5,1,1.3.6,1.6s0,.5.1,1.2.8,1.6.4,1.7-.7.3-.8.9.3.9,0,1.3-1.2.8-1.5.6c-.3-.2-1.3,1.1-1.3,1.1Z" fill="none" stroke="#fff" stroke-miterlimit="10" stroke-width=".7"/><path d="M212.2,397.8c1.1-.5.8.9,1.1,1.1s.6,0,.9.2.4.2.3,1c-.2.8-.4.2-.4.7,0,.5.2.7.1,1.1s0,.5-.3.6-.5,0-.5.3-.3.4-.6.6c-.3.2-.6.6-.9.6s-.2-.4-.5,0-.3.8-.8.5c-.5-.2-.6-.3-.7-.6s-.4-.4-.6-.9-.7-.2-.9-.6-.3-1.1,0-1.2.1-.4.3-.8,0-1.3.2-1.2.5,0,.7-.3,0-.6.4-.8,1-.2,1.1,0,1.1-.3,1.1-.3Z" fill="none" stroke="#fff" stroke-miterlimit="10" stroke-width=".5"/><path d="M87.8,248c.1-.5.1-.9.1-1.2,0,0,0,0-.1,0-.3-.1-.6-.3-.8-.6-.5.1-1,0-1.3-.3-.2,0-.5.2-.7.3-4,13.6-13.6,26.4-23.9,20.3-2.1-1.2-7.2,1.3-9.1-1.1-4.1-5.3.5-10.4,2.7-14.4,4.8-8.7,16.3-10.6,27.8-7.9.8-.3,1.3-.6,1.6-.9-.2-.4-.2-.9,0-1.3-.3-.5-.8-.9-1.2-1.2-3-.3-6.5,0-12.8-1.6-4.4-1.2-10.3.7-14.2-1.7-4.5-2.9-8.4-10.8-4.5-16,1-1.3,4.2-2,5.2-3.1,3.8-3.9,5.6-6.3,9.4-6.1,3.9.2,7.7,2.6,11,7.3,2.9,4.2,5.5,10.1,7.5,18,.4.4.8.8,1.1,1,.5-.1,1.1,0,1.5.3,0,0,0,0,0,0,0,0,0-.1,0-.2.4-.5,1.1-.6,1.7-.4.3-.3.5-.6.6-.8-4.1-8.3-15.2-27.8-2.8-33.1s3.2-4.5,7-4.5c4.5.7,5.8,5,7.6,6.1,6.5,3.9,4,15.9-8.8,32.7-.2.5-.3.9-.2,1.2,0,0,0,.2,0,.2.2.6.8.8,1.5.9,3.1-2.9,8-7,13.1-9.3,5.2-2.4,13.2-3.9,17.4.4,1.9,2-.3,8.4.6,13.2,1.8,5.8-.8,7.7-4.4,10.7-6.6,5.4-17.2,4.4-27.8-8.5-.6-.4-1.1-.6-1.4-.6-.2,0-.4.1-.6.2-.3.3-.2,1,0,1.6,5.3,7.5,26.5,19.6,7.3,35.1-2.7,2.2-.7-1.4-12.6,6.2-6.3-.2-10.5-13.1,2.2-40.7Z" fill="none" stroke="#fff" stroke-miterlimit="10" stroke-width="2.4"/><path d="M94.1,239.9c1.8,1-.5,2-.3,2.6s.6.8.6,1.4.1.8-1.1,1.4c-1.2.5-.8-.4-1.4.1s-.8,1-1.3,1.2c-.6.2-.7.5-1.2.2-.5-.3-.6-.6-.9-.3s-.9,0-1.4-.2-1.4,0-1.7-.6.2-.7-.6-.6c-.9,0-1.3.3-1.5-.5-.2-.9-.3-1.1.2-1.5s.2-.9.6-1.6c.5-.7-.5-1.1-.1-1.8s1.3-1.5,1.6-1.2.6-.2,1.3-.4,1.6-1.4,1.9-.9.6.6,1.2.6c.6,0,.9-.6,1.5-.4s1.3,1.1,1.1,1.5,1.5,1.1,1.5,1.1Z" fill="none" stroke="#fff" stroke-miterlimit="10" stroke-width=".8"/><path d="M94.8,240.9c1.5-1.6,3.6-2.4,5.7-2.8,2-.7,3.8-2,5.8-2.5,1.4-.3,2.8-.5,4.2-.4,0,0,0,0,0,.1-3.2,1.9-6.6,2.1-10,3.2-1.8,1.1-3.6,2.1-5.8,2.5,0,0-.1,0,0-.1h0Z" fill="#fff"/><path d="M94.3,243.7c2.4-1.4,5.2-1.5,7.8-1.1,4.3-.2,9-.9,13.1,1.2-4.4.6-8.7-.7-13.1-.7-2.6.4-5.1.9-7.8.8,0,0,0,0,0-.1h0Z" fill="#fff"/><path d="M93.3,245.1c1.9-.3,3.6.4,5.2,1.4,1.7.6,3.6.6,5.2,1.4,1.1.5,2.1,1.1,3,2.1,0,0,0,.1,0,.1-1.8-.3-3.5-.8-5.1-1.6-1.1-.5-2-1.3-3.2-1.5-1.8-.2-3.6-.5-5.1-1.6,0,0,0-.1,0-.1h0Z" fill="#fff"/><path d="M94.5,242.5c1.9-1.5,4.3-1.6,6.6-1.7,2.3,0,4.5,0,6.8.1h0c-3.4.4-6.7,1-10,1.5,0,0-3.3.2-3.3.2h0Z" fill="#fff"/><path d="M93.8,241.3c1.5-1.1,3.3-1.5,5.1-1.8,1.8-.3,3.6-.7,5.4-.9h0c-1.7.8-3.4,1.4-5.1,1.9-1.7.7-3.5,1.1-5.4.9,0,0,0-.1,0-.1h0Z" fill="#fff"/><path d="M95,239.7c1.1-1.7,2.7-2.7,4.6-3.4,1.8-.8,3.6-1.4,5.5-1.7h0c-1.7.8-3.4,1.6-5,2.6-1.6,1.1-3.1,2-5,2.6,0,0,0-.1,0-.1h0Z" fill="#fff"/><path d="M94.8,244.5c1.5-.6,3-.3,4.4.3,1.4.4,2.8.9,4.2,1.6,0,0,0,.1,0,.1-1.5-.2-2.9-.5-4.3-.7-1.5-.1-2.9-.3-4.2-1.1,0,0,0-.1,0-.1h0Z" fill="#fff"/><path d="M93.5,245.7c2.8.7,4.8,3,7.3,4.4,0,0,0,.1,0,.1-1.4-.5-2.7-1-4-1.6-1.4-.6-2.7-1.3-3.3-2.8,0,0,0,0,0,0h0Z" fill="#fff"/><path d="M123.9,251.1c-1.3,1.2-3.1,1.4-4.8,1.3-1.7.2-3.2,1.1-5,1-1.1,0-2.3-.2-3.3-1,0,0,0-.1,0-.1,2.2-.2,4.3-.4,6.5-.2.6,0,1.1,0,1.7,0,1-.4,2-.9,3.1-1,.5,0,1.1-.1,1.7,0h0Z" fill="#fff"/><path d="M125.1,238c-1.3.2-2.4,0-3.5-.5-.7-.2-1.4-.9-2.2-.9-.4,0-.8,0-1.2.1-.6,0-1.9-.4-2.3-.7.7-.6,1.7-.6,2.5-.3.4.2.7.4,1.1.5,1.2.3,2.4,0,3.6.4.8.3,1.5.7,2.1,1.3,0,0,0,.1,0,.1h0Z" fill="#fff"/><path d="M126.1,247.7c-1.7,1.2-3.9,1.3-5.9,1-2-.2-4.1-.4-5.9-1,1.9,0,4,.1,6,0,2-.2,3.8-.3,5.8-.1,0,0,0,0,0,.1h0Z" fill="#fff"/><path d="M125.5,239.8c-2.9.7-6-.6-8.8-1.1-.9-.2-2-.6-2.9-.4,0,0,0,0,0,0,0,0,0,0,0,0,.5-.3,1-.2,1.5-.2,1,0,3.4.3,4.4.4,2,.1,3.9.4,5.7,1.4,0,0,0,.1,0,.1h0Z" fill="#fff"/><path d="M125.3,246.6c-1.1.7-2,.4-3-.1-.7-.2-1.4.2-2.1.1-1.1,0-2.1-.3-2.9-1.2,0,0,0,0,0-.1,1.1-.3,2-.3,3,0,.6.1,1.2.7,1.9.7.7,0,1.3-.4,2-.1.3.1.6.2,1,.5,0,0,0,.1,0,.1h0Z" fill="#fff"/><path d="M124.4,241.8c-.7.3-1.4.4-2.1.1-.3-.1-.6-.4-.9-.5-1-.2-2,.3-3,0-.7-.1-1.3-.4-1.9-.8,0,0,0,0,0,0,.9-.7,2.1-.6,3.1-.3.6.1,1.2.7,1.9.7.7,0,1.4-.3,2,0,.3.1.6.3.9.6,0,0,0,.1,0,.1h0Z" fill="#fff"/><path d="M125.1,234.4c-1.4,0-2.7-.3-3.8-1.1-.6-.4-1.2-.6-1.9-.6-.6,0-1.2,0-1.7,0-1.4.2-3.4.2-5.1.2,0,0,0-.1,0-.1,1.4-1.2,3.2-1.5,5-1.2,0,0-.3,0-.3,0,.8-.2,1.6.2,2.3.5,1.3.6,2.8.2,4,.9.6.3,1.2.7,1.7,1.2h0Z" fill="#fff"/><path d="M124.9,249.5c-1,1-2.5,1.1-3.8.9-1.3,0-2.6-.2-3.8-.5h0c1.3-.3,2.5-.4,3.8-.5,1.3-.3,2.4-.3,3.8,0,0,0,0,.1,0,.1h0Z" fill="#fff"/><path d="M125.1,233.3c-1.4,0-2.4-.4-3.6-1.1,0,0-3.5-1.5-3.5-1.5h0c1.3,0,2.5.2,3.8.5,1.3.2,2.7.7,3.3,2,0,0,0,.1,0,.1h0Z" fill="#fff"/><path d="M124.9,236.7c-2.1,0-3.7-1.7-5.7-2,0,0-.1,0-.1,0,.5-.3,1.1-.2,1.7-.2,1.6.3,3.7.2,4.2,2.1,0,0,0,0,0,0h0Z" fill="#fff"/><path d="M122.5,252.9c-.6,1.1-1.6,1.6-2.8,1.7-1.1.2-2.2.4-3.2.3h0c1.5-.6,2.9-1.3,4.3-2,.5-.1,1-.2,1.6-.2h0Z" fill="#fff"/><path d="M124.9,243.5c-.9.8-2.1.9-3.2.6-1.1-.2-2.1-.5-3.1-.9h0c1.6,0,3.1-.2,4.7-.2.5,0,1,.2,1.6.4h0Z" fill="#fff"/><path d="M125.4,245.4c-.9.5-1.6.4-2.4,0-.8-.2-1.5-.4-2.3-.6h0c.8-.3,1.6-.4,2.4-.4.9-.1,1.7,0,2.3.9,0,0,0,.1,0,.1h0Z" fill="#fff"/><path d="M50.8,223.9c1.3,1.2,1.9,2.7,2.4,4.3.3.5.6.9,1,1.3,1.7,1.5,2.8,3.2,4.1,5.1,0,0,0,.1,0,.1-1.2-.3-2.1-1.1-2.9-1.9-1.2-1.2-1.6-3-2.5-4.4-.7-.9-1.6-1.7-1.9-2.8-.2-.5-.3-1.1-.3-1.7h.1Z" fill="#fff"/><path d="M59.9,214.3c1.3,0,2.4.6,3.3,1.5.6.5,1,1.3,1.7,1.7.7.3,1.6.5,2,1.3.2.3.5.7.5,1.3,0,0,0,0,0,0-.7-.3-1.5-.7-2-1.3-.2-.3-.4-.7-.7-1-.9-.7-2.2-.9-3.1-1.6-.6-.5-1.2-1-1.7-1.8,0,0,0-.1,0-.1h0Z" fill="#fff"/><path d="M52,220c1.5,1.4,2.6,2.8,3.8,4.5,1.2,1.6,2.7,3,3.9,4.5-1.7-1-3.2-2.4-4.7-3.8-1.5-1.3-2.9-3-3.1-5.1,0,0,0-.1.1,0h0Z" fill="#fff"/><path d="M58.3,215.2c2.8,1.1,4.8,3.5,7,5.5.6.7,1.6,1.4,1.9,2.3,0,0,0,0-.1,0-.5-.8-1.5-1.3-2.2-1.9,0,0-2.4-1.7-2.4-1.7-1.7-1.1-3.3-2.3-4.2-4.1,0,0,0-.1,0,0h0Z" fill="#fff"/><path d="M53.3,219.8c.7.2,1.3.5,1.7,1.1.2.3.3.7.5.9.4.5,1.2.6,1.8,1,.9.5,1.5,1.2,2,2.2,0,0,0,.1,0,.1-.8,0-1.4-.3-2-.7-.9-.6-1.2-1.7-2-2.3-1-.4-1.8-.9-2.1-2.2,0,0,0-.1,0,0h0Z" fill="#fff"/><path d="M57.5,217.3c.7,0,1.4.3,1.9.9.2.3.3.6.6.9.2.2.5.4.9.5,1,.4,1.9.9,2.4,1.9.1.2.5.8.3,1.2,0,0,0,0,0,0,0,0,0,0,0,0-1-.3-1.9-.8-2.5-1.6-.5-.5-.7-1.2-1.3-1.6-.6-.3-1.3-.4-1.7-1-.2-.3-.4-.6-.5-1,0,0,0-.1,0-.1h0Z" fill="#fff"/><path d="M62.7,212c1.4,0,2.8.6,3.7,1.7.5.5,1,.9,1.6,1.2.7.4,1.5.6,1.9,1.4,0,0-.1-.2-.1-.2,1.4,1.1,2.3,2.8,2.3,4.6,0,0-.1,0-.1,0-1.1-1.3-2.4-2.8-3.2-4-.3-.5-.7-1-1.1-1.4-.9-1.1-2.5-1.1-3.5-1.9-.5-.4-1.1-.8-1.6-1.3h0Z" fill="#fff"/><path d="M51.4,222.1c2.1,1.5,3.1,3.9,4.7,5.9,0,0,0,0,0,0-1-.8-2-1.6-2.9-2.6-1-.9-1.9-2-1.8-3.4,0,0,.1,0,.1,0h0Z" fill="#fff"/><path d="M63.4,211.2c1.4-.3,2.6.4,3.7,1.2,1,.8,2,1.6,3,2.4h0c0,.1-3.4-1.5-3.4-1.5-1.2-.4-2.2-1-3.2-2,0,0,0-.1,0-.1h0Z" fill="#fff"/><path d="M61,213.5c2-.9,3.6,1.2,4.9,2.4.2.2.4.4.4.8h-.1c-1-1-2.7-1.4-4-2.1-.4-.3-.8-.6-1.2-1h0Z" fill="#fff"/><path d="M55.9,218.1c1.1.5,1.7,1.2,2.3,2.1.6.8,1.3,1.6,2.1,2.4h0c-1-.3-1.9-.9-2.7-1.6-1-.7-1.7-1.5-1.7-2.8,0,0,.1,0,.1,0h0Z" fill="#fff"/><path d="M54.2,219c1-.1,1.7.4,2.2,1.2.5.6,1,1.3,1.4,2h0c-.7-.4-1.3-.8-2-1.3-.8-.4-1.3-.9-1.5-1.8,0,0,0-.1,0-.1h0Z" fill="#fff"/><path d="M52.7,253.8c.8-1.6,2.3-2.5,4-3.1,1.5-.8,2.6-2.2,4.2-2.8,1.1-.4,2.2-.7,3.4-.3,0,0,0,.1,0,.1-2,1-3.8,2-6,2.6-.5.2-1,.4-1.5.7-.8.7-1.5,1.6-2.5,2.1-.5.3-1,.5-1.5.7,0,0,0,0,0,0h0Z" fill="#fff"/><path d="M54.4,265.9c.9-1,1.8-1.5,3-1.9.7-.3,1.6-.2,2.3-.7.3-.2.6-.6.9-.9.4-.4,1.8-.9,2.2-.9-.2.9-1,1.5-1.7,1.8-.4.1-.8.1-1.2.3-1.1.5-1.8,1.6-3,2-.8.3-1.6.4-2.4.3,0,0,0,0,0-.1h0Z" fill="#fff"/><path d="M51.5,257.8c.6-2,2.2-3.5,3.9-4.5,1.7-1.1,3.4-2.3,5.3-3-1.5,1.3-3.2,2.4-4.6,3.8-1.4,1.4-2.8,2.6-4.4,3.8,0,0-.1,0-.1,0h0Z" fill="#fff"/><path d="M52.4,265.4c1.8-2.4,5-3.3,7.5-4.7.8-.5,1.9-.8,2.5-1.5,0,0,0,0,0,0,0,0,0,0,0,0-.2.6-.7.8-1.1,1.1-.8.6-2.8,1.9-3.7,2.5-1.6,1.2-3.3,2.1-5.3,2.6,0,0-.1,0,0-.1h0Z" fill="#fff"/><path d="M50,259.7c.4-1.2,1.3-1.6,2.4-1.8.6-.3.9-1,1.5-1.4.8-.7,1.8-1.1,2.9-.9,0,0,0,0,0,0-.6.9-1.4,1.5-2.4,1.9-.6.3-1.4.2-1.9.7-.5.5-.8,1.2-1.5,1.4-.3.1-.6.2-1.1.2,0,0,0,0,0-.1h0Z" fill="#fff"/><path d="M51.4,264.2c.3-.7.8-1.1,1.5-1.4.3,0,.7,0,1-.2.9-.5,1.4-1.5,2.3-1.9.6-.3,1.3-.5,2-.6,0,0,0,0,0,0-.3,1.1-1.2,1.8-2.2,2.2-.6.3-1.4.2-1.9.7-.5.5-.9,1.1-1.6,1.2-.3,0-.7.2-1.1.1,0,0,0,0,0-.1h0Z" fill="#fff"/><path d="M61.7,266.6c1.1-.9,2.3-1.4,3.7-1.6.7,0,1.3-.3,1.8-.7.4-.3.9-.8,1.3-1.2,1-1.1,2.5-2.3,3.8-3.4,0,0,.1,0,.1,0-.3,1.8-1.5,3.2-3.1,4.1,0,0,.2-.2.2-.2-.5.7-1.4.8-2.1,1.1-1.3.3-2.3,1.6-3.6,1.9-.7.2-1.4.2-2.1.1,0,0,0-.1,0-.1h0Z" fill="#fff"/><path d="M62.3,267.5c1.1-.8,2.2-1.2,3.5-1.4,0,0,3.6-1.1,3.6-1.1h0c-1.1.8-2.2,1.5-3.3,2-1.1.7-2.5,1.2-3.8.6,0,0,0-.1,0-.1h0Z" fill="#fff"/><path d="M59.5,265.4c1.7-1.3,3.9-1,5.6-2.1,0,0,.1,0,.1,0-.2.6-.7.8-1.2,1.2-1.4.8-3,2.1-4.6,1.1,0,0,0-.1,0-.1h0Z" fill="#fff"/><path d="M50.6,263.1c.9-1.6,2.3-2.6,3.9-3.3,1.5-.8,3.1-1.5,4.7-2h0c-1.5,1-2.9,1.9-4.2,2.9-1.3,1.1-2.7,2-4.4,2.5,0,0,0-.1,0-.1h0Z" fill="#fff"/><path d="M50.6,260.9c.4-.9,1-1.3,1.8-1.6.7-.3,1.4-.7,2.2-1h0c-.5.7-1.1,1.3-1.7,1.9-.6.7-1.4,1.1-2.3.8,0,0,0-.1,0-.1h0Z" fill="#fff"/><path d="M102,205.9c1,1.5.9,3.3.5,5,0,1.7.5,3.4.2,5.1-.3,1.1-.6,2.3-1.5,3.1h-.1c.1-2.3.3-4.4.8-6.5.1-.5.2-1.1.2-1.6-.2-1.1-.6-2.1-.5-3.3,0-.5,0-1.1.2-1.7h.1Z" fill="#fff"/><path d="M90.7,201.1c.4,1.3.3,2.4,0,3.6-.1.8-.7,1.5-.6,2.3,0,.4.2.8.3,1.2.1.6-.1,2-.4,2.4-.7-.6-.8-1.6-.7-2.4,0-.4.3-.8.4-1.2.1-1.2-.4-2.4-.1-3.6.2-.8.4-1.6,1-2.3,0,0,.1,0,.1,0h0Z" fill="#fff"/><path d="M99.1,202.7c1.4,1.6,1.8,3.7,1.8,5.7,0,2,.2,4.1-.2,6-.3-1.9-.4-4-.8-5.9-.5-1.9-.8-3.7-.9-5.8,0,0,0-.1.1,0h0Z" fill="#fff"/><path d="M92.2,199.5c1.1,2.8.3,6,0,8.9,0,.9-.3,2,0,2.9,0,0,0,0,0,0,0,0,0,0,0,0-.4-.5-.3-1-.4-1.5-.1-1-.2-3.4-.2-4.4-.2-2-.1-3.9.6-5.9,0,0,.1,0,.1,0h0Z" fill="#fff"/><path d="M98.3,200.5c.8,1,.7,1.9.3,3,0,.7.4,1.3.4,2,.2,1.1,0,2.1-.8,3,0,0,0,0-.1,0-.5-1-.6-2-.4-3,0-.6.5-1.3.4-2-.2-.6-.6-1.3-.4-2,0-.3.1-.7.4-1,0,0,0,0,.1,0h0Z" fill="#fff"/><path d="M93.7,199.4c.4.6.5,1.3.4,2,0,.3-.3.7-.4,1,0,1,.5,2,.4,3,0,.7-.3,1.4-.5,2,0,0,0,0,0,0-.8-.8-.9-2-.7-3,0-.7.5-1.3.5-2-.1-.7-.5-1.3-.2-2,0-.3.2-.7.5-1,0,0,.1,0,.1,0h0Z" fill="#fff"/><path d="M86.3,204c.1,1.4,0,2.7-.5,4-.3.6-.4,1.3-.3,2,0,.6.2,1.2.3,1.7.4,1.4.7,3.3.9,5,0,0-.1,0-.1,0-1.3-1.2-2-3-1.9-4.8,0,0,0,.3,0,.3-.3-.8,0-1.6.2-2.3.4-1.3-.2-2.8.3-4.1.2-.7.5-1.3,1-1.9,0,0,.1,0,.1,0h0Z" fill="#fff"/><path d="M84.3,206c.1,1.4,0,2.5-.6,3.7,0,0-1,3.7-1,3.7h-.1c0-1.3,0-2.6.1-3.9,0-1.3.3-2.7,1.5-3.6,0,0,.1,0,.1,0h0Z" fill="#fff"/><path d="M88.8,202.8c.2,2.1-1.2,3.9-1.2,5.9,0,0,0,.1,0,.1-.4-.5-.3-1-.4-1.6,0-1.6-.3-3.7,1.5-4.5,0,0,.1,0,.1,0h0Z" fill="#fff"/><path d="M95.1,199.2c.9,1.6,1,3.3.7,5-.1,1.7-.3,3.4-.8,5h-.1c0-1.7,0-3.4-.1-5-.2-1.7-.3-3.3.2-5,0,0,.1,0,.1,0h0Z" fill="#fff"/><path d="M97,200.4c.6.8.6,1.5.4,2.4,0,.8-.2,1.6-.3,2.4h-.1c-.3-.8-.5-1.6-.6-2.4-.3-.9-.2-1.7.5-2.4,0,0,.1,0,.1,0h0Z" fill="#fff"/><path d="M82,285.8c-.8-1.6-.5-3.4,0-5,.2-1.7-.1-3.4.4-5.1.4-1.1.9-2.2,1.9-2.9h0c-.4,2.3-.8,4.3-1.6,6.4-.2.5-.3,1.1-.4,1.6,0,1.1.3,2.2,0,3.3,0,.5-.2,1.1-.4,1.6,0,0-.1,0-.1,0h0Z" fill="#fff"/><path d="M98.6,281.5c-.4-1.2-.5-2.3-.2-3.5,0-.8.6-1.5.5-2.3,0-.4-.3-.8-.3-1.2-.1-.6,0-2,.3-2.4.7.6.9,1.6.8,2.4,0,.4-.3.8-.3,1.2,0,1.2.6,2.4.4,3.6-.1.8-.3,1.6-.9,2.3,0,0-.1,0-.1,0h0Z" fill="#fff"/><path d="M86.1,288.2c-1-1.9-.9-4-.4-6,.4-1.9.8-4.1,1.7-5.8-.2,1.9-.6,4-.6,5.9,0,2-.1,3.8-.5,5.8,0,0,0,0-.1,0h0Z" fill="#fff"/><path d="M96.6,283.1c-1.3-2.7-.6-5.9-.6-8.8,0-.9.2-2-.1-2.9,0,0,0,0,0,0,0,0,0,0,0,0,.4.4.4.9.5,1.5.2,1,.4,3.4.5,4.4.3,2,.3,3.9-.2,5.9,0,0-.1,0-.1,0h0Z" fill="#fff"/><path d="M88,287.3c-.7-1.1-.5-2,0-3,.1-.7-.3-1.4-.3-2,0-1.1.2-2.1,1-2.9,0,0,0,0,.1,0,.4,1.1.4,2,.1,3-.1.6-.6,1.3-.6,1.9.1.7.5,1.3.2,2,0,.3-.2.7-.4,1,0,0,0,0-.1,0h0Z" fill="#fff"/><path d="M94.1,283.4c-.4-.6-.6-1.3-.5-2,0-.3.3-.7.3-1,0-1-.7-1.9-.6-3,0-.7.2-1.4.4-2,0,0,0,0,0,0,.9.8,1,1.9.9,3,0,.7-.5,1.3-.3,2,.2.6.6,1.3.3,2,0,.3-.2.7-.4,1,0,0,0,0-.1,0h0Z" fill="#fff"/><path d="M102.8,278.3c-.2-1.4-.2-2.7.3-4,.3-.6.3-1.3.2-2,0-.6-.3-1.2-.4-1.7-.5-1.4-.9-3.3-1.2-5,0,0,.1,0,.1,0,1.4,1.1,2.1,2.9,2.2,4.6,0,0-.1-.3-.1-.3.4.7,0,1.6,0,2.3-.3,1.3.4,2.8,0,4.1-.2.7-.4,1.3-.9,1.9h-.1Z" fill="#fff"/><path d="M83.6,287.9c-.8-1.2-.6-2.6-.2-3.9.3-1.2.7-2.5,1.2-3.7h.1c0,1.3-.2,2.6-.3,3.8,0,1.3-.2,2.4-.7,3.7,0,0-.1,0-.1,0h0Z" fill="#fff"/><path d="M100.4,279.9c-.3-2.1,1-3.9.8-6,0,0,0-.1,0-.1.5.5.4,1,.5,1.6,0,1.6.5,3.7-1.2,4.6,0,0-.1,0-.1,0h0Z" fill="#fff"/><path d="M80.6,281.4c-.8-1-.7-2.1-.4-3.2.3-1.1.6-2.1,1.1-3,0,0,.1,0,.1,0-.3,1.6-.2,3.1-.2,4.7-.1.5-.2,1-.6,1.6h-.1Z" fill="#fff"/><path d="M92.7,284.3c-1-.8-1.3-1.9-1.2-3,0-1.1,0-2.2.3-3.2h.1c.1,1.6.7,3.1,1,4.6,0,.5,0,1-.1,1.7h-.1Z" fill="#fff"/><path d="M90.3,285.7c-.6-.8-.7-1.5-.5-2.3,0-.8,0-1.6.1-2.4h.1c.3.7.6,1.5.8,2.3.3.8.3,1.7-.4,2.4,0,0-.1,0-.1,0h0Z" fill="#fff"/><path d="M90.3,248c1.9,1.2,2.9,3.1,3.6,5.1,1,1.8,2.6,3.4,3.4,5.4.5,1.3,1,2.7,1.1,4.1,0,0,0,.1-.1,0-2.4-2.9-3.1-6.2-4.7-9.3-1.4-1.6-2.7-3.2-3.4-5.3,0,0,0-.1.1,0h0Z" fill="#fff"/><path d="M89,247.2c1.8,2.1,2.3,4.9,2.4,7.5.9,4.3,2.3,8.8,1,13.2-1.3-4.2-.8-8.7-1.4-13.1-.9-2.5-1.7-4.9-2.1-7.5,0,0,0-.1.1,0h0Z" fill="#fff"/><path d="M88.7,247.5c.6,1.9.1,3.6-.5,5.3-.3,1.8,0,3.6-.5,5.4-.3,1.2-.8,2.3-1.5,3.3,0,0-.1,0-.1,0,0-1.9.2-3.5.8-5.3.3-1.1.9-2.2,1-3.4-.1-1.8-.1-3.6.8-5.3,0,0,.1,0,.1,0h0Z" fill="#fff"/><path d="M89.2,247.5c2,1.4,2.9,3.6,3.6,5.8.8,2.1,1.4,4.3,2,6.5,0,0-.1,0-.1,0-1.3-3.1-2.8-6.1-4.3-9.1,0,0-1.2-3.1-1.2-3.1h0Z" fill="#fff"/><path d="M89.2,248.5c1.2,2.7.5,5.6.9,8.4,0,0-.1,0-.1,0-.5-1.4-.8-2.7-1.1-4.2-.4-1.4-.5-2.9.2-4.3,0,0,.1,0,.1,0h0Z" fill="#fff"/><path d="M83.6,244.4c-2.2.5-4.2.3-6.3,0-3.5.3-6.7,1.5-10.4,1,0,0,0,0,0-.1,1.3-.7,2.7-1,4.1-1.3,2.1-.4,4.2,0,6.3,0,2.1-.5,4.3-.6,6.3.3,0,0,0,.1,0,.1h0Z" fill="#fff"/><path d="M84.6,245.1c-2.4,1.2-4.8,1.9-7.4,2.7-3.9,2-7.2,5-11.4,6.5,0,0-.1,0,0-.1,3-3.5,7.2-5,11.3-6.7,2.2-1.5,4.8-2.6,7.5-2.4,0,0,0,.1,0,.1h0Z" fill="#fff"/><path d="M85,245.2c-.6,1.8-2,3-3.4,4.1-.8.9-1.2,2.1-1.8,3-.9,1.6-2,2.9-3.4,4.1,0,0-.1,0-.1,0,.2-1.2.8-2.3,1.4-3.4.9-1.6,2.5-2.6,3.6-4,.8-1.6,1.8-3.1,3.6-4,0,0,.1,0,0,0h0Z" fill="#fff"/><path d="M83.7,244.7c-1.7,1-3.4,1.2-5.3,1.3-1.8.1-3.6.3-5.4.4h0c1.8-.6,3.5-1,5.3-1.4,1.8-.5,3.6-.8,5.4-.4,0,0,0,.1,0,.1h0Z" fill="#fff"/><path d="M84.2,245.4c-1.6,2.4-4.6,3.6-6.9,5.4,0,0,0,0,0,0,.9-1.2,1.9-2.2,3-3.3,1-1.1,2.3-2,3.9-2.2,0,0,0,.1,0,.1h0Z" fill="#fff"/><path d="M83.9,237.4c-1.4-1.7-2-3.6-2.6-5.7-1.8-3.1-4.2-5.4-5.3-9,0,0,0-.1.1,0,1.2.9,2.1,2,2.9,3.1,1.2,1.7,1.7,3.9,2.7,5.7,1.3,1.7,2.4,3.6,2.4,5.8,0,0,0,0-.1,0h0Z" fill="#fff"/><path d="M84.1,239.2c-2-1.8-3.6-3.8-5.2-5.8-2.9-2.6-7.6-4.9-10.3-8.2,4.4,1.3,7.4,4.8,10.6,7.9,2.2,1.5,4.2,3.4,5.1,6.1,0,0,0,.1-.1,0h0Z" fill="#fff"/><path d="M84.2,239.2c-1.9,0-3.4-1-4.9-2-1.1-.5-2.3-.5-3.5-.9-1.8-.4-3.3-1-4.9-2,0,0,0-.1,0-.1,1.3-.2,2.5,0,3.6.3,1.8.4,3.2,1.6,4.9,2.3,1.8.3,3.5.8,4.8,2.3,0,0,0,.1,0,.1h0Z" fill="#fff"/><path d="M84.5,238.8c-1.3-1.5-3.1-3.6-4.2-5.2-1.3-1.8-2.8-3.5-4.2-5.3h0c1.7,1.4,3.3,3,4.9,4.6,1.6,1.6,3.2,3.5,3.5,5.8,0,0-.1,0-.1,0h0Z" fill="#fff"/><path d="M83.6,238.5c-2.8-.6-5-3-7.6-4.4,0,0,0-.1,0-.1,1.4.4,2.8,1,4.1,1.6,1.4.5,2.7,1.3,3.5,2.8,0,0,0,.1,0,.1h0Z" fill="#fff"/><path d="M90.8,237c-1.3-1.8-1.6-4-1.6-6.1-.3-2.1-1.2-4.1-1.2-6.2,0-1.4,0-2.8.4-4.2,0,0,.1,0,.1,0,1.2,3.5.7,6.9,1.1,10.4.7,2,1.4,3.9,1.3,6.1,0,0,0,0-.1,0h0Z" fill="#fff"/><path d="M91.7,237.7c-.6-2.7.2-5.4,1.3-7.8.8-2.5,1.1-5.2,2.2-7.6.7-1.6,1.6-3.2,2.8-4.5,0,0,.1,0,.1,0-.9,4.4-3.3,8.1-4.7,12.2-.4,2.6-.7,5.1-1.5,7.7,0,0-.1,0-.1,0h0Z" fill="#fff"/><path d="M91.3,237.3c-1.1-2.1-.9-4.5-.5-6.8.3-2.2.7-4.5,1.2-6.7h.1c-.3,3.4-.3,6.7-.4,10.1,0,0-.3,3.3-.3,3.3h-.1Z" fill="#fff"/><path d="M92,236.7c0-1.6.6-3,1.6-4.2.8-1.2,1.8-2.4,2.8-3.5h.1c-.7,1.4-1.3,2.7-2,4-.6,1.4-1.2,2.6-2.4,3.7,0,0-.1,0-.1,0h0Z" fill="#fff"/><path d="M84.6,242c-1-1.1.8-1.3.8-1.7s-.2-.7,0-1.1,0-.6,1.1-.7c1,0,.4.4,1,.2s.8-.5,1.2-.6.6-.2.9.2c.3.4.2.6.6.5s.6.2,1,.5c.4.2,1,.4,1.1.8s-.3.4.3.6c.6.2,1,0,.9.7,0,.7,0,.8-.5,1s-.3.6-.8,1c-.5.4,0,.9-.4,1.3s-1.2.7-1.4.4-.5,0-1.1,0-1.4.6-1.5.2-.2-.6-.7-.7-.8.2-1.1,0-.6-1.1-.4-1.3-.8-1.2-.8-1.2Z" fill="none" stroke="#fff" stroke-miterlimit="10" stroke-width=".6"/><path d="M91.8,241.6c.8.8-.6,1-.5,1.3s.2.5,0,.8,0,.5-.8.6-.4-.3-.8-.1-.6.4-.9.5-.4.2-.7,0-.2-.4-.4-.3-.5-.1-.7-.3-.7-.3-.8-.6c0-.3.2-.3-.3-.4s-.8,0-.7-.5c0-.5,0-.6.3-.8s.2-.5.6-.8,0-.7.2-1c.3-.3.9-.6,1.1-.4s.4,0,.8,0c.4,0,1.1-.5,1.1-.2s.2.4.5.5.6-.2.9,0,.5.8.4,1,.7.8.7.8Z" fill="none" stroke="#fff" stroke-miterlimit="10" stroke-width=".5"/><path d="M86.6,241.3c-.3-.7.6-.5.7-.7s0-.4.2-.6.2-.3.7-.1.1.3.4.3.5-.1.7,0,.3,0,.4.2,0,.3.2.3.3.2.4.4.4.4.4.6-.2.1,0,.3.5.2.3.5-.2.4-.4.4-.3.2-.6.3-.1.5-.4.6-.8.1-.8,0-.2,0-.5-.2-.8,0-.8-.2,0-.3-.2-.5-.4,0-.5-.3-.1-.7,0-.7-.2-.7-.2-.7Z" fill="none" stroke="#fff" stroke-miterlimit="10" stroke-width=".3"/><path d="M226,84.6c.4.8.8,1.4,1.2,1.8,0,0,.1,0,.2-.1.6-.2,1.1-.2,1.7,0,.5-.7,1.3-1,2.1-1.1.2-.4.4-.8.6-1.2-9.4-22.6-10.6-50.3,9.8-53.3,4.1-.6,8.2-9.6,13.4-8.4,11.3,2.6,10.7,14.5,12.1,22.3,3.1,16.9-10.3,32-28.6,41-.8,1.3-1.1,2.2-1.1,2.9.7.4,1.2,1,1.4,1.7.9.3,2.1.3,2.9.3,4.3-2.8,8.6-7.2,18.9-11.8,7.3-3.2,13-12.2,20.9-13.2,9.2-1.1,23.1,5.3,23.6,16.5.1,2.8-3.4,7.3-3.6,9.8-.8,9.4-.6,14.5-6,18.4-5.5,4-13.1,4.9-22.7,2.3-8.5-2.4-18.5-7.5-29.8-15.9-1-.2-1.9-.2-2.6-.1-.5.8-1.4,1.3-2.4,1.2,0,0,0,0-.1,0,0,.1,0,.2,0,.3,0,1.1-.8,2.1-1.8,2.5,0,.7,0,1.4.1,1.7,14.5,6.7,50.8,20.6,39.9,41.4-1.4,2.6.6,9.5-4.5,13.8-6.9,4-13.2-.4-16.8.1-12.9,1.9-22.7-17-24-53.3-.3-.9-.6-1.5-1-1.9-.1,0-.2-.2-.3-.3-.9-.6-2-.2-3,.4-1,7.3-3,18.1-7.3,26.8-4.4,8.9-13.4,19.7-23.7,18.5-4.7-.6-8.8-11.6-15.2-17-8.8-5.8-7.3-11.3-5.8-19.1,2.9-14.5,18.2-24.7,46.6-19,1.3-.1,2.1-.4,2.6-.7.1-.3.3-.6.6-.8,0-.8-.8-1.6-1.6-2.2-15.2-4.3-56.9,2.7-48.2-39,1.2-6,2.5,1.2,10-22,8.6-6.5,28.4,6,41.5,57Z" fill="none" stroke="#fff" stroke-miterlimit="10" stroke-width="4.2"/><path d="M226.4,102.3c-3.4.7-1.5-3.1-2.4-3.8-.9-.6-1.7-.5-2.2-1.2s-1.1-1,0-3,1.4-.3,1.7-1.6c.3-1.3,0-2.1.4-3.1.5-1,.4-1.4,1.4-1.5s1.5.2,1.6-.5,1.2-.9,2.1-1.3c.9-.4,2-1.4,2.9-1.1.9.3.4,1.1,1.5.1s1.4-1.9,2.6-.9c1.2,1,1.6,1.1,1.5,2.2s.8,1.4.9,2.9c.2,1.5,1.9,1,2.1,2.3.2,1.4,0,3.4-.9,3.3-.8,0-.6.9-1.3,2.1-.7,1.2-.6,3.6-1.5,3.3-.9-.3-1.5-.2-2.3.4-.8.7-.6,1.7-1.6,2.1s-2.9-.1-3.1-.9c-.2-.8-3.3.2-3.3.2Z" fill="#fff" stroke="#fff" stroke-miterlimit="10" stroke-width="1.4"/><path d="M224.4,101.7c-.2,3.9-2.2,7-4.6,9.9-1.8,3.1-2.8,6.8-5.1,9.7-1.5,1.9-3.1,3.8-5.2,5.2,0,0-.2,0-.2-.1,1.4-3.5,3.3-6.4,5.5-9.3,1.4-2,3.3-3.6,4.3-5.8,1.2-3.5,2.4-6.8,5-9.6,0,0,.2,0,.2,0h0Z" fill="#fff"/><path d="M221.9,97.4c-.8,2.2-2.2,4.1-3.8,5.8-1.5,1.8-3.6,2.8-5.5,4.2-2.4,1.9-4.3,4.3-6.8,6.2-3.5,2.9-7.5,5.3-12,6.7-.1,0-.2-.1-.1-.2,3.4-3.2,6.9-5.8,10.8-8.2,2.5-1.7,5.4-2.9,7.5-5,3-3.5,5.9-6.8,9.5-9.6,0,0,.2,0,.2.1h0Z" fill="#fff"/><path d="M221.8,94.4c-2.3,2.4-5.3,3.3-8.4,3.8-2.9,1.1-5.4,3.1-8.5,3.8-2,.5-4.1.8-6.3.5-.1,0-.1-.2,0-.2,2.8-1.6,5.5-2.7,8.5-3.4,1.9-.6,4.1-.5,6-1.4.9-.4,1.7-1.2,2.6-1.7,1.9-1,3.8-1.6,5.9-1.7.1,0,.2.1,0,.2h0Z" fill="#fff"/><path d="M223,99.2c-.9,4-4,7-7,9.4-3,2.6-6,5-9.2,7.3,0,0-.1-.2-.1-.2,2.7-2.8,5.5-5.5,8.1-8.4,2.5-3,5.1-5.6,8.1-8.2,0,0,.2.1.2.1h0Z" fill="#fff"/><path d="M225.3,100.1c-.7,3.2-2.7,5.8-4.9,8.1-1.8,2.1-4.4,5.1-6.3,7,0,0-.2-.1-.2-.1,1.4-2.3,3.5-5.7,5-8,1.6-2.8,3.4-5.3,6.1-7.1,0,0,.2.1.2.1h0Z" fill="#fff"/><path d="M225.5,103.5c.7,5.2-2.3,9.6-4.9,13.8-.9,1.4-1.9,2.7-3,3.9,0,0-.2-.1-.2-.1,1.6-2.8,2.9-5.8,4-8.8,1-3.2,1.9-6.1,3.8-8.9,0,0,.2,0,.2,0h0Z" fill="#fff"/><path d="M220.5,97c-2.1,3.6-6.2,4.5-9.8,5.9-1.2.4-2.4.8-3.7,1.1v-.2c2.1-1.3,4.3-2.5,6.5-3.8,2.1-1.5,4.2-2.7,6.9-3.1,0,0,.1.2.1.2h0Z" fill="#fff"/><path d="M221,93.8c-2.4,1.2-4.6,1.4-7.2,1.4,0,0-3.7.3-3.7.3l-3.7.3v-.2c1.1-.5,2.3-.8,3.5-1.2,3.6-.9,7.4-2.7,11.1-.9,0,0,0,.2,0,.2h0Z" fill="#fff"/><path d="M174.2,119.8c.3-2,1.3-3.8,2.7-5.2.7-.7,1.6-1.2,2.3-1.9,1.4-1.3,2.1-3.3,3.5-4.7,1.2-1.5,2.8-2.8,4.6-3.6.9-.4,1.9-.8,3-.8v.2c-2,2-3.8,4-6.1,5.7-1.4,1.2-3.3,2.1-4.4,3.6-.6.8-.9,1.7-1.4,2.5-.7,1.2-1.7,2.2-2.8,3.2-.4.3-.7.6-1.2.9h-.2Z" fill="#fff"/><path d="M186.9,138.6c1.5-1.7,3.2-2.6,5.2-3.2,1.2-.5,2.8-.4,3.9-1.2.6-.4,1-1,1.5-1.5,1.1-.9,2.5-1.3,3.8-1.6,0,0,0,0,0,0,0,.6-.3.9-.5,1.2-.6.9-1.5,1.6-2.5,2-.7.2-1.5.2-2.1.5-1.9.9-3.1,2.7-5.2,3.4-1.3.5-2.7.8-4.2.5,0,0-.1-.1,0-.2h0Z" fill="#fff"/><path d="M175.1,126.8c1-3.5,3.8-6,6.8-7.8,2.7-1.7,6.2-4.2,9.1-5.1-2.5,2.2-5.5,4.2-8,6.5-2.5,2.4-4.8,4.6-7.7,6.5,0,0-.2,0-.2-.1h0Z" fill="#fff"/><path d="M184.6,136.7c2.2-2.8,5.2-4.5,8.4-5.8,0,0,4.6-2.2,4.6-2.2,1.4-.8,3.1-1.3,4.3-2.5,0-.1.2-.2.2,0-.3.9-1.2,1.3-1.8,1.9-1.3,1.1-4.9,3.4-6.4,4.3-2.8,2-5.7,3.7-9.2,4.5-.1,0-.2-.1-.1-.2h0Z" fill="#fff"/><path d="M177.4,127.4c.4-1.2,1.2-2.2,2.4-2.7,1.2-.3,2.4-.5,3.1-1.6,1.6-1.9,3.8-3.2,6.4-2.8,0,0,.1.1,0,.2-.8,1.1-1.6,1.9-2.6,2.5-1,.6-2.1,1-3.2,1.2-.6.1-1.2.3-1.6.7-.4.4-.7,1-1.1,1.4-.4.4-.9.7-1.4.9-.5.2-1.1.4-1.8.4,0,0-.2,0-.1-.2h0Z" fill="#fff"/><path d="M183.8,132.8c.6-1.2,1.5-2,2.6-2.4.6-.2,1.3-.1,1.8-.3.5-.2,1-.6,1.4-1.1.8-.9,1.7-1.6,2.7-2.2,1-.5,2.3-.8,3.4-1,0,0,.1,0,0,0-.5,1.9-2.1,3.1-3.9,3.8-1,.5-2.4.4-3.4,1.1-.5.3-.8.9-1.2,1.3-.4.4-1,.6-1.5.8-.6.2-1.2.3-1.9.2,0,0-.1-.1-.1-.2h0Z" fill="#fff"/><path d="M191,143.5c1.5-1.2,2.9-1.9,4.6-2.4,1.7-.4,3.5-.4,4.9-1.6.8-.6,1.6-1.3,2.2-2,1.7-1.8,4.3-4,6.6-5.8,0,0,.2.1.2.1-.5,3-2.7,5.6-5.3,7.1,0,0,.3-.4.3-.4-.8,1.2-2.4,1.4-3.6,1.8-2.3.6-3.9,2.8-6.3,3.2-1.2.3-2.4.4-3.6.2v-.2h0Z" fill="#fff"/><path d="M174.7,123c.4-3.7,4.2-5.3,6.9-7.2,1-.6,1.9-1.1,2.9-1.7,0,0,.1.2.1.2l-4.6,4.7c-1.4,1.8-2.9,3.1-5.1,4.1,0,0-.2-.1-.2-.1h0Z" fill="#fff"/><path d="M192.1,145.1c1.9-1.4,3.7-2.1,6-2.5,0,0,6.3-1.8,6.3-1.8v.2c-1.8,1.2-3.7,2.3-5.7,3.3-2,1.2-4.4,2-6.6,1,0,0,0-.2,0-.2h0Z" fill="#fff"/><path d="M188.7,140.3c1.7-1.1,3-1.6,4.9-1.9,1.6-.5,3.5-.8,4.8-1.7,0,0,.2,0,.2,0,0,.4-.2.5-.4.7-1.2,1.1-2.6,2-4.1,2.7-1.7,1-3.8,1.7-5.6.4,0,0,0-.2,0-.2h0Z" fill="#fff"/><path d="M174.2,115.9c-.7-3.2,1.8-5.4,3.7-7.5.7-.7,1.4-1.3,2.1-1.8l.2.2c-1,1.5-1.8,3.1-2.6,4.7-.7,1.8-1.4,3.3-3.1,4.5,0,0-.2,0-.2,0h0Z" fill="#fff"/><path d="M181.2,131.1c.5-3.2,3.6-4.3,6.2-5.6.9-.4,1.7-.7,2.7-.9v.2c-1.4,1-2.8,2.2-4.1,3.4-1.3,1.5-2.5,2.5-4.5,3,0,0-.2-.2-.2-.2h0Z" fill="#fff"/><path d="M178.6,129.1c.7-1.6,1.7-2.2,3.1-2.7,0,0,1.9-.9,1.9-.9l1.9-.9s.1.2.1.2c-.4.6-.9,1.1-1.4,1.6-.9.8-2.1,2.3-3.2,2.8-.7.2-1.5.4-2.4,0,0,0,0-.2,0-.2h0Z" fill="#fff"/><path d="M301.9,76.4c-1.9-.2-3.8-.8-5.5-1.7-.8-.5-1.6-1.2-2.5-1.5-1.7-.8-3.8-.6-5.6-1-2.8-.4-5.4-1.2-8.2-1.9,0,0,0-.2,0-.2.9-.6,2-.7,3-.8,2-.2,4,.2,5.8.9,1.9.6,3.5,1.9,5.3,2.4,1.9.3,3.9.5,5.6,1.7.8.5,1.6,1.2,2.2,2v.2h-.1Z" fill="#fff"/><path d="M300.3,99.1c-1.8,1.4-3.9,1.8-6,1.7-1.4,0-2.8-.7-4.1-.5-1.4.4-2.6,1-4.1.5-.8-.2-1.5-.4-2-1.2,0,0,0,0,0-.1,1.3-.4,2.7-.7,4.1-.5.7.1,1.4.5,2,.5,2,0,3.9-1.2,6-1.2,1.3,0,2.7,0,4.2.5,0,0,.1.2,0,.2h0Z" fill="#fff"/><path d="M304.6,83c-3.5-.3-6.6-1-9.9-1.9-3.3-.7-6.7-1.2-10-1.6,0,0-.1,0-.1-.1,3.3-.6,7-.2,10.4,0,3.5.1,7.1.9,9.7,3.5,0,0,0,.2,0,.2h0Z" fill="#fff"/><path d="M301.3,96.2c-3.4,1-6.7,1-10.2.6-1.8-.1-5.9-.4-7.7-.6-.9-.2-1.9-.1-2.5-.8,0-.2.1-.2.2,0,0,0,.3.1.5.1,2.6.2,6.8-.3,9.5-.4,3.4-.4,6.9-.5,10.2.9,0,0,0,.2,0,.2h0Z" fill="#fff"/><path d="M303,84.6c-1.1.6-2.3.8-3.5.5-.6-.2-1.1-.6-1.7-.7-.6-.1-1.1,0-1.7.2-1.1.4-2.3.5-3.4.5-1.1,0-2.3-.3-3.5-.9,0,0,0-.1,0-.2,1.6-1.3,3.4-1.5,5.2-1.2,1.2,0,2.3.9,3.5.8.6,0,1.2-.4,1.8-.5.6-.1,1.2,0,1.7.2.6.2,1.1.5,1.6.9,0,0,0,.2,0,.2h0Z" fill="#fff"/><path d="M300.1,92.5c-1.1.7-2.2,1.1-3.5.8-.6-.1-1.2-.5-1.7-.6-.6,0-1.2,0-1.7.2-1.7.6-3.5.8-5.2.1-.6-.2-1.2-.4-1.7-1.1,0-.1,0-.1.1-.2,1.7-.6,3.4-1,5.1-.6,1.1,0,2.3.9,3.4.7.6,0,1.2-.4,1.7-.6.6-.1,1.2,0,1.7,0,.6.1,1.2.3,1.7.7,0,0,0,.2,0,.2h0Z" fill="#fff"/><path d="M299.1,105.3c-1.5,1.1-3.2,1.7-5,1.9-1.8,0-3.6-.5-5.3,0-1.3.2-2.8.8-4,.2,0,0,.5.2.5.2-3,0-6.2-1.2-8.1-3.6,0,0,.1-.2.1-.2,1.5.2,2.9.5,4.2.8,1.4.3,3.4.7,4.5,1.1.9.3,1.9.5,2.8.6,2.4.4,4.4-1.3,6.7-1.3,1.1,0,2.3-.1,3.5,0v.2h0Z" fill="#fff"/><path d="M303,79.4c-2.4.2-4.3-.2-6.4-1.1,0,0-6.3-1.8-6.3-1.8v-.2c2.3,0,4.5,0,6.7.3,2.3,0,4.8.6,6.2,2.6,0,0-.1.2-.1.2h0Z" fill="#fff"/><path d="M299,107.2c-2.3,2.9-6.3,2.3-9.6,2.5-1.1,0-2.2,0-3.3-.1v-.2s6.4-1.5,6.4-1.5c2.2-.8,4.1-1,6.4-.8,0,0,.1.2.1.2h0Z" fill="#fff"/><path d="M299.6,101.3c-1,2-3.1,2.5-5,2.4-1.4,0-2.8,0-4.2-.2-.5-.1-1,0-1.4-.6,0,0,.2,0,.2,0,1.7.1,3.4-.5,5.1-.9.9-.2,1.6-.7,2.5-.8.9,0,1.7,0,2.7,0v.2h.1Z" fill="#fff"/><path d="M301.4,89.7c-2,.6-3.6.3-5.4-.4-1.8-.4-3.5-.7-5.4-.9,0,0,0-.2,0-.2,1.8-.5,3.7-.7,5.6-.7,2-.2,3.9.3,5.3,1.9,0,0,0,.2,0,.2h0Z" fill="#fff"/><path d="M302.8,86.7c-1.2,1.3-2.7,1.3-4.2.8-1.4-.3-2.8-.7-4.1-1.2,0,0,0-.2,0-.2l2.1-.2,2.1-.2c.7,0,1.4-.3,2-.1.7.2,1.3.4,2,.9v.2h0Z" fill="#fff"/><path d="M266.7,38.4c.4,2,.2,4-.5,5.8-.4.9-1.1,1.7-1.4,2.6-.8,1.8-.8,3.8-1.5,5.6-.6,1.9-1.6,3.7-2.9,5.1-.7.7-1.4,1.4-2.5,1.8v-.2c1-2.7,2-5.2,3.5-7.6.8-1.7,2.3-3.2,2.7-5,.2-.9.2-1.9.3-2.9.2-1.4.8-2.7,1.4-4,.2-.4.4-.9.7-1.3h.2Z" fill="#fff"/><path d="M251.2,24.1c-.1,2.3-.8,4.1-2,5.8-.6,1.2-1.9,2.1-2.3,3.4-.2.7-.1,1.4-.2,2.1-.3,1.4-1.1,2.5-1.9,3.6,0,0,0,0,0,0-.4-.4-.3-.8-.4-1.2,0-1.1.1-2.2.7-3.1.4-.6,1-1.1,1.3-1.7.9-1.9.7-4.1,1.8-6,.7-1.2,1.6-2.3,2.9-3.1,0,0,.2,0,.2.1h0Z" fill="#fff"/><path d="M263.9,31.6c1.4,3.4.8,7-.3,10.3-1,3-2.2,7.2-3.8,9.7.6-3.3,1.6-6.7,2.1-10.1.4-3.4.8-6.6,1.8-9.9,0-.1.2-.1.2,0h0Z" fill="#fff"/><path d="M254.4,22.5c.2,5.3-3,9.7-4.9,14.5-.6,1.5-1.6,3-1.7,4.6,0,.1,0,.3-.2.2-.4-.9,0-1.8.2-2.7.4-1.7,1.6-5.7,2.2-7.4.9-3.4,2.1-6.5,4.3-9.3,0,0,.2,0,.2,0h0Z" fill="#fff"/><path d="M263.8,27.4c.4,1.2.4,2.5-.1,3.6-.8,1-1.5,1.9-1.4,3.2,0,2.5-.9,4.8-3.1,6.2,0,0-.2,0-.2,0-.1-1.3,0-2.5.4-3.6.4-1.1,1-2.1,1.7-3,.4-.5.7-1,.8-1.6.1-.6,0-1.2,0-1.8,0-.6.3-1.1.5-1.6.3-.5.6-1,1.2-1.5,0,0,.2,0,.2,0h0Z" fill="#fff"/><path d="M257.1,23c.3,1.3.1,2.5-.5,3.5-.3.5-.9.9-1.2,1.4-.3.5-.4,1.1-.4,1.7,0,1.2-.2,2.3-.6,3.4-.5,1.1-1.2,2.1-2,3,0,0-.1,0-.1,0-.8-1.8-.3-3.7.6-5.4.5-1.1,1.6-1.8,1.9-3,.1-.6,0-1.2,0-1.8,0-.6.4-1.1.7-1.6.3-.5.7-.9,1.3-1.3,0,0,.2,0,.2,0h0Z" fill="#fff"/><path d="M240.7,31c-.4,1.8-1.1,3.3-2,4.8-1.1,1.3-2.5,2.6-2.8,4.3-.2.8-.4,2.4-.4,2.9-.2,3-.8,5.8-1.4,8.8,0,0-.2,0-.2,0-1.5-2.7-1.5-6-.4-8.9,0,0,0,.5,0,.5-.1-1.4.9-2.6,1.6-3.7,1.4-1.9,1.2-4.6,2.8-6.5.7-.9,1.6-1.8,2.6-2.5h.2Z" fill="#fff"/><path d="M238.8,30.5c-.6,2.3-1.6,4-3,5.7,0,0-3.7,5.4-3.7,5.4h-.2c.7-2.2,1.4-4.3,2.4-6.3.8-2.1,2.1-4.3,4.5-5,0,0,.1.2.1.2h0Z" fill="#fff"/><path d="M245,30.2c-.6,1.9-1.3,3.2-2.6,4.6-.9,1.4-2.2,2.8-2.6,4.4,0,0-.2.2-.2.2-.2-.3-.1-.5-.2-.8.2-1.6.7-3.2,1.4-4.7.6-1.9,1.8-3.7,4.1-3.8,0,0,.1.2.1.2h0Z" fill="#fff"/><path d="M259.3,23.5c.5,3.1-.3,6-1.7,8.7-1.2,2.7-2.5,5.3-4.1,7.8,0,0-.2-.1-.2-.1,1-2.7,1.9-5.5,2.6-8.3.6-2.9,1.4-5.6,3.2-8.1,0,0,.2,0,.2,0h0Z" fill="#fff"/><path d="M261.8,26.5c.5,1.6.1,2.8-.7,4.1,0,0-.9,1.9-.9,1.9l-.9,1.9h-.2c0-.8,0-1.5,0-2.2.2-1.2.2-3.1.7-4.2.4-.6.9-1.2,1.8-1.6h.2Z" fill="#fff"/><path d="M253.1,156.4c-1.9-.7-3.5-1.9-4.7-3.5-.5-.8-.9-1.8-1.5-2.6-1.1-1.6-2.9-2.7-4-4.2-1.3-1.5-2.3-3.2-2.8-5.2-.3-1-.5-2-.3-3.1h.2c1.7,2.4,3.3,4.5,4.6,7,1,1.6,1.5,3.6,2.9,5,.7.7,1.6,1.2,2.3,1.8,1.1.9,1.9,2.1,2.7,3.3.3.4.5.8.7,1.3v.2h-.1Z" fill="#fff"/><path d="M273.4,150.6c-1.8-1.3-3-2.8-3.9-4.7-.7-1.2-.8-2.7-1.7-3.7-.5-.5-1.1-.8-1.7-1.3-1-.9-1.6-2.3-2.1-3.5,0,0,0,0,0,0,.5,0,.9.1,1.2.3.9.5,1.8,1.3,2.3,2.2.3.6.4,1.4.8,2,1.1,1.7,3.1,2.7,4.1,4.7.6,1.2,1.1,2.6,1.1,4.1,0,0-.1.2-.2.1h0Z" fill="#fff"/><path d="M260.3,157.6c-3.6-.5-6.4-2.9-8.7-5.6-2.1-2.4-5-5.6-6.3-8.3,2.5,2.2,4.9,4.9,7.5,7,2.8,2.1,5.2,4.1,7.5,6.7,0,0,0,.2-.1.2h0Z" fill="#fff"/><path d="M273.1,154.2c-3.1-1.8-5.2-4.6-6.9-7.5,0,0-2.8-4.2-2.8-4.2-1-1.3-1.7-2.9-3-3.9-.1,0-.2-.2,0-.2.9.1,1.5,1,2.2,1.6,1.3,1.2,4,4.4,5.2,5.7,2.4,2.5,4.4,5.2,5.7,8.5,0,0,0,.2-.2.1h0Z" fill="#fff"/><path d="M263.9,159.7c-1.3-.3-2.3-.9-3-2-.4-1.2-.8-2.3-2-2.9-2.1-1.3-3.7-3.3-3.7-5.9,0,0,.1-.2.2-.1,1.2.6,2.1,1.3,2.8,2.2.7.9,1.3,1.9,1.6,3,.2.6.5,1.1.9,1.5.4.4,1.1.6,1.6.9.5.3.8.8,1.1,1.3.3.5.5,1.1.6,1.8,0,0,0,.2-.2.2h0Z" fill="#fff"/><path d="M271.2,156.2c-1.2-.4-2.2-1.2-2.7-2.3-.2-.5-.3-1.2-.6-1.7-.3-.5-.7-.9-1.3-1.2-1-.6-1.9-1.4-2.6-2.3-.7-.9-1.1-2.1-1.5-3.3,0,0,0-.1,0-.1,2,.3,3.3,1.7,4.3,3.3.7.9.7,2.4,1.6,3.2.4.4,1,.7,1.5,1,.5.4.7.9,1,1.4.2.5.4,1.1.4,1.8,0,0,0,.2-.2.1h0Z" fill="#fff"/><path d="M276,141.8c-1.3-1.3-2.2-2.7-3-4.3-.6-1.6-.9-3.5-2.2-4.6-.7-.7-1.5-1.4-2.3-1.9-2-1.5-4.6-3.7-6.7-5.7,0,0,0-.2,0-.2,3.1.1,5.9,1.9,7.8,4.3,0,0-.4-.3-.4-.3,1.3.6,1.7,2.2,2.3,3.3.9,2.2,3.3,3.5,4,5.8.4,1.1.7,2.3.7,3.5,0,0-.2,0-.2,0h0Z" fill="#fff"/><path d="M276.6,137c-1.6-1.7-2.6-3.4-3.3-5.6,0,0-2.7-6-2.7-6,0,0,.2-.1.2-.1,1.5,1.7,2.8,3.4,4.1,5.3,1.4,1.8,2.6,4.1,1.9,6.4,0,0-.2,0-.2,0h0Z" fill="#fff"/><path d="M274,146.2c-1.3-1.5-2-2.8-2.5-4.6-.7-1.5-1.3-3.3-2.4-4.6,0,0,0-.2,0-.2.4,0,.5.2.8.3,1.3,1,2.3,2.3,3.3,3.6,1.3,1.5,2.2,3.5,1.2,5.5,0,0-.2,0-.2,0h0Z" fill="#fff"/><path d="M269.6,157.9c-2.9-1.1-4.9-3.4-6.5-6-1.7-2.4-3.3-4.9-4.5-7.6h.2c1.8,2.2,3.7,4.4,5.7,6.5,2.2,2,4.1,4.1,5.3,6.9,0,0-.2.2-.2.2h0Z" fill="#fff"/><path d="M265.8,158.4c-1.6-.4-2.4-1.3-3.1-2.7,0,0-1.1-1.7-1.1-1.7l-1.1-1.8.2-.2c.6.4,1.2.8,1.8,1.2,1,.8,2.6,1.8,3.2,2.8.3.7.6,1.4.4,2.3h-.2Z" fill="#fff"/><path d="M192.5,27.5c1.8.9,3.3,2.3,4.2,4,.4.9.7,1.9,1.1,2.7.9,1.7,2.5,3,3.5,4.7,1.1,1.6,1.9,3.5,2.2,5.5.1,1,.2,2,0,3.1,0,0-.2,0-.2,0-1.4-2.6-2.8-4.8-3.8-7.5-.8-1.7-1.1-3.7-2.2-5.3-.6-.8-1.4-1.4-2.1-2-1-1-1.7-2.3-2.3-3.6-.2-.4-.4-.9-.6-1.4l.2-.2h0Z" fill="#fff"/><path d="M175,51.4c1.9,1.2,3.2,2.6,4.2,4.5.7,1.1.9,2.7,1.9,3.6.5.5,1.2.8,1.7,1.2,1.1.9,1.7,2.2,2.3,3.4,0,0,0,0,0,0-.5.1-.9,0-1.3-.2-1-.5-1.9-1.1-2.4-2.1-.3-.6-.5-1.4-.9-1.9-1.2-1.6-3.3-2.5-4.4-4.4-.7-1.2-1.3-2.5-1.4-4,0,0,.1-.2.2-.1h0Z" fill="#fff"/><path d="M184.5,28.8c3.4,1.4,5.5,4.4,7.1,7.6,1.4,2.8,3.5,6.6,4.1,9.6-1.9-2.7-3.6-5.9-5.6-8.6-2.2-2.7-4-5.2-5.7-8.3,0,0,0-.2.1-.2h0Z" fill="#fff"/><path d="M175.9,47.2c3.2,1.6,5.4,4.2,7.4,7.1,0,0,3.1,4.1,3.1,4.1,1,1.2,1.9,2.8,3.3,3.7.1,0,.2.2,0,.2-.9,0-1.5-.9-2.2-1.4-1.3-1.1-4.3-4.1-5.5-5.4-2.6-2.4-4.7-4.9-6.2-8.1,0,0,0-.2.2-.2h0Z" fill="#fff"/><path d="M182.7,32c1.2.4,2.2,1.1,2.8,2.2.3,1.2.6,2.3,1.8,3,2,1.4,3.4,3.6,3.2,6.2,0,0-.1.2-.2.1-1.2-.7-2-1.5-2.6-2.4-.6-1-1.1-2-1.4-3.2-.2-.6-.4-1.1-.8-1.5-.4-.4-1-.7-1.5-1-.5-.4-.7-.9-1-1.4-.2-.5-.5-1.1-.5-1.8,0,0,0-.2.2-.1h0Z" fill="#fff"/><path d="M178.9,44.1c1.3.3,2.2,1,2.9,2.1.3.5.4,1.2.7,1.7.3.5.8.8,1.3,1.1,1.1.6,1.9,1.3,2.7,2.2.7.9,1.3,2,1.7,3.2,0,0,0,.1,0,.1-2-.1-3.4-1.5-4.5-3-.7-.9-.9-2.3-1.8-3.1-.4-.4-1.1-.6-1.6-.9-.5-.3-.8-.8-1.1-1.4-.3-.5-.5-1.1-.5-1.8,0,0,0-.2.2-.1h0Z" fill="#fff"/><path d="M172.9,60.4c1.4,1.2,2.4,2.5,3.3,4.1.7,1.6,1.1,3.4,2.5,4.5.6.6,2,1.5,2.4,1.7,2.6,1.6,4.7,3.4,7.1,5.4,0,0,0,.2,0,.2-3.1,0-6-1.5-8-3.8,0,0,.4.2.4.2-1.3-.6-1.8-2-2.5-3.2-1-2.2-3.5-3.3-4.4-5.5-.5-1.1-.9-2.2-.9-3.5h.2Z" fill="#fff"/><path d="M188,26.5c3.6,1,4.4,5.1,5.8,8.1.4,1,.8,2.1,1.1,3.2,0,0-.2,0-.2,0l-3.7-5.4c-1.5-1.7-2.5-3.4-3.1-5.7,0,0,.1-.2.1-.2h0Z" fill="#fff"/><path d="M174.2,55.6c1.4,1.4,2.2,2.6,2.8,4.4.8,1.5,1.5,3.2,2.7,4.4,0,0,0,.2,0,.2-.4,0-.5-.1-.8-.2-1.4-.9-2.5-2.1-3.5-3.4-1.3-1.4-2.4-3.3-1.5-5.4,0,0,.2,0,.2,0h0Z" fill="#fff"/><path d="M199.2,32c3.2.7,4,3.9,5.1,6.6.3.9.6,1.8.7,2.7h-.2c-.9-1.5-2-3-3.1-4.4-1.4-1.4-2.3-2.7-2.6-4.8,0,0,.2-.2.2-.2h0Z" fill="#fff"/><path d="M179.7,41.2c3.2-.1,5,2.7,6.7,4.9.5.8,1,1.6,1.4,2.4,0,0-.2.1-.2.1-1.3-1.3-2.7-2.4-4.2-3.4-1.7-1-3-1.9-3.8-3.9,0,0,.1-.2.1-.2h0Z" fill="#fff"/><path d="M181.4,36.7c1.7.3,2.5,1.2,3.3,2.5,0,0,1.2,1.7,1.2,1.7l1.2,1.7v.2c-.8-.3-1.4-.7-2-1.1-1-.8-2.7-1.6-3.4-2.6-.4-.6-.6-1.4-.6-2.3h.2Z" fill="#fff"/><path d="M222.7,87.2c-3.9.4-7.3-1-10.5-2.9-3.4-1.3-7.2-1.7-10.4-3.5-2.2-1.1-4.2-2.5-6-4.3,0,0,0-.2.1-.2,3.6.8,6.9,2.2,10.1,3.9,2.2,1,4.1,2.7,6.4,3.3,3.6.6,7.1,1.3,10.3,3.4,0,0,0,.2,0,.2h0Z" fill="#fff"/><path d="M225.3,86.8c-2.3-.5-4.4-1.5-6.4-2.8-2-1.2-3.4-3.1-5.1-4.7-2.2-2.1-5-3.6-7.2-5.7-3.5-3-6.5-6.6-8.6-10.7,0-.1,0-.2.2-.1,3.7,2.8,6.9,5.9,9.9,9.3,2.1,2.2,3.7,4.8,6.2,6.6,3.3,2.1,6.3,3.8,9.3,6.3.6.5,1.2.9,1.8,1.5,0,0,0,.2-.1.2h0Z" fill="#fff"/><path d="M225.4,86.2c-2.8-1.9-4.1-4.7-5.1-7.7-1.5-2.7-4-4.8-5.2-7.7-.8-1.9-1.5-3.9-1.5-6.1,0-.1.1-.2.2,0,2.1,2.4,3.6,5,4.7,7.9.9,1.8,1.2,4,2.4,5.7.6.8,1.4,1.5,2.1,2.3,1.3,1.7,2.2,3.5,2.6,5.6,0,.1-.1.2-.2.1h0Z" fill="#fff"/><path d="M224.7,86.7c-4,.3-7.8-1.7-11.1-3.8-3.3-2-6.6-4.2-9.7-6.6,0,0,.1-.2.1-.2,3.5,1.8,6.9,3.5,10.4,5.2,3.6,1.4,6.9,3.2,10.3,5.2,0,0,0,.2,0,.2h0Z" fill="#fff"/><path d="M223.6,85.4c-2.4-1.2-4-2.8-5.5-4.8,0,0-2.4-2.7-2.4-2.7l-2.5-2.7v-.2c1.2.6,2.2,1.4,3.2,2.1,2.9,2.3,6.6,4.3,7.4,8.3,0,0-.2.1-.2.1h0Z" fill="#fff"/><path d="M235.6,84.7c2.3-3.1,5.2-4.9,8.4-6.8,1.9-1.5,3.1-3.7,4.8-5.4,2.4-2.8,4.9-5.2,8-7.3,0,0,.2,0,.2.1-1,2.3-2.5,4.3-4.1,6.1-2.4,2.8-5.8,4.5-8.5,7-2.4,2.9-5,5.4-8.8,6.5-.1,0-.2-.1-.1-.2h0Z" fill="#fff"/><path d="M233.4,84.9c1.9-4.2,4.4-7.8,7-11.6,1.5-2.6,1.9-5.7,3-8.6,1.4-4.4,3-8.5,5.2-12.5,0-.1.2,0,.2,0-.2,4.7-1.5,9.1-3.5,13.3-1.2,2.8-3.1,5.3-4.3,8.1-.9,2.1-1.4,4.4-2.7,6.3-.4.6-.9,1.4-1.3,1.9-1,1.2-2.1,2.3-3.4,3.2,0,0-.2,0-.2-.1h0Z" fill="#fff"/><path d="M232.9,85.2c-.7-2-.8-4.1-.6-6.1.2-1,.5-2,.6-3.1.2-2.1-.7-4.1-.9-6.1-.5-3.1-.5-6,0-9.2,0-.1.2-.1.2,0,1.1,1.9,1.5,4,1.8,6,.5,3.1-.5,6.2-.5,9.3.7,3.1.9,6.2-.5,9.2,0,0-.2,0-.2,0h0Z" fill="#fff"/><path d="M235.1,84.5c1.3-3,3.4-5.3,5.8-7.4,0,0,3.4-3.3,3.4-3.3,1.2-1.1,2.3-2.2,3.4-3.2,0,0,.2.1.2.1-1.5,2.2-3.9,5.4-5.6,7.5-1.8,2.6-3.9,5-7,6.4,0,0-.2-.2-.2-.2h0Z" fill="#fff"/><path d="M233.7,84c-.3-2.7.3-5,1.2-7.5.7-2.4,1.4-4.9,2-7.3,0,0,.2,0,.2,0,0,2.6-.2,5.1-.5,7.7-.2,2.6-.8,5.2-2.8,7.2,0,0-.2,0-.2,0h0Z" fill="#fff"/><path d="M242.8,94.4c3.7.7,6.7,2.7,9.7,4.7,2.1,1.1,4.7,1.3,6.9,2,3.5,1,6.8,2.3,10,4.2,0,0,0,.2,0,.2-2.5,0-4.9-.4-7.3-1.1-3.6-1-6.5-3.3-9.9-4.7-2.3-.7-4.8-1.2-6.8-2.7-1-.7-2-1.5-2.8-2.5,0,0,0-.2.1-.2h0Z" fill="#fff"/><path d="M240.7,92.2c4.6.1,8.9,1.1,13.4,2.1,3,.4,6-.4,9-.5,4.6-.4,9-.4,13.6.1.1,0,.1.2,0,.2-4.4,1.5-9,2-13.6,1.8-3.1,0-6.1-.9-9.1-.9-2.3,0-4.6.4-6.9-.1-.7-.1-1.6-.3-2.2-.5-1.5-.4-2.9-1.1-4.3-1.9,0,0,0-.2,0-.2h0Z" fill="#fff"/><path d="M240.4,92.4c1.7-1.2,3.6-2,5.7-2.4,1-.2,2.1,0,3.1-.3,2-.4,3.7-1.9,5.6-2.6,2.8-1.4,5.6-2.3,8.8-2.7.1,0,.2.1.1.2-1.5,1.6-3.3,2.6-5.2,3.5-2.8,1.4-6.1,1.3-9,2.3-2.7,1.6-5.6,2.7-8.9,2.3-.1,0-.1-.2,0-.2h0Z" fill="#fff"/><path d="M240.5,93.1c5.8.7,11.2,2.6,16.9,3.7,1.9.4,3.8.8,5.7,1.2,0,0,0,.2,0,.2-5.8-.3-11.8-.6-17.5-2.1-1.9-.7-3.8-1.5-5.2-2.9,0,0,.1-.2.1-.2h0Z" fill="#fff"/><path d="M242,92.7c2.4-1.3,4.8-1.6,7.4-1.6,2.5-.2,5-.5,7.5-.8,0,0,0,.2,0,.2-2.4,1-4.8,1.7-7.3,2.4-2.5.8-5.1,1.2-7.7,0,0,0,0-.2,0-.2h0Z" fill="#fff"/><path d="M234,102.6c3.8,1,6.4,3.5,8.7,6.5,2.7,2.4,6.1,4.2,8.4,7,1.6,1.8,3,3.8,4,6.2,0,.1,0,.2-.2.1-3.1-2.1-5.6-4.5-8-7.3-1.6-1.8-2.8-4-4.8-5.4-3.2-1.9-6.1-3.8-8.4-6.8,0,0,0-.2.1-.2h0Z" fill="#fff"/><path d="M232,102.6c1.8,1.5,3.3,3.3,4.4,5.3,1.3,2,1.6,4.3,2.4,6.5,1,2.9,2.8,5.4,3.9,8.3,1.7,4.3,2.8,8.8,2.8,13.4,0,.1-.2.2-.2,0-2-4.2-3.5-8.4-4.6-12.8-.9-2.9-1.2-6-2.5-8.7-2.4-3.9-4.7-7.6-6.3-12,0-.1,0-.2.2-.1h0Z" fill="#fff"/><path d="M233.1,102.7c3.8,1.6,6.2,5.1,8.1,8.5,2,3.3,3.9,6.8,5.6,10.3,0,0-.2.1-.2.1-2.3-3.2-4.5-6.3-6.9-9.4-2.6-3-4.7-6-6.8-9.4,0,0,.1-.2.1-.2h0Z" fill="#fff"/><path d="M232.8,104.2c2.8,3.1,2.4,7.3,2.6,11.1,0,1.3,0,2.6,0,3.8h-.2c-.5-2.5-1.1-4.9-1.7-7.4-.8-2.5-1.3-4.8-.9-7.5,0,0,.2,0,.2,0h0Z" fill="#fff"/><path d="M236.9,89c2.6.3.3,2.6.8,3.2s1.1.7,1.3,1.4.5.9-.7,2.1c-1.2,1.2-1.1,0-1.6.8-.5.8-.4,1.5-1,2.1-.6.6-.6.9-1.3.7s-1-.5-1.3,0-1.1.4-1.8.4c-.7,0-1.7.5-2.3.1s0-.9-1-.4-1.4,1-2,0-.8-1.2-.5-1.9c.3-.7-.2-1.2,0-2.2.2-1.1-1.1-1.1-1-2.1.2-1,.8-2.3,1.4-2.1s.6-.5,1.4-1.2c.8-.7,1.3-2.4,1.8-2s1,.5,1.7.2c.7-.3.9-1.1,1.6-1.1.8,0,2,.8,2,1.4,0,.6,2.4.7,2.4.7Z" fill="#fff" stroke="#fff" stroke-miterlimit="10" stroke-width="1"/><path d="M227.6,97.4c-2-.2-.3-1.9-.7-2.4s-.8-.5-1-1-.4-.7.4-1.6c.9-.9.8,0,1.2-.6.4-.7.3-1.2.7-1.6s.4-.7,1-.6.8.4,1,0c.2-.4.8-.3,1.3-.4s1.3-.5,1.7-.2,0,.7.8.3,1-.8,1.5,0c.5.7.7.8.5,1.4s.2.9,0,1.7c-.1.8.9.8.8,1.6s-.5,1.8-1,1.7-.5.4-1,.9-.9,1.9-1.3,1.6c-.4-.3-.8-.4-1.3-.1s-.6.9-1.2.9-1.5-.5-1.6-.9c0-.4-1.8-.4-1.8-.4Z" fill="#fff" stroke="#fff" stroke-miterlimit="10" stroke-width=".8"/><path d="M235,92.2c1.2.6-.3,1.3-.2,1.7s.4.6.4.9,0,.6-.7.9-.5-.2-.9,0-.5.7-.9.8-.5.3-.8.1-.4-.4-.6-.2-.6,0-1-.1c-.4-.1-1,0-1.2-.4s.2-.5-.4-.4c-.6,0-.9.2-1-.4-.1-.6-.2-.7.1-1s.1-.6.4-1.1-.3-.8,0-1.2.9-1,1.1-.8c.3.2.4-.1.9-.3s1.1-1,1.3-.6.4.4.8.4.6-.4,1-.2.9.8.7,1,1.1.8,1.1.8Z" fill="#fff" stroke="#fff" stroke-miterlimit="10" stroke-width=".6"/><path d="M119.5,95.6s8.7,6,10.9,12.2c0,0,7,7.5.1,23.3-1.7,3.9-2.7,5.5-3.8,5.5s-1.9-1.2-3.3-3.1c0,0-7.9-10.7-7.7-13.9.2-3.2,1.9-5.2,2.5-7.4.7-2.2-1.3-3.8-.5-6.9.8-3.1,3.4-4.6,1.7-9.8M115.4,90.1l2.1,6.2c.9,2.8.4,3.9-.5,5.7-.4.8-.9,1.7-1.2,2.8-.6,2.3-.1,4,.2,5.2.3.9.3,1.3.2,1.6-.2.6-.5,1.2-.8,1.9-.7,1.5-1.6,3.4-1.8,6-.2,3.6,5.6,12,8.1,15.4,1.6,2.1,3,4,5,4s4.1-3,5.8-6.8c6.6-15.1,1.2-23.4-.2-25.3-2.6-6.6-11.2-12.7-11.6-12.9l-5.4-3.7h0Z" fill="#fff"/><path d="M128.3,134.1c.6-12.2-1.8-24.6-8.5-35,0,0,0,0,0,0,6.8,9.6,11.8,23.6,8.4,35h0Z" fill="#fff"/><path d="M127.7,135.9c-.4-2.6-.3-5.1-.4-7.7-.8-4.2-2.6-8.2-3.2-12.5,0,0,0,0,.1,0,2.5,3.7,3,8.1,3.5,12.5,0,0,.6,2.6.6,2.6.2,1.7.1,3.5-.4,5.2,0,0-.1,0-.1,0h0Z" fill="#fff"/><path d="M127.7,136c-2-9.1-4.9-17.9-9.7-25.9,0,0,.1,0,.1,0,2.6,3.8,4.9,8,6.7,12.3,1.8,4.2,3.5,9.3,2.8,13.7h0Z" fill="#fff"/><path d="M126.9,136.5c-1.4-3.4-1.8-7-4-10-2.1-2.9-4.3-5.8-6.1-9,0,0,0-.1,0,0,3.7,2.9,5.8,7,7.7,11.2,1.5,2.3,2.7,5,2.4,7.8,0,0,0,0-.1,0h0Z" fill="#fff"/><path d="M126,136.2c-1-1.6-1.5-3.1-2.1-4.7-1.6-2.4-3.9-4.2-5.1-7,0,0,0-.1,0,0,1.1.6,1.9,1.4,2.7,2.3,1.2,1.3,1.8,3.1,2.7,4.6,1.2,1.4,2.1,3,1.9,4.9,0,0,0,0-.1,0h0Z" fill="#fff"/><path d="M105,126.3c1.9,0,11.8,4.5,13.2,5.7,1.7,1.4,4.5,5.2,5.2,7.7.7,2.5,1.4,7,1.4,7l-6-.8c-13.1-4.5-12.7-9-13.3-11.7-.6-2.8.4-5.5-.9-7.4-.2-.3,0-.4.2-.4M105,124.1h0c-1.4,0-2,.9-2.2,1.3-.4.8-.3,1.7.2,2.5.4.5.3,1.6.3,2.7,0,1.2,0,2.5.2,3.9,0,.2,0,.5.1.7.7,4.1,2.4,8.5,14.6,12.6h.2c0,0,.2,0,.2,0l6,.8,2.9.4-.4-2.9c0-.2-.7-4.6-1.5-7.2-.9-3.1-4.1-7.2-5.9-8.7-1.6-1.3-11.9-6.2-14.6-6.2h0Z" fill="#fff"/><path d="M124.7,146.6c-5.5-1.3-11.4-3.9-13.7-9.5-.9-2.4-1.3-4-3.1-5.9-.7-.9-1.4-1.7-2.2-2.6,0,0,0,0,0,0,.8.8,1.6,1.6,2.4,2.4.8.8,1.6,1.6,2.2,2.7.6,1.1.8,2.2,1.3,3.1,2.4,5.3,8.7,6.9,13,9.8h0Z" fill="#fff"/><path d="M124.3,146.5c-1.4-.6-2.7-1.4-3.8-2.4-1-1.1-1.9-2.3-3.1-3.2-2.4-1.7-5.2-3.9-5.1-7.2,0,0,.1,0,.1,0,1.7,2.4,3.5,4.5,5.4,6.8.9,1.2,2.3,1.9,3.5,2.7,1.1.9,2.2,1.9,3.1,3.1,0,0,0,0,0,0h0Z" fill="#fff"/><path d="M125.2,147c-2.6-1.5-4.4-3.9-6-6.3-1.7-2.4-3.2-4.8-4.7-7.3h.1c.9,1.1,1.8,2.2,2.7,3.3,1.7,2.3,3.7,4.5,5.5,6.7,0,0,2.5,3.5,2.5,3.5h0Z" fill="#fff"/><path d="M124,145.9c-.5-1.4-.7-2.4-.8-3.8-.2-.9-.9-1.5-1.3-2.3-.7-1.2-1.1-2.4-1.3-3.8,0,0,.1,0,.1,0,.8.6,1.3,1.3,1.7,2.1.7,1.2.7,2.6,1.1,3.9.5.8,1,1.6,1,2.6,0,.5-.1,1-.4,1.4,0,0-.1,0-.1,0h0Z" fill="#fff"/><path d="M125,146.7c-1-.8-1.7-1.8-2.3-2.8-.5-1.1-.8-2.3-1.7-3.2-1.7-1.8-2.8-4.1-2.7-6.7,0,0,.1,0,.1,0,1.6,2,2.1,4.2,3.1,6.5.4,1.2,1.3,2,2.1,3,.7,1,1.2,2.1,1.6,3.3,0,0-.1,0-.1,0h0Z" fill="#fff"/><path d="M124.1,146.5c-2.2.5-4.3-.1-6.2-1.1-1.9-.9-3.7-2-5.4-3.3,0,0,0-.1,0-.1,1.8,1,3.8,1.8,5.7,2.5,2,.6,3.9,1.1,5.9,1.9,0,0,0,.1,0,.1h0Z" fill="#fff"/><path d="M115,359.1c.1,0,.3,0,.4,0,3.8.3,11.4,2.7,14.8,5.4s8.8,8.2,8.8,8.2l-9.1,4.8c-7.1,2.1-12.4,2.9-16.3,2.9-8.7,0-11.2-3.8-13.6-6-3.6-3.2-4.8-8-8.5-9.3-3.6-1.3,18.8-5.9,23.5-5.9M115,357h0c-2.7,0-9.1,1.1-13.9,2.2-2.9.6-5.5,1.3-7.4,1.9-2.9.9-4.5,1.7-4.7,3.3-.2,1,.3,2.3,1.8,2.8,1.5.6,2.6,2.2,3.9,4.1,1.1,1.6,2.2,3.3,3.9,4.8.3.3.6.6.9.9,2.3,2.3,5.8,5.7,14.2,5.7s10.1-1,16.9-3h.2c0,0,.2-.2.2-.2l9.1-4.8,2.6-1.4-2-2.1c-.2-.2-5.5-5.6-9-8.4-4-3.1-12.2-5.6-16-5.9-.2,0-.3,0-.5,0h0Z" fill="#fff"/><path d="M138.7,373c-8.9,3.6-19.6,5.9-28.3.5-1.7-.9-3.1-2.3-4.7-3.2-1.6-.9-3.5-1.4-5.3-1.9-1.8-.5-3.7-1-5.6-1.4v-.2c1.9.2,3.8.6,5.7,1,1.9.4,3.8.7,5.6,1.6,1.8.8,3.2,2.1,4.9,3,5,2.8,10.6,2.8,16.2,2,3.8-.4,7.5-1,11.4-1.4v.2h0Z" fill="#fff"/><path d="M138,373.2c-2.5.6-5.1.7-7.6.4-2.5-.5-4.9-1.3-7.5-1.3-5,0-11-.3-14.2-4.8,0,0,.1-.2.1-.2,3.8,1.2,6.9,2.2,10.5,3.1,2.4.6,4.8,1.6,7.3,1.5,3.8-.3,7.5,0,11.2,1.1,0,0,0,.2,0,.2h0Z" fill="#fff"/><path d="M139.8,373.1c-5,.6-10-1.1-14.6-2.8-4.7-1.7-9.3-3.5-13.8-5.4,0,0,0-.2,0-.2,4.2,1.2,10.1,2.9,14.2,4.1,4.8,1.1,9.4,2.6,14.1,4.2,0,0,0,.2,0,.2h0Z" fill="#fff"/><path d="M137,372.6c-1.3-1-2.4-1.6-3.4-2.7-.5-.6-.9-1.3-1.5-1.8-1.1-1-2.8-1.2-4.1-1.9-2.1-.9-3.9-2.2-5.5-4,0,0,0-.2,0-.2,1.7,0,3.1.6,4.5,1.2,2.1,1,3.5,3,5.4,4.3,1.4.6,3,1.2,3.9,2.6.5.7.8,1.5.8,2.4h-.2Z" fill="#fff"/><path d="M139.1,372.8c-2.2,0-4.2-.7-6-1.6-1.8-1-3.4-2.4-5.5-2.9-3-.7-6.1-1.8-8.4-4.1-.7-.7-1.5-1.5-2.1-2.4v-.2c5.1,1.3,8.7,5.5,13.6,7.2,3.1.6,5.9,1.7,8.4,3.8,0,0,0,.2,0,.2h0Z" fill="#fff"/><path d="M137.7,373.3c-2.4,2.9-6.1,4.1-9.7,4.6-3.6.6-7.1.9-10.7.7,0,0,0-.2,0-.2,3.5-.5,7-1.2,10.4-2.1,3.4-1.2,6.5-2.3,10-3.2,0,0,.1.2.1.2h0Z" fill="#fff"/><path d="M105.6,258.9c4.5,3.4,2.5,11.4,6.1,14.9,2.3,2.9,7.3,5.1,9.1,9.2,1.9,4.5,2.4,31.4,2.7,35.7.9,5.5,10.6,23.1,12,34.2,2.8,5.9,7.7,13,12.9,17,2.5,1.2,6.3,3.5,7.9,6.1,5.9,8.5,13.6,17.9,24.2,19.5,1.7-.2,3.3-.4,5-.4,6.4,0,12.8,1.8,18.6,5.1,2.4,1.5,4.5,5.5,6.4,7.8,1.6,2.7,4.4,5.4,5.3,8.2-4-2.5-7.4-6.4-10.9-9.7-.8-.9-1.8-2.1-3-2.7-6.3-2.8-14.5-4.2-21.6-4.4-10.9-3.5-18.3-13.8-26.2-21.5-2.2-2.4-4.3-2.9-7.6-4.2-7.7-4.8-12.7-11.3-16.5-19.3-1.9-7.9-8-27.9-9.8-35.6-.8-4.7-1.4-10.3.2-17.6.5-2.9-.8-10.6-1-13.3-.2-5.6-6.7-5.8-11.1-11.2-2.1-2.6-2.5-6.2-2.3-9.4.2-3,.7-5.5-.6-8.1l.3-.3M105.6,256.8c-.5,0-1,.2-1.4.5l-.3.3c-.7.6-.9,1.7-.5,2.6.8,1.6.7,3.2.5,5.4,0,.5,0,1.1-.1,1.7-.2,4.6.7,8.2,2.8,10.8,2.1,2.5,4.5,4,6.5,5.2,2.8,1.7,4.1,2.6,4.2,4.7,0,0,0,0,0,0,0,.7.2,1.8.4,3,.4,2.9,1,7.8.7,9.7-1.7,7.9-1,14-.2,18.4,0,0,0,0,0,.1.9,4,3,11.3,5,18.3,1.9,6.7,3.9,13.5,4.8,17.3,0,.2,0,.3.2.4,4.4,9.1,9.9,15.5,17.3,20.1.1,0,.2.1.3.2.6.3,1.2.5,1.7.7,2.3.9,3.7,1.5,5.1,3,0,0,0,0,0,0,1.7,1.7,3.4,3.5,5.2,5.4,6.3,6.7,12.8,13.7,21.8,16.5.2,0,.4,0,.6,0,7.8.3,15.3,1.8,20.8,4.2.6.3,1.2,1,1.8,1.7s.3.4.5.6c0,0,0,0,0,0,.6.6,1.3,1.3,1.9,1.9,2.9,2.9,5.9,5.9,9.3,8.1.3.2.7.3,1.1.3s.9-.2,1.3-.4c.7-.5,1-1.5.7-2.3-.7-2.1-2.1-4-3.5-5.8-.8-1-1.5-1.9-2-2.8,0,0-.1-.2-.2-.2-.5-.7-1.1-1.5-1.7-2.4-1.5-2.2-3.1-4.6-5.2-5.9,0,0,0,0,0,0-6.2-3.5-13-5.4-19.6-5.4-1.7,0-3.3.1-4.9.3-9.6-1.6-17-10.7-22.4-18.5-2.1-3.4-6.8-5.9-8.5-6.8-5.1-4-9.6-10.9-11.9-15.8-1-7-4.8-16-8-23.4-1.9-4.4-3.6-8.5-4-10.4,0-.9-.1-2.7-.2-5-.5-13.8-1.1-27.6-2.6-31.3,0,0,0,0,0,0-1.3-2.9-3.9-4.9-6.1-6.7-1.3-1-2.5-2-3.2-2.9,0,0-.1-.1-.2-.2-1.2-1.2-1.6-3.4-2-5.8-.6-3.3-1.2-7-4.3-9.3-.4-.3-.8-.4-1.3-.4h0Z" fill="#fff"/></svg>