<?xml version="1.0" encoding="UTF-8"?><svg id="Layer_1" xmlns="http://www.w3.org/2000/svg" width="316.4" height="469.4" viewBox="0 0 316.4 469.4"><path d="M186.3,254.7c.2,0,.4,0,.6.1,2.4,1,3.5,4.5,6,6.2,10.9,7.4,20,20.4,7.3,35.4-3.6,1.7-7,2.5-9.9,2.5-12.8,0-19.2-14.7-17.6-30.6.1-1.3-.7-3.9-.4-5.2.3-1.8,4-4,4-4,0,0-.2-2.8,1.1-3.4.3-.2.8-.2,1.2-.2,1.1,0,2.5.4,3.5.7,0,0,.2,0,.3,0,1.2,0,2.7-1.5,4.1-1.5M186.3,251.9h0c-1.4,0-2.6.6-3.5,1.1-.2,0-.4.2-.6.3-1.1-.3-2.4-.6-3.7-.6s-1.8.2-2.5.5c-1.8.9-2.4,2.9-2.6,4.4-1.6,1.1-3.6,2.9-4,5-.2,1.2,0,2.5.2,3.8,0,.6.2,1.4.2,1.7-1.1,11.2,1.5,21.5,7,27.6,3.5,3.9,8.2,6,13.3,6s7.3-.9,11.1-2.8l.5-.3.4-.5c5.3-6.3,7.6-12.8,6.7-19.3-1.4-10-9.7-17-14.5-20.3-.7-.5-1.4-1.4-2.1-2.4-1.1-1.5-2.3-3.2-4.3-4-.5-.2-1.1-.3-1.7-.3h0Z" fill="#fff"/><path d="M199.8,295.9c.3-3.4.3-6.6-.4-9.9-.4-2.2-.8-4.5-1.9-6.4-2-2.8-4.1-5.3-5.7-8.4,0,0,.1-.1.1-.1,1,.6,1.9,1.4,2.6,2.3,1.6,1.6,2.6,3.8,3.4,6,1.6,3.1,3.4,6.2,3.6,9.8.1,2.4-.4,4.8-1.6,6.8h-.1Z" fill="#fff"/><path d="M196,299c-3.6-.6-6.7-3.1-8.8-6.1-1.5-1.9-2.2-4.2-3.4-6.3-2-2.9-3.7-6.3-3.8-9.9,0,0,.2,0,.2,0,1.8,3.1,2.9,6.4,4.1,9.7,1.6,3.1,4.1,5.6,6.5,8.1,1.6,1.6,3.3,3,5.3,4.4h0Z" fill="#fff"/><path d="M188.9,302.8c-2.5.7-5.3,1-8.6-.3-6.7-2.8-8.5-9-8.5-9,3.3,5.2,6.9,8.1,16.3,6.3,0,0,4.5-2.2,10.7-1.9,3.6-4.7,8-6.8,8-6.8,7.4-6.2,7.4-10.8,5.4-16.6,0,0,3.7,5.4,1.6,12.3-1.1,3.7-3.5,5.7-5.8,7.3-2.4,2.7-1,7.3-1.5,11-.2,1.3-.9,2.2-1.7,2.9,0,0,0,0,0,0-.4.3-1,.7-1.7,1-.8.3-1.5.5-1.9.6,0,0,0,0,0,0-1.1.2-2.2,0-3.3-.6-3-2-5.5-6-8.9-6.2Z" fill="none" stroke="#fff" stroke-linecap="round" stroke-linejoin="round" stroke-width="2.8"/><path d="M199.1,295.2c-.1-2.2,0-4.1-.1-6.3-.9-3.4-3-6.4-3.7-9.9,0,0,.1,0,.1,0,2.7,2.6,3.4,6.3,4,9.9.8,2,1.2,4.5-.1,6.4,0,0-.1,0-.1,0h0Z" fill="#fff"/><path d="M194.4,297.1c-2.3-.9-3.6-3-4.6-5.1-1.2-1.9-2.9-3.6-3.9-5.7-.7-1.4-1.2-2.8-1.5-4.4h.1c2.6,2.9,3.6,6.6,5.5,9.9,1.6,1.7,3,3.3,4.4,5.2,0,0,0,.1,0,.1h0Z" fill="#fff"/><path d="M196.6,296.8c-1.8-.9-3.1-2.4-4-4.1-1-1.6-2-3.4-2.5-5.2,0,0,.1,0,.1,0,.9,1.7,2,3.2,3.2,4.7,1.3,1.4,2.5,2.8,3.3,4.6,0,0,0,0,0,0h0Z" fill="#fff"/><path d="M193.4,284.4c1.4,1.5,2.5,3.3,3.5,5.2,1,1.9,1.7,3.9,1.4,6.1,0,0-.1,0-.1,0-1.6-2.7-2-5.8-3.4-8.6-.4-.9-.9-1.8-1.5-2.7h0Z" fill="#fff"/><path d="M193.7,288.9c1.2,2.6,3.6,4.4,4.2,7.3,0,0-.1,0-.1,0-1.4-.7-2.1-2-2.7-3.3-.6-1.3-1.2-2.6-1.5-4h.1Z" fill="#fff"/><path d="M203.6,291.2c.3-2.2.7-4.1,1-6.2-.3-3.5-1.8-6.8-1.8-10.4,0,0,.1,0,.1,0,2.2,3.1,2.2,6.9,2.1,10.5.4,2.1.3,4.6-1.3,6.3,0,0-.1,0-.1,0h0Z" fill="#fff"/><path d="M201.6,278.7c.9,1.9,1.4,4,1.7,6,.4,2.1.4,4.3-.5,6.3,0,0-.1,0-.1,0-.7-3.1-.1-6.1-.6-9.2-.1-1-.3-2-.6-3h.1Z" fill="#fff"/><path d="M201.9,284.3c-.2,2.9,1,5.6.1,8.4,0,0-.1,0-.1,0-.8-1.3-.9-2.7-.7-4.2,0-1.4.2-2.8.6-4.2h.1Z" fill="#fff"/><path d="M188.5,299.3c-2.4,0-4.1-1.7-5.3-3.5-2.6-2.5-5.2-5.2-5.9-9,0,0,.1,0,.1,0,2.5,2.6,3.7,6,6,8.7,1.7,1.3,3.3,2.4,5.1,3.7,0,0,0,.1,0,.1h0Z" fill="#fff"/><path d="M181.1,288.9c2.1,3.6,5.7,5.8,8.2,9.1,0,0,0,.1,0,.1-2.1-.7-3.7-2.1-5-3.8-1.3-1.6-2.5-3.4-3.3-5.3h.1Z" fill="#fff"/><path d="M184.7,292c1.9,1,3.7,2.3,5.1,3.8.4.6.8,1.2,1,1.9h0c-1.4-.5-2.3-1.5-3.2-2.6-.9-1-1.9-2.1-2.9-3h0Z" fill="#fff"/><path d="M202.4,307.9c.2-1.2.9-2.3,1-3.2.3-1.1,0-2.4-.4-3.4-.5-1.7-.5-3.6.5-5.1.5-.6,1-1.1,1.7-1.6,0,0,.1,0,.1,0-.2.6-.4,1.2-.7,1.7-.6,1.6-.7,3.2-.9,4.8-.2,1.3.5,2.2.8,3.6,0,1.4-1,2.4-2,3.2,0,0-.1,0-.1,0h0Z" fill="#fff"/><path d="M196.1,304.6c-.6,0-1-.3-1.4-.5-.6-.5-1-1.3-1.6-1.8-.3-.3-.6-.6-1-.8v-.2c1,0,1.8.4,2.6.9,1,.4,1.6,1.1,1.5,2.3,0,0-.1,0-.1,0h0Z" fill="#fff"/><path d="M181.2,254.6c1.6,0,2.5,1.5,2.8,2.9.4,1.3.6,2.6.7,3.9h-.2c-.7-1.7-1.6-3.4-2.7-4.9-.3-.5-.5-1-.8-1.7h0Z" fill="#fff"/><path d="M173.6,257.4c1.6.6,2.7,1.8,3.6,3.2.9,1.3,1.9,2.6,2.7,3.9h-.1c-1.8-1.5-3.7-3-5.2-4.8-.4-.7-.8-1.4-1-2.2h.1Z" fill="#fff"/><path d="M205.6,307.6c.2,0,.3.1.5.5,3.2,6.3,8.3,13,13.6,18.1,1.6,2.7,2.7,5.6,3.4,8.6l-1.9,2.5c-.9-3-2.3-5.8-4.4-8.3-7.1-4.6-10.3-9-13.1-17.1,0,0,.9-4.2,1.8-4.2M205.6,304.8c-2.8,0-3.9,3.2-4.5,6.4l-.2.8.2.7c3,8.8,6.6,13.6,13.8,18.3,1.6,2,2.8,4.3,3.6,7l1.6,5.3,3.3-4.5,1.9-2.5.8-1-.3-1.3c-.8-3.5-2-6.6-3.7-9.4l-.2-.3-.3-.3c-5.2-4.9-10.1-11.4-13.1-17.3-.9-1.8-2.4-2-3-2h0Z" fill="#fff"/><path d="M121.1,422.8l1.7,2.7s-6.2,8.2-10.6,12.8c-7.5,5-15.3,7.9-24.4,8-2.4-.4-4.2-.9-6-.9s-1.8.1-2.9.4c-4.2,1-8.5,2.3-12.8,3.4l2.1-2.4c3.4-1.1,6.8-2.4,9.9-3.9,1.8-.9,4.4-1.2,6.8-1.2s2.3,0,3.3.2c6.6-.6,14.2-4.8,20.1-8,6.7-3.6,8.3-6.8,13-11.1M121.7,418.5l-2.5,2.3c-1.5,1.4-2.7,2.6-3.9,3.9-2.4,2.5-4.3,4.6-8.6,6.8l-.6.3c-5.5,3-12.4,6.7-18.1,7.3-1.1-.1-2.2-.2-3.3-.2-3.3,0-6,.5-8,1.5-3.7,1.6-6.7,2.8-9.5,3.7l-.8.2-.5.6-2.1,2.4-5.7,6.7,8.5-2.2c1.8-.5,3.6-1,5.4-1.5,2.6-.7,5-1.4,7.4-1.9h0s0,0,0,0c.7-.2,1.4-.3,2.1-.3,1.1,0,2.2.2,3.6.5.6.1,1.2.2,1.9.3h.2s.2,0,.2,0c9,0,17.3-2.7,26-8.4l.3-.2.2-.2c4.5-4.7,10.6-12.7,10.8-13l1.2-1.5-1-1.6-1.7-2.7-1.8-2.9h0Z" fill="#fff"/><path d="M171,131.8l5,1.1,4.8,4.5c6.5,2,13.8,5,17.6,11.2,2.3,7.6,6,17.1,8.8,24.5.6,1.5.8,3,2.4,4,5.5,2.8,8.1,10.1,7.9,15.9.3,5.8-.7,11.5.7,17,.7,1.8.9,4.1.8,5.9.1,7.6-2.8,15.4-1.8,22.8,5.9,18.4,17.5,35,15.8,55.2l-3-5.2c0-5.9,0-11.8-2-17.2-3.6-11-8.6-21.4-12-32.5-1-7.9,1.6-15.3,1.4-23.1,0-3.9-2.1-7.4-2.1-11.3-.6-7.6.2-16-3.8-21.5-1.6-2.2-5-3.1-6.5-6.1-3.6-8.8-6.9-18-9.6-27.2-6.1-9.1-18.5-8.3-24.4-18.1M171,129.1c-.9,0-1.7.4-2.2,1.1-.6.9-.7,2-.1,3,3.5,5.8,9,8.4,13.8,10.6,4.1,1.9,8,3.7,10.5,7.3,2.5,8.6,5.7,17.7,9.5,27,0,0,0,.2.1.2,1.2,2.3,3.1,3.6,4.6,4.6.9.6,1.7,1.2,2.2,1.8,2.6,3.6,2.8,8.9,3,14.5,0,1.8.1,3.7.3,5.5,0,2.3.6,4.3,1.2,6.2.5,1.7,1,3.4,1,4.9,0,0,0,0,0,0,0,3.2-.4,6.3-.8,9.7-.6,4.4-1.2,8.9-.6,13.7,0,.1,0,.3,0,.4,1.8,6,4.2,11.9,6.4,17.6,1.9,4.9,4,9.9,5.6,15,0,0,0,0,0,.1,1.8,4.8,1.9,9.9,1.8,16.2,0,.5.1,1,.4,1.4l3,5.2c.5.8,1.4,1.3,2.3,1.3s.4,0,.6,0c1.1-.3,2-1.2,2.1-2.4,1.2-14.7-4.3-27.6-9.6-40.1-2.2-5.2-4.5-10.5-6.2-15.9-.4-3.7.2-7.6.8-11.7.5-3.4,1.1-6.9,1.1-10.5.1-2.3-.3-4.8-.9-6.8-.7-3.1-.6-6.4-.6-9.9,0-2.1.1-4.2,0-6.4.1-6.4-2.7-14.7-9.2-18.1-.4-.3-.5-.7-.9-1.7-.1-.3-.3-.7-.4-1.1-.4-1-.8-2.1-1.2-3.2-2.6-6.9-5.6-14.7-7.5-21.1,0-.2-.2-.4-.3-.6-4.2-6.9-12-10.1-18.5-12.1l-4.3-4.1c-.4-.3-.8-.6-1.3-.7l-5-1.1c-.2,0-.4,0-.6,0h0Z" fill="#fff"/><path d="M226.5,139.4c.1,0,.2,0,.2.2-.9,7.6-1.7,15.2-3.8,22.8-1.5,5.5-5.8,9.8-4.9,15.5,2.7,11.4,2.3,18,3.5,29.6,0,0-3.7,1.9-3.8,1.9s0,0,0,0c-.9-11.2-.4-20-2.6-31-1-6.3,4.1-11.4,5.8-16.6,2.3-7.1,3.9-14.7,5.3-22.2,0-.1,0-.2.2-.2M226.5,136.7c-1.4,0-2.6,1-2.8,2.4-1.3,7.1-2.8,14.7-5.2,21.8-.5,1.5-1.4,3.1-2.3,4.8-2.1,3.7-4.4,8-3.6,13.1h0c0,0,0,.1,0,.1,1.4,7.1,1.6,13.3,1.9,19.9.1,3.4.3,6.9.6,10.7l.2,2.5h2.5q.7,0,5-2.2l1.7-.8-.2-1.9c-.4-3.7-.6-6.9-.9-10-.5-6.4-.9-12-2.7-19.8-.4-2.7.8-5.2,2.3-8.1,1-1.9,2-3.9,2.6-6.2,2-7.3,2.8-14.7,3.7-21.9v-1.2c.2-.8,0-1.6-.5-2.2-.6-.6-1.4-1-2.2-1h0Z" fill="#fff"/><path d="M152.9,400c-.8.1-1.4.2-1.9.1,0,0,0-.1,0-.2-.2-.5-.5-.9-.9-1.2.2-.7,0-1.5-.4-2.1.1-.4.3-.7.5-1.1,21-5.4,41.2-19.3,32.4-35.3-1.8-3.2,2.4-10.9-1.2-14-7.8-6.6-15.9.2-22.2,3.3-13.6,6.8-17.1,24.4-13.6,42.1-.5,1.3-1,2-1.5,2.4-.6-.3-1.3-.3-1.9,0-.7-.5-1.4-1.3-1.7-1.9-.3-4.5.5-9.9-1.8-19.6-1.6-6.8,1.7-15.7-1.8-21.7-4.1-7.1-16.1-13.5-24.2-7.8-2.1,1.4-3.3,6.3-5,7.8-6.2,5.6-9.9,8.2-9.8,14.1,0,6,3.5,11.9,10.5,17.2,6.2,4.7,15.2,9,27.1,12.5.6.6,1.1,1.2,1.5,1.8-.2.8-.1,1.7.4,2.3,0,0,0,0,0,0,0,0-.2,0-.2.1-.8.7-1,1.7-.8,2.6-.5.4-1,.7-1.2.8-12.5-6.7-41.7-24.9-50.5-6.1-1.1,2.3-7,4.7-7.3,10.5.8,7,7.3,9.1,8.9,11.9,5.5,10.2,24.1,7,50.4-11.5.8-.3,1.4-.4,1.9-.3.1,0,.2,0,.4.1.9.3,1.2,1.3,1.3,2.3-4.7,4.6-11.1,11.8-15,19.5-3.9,7.8-6.7,20-.4,26.6,2.9,3,12.8,0,20.1,1.6,8.8,3.2,11.9-.8,16.6-6.1,8.7-9.8,7.7-26-11.4-43-.6-1-.8-1.7-.9-2.2.1-.3.2-.5.3-.8.5-.4,1.6-.3,2.4,0,11.2,8.5,28.4,41.6,53.2,13.2,3.5-4.1-2.1-1.1,10.2-18.8,0-9.6-19.4-16.8-62.4,1.1Z" fill="none" stroke="#fff" stroke-miterlimit="10" stroke-width="3.7"/><path d="M140.1,409.2c1.4,2.8,3-.6,3.9-.3.9.3,1.2.9,2.1.9.8,0,1.2.2,2.1-1.6s-.5-1.2.2-2.1c.7-.9,1.6-1.1,2-1.9.4-.9.8-1,.3-1.8-.5-.7-1-.9-.5-1.4.5-.5,0-1.3-.2-2.2s0-2.2-.8-2.6-1,.3-.9-1c.1-1.3.6-2-.7-2.3s-1.6-.5-2.3.2-1.4.2-2.5.9c-1.1.7-1.7-.8-2.8-.3-1.1.6-2.3,1.9-1.9,2.4s-.3.9-.8,2c-.4,1.1-2.2,2.3-1.5,2.8.7.4,1,.9.9,1.8s-.9,1.4-.6,2.3,1.6,2,2.3,1.7c.7-.2,1.6,2.4,1.6,2.4Z" fill="none" stroke="#fff" stroke-miterlimit="10" stroke-width="1.2"/><path d="M141.8,410.4c-.6,3.3-2.3,6-4.1,8.6-1,1.9-1.1,4.1-1.8,6.1-.8,3.1-2,6-3.6,8.9,0,0-.2,0-.2,0,0-2.2.3-4.4.9-6.5.8-3.2,2.9-5.8,4.1-8.8.6-2.1,1-4.3,2.4-6,.6-.9,1.3-1.7,2.2-2.5,0,0,.2,0,.2.1h0Z" fill="#fff"/><path d="M146.2,409.8c0,4-.9,7.9-1.7,11.9-.3,2.7.4,5.3.5,8,.4,4,.4,8,0,12,0,.1-.2.1-.2,0-1.4-3.9-1.8-7.9-1.7-12,0-2.7.7-5.4.8-8.1,0-2-.4-4.1,0-6.1,0-.6.3-1.4.5-2,.4-1.3.9-2.6,1.6-3.8,0,0,.2,0,.2,0h0Z" fill="#fff"/><path d="M148.3,408.2c1.7,2.4,2,5,2.2,7.8.3,1.8,1.5,3.3,2.2,5,1.1,2.5,1.9,5,2.2,7.8,0,0-.1.2-.2,0-1.4-1.4-2.3-3-3-4.7-1.1-2.5-1-5.4-1.8-8-1.3-2.5-2.3-5-1.8-8,0,0,.1-.1.2,0h0Z" fill="#fff"/><path d="M144.2,410l-.5,5.1c-.2,1.7-.7,3.3-1,5-.6,3.4-1.1,6.8-1.6,10.2,0,0-.2,0-.2,0,0-5.2-.1-10.4.8-15.6.5-1.7,1.1-3.5,2.3-4.8,0,0,.2,0,.2,0h0Z" fill="#fff"/><path d="M142.5,408.9c.1,2.9-.7,5.5-1.8,8.1-.8,2.3-2,5.5-3,7.8,0,0-.2,0-.2,0,.4-2.4,1.1-5.8,1.6-8.2.5-2.8,1.2-5.5,3.1-7.7,0,0,.2,0,.2,0h0Z" fill="#fff"/><path d="M139.9,410.6c-1,2.8-2.5,5.1-4.3,7.4-1.6,2.4-2.9,4.9-4.1,7.5,0,0-.2,0-.2,0,.6-2.9,1.6-5.6,2.9-8.2,1.1-2.7,2.8-5.3,5.5-6.8,0,0,.2.1.2.1h0Z" fill="#fff"/><path d="M147.2,410.5c1.2,2.1,1.4,4.2,1.5,6.5.3,2.2.5,4.4.8,6.7h-.2c-.9-2-1.6-4.2-2.2-6.4-.8-2.2-1.1-4.5-.1-6.8,0,0,.2,0,.2,0h0Z" fill="#fff"/><path d="M149.1,408.4c2.2,1.1,3.3,3.1,4.1,5.2.9,2,1.6,4.1,2.3,6.2,0,0-.2,0-.2,0-.9-1.4-2.6-4.1-3.5-5.5-1.4-1.8-2.4-3.5-2.8-5.8,0,0,.2-.1.2-.1h0Z" fill="#fff"/><path d="M155.4,455.3c0-1.8.2-3.4.8-5,.3-.8.8-1.5,1.1-2.3.5-1.6,0-3.4.2-5.1,0-2.5.4-4.9.7-7.4,0,0,.2,0,.2,0,.6.8.8,1.6,1,2.5.4,1.7.3,3.5,0,5.2-.3,1.7-1.3,3.3-1.4,5,0,1.7,0,3.5-.8,5.1-.4.8-.8,1.5-1.5,2.2h-.2Z" fill="#fff"/><path d="M135.3,456.5c-1.4-1.5-2-3.2-2.2-5.1-.2-1.2.3-2.5,0-3.7-.2-.6-.6-1.1-.8-1.7-.3-.9-.2-1.9,0-2.8.1-.3.3-.8.6-1,0,0,0,0,0,0,.5,1.1,1,2.3.9,3.5,0,.6-.3,1.2-.2,1.8.2,1.8,1.5,3.3,1.8,5.1.2,1.2.3,2.4,0,3.7,0,0-.1.1-.2,0h0Z" fill="#fff"/><path d="M150,458.4c-.2-3.1,0-5.9.5-8.9.3-3,0-6.2.3-9.1.9,2.8,1,6.1,1.2,9.1.3,3.1,0,6.4-1.9,9,0,0-.2,0-.2,0h0Z" fill="#fff"/><path d="M137.9,457.1c-1.3-2.9-1.7-5.8-1.8-8.9,0-1.6-.4-5.2-.3-6.8,0-.8-.1-1.6.4-2.3.1,0,.2,0,.1.2-.1.2,0,.7,0,1,.2,2.1,1.1,5.6,1.4,7.7.7,3,1.2,6,.4,9.1,0,0-.2.1-.2,0h0Z" fill="#fff"/><path d="M148.3,457.2c-.7-.9-1-1.9-.8-3,0-.5.4-1,.4-1.5,0-1.4-1.2-2.8-1.2-4.4,0-1,0-2,.4-3.1,0,0,0,0,.1,0,1.3,1.2,1.7,2.8,1.7,4.5,0,1-.6,2.1-.3,3.1.4,1.1.9,1.8.6,3.1-.1.5-.3,1-.6,1.6,0,0-.2,0-.2,0h0Z" fill="#fff"/><path d="M141.1,455.6c-.8-.9-1.2-1.8-1.1-2.9,0-.5.3-1.1.3-1.6,0-.5-.2-1-.4-1.5-.7-1.4-1.1-3-.7-4.6,0-.3.3-1.5.8-1.6,0,0,0,0,0,0h0c.7,1.5,1.2,2.9,1.1,4.5,0,1-.5,2.1-.2,3.1.4,1,1.1,1.7.9,3,0,.5-.1,1.1-.5,1.6,0,0-.1,0-.2,0h0Z" fill="#fff"/><path d="M129.7,456.2c-1.2-1.2-1.9-2.6-2.3-4.2-.2-1.5,0-3.2-.6-4.7-.4-1.1-1-2.3-.6-3.5,0,0,0,.4,0,.4-.3-2.7.3-5.5,2.2-7.5,0,0,.2,0,.2,0,0,1.3-.1,2.6-.2,3.8,0,1.3-.2,3.1-.4,4.1-.3,1.8-.5,3.8.6,5.5,1.1,1.8,1.5,3.8,1.5,5.9,0,0-.2,0-.2,0h0Z" fill="#fff"/><path d="M152.9,456.7c-.4-2.1-.3-3.8.2-5.8,0,0,.8-5.8.8-5.8h.2c.3,1.9.5,3.9.6,5.9.2,2,0,4.2-1.6,5.7,0,0-.2,0-.2,0h0Z" fill="#fff"/><path d="M128.1,456.3c-1.9-1.1-2.5-3.2-2.8-5.2-.4-1.9-.6-3.9-.7-5.8,0,0,.2,0,.2,0l2.1,5.4c.9,1.8,1.4,3.5,1.4,5.6,0,0-.2.1-.2.1h0Z" fill="#fff"/><path d="M133.3,456.2c-1.9-.6-2.5-2.4-2.7-4.1-.2-1.2-.3-2.5-.3-3.7,0-.5,0-.9.4-1.3,0,0,0,.2,0,.2,0,1.5.9,3,1.4,4.3.3.7.8,1.3,1,2.1.2.7.3,1.5.4,2.4h-.1Z" fill="#fff"/><path d="M158.2,453.2c0-1.8.6-3.1,1.5-4.6.7-1.4,1.4-2.9,1.9-4.4h.2c0,1.7-.2,3.4-.7,5-.3,1.7-1.1,3.3-2.8,4.1,0,0-.2-.1-.2-.1h0Z" fill="#fff"/><path d="M143.7,456.5c-.8-1.7-.7-3.1-.3-4.8.1-1.6.2-3.2.2-4.8h.2c.6,1.5,1,3.1,1.2,4.8.4,1.7.2,3.5-1.1,4.9,0,0-.2,0-.2,0h0Z" fill="#fff"/><path d="M146.5,457.3c-1.3-.9-1.4-2.2-1.2-3.6,0-1.3.3-2.5.6-3.7,0,0,.2,0,.2,0l.4,1.8.4,1.8c.1.6.4,1.2.4,1.8,0,.6-.2,1.2-.6,1.9h-.2Z" fill="#fff"/><path d="M118.2,341.9c1.8,0,3.5.7,4.9,1.7.7.6,1.2,1.3,1.9,1.8,1.3,1.1,3.1,1.5,4.5,2.5,1.5.9,2.8,2.1,3.7,3.6.5.8.9,1.6,1,2.5h-.2c-2-1.5-4-2.9-5.7-4.7-1.3-1.1-2.2-2.6-3.7-3.5-1.5-.7-3.2-1.1-4.5-2.2-.7-.5-1.3-1-2-1.7v-.2h0Z" fill="#fff"/><path d="M103.2,355.2c1.6,1.2,2.7,2.5,3.4,4.2.6,1,.7,2.4,1.5,3.3.4.5,1,.8,1.5,1.1.9.8,1.4,1.9,1.8,3h0c0,.1,0,.2,0,.2-.4,0-.8-.1-1.1-.3-.8-.5-1.6-1.1-2-2-.3-.6-.4-1.2-.7-1.8-1-1.5-2.8-2.4-3.6-4.2-.6-1.1-1-2.3-1-3.6,0,0,.1-.1.2,0h0Z" fill="#fff"/><path d="M112.2,343.5c3.2.5,5.7,2.6,7.6,5,2,2.3,4.2,4.8,5.5,7.4-2.2-2-4.3-4.3-6.6-6.2-2.4-1.9-4.6-3.7-6.6-6,0,0,0-.2,0-.2h0Z" fill="#fff"/><path d="M104.6,353c4,2.2,6,6.9,8.6,10.5.8,1.1,1.6,2.6,2.6,3.5.1,0,.2.2,0,.2-.8-.1-1.3-.9-1.9-1.4-1.1-1.1-3.5-3.9-4.5-5.1-2.1-2.2-3.9-4.6-5-7.5,0,0,0-.2.2-.1h0Z" fill="#fff"/><path d="M111.9,345.6c1.1.2,2,.8,2.6,1.8.4,1,.7,2,1.8,2.5,1.9,1.1,3.2,2.9,3.2,5.3,0,0,0,.1-.2.1-1.1-.5-1.8-1.2-2.5-2-1.1-1.2-1.2-3-2.2-4-.9-.6-1.8-.8-2.4-2-.2-.5-.5-.9-.5-1.6,0,0,0-.2.1-.1h0Z" fill="#fff"/><path d="M107.9,351.8c1.1.4,1.9,1,2.4,2,.2.5.3,1.1.5,1.5.8,1.2,2.5,1.7,3.4,3.2.6.8,1,1.9,1.3,2.9,0,0,0,0,0,0-1.8-.2-3-1.5-3.7-2.9-.6-.8-.6-2.1-1.4-2.8-.9-.7-1.8-1-2.2-2.2-.2-.5-.4-1-.4-1.6,0,0,0-.1.2-.1h0Z" fill="#fff"/><path d="M99.4,359.4c1.2,1.1,2,2.4,2.7,3.8.5,1.4.8,3.1,2,4.1.5.5,1.6,1.4,2,1.7,2.2,1.6,4,3.3,6,5.2,0,0,0,.2,0,.2-2.7-.1-5.2-1.7-6.9-3.8,0,0,.4.2.4.2-1.1-.6-1.5-1.9-2-3-.8-2-2.9-3.1-3.5-5.2-.4-1-.6-2-.6-3.1h.2Z" fill="#fff"/><path d="M115.5,342.7c2.2,0,3.9,1.4,5.2,3,1.4,1.4,2.6,3,3.7,4.6,0,0-.1.1-.1.1l-4.7-3.5c-1.7-1-3-2.2-4.2-4,0,0,0-.2,0-.2h0Z" fill="#fff"/><path d="M98.1,360.5c1.4,1.5,2.3,3,2.9,5,0,0,2.3,5.3,2.3,5.3h-.2c-1.3-1.4-2.5-2.9-3.6-4.6-1.2-1.6-2.3-3.5-1.7-5.7,0,0,.2,0,.2,0h0Z" fill="#fff"/><path d="M101.9,357c1.2,1.3,1.8,2.5,2.2,4.1.6,1.3,1.1,2.9,2.1,4,0,0,0,.2,0,.2-.8,0-1.4-1-2-1.5-1.5-1.9-3.8-4.1-2.5-6.8,0,0,.2,0,.2,0h0Z" fill="#fff"/><path d="M109.1,349.3c2.9,0,4.2,2.7,5.6,4.8.4.7.8,1.5,1.1,2.2h-.2c-1.6-1.7-3.6-3.1-5.3-4.7-.5-.6-1-1.2-1.3-2.2v-.2h.1Z" fill="#fff"/><path d="M110.6,346.8c1.5.4,2.1,1.2,2.7,2.4,0,0,1,1.5,1,1.5l1,1.6h-.1c-.5-.2-1-.6-1.6-.9-1.5-1.3-3.5-2.2-3.2-4.6,0,0,.2-.1.2-.1h0Z" fill="#fff"/><path d="M163.8,346.8c-.6,1.6-1.5,3.1-2.6,4.3-.6.6-1.3,1.1-1.9,1.8-1.1,1.3-1.3,3.1-2.1,4.6-.9,2.4-2.2,4.4-3.5,6.6,0,0-.2,0-.2,0-.3-.9-.2-1.8,0-2.7.3-1.7,1-3.4,2-4.8.9-1.5,2.4-2.5,3.2-4.1.7-1.6,1.3-3.3,2.7-4.4.7-.6,1.3-1.1,2.2-1.5h.1Z" fill="#fff"/><path d="M182.2,350.1c.2,2-.4,3.8-1.6,5.3-.6,1-1.8,1.8-2.3,2.9-.3.6-.3,1.2-.5,1.8-.4.9-1,1.6-1.8,2.1-.3.2-.7.4-1.1.4,0,0,0,0,0,0,.3-1.2.7-2.4,1.5-3.3.4-.4,1-.8,1.4-1.3,1-1.5.9-3.5,1.9-5.1.6-1,1.3-2,2.3-2.9,0,0,.2,0,.2,0h0Z" fill="#fff"/><path d="M170.1,345.2c-1.8,2.5-3.8,4.5-6,6.6-2.2,2.1-4,4.7-6,6.8,1.1-2.8,3.1-5.4,4.8-7.9,1.7-2.6,4-4.9,7.2-5.7,0,0,.2,0,.1.2h0Z" fill="#fff"/><path d="M181.7,346.9c-.8,3-2.4,5.5-4.3,8-.9,1.3-3,4.3-4.1,5.5-.6.6-1,1.3-1.8,1.6-.1,0-.1-.2,0-.2,1-.9,1.6-2.5,2.3-3.7,0,0,2.1-4,2.1-4,1.3-2.8,2.9-5.4,5.5-7.2,0,0,.2,0,.2.1h0Z" fill="#fff"/><path d="M173.1,343c0,1.1-.5,2.1-1.3,2.9-.4.3-1,.6-1.3.9-.9,1.1-.9,2.9-1.9,4.2-.6.8-1.3,1.6-2.3,2.2,0,0-.1,0-.2,0-.2-1.8.4-3.3,1.5-4.5.6-.8,1.8-1.3,2.2-2.2.4-1.1.4-2,1.5-2.8.4-.3.9-.6,1.5-.8,0,0,.2,0,.2.1h0Z" fill="#fff"/><path d="M179.9,345.4c0,1.1-.3,2.2-1,3-.4.4-.9.6-1.2,1-.3.4-.5.9-.6,1.4-.3,1.6-1.1,3-2.3,4-.4.3-.9.7-1.6.8,0,0,0,0,0,0,0,0,0,0,0,0h0c.3-1.6.8-3.1,1.9-4.2.6-.8,1.7-1.3,2.1-2.3.3-1.1.3-2,1.2-2.8.4-.4.8-.7,1.4-1,0,0,.2,0,.2.1h0Z" fill="#fff"/><path d="M183,361.2c.2,1.6-.2,3.2-.9,4.6-.8,1.3-2,2.5-2.5,4-.4,1.1-.7,2.5-1.8,3.1,0,0,.4-.3.4-.3-1.4,2.3-3.8,4.1-6.5,4.4,0,0,0-.2,0-.2.9-1,1.7-1.9,2.5-2.8.9-1,2.2-2.2,2.9-2.9,1.4-1.2,2.8-2.7,3-4.6.3-2.1,1.3-3.9,2.6-5.5,0,0,.2,0,.2,0h0Z" fill="#fff"/><path d="M184.4,362.1c.8,2.1,0,4.1-1.1,5.8-.9,1.7-2,3.4-3.1,5,0,0-.2,0-.2,0l1.8-5.5c.4-2,1.1-3.6,2.4-5.2,0,0,.2,0,.2,0h0Z" fill="#fff"/><path d="M181.3,357.6c1.1,1.7.4,3.5-.6,4.9-.6,1.1-1.3,2.1-2.1,3-.3.3-.5.7-1.1.8,0,0,0-.2,0-.2.9-1.2,1.2-2.8,1.7-4.2.2-.7.2-1.5.6-2.2.3-.7.7-1.3,1.2-2.1h.2Z" fill="#fff"/><path d="M178.3,344.1c-.8,2.6-2.3,4.6-4,6.6-1.6,2-3,4.1-4.4,6.3,0,0-.2,0-.2,0,.9-2.5,2-4.8,3.3-7.1,1.2-2.4,2.7-4.5,5.2-5.8,0,0,.2.1.2.1h0Z" fill="#fff"/><path d="M174.9,343.9c.4,1.5-.3,2.6-1.4,3.5-.9.9-1.8,1.7-2.8,2.5,0,0-.2-.1-.2-.1l.8-1.7.8-1.6c.3-.5.4-1.2.8-1.6.4-.4.9-.8,1.7-1.1h.2Z" fill="#fff"/><path d="M87.7,419c1.7-.3,3.4-.3,5.1,0,.8.2,1.6.6,2.5.7,1.7.2,3.4-.5,5-.6,2.5-.4,4.9-.4,7.4-.5,0,0,.1.2.1.2-.7.7-1.5,1.1-2.3,1.4-1.6.7-3.4.9-5.2.8-1.7,0-3.4-.7-5.1-.6-1.7.2-3.5.6-5.1,0-.8-.3-1.7-.6-2.4-1.1v-.2h0Z" fill="#fff"/><path d="M80.9,401.6c1.6-1.2,3.4-1.6,5.3-1.4,1.2,0,2.5.6,3.7.4.6,0,1.2-.4,1.8-.5.9-.2,1.9,0,2.8.4.3.1.7.4.9.7,0,0,0,0,0,0-1.2.3-2.4.6-3.6.4-.6-.1-1.2-.4-1.8-.5-1.8,0-3.5,1.1-5.3,1.1-1.2,0-2.4,0-3.7-.5,0,0-.1-.1,0-.2h0Z" fill="#fff"/><path d="M83.1,414.5c3.1.3,5.8.9,8.8,1.7,2.9.8,6.1,1,9,1.6-2.9.5-6.2.2-9.2,0-3.1-.2-6.3-.8-8.6-3.1,0,0,0-.2,0-.2h0Z" fill="#fff"/><path d="M78.6,403.8c3-.9,6-.9,9-.5,1.6.1,5.2.4,6.8.6.8.2,1.6.1,2.3.7,0,.1,0,.2-.2,0-1.3-.4-3,0-4.4,0,0,0-4.5.3-4.5.3-3.1.3-6.1.4-9-.9,0,0,0-.2,0-.2h0Z" fill="#fff"/><path d="M79.6,413.1c1-.5,2-.7,3.1-.4.5.2,1,.5,1.5.6,1.4.2,3-.8,4.6-.6,1,0,2,.3,3.1.8,0,0,0,0,0,.2-1.4,1.1-3,1.3-4.6,1-1,0-2-.8-3.1-.7-1.1.2-1.9.7-3.1.2-.5-.2-1-.4-1.5-.8,0,0,0-.2,0-.2h0Z" fill="#fff"/><path d="M78.2,406.1c.9-.6,2-.9,3.1-.7.5.1,1,.5,1.5.5.5,0,1,0,1.5-.2,1.5-.5,3.1-.7,4.6,0,.5.2,1,.4,1.5,1,0,0,0,0,0,0,0,0,0,0,0,0h-.1c-1.5.6-3,.9-4.5.5-1,0-2-.8-3-.7-1.1.3-1.8.8-3.1.4-.5-.1-1-.3-1.5-.7,0,0,0-.2,0-.2h0Z" fill="#fff"/><path d="M85.7,395c1.3-1,2.8-1.5,4.4-1.7,1.6,0,3.2.5,4.7,0,1.1-.2,2.5-.7,3.6-.1,0,0-.4-.2-.4-.2,2.7,0,5.4,1.1,7.2,3.2,0,0-.1.2-.1.2-1.3-.2-2.5-.5-3.7-.7-1.3-.3-3-.7-4-1-1.8-.5-3.7-1-5.5-.2-2,.8-4,.9-6.1.6,0,0,0-.2,0-.2h0Z" fill="#fff"/><path d="M88.8,392.1c1.4-1.8,3.5-2.1,5.6-2,2-.1,3.9,0,5.9,0,0,0,0,.2,0,.2l-5.7,1.3c-1.9.7-3.6.9-5.7.7,0,0,0-.2,0-.2h0Z" fill="#fff"/><path d="M83.6,398.8c.9-1.8,2.7-2.2,4.5-2.1,1.2,0,2.5,0,3.7.2.4.1.9,0,1.2.5,0,0-.2,0-.2,0-1.5-.1-3.1.4-4.5.7-.8.2-1.4.6-2.2.7-.8,0-1.5,0-2.4,0v-.2h-.1Z" fill="#fff"/><path d="M77.9,408.1c2.6-.7,5.1-.4,7.7,0,2.5.3,5.1.5,7.7.5,0,0,0,.2,0,.2-2.5.6-5.2.8-7.8.9-2.7.2-5.3,0-7.7-1.4,0,0,0-.2,0-.2h0Z" fill="#fff"/><path d="M79.5,411.1c1.1-1.1,2.4-1.1,3.7-.7,1.2.3,2.4.6,3.6,1.1,0,0,0,.2,0,.2l-1.9.2h-1.8c-.6.2-1.2.4-1.8.2-.6-.1-1.2-.3-1.8-.8v-.2h0Z" fill="#fff"/><path d="M211,393.5c-1.7.5-3.3.7-5,.6-.8-.1-1.7-.4-2.5-.4-1.7,0-3.3.9-4.9,1.2-2.4.7-4.8,1-7.3,1.4,0,0-.1-.2-.1-.2.6-.8,1.4-1.3,2.1-1.7,3.2-1.9,6.7-1.2,10.2-1.4,1.7-.4,3.4-1,5.1-.6.9.2,1.7.4,2.5.8v.2h0Z" fill="#fff"/><path d="M203.5,418.5c-1.7,1.1-3.5,1.4-5.4,1.1-1.2,0-2.4-.8-3.6-.7-.6,0-1.2.3-1.8.4-.9,0-1.9-.2-2.7-.6-.3-.2-.7-.4-.8-.8,0,0,0,0,0,0,1.2-.3,2.4-.5,3.6-.2.6.2,1.2.5,1.8.6,1.8.1,3.6-.9,5.4-.7,1.2,0,2.4.2,3.6.7,0,0,0,.2,0,.2h0Z" fill="#fff"/><path d="M214.3,399.8c-3.1.5-5.9.5-8.9.4-3,0-6.2.6-9.1.6,2.7-1.2,5.9-1.7,8.9-2.2,3-.6,6.3-.7,9.1.9,0,0,0,.2,0,.2h0Z" fill="#fff"/><path d="M205.9,415.6c-3.1.7-6,.5-9,0-1.6-.2-5.2-.7-6.7-1-.8-.2-1.6-.2-2.2-.8,0-.1.1-.2.2,0,1.3.5,2.9.3,4.3.3,0,0,4.5,0,4.5,0,3.1-.1,6.1,0,9,1.4,0,0,0,.2,0,.2h0Z" fill="#fff"/><path d="M213,402.7c-1,.6-2,.8-3.1.7-.5-.1-1-.5-1.5-.5-1.4,0-2.9,1-4.5,1-1,0-2-.1-3.1-.6,0,0,0,0,0-.2,1.3-1.2,2.9-1.6,4.5-1.4,1,0,2.1.7,3.1.5,1.1-.3,1.9-.8,3.1-.4.5.1,1,.3,1.5.7,0,0,0,.2,0,.2h0Z" fill="#fff"/><path d="M206.5,411.9c-1,.6-2,.8-3.1.5-.5-.2-1-.5-1.5-.6-.5-.1-1,0-1.5.1-1.5.4-3.2.5-4.6-.2-.5-.2-1-.5-1.4-1.1,0,0,0,0,0,0,0,0,0,0,0,0h.1c1.5-.5,3-.7,4.5-.2,1,.1,2,.9,3,.8,1.1-.2,1.9-.7,3.1-.3.5.2,1,.4,1.5.8,0,0,0,.2,0,.2h0Z" fill="#fff"/><path d="M198.3,424.8c-1.4.9-2.9,1.3-4.5,1.4-1.6,0-3.1-.6-4.7-.3-1.2.1-2.5.6-3.6,0,0,0,.4.2.4.2-2.7-.2-5.4-1.4-7-3.6,0,0,.1-.2.1-.2,1.3.3,2.5.6,3.7.9,1.3.3,3,.8,3.9,1.2,1.7.6,3.6,1.2,5.5.5,2-.7,4-.7,6.1-.2,0,0,0,.2,0,.2h0Z" fill="#fff"/><path d="M214.1,396c-1.9.8-3.7,1-5.7.9,0,0-5.8.3-5.8.3v-.2c1.8-.7,3.7-1.2,5.6-1.6,2-.6,4.1-.8,5.9.5,0,0,0,.2,0,.2h0Z" fill="#fff"/><path d="M201,421.3c-1,1.7-2.9,2-4.6,1.8-1.2,0-2.5-.1-3.7-.5-.4-.2-.9-.1-1.2-.6,0,0,.2,0,.2,0,1.5.2,3.1-.3,4.5-.5.8-.2,1.5-.5,2.2-.5.8,0,1.5,0,2.4.1v.2h.1Z" fill="#fff"/><path d="M204.3,391.1c-1.6.9-3.1.9-4.8.7-1.6,0-3.2,0-4.8.2v-.2c1.4-.8,3-1.3,4.7-1.6,1.7-.5,3.4-.5,4.9.7,0,0,0,.2,0,.2h0Z" fill="#fff"/><path d="M208.1,409.7c-1.8.4-3.2,0-4.8-.6-1.5-.5-3.1-.9-4.7-1.1v-.2c1.6-.3,3.3-.4,5-.2,1.8,0,3.5.5,4.5,2,0,0,0,.2,0,.2h0Z" fill="#fff"/><path d="M210.4,406.1c-1.2,1.1-2.5,1-3.8.4-1.2-.3-2.4-.8-3.5-1.3,0,0,0-.2,0-.2h1.9c0,0,1.8,0,1.8,0,.6,0,1.2-.2,1.8,0,.6.2,1.1.4,1.7,1v.2h0Z" fill="#fff"/><path d="M152.9,403.6c3.1,1.1,5.5,3.3,7.9,5.5,1.7,1.3,3.9,1.8,5.8,2.7,3,1.3,5.6,2.9,8.2,5,0,0,0,.2,0,.2-2.2-.3-4.3-1-6.2-1.9-3-1.3-5.3-3.8-8-5.5-3-1.2-5.9-2.9-7.6-5.9,0,0,0-.2.1-.2h0Z" fill="#fff"/><path d="M151.7,401.5c4,.7,7.7,2.2,11.4,3.6,2.6.8,5.3.5,8,.8,4,.3,7.9.9,11.9,2,0,0,0,.2,0,.2-4.1.7-8.1.5-12.1-.3-2.7-.5-5.2-1.6-7.8-2.1-2-.3-4.1-.3-6-1.1-.6-.2-1.4-.5-1.9-.8-1.2-.6-2.4-1.3-3.5-2.2,0,0,0-.2,0-.2h0Z" fill="#fff"/><path d="M152,401.1c2.7-1.3,5.3-1.2,8.1-.9,1.8,0,3.5-1,5.3-1.3,2.7-.7,5.3-1,8.1-.9,0,0,.1.1,0,.2-1.6,1.1-3.3,1.7-5.1,2.2-2.7.7-5.5.1-8.2.5-2.7.9-5.4,1.4-8.2.5,0,0-.1-.2,0-.2h0Z" fill="#fff"/><path d="M152.2,401.9l4.7,2c1.5.7,3,1.7,4.5,2.4,3,1.6,6.1,3.1,9.2,4.6v.2c-5-1.5-10.1-3-14.6-5.5-1.5-1-3-2.1-3.9-3.6,0,0,.1-.1.1-.1h0Z" fill="#fff"/><path d="M153.5,402c2.2-1.1,4.4-.8,6.6,0,2.1.5,4.2,1.2,6.3,1.9,0,0,0,.2,0,.2-1.6-.1-4.9-.4-6.5-.6-2.3,0-4.3-.2-6.4-1.3,0,0,0-.2,0-.2h0Z" fill="#fff"/><path d="M147.4,393.3c-1.3-3.1-.9-6.5-.1-9.6.3-3.2-.3-6.5.4-9.7.4-2.1,1.1-4.2,2.2-6.1,0,0,.2,0,.2,0,.2,3.3-.2,6.4-.9,9.6-.3,2.1-1.3,4.1-1.3,6.3.4,3.2.6,6.4-.3,9.6,0,0-.2.1-.2,0h0Z" fill="#fff"/><path d="M148.4,394.9c-.2-4.3,1.7-8,4.1-11.4,1.4-2.3,2.1-5,3.4-7.4,1.9-3.6,4.3-6.9,7.5-9.5,0,0,.2,0,.2.1-1.7,3.7-3.7,7.1-6.1,10.4-1.4,2.2-3.4,4.2-4.5,6.7-1.3,3.8-2.5,7.6-4.5,11.1,0,0-.2,0-.2,0h0Z" fill="#fff"/><path d="M148.6,395.3c1.4-2.6,3.7-4.1,6.2-5.3,2.2-1.6,3.9-4,6.3-5.3,1.6-.9,3.3-1.7,5.2-1.9,0,0,.2.1,0,.2-2,2-4,3.6-6.5,4.9-1.5.9-3.4,1.4-4.8,2.6-1.9,2.1-3.7,4-6.5,4.9,0,0-.2,0-.1-.2h0Z" fill="#fff"/><path d="M147.9,393.5c-.6-2.9,0-5.6.8-8.3.6-2.4,1.6-5.7,2.3-8,0,0,.2,0,.2,0-.2,2.4-.6,5.9-1,8.3-.2,2.8-.7,5.5-2.2,8,0,0-.2,0-.2,0h0Z" fill="#fff"/><path d="M149,394.2c.3-2.4,1.8-4.3,3.6-5.8,1.6-1.6,3.3-3.1,5.2-4.4,0,0,.1.1.1.1-1.4,1.8-2.8,3.6-4.1,5.3-1.2,2-2.5,3.6-4.6,4.9,0,0-.2-.1-.2-.1h0Z" fill="#fff"/><path d="M136.8,393.5c-3.4-.2-6.3-1.9-8.8-4-2.8-1.6-6-2.5-8.6-4.5-1.7-1.3-3.3-2.7-4.6-4.6,0,0,0-.2.1-.2,3.1,1.2,5.7,2.9,8.3,4.8,1.7,1.2,3.2,2.9,5.1,3.8,3.1,1,6.1,2.1,8.5,4.3,0,0,0,.2,0,.2h0Z" fill="#fff"/><path d="M139.5,393.9c-1.9-.7-3.7-1.9-5.2-3.3-1.6-1.3-2.6-3.2-3.8-4.8-1.7-2.1-3.9-3.8-5.5-5.9-2.6-3.1-4.7-6.6-6-10.5,0,0,.1-.2.2-.1,2.8,3,5.2,6.1,7.3,9.5,1.5,2.2,2.6,4.7,4.5,6.6,3,2.6,6.1,5.2,8.6,8.3,0,0,0,.2-.1.2h0Z" fill="#fff"/><path d="M139.4,394.1c-2.1-2.1-2.8-4.8-3.2-7.5-.9-2.6-2.6-4.9-3.2-7.6-.4-1.8-.6-3.6-.3-5.6,0,0,.2-.1.2,0,1.4,2.5,2.3,4.9,2.8,7.6.5,1.7.4,3.7,1.1,5.3,1.5,2.4,2.7,4.7,2.8,7.7,0,0-.1.2-.2,0h0Z" fill="#fff"/><path d="M139,394.5c-3.6-.6-6.4-3.1-8.7-5.7-2.4-2.5-4.8-5-6.9-7.7h.1c1.3,1,2.6,2.1,3.9,3.2,2.5,2.3,5.4,4.3,8,6.4,0,0,3.7,3.5,3.7,3.5v.2h0Z" fill="#fff"/><path d="M138.4,393.2c-2.1-1.2-3.3-3.3-4-5.5-.9-2.1-1.6-4.2-2.2-6.4,0,0,.2,0,.2,0,1.1,2,2.3,3.9,3.4,5.8,1.4,1.9,2.4,3.7,2.8,6.1,0,0-.2.1-.2.1h0Z" fill="#fff"/><path d="M135.8,404.2c-3.3,0-6.3-1.1-9.3-2.3-2.1-.6-4.3-.2-6.4-.5-3.2-.2-6.3-.7-9.4-1.7,0,0,0-.2,0-.2,2.2-.5,4.3-.6,6.5-.4,3.3.2,6.3,1.6,9.4,2.2,2.1.2,4.4.1,6.4,1.1,1,.4,2,.9,2.9,1.6,0,0,0,.2,0,.2h0Z" fill="#fff"/><path d="M136.9,405.6c-3.9,1.1-7.8,1.5-11.8,1.9-2.6.5-5,1.9-7.5,2.9-3.7,1.6-7.5,2.8-11.5,3.6,0,0-.2-.1,0-.2,3.3-2.5,7-4.1,11-5.2,2.6-.8,5.3-.9,7.9-1.7,1.9-.6,3.8-1.6,5.8-1.8.6,0,1.5-.2,2-.2,1.4,0,2.8,0,4.1.4,0,0,.1.2,0,.2h0Z" fill="#fff"/><path d="M136.2,404.8l-5.1.3c-1.7.1-3.4-.1-5.1-.1-3.4,0-6.9,0-10.3.1,0,0,0-.2,0-.2,5.1-.9,10.3-1.9,15.5-1.8,1.8.2,3.6.5,5.1,1.5v.2h0Z" fill="#fff"/><path d="M135.5,405.9c-1.7,1.8-3.6,2.6-5.8,3.4-2,.9-4.1,1.8-6.1,2.8v-.2c1.6-1.5,3.5-2.8,5.4-4,1.9-1.4,4-2.4,6.5-2.2,0,0,0,.2,0,.2h0Z" fill="#fff"/><path d="M143.9,394.7c-1.6-1.6-2,1.1-2.7,1.1-.7,0-1.1-.4-1.7-.2-.6.2-.9.1-1.1,1.6-.2,1.5.6.7.3,1.5-.3.8-.8,1.1-.9,1.8s-.3.9.2,1.3.9.4.7.9c-.2.5.3,1,.6,1.5.3.6.5,1.5,1.1,1.7s.7-.5.9.5c.2,1,0,1.5,1.1,1.5,1,0,1.3,0,1.6-.7.3-.6.9-.5,1.6-1.2.6-.7,1.4.2,2-.5.6-.6,1.2-1.8.7-2.1s0-.7,0-1.6c0-.9,1-2.2.4-2.3-.6-.2-.9-.4-1.1-1.1-.2-.7.3-1.2,0-1.7s-1.6-1-2-.7-1.7-1.3-1.7-1.3Z" fill="none" stroke="#fff" stroke-miterlimit="10" stroke-width=".9"/><path d="M142.9,405.7c1.1,1.3,1.5-.8,2.1-.8.5,0,.8.3,1.3.2s.7,0,.9-1.2c.2-1.1-.4-.6-.2-1.2s.7-.8.8-1.3.3-.7,0-1-.7-.3-.5-.7-.2-.7-.4-1.2-.4-1.2-.8-1.3-.5.3-.6-.4c-.1-.7,0-1.2-.7-1.1-.8,0-1,0-1.2.4s-.7.3-1.2.9c-.5.5-1-.2-1.5.3-.5.5-1,1.3-.6,1.6s0,.5-.1,1.2-.8,1.6-.4,1.7.7.3.8.9-.3.9,0,1.3c.3.4,1.2.8,1.5.6.3-.2,1.3,1.1,1.3,1.1Z" fill="none" stroke="#fff" stroke-miterlimit="10" stroke-width=".7"/><path d="M142.6,397.8c-1.1-.5-.8.9-1.1,1.1s-.6,0-.9.2-.4.2-.3,1c.2.8.4.2.4.7,0,.5-.2.7-.1,1.1s0,.5.3.6.5,0,.5.3.3.4.6.6c.3.2.6.6.9.6s.2-.4.5,0,.3.8.8.5c.5-.2.6-.3.7-.6s.4-.4.6-.9.7-.2.9-.6.3-1.1,0-1.2c-.3,0-.1-.4-.3-.8s0-1.3-.2-1.2-.5,0-.7-.3,0-.6-.4-.8-1-.2-1.1,0-1.1-.3-1.1-.3Z" fill="none" stroke="#fff" stroke-miterlimit="10" stroke-width=".5"/><path d="M267.1,248c-.1-.5-.1-.9-.1-1.2,0,0,0,0,.1,0,.3-.1.6-.3.8-.6.5.1,1,0,1.3-.3.2,0,.5.2.7.3,4,13.6,13.6,26.4,23.9,20.3s7.2,1.3,9.1-1.1c4.1-5.3-.5-10.4-2.7-14.4-4.8-8.7-16.3-10.6-27.8-7.9-.8-.3-1.3-.6-1.6-.9.2-.4.2-.9,0-1.3.3-.5.8-.9,1.2-1.2,3-.3,6.5,0,12.8-1.6,4.4-1.2,10.3.7,14.2-1.7,4.5-2.9,8.4-10.8,4.5-16-1-1.3-4.2-2-5.2-3.1-3.8-3.9-5.6-6.3-9.4-6.1-3.9.2-7.7,2.6-11,7.3-2.9,4.2-5.5,10.1-7.5,18-.4.4-.8.8-1.1,1-.5-.1-1.1,0-1.5.3,0,0,0,0,0,0,0,0,0-.1,0-.2-.4-.5-1.1-.6-1.7-.4-.3-.3-.5-.6-.6-.8,4.1-8.3,15.2-27.8,2.8-33.1-1.5-.7-3.2-4.5-7-4.5-4.5.7-5.8,5-7.6,6.1-6.5,3.9-4,15.9,8.8,32.7.2.5.3.9.2,1.2,0,0,0,.2,0,.2-.2.6-.8.8-1.5.9-3.1-2.9-8-7-13.1-9.3-5.2-2.4-13.2-3.9-17.4.4s.3,8.4-.6,13.2c-1.8,5.8.8,7.7,4.4,10.7,6.6,5.4,17.2,4.4,27.8-8.5.6-.4,1.1-.6,1.4-.6.2,0,.4.1.6.2.3.3.2,1,0,1.6-5.3,7.5-26.5,19.6-7.3,35.1,2.7,2.2.7-1.4,12.6,6.2,6.3-.2,10.5-13.1-2.2-40.7Z" fill="none" stroke="#fff" stroke-miterlimit="10" stroke-width="2.4"/><path d="M260.8,239.9c-1.8,1,.5,2,.3,2.6s-.6.8-.6,1.4-.1.8,1.1,1.4c1.2.5.8-.4,1.4.1s.8,1,1.3,1.2.7.5,1.2.2c.5-.3.6-.6.9-.3s.9,0,1.4-.2c.6-.2,1.4,0,1.7-.6s-.2-.7.6-.6c.9,0,1.3.3,1.5-.5.2-.9.3-1.1-.2-1.5s-.2-.9-.6-1.6.5-1.1.1-1.8-1.3-1.5-1.6-1.2-.6-.2-1.3-.4-1.6-1.4-1.9-.9-.6.6-1.2.6c-.6,0-.9-.6-1.5-.4-.6.2-1.3,1.1-1.1,1.5.2.4-1.5,1.1-1.5,1.1Z" fill="none" stroke="#fff" stroke-miterlimit="10" stroke-width=".8"/><path d="M260,241c-2.2-.3-3.9-1.4-5.8-2.5-3.4-1.1-6.8-1.3-10-3.2,0,0,0-.1,0-.1,1.5-.1,2.9,0,4.2.4,2.1.5,3.9,1.7,5.8,2.5,2.1.4,4.2,1.1,5.7,2.8,0,0,0,.1,0,.1h0Z" fill="#fff"/><path d="M260.5,243.9c-2.7,0-5.2-.4-7.8-.8-4.4,0-8.6,1.3-13.1.8,0,0,0-.1,0-.1,1.7-.7,3.4-1,5.2-1.3,2.6-.4,5.3.1,7.9.2,2.6-.3,5.4-.3,7.8,1.1,0,0,0,.1,0,.1h0Z" fill="#fff"/><path d="M261.6,245.2c-1.5,1.2-3.3,1.5-5.1,1.6-1.2.3-2.1,1.1-3.2,1.5-1.6.8-3.2,1.3-5.1,1.6,0,0-.1,0,0-.1.9-.9,1.9-1.5,3-2.1,1.6-.8,3.5-.8,5.2-1.4,1.6-.9,3.2-1.6,5.2-1.4,0,0,0,0,0,.1h0Z" fill="#fff"/><path d="M260.3,242.6c-2,0-4.7-.3-6.6-.7-2.2-.3-4.4-.6-6.7-.8h0c2.3-.3,4.5-.3,6.8-.2,2.3,0,4.7.2,6.6,1.7,0,0,0,.1,0,.1h0Z" fill="#fff"/><path d="M261,241.4c-1.9.2-3.6-.2-5.4-.9-1.7-.6-3.4-1.1-5.1-1.8h0c1.8.1,3.6.5,5.4.8,1.8.2,3.6.7,5.1,1.8,0,0,0,.1,0,.1h0Z" fill="#fff"/><path d="M259.8,239.8c-3.6-1.2-6.3-3.9-10-5.1,0,0,0-.1,0-.1,1.9.3,3.7.9,5.5,1.7,1.8.7,3.5,1.7,4.6,3.4,0,0,0,.1,0,.1h0Z" fill="#fff"/><path d="M260.1,244.6c-2.5,1.4-5.7,1.1-8.6,1.8,0,0,0-.1,0-.1,1.3-.6,2.7-1.1,4.2-1.6,1.4-.5,2.9-.8,4.4-.3,0,0,0,.1,0,.1h0Z" fill="#fff"/><path d="M261.5,245.8c-.6,1.4-1.9,2.2-3.3,2.8-1.3.6-2.6,1.2-4,1.6h0c1.2-.9,2.4-1.7,3.5-2.5,1.1-.9,2.2-1.7,3.7-2,0,0,0,0,0,0h0Z" fill="#fff"/><path d="M231,251c1.7-.2,3.3.4,4.8,1.1.5.1,1.1.1,1.7,0,2.3-.2,4.3,0,6.5.2,0,0,0,.1,0,.1-1,.8-2.2.9-3.3,1-1.7,0-3.3-.7-5-1-1.1,0-2.3.1-3.3-.4-.5-.2-1-.5-1.5-.9h0Z" fill="#fff"/><path d="M229.7,237.9c.9-.9,2-1.4,3.3-1.5.8-.2,1.7.1,2.4-.1.7-.3,1.4-.8,2.3-.7.4,0,.9,0,1.3.5,0,0,0,0,0,0-.7.3-1.5.7-2.3.7-.4,0-.8-.1-1.2-.1-1.2.2-2.1,1.1-3.3,1.3-.8.1-1.5.2-2.4,0,0,0,0,0,0-.1h0Z" fill="#fff"/><path d="M228.8,247.5c2-.2,3.8,0,5.8.1,1.9.1,4,0,6,0-1.8.6-4,.8-5.9,1-2,.3-4.2.2-5.9-1,0,0,0-.1,0-.1h0Z" fill="#fff"/><path d="M229.4,239.6c2.6-1.4,5.8-1.3,8.7-1.7,1,0,2.1-.3,3,.1,0,0,0,.1,0,0-.9-.2-1.9.3-2.9.4,0,0-2.9.7-2.9.7-1.9.6-3.9.9-5.9.5,0,0,0-.1,0-.1h0Z" fill="#fff"/><path d="M229.6,246.4c.6-.5,1.2-.7,1.9-.6.3,0,.7.2,1,.2,1,0,1.8-.8,2.9-.9.4,0,1.8,0,2.1.3-.8.9-1.8,1.2-2.9,1.2-.7,0-1.4-.3-2.1-.1-1,.5-1.9.8-3,.1,0,0,0,0,0-.1h0Z" fill="#fff"/><path d="M230.5,241.7c.5-.5,1.2-.8,1.9-.8.3,0,.7.2,1,.2.3,0,.7-.1,1-.3.9-.5,1.9-.8,3-.6.3,0,.9.2,1.1.5,0,0,0,0,0,0h0c-.9.6-1.8.9-2.8.9-.7,0-1.4-.3-2,0-.6.3-1.2.8-1.9.6-.3,0-.7,0-1.1-.3,0,0,0,0,0-.1h0Z" fill="#fff"/><path d="M229.8,234.2c1-1,2.3-1.7,3.7-1.7.7,0,1.4-.1,2-.4.7-.3,1.5-.7,2.3-.5,0,0-.3,0-.3,0,1.7-.3,3.6,0,5,1.2,0,0,0,.1,0,.1-1.7,0-3.7,0-5.1-.2-.6,0-1.2-.1-1.7,0-1.4,0-2.4,1.2-3.7,1.4-.6.2-1.3.3-2,.3h0Z" fill="#fff"/><path d="M230.1,249.4c2.6-.6,5,.3,7.6.4,0,0,0,.1,0,.1-1.3.3-2.5.4-3.8.5-1.3.2-2.7.1-3.8-.9,0,0,0-.1,0-.1h0Z" fill="#fff"/><path d="M229.7,233.2c.7-1.3,2-1.7,3.3-2,1.3-.3,2.5-.5,3.8-.6h0c0,.1-3.5,1.6-3.5,1.6-1.2.6-2.2,1-3.6,1.1,0,0,0-.1,0-.1h0Z" fill="#fff"/><path d="M229.9,236.6c.7-2.1,3.3-2,5-2.1.3,0,.5,0,.8.2h-.1c-1.4.2-2.9,1.2-4.1,1.7-.5.1-.9.2-1.5.3h0Z" fill="#fff"/><path d="M232.5,252.8c1.2-.1,2.1.3,3,.9.9.4,1.9.8,2.9,1.2h0c-1.1.2-2.2,0-3.2-.2-1.1-.2-2.2-.6-2.8-1.7,0,0,0-.1,0-.1h0Z" fill="#fff"/><path d="M230,243.4c1.1-.5,2-.5,3.1-.3,1,0,2.1,0,3.1,0h0c-1,.6-2,.9-3.1,1-1.1.3-2.3.2-3.2-.6,0,0,0-.1,0-.1h0Z" fill="#fff"/><path d="M229.5,245.2c.6-.8,1.4-1,2.3-.9.8,0,1.6.1,2.4.3h0c-1.2.4-2.3.8-3.5,1-.4,0-.8,0-1.3-.3h0Z" fill="#fff"/><path d="M304.2,223.9c0,1.8-.9,3.3-2.1,4.5-.9,1.4-1.3,3.2-2.5,4.4-.8.8-1.7,1.6-2.9,1.9h0c1.3-1.9,2.5-3.6,4.1-5.2.4-.4.8-.8,1-1.3.4-1,.6-2.1,1.3-3,.3-.5.6-.9,1.1-1.3h.1Z" fill="#fff"/><path d="M295.1,214.4c-.7,1.1-1.6,1.8-2.7,2.4-.7.4-1.6.5-2.1,1.1-.3.3-.5.7-.7,1-.4.4-1.6,1.2-2.1,1.2,0-.9.7-1.6,1.4-2.1.4-.2.8-.3,1.1-.5,1-.7,1.5-1.9,2.6-2.5.7-.4,1.5-.7,2.4-.7,0,0,0,0,0,.1h0Z" fill="#fff"/><path d="M303,220c-.2,2.1-1.6,3.8-3.1,5.1-1.5,1.3-3,2.9-4.7,3.8,1.2-1.5,2.7-2.9,3.9-4.5,1.2-1.6,2.3-3.1,3.8-4.5,0,0,.1,0,.1,0h0Z" fill="#fff"/><path d="M296.6,215.3c-1.4,2.7-4.3,4.1-6.6,5.9-.7.6-1.7,1.1-2.2,1.9,0,0,0,0,0,0,0,0,0,0,0,0,.1-.6.5-.9.9-1.3.7-.8,2.4-2.4,3.2-3.1,1.4-1.4,2.9-2.7,4.8-3.4,0,0,.1,0,0,0h0Z" fill="#fff"/><path d="M301.6,219.9c-.2,1.3-1,1.8-2.1,2.2-.6.4-.8,1.2-1.3,1.6-.7.8-1.6,1.3-2.8,1.4,0,0,0,0,0,0,.5-1,1.1-1.7,2-2.3.5-.4,1.3-.5,1.8-1,.4-.6.6-1.3,1.2-1.6.3-.2.6-.3,1-.4,0,0,.1,0,0,0h0Z" fill="#fff"/><path d="M297.5,217.4c-.2.7-.6,1.3-1.3,1.6-.3.1-.7.2-1,.4-.8.6-1.1,1.7-2,2.3-.5.4-1.2.7-1.9.9,0,0,0,0,0,0,.1-1.2.9-2,1.8-2.5.5-.4,1.3-.5,1.8-1,.4-.5.7-1.2,1.4-1.5.3-.1.6-.3,1.1-.3,0,0,0,0,0,.1h0Z" fill="#fff"/><path d="M292.3,212.1c-1,1-2,1.8-3.4,2.2-.7.2-1.2.5-1.7,1-.4.4-.8.9-1.1,1.4-.8,1.2-2.1,2.7-3.2,4,0,0-.1,0-.1,0,0-1.8,1-3.5,2.3-4.6,0,0-.1.2-.1.2.3-.8,1.2-1,1.9-1.4,1.3-.6,2-2,3.3-2.4.6-.3,1.3-.5,2-.5h0Z" fill="#fff"/><path d="M303.6,222.2c.1,1.5-.8,2.6-1.8,3.4-.9.9-1.9,1.8-2.9,2.6h0c.7-1.1,1.5-2.2,2.2-3.2.6-1.2,1.4-2,2.5-2.8,0,0,.1,0,.1,0h0Z" fill="#fff"/><path d="M291.5,211.3c-1,1-1.9,1.6-3.2,2,0,0-3.4,1.7-3.4,1.7h0c.9-1,1.9-1.8,3-2.5,1-.9,2.2-1.6,3.7-1.2,0,0,0,.1,0,.1h0Z" fill="#fff"/><path d="M293.9,213.7c-1.4,1.5-3.7,1.6-5.2,3,0,0-.1,0-.1,0,0-.6.6-.9,1-1.4,1.2-1,2.6-2.6,4.4-1.8,0,0,0,.1,0,.1h0Z" fill="#fff"/><path d="M299.1,218.2c0,1.2-.7,2.1-1.7,2.8-.8.7-1.7,1.3-2.7,1.8h0c1.2-1.2,2-2.5,3-3.7.4-.3.8-.7,1.4-.9h.1Z" fill="#fff"/><path d="M300.8,219.1c-.2,1-.7,1.4-1.5,1.8-.7.4-1.3.9-2,1.4h0c.4-.8.9-1.5,1.4-2.1.5-.8,1.1-1.3,2.2-1.2,0,0,0,.1,0,.1h0Z" fill="#fff"/><path d="M302.1,253.9c-1.7-.5-2.9-1.6-4.1-2.8-1.4-.9-3.1-1.1-4.6-1.9-1-.5-1.9-1-2.9-1.5h0c1.2-.5,2.4-.1,3.4.2,1.6.6,2.8,1.9,4.2,2.8,1,.4,2.2.8,2.9,1.7.4.4.8.9,1,1.4h0Z" fill="#fff"/><path d="M300.4,266c-1.3.2-2.5-.2-3.5-.9-.7-.4-1.2-1.1-1.9-1.4-.8-.2-1.6-.3-2.2-.9-.3-.3-.6-.6-.7-1.2,0,0,0,0,0,0,.8.2,1.6.4,2.2.9.3.3.5.6.9.9,1,.6,2.3.5,3.4,1.1.7.4,1.3.8,1.9,1.5,0,0,0,.1,0,.1h0Z" fill="#fff"/><path d="M303.3,257.9c-1.7-1.1-3-2.4-4.4-3.8-1.4-1.3-3.2-2.5-4.6-3.8,1.8.7,3.6,1.9,5.2,3,1.7,1.1,3.3,2.5,3.9,4.5,0,0,0,.1-.1,0h0Z" fill="#fff"/><path d="M302.4,265.5c-2.9-.6-5.3-2.7-7.8-4.2-.7-.6-1.8-1.1-2.3-2,0,0,0,0,.1,0,.6.7,1.7,1,2.5,1.5,0,0,2.6,1.3,2.6,1.3,1.8.8,3.6,1.7,4.9,3.4,0,0,0,.1,0,.1h0Z" fill="#fff"/><path d="M304.8,259.8c-.7,0-1.4-.3-1.9-.8-.2-.3-.4-.6-.6-.8-.5-.5-1.3-.4-1.9-.7-1-.4-1.7-.9-2.4-1.9,0,0,0,0,0-.1.8-.2,1.5,0,2.1.3,1,.4,1.5,1.4,2.4,2,1.1.2,2,.6,2.4,1.8,0,0,0,.1,0,.1h0Z" fill="#fff"/><path d="M303.4,264.3c-.7,0-1.4-.1-2-.6-.2-.2-.4-.6-.7-.8-.3-.2-.6-.3-.9-.4-1-.2-2-.6-2.7-1.4-.2-.2-.6-.7-.5-1.1,0,0,0,0,0,0h0c1,.2,2,.5,2.7,1.2.5.4.9,1.1,1.5,1.3.6.2,1.4.2,1.9.7.3.2.5.5.7.9,0,0,0,.1,0,.1h0Z" fill="#fff"/><path d="M293.2,266.7c-1.4.2-2.8-.1-3.9-1-.5-.4-1.1-.7-1.8-1-.7-.3-1.6-.4-2.1-1.1,0,0,.2.2.2.2-1.5-.9-2.7-2.3-3.1-4.1,0,0,.1,0,.1,0,1.3,1.1,2.8,2.3,3.8,3.4.4.4.8.8,1.3,1.2,1.1.9,2.6.6,3.8,1.3.6.3,1.2.6,1.8,1.1h0Z" fill="#fff"/><path d="M292.6,267.7c-1.4.6-2.7,0-3.8-.6-1.2-.6-2.3-1.2-3.3-1.9h0c0-.1,3.6.9,3.6.9,1.3.2,2.4.6,3.5,1.4,0,0,0,.1,0,.1h0Z" fill="#fff"/><path d="M295.4,265.5c-1.8,1.2-3.8-.5-5.3-1.6-.2-.2-.4-.3-.5-.7h.1c1.2.8,2.9,1,4.3,1.4.5.2.9.4,1.4.8h0Z" fill="#fff"/><path d="M304.2,263.2c-3.3-1-5.6-3.7-8.6-5.2,0,0,0-.1,0-.1,1.6.5,3.2,1.2,4.7,2,1.6.7,3,1.7,3.9,3.3,0,0,0,.1,0,.1h0Z" fill="#fff"/><path d="M304.3,261c-1,.3-1.7-.1-2.3-.8-.6-.6-1.2-1.1-1.7-1.8h0c.8.2,1.5.6,2.2.9.9.3,1.4.7,1.8,1.6,0,0,0,.1,0,.1h0Z" fill="#fff"/><path d="M253,205.9c.5,1.7.1,3.3-.3,4.9,0,.5,0,1.1.2,1.6.6,2.2.7,4.2.8,6.5,0,0-.1,0-.1,0-.9-.9-1.2-2-1.5-3.1-.4-1.7.2-3.4.2-5.1-.2-1.1-.5-2.2-.1-3.4.1-.6.3-1.1.7-1.6h.1Z" fill="#fff"/><path d="M264.3,201.1c.8,1,1.1,2.2,1.1,3.5,0,.8-.4,1.6-.2,2.4.2.8.6,1.5.4,2.4-.1.4-.2.8-.6,1.2,0,0,0,0,0,0-.2-.8-.5-1.6-.4-2.4,0-.4.3-.8.3-1.2,0-1.2-.8-2.3-.8-3.4,0-.8,0-1.6.2-2.4,0,0,0,0,.1,0h0Z" fill="#fff"/><path d="M255.9,202.8c-.1,2-.4,3.8-.9,5.8-.4,1.9-.5,4-.8,5.9-.4-1.9-.3-4-.2-6,0-2,.4-4.1,1.8-5.7,0,0,.1,0,.1,0h0Z" fill="#fff"/><path d="M262.8,199.5c1,2.8.5,6,.4,8.8-.1,1,0,2.1-.5,3,0,0-.1,0,0,0,.3-.9,0-2,0-2.9,0,0-.3-2.9-.3-2.9-.3-2-.4-4,.4-5.9,0,0,.1,0,.1,0h0Z" fill="#fff"/><path d="M256.7,200.5c.4.7.5,1.3.3,2,0,.3-.3.6-.4,1,0,1,.6,1.9.5,3,0,.4-.2,1.8-.6,2.1-.8-.9-.9-1.9-.8-3,0-.7.5-1.3.4-2-.4-1.1-.5-2,.3-3,0,0,.1,0,.1,0h0Z" fill="#fff"/><path d="M261.3,199.3c.4.6.6,1.3.6,2,0,.3-.3.7-.3,1,0,.3,0,.7.2,1,.4,1,.5,2,.2,3-.1.3-.3.9-.7,1,0,0,0,0,0,0h0c-.4-1-.6-2-.4-3,0-.7.5-1.3.4-2-.2-.6-.6-1.3-.4-2,0-.3.2-.7.4-1,0,0,0,0,.1,0h0Z" fill="#fff"/><path d="M268.7,204c.9,1.1,1.3,2.5,1.2,3.9,0,.7,0,1.4.1,2,.2.7.5,1.6.2,2.3,0,0,0-.3,0-.3,0,1.8-.6,3.6-1.9,4.8,0,0-.1,0-.1,0,.2-1.7.5-3.6.9-5,.2-.5.3-1.1.3-1.7.2-1.4-.8-2.5-.9-3.9,0-.7-.1-1.3,0-2h.1Z" fill="#fff"/><path d="M270.7,205.9c1.2.9,1.4,2.3,1.5,3.6.1,1.3.2,2.6.1,3.8h-.1s-1-3.7-1-3.7c-.5-1.2-.7-2.3-.6-3.7,0,0,.1,0,.1,0h0Z" fill="#fff"/><path d="M266.2,202.7c1.9.9,1.5,3.5,1.4,5.3,0,.3,0,.5-.3.8h0c0-1.5-.7-3.1-1.1-4.5,0-.5,0-1,0-1.6h.1Z" fill="#fff"/><path d="M259.9,199.2c.9,3.3-.2,6.7,0,10.1,0,0-.1,0-.1,0-.4-1.7-.6-3.3-.8-5-.2-1.7-.1-3.5.7-5,0,0,.1,0,.1,0h0Z" fill="#fff"/><path d="M258,200.3c.8.7.8,1.6.5,2.4-.2.8-.3,1.6-.6,2.4h-.1c-.1-1.2-.4-2.4-.4-3.6,0-.4.2-.8.5-1.2h.1Z" fill="#fff"/><path d="M272.8,285.8c-.7-1.6-.5-3.3-.3-4.9,0-.6-.2-1.1-.4-1.6-.9-2.1-1.2-4.1-1.6-6.3,0,0,0,0,0,0,1,.7,1.5,1.9,1.9,2.9.6,1.6.2,3.4.4,5.1.3,1.1.7,2.2.5,3.3,0,.6-.2,1.1-.5,1.7h-.1Z" fill="#fff"/><path d="M256.2,281.5c-.7-1.1-1-2.3-.9-3.5,0-.8.5-1.6.3-2.4-.2-.8-.5-1.6-.2-2.4.1-.4.2-.8.7-1.2,0,0,0,0,0,0,.2.8.4,1.6.2,2.4,0,.4-.3.8-.3,1.2,0,1.2.6,2.3.6,3.5,0,.8,0,1.6-.4,2.4,0,0,0,0-.1,0h0Z" fill="#fff"/><path d="M268.7,288.1c-.4-2-.5-3.8-.5-5.8,0-2-.5-4-.6-5.9.8,1.8,1.2,3.8,1.7,5.8.5,2,.6,4.1-.4,6,0,0-.1,0-.1,0h0Z" fill="#fff"/><path d="M258.1,283c-.8-2.8-.1-6,.1-8.8.2-1,.1-2.1.7-2.9,0,0,.1,0,0,0-.3.9-.1,2-.1,2.9,0,0,0,2.9,0,2.9.2,2,.2,4-.7,5.9,0,0-.1,0-.1,0h0Z" fill="#fff"/><path d="M266.7,287.3c-.4-.6-.6-1.3-.5-2,0-.3.3-.7.3-1,0-1-.7-1.9-.7-2.9,0-.4,0-1.8.4-2.1.8.8,1.1,1.9,1,2.9,0,.7-.4,1.4-.3,2,.4,1,.7,1.9,0,3,0,0-.1,0-.1,0h0Z" fill="#fff"/><path d="M260.6,283.3c-.4-.6-.6-1.3-.4-2,0-.3.3-.7.4-1,0-.3,0-.7-.1-1-.3-1-.4-2.1,0-3,.1-.3.3-.9.7-1,0,0,0,0,0,0h0c.3,1,.5,2,.2,3,0,.7-.6,1.3-.5,2,.1.7.5,1.3.2,2,0,.3-.2.7-.5,1,0,0,0,0-.1,0h0Z" fill="#fff"/><path d="M252,278.3c-.8-1.2-1.2-2.6-.9-4,.1-.7.1-1.4,0-2-.1-.8-.4-1.6,0-2.3,0,0-.1.3-.1.3,0-1.8.8-3.5,2.2-4.6,0,0,.1,0,.1,0-.3,1.7-.7,3.6-1.2,5-.2.5-.3,1.1-.4,1.7-.3,1.3.7,2.6.6,3.9,0,.7,0,1.3-.1,2h-.1Z" fill="#fff"/><path d="M271.2,287.9c-1.1-2.4-.6-4.9-1-7.5,0,0,.1,0,.1,0,.5,1.2.9,2.4,1.2,3.7.4,1.3.7,2.7-.2,3.9,0,0-.1,0-.1,0h0Z" fill="#fff"/><path d="M254.3,280c-1.9-1.1-1.3-3.6-1.1-5.4,0-.3,0-.5.4-.8h0c-.1,1.5.5,3.1.8,4.5,0,.5,0,1,0,1.6h-.1Z" fill="#fff"/><path d="M274.1,281.4c-.6-1-.7-2-.6-3.1,0-1,0-2.1-.2-3.1h.1c.5.9.9,1.9,1.1,3,.4,1.1.4,2.2-.4,3.2,0,0-.1,0-.1,0h0Z" fill="#fff"/><path d="M262.1,284.3c-.3-1.2,0-2.1.3-3.1.3-1,.5-2,.6-3.1h.1c.3,1,.3,2.1.3,3.2,0,1.2-.2,2.3-1.2,3,0,0-.1,0-.1,0h0Z" fill="#fff"/><path d="M264.5,285.7c-.7-.7-.7-1.6-.4-2.4.2-.8.4-1.6.8-2.3h.1c0,1.2.2,2.4.2,3.6-.1.4-.2.8-.6,1.2h-.1Z" fill="#fff"/><path d="M264.7,248.1c-.7,2.1-2,3.7-3.4,5.3-1.6,3.1-2.3,6.5-4.7,9.3,0,0-.1,0-.1,0,.1-1.5.6-2.8,1.1-4.1.8-2,2.3-3.5,3.4-5.4.7-2,1.8-3.9,3.6-5.1,0,0,.1,0,.1,0h0Z" fill="#fff"/><path d="M266.1,247.3c-.4,2.7-1.2,5-2.1,7.5-.6,4.3-.1,8.7-1.4,13,0,0-.1,0-.1,0-.4-1.8-.5-3.5-.4-5.3,0-2.7,1-5.2,1.5-7.8.1-1.8.2-3.6,1-5.2.3-.8.8-1.6,1.4-2.3,0,0,.1,0,.1,0h0Z" fill="#fff"/><path d="M266.3,247.5c.9,1.7.9,3.5.8,5.3,0,1.2.7,2.3,1,3.4.5,1.7.8,3.4.8,5.3,0,0,0,0-.1,0-.8-1-1.2-2.1-1.5-3.3-.5-1.7-.2-3.6-.5-5.4-.6-1.7-1.1-3.5-.5-5.3,0,0,.1,0,.1,0h0Z" fill="#fff"/><path d="M265.8,247.6c-.7,1.9-1.7,4.4-2.7,6.1-1,2-1.9,4.1-2.8,6.1h-.1c.5-2.2,1.2-4.4,2-6.5.7-2.2,1.6-4.4,3.6-5.8,0,0,0,0,0,0h0Z" fill="#fff"/><path d="M265.8,248.5c.7,1.4.6,2.9.2,4.3-.3,1.4-.6,2.8-1.1,4.2h-.1c0-1.5.2-2.9.2-4.3,0-1.5,0-2.8.7-4.2,0,0,.1,0,.1,0h0Z" fill="#fff"/><path d="M271.3,244.3c2-.9,4.2-.8,6.3-.3,2.1,0,4.2-.4,6.3,0,1.4.2,2.8.6,4.1,1.3,0,0,0,.1,0,.1-3.7.5-6.9-.7-10.4-1-2.1.3-4.1.6-6.3,0,0,0,0-.1,0-.1h0Z" fill="#fff"/><path d="M270.3,245c2.7-.2,5.3.9,7.5,2.4,2.4,1.1,5,1.8,7.2,3.3,1.5,1,2.9,2,4.1,3.4,0,0,0,.1,0,.1-4.2-1.5-7.5-4.4-11.4-6.5-2.5-.7-5-1.4-7.4-2.7,0,0,0-.1,0-.1h0Z" fill="#fff"/><path d="M270,245.1c1.7.8,2.8,2.3,3.6,4,1.1,1.4,2.7,2.4,3.6,4,.6,1,1.2,2.1,1.4,3.4,0,0,0,.1-.1,0-1.4-1.2-2.5-2.6-3.4-4.1-.7-1-1-2.2-1.8-3-1.4-1.1-2.7-2.3-3.4-4.1,0,0,0-.1,0,0h0Z" fill="#fff"/><path d="M271.2,244.6c1.9-.4,3.6-.1,5.4.4,1.8.4,3.5.8,5.3,1.3h0c-1.8,0-3.6,0-5.4-.2-1.9,0-3.6-.3-5.3-1.3,0,0,0-.1,0-.1h0Z" fill="#fff"/><path d="M270.8,245.3c1.6.2,2.8,1.1,3.9,2.2,1.1,1,2.1,2.1,3,3.3h0c-1.2-.8-2.4-1.6-3.6-2.5-1.3-.8-2.4-1.6-3.3-2.9,0,0,0-.1,0-.1h0Z" fill="#fff"/><path d="M270.9,237.4c0-2.2,1.1-4.1,2.4-5.8,1-1.9,1.5-4,2.7-5.7.8-1.2,1.7-2.3,2.9-3.1,0,0,.1,0,.1,0-1.1,3.6-3.5,5.9-5.3,9-.6,2-1.2,4-2.6,5.7,0,0-.1,0-.1,0h0Z" fill="#fff"/><path d="M270.7,239.1c.8-2.6,2.9-4.5,5.1-6.1,1.9-1.8,3.6-3.9,5.8-5.4,1.5-1,3-1.9,4.7-2.5,0,0,.1,0,0,.1-3,3.3-6.9,5.3-10.3,8.1-1.6,2.1-3.2,4-5.2,5.8,0,0-.1,0-.1,0h0Z" fill="#fff"/><path d="M270.6,239.1c1.3-1.4,3-2,4.8-2.3,1.7-.6,3.1-1.8,4.9-2.3,1.2-.3,2.4-.5,3.6-.3,0,0,0,0,0,.1-1.6,1-3.2,1.6-4.9,2-1.1.3-2.4.3-3.5.9-1.5,1-3.1,1.9-4.9,2,0,0-.1,0,0-.1h0Z" fill="#fff"/><path d="M270.3,238.8c.3-2.4,1.9-4.2,3.5-5.8,1.6-1.7,3.2-3.2,4.9-4.7h0c-2.2,2.7-4.1,5.4-6.1,8.1,0,0-2.2,2.5-2.2,2.5h-.1Z" fill="#fff"/><path d="M271.2,238.4c.7-1.4,2.1-2.2,3.5-2.8,1.4-.6,2.7-1.2,4.1-1.6h0c-1.2.9-2.5,1.7-3.7,2.5-1.2.9-2.4,1.7-3.9,2,0,0,0-.1,0-.1h0Z" fill="#fff"/><path d="M263.9,237c-.1-2.2.5-4.1,1.3-6.1.4-3.5-.1-6.9,1.1-10.4,0,0,.1,0,.1,0,.4,1.4.5,2.8.4,4.2,0,2.1-.9,4.1-1.2,6.2,0,2.1-.2,4.3-1.6,6.1,0,0-.1,0-.1,0h0Z" fill="#fff"/><path d="M263,237.7c-.8-2.6-1.2-5.1-1.5-7.7-1.4-4.2-3.8-7.8-4.7-12.2,0,0,0-.1.1,0,3,3.5,3.9,7.9,5,12.2,1.1,2.4,1.9,5.1,1.3,7.8,0,0-.1,0-.1,0h0Z" fill="#fff"/><path d="M263.5,237.2c-.2-2-.5-4.7-.4-6.7,0-2.2-.2-4.5-.3-6.7h.1c.5,2.2.9,4.4,1.2,6.6.4,2.2.6,4.7-.5,6.8,0,0-.1,0-.1,0h0Z" fill="#fff"/><path d="M262.8,236.8c-2.1-1.9-2.8-5.1-4.3-7.6,0,0,.1,0,.1,0,1,1.1,1.9,2.3,2.8,3.5,1,1.2,1.7,2.6,1.6,4.2,0,0-.1,0-.1,0h0Z" fill="#fff"/><path d="M270.3,242c1-1.1-.8-1.3-.8-1.7s.2-.7,0-1.1,0-.6-1.1-.7c-1,0-.4.4-1,.2s-.8-.5-1.2-.6-.6-.2-.9.2c-.3.4-.2.6-.6.5s-.6.2-1,.5c-.4.2-1,.4-1.1.8s.3.4-.3.6c-.6.2-1,0-.9.7,0,.7,0,.8.5,1s.3.6.8,1c.5.4,0,.9.4,1.3s1.2.7,1.4.4.5,0,1.1,0,1.4.6,1.5.2.2-.6.7-.7.8.2,1.1,0,.6-1.1.4-1.3.8-1.2.8-1.2Z" fill="none" stroke="#fff" stroke-miterlimit="10" stroke-width=".6"/><path d="M263.1,241.6c-.8.8.6,1,.5,1.3s-.2.5,0,.8,0,.5.8.6.4-.3.8-.1c.4.2.6.4.9.5s.4.2.7,0,.2-.4.4-.3.5-.1.7-.3.7-.3.8-.6-.2-.3.3-.4.8,0,.7-.5c0-.5,0-.6-.3-.8s-.2-.5-.6-.8,0-.7-.2-1c-.3-.3-.9-.6-1.1-.4s-.4,0-.8,0c-.4,0-1.1-.5-1.1-.2s-.2.4-.5.5-.6-.2-.9,0-.5.8-.4,1-.7.8-.7.8Z" fill="none" stroke="#fff" stroke-miterlimit="10" stroke-width=".5"/><path d="M268.3,241.3c.3-.7-.6-.5-.7-.7s0-.4-.2-.6-.2-.3-.7-.1-.1.3-.4.3-.5-.1-.7,0-.3,0-.4.2,0,.3-.2.3-.3.2-.4.4-.4.4-.4.6.2.1,0,.3-.5.2-.3.5.2.4.4.4.3.2.6.3c.3.1.1.5.4.6s.8.1.8,0,.2,0,.5-.2.8,0,.8-.2,0-.3.2-.5.4,0,.5-.3.1-.7,0-.7.2-.7.2-.7Z" fill="none" stroke="#fff" stroke-miterlimit="10" stroke-width=".3"/><path d="M128.9,84.6c-.4.8-.8,1.4-1.2,1.8,0,0-.1,0-.2-.1-.6-.2-1.1-.2-1.7,0-.5-.7-1.3-1-2.1-1.1-.2-.4-.4-.8-.6-1.2,9.4-22.6,10.6-50.3-9.8-53.3-4.1-.6-8.2-9.6-13.4-8.4-11.3,2.6-10.7,14.5-12.1,22.3-3.1,16.9,10.3,32,28.6,41,.8,1.3,1.1,2.2,1.1,2.9-.7.4-1.2,1-1.4,1.7-.9.3-2.1.3-2.9.3-4.3-2.8-8.6-7.2-18.9-11.8-7.3-3.2-13-12.2-20.9-13.2-9.2-1.1-23.1,5.3-23.6,16.5-.1,2.8,3.4,7.3,3.6,9.8.8,9.4.6,14.5,6,18.4,5.5,4,13.1,4.9,22.7,2.3,8.5-2.4,18.5-7.5,29.8-15.9,1-.2,1.9-.2,2.6-.1.5.8,1.4,1.3,2.4,1.2,0,0,0,0,.1,0,0,.1,0,.2,0,.3,0,1.1.8,2.1,1.8,2.5,0,.7,0,1.4-.1,1.7-14.5,6.7-50.8,20.6-39.9,41.4,1.4,2.6-.6,9.5,4.5,13.8,6.9,4,13.2-.4,16.8.1,12.9,1.9,22.7-17,24-53.3.3-.9.6-1.5,1-1.9.1,0,.2-.2.3-.3.9-.6,2-.2,3,.4,1,7.3,3,18.1,7.3,26.8,4.4,8.9,13.4,19.7,23.7,18.5,4.7-.6,8.8-11.6,15.2-17,8.8-5.8,7.3-11.3,5.8-19.1-2.9-14.5-18.2-24.7-46.6-19-1.3-.1-2.1-.4-2.6-.7-.1-.3-.3-.6-.6-.8,0-.8.8-1.6,1.6-2.2,15.2-4.3,56.9,2.7,48.2-39-1.2-6-2.5,1.2-10-22-8.6-6.5-28.4,6-41.5,57Z" fill="none" stroke="#fff" stroke-miterlimit="10" stroke-width="4.2"/><path d="M128.4,102.3c3.4.7,1.5-3.1,2.4-3.8s1.7-.5,2.2-1.2c.6-.8,1.1-1,0-3s-1.4-.3-1.7-1.6c-.3-1.3,0-2.1-.4-3.1s-.4-1.4-1.4-1.5-1.5.2-1.6-.5-1.2-.9-2.1-1.3c-.9-.4-2-1.4-2.9-1.1-.9.3-.4,1.1-1.5.1-1.1-1-1.4-1.9-2.6-.9-1.2,1-1.6,1.1-1.5,2.2.1,1.1-.8,1.4-.9,2.9s-1.9,1-2.1,2.3c-.2,1.4,0,3.4.9,3.3.8,0,.6.9,1.3,2.1.7,1.2.6,3.6,1.5,3.3s1.5-.2,2.3.4c.8.7.6,1.7,1.6,2.1s2.9-.1,3.1-.9c.2-.8,3.3.2,3.3.2Z" fill="#fff" stroke="#fff" stroke-miterlimit="10" stroke-width="1.4"/><path d="M130.7,101.6c2.5,2.8,3.8,6.1,5,9.6,1,2.2,3,3.8,4.3,5.8,2.3,2.9,4.1,5.9,5.5,9.3,0,.1,0,.2-.2.1-2.1-1.4-3.7-3.3-5.2-5.2-2.3-2.9-3.3-6.5-5.1-9.7-2.4-2.9-4.3-6-4.6-9.9,0-.1.1-.2.2,0h0Z" fill="#fff"/><path d="M133.2,97.2c3.6,2.9,6.5,6.2,9.5,9.6,2.2,2.1,5.1,3.3,7.5,5,3.9,2.4,7.5,5,10.8,8.2,0,0,0,.2-.1.2-4.4-1.4-8.4-3.8-12-6.7-2.4-1.9-4.3-4.3-6.8-6.2-1.8-1.4-4-2.4-5.5-4.2-.5-.5-1.1-1.2-1.5-1.8-.9-1.2-1.7-2.6-2.3-4.1,0-.1,0-.2.2-.1h0Z" fill="#fff"/><path d="M133.2,94.2c2.1.1,4.1.7,5.9,1.7.9.5,1.7,1.2,2.6,1.7,1.8.9,4,.9,6,1.4,3,.7,5.8,1.8,8.6,3.4,0,0,0,.2,0,.2-2.2.3-4.3,0-6.3-.5-3.1-.7-5.6-2.8-8.5-3.8-3.1-.5-6.1-1.4-8.4-3.8,0,0,0-.2,0-.2h0Z" fill="#fff"/><path d="M132,99.1c4.5,3.8,8,8.3,12.1,12.5,1.3,1.4,2.7,2.8,4.1,4.2v.2c-4.8-3.5-9.6-7-13.6-11.4-1.2-1.6-2.4-3.4-2.8-5.3,0,0,.2-.1.2-.1h0Z" fill="#fff"/><path d="M129.8,99.9c2.7,1.9,4.5,4.4,6.1,7.1,0,0,2.5,4,2.5,4,.8,1.3,1.7,2.7,2.5,4h-.2c-1.9-1.8-4.5-4.8-6.3-6.9-2.2-2.3-4.1-4.8-4.9-8.1,0,0,.2-.1.2-.1h0Z" fill="#fff"/><path d="M129.6,103.4c1.9,2.8,2.8,5.7,3.8,8.9,1.1,3,2.4,6,4,8.8,0,0-.2.1-.2.1-2.2-2.5-4-5.3-5.5-8.2-1.7-2.9-2.8-6.1-2.4-9.6,0,0,.2,0,.2,0h0Z" fill="#fff"/><path d="M134.5,96.8c2.7.4,4.8,1.6,6.9,3.1,2.2,1.3,4.4,2.6,6.6,3.8,0,0,0,.2,0,.2-2.5-.6-4.9-1.5-7.3-2.4-2.5-.8-4.8-2.1-6.2-4.5,0,0,.1-.2.1-.2h0Z" fill="#fff"/><path d="M133.9,93.6c2.4-1.2,5-.9,7.5-.1,2.4.6,4.8,1.3,7.1,2.2,0,0,0,.2,0,.2l-3.7-.3-3.7-.3c-1.2,0-2.4,0-3.6-.2-1.2-.3-2.3-.6-3.6-1.2v-.2h0Z" fill="#fff"/><path d="M180.5,119.9c-1.6-1.1-2.9-2.5-3.9-4.2-.5-.8-.8-1.8-1.4-2.5-1.1-1.6-3-2.4-4.4-3.6-2.3-1.7-4.1-3.7-6.2-5.7,0,0,0-.2,0-.2,1.1,0,2.1.4,3,.8,1.8.8,3.4,2.1,4.6,3.6,1.3,1.4,2.1,3.3,3.5,4.7,1.5,1.2,3.2,2.4,4,4.2.4.9.8,1.8,1,2.8h-.2Z" fill="#fff"/><path d="M167.9,138.9c-2.3.3-4.3-.3-6.1-1.5-1.2-.6-2.1-2-3.4-2.5-1.4-.4-2.8-.4-3.9-1.6-.5-.6-1.1-1.1-1.2-2,0,0,0,0,0,0,1.3.3,2.7.7,3.8,1.6.5.5.9,1.1,1.5,1.5,1.7,1,4,.9,5.8,1.9,1.2.6,2.3,1.4,3.3,2.5,0,0,0,.2,0,.2h0Z" fill="#fff"/><path d="M179.6,127c-2.9-2-5.2-4.1-7.7-6.5-2.5-2.3-5.5-4.3-8-6.5,3.2,1.2,6.2,3.2,9.1,5.1,1.4,1,2.9,1.9,4.1,3.2,1.1,1.3,2.2,2.8,2.7,4.6,0,.1,0,.2-.2.1h0Z" fill="#fff"/><path d="M170.2,136.9c-3.5-.8-6.4-2.4-9.2-4.5-1.5-1-5-3.2-6.4-4.3-.6-.6-1.6-1-1.8-1.9,0-.2.2-.1.2,0,0,0,.2.3.4.4,2.2,1.4,6.1,3.1,8.5,4.3,3.2,1.4,6.2,3,8.4,5.8,0,0,0,.2-.1.2h0Z" fill="#fff"/><path d="M177.4,127.6c-1.3,0-2.4-.5-3.3-1.3-.4-.4-.7-1.1-1.1-1.4-.4-.4-1-.6-1.6-.7-1.2-.2-2.2-.6-3.2-1.2-.9-.6-1.8-1.4-2.6-2.5,0,0,0-.1,0-.2,2-.3,3.7.3,5.1,1.5,1,.6,1.5,1.9,2.6,2.4.5.3,1.2.3,1.8.5.6.2,1,.6,1.4,1,.4.4.7,1,1,1.6,0,0,0,.2-.1.2h0Z" fill="#fff"/><path d="M171,133c-1.3.1-2.5-.2-3.4-1-.4-.4-.8-1-1.2-1.3-.5-.4-1-.5-1.6-.6-1.8-.3-3.5-1.1-4.6-2.5-.4-.5-.8-1-1-1.8,0,0,0,0,0,0,0,0,0,0,0,0h.1c1.7.3,3.4.8,4.7,2,.9.6,1.5,1.9,2.6,2.3.5.2,1.2.2,1.8.3.6.2,1,.5,1.5.9.4.4.8.9,1.1,1.5,0,0,0,.2-.1.2h0Z" fill="#fff"/><path d="M163.8,143.7c-1.9.2-3.6,0-5.3-.8-1.6-.9-2.9-2.2-4.6-2.6-1.2-.4-2.8-.7-3.6-1.8,0,0,.3.4.3.4-2.6-1.5-4.8-4.1-5.3-7.1,0,0,.2-.1.2-.1,1.2.9,2.3,1.9,3.3,2.8,1.1,1,2.6,2.3,3.4,3.2,1.5,1.5,3.1,3,5.3,3.2,2.4.3,4.4,1.3,6.4,2.7,0,0,0,.2,0,.2h0Z" fill="#fff"/><path d="M180,123.1c-2.1-1-3.6-2.3-5.1-4.1,0,0-4.6-4.7-4.6-4.7v-.2c2.1,1,4,2.2,5.8,3.5,2,1.2,3.9,2.9,4.1,5.3,0,0-.2.1-.2.1h0Z" fill="#fff"/><path d="M162.8,145.3c-3.4,1.4-6.6-1.1-9.6-2.6-1-.6-1.9-1.1-2.8-1.7v-.2c0,0,6.4,1.8,6.4,1.8,2.2.4,4.1,1.1,6,2.5,0,0,0,.2,0,.2h0Z" fill="#fff"/><path d="M166.2,140.5c-2.8,1.9-5.6-.4-8-1.8-.7-.6-1.8-1.1-2-2,0,0,.2,0,.2,0,1.4,1,3.3,1.2,4.8,1.7.9.2,1.8.2,2.5.6.8.3,1.5.7,2.4,1.3v.2h0Z" fill="#fff"/><path d="M180.5,116c-1.7-1.2-2.5-2.6-3.1-4.5-.8-1.6-1.6-3.2-2.6-4.7,0,0,.2-.2.2-.2,1.5,1.1,2.9,2.5,4,4,1.4,1.5,2.3,3.2,1.8,5.3,0,0-.2,0-.2,0h0Z" fill="#fff"/><path d="M173.5,131.3c-2-.5-3.3-1.5-4.5-3-1.3-1.2-2.7-2.4-4.2-3.4v-.2c1.9.5,3.7,1.2,5.3,2.2,1.8.8,3.3,2.2,3.6,4.3,0,0-.2.2-.2.2h0Z" fill="#fff"/><path d="M176.2,129.3c-1.7.5-3-.2-4-1.4-1.1-.9-2.1-2-3-3.1,0,0,.1-.2.1-.2l1.9.9,1.9.9c.6.3,1.3.4,1.8.9.5.5,1,1,1.3,1.8v.2h0Z" fill="#fff"/><path d="M52.9,76.2c1.3-1.6,3-2.7,4.9-3.2,1-.2,2-.2,2.9-.5,1.9-.5,3.5-1.8,5.3-2.4,1.8-.7,3.8-1,5.8-.9,1,0,2,.2,3,.8v.2c-2.9.7-5.4,1.6-8.3,1.9-1.8.4-3.9.2-5.6,1-.9.4-1.6,1.1-2.5,1.5-1.2.7-2.6,1.1-4,1.4-.5.1-1,.2-1.5.2v-.2h-.1Z" fill="#fff"/><path d="M54.7,98.9c2.2-.7,4.1-.7,6.1-.2,1.3.2,2.6,1.1,4,.9.7,0,1.4-.4,2-.5,1.4-.2,2.8.1,4.1.5,0,0,0,0,0,0-.3.5-.7.6-1,.8-1,.4-2.1.7-3.1.5-.7-.1-1.4-.5-2.1-.6-2.1-.1-4,.9-6.2.4-1.4-.2-2.7-.7-3.9-1.6,0,0,0-.2,0-.2h0Z" fill="#fff"/><path d="M50.2,82.8c2.6-2.6,6.3-3.3,9.7-3.5,3.1-.2,7.5-.5,10.4,0-3.3.7-6.8.9-10.2,1.7-3.3.9-6.4,1.6-9.9,1.9-.1,0-.2-.1,0-.2h0Z" fill="#fff"/><path d="M53.6,96c4.8-2.1,10.3-.7,15.3-.6,1.6,0,3.4.4,4.9,0,0-.1.3,0,.2,0-.7.6-1.7.6-2.5.8-1.7.3-5.9.5-7.7.6-3.5.4-6.8.4-10.2-.6-.1,0-.1-.2,0-.2h0Z" fill="#fff"/><path d="M51.9,84.4c1-.8,2.1-1.3,3.4-1.2,1.2.4,2.3.7,3.5.1,2.3-.9,4.8-.9,6.9.7,0,0,0,.2,0,.2-1.2.6-2.3.8-3.5.9-1.2,0-2.3-.2-3.4-.5-.6-.2-1.2-.3-1.7-.2-.6,0-1.1.5-1.7.7-.6.2-1.1.2-1.7,0-.6,0-1.2-.2-1.8-.6,0,0,0-.2,0-.2h0Z" fill="#fff"/><path d="M54.8,92.2c1.1-.7,2.2-1,3.5-.8.6.1,1.1.5,1.7.6,1.2.2,2.3-.6,3.4-.7,1.7-.4,3.4,0,5.1.6,0,0,.1,0,.1,0,0,0,0,0,0,.1-1.4,1.5-3.4,1.7-5.2,1.4-1.1,0-2.3-.9-3.5-.7-.6,0-1.2.4-1.7.6-.6.1-1.2,0-1.7,0-.6-.1-1.2-.3-1.7-.8,0,0,0-.2,0-.2h0Z" fill="#fff"/><path d="M55.9,105.1c1.8-.3,3.5-.2,5.2.2,1.6.5,3.3,1.4,5.1,1,1-.1,2-.4,2.9-.7,2.4-.7,5.7-1.4,8.6-1.8,0,0,.1.2.1.2-2,2.4-5.1,3.6-8.1,3.6,0,0,.5-.2.5-.2-1.3.6-2.8,0-4-.2-2.3-.6-4.8.5-7.1-.3-1.1-.3-2.2-.8-3.2-1.6v-.2h0Z" fill="#fff"/><path d="M51.7,79.2c2.1-3.1,6.2-2.6,9.5-2.9,1.1,0,2.2,0,3.3,0v.2s-6.3,1.8-6.3,1.8c-2.1.9-4.1,1.2-6.4,1.1,0,0-.1-.2-.1-.2h0Z" fill="#fff"/><path d="M56,107c2.3-.3,4.3,0,6.4.8,0,0,6.4,1.5,6.4,1.5v.2c-2.2.2-4.4.2-6.7,0-2.3,0-4.8-.4-6.3-2.4,0,0,.1-.2.1-.2h0Z" fill="#fff"/><path d="M55.4,101.1c2-.2,3.4,0,5.2.8,1.6.4,3.4,1,5.1.9,0,0,.2,0,.2,0-.2.3-.5.3-.7.4-1.6.4-3.2.5-4.9.4-2,0-4.1-.4-5-2.4,0,0,.1-.2.1-.2h0Z" fill="#fff"/><path d="M53.4,89.5c2-2.5,5.3-2,8.1-1.8.9.1,1.9.3,2.8.5v.2c-2.7.2-5.4,1-8,1.6-.9,0-1.8,0-2.9-.3v-.2h0Z" fill="#fff"/><path d="M52.1,86.4c1.4-1,2.5-1.1,4.1-.8,0,0,2.1.2,2.1.2l2.1.2v.2c-.6.3-1.3.5-2,.7-1.2.3-3,1-4.2.8-.7-.1-1.5-.4-2.1-1.1v-.2h0Z" fill="#fff"/><path d="M88.4,38.4c1,1.6,1.8,3.4,2.1,5.3.1.9,0,2,.3,2.9.5,1.9,1.9,3.3,2.7,5,1.5,2.5,2.4,5,3.6,7.6,0,0-.1.2-.1.2-1-.4-1.8-1.1-2.5-1.8-1.4-1.5-2.4-3.2-2.9-5.1-.7-1.8-.7-3.9-1.5-5.6-.9-1.7-2.1-3.4-2.1-5.4,0-1,0-2,.2-3h.2Z" fill="#fff"/><path d="M103.9,24c1.9,1.2,3.1,3,3.7,5,.5,1.3.3,2.8,1.1,4,.8,1.2,1.9,2.1,2,3.7,0,.8.2,1.5-.3,2.3,0,0,0,0-.1,0-.8-1.1-1.7-2.3-1.9-3.6-.1-.7,0-1.4-.2-2.1-.7-1.9-2.6-3.2-3.3-5.2-.5-1.2-.9-2.5-1-4.1,0,0,.1-.2.2-.1h0Z" fill="#fff"/><path d="M91.2,31.6c1,3.4,1.5,6.5,1.8,9.9.5,3.3,1.3,6.7,2.1,10,0,0,0,.1,0,.1-1.7-2.9-2.7-6.4-3.8-9.7-1.1-3.3-1.7-7-.3-10.3,0,0,.2,0,.2,0h0Z" fill="#fff"/><path d="M100.7,22.4c2.2,2.8,3.4,5.9,4.3,9.3.5,1.7,1.8,5.7,2.2,7.4.1.9.6,1.8.2,2.7-.1.1-.2,0-.2-.2,0,0,0-.3,0-.5-.8-2.5-2.7-6.2-3.8-8.7-1.6-3.1-2.9-6.3-2.8-9.9,0-.1.2-.2.2,0h0Z" fill="#fff"/><path d="M91.3,27.4c1,.9,1.6,1.9,1.7,3.1,0,.6-.2,1.2,0,1.8,0,.6.4,1.1.8,1.6.8.9,1.3,1.9,1.7,3,.3,1.1.5,2.2.4,3.6,0,0,0,.1-.1.1-1.7-1-2.7-2.6-3-4.5-.3-1.1,0-2.5-.5-3.5-.2-.5-.8-1-1.1-1.5-.3-.5-.4-1.1-.4-1.7,0-.6,0-1.2.3-1.9,0,0,.1-.1.2,0h0Z" fill="#fff"/><path d="M98,23c1.1.7,1.8,1.7,2,2.9,0,.6,0,1.3,0,1.8.1.6.5,1.1.9,1.5,1.2,1.4,2,3,2,4.8,0,.6,0,1.3-.4,2,0,0,0,0-.1,0,0,0,0,0,0,0h0c-1.2-1.4-2.1-2.9-2.4-4.6-.3-1.1,0-2.5-.6-3.5-.3-.5-.8-.9-1.2-1.4-.3-.5-.5-1.1-.6-1.6,0-.6-.1-1.2,0-1.9,0,0,.1-.1.2,0h0Z" fill="#fff"/><path d="M114.4,30.9c1.6,1,2.7,2.4,3.6,4,.7,1.6.8,3.5,1.9,5,.7,1.1,1.8,2.3,1.6,3.7,0,0,0-.5,0-.5,1.1,2.8,1.1,6.2-.4,8.9,0,0-.2,0-.2,0-.3-1.5-.6-2.9-.8-4.2-.3-1.4-.6-3.5-.6-4.6-.2-2.1-.5-4.3-2.1-5.9-1.7-1.7-2.6-3.8-3.2-6.1,0,0,.2-.1.2-.1h0Z" fill="#fff"/><path d="M116.2,30.3c3.6,1.1,4.4,5.1,5.7,8.1.4,1,.8,2.1,1.1,3.1h-.2c0,0-3.7-5.3-3.7-5.3-1.5-1.7-2.4-3.4-3-5.7,0,0,.1-.2.1-.2h0Z" fill="#fff"/><path d="M110,30c3.3.3,4.1,3.9,5,6.5.2.9.7,2,.3,2.9,0,0-.2-.2-.2-.2-.5-1.6-1.7-3-2.6-4.4-.5-.7-1.2-1.3-1.6-2-.4-.8-.7-1.5-1-2.5v-.2h.1Z" fill="#fff"/><path d="M95.8,23.5c1.8,2.5,2.5,5.2,3.2,8.1.8,2.8,1.6,5.6,2.6,8.3,0,0-.2.1-.2.1-1.6-2.5-3-5.1-4.1-7.8-1.4-2.7-2.2-5.6-1.7-8.7,0,0,.2,0,.2,0h0Z" fill="#fff"/><path d="M93.3,26.4c1.6.7,2.2,2.1,2.2,3.6.2,1.4.3,2.8.3,4.2,0,0-.2,0-.2,0l-.9-1.9-.9-1.9c-.3-.6-.8-1.2-.9-1.8,0-.7-.1-1.4.1-2.2h.2Z" fill="#fff"/><path d="M101.7,156.3c.9-1.7,2-3.3,3.5-4.6.7-.6,1.6-1.1,2.3-1.8,1.3-1.4,1.9-3.4,2.9-5,1.3-2.5,3-4.7,4.6-7,0,0,.2,0,.2,0,.2,1.1,0,2.1-.3,3.1-.5,1.9-1.5,3.7-2.8,5.2-1.2,1.6-3,2.6-4,4.2-1,1.7-1.8,3.5-3.5,4.6-.8.6-1.6,1.1-2.6,1.4v-.2h-.1Z" fill="#fff"/><path d="M81.3,150.5c0-2.3.9-4.2,2.3-5.8.8-1.1,2.2-1.8,2.9-3,.6-1.3.8-2.7,2.1-3.6.7-.5,1.2-1,2.2-.9,0,0,0,0,0,0-.5,1.3-1.1,2.6-2.1,3.5-.5.4-1.2.8-1.7,1.3-1.2,1.6-1.4,3.9-2.7,5.5-.8,1.1-1.7,2.1-3,3,0,0-.2,0-.2-.1h0Z" fill="#fff"/><path d="M94.5,157.4c2.4-2.6,4.8-4.6,7.5-6.7,2.7-2.1,5-4.9,7.6-7-1.6,3-4.1,5.7-6.3,8.3-1.2,1.3-2.3,2.7-3.8,3.6-1.5,1-3.1,1.8-4.9,2-.1,0-.2-.1-.1-.2h0Z" fill="#fff"/><path d="M81.6,154.1c1.3-3.3,3.3-6,5.7-8.5,1.2-1.4,3.9-4.5,5.2-5.7.7-.6,1.2-1.4,2.2-1.6.2,0,.1.2,0,.2,0,0-.3.2-.4.3-1.7,2-3.9,5.6-5.4,7.8-1.8,3-3.8,5.8-6.9,7.5,0,0-.2,0-.2-.1h0Z" fill="#fff"/><path d="M90.8,159.5c.2-1.3.8-2.3,1.7-3.1.5-.3,1.1-.5,1.6-.9.4-.4.7-.9.9-1.5.4-1.1.9-2.1,1.6-3,.8-.9,1.6-1.6,2.8-2.2,0,0,.1,0,.2,0,0,2-.9,3.6-2.2,4.9-.8.9-2.1,1.2-2.8,2.2-.3.5-.4,1.2-.7,1.7-.3.5-.7.9-1.2,1.2-.5.3-1,.6-1.7.7,0,0-.2,0-.2-.2h0Z" fill="#fff"/><path d="M83.5,156c0-1.3.5-2.4,1.4-3.3.5-.4,1.1-.6,1.5-1,.4-.4.7-.9.9-1.5.6-1.7,1.5-3.3,3.1-4.2.5-.3,1.1-.7,1.9-.7,0,0,0,0,0,0,0,0,0,0,0,0h0c-.5,1.8-1.3,3.4-2.6,4.5-.8.8-2.1,1.3-2.7,2.3-.3.5-.4,1.2-.6,1.7-.2.5-.7.9-1.1,1.3-.5.4-1,.7-1.6.9,0,0-.2,0-.2-.1h0Z" fill="#fff"/><path d="M78.6,141.8c0-1.9.6-3.6,1.5-5.1,1.1-1.4,2.6-2.5,3.2-4.2.6-1.2,1-2.7,2.3-3.3,0,0-.4.3-.4.3,1.9-2.4,4.7-4.2,7.8-4.3,0,0,0,.2,0,.2-1.1,1.1-2.1,2-3.2,2.9-1.1,1-2.7,2.3-3.6,2.9-1.7,1.2-3.4,2.7-3.9,4.8-.6,2.3-1.9,4.2-3.6,5.9,0,0-.2,0-.2,0h0Z" fill="#fff"/><path d="M78,136.9c-1-3.6,2-6.4,3.9-9.1.7-.9,1.4-1.7,2.1-2.6h.2c0,.1-2.7,6.1-2.7,6.1-.7,2.2-1.7,3.9-3.3,5.6,0,0-.2,0-.2,0h0Z" fill="#fff"/><path d="M80.7,146.1c-1.5-3,1.2-5.5,2.9-7.7.6-.6,1.4-1.7,2.3-1.7,0,0,0,.2,0,.2-1.1,1.2-1.7,3-2.4,4.6-.3.8-.4,1.7-.9,2.4-.5.7-.9,1.4-1.6,2.2h-.2Z" fill="#fff"/><path d="M85.1,157.7c1.2-2.8,3.1-4.9,5.3-6.9,2-2.1,3.9-4.3,5.7-6.6,0,0,.2.1.2.1-1.2,2.7-2.8,5.2-4.5,7.6-1.6,2.6-3.6,4.8-6.5,6,0,0-.2-.2-.2-.2h0Z" fill="#fff"/><path d="M88.9,158.3c-.3-1.7.6-2.9,1.9-3.8,1.1-.9,2.2-1.8,3.4-2.5,0,0,.2.2.2.2l-1.1,1.8-1.1,1.7c-.4.6-.6,1.3-1.1,1.7-.5.4-1.1.8-2,1.1h-.2Z" fill="#fff"/><path d="M162.6,27.7c-.6,1.8-1.6,3.5-2.9,5-.7.7-1.5,1.3-2.1,2-1.2,1.5-1.4,3.6-2.2,5.3-1,2.7-2.4,5-3.8,7.5,0,0-.2,0-.2,0-.3-1-.2-2.1,0-3.1.3-2,1.1-3.8,2.2-5.5,1-1.7,2.6-2.9,3.5-4.7.8-1.8,1.4-3.7,2.9-5,.7-.7,1.5-1.3,2.5-1.7l.2.2h0Z" fill="#fff"/><path d="M180.1,51.5c-.2,2.3-1.2,4.1-2.7,5.6-.9,1.1-2.3,1.6-3.1,2.8-.4.6-.5,1.3-.9,1.9-.6.9-1.4,1.6-2.4,2.1-.4.1-.7.3-1.2.2-.1,0,0-.2,0-.2.6-1.2,1.2-2.4,2.2-3.3.5-.4,1.3-.7,1.7-1.2,1.3-1.5,1.6-3.7,3-5.3.9-1,1.8-2,3.1-2.8,0,0,.2,0,.2.1h0Z" fill="#fff"/><path d="M170.6,29c-1.7,3.1-3.5,5.6-5.7,8.3-2.1,2.7-3.7,6-5.6,8.6.8-3.3,2.6-6.5,4.1-9.6.8-1.5,1.6-3.1,2.8-4.4,1.2-1.3,2.6-2.5,4.3-3.1,0,0,.2,0,.1.2h0Z" fill="#fff"/><path d="M179.1,47.3c-1.5,3.2-3.6,5.8-6.2,8.1-1.3,1.3-4.2,4.2-5.5,5.4-.7.5-1.3,1.3-2.2,1.4-.2,0,0-.2,0-.2,0,0,.3-.2.4-.3,1.9-1.9,4.2-5.4,5.9-7.5,2-2.9,4.2-5.5,7.4-7.1,0,0,.2,0,.2.2h0Z" fill="#fff"/><path d="M172.3,32.2c-.1,1.3-.6,2.4-1.5,3.2-.5.4-1.1.6-1.5,1-.4.4-.6,1-.8,1.5-.3,1.2-.8,2.2-1.4,3.2-.7.9-1.5,1.7-2.6,2.4,0,0-.1,0-.2,0-.2-2,.6-3.7,1.8-5.1.7-.9,2-1.4,2.6-2.5.3-.5.3-1.2.6-1.7.2-.6.7-1,1.1-1.3.5-.4,1-.7,1.7-.9,0,0,.2,0,.2.1h0Z" fill="#fff"/><path d="M176.2,44.2c-.1,1.3-.7,2.4-1.6,3.2-.5.3-1.1.5-1.6.9-.4.4-.7.9-.9,1.5-.7,1.7-1.7,3.2-3.3,4.1-.6.3-1.1.6-1.9.6,0,0,0,0,0,0,0,0,0,0,0,0h0c.6-1.8,1.5-3.3,2.9-4.3.8-.8,2.2-1.1,2.8-2.1.3-.5.4-1.2.7-1.7.3-.5.7-.9,1.2-1.3.5-.3,1-.7,1.7-.8,0,0,.2,0,.2.1h0Z" fill="#fff"/><path d="M182.2,60.5c-.1,1.9-.8,3.5-1.8,5-1.1,1.4-2.7,2.4-3.5,4-.7,1.1-1.2,2.6-2.5,3.2,0,0,.4-.2.4-.2-2,2.3-4.9,3.9-8,3.8,0,0,0-.2,0-.2,1.2-1,2.3-1.8,3.4-2.7,1.2-.9,2.8-2.1,3.8-2.7,1.8-1.1,3.6-2.5,4.2-4.6.7-2.3,2.1-4.1,3.9-5.7,0,0,.2,0,.2,0h0Z" fill="#fff"/><path d="M167,26.6c-.6,2.3-1.6,4-3.1,5.7,0,0-3.7,5.4-3.7,5.4h-.2c.7-2.2,1.4-4.3,2.4-6.3.8-2.1,2.1-4.4,4.5-5,0,0,.1.2.1.2h0Z" fill="#fff"/><path d="M180.9,55.6c1.3,3.1-1.5,5.4-3.4,7.5-.7.5-1.5,1.6-2.4,1.6,0,0,0-.2,0-.2,1.2-1.2,1.9-2.9,2.7-4.4.4-.8.5-1.7,1.1-2.4.5-.7,1-1.3,1.7-2.1h.2Z" fill="#fff"/><path d="M155.9,32.1c-.3,2.1-1.3,3.4-2.6,4.8-1.1,1.4-2.2,2.9-3.1,4.5h-.2c.3-1.9,1-3.7,1.8-5.4.7-1.9,1.9-3.4,4-3.9,0,0,.2.2.2.2h0Z" fill="#fff"/><path d="M175.3,41.4c-.8,1.9-2.2,2.9-3.8,3.9-1.5,1.1-2.9,2.2-4.2,3.4h-.2c.8-1.8,1.9-3.4,3.2-4.8,1.2-1.6,2.8-2.8,4.9-2.7,0,0,.1.2.1.2h0Z" fill="#fff"/><path d="M173.6,36.8c.2,1.8-.8,2.9-2.2,3.7-1.1.9-2.3,1.6-3.6,2.3,0,0-.1-.2-.1-.2l1.2-1.7,1.2-1.7c.4-.6.7-1.2,1.2-1.6.6-.4,1.1-.7,2-.9h.2Z" fill="#fff"/><path d="M132.1,87c3.2-2,6.7-2.7,10.3-3.4,2.3-.7,4.2-2.3,6.4-3.3,3.2-1.8,6.5-3.1,10.1-3.9.1,0,.2.1.1.2-1.8,1.8-3.8,3.2-6,4.3-3.2,1.8-7,2.2-10.4,3.5-3.2,1.9-6.6,3.3-10.5,2.9-.1,0-.1-.2,0-.2h0Z" fill="#fff"/><path d="M129.5,86.6c3.4-3.1,7.2-5.4,11.1-7.8,2.4-1.8,4.1-4.5,6.2-6.6,3-3.4,6.2-6.5,9.9-9.3,0,0,.2,0,.2.1-2.1,4.2-5.1,7.7-8.6,10.7-2.2,2.1-5,3.6-7.2,5.7-1.7,1.6-3.1,3.5-5.1,4.7-.6.4-1.4.9-2,1.2-1.4.7-2.8,1.3-4.4,1.6-.1,0-.2-.1,0-.2h0Z" fill="#fff"/><path d="M129.3,86c.5-2.1,1.4-3.9,2.6-5.6.7-.8,1.5-1.5,2.1-2.3,1.2-1.7,1.5-3.8,2.4-5.7,1.2-2.9,2.7-5.4,4.7-7.9,0,0,.2,0,.2,0,0,2.2-.7,4.2-1.5,6.1-1.2,2.9-3.6,5.1-5.2,7.7-1,3-2.4,5.8-5.1,7.7,0,0-.2,0-.2-.1h0Z" fill="#fff"/><path d="M130.1,86.5c5-3.1,10.3-5.1,15.5-7.7,1.7-.8,3.5-1.7,5.2-2.6v.2c-4.6,3.4-9.4,6.9-14.8,9.4-1.9.7-3.9,1.2-5.9,1,0,0,0-.2,0-.2h0Z" fill="#fff"/><path d="M131.1,85.3c.5-2.7,2.3-4.5,4.4-6,1.9-1.6,3.9-3,6-4.3,0,0,.1.2.1.2l-2.5,2.7-2.4,2.7c-.8.9-1.5,2-2.4,2.7-.9.8-1.9,1.5-3.1,2.1h-.2Z" fill="#fff"/><path d="M119.1,84.9c-3.8-1-6.4-3.5-8.8-6.5-2.7-2.4-6.1-4.1-8.5-7-1.6-1.8-3.1-3.8-4.1-6.1,0-.1,0-.2.2-.1,3.1,2.1,5.7,4.5,8,7.3,1.6,1.7,2.9,4,4.8,5.4,3.2,1.9,6.1,3.7,8.4,6.8,0,0,0,.2-.1.2h0Z" fill="#fff"/><path d="M121.3,85.1c-1.9-1.4-3.5-3.1-4.7-5.1-1.4-1.9-1.8-4.2-2.7-6.3-1.2-2.8-3.1-5.3-4.3-8.1-2-4.2-3.2-8.6-3.5-13.3,0-.1.2-.2.2,0,2.2,4.1,3.9,8.2,5.2,12.5,1,2.8,1.5,5.9,3,8.6,2.6,3.8,5.1,7.4,7,11.6,0,0,0,.2-.2.1h0Z" fill="#fff"/><path d="M121.7,85.2c-1.4-3-1.2-6.1-.5-9.2,0-3.1-.9-6.2-.5-9.3.3-2.1.7-4.1,1.8-6,0,0,.2,0,.2,0,.5,3.2.5,6.1,0,9.2-.2,2-1,4-.9,6.1,0,1,.4,2,.6,3.1.2,2.1,0,4.1-.6,6.1,0,.1-.2.1-.2,0h0Z" fill="#fff"/><path d="M119.7,84.6c-3-1.4-5.1-3.7-7-6.4-1.7-2.2-4.1-5.3-5.6-7.5,0,0,.2-.1.2-.1,2,1.8,4.8,4.6,6.8,6.5,2.4,2.1,4.5,4.4,5.8,7.4,0,0-.2.2-.2.2h0Z" fill="#fff"/><path d="M121,84c-3-2.9-2.7-7.2-3.2-11,0-1.3-.1-2.6-.1-3.8h.2c.6,2.4,1.3,4.9,2,7.3.9,2.5,1.5,4.8,1.2,7.5,0,0-.2,0-.2,0h0Z" fill="#fff"/><path d="M112.2,94.6c-2.5,3-5.9,4.3-9.6,5.2-3.4,1.4-6.3,3.7-9.9,4.7-2.3.7-4.8,1.1-7.3,1.1-.1,0-.2-.2,0-.2,3.2-1.9,6.5-3.2,10-4.2,2.3-.8,4.8-.9,6.9-2,3.1-2.1,6-4,9.7-4.7.1,0,.2.1.1.2h0Z" fill="#fff"/><path d="M114.3,92.4c-2,1.3-4.2,2-6.5,2.4-2.3.5-4.6.1-6.9.1-3.1,0-6.1.9-9.1.9-4.6.2-9.2-.2-13.6-1.8-.1,0,0-.2,0-.2,4.6-.5,9-.5,13.6-.1,3,.1,6,.9,9,.5,4.4-1,8.8-1.9,13.4-2.1.1,0,.2.2,0,.2h0Z" fill="#fff"/><path d="M114.4,92.6c-3.3.5-6.2-.7-8.9-2.3-2.9-1-6.2-.9-9-2.3-1.9-.9-3.7-1.9-5.2-3.5,0,0,0-.2.1-.2,3.2.4,6,1.3,8.8,2.7,1.9.8,3.6,2.2,5.6,2.6,1,.2,2.1.2,3.1.3,2.1.4,3.9,1.2,5.7,2.4,0,0,0,.2,0,.2h0Z" fill="#fff"/><path d="M114.5,93.3c-2.9,2.8-7.2,3.6-11.1,4-3.9.5-7.8.9-11.7,1,0,0,0-.2,0-.2,3.8-.8,7.6-1.6,11.4-2.5,3.7-1.2,7.4-1.9,11.3-2.4,0,0,.1.2.1.2h0Z" fill="#fff"/><path d="M112.9,92.9c-3.8,1.7-7.7-.2-11.4-1.2-1.2-.4-2.4-.8-3.6-1.3v-.2c2.6.3,5.1.6,7.6.8,2.6,0,5,.3,7.4,1.6,0,0,0,.2,0,.2h0Z" fill="#fff"/><path d="M121,102.8c-2.3,3.1-5.2,4.9-8.4,6.8-1.9,1.5-3.1,3.7-4.8,5.4-2.4,2.8-4.9,5.2-8,7.3,0,0-.2,0-.2-.1,1-2.3,2.4-4.3,4-6.2,2.4-2.8,5.7-4.5,8.4-7,2.3-2.9,5-5.5,8.7-6.5.1,0,.2.1.1.2h0Z" fill="#fff"/><path d="M123,102.8c-1.6,4.3-3.9,8-6.3,12-1.4,2.7-1.6,5.8-2.5,8.7-1.1,4.4-2.6,8.6-4.6,12.8,0,.1-.2,0-.2,0,0-4.7,1-9.2,2.8-13.4,1-2.9,2.8-5.4,3.9-8.3.8-2.2,1.1-4.5,2.4-6.5.3-.6.8-1.4,1.2-1.9.9-1.3,2-2.4,3.2-3.4,0,0,.2,0,.2.1h0Z" fill="#fff"/><path d="M121.9,102.8c-3,5.1-6.8,9.2-10.2,14-1.2,1.6-2.3,3.1-3.4,4.7h-.2c2.7-5.3,5.3-10.7,8.9-15.3,1.4-1.4,2.9-2.9,4.8-3.6,0,0,.1.2.1.2h0Z" fill="#fff"/><path d="M122.3,104.2c.4,2.7,0,5-.9,7.5-.6,2.5-1.1,4.9-1.7,7.4,0,0-.2,0-.2,0-.2-2.6,0-5.1.1-7.7,0-2.6.6-5.2,2.4-7.3,0,0,.2,0,.2,0h0Z" fill="#fff"/><path d="M118,89c-2.6.3-.3,2.6-.8,3.2s-1.1.7-1.3,1.4c-.2.7-.5.9.7,2.1s1.1,0,1.6.8c.5.8.4,1.5,1,2.1.6.6.6.9,1.3.7s1-.5,1.3,0,1.1.4,1.8.4c.7,0,1.7.5,2.3.1s0-.9,1-.4,1.4,1,2,0,.8-1.2.5-1.9.2-1.2,0-2.2c-.2-1.1,1.1-1.1,1-2.1-.2-1-.8-2.3-1.4-2.1s-.6-.5-1.4-1.2c-.8-.7-1.3-2.4-1.8-2s-1,.5-1.7.2c-.7-.3-.9-1.1-1.6-1.1-.8,0-2,.8-2,1.4,0,.6-2.4.7-2.4.7Z" fill="#fff" stroke="#fff" stroke-miterlimit="10" stroke-width="1"/><path d="M127.3,97.4c2-.2.3-1.9.7-2.4s.8-.5,1-1,.4-.7-.4-1.6c-.9-.9-.8,0-1.2-.6-.4-.7-.3-1.2-.7-1.6s-.4-.7-1-.6-.8.4-1,0c-.2-.4-.8-.3-1.3-.4s-1.3-.5-1.7-.2,0,.7-.8.3-1-.8-1.5,0c-.5.7-.7.8-.5,1.4s-.2.9,0,1.7c.1.8-.9.8-.8,1.6s.5,1.8,1,1.7.5.4,1,.9.9,1.9,1.3,1.6c.4-.3.8-.4,1.3-.1s.6.9,1.2.9,1.5-.5,1.6-.9,1.8-.4,1.8-.4Z" fill="#fff" stroke="#fff" stroke-miterlimit="10" stroke-width=".8"/><path d="M119.9,92.2c-1.2.6.3,1.3.2,1.7-.1.4-.4.6-.4.9s0,.6.7.9.5-.2.9,0,.5.7.9.8.5.3.8.1.4-.4.6-.2.6,0,1-.1c.4-.1,1,0,1.2-.4s-.2-.5.4-.4c.6,0,.9.2,1-.4.1-.6.2-.7-.1-1s-.1-.6-.4-1.1.3-.8,0-1.2-.9-1-1.1-.8c-.3.2-.4-.1-.9-.3s-1.1-1-1.3-.6-.4.4-.8.4-.6-.4-1-.2-.9.8-.7,1-1.1.8-1.1.8Z" fill="#fff" stroke="#fff" stroke-miterlimit="10" stroke-width=".6"/><path d="M235.4,95.6c-1.7,5.2.8,6.7,1.7,9.8.8,3.1-1.1,4.7-.5,6.9.7,2.2,2.3,4.1,2.5,7.4.2,3.2-7.7,13.9-7.7,13.9-1.4,1.9-2.3,3.1-3.3,3.1s-2.1-1.6-3.8-5.5c-6.9-15.8.1-23.3.1-23.3,2.2-6.2,10.9-12.2,10.9-12.2M239.5,90.1l-5.4,3.7c-.4.3-9,6.3-11.6,12.9-1.4,1.8-6.8,10.2-.2,25.3,1.7,3.8,3.1,6.8,5.8,6.8s3.4-1.8,5-3.9c2.5-3.4,8.4-11.8,8.1-15.4-.2-2.5-1.1-4.4-1.8-6-.3-.7-.6-1.3-.8-1.9-.1-.3,0-.7.2-1.6.4-1.2.9-3,.2-5.2-.3-1.1-.8-2-1.2-2.8-.9-1.7-1.5-2.9-.5-5.7l2.1-6.2h0Z" fill="#fff"/><path d="M226.5,134.1c-2.9-12.1,1.6-25.1,8.5-35.1,0,0,0,0,0,0-4.1,6.4-6.8,13.8-7.9,21.3-.1,1.3-.4,3.2-.5,4.5-.4,3-.2,6.1-.2,9.1h-.1Z" fill="#fff"/><path d="M227.1,135.9c-.9-2.6-.6-5.2.2-7.8.5-4.3,1-8.8,3.5-12.5,0,0,.1,0,.1,0-.6,4.3-2.4,8.2-3.2,12.5,0,2.6,0,5.1-.4,7.7,0,0,0,0-.1,0h0Z" fill="#fff"/><path d="M227.1,136c-.3-4.7,1-9.4,3-13.7,1.8-4.3,4.1-8.4,6.7-12.3h.1c-2.3,4.1-4.3,8.3-5.9,12.6-1.5,4.4-2.7,8.8-3.7,13.3,0,0-.1,0-.1,0h0Z" fill="#fff"/><path d="M227.9,136.5c-.3-2.8.9-5.5,2.4-7.8,1.9-4.1,4-8.3,7.7-11.2,0,0,.1,0,0,0-1.8,3.1-3.9,6.1-6.1,9-2.2,2.9-2.6,6.6-4,10,0,0-.1,0-.1,0h0Z" fill="#fff"/><path d="M228.8,136.1c-.3-1.9.7-3.5,1.9-4.9.9-1.5,1.5-3.2,2.7-4.6.8-.9,1.6-1.7,2.7-2.3,0,0,.1,0,0,0-1.2,2.8-3.5,4.6-5.1,7-.6,1.7-1.1,3.2-2.1,4.7,0,0-.1,0-.1,0h0Z" fill="#fff"/><path d="M249.9,126.3c.3,0,.4.1.2.4-1.3,1.9-.3,4.6-.9,7.4-.6,2.8-.1,7.2-13.3,11.7l-6,.8s.7-4.5,1.4-7c.7-2.5,3.5-6.2,5.2-7.7,1.5-1.2,11.4-5.7,13.2-5.7M249.9,124.1c-2.7,0-13.1,4.9-14.6,6.2-1.9,1.6-5,5.7-5.9,8.7-.8,2.6-1.4,7.1-1.5,7.2l-.4,2.9,2.9-.4,6-.8h.2s.2,0,.2,0c12.2-4.2,13.9-8.5,14.6-12.6,0-.2,0-.5.1-.7.3-1.4.3-2.7.2-3.9,0-1.2,0-2.2.3-2.7.5-.8.6-1.7.2-2.5-.4-.8-1.3-1.3-2.2-1.3h0Z" fill="#fff"/><path d="M230.2,146.5c4.7-2.8,10.5-4.5,13-9.7.5-1,.8-2,1.3-3.1.6-1,1.4-1.8,2.2-2.7.8-.8,1.6-1.6,2.4-2.4h0c-.8.9-1.5,1.8-2.2,2.7-.7.9-1.4,1.8-1.9,2.7-.8,2-1.5,4.4-2.9,6.2-1.4,1.9-3.4,3.2-5.5,4.2-2.1,1-4.2,1.7-6.4,2.3h0Z" fill="#fff"/><path d="M230.5,146.4c.9-1.2,2-2.2,3.1-3.1,1.2-.8,2.5-1.5,3.5-2.7,1.8-2.3,3.6-4.4,5.4-6.8,0,0,.1,0,.1,0,0,3.2-2.8,5.4-5.1,7.2-1.2.9-2.1,2.1-3.1,3.2-1.1,1-2.3,1.8-3.8,2.4h0Z" fill="#fff"/><path d="M229.6,147c1.5-2.1,3.6-5,5.3-6.8,1.8-2.2,3.6-4.5,5.4-6.8,0,0,.1,0,.1,0-1.5,2.5-3.1,4.9-4.7,7.3-1.6,2.4-3.4,4.9-6,6.3,0,0,0,0,0,0h0Z" fill="#fff"/><path d="M230.8,145.9c-.9-1.3-.2-2.8.5-4,.5-1.3.4-2.7,1.1-3.9.4-.8,1-1.5,1.7-2.1h.1c-.1,1.5-.6,2.7-1.3,3.9-.4.8-1.1,1.4-1.3,2.3,0,1.4-.3,2.4-.8,3.8,0,0-.1,0-.1,0h0Z" fill="#fff"/><path d="M229.8,146.6c.3-1.2.9-2.3,1.6-3.3.8-.9,1.7-1.8,2.1-3,1-2.2,1.5-4.5,3.1-6.5,0,0,.1,0,.1,0,0,1.3-.2,2.5-.7,3.6-.8,1.8-2.3,2.9-3.1,4.6-.6,1.8-1.5,3.3-3,4.5,0,0-.1,0-.1,0h0Z" fill="#fff"/><path d="M230.8,146.3c2-.8,3.9-1.3,5.9-1.9,1.9-.7,3.8-1.5,5.7-2.5h0c-2.5,2-5.3,3.7-8.4,4.6-1.1.2-2.2.3-3.2,0h0Z" fill="#fff"/><path d="M239.9,359.1c4.7,0,27.1,4.6,23.5,5.9-3.7,1.4-4.9,6.1-8.5,9.3-2.4,2.2-5,6-13.6,6s-9.2-.8-16.3-2.9l-9.1-4.8s5.3-5.5,8.8-8.2,11.1-5.1,14.8-5.4c.1,0,.2,0,.4,0M239.9,357c-.2,0-.4,0-.5,0-3.9.3-12,2.7-16,5.9-3.5,2.8-8.8,8.2-9,8.4l-2,2.1,2.6,1.4,9.1,4.8h.2c0,0,.2.2.2.2,6.8,2,12.3,3,16.9,3,8.4,0,11.9-3.4,14.2-5.7.3-.3.6-.6.9-.9,1.7-1.5,2.9-3.3,3.9-4.8,1.3-1.9,2.4-3.5,3.9-4.1,1.5-.5,2-1.8,1.8-2.8-.3-1.6-1.8-2.4-4.7-3.3-1.9-.6-4.4-1.2-7.4-1.9-4.9-1.1-11.3-2.2-13.9-2.2h0Z" fill="#fff"/><path d="M216.3,372.8c3.8.4,7.6,1,11.4,1.4,5.6.8,11.2.8,16.2-2,1.7-.8,3.2-2.1,4.9-3,1.8-.9,3.8-1.2,5.6-1.6,1.9-.4,3.8-.7,5.7-1v.2c-1.8.4-3.7.9-5.5,1.4-1.8.5-3.7,1-5.3,1.9-3.2,2.2-6.3,4.6-10.2,5.6-3.9,1.2-8,1.1-11.8.4-3.8-.7-7.5-1.8-11.1-3.3v-.2h0Z" fill="#fff"/><path d="M216.9,373c3.7-1.1,7.4-1.3,11.2-1.1,2.5,0,4.9-.9,7.3-1.5,3.7-.9,6.8-1.9,10.5-3.1,0,0,.1.2.1.2-3.2,4.5-9.2,4.8-14.2,4.8-2.6,0-5,.9-7.5,1.3-2.5.3-5.1.2-7.6-.4v-.2h0Z" fill="#fff"/><path d="M215,372.9c4.7-1.6,9.3-3.1,14.1-4.2,4.1-1.1,10-2.9,14.2-4.1,0,0,0,.2,0,.2-4.5,2-9.1,3.8-13.8,5.4-4.6,1.7-9.6,3.4-14.6,2.8,0,0,0-.2,0-.2h0Z" fill="#fff"/><path d="M217.7,372.6c0-1.7,1.2-3.1,2.5-4,.7-.4,1.5-.6,2.2-1,1.9-1.3,3.3-3.3,5.4-4.3,1.4-.7,2.8-1.2,4.5-1.2v.2c-1.5,1.8-3.3,3.1-5.4,4-1.3.7-3,.9-4.1,1.9-.6.5-1,1.2-1.5,1.8-1,1.1-2.2,1.8-3.4,2.7h-.2Z" fill="#fff"/><path d="M215.7,372.6c1.7-1.4,3.5-2.3,5.4-3,2-.5,4.1-.8,5.8-2,3.5-2.1,6.7-4.8,10.7-5.9,0,0,.1.2.1.2-.6.9-1.3,1.7-2.1,2.4-2.2,2.4-5.3,3.4-8.4,4.1-2.1.5-3.7,1.8-5.5,2.9-1.9.9-3.9,1.5-6,1.6v-.2h0Z" fill="#fff"/><path d="M217.3,373.2c3.5.9,6.6,2,10,3.2,3.4,1,6.9,1.7,10.4,2.1,0,0,0,.2,0,.2-5.4.1-10.9-.2-16-2.1-1.7-.8-3.3-1.8-4.5-3.2v-.2h.1Z" fill="#fff"/><path d="M249.3,258.9l.3.3c-1.3,2.6-.8,5.1-.6,8.1.2,3.1-.2,6.7-2.3,9.4-4.4,5.4-10.9,5.6-11.1,11.2-.2,2.7-1.5,10.4-1,13.3,1.6,7.3,1,12.9.2,17.6-1.8,7.7-7.9,27.7-9.8,35.6-3.9,8-8.9,14.4-16.5,19.3-3.4,1.4-5.5,1.9-7.6,4.2-7.9,7.7-15.2,18-26.2,21.5-7.1.3-15.3,1.6-21.6,4.4-1.2.6-2.1,1.8-3,2.7-3.4,3.4-6.9,7.2-10.9,9.7.9-2.8,3.7-5.5,5.3-8.2,1.9-2.3,4-6.3,6.4-7.8,5.8-3.3,12.2-5.1,18.6-5.1s3.3.1,5,.4c10.5-1.6,18.3-11.1,24.2-19.5,1.6-2.6,5.4-4.9,7.9-6.1,5.2-4,10.1-11.1,12.9-17,1.4-11.1,11.1-28.7,12-34.2.3-4.4.8-31.2,2.7-35.7,1.8-4,6.8-6.3,9.1-9.2,3.6-3.5,1.6-11.5,6.1-14.9M249.3,256.8c-.4,0-.9.1-1.3.4-3,2.3-3.7,6-4.3,9.3-.4,2.4-.8,4.6-2,5.8,0,0-.1.1-.2.2-.8.9-2,1.9-3.2,2.9-2.3,1.8-4.8,3.8-6.1,6.7,0,0,0,0,0,0-1.5,3.6-2.1,17.4-2.6,31.3,0,2.3-.1,4.1-.2,5-.4,2-2.1,6.1-4,10.4-3.1,7.3-7,16.4-8,23.4-2.4,4.9-6.8,11.8-11.9,15.8-1.7.8-6.4,3.4-8.5,6.8-10.2,14.7-17.3,17.7-22.4,18.5-1.6-.2-3.3-.3-4.9-.3-6.6,0-13.4,1.9-19.6,5.4,0,0,0,0,0,0-2,1.2-3.7,3.7-5.2,5.9-.6.9-1.2,1.8-1.7,2.4,0,0-.1.2-.2.2-.5.9-1.3,1.8-2,2.8-1.4,1.8-2.8,3.7-3.5,5.8-.3.9,0,1.8.7,2.3.4.3.8.4,1.3.4s.8-.1,1.1-.3c3.4-2.2,6.4-5.2,9.3-8.1.7-.7,1.3-1.3,1.9-1.9,0,0,0,0,0,0,.2-.2.3-.4.5-.6.6-.7,1.2-1.4,1.8-1.7,5.5-2.4,13-4,20.8-4.2.2,0,.4,0,.6,0,9-2.9,15.5-9.8,21.8-16.5,1.8-1.9,3.5-3.7,5.2-5.4,0,0,0,0,0,0,1.4-1.6,2.8-2.1,5.1-3,.5-.2,1.1-.4,1.7-.7.1,0,.2-.1.3-.2,7.4-4.7,12.9-11,17.3-20.1,0-.1.1-.3.2-.4.9-3.8,2.9-10.7,4.8-17.3,2-7,4.1-14.3,5-18.3,0,0,0,0,0-.1.8-4.4,1.5-10.5-.2-18.4-.3-1.8.3-6.7.7-9.7.2-1.2.3-2.3.4-3,0,0,0,0,0,0,0-2.1,1.4-3,4.2-4.7,2-1.2,4.4-2.7,6.5-5.2,2.1-2.6,3-6.2,2.8-10.8,0-.6,0-1.1-.1-1.7-.2-2.1-.3-3.8.5-5.4.4-.9.2-1.9-.5-2.6l-.3-.3c-.4-.3-.9-.5-1.4-.5h0Z" fill="#fff"/></svg>