<?xml version="1.0" encoding="UTF-8"?><svg id="Layer_1" xmlns="http://www.w3.org/2000/svg" width="282.5" height="409.2" viewBox="0 0 282.5 409.2"><path d="M118.1,196.9v44.3c0,1-.2,2-.6,2.9l-30.8-26.6,30.3-24.5c.7,1.1,1.1,2.5,1.1,3.9Z" fill="#fff"/><path d="M114.3,247.8c-1.1.6-2.4,1-3.8,1H20.8c-1.4,0-2.8-.4-3.9-1.1l31.3-27.1,9.1,7.4c2.5,2,5.3,3,8.2,3s5.8-1,8.2-3l9.1-7.3,31.4,27.1Z" fill="#fff"/><path d="M44.3,217.4l-30.6,26.4c-.3-.8-.5-1.8-.5-2.7v-44.3c0-1.4.4-2.7,1-3.8l30.1,24.3Z" fill="#fff"/><path d="M113.2,189.7l-42.5,34.4c-3.1,2.5-7.1,2.5-10.2,0l-42.5-34.3c.9-.3,1.8-.5,2.8-.5h89.7c.9,0,1.8.2,2.7.5Z" fill="#fff"/><path d="M146.6,207.9c2,0,4.2,1.2,6.4,1.2s.3,0,.4,0c.9,0,1.8,0,2.8,0,11.3,0,23.2,4.9,22.5,21.5-3.6,7.3-8.7,10.4-14.1,10.4s-15.9-6.1-21.6-15c-.6-1-2.7-2.4-3.3-3.5-.8-1.5.6-5.1.6-5.1,0,0-1.7-1.9-1.1-3.1.5-1.1,2.4-1.8,3.6-2.3,1.2-.5,1.3-3.4,2.8-3.8.3,0,.7-.1,1-.1M146.6,205.3c-.6,0-1.1,0-1.7.2-2,.5-2.8,2.3-3.3,3.5,0,.2-.2.4-.3.6-1.6.6-3.7,1.6-4.6,3.5-.8,1.7-.1,3.4.6,4.6-.5,1.7-.9,4.1,0,5.9.5,1,1.4,1.8,2.3,2.6.4.4,1,.9,1.1,1.1,6.3,10,15.4,16.2,23.7,16.2s11.6-2,16.4-11.8l.2-.5v-.5c.3-7.3-1.6-13.1-5.6-17.2-5.5-5.8-13.6-7-19.4-7h0c-1,0-2,0-3,.1,0,0-.1,0-.2,0-.8,0-1.7-.3-2.7-.5-1.2-.3-2.4-.7-3.7-.7h0Z" fill="#fff"/><path d="M178.1,230.4c-2.8-4.2-6.3-8.2-10.9-10.5-3-.9-5.9-1.5-8.9-2.8,0,0,0-.1,0-.1,1.1-.1,2.1,0,3.2.1,2.1.3,4,1.3,5.9,2.4,2.9,1.3,6,2.5,8.1,5,1.4,1.7,2.4,3.7,2.7,5.8h-.1Z" fill="#fff"/><path d="M177.2,234.7c-3,1.6-6.6,1.6-9.8.6-2.1-.5-4-1.8-6-2.6-3.1-1-6.2-2.5-8.3-5,0,0,0-.1,0-.1,3.1,1.2,5.7,3,8.4,4.7,2.9,1.3,6.2,1.7,9.3,2.1,2.1.2,4.1.3,6.3.1,0,0,0,.1,0,.1h0Z" fill="#fff"/><path d="M174.2,241.5c-1.4,1.9-3.3,3.7-6.4,4.6-6.4,1.8-11.2-1.7-11.2-1.7,5.4,1.9,9.6,2,15.3-4.6,0,0,2-4.1,6.7-7.4,0-5.5,1.9-9.4,1.9-9.4,1.8-8.6-.8-11.9-5.5-15,0,0,5.7,1.8,8.1,8,1.3,3.3.7,6.1,0,8.5-.2,3.3,3.4,5.9,5.2,8.8.6,1,.6,2.1.4,3,0,0,0,0,0,0-.1.4-.3,1.1-.7,1.7-.4.7-.8,1.2-1,1.5,0,0,0,0,0,0-.7.7-1.6,1.3-2.7,1.4-3.3.2-7.4-1.2-9.9.5Z" fill="none" stroke="#fff" stroke-linecap="round" stroke-linejoin="round" stroke-width="2.6"/><path d="M177.3,230.3c-1.3-1.5-2.4-2.9-3.7-4.5-2.6-1.9-5.8-2.9-8.3-5,0,0,0-.1,0-.1,3.5.4,6.1,2.6,8.5,4.9,1.7,1,3.4,2.5,3.5,4.7,0,0-.1,0-.1,0h0Z" fill="#fff"/><path d="M174.9,234.3c-2.1.7-4.3,0-6.2-1.1-2-.7-4.1-1-6-1.9-1.3-.6-2.5-1.4-3.5-2.4,0,0,0-.1,0-.1,3.5.7,6.4,2.8,9.6,4,2.1.3,4,.7,6.1,1.3,0,0,0,.1,0,.1h0Z" fill="#fff"/><path d="M176.4,232.9c-1.8.4-3.6,0-5.2-.7-1.7-.6-3.3-1.3-4.8-2.3h0c1.6.6,3.3,1.1,5,1.5,1.7.3,3.4.6,5,1.5,0,0,0,.1,0,.1h0Z" fill="#fff"/><path d="M167.1,225.6c1.9.3,3.7,1,5.5,1.8,1.8.8,3.4,1.9,4.5,3.6,0,0,0,0,0,0-1.8-.7-3.3-1.8-4.9-2.9-1.6-1-3.3-1.9-5-2.5,0,0,0-.1,0-.1h0Z" fill="#fff"/><path d="M169.8,228.7c2.3,1.2,5.1,1.2,7.1,2.9,0,0,0,.1,0,.1-1.4.2-2.6-.2-3.8-.9-1.2-.6-2.3-1.2-3.3-2h0Z" fill="#fff"/><path d="M178.2,224.8c-1-1.7-1.8-3.3-2.8-5.1-2.2-2.4-5.2-3.9-7.2-6.5,0,0,0,0,0,0,3.3,1,5.5,3.7,7.5,6.4,1.5,1.3,2.8,3.1,2.6,5.3,0,0-.1,0-.1,0h0Z" fill="#fff"/><path d="M169.7,217c1.7.9,3.3,2.1,4.6,3.4,1.5,1.3,2.7,2.8,3.2,4.8,0,0,0,0,0,0-1.5-1.2-2.6-2.7-3.7-4.2-1.2-1.5-2.5-2.8-4-3.9,0,0,0,0,0,0h0Z" fill="#fff"/><path d="M173.1,220.8c1.5,2.2,3.9,3.5,4.8,6,0,0,0,0,0,0-1.3-.5-2.2-1.5-2.9-2.6-.7-1.1-1.4-2.2-1.9-3.4h0Z" fill="#fff"/><path d="M171.9,239.2c-1.7,1.3-4,1.1-5.9.5-3.3-.4-6.7-.8-9.3-3.2,0,0,0-.1,0-.1,3.3.4,6.1,2.2,9.3,2.9,2,0,3.7-.2,5.8-.2,0,0,0,.1,0,.1h0Z" fill="#fff"/><path d="M160.8,235.9c3.6,1.4,7.4.9,11.1,1.9,0,0,0,.1,0,.1-1.9.7-3.9.5-5.7,0-1.9-.4-3.7-1-5.4-2h0Z" fill="#fff"/><path d="M165,236.1c1.9-.3,3.9-.4,5.9-.2.6.2,1.3.4,1.8.8h0c-1.3.5-2.6.3-3.8,0-1.3-.2-2.5-.4-3.8-.5,0,0,0-.1,0-.1h0Z" fill="#fff"/><path d="M186.8,237.6c-.6-1-.7-2.2-1.1-2.9-.4-.9-1.4-1.7-2.2-2.3-1.2-.9-2.1-2.1-2.5-3.5-.2-.9,0-1.7.2-2.6,0,0,.1,0,.1,0,.2.5.4,1.1.5,1.6.4,1.5,1.3,2.7,2.1,4,.6,1.1,1.7,1.3,2.6,2.1.8,1.1.6,2.3.4,3.4,0,0-.1,0-.1,0h0Z" fill="#fff"/><path d="M180.4,238.7c-.9.5-1.5.5-2.3.2-.7-.1-1.5-.2-2.3-.2h0c.9-.7,2.6-1.2,3.6-1,.4.2.8.4,1.1.9h0Z" fill="#fff"/><path d="M141.4,211.1c1.2-.9,2.7-.4,3.7.5,1,.7,1.9,1.5,2.7,2.5h0c-1.5-.8-3.1-1.5-4.7-2-.5-.2-.9-.5-1.5-.8h0Z" fill="#fff"/><path d="M137.5,217.4c1.5-.5,2.9-.2,4.4.3,1.4.4,2.8.8,4.2,1.3h0c-2.2,0-4.4,0-6.5-.4-.7-.2-1.4-.5-2-1h0Z" fill="#fff"/><path d="M190.3,236.7c.1,0,.3,0,.5.3,4.2,4.9,10.3,9.7,16.2,13,2,2,3.6,4.4,4.9,6.9l-1.1,2.6c-1.5-2.5-3.4-4.7-5.8-6.4-7.4-2.5-11.2-5.7-15.4-12.3,0,0-.2-4.1.7-4.1M190.3,234.2c-.8,0-1.5.3-2.1.9-.4.4-1.4,1.4-1.2,5.9v.7s.4.6.4.6c4.6,7.1,8.9,10.6,16.4,13.2,1.8,1.4,3.4,3.2,4.8,5.4l2.6,4.4,2-4.7,1.1-2.6.5-1.1-.5-1.1c-1.5-3-3.3-5.4-5.4-7.5l-.3-.3-.3-.2c-5.7-3.2-11.5-7.9-15.5-12.5-.9-1-1.8-1.2-2.4-1.2h0Z" fill="#fff"/><path d="M129,116.6h4.7c0,.1,5.1,3.3,5.1,3.3,6.2.7,13.3,2.1,17.7,7,3.4,6.4,8.4,14.3,12.2,20.5.8,1.2,1.2,2.5,2.8,3.2,5.4,1.5,9.1,7.7,9.9,12.9,1.3,5.1,1.4,10.5,3.6,15.2.9,1.5,1.5,3.5,1.8,5.2,1.4,6.8.1,14.4,2.3,20.8,8.5,15.5,21.8,28.5,23.9,46.9l-3.6-4.2c-1-5.3-2-10.6-4.8-15.1-5.1-9.2-11.5-17.7-16.5-27.1-2.3-6.9-1.2-14.1-2.7-21-.6-3.5-3.2-6.3-3.9-9.8-1.9-6.8-2.6-14.4-7.1-18.7-1.8-1.7-5-1.9-6.9-4.3-4.8-7.3-9.3-15-13.3-22.8-7-7.1-18.1-4.2-25.2-12M129,114.1c-1,0-1.8.6-2.2,1.4-.4.9-.2,2,.4,2.7,4.2,4.6,9.5,5.9,14.3,7.1,4,1,7.8,2,10.7,4.7,3.8,7.3,8.2,14.9,13.3,22.6,0,0,0,.1.1.2,1.5,1.8,3.4,2.7,4.9,3.3.9.4,1.8.8,2.2,1.2,3,2.8,4.1,7.5,5.2,12.6.4,1.6.8,3.3,1.2,4.9.4,2,1.3,3.7,2.1,5.4.7,1.5,1.5,2.8,1.7,4.2,0,0,0,0,0,0,.6,2.8.8,5.8,1,8.8.2,4.1.5,8.3,1.8,12.4,0,.1,0,.3.2.4,2.7,5.1,5.8,10,8.8,14.7,2.6,4.1,5.3,8.2,7.6,12.5,0,0,0,0,0,.1,2.5,4,3.5,8.6,4.5,14.2,0,.4.3.8.6,1.2l3.6,4.2c.5.5,1.2.8,1.9.8s.7,0,1-.2c1-.4,1.6-1.5,1.5-2.5-1.5-13.4-8.7-24.1-15.7-34.4-2.9-4.3-5.9-8.7-8.4-13.2-1-3.2-1.2-6.8-1.3-10.7-.1-3.2-.2-6.4-.9-9.6-.3-2.1-1.1-4.3-2-5.9-1.2-2.7-1.7-5.7-2.2-8.8-.3-1.9-.6-3.8-1.1-5.7-1-5.8-5-12.8-11.5-14.7-.4-.2-.6-.5-1.1-1.3-.2-.3-.4-.6-.6-.9-.5-.9-1.1-1.7-1.6-2.6-3.5-5.7-7.6-12.2-10.5-17.7,0-.2-.2-.4-.4-.5-5-5.4-12.5-7-18.7-7.7l-4.6-2.9c-.4-.2-.8-.4-1.3-.4h-4.7c0-.1,0-.1,0-.1h0Z" fill="#fff"/><path d="M157.4,342.7c-.7.3-1.2.4-1.7.4,0,0,0-.1,0-.2-.2-.4-.6-.7-1-.9,0-.7-.2-1.3-.7-1.8,0-.4.2-.7.3-1.1,17.9-8.5,33.7-24.6,23-37.5-2.2-2.6.2-10.2-3.5-12.3-8.2-4.6-14.3,3-19.4,6.9-11,8.5-11.1,24.9-4.9,40.2-.2,1.2-.5,2-.9,2.4-.6-.1-1.2,0-1.8.3-.8-.3-1.5-1-1.9-1.4-1-4-1.3-9-5-17.4-2.6-5.9-1.2-14.4-5.4-19.2-4.9-5.6-16.8-9.3-23.2-2.8-1.6,1.6-1.9,6.2-3.1,7.8-4.6,6.1-7.5,9.1-6.4,14.4,1.1,5.4,5.2,10.1,12.5,13.7,6.4,3.2,15.2,5.5,26.6,6.6.7.5,1.2.9,1.7,1.3,0,.7.2,1.5.8,2,0,0,0,0,0,0,0,0-.1,0-.2.2-.6.7-.6,1.7-.2,2.5-.4.5-.8.8-1,.9-12.4-3.9-41.8-15.1-46.5,3.3-.6,2.3-5.5,5.4-4.8,10.7,2,6.1,8.2,6.9,10.1,9.2,6.8,8.2,22.9,2.1,43.4-19.2.6-.4,1.2-.6,1.6-.6.1,0,.2,0,.3,0,.9.1,1.3,1,1.6,1.9-3.4,4.9-8,12.5-10.1,20.1-2.2,7.7-2.6,19.1,4.2,24,3.1,2.2,11.6-2.2,18.4-2.1,8.4,1.3,10.5-2.8,13.8-8.4,6.1-10.3,2.4-24.8-17.8-36.7-.7-.8-1.1-1.4-1.2-1.8,0-.3.1-.5.1-.8.4-.5,1.4-.5,2.2-.4,11.5,5.7,32.9,32.5,50.2,2.6,2.5-4.3-2.1-.6,5.9-18.7-1.7-8.6-20.4-11.8-55.9,11.9Z" fill="none" stroke="#fff" stroke-miterlimit="10" stroke-width="3.4"/><path d="M147.5,353.1c1.7,2.3,2.6-1.1,3.5-1,.9.1,1.3.6,2,.5.8-.2,1.2,0,1.6-1.8s-.7-1-.2-1.9c.5-1,1.2-1.3,1.4-2.1.2-.8.5-1.1,0-1.6-.6-.6-1-.6-.7-1.2.3-.6-.2-1.2-.6-1.9s-.4-1.9-1.1-2.2-.9.5-1-.7c0-1.2.2-1.9-1.1-1.9s-1.6-.2-2.1.6-1.2.4-2.1,1.2c-.9.8-1.7-.4-2.5.3-.9.7-1.8,2.1-1.2,2.5s-.1.9-.3,2c-.2,1.1-1.6,2.5-.9,2.8.7.3,1,.6,1.1,1.5s-.6,1.4-.2,2.1,1.8,1.5,2.4,1.2c.6-.3,1.9,1.9,1.9,1.9Z" fill="none" stroke="#fff" stroke-miterlimit="10" stroke-width="1.1"/><path d="M149.2,353.9c0,3-1,5.8-2.2,8.5-.6,1.9-.3,3.9-.5,5.8-.2,3-.7,5.8-1.7,8.6,0,0-.2,0-.2,0-.5-2-.5-4-.3-6,.2-3,1.6-5.7,2.2-8.6.1-3,.6-6,2.6-8.4,0,0,.2,0,.2,0h0Z" fill="#fff"/><path d="M153.1,352.6c.6,3.6.6,7.3.5,11,.2,2.5,1.3,4.7,1.8,7.1,1,3.6,1.8,7.1,2.1,10.8,0,0-.1.1-.2,0-1.9-3.3-3-6.8-3.6-10.5-.5-2.4-.3-5-.7-7.4-.3-1.8-1.1-3.6-1-5.5,0-.5,0-1.3,0-1.9,0-1.2.4-2.5.8-3.7,0,0,.2,0,.2,0h0Z" fill="#fff"/><path d="M154.7,350.8c1.9,1.8,2.7,4.2,3.4,6.7.6,1.5,2,2.7,2.8,4.1,1.5,2.1,2.5,4.2,3.3,6.7,0,0,0,.2-.1.1-1.5-1-2.6-2.3-3.5-3.7-1.5-2.1-1.9-4.7-3-6.9-1.6-2-3-4.2-3-6.9,0,0,.1-.1.2,0h0Z" fill="#fff"/><path d="M151.4,353.2c.3,3,.6,6.4.4,9.3,0,3.1.2,6.3.3,9.4h-.2c-.9-4.6-1.9-9.4-2-14.1.1-1.6.4-3.3,1.2-4.7,0,0,.2,0,.2,0h0Z" fill="#fff"/><path d="M149.6,352.4c.6,2.6.4,5.1-.2,7.6-.4,2.2-.9,5.3-1.3,7.5,0,0-.2,0-.2,0,0-2.6,0-5.1,0-7.6,0-2.6.1-5.2,1.5-7.5,0,0,.2,0,.2,0h0Z" fill="#fff"/><path d="M147.6,354.5c-.4,2.7-1.4,5-2.5,7.4-1,2.4-1.8,4.9-2.3,7.5,0,0-.2,0-.2,0,0-2.7.5-5.3,1.1-7.9.5-2.7,1.6-5.2,3.8-7.1,0,0,.2,0,.2,0h0Z" fill="#fff"/><path d="M154.2,353.1c1.4,1.7,2,3.5,2.5,5.6.6,1.9,1.2,3.9,1.9,5.9h-.2c-1.2-1.6-2.2-3.5-3.1-5.3-1.1-1.9-1.8-3.9-1.3-6.1,0,0,.2,0,.2,0h0Z" fill="#fff"/><path d="M155.5,350.8c2.1.6,3.5,2.2,4.6,4,1.2,1.7,2.2,3.4,3.1,5.2,0,0-.1.1-.1.1l-4.1-4.3c-1.5-1.4-2.8-2.8-3.6-4.8,0,0,.1-.1.1-.1h0Z" fill="#fff"/><path d="M169.3,392c-.6-2.5-.2-4.6.4-6.9.2-1.5-.5-3.1-.7-4.6-.5-2.3-.5-4.5-.6-6.8,0,0,.2-.1.2-.1.7.6,1,1.3,1.4,2.1,1.5,3,.5,6.3.4,9.4.2,1.6.7,3.1.1,4.7-.2.8-.5,1.5-1,2.2h-.2Z" fill="#fff"/><path d="M151.5,396.6c-1.5-1.1-2.4-2.5-2.8-4.2-.4-1-.2-2.3-.7-3.3-.2-.5-.7-.9-1-1.4-.4-.8-.5-1.7-.4-2.5,0-.3.1-.7.4-1,0,0,0,0,0,0,.6.9,1.3,1.9,1.4,3,0,.6,0,1.2.1,1.7.5,1.6,2,2.7,2.5,4.3.4,1,.6,2.1.6,3.3,0,0,0,.1-.2,0h0Z" fill="#fff"/><path d="M165,395.7c-.7-2.8-.9-5.3-1.1-8.1-.2-2.7-1-5.6-1.3-8.3,1.3,2.4,2,5.3,2.7,8,.8,2.7,1.1,5.7-.2,8.4,0,0-.2,0-.2,0h0Z" fill="#fff"/><path d="M153.9,396.6c-1.7-2.3-2.5-4.9-3.1-7.7-.4-1.4-1.3-4.7-1.5-6.1,0-.7-.4-1.5,0-2.2,0,0,.2,0,.1.1,0,1.3.8,2.6,1.2,3.8,0,0,1.6,3.8,1.6,3.8,1.2,2.6,2.1,5.2,1.9,8.1,0,0-.1.1-.2,0h0Z" fill="#fff"/><path d="M163.3,394.9c-.8-.7-1.2-1.6-1.3-2.6,0-.5.2-1,0-1.5-.1-.9-1-1.7-1.3-2.5-.7-1.3-.9-2.6-.7-4.2,0,0,.1-.1.2,0,.9.6,1.5,1.5,1.9,2.3.7,1.5.2,2.9.6,4.3.2.4.6.8.8,1.2.4.9.4,1.9,0,2.9,0,0-.1,0-.2,0h0Z" fill="#fff"/><path d="M156.5,394.7c-.8-.6-1.4-1.4-1.5-2.4,0-.5,0-1,0-1.5,0-.5-.3-.9-.6-1.3-.9-1.2-1.5-2.5-1.5-4,0-.3,0-1.4.5-1.6,0,0,0,0,0,0h0c.9,1.2,1.6,2.4,1.8,3.8.2.9-.1,2,.3,2.8.5.8,1.3,1.4,1.3,2.5,0,.5,0,1-.1,1.5,0,0-.1.1-.2,0h0Z" fill="#fff"/><path d="M146.4,397.3c-1.3-.9-2.1-2-2.8-3.3-.5-1.4-.5-2.9-1.4-4.1-.5-.9-1.3-1.9-1.2-3.1,0,0,0,.4,0,.4-.8-2.3-.7-5,.6-7.2,0,0,.2,0,.2,0,.4,2.4.8,5.1.8,7.2,0,.8,0,1.6.2,2.3.3,1.9,2.1,3.1,2.7,4.9.4.9.7,1.7.9,2.7h-.2Z" fill="#fff"/><path d="M167.3,393.6c-.7-1.8-.9-3.4-.8-5.2,0,0-.3-5.3-.3-5.3h.2c.6,1.7,1.1,3.4,1.5,5.2.5,1.8.8,3.8-.4,5.4,0,0-.2,0-.2,0h0Z" fill="#fff"/><path d="M144.9,397.7c-1.9-.7-2.9-2.4-3.4-4.2-.7-1.7-1.2-3.4-1.7-5.1,0,0,.2,0,.2,0l2.8,4.5c1.1,1.5,1.9,2.9,2.3,4.7,0,0-.1.1-.1.1h0Z" fill="#fff"/><path d="M149.6,396.7c-1.8-.2-2.7-1.7-3.1-3.3-.4-1.1-.7-2.1-.9-3.3,0-.4-.2-.8,0-1.2,0,0,.1.1.1.1.5,1.9,2.2,3.7,3.2,5.4.3.6.5,1.3.7,2.1h-.1Z" fill="#fff"/><path d="M171.5,389.6c-.4-1.6,0-2.9.5-4.4.4-1.4.8-2.8,1-4.3,0,0,.2,0,.2,0,.3,1.5.4,3,.3,4.6,0,1.6-.4,3.2-1.8,4.2,0,0-.2,0-.2,0h0Z" fill="#fff"/><path d="M159,395c-1-1.4-1.1-2.7-1.1-4.3-.1-1.5-.3-2.9-.7-4.3,0,0,.2,0,.2,0,.9,1.3,1.5,2.7,1.9,4.1.6,1.5.8,3.1-.1,4.6,0,0-.2,0-.2,0h0Z" fill="#fff"/><path d="M161.7,395.3c-1.3-.6-1.7-1.8-1.7-3-.1-1.1-.2-2.3-.1-3.4,0,0,.2,0,.2,0,.6,1.5,1.5,3.2,2,4.6,0,.6,0,1.1-.2,1.8h-.2Z" fill="#fff"/><path d="M116.1,296.4c2.6-.5,4.7.6,6.7,2,3,1.2,6.2,1.5,8.5,4.1.5.6,1.1,1.2,1.4,2.1,0,0-.2,0-.2,0-2.1-1.1-4.1-2-6-3.3-1.3-.8-2.4-2-3.9-2.5-1.5-.4-3.1-.4-4.5-1.2-.7-.3-1.4-.7-2.1-1.2v-.2h0Z" fill="#fff"/><path d="M104.9,311.1c1.7.8,2.8,1.8,3.8,3.2.7.8,1,2.1,1.9,2.7.4.3,1,.5,1.5.8.9.6,1.6,1.5,2.1,2.4h0c0,.1,0,.2,0,.2-1.1.3-2.5-.6-3.2-1.5-.3-.5-.5-1.1-.9-1.5-1.2-1.2-3-1.7-4-3.1-.7-.9-1.3-1.9-1.5-3.1,0,0,0-.1.1-.1h0Z" fill="#fff"/><path d="M110.9,298.9c3-.1,5.6,1.4,7.8,3.2,2.2,1.7,4.6,3.5,6.3,5.7-2.3-1.4-4.6-3.2-7.1-4.5-2.5-1.3-4.7-2.5-7-4.2,0,0,0-.2,0-.2h0Z" fill="#fff"/><path d="M105.8,308.8c4,1.3,6.6,5.1,9.6,7.9.9.9,1.9,2.1,3,2.6.1,0,.2.1,0,.2-.8,0-1.3-.6-2-.9-1.2-.8-3.8-2.9-5-3.8-2.3-1.6-4.3-3.4-5.8-5.9,0,0,0-.2.1-.1h0Z" fill="#fff"/><path d="M111,300.8c1.1,0,2,.4,2.7,1.1.3.4.5.9.8,1.2.7.7,1.8.8,2.5,1.4,1.3.8,2.2,1.9,2.5,3.5,0,0,0,.1,0,.1-1.5-.4-2.6-1.2-3.6-2.3-.6-.6-.9-1.7-1.8-2.2-.9-.4-1.8-.4-2.5-1.4-.3-.4-.6-.8-.8-1.3,0,0,0-.1.1-.1h0Z" fill="#fff"/><path d="M108.5,307.1c1,.2,1.9.6,2.5,1.4.3.4.4.9.7,1.3.9.9,2.5,1.2,3.6,2.3.7.7,1.2,1.5,1.7,2.4,0,0,0,0,0,0-1.6,0-2.9-.8-3.9-2-.7-.7-.9-1.8-1.7-2.3-.9-.5-1.8-.6-2.4-1.6-.3-.4-.5-.8-.6-1.4,0,0,0-.1.1-.1h0Z" fill="#fff"/><path d="M102.2,315.5c1.3.8,2.2,1.8,3.1,2.9.7,1.2,1.2,2.6,2.5,3.4.6.4,1.7,1,2.1,1.2,2.2,1,4.1,2.3,6.3,3.6,0,0,0,.2,0,.2-2.5.4-5-.6-6.8-2.3,0,0,.4.2.4.2-1.1-.3-1.7-1.5-2.3-2.3-1.1-1.6-3.1-2.3-4.1-4-.5-.8-.9-1.7-1.1-2.7,0,0,.2-.1.2-.1h0Z" fill="#fff"/><path d="M113.8,297.6c2-.5,3.7.6,5.2,1.8,1.5,1.1,2.8,2.2,4.2,3.5,0,0-.1.1-.1.1l-4.8-2.4c-1.7-.6-3.1-1.5-4.4-2.8,0,0,0-.2,0-.2h0Z" fill="#fff"/><path d="M101.3,316.7c1.6,1.1,2.6,2.3,3.5,4,0,0,3,4.4,3,4.4h-.1c-1.4-1-2.8-2.2-4-3.5-1.4-1.2-2.7-2.8-2.5-4.8,0,0,.2,0,.2,0h0Z" fill="#fff"/><path d="M104.1,312.8c1.3,1,2,1.9,2.7,3.3.8,1.1,1.5,2.5,2.6,3.3,0,0,0,.2,0,.2-.8,0-1.5-.7-2.1-1-1.1-1-2.4-1.9-3.2-3.2-.3-.7-.5-1.6-.3-2.4,0,0,.2,0,.2,0h0Z" fill="#fff"/><path d="M109.2,304.7c2.6-.4,4.3,1.7,5.9,3.3.5.6,1,1.2,1.4,1.8h-.1c-1.7-1.3-3.8-2.2-5.6-3.2-.6-.5-1.1-1-1.6-1.7v-.2h0Z" fill="#fff"/><path d="M110.1,302.2c1.4.1,2.1.7,2.9,1.7.8.8,1.5,1.6,2.3,2.5v.2c-1.2-.4-2.2-.9-3.2-1.5-1.2-.5-2.1-1.3-2.1-2.7,0,0,.1-.1.1-.1h0Z" fill="#fff"/><path d="M158,292.9c-.4,2.5-1.6,4.3-3,6.3-.7,1.4-.7,3-1.1,4.5-.4,2.3-1.2,4.3-2,6.5,0,0-.2,0-.2,0-.4-.8-.5-1.6-.5-2.4-.2-3.4,1.9-6,3.2-8.9.4-1.5.6-3.2,1.7-4.4.5-.6,1-1.2,1.7-1.7,0,0,.2,0,.2,0h0Z" fill="#fff"/><path d="M175.1,292.6c.5,1.8.3,3.5-.5,5-.4,1-1.3,1.9-1.6,3-.1.5,0,1.2-.1,1.7-.2.9-.6,1.6-1.3,2.2-.2.2-.6.5-.9.5,0,0,0,0,0,0,0-1.1.2-2.3.8-3.2.3-.5.8-.9,1-1.4.6-1.5.2-3.3.8-4.9.4-1,.8-2,1.6-3,0,0,.2,0,.2,0h0Z" fill="#fff"/><path d="M163.3,290.3c-1.2,2.6-2.6,4.7-4.3,7-1.6,2.3-2.8,5-4.2,7.2.5-2.7,1.8-5.4,3-7.9,1.1-2.6,2.7-5.1,5.4-6.4,0,0,.2,0,.1.1h0Z" fill="#fff"/><path d="M174,289.9c-.2,2.9-1.2,5.4-2.4,7.9-.6,1.3-2,4.4-2.7,5.6-.4.6-.6,1.4-1.3,1.7-.1,0-.1-.1,0-.2.7-1,1-2.5,1.4-3.7,0,0,1.2-3.9,1.2-3.9.7-2.7,1.6-5.4,3.6-7.5,0,0,.2,0,.2,0h0Z" fill="#fff"/><path d="M165.7,287.8c.1,1,0,2-.6,2.8-.3.4-.8.7-1,1.1-.5.8-.3,1.9-.6,2.8-.3,1.5-.9,2.6-2.1,3.7,0,0-.2,0-.2,0-.3-1.1-.2-2.1,0-3,.4-1.6,1.7-2.4,2.2-3.7.1-.5,0-1,.2-1.5.3-.9.9-1.7,1.9-2.2,0,0,.2,0,.2,0h0Z" fill="#fff"/><path d="M172.2,288.8c.2,1,.2,2-.4,2.9-.3.4-.7.7-.9,1.1-.2.4-.3.9-.3,1.4,0,1.5-.4,2.9-1.4,4-.2.2-1,1.1-1.4.9,0,0,0,0,0,0h0c0-1.5.2-2.9,1-4.1.4-.8,1.3-1.5,1.5-2.4.1-1-.1-1.9.6-2.8.3-.4.6-.8,1.1-1.1,0,0,.2,0,.2,0h0Z" fill="#fff"/><path d="M177.8,302.5c.4,1.5.4,2.9,0,4.3-.5,1.3-1.4,2.6-1.5,4-.2,1-.2,2.3-1,3.1,0,0,.3-.3.3-.3-.9,2.3-2.7,4.3-5,5.1,0,0-.1-.1-.1-.1,1.2-2.1,2.6-4.4,3.9-6.1,1-1.3,2-2.9,1.9-4.7,0-1.9.5-3.7,1.4-5.4,0,0,.2,0,.2,0h0Z" fill="#fff"/><path d="M179.1,303.1c1.1,1.8.7,3.7,0,5.4-.5,1.7-1.2,3.4-1.9,5,0,0-.2,0-.2,0l.7-5.3c0-1.9.4-3.4,1.3-5.1,0,0,.2,0,.2,0h0Z" fill="#fff"/><path d="M175.6,299.6c1.2,1.3,1,3.1.4,4.5-.3,1.1-.8,2.1-1.4,3.1-.3.3-.4.7-.8.9,0,0,0-.2,0-.2.8-1.8.7-4.3.9-6.2.2-.7.4-1.3.7-2.1h.2Z" fill="#fff"/><path d="M170.5,287.9c-.3,2.5-1.3,4.5-2.5,6.6-1,2.1-2,4.2-2.9,6.4,0,0-.2,0-.2,0,.4-2.4,1-4.7,1.7-6.9.6-2.4,1.7-4.6,3.7-6.1,0,0,.2,0,.2,0h0Z" fill="#fff"/><path d="M167.4,288.3c.6,1.3.2,2.4-.6,3.4-.6,1-1.3,1.9-2.1,2.7,0,0-.2,0-.2,0,.5-1.5.8-3.4,1.4-4.8.3-.5.7-.9,1.3-1.3,0,0,.2,0,.2,0h0Z" fill="#fff"/><path d="M102.3,371.9c2.4-1,4.5-.9,6.9-.7,1.6,0,2.9-1,4.4-1.4,2.2-.8,4.3-1.2,6.6-1.7,0,0,.1.1.1.1-.5.8-1.2,1.2-1.8,1.7-2.8,2-6.1,1.5-9.2,1.9-1.5.5-3,1.2-4.6.9-.8,0-1.6-.2-2.4-.6v-.2h0Z" fill="#fff"/><path d="M93.1,357.4c1.3-1.3,2.8-2,4.6-2.2,1.1-.2,2.3.1,3.4-.2.5-.2,1-.6,1.5-.8.8-.3,1.7-.3,2.6,0,.3,0,.7.2.9.5,0,0,0,0,0,0-1,.5-2,1-3.2,1-.6,0-1.1-.2-1.7-.1-1.6.3-3,1.6-4.6,1.9-1.1.2-2.2.4-3.4.2,0,0-.1-.1,0-.2h0Z" fill="#fff"/><path d="M97.3,368.6c2.8-.3,5.4-.2,8.2,0,2.7.2,5.7-.2,8.3-.1-2.6.9-5.5,1.2-8.3,1.6-2.8.4-5.8.3-8.3-1.3,0,0,0-.2,0-.2h0Z" fill="#fff"/><path d="M91.4,359.7c2.6-1.3,5.2-1.8,8-2,1.5-.2,4.8-.6,6.2-.6.7,0,1.5-.2,2.1.2,0,.1,0,.2-.1.1-1.3-.1-2.7.4-3.9.7,0,0-4,1-4,1-2.7.8-5.4,1.4-8.3.8,0,0-.1-.1,0-.2h0Z" fill="#fff"/><path d="M94,368c.8-.6,1.7-1,2.7-.9.5,0,1,.3,1.4.3,1,0,1.8-.8,2.7-1,1.4-.5,2.7-.6,4.2-.2,0,0,.1.1,0,.2-.7.8-1.6,1.3-2.6,1.5-1.6.5-2.9-.2-4.3,0-.5.1-.9.5-1.3.6-.9.2-1.9.1-2.9-.4,0,0,0-.1,0-.2h0Z" fill="#fff"/><path d="M91.4,361.9c.7-.7,1.6-1.2,2.6-1.2.5,0,1,.2,1.5.2.5,0,.9-.2,1.3-.5,1.3-.7,2.7-1.1,4.2-.9.3,0,1.4.2,1.5.7,0,0,0,0,0,0h0c-1.2.8-2.5,1.3-4,1.3-.9.1-2-.4-2.9,0-.9.4-1.6,1.1-2.7.9-.5,0-1,0-1.5-.3,0,0,0-.1,0-.2h0Z" fill="#fff"/><path d="M96.2,350.7c1-1.1,2.3-1.8,3.7-2.3,1.4-.3,2.9-.1,4.2-.8,1-.4,2.1-1.1,3.2-.7,0,0-.4,0-.4,0,2.4-.4,5.1,0,7,1.6,0,0,0,.2,0,.2-2.4,0-5.2,0-7.2-.2-.7,0-1.6-.1-2.3,0-1.9,0-3.3,1.7-5.2,2-.9.2-1.8.5-2.8.5v-.2h0Z" fill="#fff"/><path d="M98.5,347.4c.9-1.8,2.8-2.5,4.6-2.8,1.7-.4,3.5-.8,5.3-1,0,0,0,.2,0,.2l-4.9,2.2c-1.6.9-3.1,1.4-5,1.6,0,0-.1-.1-.1-.1h0Z" fill="#fff"/><path d="M95.1,354.4c.5-1.7,2.1-2.4,3.7-2.7,1.1-.3,2.2-.4,3.4-.4.4,0,.8,0,1.2.3,0,0-.2,0-.2,0-2,.2-4,1.7-5.8,2.4-.7.2-1.3.3-2.2.4h-.1Z" fill="#fff"/><path d="M91.5,363.8c2.3-1.1,4.5-1.3,6.9-1.3,2.3-.2,4.7-.5,7-.9,0,0,0,.2,0,.2-2.2.9-4.5,1.6-6.8,2.1-2.3.7-4.8.9-7.2,0,0,0,0-.2,0-.2h0Z" fill="#fff"/><path d="M93.5,366.2c.8-1.2,2-1.4,3.2-1.2,1.2,0,2.3.1,3.4.4,0,0,0,.2,0,.2-1.6.4-3.4,1.1-4.9,1.3-.6,0-1.1-.1-1.8-.4v-.2h0Z" fill="#fff"/><path d="M208.5,326.6c-2.2,1.3-4.3,1.4-6.8,1.5-1.5.3-2.8,1.4-4.2,2-2.1,1.1-4.1,1.7-6.4,2.5,0,0-.1-.1-.1-.1.4-.8,1-1.4,1.6-1.9,2.5-2.3,5.9-2.2,8.9-3,1.4-.7,2.8-1.5,4.5-1.4.8,0,1.6,0,2.4.3v.2h0Z" fill="#fff"/><path d="M206.2,350.5c-1.3,1.3-2.9,1.8-4.7,1.9-1.1.2-2.3-.3-3.4,0-.5.1-1,.5-1.6.7-.8.3-1.7.2-2.6,0-.3,0-.7-.3-.9-.5,0,0,0,0,0,0,1-.4,2.1-.9,3.2-.8.6,0,1.1.3,1.7.2,1.6-.2,3-1.4,4.7-1.6,1.1-.2,2.2-.2,3.4,0,0,0,.1.1,0,.2h0Z" fill="#fff"/><path d="M212.7,331.7c-2.7,1-5.2,1.5-7.9,2-2.7.5-5.5,1.6-8.1,2.2,2.3-1.5,5.1-2.5,7.7-3.6,2.6-1.1,5.6-1.7,8.4-.7,0,0,0,.2,0,.2h0Z" fill="#fff"/><path d="M207.9,347.5c-2.6,1.2-5.3,1.5-8.1,1.5-1.5,0-4.8.3-6.2.2-.7,0-1.5,0-2.1-.4,0-.1,0-.2.2,0,1.2.2,2.7-.3,4-.5,0,0,4.1-.8,4.1-.8,2.7-.7,5.5-1.1,8.3-.3,0,0,0,.1,0,.2h0Z" fill="#fff"/><path d="M212,334.6c-.8.7-1.6,1.1-2.6,1.1-.5,0-1-.2-1.5-.2-1,0-1.7.9-2.6,1.2-1.3.6-2.6.8-4.2.5,0,0-.1-.1,0-.2.7-.9,1.5-1.4,2.4-1.7,1.5-.6,2.9,0,4.3-.4.4-.2.9-.5,1.3-.7.9-.3,1.9-.3,2.9.2,0,0,0,.1,0,.2h0Z" fill="#fff"/><path d="M207.8,344c-.8.7-1.7,1.1-2.7,1-.5,0-1-.3-1.5-.3-.5,0-.9.1-1.4.4-1.3.7-2.8,1-4.2.6-.3,0-1.4-.3-1.5-.8,0,0,0,0,0,0h0c1.3-.7,2.6-1.2,4-1,.9,0,1.9.5,2.8.2.9-.4,1.6-1,2.7-.8.5,0,1,.1,1.5.4,0,0,0,.1,0,.2h0Z" fill="#fff"/><path d="M202.6,357c-1.1,1.1-2.4,1.7-3.8,2-1.4.2-2.9,0-4.3.5-1,.3-2.1.9-3.2.6,0,0,.4,0,.4,0-2.5.3-5-.3-6.9-2.1,0,0,0-.2,0-.2,1.2,0,2.4.1,3.5.2,1.2,0,2.8.2,3.7.4,1.7.3,3.5.5,5-.5,1.7-1,3.5-1.3,5.5-1.3,0,0,0,.2,0,.2h0Z" fill="#fff"/><path d="M211.8,328.4c-1.6,1-3.1,1.5-5,1.8,0,0-5.2,1.2-5.2,1.2v-.2c1.5-.9,3.1-1.7,4.7-2.5,1.7-.9,3.6-1.5,5.4-.6,0,0,0,.2,0,.2h0Z" fill="#fff"/><path d="M204.4,353.4c-.6,1.7-2.2,2.3-3.8,2.4-1.1.2-2.3.3-3.4.2-.4,0-.8,0-1.2-.3,0,0,.2,0,.2,0,2,0,4.1-1.4,5.9-2.1.7-.2,1.3-.2,2.2-.3h.1Z" fill="#fff"/><path d="M202.1,325.7c-1.3,1.1-2.6,1.3-4.2,1.4-1.4.3-2.9.6-4.3,1,0,0,0-.2,0-.2,1.2-.9,2.6-1.7,4-2.2,1.4-.7,3-1,4.6-.2,0,0,0,.2,0,.2h0Z" fill="#fff"/><path d="M208.8,341.8c-1.5.7-2.9.6-4.4.3-1.5-.1-2.9-.2-4.4-.2,0,0,0-.2,0-.2,1.4-.6,2.9-.9,4.4-1.1,1.6-.3,3.2-.2,4.4,1,0,0,0,.2,0,.2h0Z" fill="#fff"/><path d="M210.2,338.1c-.9,1.1-2.1,1.3-3.3,1-1.1,0-2.3-.3-3.4-.6,0,0,0-.2,0-.2,1.6-.3,3.4-.9,4.9-1,.6,0,1.1.2,1.7.6v.2h0Z" fill="#fff"/><path d="M158,345.9c3,.5,5.5,2,8,3.6,1.8.9,3.8.9,5.7,1.5,2.9.7,5.6,1.6,8.2,3.1,0,0,0,.2,0,.2-2,.1-4-.2-5.9-.7-2.9-.7-5.4-2.5-8.2-3.5-2.9-.6-5.8-1.6-7.9-3.9,0,0,0-.2,0-.2h0Z" fill="#fff"/><path d="M156.6,344.2c3.7,0,7.3.6,10.9,1.3,2.4.2,4.9-.5,7.3-.6,3.7-.4,7.3-.6,11-.3,0,0,.1.1,0,.2-3.5,1.4-7.2,1.9-11,1.8-2.5,0-4.9-.6-7.4-.5-1.8,0-3.7.5-5.6,0-.5,0-1.3-.2-1.8-.4-1.2-.3-2.4-.8-3.5-1.4,0,0,0-.2,0-.2h0Z" fill="#fff"/><path d="M156.9,343.8c2.1-1.6,4.6-2,7.1-2.2,1.6-.4,3-1.5,4.5-2.1,2.3-1.1,4.6-1.8,7.1-2.2,0,0,.2,0,0,.2-1.2,1.3-2.7,2.1-4.2,2.8-2.3,1.1-4.9,1.1-7.3,1.9-2.2,1.3-4.6,2.2-7.3,1.8,0,0-.1-.1,0-.2h0Z" fill="#fff"/><path d="M157.1,344.5l4.6,1c1.5.3,2.9,1,4.5,1.4,3,.9,6,1.7,9.1,2.5v.2c-4.8-.5-9.6-1-14.1-2.4-1.5-.6-3-1.4-4.1-2.6,0,0,0-.2,0-.2h0Z" fill="#fff"/><path d="M158.4,344.3c1.8-1.3,3.9-1.5,5.9-1.2,2,0,4,.3,6,.6,0,0,0,.2,0,.2l-5.9.6c-2,.4-3.9.5-5.9,0,0,0,0-.2,0-.2h0Z" fill="#fff"/><path d="M151.3,337.6c-1.7-2.6-2-5.7-1.8-8.6-.3-2.9-1.4-5.8-1.3-8.8,0-2,.2-4,.9-5.9,0,0,.2,0,.2,0,.7,2.9,1,5.8.9,8.7,0,1.9-.4,3.9,0,5.9.9,2.8,1.7,5.6,1.4,8.7,0,0-.1.1-.2,0h0Z" fill="#fff"/><path d="M152.5,338.8c-.9-3.8.2-7.5,1.7-10.9.8-2.3,1-4.9,1.8-7.2,1.1-3.6,2.7-6.9,5.1-9.9,0,0,.2,0,.2,0-.8,3.7-2.1,7-3.6,10.4-.9,2.3-2.3,4.4-2.8,6.8-.5,3.6-.9,7.3-2.1,10.8,0,0-.2,0-.2,0h0Z" fill="#fff"/><path d="M152.7,339.2c.7-2.6,2.6-4.3,4.7-5.8,1.7-1.8,2.8-4.2,4.8-5.9,1.3-1.1,2.7-2.1,4.4-2.7,0,0,.2,0,.1.1-1.4,2.2-3,4-5,5.6-1.2,1.1-2.8,1.9-3.8,3.2-.9,1.4-1.6,3-2.9,4-.6.6-1.3,1.1-2.1,1.5,0,0-.2,0-.1-.1h0Z" fill="#fff"/><path d="M151.8,337.7c-1.1-2.5-1-5-.7-7.6.2-2.5.4-5.1.7-7.6h.2c.2,2.2.4,5.4.6,7.6.3,2.6.4,5.1-.5,7.6,0,0-.2,0-.2,0h0Z" fill="#fff"/><path d="M152.9,338.1c-.1-2.3.9-4.2,2.2-5.8,1.2-1.7,2.5-3.4,3.9-4.9,0,0,.1.1.1.1-1,1.8-1.9,3.7-2.8,5.5-.8,2-1.6,3.7-3.3,5.2,0,0-.2,0-.2,0h0Z" fill="#fff"/><path d="M141.9,339.6c-3.1.5-6-.6-8.6-2-2.8-1-5.8-1.2-8.5-2.5-1.8-.9-3.5-1.9-5-3.3,0,0,0-.2,0-.2,3,.6,5.7,1.6,8.3,2.9,1.8.8,3.4,2.1,5.3,2.5,2.9.4,5.8.9,8.4,2.4,0,0,0,.2,0,.2h0Z" fill="#fff"/><path d="M144.3,339.5c-3.9-.6-6.9-3-9.5-5.7-1.9-1.6-4.1-2.8-6-4.4-2.9-2.4-5.4-5.1-7.2-8.4,0,0,0-.2.1-.1,3.1,2.2,5.7,4.6,8.3,7.3,1.7,1.7,3.2,3.8,5.2,5.2,3.2,1.8,6.4,3.6,9.2,6,0,0,0,.2,0,.2h0Z" fill="#fff"/><path d="M144.3,339.7c-2.2-1.5-3.4-3.8-4.2-6.2-1.2-2.2-3.2-3.9-4.2-6.3-.7-1.5-1.2-3.2-1.2-4.9,0,0,.1-.1.2,0,1.7,2,2.9,4,3.8,6.4.7,1.5,1,3.2,1.9,4.6,1.7,1.9,3.3,3.8,3.8,6.4,0,0,0,.2-.2.1h0Z" fill="#fff"/><path d="M143.9,340.2c-3.3.1-6.3-1.7-8.8-3.6-2.6-1.8-5.2-3.7-7.6-5.7,0,0,.1-.1.1-.1,4.1,2.4,8.2,4.6,12.4,6.8,0,0,4,2.5,4,2.5v.2h0Z" fill="#fff"/><path d="M143.2,339.1c-2.1-.7-3.5-2.4-4.6-4.2-1.2-1.7-2.2-3.5-3.1-5.4,0,0,.2,0,.2,0,1.3,1.6,2.7,3.1,4.1,4.6,1.5,1.5,2.8,2.9,3.6,5,0,0-.1.1-.1.1h0Z" fill="#fff"/><path d="M142.8,349.4c-3,.6-5.9.1-8.8-.4-2-.2-3.9.5-5.8.7-2.9.4-5.8.5-8.8,0,0,0-.1-.1,0-.2,1.9-.9,3.8-1.3,5.8-1.5,3-.4,5.9.4,8.9.4,3-.5,6-.6,8.8.8,0,0,0,.2,0,.2h0Z" fill="#fff"/><path d="M144,350.5c-3.3,1.7-6.8,2.7-10.3,3.8-2.3.9-4.2,2.6-6.2,3.9-3.1,2.1-6.2,3.8-9.7,5.2,0,0-.2,0-.1-.1,2.5-2.8,5.6-5,9-6.6,2.2-1.2,4.7-1.7,6.8-2.9,1.6-.9,3.1-2.1,5-2.6.5-.2,1.3-.4,1.8-.5,1.2-.3,2.5-.4,3.8-.3,0,0,.1.1,0,.2h0Z" fill="#fff"/><path d="M143.3,349.9c-2.9.8-6.2,1.6-9.1,2-3.1.6-6.2,1.2-9.2,1.9v-.2c4.4-1.7,8.9-3.5,13.5-4.3,1.6-.1,3.3-.2,4.9.4,0,0,0,.2,0,.2h0Z" fill="#fff"/><path d="M142.8,351c-1.2,1.9-2.8,3-4.6,4.1-1.7,1.2-3.4,2.3-5,3.6h-.1c1.3-1.8,2.7-3.3,4.2-4.7,1.5-1.6,3.2-2.9,5.4-3.1,0,0,0,.2,0,.2h0Z" fill="#fff"/><path d="M148.4,339.4c-1.7-1.2-1.6,1.4-2.2,1.5-.6.1-1-.1-1.5.1-.5.3-.8.3-.7,1.6,0,1.4.7.5.6,1.3-.1.8-.6,1.2-.5,1.8s-.1.9.4,1.1.9.2.8.7c-.1.5.4.8.8,1.2.4.4.8,1.3,1.3,1.3s.5-.5.9.3.3,1.4,1.2,1.1c.9-.3,1.1-.2,1.3-.9.2-.6.8-.6,1.2-1.4.5-.8,1.3,0,1.7-.8.4-.7.8-1.9.3-2.1s-.1-.6-.2-1.5c-.1-.8.5-2.1,0-2.2-.6,0-.9-.2-1.1-.8-.3-.6,0-1.1-.4-1.5s-1.6-.6-1.9-.3-1.8-.9-1.8-.9Z" fill="none" stroke="#fff" stroke-miterlimit="10" stroke-width=".8"/><path d="M149.4,349.6c1.3,1,1.2-1,1.7-1,.5,0,.8.1,1.2,0s.6-.2.6-1.2c0-1-.5-.4-.4-1s.5-.9.5-1.3.1-.7-.3-.9-.6-.2-.5-.5-.3-.6-.6-1-.5-1-.9-1-.4.4-.6-.3c-.2-.6-.2-1.1-.9-.9-.7.2-.9.1-1,.6s-.6.4-1,1c-.4.6-1,0-1.3.5-.4.5-.6,1.4-.3,1.5s0,.5.1,1.1-.5,1.6,0,1.6.6.2.8.6c.2.4,0,.8.2,1.2.3.3,1.2.5,1.5.3.2-.3,1.3.7,1.3.7Z" fill="none" stroke="#fff" stroke-miterlimit="10" stroke-width=".6"/><path d="M147.8,342.5c-1.1-.3-.5,1-.8,1.2s-.5.1-.7.4-.4.3,0,1,.4.1.5.6c0,.4,0,.7,0,1s0,.5.4.5.5,0,.5.2.4.3.7.5.6.5.9.4.2-.4.5,0c.3.3.4.6.8.3.4-.3.5-.3.5-.7s.3-.4.3-.9.6-.3.7-.7,0-1.1-.2-1.1c-.3,0-.2-.3-.4-.7s-.1-1.2-.4-1.1-.5,0-.7-.2-.2-.6-.5-.7-.9,0-1,.2-1.1-.1-1.1-.1Z" fill="none" stroke="#fff" stroke-miterlimit="10" stroke-width=".4"/><path d="M237.3,170.6c-.2-.4-.3-.8-.3-1.1,0,0,0,0,.1,0,.3-.2.5-.4.6-.7.4,0,.9-.2,1.2-.5.2,0,.5,0,.7.1,6,11.5,16.9,21.4,25,14.1,1.6-1.5,6.7-.1,8-2.6,2.8-5.5-2.3-9.3-5-12.5-5.8-7-16.5-6.7-26.4-2.2-.8-.1-1.3-.3-1.6-.5,0-.4,0-.8-.2-1.1.2-.5.6-1,.9-1.3,2.6-.8,5.9-1.1,11.2-3.7,3.8-1.9,9.4-1.1,12.4-4,3.6-3.4,5.7-11.2,1.3-15.2-1.1-1-4.1-1.1-5.2-1.8-4.1-2.8-6.1-4.7-9.5-3.8-3.5.9-6.5,3.7-8.6,8.5-1.9,4.3-3.2,10.1-3.6,17.5-.3.5-.6.8-.8,1.1-.5,0-1,.1-1.3.6,0,0,0,0,0,0,0,0,0,0-.1-.1-.5-.4-1.1-.4-1.6,0-.3-.2-.5-.5-.6-.6,2.2-8.2,8.9-27.7-3.3-30.3-1.5-.3-3.7-3.4-7.1-2.9-4,1.4-4.3,5.5-5.7,6.8-5.2,4.6-.8,15,13.6,27.9.3.4.4.8.4,1,0,0,0,.2,0,.2,0,.6-.6.9-1.2,1.1-3.3-2.1-8.4-4.9-13.4-6.1-5.1-1.2-12.6-1.2-15.6,3.4-1.4,2.1,1.7,7.5,1.8,12-.6,5.6,2.1,6.8,5.8,8.8,6.9,3.7,16.2.9,23.6-12.5.5-.5.9-.7,1.2-.8.2,0,.3,0,.5,0,.3.2.4.9.3,1.4-3.4,7.7-20.4,22.3-.5,32.9,2.8,1.5.4-1.4,12.4,3.4,5.6-1.3,7.2-13.6-9.1-36.3Z" fill="none" stroke="#fff" stroke-miterlimit="10" stroke-width="2.2"/><path d="M230.3,164.4c-1.4,1.2.8,1.7.7,2.2s-.4.8-.3,1.3,0,.8,1.2,1c1.2.3.6-.5,1.3-.1s.8.8,1.4.9.7.3,1.1,0,.4-.7.8-.5.8-.2,1.3-.4,1.3-.3,1.4-.8-.3-.6.5-.7,1.2,0,1.2-.7c0-.8,0-1-.4-1.3s-.3-.8-.9-1.4.3-1.1-.2-1.7-1.4-1.1-1.7-.8-.6,0-1.3-.2-1.7-1-1.8-.5-.4.7-1,.8c-.6,0-.9-.3-1.4,0s-.9,1.2-.7,1.6c.2.4-1.2,1.3-1.2,1.3Z" fill="none" stroke="#fff" stroke-miterlimit="10" stroke-width=".7"/><path d="M229.8,165.6c-2,0-3.8-.5-5.6-1.2-3.2-.4-6.4,0-9.5-1.1,0,0,0-.1,0-.1,1.3-.4,2.6-.4,3.9-.4,2,0,3.8.9,5.7,1.2,2,0,3.9.3,5.6,1.5,0,0,0,.1,0,.1h0Z" fill="#fff"/><path d="M230.7,168.1c-2.4.5-4.7.5-7.2.6-3.9.9-7.5,2.7-11.6,3,0,0,0,0,0-.1,1.4-.9,2.9-1.5,4.4-2,2.3-.8,4.8-.8,7.2-1.2,2.3-.8,4.8-1.2,7.2-.3,0,0,0,.1,0,.1h0Z" fill="#fff"/><path d="M231.9,169.1c-1.1,1.3-2.7,1.9-4.3,2.4-2.4,1.5-4,3.4-6.9,4.3,0,0-.1,0,0,0,.6-1,1.5-1.7,2.3-2.4,1.3-1,3-1.3,4.4-2.1,1.3-1.1,2.6-2,4.4-2.1,0,0,0,0,0,.1h0Z" fill="#fff"/><path d="M230.3,167c-1.8.3-4.3.5-6.1.5-2,.1-4.1.3-6.2.4h0c3-.8,6.1-1.6,9.2-1.7,1,0,2.1.2,3.1.7h0Z" fill="#fff"/><path d="M230.7,165.8c-1.7.5-3.3.4-5,.1-1.6-.2-3.3-.4-4.9-.7,0,0,0-.1,0-.1,1.7,0,3.3-.1,5-.1,1.7,0,3.4,0,4.9.7,0,0,0,.1,0,.1h0Z" fill="#fff"/><path d="M229.4,164.5c-3.5-.4-6.4-2.4-9.9-2.8,0,0,0-.1,0-.1,1.7,0,3.5.2,5.2.5,1.8.3,3.5.9,4.7,2.3,0,0,0,.1,0,.1h0Z" fill="#fff"/><path d="M230.4,168.8c-2.1,1.8-4.9,2-7.4,3.1,0,0,0-.1,0-.1,1.1-.8,2.3-1.5,3.5-2.1,1.2-.7,2.5-1.3,4-1,0,0,0,.1,0,.1h0Z" fill="#fff"/><path d="M231.9,169.6c-.3,1.4-1.3,2.3-2.5,3.1-1.1.8-2.1,1.5-3.3,2.2h0c.9-1,1.8-1.9,2.7-2.9.9-1,1.7-1.9,3-2.4,0,0,0,0,0,0h0Z" fill="#fff"/><path d="M205.4,179.6c1.6-.5,3-.2,4.5.1.5,0,1,0,1.5-.2,2-.6,3.9-.8,5.9-.9,0,0,0,0,0,0-.8.9-1.8,1.2-2.8,1.5-1.5.4-3.1,0-4.6,0-1.5.4-3.1.5-4.6-.4,0,0,0-.1,0-.1h0Z" fill="#fff"/><path d="M202,168.1c.7-1,1.6-1.6,2.7-2,.7-.3,1.5-.2,2.1-.5.6-.4,1.2-1,2-1,.4,0,.8,0,1.2.2,0,0,0,0,0,0-.6.4-1.2.9-1.9,1-.4,0-.8,0-1.1.1-1,.4-1.7,1.4-2.7,1.7-.7.3-1.3.5-2.2.5,0,0,0,0,0-.1h0Z" fill="#fff"/><path d="M202.8,176.9c1.8-.5,3.4-.7,5.3-.9,1.8-.2,3.6-.8,5.4-1-1.5.9-3.4,1.4-5.2,2-1.8.6-3.7.9-5.5.1,0,0,0-.1,0-.1h0Z" fill="#fff"/><path d="M202,169.7c2.1-1.7,5-2.2,7.5-3,.9-.2,1.8-.6,2.7-.4,0,0,0,0,0,0-.8,0-1.7.6-2.5.9,0,0-2.5,1.1-2.5,1.1-1.6.8-3.3,1.5-5.2,1.4,0,0,0,0,0-.1h0Z" fill="#fff"/><path d="M203.3,175.8c.5-.5,1-.8,1.6-.9.3,0,.7,0,1,0,.6,0,1.1-.7,1.6-.9.8-.5,1.7-.7,2.7-.6,0,0,0,0,0,0-.4.6-.9,1-1.5,1.3-.9.5-1.9.2-2.8.5-.8.6-1.6,1-2.7.6,0,0,0,0,0-.1h0Z" fill="#fff"/><path d="M203.3,171.3c.7-1,1.5-1.1,2.5-1.1,1.2-.5,1.9-1.6,3.4-1.5.3,0,.8,0,1.1.3,0,0,0,0,0,0h0c-.7.7-1.5,1.2-2.4,1.3-.6.2-1.3,0-1.8.3-.8.7-1.5,1.1-2.6.9,0,0,0,0,0-.1h0Z" fill="#fff"/><path d="M201.4,164.8c.7-1.1,1.7-1.9,3-2.2.6-.1,1.2-.4,1.7-.7.6-.4,1.2-.9,2-.8,0,0-.3,0-.3,0,1.5-.6,3.3-.6,4.7.2,0,0,0,.1,0,.1-1.5.3-3.3.6-4.6.7-.5,0-1.1,0-1.6.2-1.2.2-2,1.5-3.1,1.9-.5.3-1.1.5-1.8.6,0,0,0,0,0,0h0Z" fill="#fff"/><path d="M204.3,178.4c1.1-.5,2.2-.7,3.4-.7,0,0,3.5-.3,3.5-.3h0c-1.1.6-2.2.9-3.4,1.2-1.2.4-2.4.6-3.6-.2,0,0,0-.1,0-.1h0Z" fill="#fff"/><path d="M201.1,163.8c.4-1.3,1.5-1.9,2.7-2.3,1.1-.5,2.2-.9,3.3-1.2h0c0,.1-2.9,2.1-2.9,2.1-.9.8-1.8,1.3-3,1.6,0,0,0,0,0,0h0Z" fill="#fff"/><path d="M201.9,166.9c.2-2,2.6-2.4,4.2-2.8.3,0,.5-.1.8,0h0c-1.3.5-2.4,1.6-3.4,2.3-.4.2-.8.4-1.3.5h0Z" fill="#fff"/><path d="M207,181c1.1-.3,1.9-.1,2.9.3.9.2,1.9.4,2.8.5h0c-1,.4-2,.4-3,.4-1.1,0-2.1-.2-2.8-1.1,0,0,0-.1,0-.1h0Z" fill="#fff"/><path d="M203.1,173c.9-.7,1.7-.8,2.8-.8.9-.1,1.9-.3,2.8-.6h0c-.8.7-1.7,1.1-2.7,1.5-1,.5-2,.6-3,0,0,0,0-.1,0-.1h0Z" fill="#fff"/><path d="M203,174.7c.4-.9,1.1-1.1,1.9-1.2.7-.1,1.5-.2,2.2-.2h0c-1,.6-2,1.2-3,1.5-.4,0-.7,0-1.2,0h0Z" fill="#fff"/><path d="M266.5,142.5c.4,1.7-.3,3.1-1.1,4.4-.6,1.4-.6,3.1-1.5,4.4-.6.9-1.2,1.7-2.3,2.2,0,0,0,0,0,0,.8-1.9,1.6-3.6,2.8-5.3.3-.4.5-.9.7-1.4.2-1.5.4-3,1.4-4.3,0,0,.1,0,.1,0h0Z" fill="#fff"/><path d="M256.7,135.6c-.6,1.5-1.6,2.4-2.9,3.2-.3.2-.6.4-.8.7-.2.3-.3.7-.5,1-.3.5-1.2,1.3-1.6,1.5-.2-.9.3-1.6.9-2.1.3-.2.7-.4.9-.6.7-.8,1.1-2,1.9-2.7.6-.5,1.2-.9,2-1.1,0,0,0,0,0,0h0Z" fill="#fff"/><path d="M264.8,139.2c.2,1.9-.8,3.7-1.9,5.1-1.1,1.5-2.2,3.1-3.6,4.2.8-1.6,2-3.1,2.7-4.7.8-1.7,1.5-3.2,2.6-4.7,0,0,.1,0,.1,0h0Z" fill="#fff"/><path d="M258.2,136.1c-.8,2.6-3.2,4.5-4.9,6.4-.6.6-1.4,1.3-1.7,2.1,0,0,0,0,0,0-.2-.4.4-1,.5-1.3.5-.8,1.8-2.6,2.3-3.3,1-1.5,2.1-2.9,3.7-3.9,0,0,.1,0,0,0h0Z" fill="#fff"/><path d="M263.5,139.3c0,1.2-.6,1.8-1.5,2.3-.4.4-.5,1.2-.8,1.7-.5.9-1.2,1.5-2.2,1.7,0,0,0,0,0,0,.2-1,.7-1.8,1.4-2.4.4-.4,1.1-.7,1.4-1.2.2-.6.3-1.2.8-1.6.2-.2.5-.4.8-.5,0,0,.1,0,0,0h0Z" fill="#fff"/><path d="M259.3,137.9c-.1,1.2-.8,1.7-1.7,2.2-.6.7-.7,1.7-1.4,2.4-.4.5-1,.8-1.5,1.2,0,0,0,0,0,0-.1-1.1.5-1.9,1.2-2.6.4-.4,1.1-.6,1.5-1.2.3-1,.7-1.7,1.9-2,0,0,0,0,0,0h0Z" fill="#fff"/><path d="M253.7,133.9c-.7,1.1-1.5,2-2.6,2.5-.6.3-1,.7-1.3,1.2-.3.4-.5.9-.7,1.4-.5,1.2-1.4,2.8-2.2,4.1,0,0-.1,0-.1,0-.3-1.6.3-3.3,1.3-4.5,0,0,0,.3,0,.3.2-.7.9-1.1,1.4-1.6,1-.7,1.4-2.1,2.5-2.8.5-.4,1.1-.6,1.7-.8h0Z" fill="#fff"/><path d="M265.7,141c.4,1.3-.3,2.4-1,3.4-.7,1-1.4,1.9-2.2,2.8h0c0,0,1.4-3.3,1.4-3.3.4-1.2.9-2.1,1.7-3,0,0,.1,0,.1,0h0Z" fill="#fff"/><path d="M252.9,133.3c-.7,1-1.5,1.7-2.5,2.4,0,0-2.8,2.1-2.8,2.1h0c.7-1,1.4-1.9,2.2-2.8.8-.9,1.7-1.8,3.1-1.8,0,0,0,.1,0,.1h0Z" fill="#fff"/><path d="M255.5,135.1c-1,1.6-3.1,2.1-4.2,3.6,0,0-.1,0-.1,0,0-.6.4-.9.6-1.4.9-1.1,1.9-2.8,3.6-2.4,0,0,0,.1,0,.1h0Z" fill="#fff"/><path d="M260.9,138.2c.2,1.1-.3,2.1-1,2.8-.6.8-1.3,1.5-2.2,2.1h0c.9-1.3,1.4-2.6,2.1-3.8.3-.4.6-.7,1.1-1.1h.1Z" fill="#fff"/><path d="M262.6,138.7c0,.9-.4,1.4-1.1,1.9-.5.5-1,1.1-1.6,1.6h-.1c.2-.8.5-1.5.9-2.1.3-.8.8-1.4,1.7-1.4,0,0,0,0,0,0h0Z" fill="#fff"/><path d="M269.9,169.8c-1.6-.2-2.9-.9-4.2-1.8-.5-.2-1-.3-1.5-.4-2.1-.2-3.9-.7-5.8-1.3,0,0,0-.1,0-.1,1-.5,2.1-.4,3.2-.3,1.6.2,2.8,1.3,4.3,1.8,1.6.2,3.1.7,4.1,2.1,0,0,0,.1,0,.1h0Z" fill="#fff"/><path d="M270.4,181c-1.1.4-2.3.3-3.3-.2-.7-.2-1.3-.8-2-.9-.7,0-1.5,0-2.2-.5-.3-.2-.7-.4-.8-.9,0,0,0,0,0,0,.7,0,1.5,0,2.1.4.3.2.6.5.9.6,1,.3,2.2,0,3.2.4.7.2,1.3.5,2,1,0,0,0,.1,0,.1h0Z" fill="#fff"/><path d="M271.7,173.2c-1.7-.7-3.1-1.6-4.7-2.6-1.5-1-3.3-1.7-4.8-2.6,1.8.3,3.5,1.1,5.2,1.8,1.7.7,3.4,1.7,4.3,3.4,0,0,0,.1,0,0h0Z" fill="#fff"/><path d="M272.2,180.2c-2.7,0-5.3-1.5-7.7-2.5-.8-.4-1.8-.6-2.4-1.4,0,0,0,0,0,0,.6.5,1.7.6,2.5.9,0,0,2.6.7,2.6.7,1.8.4,3.5.9,5,2.2,0,0,0,.1,0,.1h0Z" fill="#fff"/><path d="M273.4,174.7c-.7.1-1.3,0-1.8-.4-.2-.2-.5-.5-.7-.6-.5-.3-1.3-.1-1.8-.3-1-.2-1.7-.5-2.5-1.3,0,0,0-.1,0-.1.7-.2,1.3-.2,1.9,0,1,.2,1.6,1,2.5,1.4,1,0,1.9.2,2.5,1.2,0,0,0,.1,0,.1h0Z" fill="#fff"/><path d="M272.9,179c-1.1.3-1.9-.1-2.7-.7-1.2-.4-2.4,0-3.6-1-.2-.2-.7-.5-.7-.9,0,0,0,0,0,0h0c.9,0,1.9,0,2.7.6.6.2,1,.8,1.6.9,1,0,1.9,0,2.6,1,0,0,0,.1,0,.1h0Z" fill="#fff"/><path d="M264.1,182.9c-1.2.4-2.6.4-3.7-.2-.6-.3-1.2-.5-1.8-.6-.7-.1-1.5,0-2.1-.6,0,0,.2.2.2.2-1.5-.5-2.9-1.6-3.5-3.2,0,0,0,0,0,0,1.4.7,2.9,1.6,4,2.4.4.3.9.6,1.4.8,1.1.6,2.4.1,3.6.5.6.1,1.2.3,1.8.6,0,0,0,.1,0,.1h0Z" fill="#fff"/><path d="M263.7,183.9c-1.1.7-2.4.5-3.5.1-1.1-.3-2.2-.7-3.3-1.1,0,0,0-.1,0-.1l3.5.3c1.2,0,2.2.2,3.4.7,0,0,0,.1,0,.1h0Z" fill="#fff"/><path d="M265.9,181.5c-1.4,1.4-3.5.2-5-.5-.2-.1-.5-.2-.6-.5h.1c1.2.5,2.8.3,4.1.5.5.1.9.2,1.4.4,0,0,0,.1,0,.1h0Z" fill="#fff"/><path d="M273.4,177.9c-3.1-.3-5.6-2.3-8.6-3.2,0,0,0-.1,0-.1,1.6.2,3.1.5,4.6,1,1.6.4,3,1,4.1,2.3,0,0,0,.1,0,.1h0Z" fill="#fff"/><path d="M273.1,175.9c-.8.4-1.6.2-2.2-.3-.6-.4-1.3-.8-1.8-1.3,0,0,0-.1,0-.1,1.1.3,2.2.4,3.2.8.3.2.6.4.9.8h0Z" fill="#fff"/><path d="M217.4,135.2c.7,1.5.7,2.9.6,4.5,0,.5.2,1,.4,1.4.9,1.9,1.4,3.7,1.9,5.7,0,0,0,0,0,0-1-.6-1.5-1.6-1.9-2.5-.6-1.5-.4-3.1-.7-4.6-.6-1.4-1-3-.4-4.6,0,0,.1,0,.1,0h0Z" fill="#fff"/><path d="M226.6,128.9c.9.8,1.4,1.8,1.6,2.9.2.7,0,1.5.2,2.2.3.7.8,1.3.7,2.1,0,.2,0,1.1-.4,1.2-.4-.6-.7-1.3-.7-2.1,0-.4,0-.8,0-1.1-.2-1-1.1-1.9-1.3-3-.2-.7-.3-1.4-.2-2.2,0,0,0,0,.1,0h0Z" fill="#fff"/><path d="M219.4,131.9c.3,1.8.3,3.5.2,5.3,0,1.8.3,3.7.3,5.5-.7-1.6-.9-3.6-1.2-5.4-.3-1.8-.4-3.8.7-5.4,0,0,.1,0,.1,0h0Z" fill="#fff"/><path d="M225,127.8c1.4,2.3,1.5,5.3,1.9,7.9,0,.9.4,1.9,0,2.8,0,0,0,0,0,0,0-.8-.3-1.8-.5-2.6,0,0-.8-2.6-.8-2.6-.6-1.7-1-3.5-.7-5.4,0,0,0,0,.1,0h0Z" fill="#fff"/><path d="M219.7,129.7c.4.5.7,1.1.7,1.8,0,.3-.2.6-.2.9,0,.6.5,1.1.7,1.7.4.9.4,1.7.2,2.8,0,0,0,0,0,0-.6-.4-.9-1.1-1.1-1.6-.3-.9,0-1.9-.1-2.8-.5-.9-.8-1.7-.2-2.7,0,0,0,0,.1,0h0Z" fill="#fff"/><path d="M223.6,127.9c.9.8.9,1.6.8,2.7,0,.3.2.6.3.9.5.8.8,1.7.7,2.7,0,.3,0,.8-.4,1,0,0,0,0,0,0h0c-.5-.8-.9-1.7-.9-2.6,0-.6.2-1.3,0-1.9-.5-.8-.9-1.6-.5-2.7,0,0,0,0,.1,0h0Z" fill="#fff"/><path d="M231.1,130.8c1,.9,1.6,2,1.7,3.3,0,.6.2,1.2.5,1.8.3.6.7,1.3.6,2.1,0,0,0-.3,0-.3.4,1.6.1,3.3-.9,4.6,0,0-.1,0-.1,0,0-1.6-.2-3.3,0-4.7,0-.5,0-1.1,0-1.6,0-1.3-1.2-2.2-1.5-3.3-.2-.6-.3-1.2-.4-1.8h.1Z" fill="#fff"/><path d="M233.3,132.2c1.2.6,1.7,1.8,1.9,3,.3,1.1.6,2.3.8,3.4h-.1s-1.5-3.1-1.5-3.1c-.6-1-1-2-1.2-3.2,0,0,0,0,0,0h0Z" fill="#fff"/><path d="M228.6,130.1c1.9.5,2,2.9,2.2,4.5,0,.3,0,.5-.1.8h0c-.2-1.4-1.2-2.7-1.7-3.8-.1-.4-.2-.9-.3-1.4h0Z" fill="#fff"/><path d="M222.4,128c1.4,2.9.9,6,1.8,9,0,0-.1,0-.1,0-.7-1.4-1.2-2.9-1.6-4.4-.5-1.5-.7-3.1-.2-4.7,0,0,.1,0,.1,0h0Z" fill="#fff"/><path d="M220.9,129.3c.8.5,1,1.3.9,2.1,0,.8,0,1.5-.1,2.2h-.1c-.3-1.1-.8-2.1-1-3.1,0-.4,0-.7.2-1.2h.1Z" fill="#fff"/><path d="M249,203.7c-.9-1.4-1-2.8-1.2-4.4-.1-.5-.3-1-.6-1.4-1.1-1.7-1.8-3.5-2.6-5.4,0,0,0,0,0,0,1,.5,1.7,1.4,2.2,2.3.8,1.4.8,3,1.3,4.5.8,1.4,1.4,2.8.9,4.5,0,0-.1,0-.1,0h0Z" fill="#fff"/><path d="M233.4,202.7c-.9-.8-1.3-1.9-1.4-3-.1-.7.1-1.5-.1-2.2-.3-.7-.7-1.3-.6-2.1,0-.2.1-1.1.5-1.2.3.7.6,1.4.6,2.1,0,.4-.1.7-.1,1.1.2,1.1,1,2,1.2,3,.1.7.2,1.4,0,2.2,0,0,0,0-.1,0h0Z" fill="#fff"/><path d="M245.8,206.5c-.7-1.7-1.1-3.3-1.5-5.1-.4-1.7-1.2-3.5-1.6-5.2,1.1,1.4,1.8,3.2,2.5,4.9.8,1.7,1.3,3.6.7,5.4,0,0,0,0-.1,0h0Z" fill="#fff"/><path d="M235.4,203.7c-1.2-2.4-1.2-5.3-1.5-8,0-.9-.3-1.9.1-2.8,0,0,0,0,0,0-.1.8.2,1.8.4,2.6,0,0,.6,2.6.6,2.6.5,1.8.8,3.6.4,5.4,0,0,0,0-.1,0h0Z" fill="#fff"/><path d="M243.9,206.1c-.5-.5-.8-1-.8-1.7,0-.3.1-.7,0-1,0-.6-.6-1.1-.8-1.7-.4-.9-.6-1.7-.4-2.7,0,0,0,0,0,0,.6.4,1,1,1.2,1.6.4.9,0,1.9.3,2.8.6.8.9,1.7.5,2.7,0,0,0,0-.1,0h0Z" fill="#fff"/><path d="M237.7,203.6c-.8-.8-.8-1.7-.6-2.7-.2-1.3-1.2-2.1-.8-3.6,0-.3.1-.8.5-1,0,0,0,0,0,0,0,0,0,0,0,0,.5.8.8,1.7.7,2.6,0,.6-.3,1.3,0,1.9.5.9.8,1.7.3,2.7,0,0,0,0-.1,0h0Z" fill="#fff"/><path d="M229,200.5c-.9-.9-1.5-2.1-1.5-3.4,0-.6-.1-1.2-.3-1.8-.2-.7-.7-1.4-.4-2.1,0,0,0,.3,0,.3-.3-1.6,0-3.3,1.2-4.6,0,0,.1,0,.1,0,0,1.6,0,3.3-.2,4.7,0,.5-.1,1.1-.1,1.6,0,1.3,1,2.2,1.2,3.4.1.6.3,1.2.3,1.9h-.1Z" fill="#fff"/><path d="M248,205.8c-.7-1-1.1-2-1.3-3.2,0,0-.9-3.4-.9-3.4h.1c.6.9,1.2,2,1.7,3,.6,1.1,1.1,2.3.5,3.5,0,0-.1,0-.1,0h0Z" fill="#fff"/><path d="M231.4,201.6c-1.9-.6-1.8-3-1.9-4.6,0-.2,0-.5.2-.8h0c.1,1.4,1,2.7,1.5,3.9.1.4.2.9.3,1.4h0Z" fill="#fff"/><path d="M249.5,199.4c-.7-.8-.9-1.7-1-2.7-.2-.9-.4-1.9-.8-2.8h.1c.6.7,1.1,1.6,1.6,2.5.5.9.8,1.9.2,3,0,0-.1,0-.1,0h0Z" fill="#fff"/><path d="M239.1,204.2c-.5-1-.4-1.9-.3-2.9,0-.9,0-1.9,0-2.9h.1c.4.9.7,1.8.8,2.8.3,1,.2,2.1-.6,2.9,0,0-.1,0-.1,0h0Z" fill="#fff"/><path d="M241.6,205c-.8-.5-.9-1.3-.8-2.1,0-.8.1-1.5.3-2.2h.1c.2,1.1.6,2.1.8,3.2,0,.4,0,.7-.3,1.1,0,0-.1,0-.1,0h0Z" fill="#fff"/><path d="M235.2,171.1c-.3,2-1.2,3.6-2.1,5.3-.9,3.1-1,6.3-2.6,9.2,0,0-.1,0-.1,0-.1-1.3,0-2.6.3-3.9.4-1.9,1.5-3.6,2.1-5.4.3-1.9.9-3.9,2.4-5.3,0,0,.1,0,.1,0h0Z" fill="#fff"/><path d="M236.3,170.2c0,2.5-.2,4.8-.6,7.2.2,4,1.4,7.9,1,12,0,0,0,0-.1,0-.7-1.5-1-3.1-1.3-4.7-.4-2.4,0-4.9,0-7.3-.4-2.4-.4-5,.8-7.2,0,0,.1,0,.1,0h0Z" fill="#fff"/><path d="M236.6,170.3c1.1,1.3,1.4,3,1.6,4.6,1.1,2.5,2.7,4.6,3.1,7.5,0,0,0,.1-.1,0-.9-.8-1.5-1.7-2-2.7-.8-1.5-.8-3.2-1.4-4.7-.9-1.4-1.6-2.9-1.4-4.7,0,0,0,0,.1,0h0Z" fill="#fff"/><path d="M236.1,170.5c-.3,1.8-.8,4.3-1.4,6-.5,2-1,4-1.4,6h-.1c.2-3.1.4-6.3,1.2-9.3.4-1,.8-2,1.6-2.8h.1Z" fill="#fff"/><path d="M236.3,171.3c.9,1.1,1,2.5.9,3.8,0,1.3,0,2.6-.3,3.9h-.1c-.2-1.3-.4-2.6-.6-3.9-.3-1.3-.4-2.5-.1-3.9,0,0,.1,0,.1,0h0Z" fill="#fff"/><path d="M240.5,166.5c1.6-1.2,3.6-1.4,5.6-1.4,1.9-.3,3.7-1.1,5.7-1.1,1.3,0,2.6,0,3.9.4,0,0,0,.1,0,.1-3.1,1.1-6.3.6-9.5.9-1.8.6-3.6,1.2-5.6,1.1,0,0,0,0,0-.1h0Z" fill="#fff"/><path d="M239.7,167.4c2.5-.7,4.9,0,7.2.9,2.3.6,4.8.8,7.1,1.7,1.5.6,3,1.3,4.3,2.3,0,0,0,.1,0,.1-4-.6-7.5-2.7-11.4-3.8-2.4-.2-4.7-.4-7.1-1.1,0,0,0-.1,0-.1h0Z" fill="#fff"/><path d="M239.5,167.5c1.7.4,2.9,1.6,3.9,2.9,1.2,1.1,2.8,1.7,3.9,3,.7.8,1.4,1.7,1.8,2.8,0,0,0,.1,0,0-2.6-1.4-3.9-3.6-5.9-5.5-1.5-.8-2.9-1.6-3.7-3.1,0,0,0-.1,0,0h0Z" fill="#fff"/><path d="M240.4,166.9c1.6-.7,3.3-.8,5-.6,1.7,0,3.3,0,5,.2h0c-1.7.4-3.3.6-4.9.7-1.7.3-3.3.4-5-.2,0,0,0-.1,0-.1h0Z" fill="#fff"/><path d="M240.2,167.6c1.5-.1,2.7.5,3.9,1.3,1.1.7,2.3,1.5,3.3,2.4h0c-1.2-.5-2.4-1-3.7-1.6-1.3-.5-2.5-1-3.5-2,0,0,0-.1,0-.1h0Z" fill="#fff"/><path d="M238.9,160.4c-.4-2,.3-3.9,1.1-5.7.6-1.8.6-3.8,1.4-5.6.5-1.2,1.1-2.3,2-3.3,0,0,.1,0,.1,0-.4,3.3-2.2,6-3.2,9-.2,1.9-.4,3.8-1.4,5.6,0,0-.1,0-.1,0h0Z" fill="#fff"/><path d="M239.1,162c.3-2.5,1.8-4.6,3.5-6.3,1.4-1.9,2.5-4.2,4.3-5.9,1.1-1.2,2.4-2.2,3.8-3.1,0,0,.1,0,0,0-2.1,3.5-5.3,6-7.8,9.1-1.1,2.1-2.2,4.2-3.7,6.2,0,0-.1,0-.1,0h0Z" fill="#fff"/><path d="M239,162c.9-1.5,2.4-2.3,4-2.9,1.4-.9,2.5-2.2,4-2.9,1-.5,2-.9,3.2-.9,0,0,0,0,0,.1-2.1,2.1-4.6,2.7-7,4-1.2,1.2-2.4,2.3-4.1,2.6,0,0-.1,0,0,0h0Z" fill="#fff"/><path d="M238.6,161.8c-.1-2.2,1-4.1,2.1-5.9,1.1-1.8,2.3-3.5,3.6-5.1h0c-1.5,2.8-2.8,5.6-4.1,8.3,0,0-1.5,2.7-1.5,2.7h-.1Z" fill="#fff"/><path d="M239.3,161.3c.4-1.4,1.5-2.4,2.7-3.1,1.1-.8,2.3-1.5,3.5-2.2h0c-1,1-2,1.9-2.9,2.9-.9,1-1.8,1.9-3.2,2.5,0,0,0,0,0,0h0Z" fill="#fff"/><path d="M232.6,161.2c-.5-2-.2-3.8,0-5.7-.3-3.2-1.3-6.3-.9-9.5,0,0,0,0,.1,0,.6,1.2.9,2.5,1.1,3.7.3,1.9,0,3.9,0,5.8.4,1.9.5,3.9-.3,5.8,0,0-.1,0-.1,0h0Z" fill="#fff"/><path d="M231.9,162.1c-1.2-2.2-1.9-4.3-2.7-6.6-2-3.5-4.8-6.4-6.3-10.2,0,0,0-.1,0,0,1.3,1,2.3,2.3,3.3,3.6,1.4,2,2.2,4.3,3.3,6.5,1.4,2,2.6,4.2,2.5,6.8,0,0,0,0-.1,0h0Z" fill="#fff"/><path d="M232.2,161.6c-.6-1.7-1.2-4.1-1.5-5.9-.4-2-1-4-1.5-6h.1c1.2,2.8,2.5,5.7,3.2,8.7.1,1,.2,2.1-.2,3.2h-.1Z" fill="#fff"/><path d="M231.5,161.3c-2.3-1.5-3.4-4.1-5.2-6.1,0,0,0,0,0,0,1.1.8,2.1,1.7,3.1,2.7,1.1.9,1.9,2,2.1,3.5,0,0,0,0,0,0h0Z" fill="#fff"/><path d="M239.2,164.7c.7-1.2-.9-1-1-1.4s0-.7-.1-1-.2-.5-1.1-.4-.3.5-.8.4-.8-.3-1.2-.3-.6,0-.7.3c-.2.4-.1.6-.4.5s-.5.3-.8.6c-.3.3-.8.5-.8.9s.4.3-.2.6c-.5.2-.9.2-.7.8.2.6.2.7.6.9s.4.5.9.8c.5.3,0,.8.5,1.1s1.2.5,1.4.1.4,0,.9-.2,1.4.3,1.4,0,.1-.6.5-.8.7,0,1-.3.4-1.1.1-1.3.5-1.2.5-1.2Z" fill="none" stroke="#fff" stroke-miterlimit="10" stroke-width=".6"/><path d="M232.6,165.6c-.6.8.7.8.7,1.1s0,.5,0,.8.1.4.8.4.3-.3.7-.3.6.3.9.3.4,0,.6-.2.1-.4.3-.4.4-.2.6-.4.6-.4.6-.6-.3-.3.2-.4.7-.1.6-.6c-.1-.4-.1-.6-.4-.7s-.3-.4-.7-.6,0-.6-.4-.9c-.3-.2-.9-.4-1-.2s-.3,0-.7.1c-.4,0-1-.3-1.1,0s-.1.4-.4.6-.6,0-.8.2-.3.8-.1,1-.5.9-.5.9Z" fill="none" stroke="#fff" stroke-miterlimit="10" stroke-width=".4"/><path d="M237.2,164.4c.1-.7-.7-.3-.8-.5s0-.4-.3-.5-.2-.2-.6,0,0,.3-.3.4-.4,0-.6,0-.3,0-.3.3,0,.3-.1.3-.2.2-.3.4-.3.4-.2.6.2,0,0,.3-.4.3-.2.5.2.3.5.3.3.2.6.2.2.4.5.5.7,0,.7-.2.2-.1.4-.3.8-.1.7-.3,0-.3,0-.5.4-.1.4-.3,0-.6-.2-.7,0-.7,0-.7Z" fill="none" stroke="#fff" stroke-miterlimit="10" stroke-width=".3"/><path d="M82.9,81.4c-.2.8-.5,1.4-.7,1.8,0,0-.1,0-.2,0-.5,0-1.1,0-1.5.3-.6-.5-1.3-.7-2.1-.6-.3-.3-.5-.6-.8-.9,4.5-22,.8-47.1-18.1-46.3-3.8.2-9.1-7.2-13.6-5.2-9.8,4.3-7.1,14.9-7,22.2.1,15.7,14.9,27,32.9,31.9,1,1,1.4,1.8,1.5,2.5-.5.4-.9,1.1-.9,1.8-.8.5-1.9.7-2.5.7-4.4-1.8-9-5-19.1-7.3-7.1-1.6-13.8-8.7-21.1-8.2-8.4.6-19.9,8.8-18.3,19,.4,2.6,4.3,6,5,8.2,2.4,8.3,3.1,12.9,8.6,15.5,5.6,2.7,12.7,2.2,20.8-1.9,7.2-3.6,15.3-10,24-19.5.9-.3,1.7-.5,2.3-.6.6.6,1.5.9,2.4.7,0,0,0,0,0,0,0,0,0,.2,0,.3.3,1,1.1,1.7,2.1,1.9.2.7.2,1.2.2,1.5-11.9,8.5-42.1,27.4-28.7,44.2,1.7,2.1,1.1,8.6,6.4,11.6,6.9,2.4,11.8-2.7,15.1-2.8,12-.5,17.5-19.2,12.2-52.2.1-.8.3-1.4.6-1.9.1,0,.2-.2.3-.3.7-.7,1.8-.5,2.8-.1,2.2,6.4,5.9,15.7,11.3,22.8,5.5,7.2,15.5,15.4,24.5,12.5,4.1-1.3,5.9-11.9,10.7-18,6.9-6.7,4.6-11.4,1.9-18.2-5.1-12.5-20.7-19-45.2-9-1.2.1-2,0-2.5-.2-.2-.3-.4-.5-.7-.7-.2-.7.5-1.6,1.1-2.3,13-6.5,51.7-7.5,36.6-43.5-2.2-5.1-2,1.5-12.9-18.1-8.9-4.4-24.5,10.4-27.4,58.5Z" fill="none" stroke="#fff" stroke-miterlimit="10" stroke-width="3.9"/><path d="M85.5,97.5c3.2,0,.8-3.1,1.5-3.8s1.4-.7,1.8-1.5c.4-.8.8-1-.5-2.7s-1.3,0-1.8-1.2c-.5-1.1-.3-1.9-.9-2.7-.6-.8-.6-1.2-1.5-1.1s-1.3.5-1.5-.2-1.2-.6-2.1-.8-2-.9-2.8-.5c-.7.4-.2,1.1-1.3.4-1.1-.7-1.6-1.5-2.5-.4-.9,1.1-1.2,1.3-.9,2.3.3,1-.4,1.4-.3,2.8s-1.5,1.2-1.5,2.5c0,1.3.7,3,1.4,2.8.8-.2.7.7,1.5,1.6s1.2,3.1,1.9,2.7,1.3-.5,2.1,0c.9.5.9,1.5,1.8,1.6s2.6-.6,2.7-1.3c0-.7,3-.4,3-.4Z" fill="none" stroke="#fff" stroke-miterlimit="10" stroke-width="1.3"/><path d="M87.4,96.5c2.8,2.1,4.5,4.9,6.2,7.8,1.3,1.8,3.3,2.9,4.9,4.4,2.5,2.2,4.7,4.6,6.6,7.4,0,0,0,.2-.1.2-2.1-.9-3.9-2.3-5.6-3.8-2.6-2.2-4.1-5.3-6.3-7.8-2.6-2.1-5-4.7-5.8-8.1,0,0,0-.2.2-.1h0Z" fill="#fff"/><path d="M88.9,92.1c3.7,1.9,7,4.5,10.2,7,2.3,1.5,5.1,2.1,7.7,3.2,3.9,1.5,7.6,3.2,11.2,5.5,0,0,0,.2,0,.2-4.2-.5-8.2-1.9-11.9-3.9-2.5-1.3-4.7-3.1-7.2-4.4-1.9-.9-4-1.5-5.6-2.9-.5-.4-1.2-.9-1.6-1.3-1.1-.9-2-2-2.8-3.3,0,0,0-.2.1-.1h0Z" fill="#fff"/><path d="M88.4,89.4c3.1-.5,5.6.4,8.3,1.5,1.8.5,3.8,0,5.6.2,2.9,0,5.5.6,8.3,1.6,0,0,.1.2,0,.2-1.9.6-3.8.7-5.7.6-2.9-.1-5.5-1.5-8.3-2-2.9,0-5.7-.2-8.2-2,0,0,0-.2,0-.2h0Z" fill="#fff"/><path d="M88.2,94l4.5,2.8c1.5.9,2.8,2.1,4.2,3.2,2.9,2.1,5.8,4.1,8.7,6.1,0,0,0,.2,0,.2-4.8-2.3-9.8-4.7-14.1-7.9-1.4-1.2-2.7-2.6-3.4-4.3,0,0,.2-.1.2-.1h0Z" fill="#fff"/><path d="M86.3,95.1c2.8,1.2,4.8,3.1,6.7,5.4,0,0,3,3.1,3,3.1,1,1.1,2,2.1,2.9,3.2v.2c-2.2-1.4-5-3.7-7-5.2-2.4-1.7-4.5-3.6-5.8-6.4,0,0,.1-.1.1-.1h0Z" fill="#fff"/><path d="M86.8,98.3c2.2,2.2,3.5,4.7,5,7.3,1.5,2.5,3.2,5,5.1,7.2,0,0-.1.2-.1.2-2.4-1.8-4.5-4.1-6.4-6.4-2-2.3-3.6-5-3.8-8.2,0,0,.2,0,.2,0h0Z" fill="#fff"/><path d="M90.1,91.4c2.5-.1,4.6.6,6.8,1.6,2.2.8,4.4,1.6,6.6,2.3,0,0,0,.2,0,.2-2.3-.1-4.7-.4-7-.9-2.4-.3-4.7-1.1-6.4-3,0,0,0-.2,0-.2h0Z" fill="#fff"/><path d="M88.9,88.7c2-1.5,4.4-1.7,6.7-1.4,2.3,0,4.5.3,6.8.7,0,0,0,.2,0,.2l-3.4.4-3.3.4c-1.1.1-2.2.5-3.3.4-1.1,0-2.2-.1-3.4-.5,0,0,0-.2,0-.2h0Z" fill="#fff"/><path d="M135.4,104.2c-1.7-.8-3-1.8-4.3-3-.6-.7-1-1.5-1.7-2-1.3-1.2-3.1-1.6-4.6-2.5-2.4-1.1-4.3-2.6-6.6-4.1,0,0,0-.2,0-.2,1-.2,1.9,0,2.8.2,1.8.4,3.4,1.3,4.8,2.5,1.5,1,2.5,2.6,4,3.6,1.6.9,3.3,1.6,4.3,3.1.6.7,1.1,1.5,1.4,2.4h-.2Z" fill="#fff"/><path d="M127.4,123.5c-2,.6-3.9.5-5.7-.3-1.2-.4-2.2-1.4-3.5-1.6-1.3-.1-2.6,0-3.7-.8-.6-.4-1.2-.8-1.4-1.6,0,0,0,0,0,0,1.2,0,2.6.1,3.7.7.5.3,1,.8,1.6,1.1,1.7.6,3.8,0,5.6.7,1.2.4,2.3.8,3.4,1.7,0,0,0,.2,0,.2h0Z" fill="#fff"/><path d="M135.9,110.7c-3-1.3-5.4-2.8-8.1-4.5-2.6-1.7-5.7-2.9-8.3-4.5,3,.5,6.1,1.8,9.1,3,3,1.1,5.9,2.9,7.5,5.9,0,0,0,.2-.1.1h0Z" fill="#fff"/><path d="M129.1,121.3c-3.3,0-6.1-1.1-9-2.4-1.5-.6-5.1-2-6.5-2.8-.7-.4-1.6-.6-2-1.4,0-.2.1-.1.2,0,1.2.8,2.9,1,4.3,1.5,0,0,4.5,1.2,4.5,1.2,3.1.7,6.1,1.6,8.6,3.8,0,0,0,.2,0,.2h0Z" fill="#fff"/><path d="M134,111.7c-1.2.2-2.2,0-3.2-.6-.4-.3-.8-.8-1.3-1.1-1.3-.6-3.1-.2-4.7-.9-1-.4-1.9-.9-2.7-1.8,0,0,0-.1,0-.2,1.7-.6,3.4-.3,4.9.5,1,.4,1.7,1.5,2.8,1.7.5.1,1.1,0,1.7.1.5,0,1,.4,1.4.7.4.3.8.7,1.2,1.3,0,0,0,.2,0,.2h0Z" fill="#fff"/><path d="M129.2,117.7c-1.1.3-2.2.3-3.2-.3-.5-.3-.9-.8-1.3-1-1-.5-2.2-.1-3.2-.4-1.1-.2-2.1-.6-3-1.3-.4-.4-.9-.7-1.2-1.4,0,0,0,0,0,0,0,0,0,0,0,0h.1c1.6,0,3.2.1,4.6,1,1,.4,1.7,1.4,2.8,1.6,1.2,0,2.1-.2,3.2.5.5.3.9.6,1.3,1.2,0,0,0,.2,0,.2h0Z" fill="#fff"/><path d="M124.6,128.6c-1.6.5-3.3.6-4.9.2-1.5-.5-3-1.5-4.6-1.6-1.2-.2-2.6,0-3.6-1,0,0,.4.3.4.3-2.6-.9-5-2.8-6-5.5,0,0,.2-.1.2-.1,1.2.6,2.4,1.3,3.5,1.9,1.2.7,2.8,1.6,3.6,2.3,1.6,1.1,3.3,2.2,5.4,2,2.2-.2,4.2.4,6.2,1.4,0,0,0,.2,0,.2h0Z" fill="#fff"/><path d="M135.6,107.2c-2.1-.6-3.7-1.4-5.3-2.8,0,0-5-3.4-5-3.4v-.2c2,.6,3.9,1.3,5.8,2.2,2,.7,3.9,1.9,4.6,4.1,0,0-.2.1-.2.1h0Z" fill="#fff"/><path d="M123.9,130.2c-1.9,1.3-4.1.9-6.1.2-2-.5-3.9-1.2-5.8-2,0,0,0-.2,0-.2l6,.5c2.1,0,3.9.3,5.8,1.2,0,0,0,.2,0,.2h0Z" fill="#fff"/><path d="M126.2,125.2c-2.2,2.2-5.1.6-7.5-.2-.7-.4-1.8-.7-2.2-1.5,0,0,.2,0,.2,0,1.4.6,3.1.6,4.7.7.8,0,1.6-.1,2.4,0,.8.2,1.5.4,2.4.7,0,0,0,.2,0,.2h0Z" fill="#fff"/><path d="M134.7,100.7c-1.8-.8-2.7-1.9-3.6-3.5-1-1.3-2-2.6-3.2-3.8,0,0,.1-.2.1-.2,1.6.7,3,1.7,4.3,2.9,1.5,1.1,2.6,2.5,2.5,4.5,0,0-.2.1-.2.1h0Z" fill="#fff"/><path d="M131.2,115.7c-1.9,0-3.2-.8-4.6-1.9-1.4-.9-2.9-1.7-4.4-2.3,0,0,0-.2,0-.2,1.7,0,3.4.5,5.1,1.1,1.8.4,3.3,1.4,4,3.2,0,0-.1.2-.1.2h0Z" fill="#fff"/><path d="M133.2,113.4c-1.4.8-2.7.3-3.9-.6-1.1-.7-2.2-1.4-3.2-2.2,0,0,0-.2,0-.2l1.9.4,1.8.5c.6.2,1.3.1,1.8.5.5.3,1,.7,1.5,1.4,0,0,0,.2,0,.2h0Z" fill="#fff"/><path d="M13,87.2c.9-1.6,2.2-2.9,3.8-3.7.8-.4,1.7-.5,2.5-.9,1.6-.7,2.8-2.2,4.4-3,1.5-1,3.3-1.6,5.1-1.8.9,0,1.9-.1,2.8.2v.2c-2.4,1.2-4.6,2.3-7.1,3.2-1.6.7-3.5.8-4.9,1.9-1.3,1.1-2.5,2.5-4.1,3.2-.8.4-1.6.8-2.5,1v-.2h-.1Z" fill="#fff"/><path d="M18.6,107.2c1.8-1,3.5-1.4,5.5-1.3,1.2,0,2.6.5,3.8.1.6-.2,1.2-.6,1.7-.8,1.2-.4,2.5-.4,3.8-.3,0,0,0,0,0,0-.2.5-.5.7-.8.9-.8.6-1.8,1-2.7,1-.6,0-1.3-.2-2-.2-1.9.2-3.5,1.5-5.5,1.5-1.3,0-2.6-.1-3.8-.8,0,0,0-.2,0-.2h0Z" fill="#fff"/><path d="M11.7,93.5c1.9-2.8,5-4.1,8.2-4.8,3-.8,6.3-1.7,9.4-1.8-2.8,1.2-6,2-8.8,3.3-2.8,1.4-5.5,2.6-8.6,3.4,0,0-.2,0-.1-.2h0Z" fill="#fff"/><path d="M17.1,104.9c3.9-2.7,9.1-2.5,13.7-3.2,1.4-.2,3.1-.3,4.4-.9,0,0,.1-.1.2,0,0,.3-.4.5-.5.6-2.2,1.1-6,1.9-8.4,2.6-3,.9-6,1.5-9.3,1.2,0,0-.1-.1,0-.2h0Z" fill="#fff"/><path d="M13.5,94.7c.7-.9,1.7-1.5,2.8-1.6,1.1.1,2.2.3,3.2-.5,1.9-1.2,4.2-1.7,6.4-.6,0,0,0,.2,0,.2-1,.7-2,1.1-3,1.4-1.6.5-3.4-.2-4.8.3-.5.2-.9.6-1.4.9-.5.3-1,.3-1.5.4-.5,0-1.1,0-1.7-.2,0,0-.1-.1,0-.2h0Z" fill="#fff"/><path d="M17.5,101.3c.8-.8,1.8-1.3,3-1.3.5,0,1.1.3,1.7.2.5,0,1-.2,1.5-.5.9-.6,1.9-.9,3-1.2,1.1-.2,2.2,0,3.3.1,0,0,0,0,0,.1-1,1.5-2.7,2.1-4.5,2.1-1,.2-2.2-.4-3.2,0-1.1.5-1.7,1.2-3,1.1-.5,0-1.1-.1-1.7-.4,0,0,0-.1,0-.2h0Z" fill="#fff"/><path d="M20.7,112.6c1.6-.6,3.1-.8,4.7-.8,1.6.2,3.2.7,4.7,0,.7-.2,2.1-.9,2.4-1.1,2.5-1.3,4.9-2.2,7.5-3.2,0,0,.1.2.1.2-1.4,2.5-4,4.1-6.7,4.6,0,0,.4-.2.4-.2-1,.8-2.5.5-3.7.5-2.2-.2-4.2,1.3-6.4.9-1.1,0-2.2-.3-3.2-.9v-.2h0Z" fill="#fff"/><path d="M12.5,90.1c.9-2.1,3-3,5.1-3.5,2-.6,3.9-1.1,6-1.4,0,0,0,.2,0,.2l-5.4,2.7c-1.8,1.1-3.4,1.8-5.6,2.1,0,0-.1-.2-.1-.2h0Z" fill="#fff"/><path d="M21.2,114.3c2.1-.6,3.9-.7,5.9-.4,0,0,6,.3,6,.3,0,0,0,.2,0,.2-2,.5-4,.9-6,1.2-2.1.4-4.3.5-6-1,0,0,0-.2,0-.2h0Z" fill="#fff"/><path d="M19.6,109.2c1.8-.5,3.1-.5,4.8-.2,1.5,0,3.2.3,4.7,0,0,0,.2,0,.2,0-.1.3-.4.4-.5.5-1.4.6-2.8,1-4.3,1.2-1.7.4-3.7.4-5-1.3,0,0,0-.2,0-.2h0Z" fill="#fff"/><path d="M15.8,99c1.4-2.6,4.4-2.7,7-3,.9,0,1.7,0,2.6,0v.2c-1.6.5-3.1,1.1-4.6,1.8-1.5.9-2.9,1.5-4.8,1.3,0,0,0-.2,0-.2h0Z" fill="#fff"/><path d="M14.1,96.5c1-1.2,2.1-1.5,3.5-1.4,0,0,1.9-.2,1.9-.2l1.9-.2v.2c-.5.4-1.1.7-1.6,1-1.9.8-3.7,2.3-5.7.9,0,0,0-.2,0-.2h0Z" fill="#fff"/><path d="M38.3,46.9c1.2,1.3,2.2,2.8,2.8,4.4.3.8.4,1.7.8,2.5.7,1.6,2.3,2.7,3.3,4,1.8,1.9,3.1,4,4.6,6.2,0,0,0,.2,0,.2-1-.2-1.8-.7-2.5-1.2-1.5-1.1-2.7-2.5-3.5-4.1-1-1.5-1.3-3.4-2.3-4.8-1.1-1.4-2.5-2.7-2.9-4.5-.2-.9-.4-1.8-.4-2.7h.2Z" fill="#fff"/><path d="M49.8,31.3c1.9.8,3.3,2.1,4.2,3.9.7,1,.8,2.5,1.7,3.5,1,.9,2,1.6,2.4,3,.2.7.4,1.4,0,2.1,0,0,0,0,0,0-.9-.8-1.9-1.7-2.4-2.9-.2-.6-.3-1.3-.6-1.8-1-1.6-2.9-2.4-3.9-4.1-.7-1-1.3-2.1-1.6-3.5,0,0,0-.2.2-.1h0Z" fill="#fff"/><path d="M39.7,40.4c1.5,2.9,2.4,5.6,3.4,8.6,1,3,2.6,5.9,3.6,8.7-2-2.3-3.6-5.3-5.1-8.1-1.6-2.8-2.8-6-2.1-9.3,0,0,.2-.1.2,0h0Z" fill="#fff"/><path d="M46.6,30.4c2.5,2.1,4.1,4.7,5.5,7.6.8,1.5,2.6,4.8,3.2,6.3.3.8.8,1.5.6,2.4,0,.1-.2,0-.2-.1-.4-1.4-1.6-2.6-2.4-3.8,0,0-2.7-3.8-2.7-3.8-2-2.5-3.7-5.1-4.2-8.4,0,0,.1-.2.2,0h0Z" fill="#fff"/><path d="M39,36.6c1,.6,1.7,1.4,2.1,2.5.1.5,0,1.1.3,1.6.6,1.3,2.3,2.1,3.1,3.6.5.9.9,1.9,1,3.1,0,0,0,.1-.1.1-1.7-.6-2.8-1.9-3.5-3.5-.5-.9-.4-2.2-1-3.1-.3-.4-.8-.7-1.2-1.2-.4-.4-.5-.9-.7-1.5-.1-.5-.2-1.1,0-1.7,0,0,.1-.1.2,0h0Z" fill="#fff"/><path d="M44.3,31.4c1.1.5,1.9,1.2,2.3,2.3.2.5.2,1.1.4,1.6.4,1,1.6,1.5,2.2,2.4.7.8,1.3,1.8,1.5,2.9.1.6.2,1.1,0,1.9,0,0,0,0,0,0,0,0,0,0,0,0,0,0,0,0,0,0-1.3-1-2.4-2.1-2.9-3.7-.5-.9-.4-2.2-1.1-3-.8-.8-1.7-1.2-2.1-2.4-.2-.5-.3-1.1-.3-1.7,0,0,0-.1.2-.1h0Z" fill="#fff"/><path d="M60.5,35.7c1.6.6,2.9,1.6,3.9,2.9.9,1.4,1.4,3,2.6,4.1.8.9,2,1.8,2.1,3.1,0,0,0-.5,0-.5,1.5,2.4,2.1,5.4,1.2,8,0,0-.2,0-.2,0-.6-1.3-1-2.5-1.5-3.7-.5-1.3-1.1-3-1.3-4-.5-1.8-1.2-3.8-2.9-4.9-1.8-1.3-3-3-3.9-5,0,0,.1-.1.1-.1h0Z" fill="#fff"/><path d="M62,34.8c2.3.2,3.8,1.9,4.9,3.7,1.2,1.7,2.3,3.4,3.2,5.2,0,0-.2.1-.2.1l-4.3-4.2c-1.6-1.3-2.8-2.7-3.7-4.6,0,0,.1-.2.1-.2h0Z" fill="#fff"/><path d="M56.4,35.7c3-.3,4.4,2.8,5.6,4.9.3.7,1,1.7.7,2.5,0,0-.2-.1-.2-.1-.7-1.4-2.1-2.4-3.1-3.5-.6-.5-1.3-.9-1.8-1.6-.5-.6-.9-1.2-1.4-2.1v-.2h0Z" fill="#fff"/><path d="M42.4,32.3c2.1,1.9,3.2,4.2,4.3,6.7,1.2,2.4,2.4,4.7,3.8,7,0,0-.2.1-.2.1-1.9-1.9-3.5-4.1-5.1-6.3-1.7-2.2-3-4.6-3-7.5,0,0,.2,0,.2,0h0Z" fill="#fff"/><path d="M40.7,35.4c1.6.3,2.3,1.5,2.6,2.9.5,1.2.8,2.5,1,3.8,0,0-.2,0-.2,0l-1.2-1.5-1.1-1.5c-.4-.5-.9-.9-1.1-1.5-.2-.6-.3-1.2-.3-2h.2Z" fill="#fff"/><path d="M70.9,150.7c.5-1.8,1.2-3.3,2.3-4.7.6-.7,1.3-1.3,1.7-2,1-1.5,1.1-3.4,1.7-5,.7-2.5,1.9-4.7,2.9-7.1,0,0,.2,0,.2,0,.4.9.3,1.9.3,2.8-.1,1.8-.7,3.6-1.6,5.1-.8,1.6-2.2,2.8-2.9,4.5-.6,1.7-1,3.5-2.4,4.8-.6.7-1.3,1.3-2.1,1.7h-.2Z" fill="#fff"/><path d="M51.6,149c-.4-2.1,0-3.9,1.1-5.6.5-1.1,1.7-2,2.1-3.2.3-1.3.3-2.6,1.3-3.6.5-.5.9-1.1,1.8-1.2,0,0,0,0,0,0-.2,1.2-.5,2.5-1.3,3.6-.4.5-1,.9-1.3,1.4-.8,1.6-.6,3.7-1.4,5.4-.5,1.1-1.2,2.2-2.1,3.2,0,0-.2,0-.2,0h0Z" fill="#fff"/><path d="M64.6,152.9c1.7-2.8,3.5-5,5.6-7.4,2-2.4,3.7-5.3,5.6-7.6-.9,2.9-2.6,5.8-4.2,8.6-1.6,2.8-3.7,5.5-6.8,6.6,0,0-.2,0-.1-.2h0Z" fill="#fff"/><path d="M52.5,152.2c.5-3.2,1.9-5.9,3.6-8.6.8-1.4,2.7-4.7,3.7-6,.5-.6.9-1.5,1.7-1.8.2,0,.1.2,0,.2-1,1.1-1.4,2.7-2,4,0,0-1.8,4.3-1.8,4.3-1.1,3-2.4,5.9-4.9,8,0,0-.2,0-.2-.1h0Z" fill="#fff"/><path d="M61.6,155.5c0-1.2.3-2.2,1-3.1.4-.4.9-.7,1.2-1.1.8-1.2.6-3.1,1.5-4.5.5-.9,1.2-1.7,2.2-2.5,0,0,.1,0,.2,0,.4,1.8-.1,3.4-1.2,4.8-.5.9-1.7,1.5-2.1,2.5-.2.5-.2,1.1-.4,1.6-.2.5-.5.9-.9,1.3-.4.4-.8.7-1.4,1,0,0-.2,0-.2-.1h0Z" fill="#fff"/><path d="M54.4,153.7c-.2-1.2,0-2.3.7-3.2.4-.4.9-.7,1.2-1.2.6-.9.4-2.2.9-3.1.3-1.1.8-2,1.7-2.8.4-.4.8-.8,1.6-1,0,0,0,0,0,0,0,0,0,0,0,0,0,0,0,.1,0,.1-.2,1.6-.6,3.2-1.6,4.4-.5.9-1.7,1.5-2,2.5-.3,1.1,0,2.1-1,3-.4.4-.7.8-1.3,1.1,0,0-.2,0-.2,0h0Z" fill="#fff"/><path d="M47.6,141.7c-.3-1.7,0-3.3.5-4.9.7-1.5,1.9-2.7,2.2-4.4.3-1.2.5-2.6,1.5-3.4,0,0-.3.3-.3.3,1.2-2.5,3.5-4.6,6.2-5.2,0,0,.1.2.1.2-.8,1.1-1.6,2.2-2.4,3.2-.8,1.1-2,2.5-2.7,3.2-1.3,1.4-2.6,3-2.7,5-.1,2.2-1,4.1-2.2,5.9,0,0-.2,0-.2,0h0Z" fill="#fff"/><path d="M46.2,137.4c-1-2.1-.3-4.2.6-6.1.8-1.9,1.7-3.7,2.7-5.4,0,0,.2,0,.2,0l-1.4,5.9c-.3,2.1-.8,3.8-2,5.6,0,0-.2,0-.2,0h0Z" fill="#fff"/><path d="M50.2,145.3c-1.8-2.4.1-5.2,1.3-7.4.5-.6.9-1.7,1.8-2,0,0,0,.2,0,.2-.8,1.3-1,3-1.4,4.5-.2.8,0,1.6-.4,2.3-.3.7-.6,1.4-1.1,2.3h-.2Z" fill="#fff"/><path d="M56.2,154.9c.6-2.8,1.9-4.9,3.5-7.2,1.4-2.2,2.7-4.5,4-6.9,0,0,.2,0,.2,0-.6,2.6-1.6,5.1-2.7,7.6-1,2.6-2.4,5-4.8,6.5,0,0-.2-.1-.2-.1h0Z" fill="#fff"/><path d="M59.8,154.7c-.5-1.5,0-2.8,1.1-3.8.8-1,1.7-2,2.7-2.8,0,0,.2.1.2.1l-.7,1.8-.7,1.8c-.2.6-.3,1.2-.7,1.7-.4.5-.9.9-1.6,1.3h-.2Z" fill="#fff"/><path d="M103.2,24.4c-.3,1.8-.8,3.4-1.7,5-.5.7-1.1,1.4-1.5,2.2-.8,1.6-.7,3.5-1.1,5.1-.4,2.6-1.3,4.9-2.1,7.4,0,0-.2,0-.2,0-.5-.9-.6-1.8-.6-2.7,0-1.8.3-3.6,1-5.3.6-1.7,1.9-3.1,2.4-4.8.4-1.7.6-3.6,1.8-5,.5-.7,1.1-1.4,1.9-2,0,0,.2.1.2.1h0Z" fill="#fff"/><path d="M123.1,42.8c.2,2.1-.3,3.9-1.4,5.5-.6,1.1-1.8,1.9-2.3,3.1-.4,1.3-.4,2.5-1.5,3.5-.5.5-1,1-1.8,1.1,0,0,0,0,0,0,.3-1.2.7-2.5,1.5-3.5.4-.5,1-.8,1.4-1.4.9-1.6.8-3.7,1.8-5.3.6-1.1,1.3-2.1,2.3-3,0,0,.2,0,.2,0h0Z" fill="#fff"/><path d="M110.6,24.2c-.9,3.1-2.2,5.7-3.6,8.5-1.4,2.8-2.3,6-3.6,8.7.2-3.1,1.2-6.3,2-9.3.8-3.1,2.2-6.2,5-8,0,0,.2,0,.2.1h0Z" fill="#fff"/><path d="M121.6,39.2c-.7,3.2-2.3,5.8-4.2,8.4-.9,1.4-3,4.5-4,5.8-.6.6-.9,1.4-1.8,1.7-.2,0-.1-.2,0-.2,1-1,1.6-2.6,2.3-3.9,0,0,2.1-4.2,2.1-4.2,1.3-2.9,2.8-5.7,5.4-7.7,0,0,.2,0,.2.1h0Z" fill="#fff"/><path d="M112.8,26.7c.1,1.2-.1,2.2-.8,3.1-.3.4-.9.7-1.2,1.2-.7,1.2-.4,3.1-1.1,4.6-.5.9-1,1.8-1.9,2.6,0,0-.1,0-.2,0-.5-1.8-.1-3.4.8-4.9.5-1,1.6-1.6,1.9-2.7.2-.5.1-1.1.2-1.7.1-.5.4-1,.8-1.4.4-.4.8-.8,1.4-1.1,0,0,.2,0,.2,0h0Z" fill="#fff"/><path d="M118.3,36.9c0,1.2-.2,2.3-.9,3.1-.4.4-.9.7-1.2,1.1-.7.8-.6,2.1-1,3.1-.4,1-1,1.9-1.8,2.6-.4.4-.9.7-1.6.9,0,0,0,0,0,0,0,0,0,0,0,0h0c.3-1.7.8-3.2,1.9-4.4.6-.9,1.8-1.4,2.1-2.4.3-1.1.2-2.1,1.2-3,.4-.4.8-.8,1.4-1,0,0,.2,0,.2.1h0Z" fill="#fff"/><path d="M126.6,50.4c.2,1.7-.1,3.3-.8,4.8-.8,1.4-2,2.6-2.4,4.2-.4,1.1-.6,2.6-1.7,3.3,0,0,.4-.3.4-.3-1.4,2.4-3.8,4.3-6.6,4.8,0,0,0-.2,0-.2.9-1.1,1.7-2.1,2.5-3,.9-1,2.2-2.4,2.9-3.1,1.4-1.3,2.8-2.8,3-4.9.3-2.2,1.2-4,2.6-5.8,0,0,.2,0,.2,0h0Z" fill="#fff"/><path d="M107,22.7c-.2,2.2-.7,3.9-1.8,5.7,0,0-2.4,5.5-2.4,5.5h-.2c.2-2.1.6-4.1,1.1-6.1.4-2.1,1.1-4.2,3.2-5.3,0,0,.2.1.2.1h0Z" fill="#fff"/><path d="M124.6,46.3c1.7,2.5-.4,5.1-1.7,7.3-.5.6-1,1.7-1.9,1.8,0,0,0-.2,0-.2.9-1.3,1.2-3,1.6-4.4.2-.8.2-1.6.5-2.3.3-.7.7-1.4,1.2-2.2h.2Z" fill="#fff"/><path d="M98,29.5c.2,2.8-1.7,4.5-2.6,7-.4.8-.7,1.5-.9,2.3h-.2c0-1.8.2-3.5.7-5.1.3-1.8,1.1-3.4,2.9-4.3,0,0,.2.1.2.1h0Z" fill="#fff"/><path d="M117.1,34.5c-.4,1.9-1.4,3-2.8,4.1-1.1,1.2-2.2,2.5-3.2,3.8,0,0-.2,0-.2,0,.4-1.7,1.2-3.3,2-4.7.8-1.7,2-3,4-3.3,0,0,.1.2.1.2h0Z" fill="#fff"/><path d="M114.8,30.7c.5,1.6-.2,2.7-1.3,3.7-.9,1-1.8,1.9-2.8,2.7,0,0-.2-.1-.2-.1l.8-1.8.8-1.7c.3-.6.4-1.2.8-1.7.4-.5.9-.9,1.7-1.2,0,0,.2,0,.2,0h0Z" fill="#fff"/><path d="M86.2,83c2.5-2.4,5.5-3.6,8.7-4.8,2-1,3.4-2.8,5.2-4.1,2.6-2.1,5.3-3.9,8.4-5.3,0,0,.2,0,.1.2-1.3,1.9-2.9,3.5-4.6,4.9-2.6,2.2-5.9,3.2-8.7,4.9-2.5,2.2-5.4,4.2-8.9,4.4,0,0-.2-.1,0-.2h0Z" fill="#fff"/><path d="M83.7,83.2c2.5-3.4,5.5-6.1,8.6-9,1.9-2.1,2.9-4.7,4.4-7,2.1-3.6,4.4-7,7.3-10.1,0,0,.2,0,.2,0-1.2,4.1-3.2,7.8-5.8,11.1-1.6,2.3-3.9,4.1-5.5,6.4-1.2,1.7-2.1,3.7-3.7,5.1-.4.4-1.1,1-1.6,1.4-1.1.9-2.3,1.6-3.7,2.2,0,0-.2,0-.1-.2h0Z" fill="#fff"/><path d="M83.5,82.7c0-3.1,1.3-5.4,2.9-7.9.8-1.7.7-3.7,1.2-5.5.5-2.8,1.5-5.4,2.9-7.9,0,0,.2,0,.2,0,.3,2,0,3.9-.3,5.8-.6,2.8-2.4,5.2-3.3,7.9-.4,2.9-1.1,5.6-3.3,7.8,0,0-.2,0-.2,0h0Z" fill="#fff"/><path d="M84.3,82.9l4-3.4c1.3-1.1,2.9-2,4.3-3,2.9-2.1,5.7-4.3,8.5-6.5,0,0,.1.1.1.1-3.7,3.9-7.4,7.9-11.8,11-1.6.9-3.3,1.8-5.2,1.9,0,0,0-.2,0-.2h0Z" fill="#fff"/><path d="M85,81.7c0-2.5,1.3-4.5,2.9-6.2,1.4-1.8,3-3.4,4.7-5,0,0,.2.1.2.1l-1.8,2.9-1.7,2.9c-.6,1-1,2-1.7,2.9-.7.9-1.4,1.7-2.4,2.4h-.2Z" fill="#fff"/><path d="M74.1,83.5c-3.5-.2-6.4-2.1-9-4.3-2.9-1.7-6.2-2.7-8.8-4.8-1.8-1.4-3.4-2.9-4.7-4.8,0,0,0-.2.1-.2,3.2,1.3,5.9,3.1,8.5,5.2,1.8,1.3,3.3,3.1,5.3,4,3.2,1.1,6.2,2.3,8.8,4.7,0,0,0,.2,0,.2h0Z" fill="#fff"/><path d="M76.1,83.2c-2-.9-3.7-2.2-5.1-3.8-1.6-1.5-2.4-3.5-3.6-5.2-1.6-2.3-3.7-4.2-5.3-6.5-2.5-3.4-4.4-7.2-5.4-11.3,0-.1.1-.2.2,0,2.7,3.3,4.9,6.7,6.9,10.4,1.4,2.4,2.4,5.1,4.2,7.2,3,2.9,5.9,5.8,8.3,9.2,0,0,0,.2-.1.2h0Z" fill="#fff"/><path d="M76.5,83.2c-1.8-2.5-2.1-5.3-2-8.2-.5-2.8-1.9-5.4-2.1-8.3-.1-1.9,0-3.8.6-5.7,0,0,.2,0,.2,0,1,2.8,1.5,5.4,1.6,8.3.2,1.8-.2,3.8.3,5.6,1.1,2.7,2.1,5.2,1.6,8.3,0,0-.1.1-.2,0h0Z" fill="#fff"/><path d="M74.6,83.1c-3-.7-5.2-2.5-7.4-4.5-1.9-1.7-4.6-4-6.4-5.8,0,0,.1-.2.1-.2,2.1,1.3,5.1,3.3,7.3,4.7,2.5,1.5,4.8,3.1,6.5,5.7,0,0-.1.2-.1.2h0Z" fill="#fff"/><path d="M75.7,82.3c-2.1-1.4-3.1-3.6-3.7-6-.7-2.2-1.3-4.5-1.8-6.8,0,0,.2,0,.2,0,1,2.1,2.1,4.2,3.1,6.2,1.3,2,2.2,4,2.4,6.5,0,0-.2.1-.2.1h0Z" fill="#fff"/><path d="M69.5,93.4c-1.7,3.1-4.6,5-7.7,6.4-2.8,1.9-5,4.5-8.1,6-2,1-4.1,1.9-6.4,2.2-.1,0-.2-.1,0-.2,2.5-2.3,5.3-4,8.3-5.5,1.9-1.1,4.2-1.7,5.9-3,2.4-2.4,4.8-4.7,7.9-6,0,0,.2,0,.1.2h0Z" fill="#fff"/><path d="M71.1,91.1c-1.6,1.5-3.4,2.6-5.4,3.3-1.9.9-4.1.9-6.2,1.3-2.7.6-5.3,1.9-8,2.4-4.1,1-8.3,1.4-12.5.8-.1,0-.1-.2,0-.2,4-1.3,8-2,12.2-2.5,2.7-.4,5.6-.3,8.2-1.2,3.8-1.6,7.6-3.3,11.7-4.2,0,0,.2.1.1.2h0Z" fill="#fff"/><path d="M71.2,91.2c-2.9,1-5.7.4-8.4-.5-2.8-.4-5.7.2-8.5-.5-1.8-.5-3.7-1.1-5.3-2.2,0,0,0-.2,0-.2,2.9-.2,5.6.1,8.4.9,1.8.4,3.6,1.3,5.5,1.4,2.9-.3,5.6-.4,8.4.9,0,0,0,.2,0,.2h0Z" fill="#fff"/><path d="M71.4,91.8c-2.2,3.1-5.8,4.5-9.2,5.5-3.4,1.1-6.8,2.1-10.3,2.9,0,0,0-.2,0-.2,1.6-.7,3.3-1.4,4.9-2.1,3.3-1.3,6.4-3.1,9.6-4.5,0,0,5-1.9,5-1.9v.2h.1Z" fill="#fff"/><path d="M69.9,91.8c-2.1,1.4-4.5,1.6-6.9,1.3-2.3-.1-4.7-.4-7-.9,0,0,0-.2,0-.2,2.3-.1,4.6-.4,6.9-.6,2.4-.4,4.6-.6,6.9.2,0,0,0,.2,0,.2h0Z" fill="#fff"/><path d="M78.9,99.2c-1.5,3.1-3.9,5.4-6.4,7.6-1.5,1.7-2.2,3.9-3.3,5.7-1.6,2.9-3.5,5.6-5.9,8,0,0-.2,0-.2,0,.5-2.3,1.4-4.3,2.6-6.2,1.7-3,4.4-5.1,6.4-7.8,1.6-3,3.6-5.8,6.7-7.4,0,0,.2,0,.1.1h0Z" fill="#fff"/><path d="M80.8,98.8c-.7,4.1-2.2,8-3.6,11.9-.7,2.7-.5,5.5-.7,8.3-.2,4.2-.8,8.2-1.9,12.3,0,.1-.2.1-.2,0-.8-4.2-.7-8.4.2-12.6.4-2.8,1.6-5.4,2-8.2.3-2.1.2-4.3,1-6.2.2-.6.5-1.4.8-2,.6-1.3,1.3-2.5,2.3-3.6,0,0,.2,0,.2,0h0Z" fill="#fff"/><path d="M79.7,99.1l-2,4.9c-.7,1.6-1.6,3.1-2.4,4.7-1.6,3.2-3.1,6.4-4.6,9.6,0,0-.2,0-.2,0,1.5-5.2,2.9-10.4,5.4-15.2,1-1.5,2.1-3.1,3.7-4.1,0,0,.2.1.2.1h0Z" fill="#fff"/><path d="M80.4,100.3c.9,2.3.8,4.5.5,6.9,0,2.3-.2,4.6-.2,7h-.2c-.6-2.3-1-4.6-1.2-6.9-.4-2.4-.4-4.8.9-7,0,0,.2,0,.2,0h0Z" fill="#fff"/><path d="M73.8,87.3c-2.3.7.2,2.4-.2,3s-.8.8-.9,1.5c0,.6-.3.9,1,1.8s.9-.3,1.6.4c.6.7.7,1.3,1.3,1.7.6.4.7.7,1.3.4s.8-.6,1.1-.2,1,.2,1.7,0c.7,0,1.7.2,2.1-.3s-.1-.8.9-.6,1.5.7,1.8-.3.6-1.2.1-1.8,0-1.1-.4-2c-.4-.9.8-1.2.5-2.1-.3-.9-1.2-2-1.7-1.7s-.7-.3-1.5-.8c-.8-.5-1.5-1.9-2-1.5s-.8.6-1.5.5c-.7-.1-1-.8-1.7-.7s-1.7,1-1.6,1.6c.1.5-2,1-2,1Z" fill="none" stroke="#fff" stroke-miterlimit="10" stroke-width="1"/><path d="M83.6,93.3c1.7-.5,0-1.8.2-2.3s.7-.6.7-1.1.3-.7-.7-1.4c-.9-.7-.7.2-1.2-.4-.4-.5-.5-1-.9-1.3s-.5-.6-1-.4-.6.4-.9.1c-.2-.3-.8-.2-1.3-.1s-1.2-.2-1.6.1,0,.6-.7.4-1.1-.6-1.4.2c-.3.7-.5.9-.2,1.4s0,.8.2,1.5c.3.7-.7.9-.4,1.6s.8,1.5,1.2,1.3.5.3,1.1.7,1.1,1.5,1.4,1.2c.3-.3.6-.4,1.2-.3s.7.7,1.2.6,1.3-.7,1.2-1.1,1.6-.7,1.6-.7Z" fill="none" stroke="#fff" stroke-miterlimit="10" stroke-width=".7"/><path d="M76.1,89.9c-1,.8.5,1.1.5,1.5s-.3.6-.2.9,0,.5.8.7.4-.3.9,0,.6.5,1,.6.5.2.7,0,.3-.5.5-.3.5-.1.9-.3c.3-.2.9-.2,1-.5s-.2-.4.3-.4.9,0,.9-.5c0-.6,0-.7-.3-.9s-.2-.5-.6-.9.2-.8-.2-1.1-1-.8-1.1-.5c-.2.2-.4,0-.9-.1s-1.1-.7-1.3-.4-.3.5-.7.5-.6-.2-1,0-.6.8-.5,1.1-.8.9-.8.9Z" fill="none" stroke="#fff" stroke-miterlimit="10" stroke-width=".5"/><path d="M241.2,274.9c7.1,0,15.2.5,13.2,1.7-3.1,1.9-3.4,6.4-6,9.9-2.3,3.1-4.2,8.4-18.8,8.4s-4.8-.1-7.6-.4l-9-2.7s3.9-5.9,6.5-8.9c2.6-3.1,9.1-6.5,12.4-7.5,1.2-.3,5.1-.5,9.3-.5M241.2,272.9c-2.3,0-7.9,0-9.8.6-3.4.9-10.3,4.6-13.4,8.1-2.7,3.1-6.5,8.9-6.7,9.2l-1.5,2.2,2.6.8,9,2.7h.2c0,0,.2,0,.2,0,2.8.3,5.5.4,7.8.4,14.1,0,17.4-5,19.7-8.3.2-.3.5-.7.7-1,1.2-1.7,2-3.5,2.7-5,.8-1.9,1.5-3.6,2.8-4.3,1.2-.7,1.4-1.8,1.2-2.6-.5-1.7-2.3-2.1-6.3-2.5-2.5-.2-5.8-.3-9.2-.3h0Z" fill="#fff"/><path d="M213.4,291.7c8.4-.9,17.9.4,24.7-5.3,1.4-1.1,2.5-2.4,3.9-3.5,1.5-1.1,3.2-1.7,4.8-2.4,1.6-.7,3.3-1.3,4.9-1.9,0,0,0,.2,0,.2-1.6.7-3.2,1.4-4.8,2.2-1.6.8-3.2,1.6-4.4,2.6-2.5,2.5-4.9,5.2-8.2,6.8-3.3,1.7-7,2.4-10.5,2.4-3.6,0-7.1-.3-10.6-1,0,0,0-.2,0-.2h0Z" fill="#fff"/><path d="M214,291.8c3.2-1.6,6.4-2.5,9.9-2.9,2.3-.4,4.3-1.7,6.3-2.7,3.2-1.4,5.8-2.9,8.9-4.6,0,0,.1.1.1.1-2.1,4.6-7.4,5.9-11.9,6.8-2.3.4-4.3,1.6-6.5,2.5-2.2.7-4.5,1.1-6.9,1v-.2h0Z" fill="#fff"/><path d="M212.3,292c3.9-2.3,7.8-4.4,12-6.2,3.5-1.7,8.5-4.3,12.1-6.1,0,0,0,.2,0,.2-3.7,2.6-7.6,5-11.5,7.3-3.9,2.4-8,4.7-12.6,5.1,0,0,0-.2,0-.2h0Z" fill="#fff"/><path d="M214.6,291.3c-.3-1.5.5-3,1.6-4,.6-.5,1.2-.8,1.8-1.2,1.5-1.5,2.4-3.5,4.1-4.8,1.1-.8,2.4-1.5,3.8-1.9v.2c-1,1.9-2.4,3.3-4.1,4.6-1.1.9-2.5,1.3-3.4,2.4-.4.5-.7,1.3-1,1.8-.6,1-1.8,2.2-2.6,3.1,0,0-.2,0-.2,0h0Z" fill="#fff"/><path d="M212.8,291.7c1.3-1.5,2.7-2.7,4.3-3.7,1.7-.8,3.5-1.4,4.9-2.8,2.8-2.5,5.2-5.5,8.6-7.2,0,0,.1.1.1.1-.4.9-.9,1.8-1.4,2.5-1.6,2.5-4.2,4-6.8,5.2-2.6,1.2-4.1,3.9-6.9,5-.9.4-1.7.8-2.7,1,0,0,0-.2,0-.2h0Z" fill="#fff"/><path d="M214.4,291.9c6.6.5,12.6,1.8,19.3,1.2,0,0,0,.2,0,.2-4.8,1-9.9,1.7-14.8.9-1.6-.4-3.2-1.1-4.6-2.1v-.2h0Z" fill="#fff"/><path d="M223.3,183.5l.3.2c-.7,2.5.2,4.8.9,7.4.7,2.8,1,6.1-.4,8.8-3,5.6-8.8,7-8.1,12,.3,2.5.4,9.6,1.4,12.1,2.7,6.3,3.2,11.5,3.3,15.8-.3,7.2-2.3,26.3-2.6,33.7-2.1,7.9-5.5,14.5-11.5,20.2-2.8,1.8-4.6,2.7-6.1,5.1-5.7,8.3-18.3,28.8-27.6,33.9l-15.3,10.4-3.8-2.2,10.5-8.2c9.2-3.3,30.2-26.6,34-35.2,1-2.6,4-5.3,6-6.9,4-4.5,7.1-11.7,8.6-17.5-.7-10.2,5-27.7,4.8-32.8-.5-4-4.8-28.2-3.8-32.6.9-4,5-6.8,6.6-9.8,2.6-3.8-.6-10.7,2.8-14.5M223.3,181.6c-.5,0-1.1.2-1.4.6-2.3,2.6-2.3,6-2.2,9.1,0,2.2,0,4.3-.8,5.6,0,0,0,.1-.1.2-.5,1-1.4,2-2.4,3.2-1.7,2-3.7,4.2-4.3,7.1,0,0,0,0,0,0-.7,3.5,1.1,16.1,3.1,28.6.3,2.1.6,3.7.7,4.6,0,1.8-.8,5.8-1.8,10.1-1.5,7.1-3.4,16-3.1,22.4-1.3,4.8-4.1,11.8-8,16.3-1.4,1-5.2,4.1-6.5,7.6-3.5,7.9-24.2,31-32.8,34.1-.2,0-.4.2-.5.3l-10.5,8.2c-.5.4-.8,1-.7,1.7,0,.6.4,1.2,1,1.5l3.8,2.2c.3.2.6.3,1,.3s.8-.1,1.1-.3l15.2-10.3c8.2-4.6,18.3-19.8,25-29.8,1.2-1.8,2.2-3.3,3.1-4.6,0,0,0,0,0,0,1-1.7,2.2-2.4,4.1-3.6.4-.3.9-.6,1.4-.9,0,0,.2-.1.3-.2,5.8-5.5,9.7-12.2,12.1-21.1,0-.1,0-.3,0-.4.1-3.6.7-10.1,1.3-16.4.6-6.7,1.2-13.6,1.3-17.3,0,0,0,0,0,0,0-4.1-.5-9.7-3.4-16.5-.6-1.6-.9-6.1-1.1-8.8,0-1.1-.1-2.1-.2-2.8,0,0,0,0,0,0-.3-1.9.8-2.9,3-5,1.6-1.4,3.5-3.2,4.9-5.8,1.4-2.7,1.6-6.1.6-10.2-.1-.5-.3-1-.4-1.5-.5-1.9-.9-3.4-.5-4.9.2-.9-.1-1.8-.9-2.2l-.3-.2c-.3-.2-.6-.3-1-.3h0Z" fill="#fff"/><path d="M210.4,105.4s.8,14.1-4,21.5c0,0-2.2,13.6-24.5,19.2-3.1.8-5.3,1.2-6.7,1.2-3.3,0-2.9-2.2-1.6-6.7,0,0,4.9-17.2,8.4-19.5,3.6-2.4,7-2.3,9.8-3.3,2.8-1,2.9-4.5,6.9-6.1s7.6-.2,11.7-6.3M212.9,96.5l-4.9,7.3c-2.2,3.3-3.9,3.6-6.4,4.1-1.2.2-2.5.5-3.9,1.1-2.9,1.2-4.3,3.1-5.3,4.5-.7,1-1,1.4-1.5,1.6-.8.3-1.7.5-2.7.7-2.2.5-5,1.1-7.8,3-4,2.7-8.1,15.7-9.6,21.2-.9,3.4-1.7,6.3,0,8.5,1,1.3,2.5,1.9,4.5,1.9s3.9-.4,7.5-1.3c21.4-5.4,25.8-17.9,26.5-20.9,4.9-8.2,4.2-22.2,4.1-22.8l-.5-8.7h0Z" fill="#fff"/><path d="M177,146.1c6.6-4.8,12.8-10.1,18-16.4,5.1-6.3,9.3-13.5,12-21.2,0,0,.2,0,.2,0-4.4,14.7-15.6,32-30.1,37.6h0Z" fill="#fff"/><path d="M174.6,146.9c2.4-2.6,5.1-4.6,7.8-6.7,1.7-1.6,2.8-3.7,4.1-5.5,2-2.9,4-5.5,6.4-8.1,0,0,.2,0,.1,0-1.9,5.7-6.1,9.9-10.3,13.9-2.1,2.8-4.7,5.4-8.1,6.5,0,0-.1,0,0-.1h0Z" fill="#fff"/><path d="M174.4,147c7.9-9.5,14.9-19.8,19.4-31.4,0,0,.2,0,.2,0-1.9,5.9-4.4,11.7-7.5,17.2-3,5.5-6.8,10.8-12,14.3,0,0-.1-.1-.1-.1h0Z" fill="#fff"/><path d="M173.3,146.6c2-3.1,4-5.9,5.9-9,1.2-2.1,1.5-4.6,2.3-6.8,1-3.5,2.1-6.9,3.5-10.3,0,0,.2,0,.1,0,0,5.6-2,10.9-4.7,15.7-1.4,2.7-2,5.9-4.2,8.1-.8.9-1.8,1.8-2.8,2.4,0,0-.2,0-.1-.1h0Z" fill="#fff"/><path d="M172.9,145.4c.9-2.3,2-4.1,3.3-6.1.7-1.4.7-3,1-4.5.4-2.3,1.1-4.5,2.1-6.6,0,0,.1,0,.1,0,.2,1.6,0,3.2-.2,4.7-.4,2.4-1.8,4.4-2.6,6.6-.4,1.5-.7,3.2-1.8,4.4-.5.6-1.1,1.2-1.8,1.6,0,0-.1,0-.1-.1h0Z" fill="#fff"/><path d="M164.9,101.3c1.4,0,8.8,14.5,9.3,17.2.6,2.9.4,9.2-1,12.4-1.3,3.2-4.4,8.4-4.4,8.4l-5.5-5.9c-9.9-15.7-5.7-20-4-23.3,1.7-3.4,5-5.3,5.3-8.4,0-.3,0-.4.2-.4M164.9,98.4h0c-1.4,0-3,1.1-3.1,3.1,0,.9-1,1.9-2,3.1-1,1.2-2.1,2.5-3,4.2-.1.3-.3.6-.5.8-2.7,4.9-4.6,10.8,4.6,25.4l.2.2.2.2,5.5,5.9,2.7,2.8,2-3.4c.1-.2,3.2-5.4,4.5-8.8,1.6-4,1.8-10.9,1.1-14.1-.5-2.5-4.2-9.6-4.6-10.4-4.6-8.7-5.9-9.2-7.6-9.2h0Z" fill="#fff"/><path d="M168.7,139.1c-4.6-6-8.7-13.6-6.3-21.4.4-1.5,1.1-2.9,1.4-4.3.3-1.4.3-2.9.3-4.4,0-1.5,0-3-.1-4.5h.2c.2,1.5.4,3,.5,4.5,0,1.5.3,3,0,4.6-.3,1.5-.9,2.9-1.2,4.4-1.1,4.4.1,8.6,1.9,12.7,1.1,2.8,2.4,5.5,3.5,8.3h-.1Z" fill="#fff"/><path d="M168.4,138.6c-1-1.8-1.6-3.7-1.9-5.7-.2-2,0-4-.6-5.9-1-3.8-2.1-8.4.7-11.7,0,0,.2,0,.2,0-.1,3.1-.2,5.7-.1,8.6,0,2-.2,4,.4,5.9,1,2.8,1.6,5.6,1.6,8.7,0,0-.2,0-.2,0h0Z" fill="#fff"/><path d="M168.8,140c-1.5-3.7-1.3-7.8-.9-11.6.3-3.9.7-7.8,1.2-11.6h.2c0,3.9,0,7.8,0,11.6.2,3.9,0,7.7-.2,11.6,0,0-.2,0-.2,0h0Z" fill="#fff"/><path d="M168.5,137.7c.5-1.2.7-2.2,1.4-3.2.3-.5.8-.9,1-1.5.5-1.1.3-2.4.6-3.5.3-1.8.8-3.4,1.9-5,0,0,.2,0,.2,0,.3,1.3.2,2.5,0,3.7-.3,1.8-1.5,3.3-2.1,5-.2,1.2-.2,2.5-1.2,3.5-.4.5-1,.9-1.6,1.1,0,0,0-.1,0-.1h0Z" fill="#fff"/><path d="M168.9,139.4c-.4-1.7-.3-3.3,0-4.9.4-1.6,1.1-3.1,1-4.8-.2-3.3.5-6.7,2.8-9.3,0,0,.2,0,.2,0,0,3.4-1.4,6.2-2.2,9.3-.6,1.6-.3,3.2-.3,4.8-.1,1.6-.5,3.2-1.1,4.7h-.2Z" fill="#fff"/><path d="M168.2,138.4c-2.7-1.2-4.4-3.8-5.6-6.4-1.2-2.6-2.2-5.2-2.8-8,0,0,.2,0,.2,0,1.1,2.6,2.4,5,3.8,7.4,1.6,2.3,3.1,4.4,4.5,6.9,0,0-.1.1-.1.1h0Z" fill="#fff"/></svg>