<?xml version="1.0" encoding="UTF-8"?><svg id="Layer_1" xmlns="http://www.w3.org/2000/svg" width="282.5" height="409.2" viewBox="0 0 282.5 409.2"><path d="M145.8,202.4c2.1,0,4.4,1.3,6.7,1.3s.3,0,.4,0c1,0,1.9-.1,2.9-.1,11.9,0,24.4,5.2,23.7,22.7-3.8,7.7-9.2,10.9-14.9,10.9s-16.8-6.4-22.7-15.8c-.7-1.1-2.8-2.6-3.4-3.7-.8-1.6.6-5.4.6-5.4,0,0-1.8-2-1.2-3.3.5-1.2,2.6-1.9,3.8-2.5,1.2-.5,1.4-3.6,3-4,.3,0,.7-.1,1.1-.1M145.8,199.7c-.6,0-1.2,0-1.7.2-2.1.5-2.9,2.4-3.5,3.7,0,.2-.2.4-.3.6-1.6.7-3.9,1.7-4.8,3.6-.8,1.8-.1,3.6.6,4.9-.5,1.8-1,4.4,0,6.2.5,1,1.5,1.9,2.4,2.7.4.4,1,.9,1.2,1.2,6.7,10.5,16.2,17.1,25,17.1s12.2-2.2,17.3-12.4l.3-.5v-.6c.3-7.6-1.7-13.7-5.9-18.1-5.8-6.1-14.3-7.3-20.4-7.3-1,0-2.1,0-3.1.1,0,0-.1,0-.2,0-.8,0-1.8-.3-2.8-.6-1.2-.3-2.5-.7-3.9-.7h0Z" fill="#fff"/><path d="M178.9,226c-1.8-2.8-3.7-5.1-6.2-7.3-1.6-1.4-3.3-2.9-5.3-3.7-3.2-.9-6.3-1.6-9.3-2.9,0,0,0-.1,0-.1,1.1-.1,2.3,0,3.4.2,2.2.3,4.3,1.4,6.2,2.5,3.1,1.4,6.3,2.7,8.5,5.3,1.5,1.7,2.5,3.9,2.9,6.1h-.1Z" fill="#fff"/><path d="M177.9,230.6c-3.1,1.7-7,1.7-10.3.6-2.2-.6-4.2-1.9-6.4-2.7-3.3-1-6.5-2.6-8.8-5.3,0,0,0-.1,0-.1,3.2,1.3,6,3.2,8.9,5,3,1.4,6.5,1.8,9.7,2.3,2.2.3,4.3.3,6.6.2h0Z" fill="#fff"/><path d="M174.8,237.7c-1.5,2-3.4,3.9-6.7,4.9-6.7,1.9-11.8-1.8-11.8-1.8,5.6,2,10.1,2.1,16.1-4.9,0,0,2.1-4.4,7-7.8,0-5.8,2.1-9.9,2.1-9.9,1.9-9.1-.8-12.5-5.8-15.8,0,0,6,1.9,8.5,8.4,1.4,3.5.7,6.4,0,9-.2,3.5,3.6,6.2,5.4,9.3.6,1.1.6,2.2.4,3.2,0,0,0,0,0,0-.1.4-.4,1.1-.7,1.8-.4.7-.8,1.3-1.1,1.6,0,0,0,0,0,0-.7.8-1.6,1.4-2.9,1.5-3.5.2-7.7-1.3-10.5.6Z" fill="none" stroke="#fff" stroke-linecap="round" stroke-linejoin="round" stroke-width="2.7"/><path d="M178,226c-1.4-1.6-2.5-3.1-3.9-4.7-2.8-2-6.1-3-8.7-5.3,0,0,0-.1,0-.1,3.6.4,6.4,2.8,9,5.1,1.8,1.1,3.5,2.7,3.7,4.9,0,0-.1,0-.1,0h0Z" fill="#fff"/><path d="M175.6,230.2c-2.2.7-4.5,0-6.5-1.1-2.1-.7-4.4-1-6.4-2-1.3-.7-2.6-1.4-3.7-2.5h0c3.7.6,6.7,2.8,10.1,4.2,2.2.3,4.2.7,6.4,1.4,0,0,0,.1,0,.1h0Z" fill="#fff"/><path d="M177.1,228.6c-1.9.4-3.8,0-5.5-.7-1.8-.6-3.5-1.4-5-2.5,0,0,0-.1,0-.1,1.7.7,3.4,1.2,5.2,1.6,1.8.3,3.6.6,5.3,1.5,0,0,0,.1,0,.1h0Z" fill="#fff"/><path d="M167.3,221.1c2,.3,3.9,1,5.7,1.9,1.9.8,3.6,2,4.7,3.8,0,0,0,0,0,0-2.8-1.1-4.9-3.2-7.7-4.5-.9-.5-1.8-.8-2.7-1.2h0Z" fill="#fff"/><path d="M170.1,224.3c2.5,1.3,5.4,1.2,7.5,3.1,0,0,0,.1,0,.1-1.5.2-2.8-.2-4-.9-1.2-.6-2.4-1.3-3.5-2.1h0Z" fill="#fff"/><path d="M179,220.2c-1.1-1.8-1.9-3.5-2.9-5.3-2.3-2.5-5.4-4.1-7.6-6.8,0,0,0-.1,0-.1,3.5,1,5.8,3.9,7.9,6.7,1.6,1.4,3,3.3,2.7,5.5,0,0-.1,0-.1,0h0Z" fill="#fff"/><path d="M170.1,211.9c1.8.9,3.4,2.2,4.9,3.6,1.5,1.4,2.8,3,3.3,5,0,0-.1,0-.1,0-2.4-1.9-3.7-4.6-5.9-6.6-.7-.7-1.5-1.3-2.2-2h0Z" fill="#fff"/><path d="M173.6,216c1.5,2.3,4.1,3.7,5.1,6.3,0,0,0,0,0,0-1.4-.5-2.3-1.5-3.1-2.7-.8-1.1-1.5-2.3-2-3.6h.1Z" fill="#fff"/><path d="M172.4,235.3c-1.8,1.4-4.2,1.1-6.2.5-3.5-.4-7.1-.8-9.8-3.3,0,0,0-.1,0-.1,3.5.5,6.4,2.3,9.8,3,2.1,0,3.9-.2,6.1-.2,0,0,0,.1,0,.1h0Z" fill="#fff"/><path d="M160.6,231.8c3.8,1.5,7.8,1,11.7,2,0,0,0,.1,0,.1-2,.7-4.1.6-6.1,0-2-.4-3.9-1.1-5.7-2.1h0Z" fill="#fff"/><path d="M165.1,232.1c2-.3,4.1-.4,6.2-.2.7.2,1.3.4,1.9.9h0c-1.4.5-2.7.3-4.1,0-1.3-.2-2.6-.4-4-.5h0Z" fill="#fff"/><path d="M188.1,233.6c-.6-1.1-.7-2.3-1.1-3-.4-1-1.5-1.8-2.4-2.4-1.2-.9-2.2-2.2-2.6-3.7-.2-1,0-1.8.3-2.7,0,0,.1,0,.1,0,.2.6.4,1.1.5,1.7.5,1.6,1.4,2.8,2.2,4.2.6,1.1,1.8,1.4,2.7,2.3.8,1.1.7,2.4.4,3.6,0,0-.1,0-.1,0h0Z" fill="#fff"/><path d="M181.3,234.8c-.9.6-1.6.5-2.5.2-.8-.2-1.6-.2-2.4-.2h0c.7-.7,1.6-.9,2.5-1,.4,0,.9-.2,1.3,0,.4.2.8.4,1.1.9,0,0,0,.1,0,.1h0Z" fill="#fff"/><path d="M140.3,205.7c1.2-.9,2.8-.4,3.9.5,1.1.7,2,1.6,2.9,2.6h0c-1.1-.5-2.2-1.1-3.3-1.5-1.3-.3-2.1-.7-3.3-1.4,0,0,0-.1,0-.1h0Z" fill="#fff"/><path d="M136.2,212.4c1.6-.5,3.1-.2,4.6.3,1.5.4,2.9.8,4.4,1.4,0,0,0,.1,0,.1-2.3-.2-4.6-.2-6.9-.6-.7-.2-1.5-.5-2.1-1.1h0Z" fill="#fff"/><path d="M191.7,232.7c.1,0,.3,0,.5.3,4.4,5.2,10.8,10.2,17,13.7,2.1,2.2,3.8,4.6,5.2,7.3l-1.2,2.7c-1.6-2.6-3.5-4.9-6.1-6.8-7.7-2.6-11.8-6-16.2-12.9,0,0-.2-4.3.8-4.3M191.7,230c-.8,0-1.6.3-2.2.9-.4.5-1.5,1.5-1.3,6.2v.7s.4.6.4.6c4.8,7.5,9.4,11.2,17.2,13.9,1.9,1.5,3.6,3.4,5,5.7l2.7,4.6,2.1-4.9,1.2-2.7.5-1.2-.6-1.1c-1.6-3.1-3.5-5.7-5.7-7.9l-.3-.3-.3-.2c-6-3.4-12.1-8.3-16.3-13.1-.9-1-1.9-1.3-2.5-1.3h0Z" fill="#fff"/><path d="M127.2,106.2h5c0,.1,5.3,3.5,5.3,3.5,6.5.7,14,2.2,18.7,7.3,3.6,6.7,8.8,15,12.8,21.6.9,1.3,1.3,2.6,3,3.4,5.7,1.6,9.5,8.1,10.4,13.6,1.4,5.4,1.5,11,3.8,16,.9,1.6,1.6,3.7,1.9,5.5,1.5,7.2.2,15.1,2.4,21.9,9,16.3,23,30,25.1,49.3l-3.8-4.4c-1-5.6-2.1-11.1-5.1-15.9-5.4-9.7-12.1-18.7-17.3-28.6-2.4-7.3-1.3-14.8-2.9-22.1-.7-3.7-3.4-6.6-4.1-10.3-2-7.1-2.7-15.2-7.5-19.6-1.9-1.8-5.3-2-7.3-4.6-5-7.7-9.8-15.8-14-24-7.4-7.5-19-4.4-26.5-12.7M127.2,103.6c-1,0-1.9.6-2.4,1.5-.4.9-.3,2.1.4,2.8,4.4,4.8,10,6.3,15,7.5,4.2,1.1,8.2,2.1,11.3,5,4,7.7,8.7,15.7,14,23.8,0,0,0,.1.1.2,1.5,1.9,3.6,2.8,5.2,3.5,1,.4,1.9.8,2.4,1.3,3.1,2.9,4.3,7.9,5.5,13.2.4,1.7.8,3.4,1.3,5.1.4,2.1,1.4,3.9,2.2,5.7.8,1.5,1.5,3,1.8,4.5,0,0,0,0,0,0,.7,3,.8,6.1,1,9.3.2,4.3.5,8.7,1.9,13.1,0,.1.1.3.2.4,2.8,5.4,6.1,10.5,9.3,15.5,2.7,4.3,5.6,8.7,8,13.1,0,0,0,0,0,.1,2.6,4.2,3.6,9.1,4.7,15,0,.5.3.9.6,1.2l3.8,4.4c.5.6,1.2.9,2,.9s.7,0,1-.2c1-.5,1.7-1.5,1.5-2.7-1.6-14.2-9.2-25.4-16.5-36.2-3-4.5-6.2-9.1-8.8-13.9-1.1-3.4-1.2-7.2-1.4-11.2-.1-3.3-.2-6.8-.9-10.1-.3-2.2-1.1-4.5-2.1-6.2-1.3-2.8-1.8-6-2.3-9.3-.3-2-.7-4-1.2-6-1-6.1-5.2-13.4-12.1-15.5-.4-.2-.6-.6-1.1-1.4-.2-.3-.4-.6-.6-1-.6-.9-1.1-1.8-1.7-2.8-3.7-6-8-12.9-11-18.6-.1-.2-.2-.4-.4-.5-5.3-5.7-13.2-7.4-19.7-8.1l-4.8-3.1c-.4-.3-.9-.4-1.3-.4h-5c0-.1,0-.1,0-.1h0Z" fill="#fff"/><path d="M157.1,344.2c-.7.3-1.3.4-1.8.5,0,0,0-.1,0-.2-.2-.5-.6-.7-1.1-1,0-.7-.2-1.4-.8-1.9,0-.4.2-.7.3-1.1,18.9-9,35.5-25.9,24.2-39.4-2.3-2.7.2-10.8-3.7-13-8.6-4.8-15,3.1-20.4,7.2-11.6,8.9-11.7,26.2-5.2,42.3-.2,1.3-.6,2.1-1,2.5-.6-.2-1.3,0-1.9.3-.8-.3-1.5-1-2-1.5-1.1-4.2-1.3-9.5-5.3-18.3-2.8-6.2-1.3-15.1-5.7-20.3-5.2-5.9-17.7-9.8-24.4-3-1.7,1.7-2,6.5-3.3,8.3-4.8,6.4-7.9,9.6-6.7,15.1,1.2,5.7,5.5,10.6,13.1,14.4,6.7,3.3,16.1,5.8,28,6.9.7.5,1.3.9,1.7,1.4,0,.8.2,1.6.8,2.1,0,0,0,0,0,0,0,0-.1.1-.2.2-.6.8-.7,1.8-.2,2.6-.4.5-.8.8-1,1-13-4.1-44-15.9-48.9,3.5-.6,2.4-5.8,5.7-5,11.3,2.1,6.5,8.6,7.3,10.6,9.7,7.1,8.6,24.1,2.2,45.6-20.2.7-.4,1.2-.6,1.7-.6.1,0,.2,0,.4,0,.9.2,1.4,1,1.6,2-3.6,5.2-8.4,13.2-10.6,21.2-2.3,8.1-2.7,20.2,4.5,25.2,3.3,2.3,12.2-2.3,19.4-2.2,8.9,1.4,11.1-3,14.6-8.8,6.4-10.8,2.5-26.1-18.7-38.7-.7-.8-1.1-1.5-1.2-1.9,0-.3.1-.6.1-.9.4-.5,1.5-.5,2.3-.5,12.1,6,34.6,34.2,52.8,2.8s-2.2-.7,6.2-19.7c-1.8-9.1-21.5-12.4-58.9,12.5Z" fill="none" stroke="#fff" stroke-miterlimit="10" stroke-width="3.6"/><path d="M146.7,355.2c1.8,2.4,2.7-1.2,3.7-1,.9.1,1.3.7,2.1.5.8-.2,1.2,0,1.7-1.9.5-1.9-.7-1-.2-2,.5-1,1.3-1.3,1.5-2.2.2-.9.6-1.1,0-1.7-.6-.6-1.1-.7-.7-1.3.4-.6-.2-1.3-.6-2s-.5-2-1.2-2.3-.9.5-1-.8c-.1-1.3.2-2-1.1-2s-1.6-.2-2.2.6-1.3.5-2.2,1.3c-1,.8-1.8-.5-2.7.3-.9.7-1.9,2.2-1.3,2.6s-.1.9-.3,2.1c-.2,1.1-1.7,2.6-.9,2.9.7.3,1.1.7,1.2,1.6s-.6,1.5-.2,2.3,1.9,1.6,2.5,1.2c.6-.3,2,2,2,2Z" fill="none" stroke="#fff" stroke-miterlimit="10" stroke-width="1.2"/><path d="M148.5,356.1c0,3.2-1.1,6.1-2.3,8.9-.6,2-.3,4.1-.5,6.1-.2,3.1-.7,6.1-1.8,9.1,0,0-.2,0-.2,0-.5-2.1-.5-4.2-.3-6.3.2-3.1,1.7-6,2.3-9.1.1-3.1.7-6.3,2.7-8.9,0,0,.2,0,.2,0h0Z" fill="#fff"/><path d="M152.6,354.7c.7,3.8.6,7.7.5,11.5.2,2.6,1.3,5,1.9,7.5,1.1,3.7,1.9,7.5,2.2,11.4,0,0-.1.2-.2,0-2-3.4-3.2-7.2-3.8-11.1-.5-2.6-.3-5.2-.8-7.8-.4-1.9-1.1-3.8-1-5.8,0-.6,0-1.4,0-2,.1-1.3.4-2.6.9-3.9,0,0,.2,0,.2,0h0Z" fill="#fff"/><path d="M154.3,352.8c2,1.9,2.8,4.4,3.5,7,.7,1.6,2.1,2.8,3,4.3,1.5,2.2,2.7,4.4,3.5,7,0,0,0,.2-.2.1-1.5-1.1-2.7-2.4-3.7-3.9-1.5-2.2-2-4.9-3.2-7.3-1.7-2.1-3.1-4.4-3.2-7.2,0,0,.1-.1.2,0h0Z" fill="#fff"/><path d="M150.8,355.3l.4,4.9c.1,1.6,0,3.3,0,4.9,0,3.3.2,6.6.3,9.9,0,0-.2,0-.2,0-1-4.9-2-9.9-2.1-14.9.1-1.7.4-3.5,1.3-5,0,0,.2,0,.2,0h0Z" fill="#fff"/><path d="M148.9,354.5c.7,2.7.4,5.3-.2,8,0,0-.6,4-.6,4-.2,1.3-.5,2.6-.7,4h-.2c0-2.3,0-5.7,0-8.1,0-2.7.2-5.4,1.5-7.9,0,0,.2,0,.2,0h0Z" fill="#fff"/><path d="M146.8,356.6c-.4,2.9-1.5,5.3-2.7,7.8-1,2.5-1.9,5.2-2.5,7.9,0,0-.2,0-.2,0,0-2.8.5-5.6,1.2-8.3.6-2.8,1.7-5.5,4-7.4,0,0,.2,0,.2,0h0Z" fill="#fff"/><path d="M153.7,355.2c1.5,1.8,2.1,3.7,2.6,5.9.6,2,1.3,4.1,2,6.2h-.2c-1.2-1.7-2.3-3.6-3.2-5.6-1.1-2-1.9-4.1-1.4-6.4,0,0,.2,0,.2,0h0Z" fill="#fff"/><path d="M155.1,352.8c2.2.6,3.7,2.3,4.8,4.2,1.2,1.7,2.3,3.6,3.3,5.4,0,0-.2.1-.2.1l-4.3-4.6c-1.6-1.4-2.9-2.9-3.7-5,0,0,.1-.1.1-.1h0Z" fill="#fff"/><path d="M169.7,396.1c-.6-2.6-.2-4.8.4-7.3.2-1.6-.6-3.2-.7-4.8-.5-2.4-.5-4.7-.7-7.2,0,0,.2-.1.2-.1.7.6,1.1,1.4,1.4,2.2,1.6,3.2.5,6.6.4,9.9.2,1.6.7,3.3.1,5-.2.8-.5,1.6-1,2.4,0,0-.2,0-.2,0h0Z" fill="#fff"/><path d="M150.9,401c-1.6-1.1-2.5-2.6-3-4.4-.4-1.1-.2-2.4-.7-3.5-.3-.5-.7-1-1-1.5-.4-.8-.6-1.7-.5-2.7,0-.3.1-.8.4-1,0,0,0,0,0,0,.7,1,1.3,2,1.5,3.2,0,.6,0,1.2.1,1.8.6,1.6,2.1,2.9,2.6,4.5.4,1.1.7,2.2.7,3.5,0,0,0,.1-.2,0h0Z" fill="#fff"/><path d="M165.1,400.1c-.7-2.9-1-5.6-1.2-8.5-.2-2.9-1-5.9-1.3-8.7,1.3,2.5,2.1,5.6,2.9,8.4.8,2.9,1.2,6-.2,8.8,0,0-.2,0-.2,0h0Z" fill="#fff"/><path d="M153.5,401c-1.8-2.5-2.7-5.2-3.3-8.1-.4-1.5-1.3-4.9-1.6-6.4,0-.8-.4-1.5,0-2.3.1,0,.2,0,.1.1,0,1.3.9,2.7,1.3,4,0,0,1.6,4,1.6,4,1.2,2.7,2.3,5.5,2,8.5,0,0-.1.1-.2,0h0Z" fill="#fff"/><path d="M163.3,399.2c-.8-.8-1.3-1.7-1.3-2.7,0-.5.2-1.1.1-1.5-.3-1.3-1.6-2.5-2-4-.2-.9-.4-1.9-.2-3,0,0,0-.1.1,0,1.4.9,2.2,2.3,2.4,3.9.2,1-.1,2.1.3,3,.5.9,1.2,1.6,1.1,2.8,0,.5,0,1-.3,1.6,0,0-.1,0-.2,0h0Z" fill="#fff"/><path d="M156.2,399c-.9-.7-1.5-1.5-1.6-2.6,0-.5,0-1.1,0-1.6,0-.5-.3-.9-.7-1.3-1-1.2-1.6-2.6-1.5-4.2,0-.3,0-1.5.5-1.7,0,0,0,0,0,0h0c1,1.2,1.7,2.5,1.9,4,.2.9-.1,2.1.4,3,.6.9,1.3,1.4,1.4,2.7,0,.5,0,1-.1,1.6,0,0-.1.1-.2,0h0Z" fill="#fff"/><path d="M145.5,401.7c-1.3-.9-2.2-2.1-2.9-3.5-.5-1.4-.6-3-1.4-4.3-.5-1-1.4-2-1.2-3.2,0,0,0,.4,0,.4-.8-2.5-.7-5.3.7-7.5,0,0,.2,0,.2,0,.4,2.5.8,5.3.9,7.5,0,.8,0,1.7.2,2.6.3,2,2.2,3.2,2.9,5.1.4.9.7,1.8.9,2.9,0,0-.2.1-.2.1h0Z" fill="#fff"/><path d="M167.6,397.9c-.8-1.9-1-3.5-.9-5.5,0,0-.3-5.6-.3-5.6,0,0,.2,0,.2,0,.7,1.8,1.2,3.6,1.6,5.5.6,1.9.8,4-.5,5.7,0,0-.2,0-.2,0h0Z" fill="#fff"/><path d="M144,402.1c-2-.7-3-2.6-3.6-4.4-.7-1.8-1.3-3.6-1.8-5.4,0,0,.2,0,.2,0l3,4.8c1.2,1.5,2,3,2.4,5,0,0-.1.1-.1.1h0Z" fill="#fff"/><path d="M148.9,401.1c-1.9-.2-2.8-1.8-3.3-3.4-.4-1.1-.8-2.3-1-3.4,0-.5-.2-.8.1-1.3,0,0,.1.1.1.1.3,1.4,1.4,2.6,2.1,3.9.4.6,1,1.1,1.3,1.8.3.7.5,1.3.8,2.2v.2h-.1Z" fill="#fff"/><path d="M171.9,393.6c-.4-1.7,0-3.1.6-4.6.4-1.5.8-3,1-4.5,0,0,.2,0,.2,0,.3,1.6.4,3.2.3,4.8,0,1.7-.4,3.3-1.9,4.4,0,0-.2,0-.2,0h0Z" fill="#fff"/><path d="M158.8,399.4c-1-1.5-1.2-2.8-1.2-4.5-.2-1.5-.4-3.1-.7-4.6,0,0,.2,0,.2,0,.9,1.3,1.6,2.8,2,4.3.7,1.6.9,3.2-.1,4.8,0,0-.2,0-.2,0h0Z" fill="#fff"/><path d="M161.6,399.6c-1.4-.6-1.8-1.8-1.8-3.2-.2-1.2-.2-2.4-.1-3.6,0,0,.2,0,.2,0l.7,1.6.7,1.6c.2.5.6,1,.7,1.6,0,.6,0,1.2-.2,1.9h-.2Z" fill="#fff"/><path d="M113.6,295.6c2.7-.5,4.9.6,7.1,2.1,3.1,1.2,6.5,1.6,8.9,4.3.6.6,1.2,1.3,1.4,2.2,0,0-.2.1-.2.1-2.2-1.1-4.3-2.1-6.3-3.5-1.4-.8-2.6-2.1-4.1-2.6-1.6-.4-3.2-.4-4.7-1.2-.7-.3-1.5-.7-2.2-1.3v-.2h0Z" fill="#fff"/><path d="M101.8,311c1.8.8,3,1.9,4,3.4.7.9,1.1,2.2,2,2.9.5.4,1.1.5,1.6.8,1,.6,1.6,1.6,2.2,2.6h0c0,.1,0,.2,0,.2-1.2.3-2.6-.7-3.3-1.5-.4-.5-.6-1.1-1-1.6-1.2-1.3-3.1-1.8-4.2-3.3-.7-.9-1.3-2-1.6-3.3,0,0,0-.2.2-.1h0Z" fill="#fff"/><path d="M108.2,298.2c3.1-.1,5.9,1.5,8.2,3.4,2.3,1.8,4.9,3.7,6.6,6-2.4-1.4-4.9-3.3-7.4-4.7-2.6-1.3-5-2.6-7.4-4.5,0,0,0-.2,0-.2h0Z" fill="#fff"/><path d="M102.8,308.5c4.2,1.4,7,5.4,10.1,8.3,1,.9,2,2.2,3.1,2.8.1,0,.2.1,0,.2-.8,0-1.4-.6-2.1-1-1.2-.8-4-3-5.2-4-2.4-1.7-4.5-3.6-6.1-6.2,0,0,0-.2.1-.2h0Z" fill="#fff"/><path d="M108.3,300.2c1.1,0,2.1.4,2.8,1.2.5.9,1.1,1.8,2.2,2.1,2,.7,3.6,2.2,4,4.4,0,0,0,.1-.1.1-1.1-.3-1.9-.8-2.7-1.4-1.3-.9-1.7-2.6-2.9-3.4-1-.4-1.9-.5-2.6-1.4-.3-.4-.6-.8-.8-1.4,0,0,0-.2.1-.2h0Z" fill="#fff"/><path d="M105.7,306.8c1.1.2,2,.6,2.7,1.5.3.4.4,1,.8,1.4,1,1,2.7,1.2,3.8,2.4.7.7,1.3,1.6,1.8,2.5,0,0,0,0,0,0-1.7.1-3.1-.9-4.1-2.1-.7-.7-1-1.9-1.8-2.4-.9-.5-1.9-.6-2.5-1.7-.3-.4-.5-.9-.7-1.5,0,0,0-.2.1-.1h0Z" fill="#fff"/><path d="M99,315.6c1.3.9,2.3,1.9,3.2,3.1.8,1.3,1.3,2.8,2.6,3.5.7.5,1.5.9,2.2,1.2,1.9.9,4.4,2.4,6.5,3.8,0,0,0,.2,0,.2-2.6.4-5.3-.6-7.2-2.4,0,0,.4.2.4.2-1.2-.3-1.8-1.5-2.5-2.4-1.1-1.7-3.3-2.4-4.3-4.2-.5-.9-1-1.8-1.2-2.9h.2Z" fill="#fff"/><path d="M111.2,296.8c2.1-.5,3.9.6,5.4,1.9,1.5,1.1,3,2.3,4.4,3.6,0,0-.1.2-.1.2l-5.1-2.5c-1.8-.7-3.3-1.5-4.7-3,0,0,0-.2,0-.2h0Z" fill="#fff"/><path d="M98,316.9c1.6,1.2,2.7,2.5,3.6,4.2,0,0,3.2,4.6,3.2,4.6h-.1c-1.5-1-2.9-2.3-4.2-3.6-1.5-1.3-2.8-2.9-2.6-5.1,0,0,.2,0,.2,0h0Z" fill="#fff"/><path d="M101,312.8c1.4,1,2.1,2,2.8,3.5.8,1.2,1.6,2.6,2.7,3.4,0,0,0,.2,0,.2-.8,0-1.5-.7-2.2-1.1-1.8-1.5-4.4-3.2-3.6-6,0,0,.2,0,.2,0h0Z" fill="#fff"/><path d="M106.4,304.3c1.8-.3,3.3.5,4.5,1.8,1.2,1.1,2.3,2.3,3.2,3.6,0,0-.1.1-.1.1-1.8-1.4-4-2.4-5.9-3.5-.6-.5-1.2-1-1.6-1.8v-.2h0Z" fill="#fff"/><path d="M107.3,301.6c1.5.1,2.3.7,3,1.8,0,0,1.2,1.3,1.2,1.3l1.2,1.3v.2c-1.2-.4-2.3-.9-3.4-1.6-.5-.3-1.2-.5-1.5-1-.4-.5-.7-1.1-.7-1.9h.1Z" fill="#fff"/><path d="M157.7,291.8c-.4,2.7-1.6,4.5-3.1,6.6-.8,1.4-.7,3.2-1.1,4.7-.5,2.4-1.3,4.5-2.1,6.9,0,0-.2,0-.2,0-.4-.8-.5-1.7-.5-2.6-.2-3.6,2-6.2,3.3-9.3.4-1.6.6-3.3,1.7-4.7.5-.7,1.1-1.3,1.8-1.8h.2Z" fill="#fff"/><path d="M175.8,291.6c.5,1.9.3,3.6-.5,5.3-.4,1.1-1.4,2-1.6,3.2-.1.6,0,1.2-.1,1.8-.2.9-.7,1.7-1.3,2.4-.2.2-.6.5-.9.5,0,0,0,0,0,0,0-1.2.2-2.4.8-3.4.3-.5.8-.9,1-1.5.6-1.6.2-3.5.8-5.2.4-1.1.9-2.1,1.7-3.1,0,0,.2,0,.2,0h0Z" fill="#fff"/><path d="M163.4,289.1c-1.3,2.7-2.8,5-4.5,7.3-1.7,2.4-2.9,5.2-4.5,7.6.6-2.8,1.9-5.6,3.1-8.3,1.2-2.7,2.9-5.4,5.7-6.7,0,0,.2,0,.1.1h0Z" fill="#fff"/><path d="M174.6,288.7c-.2,3-1.2,5.7-2.6,8.3-.7,1.4-2.1,4.6-2.8,5.9-.4.6-.7,1.5-1.4,1.8-.1,0-.1-.1,0-.2.8-1.1,1.1-2.6,1.5-3.9,0,0,1.3-4.2,1.3-4.2.7-2.9,1.7-5.6,3.8-7.9,0,0,.2,0,.2,0h0Z" fill="#fff"/><path d="M165.8,286.5c.1,1.1,0,2.1-.7,2.9-.3.4-.8.7-1.1,1.1-.6,1.2-.3,2.9-1,4.3-.4.9-.9,1.7-1.8,2.5,0,0-.1,0-.2,0-.5-1.6-.2-3.2.6-4.5.4-.9,1.4-1.5,1.7-2.5.2-1.1,0-2,.9-2.9.3-.4.7-.8,1.3-1,0,0,.2,0,.2,0h0Z" fill="#fff"/><path d="M172.7,287.5c.3,1.1.2,2.1-.4,3-.3.4-.8.8-1,1.2-.2.4-.3.9-.3,1.5,0,1.5-.5,3-1.5,4.2-.2.2-1,1.1-1.5,1,0,0,0,0,0,0h0c0-1.6.2-3.1,1.1-4.3.4-.9,1.4-1.5,1.6-2.5.1-1.1-.1-1.9.6-2.9.3-.4.6-.8,1.1-1.2,0,0,.2,0,.2,0h0Z" fill="#fff"/><path d="M178.5,301.9c.4,1.5.4,3.1,0,4.6-.5,1.4-1.5,2.7-1.6,4.2-.2,1.1-.2,2.5-1.1,3.3,0,0,.3-.3.3-.3-.9,2.4-2.8,4.5-5.3,5.4,0,0-.1-.2-.1-.2.6-1.1,1.3-2.1,1.9-3.1.7-1.1,1.6-2.5,2.2-3.3,1.1-1.4,2.1-3,2-4.9,0-2,.5-3.9,1.5-5.7,0,0,.2,0,.2,0h0Z" fill="#fff"/><path d="M180,302.6c1.1,1.8.7,3.9,0,5.7-.6,1.8-1.2,3.6-2,5.3,0,0-.2,0-.2,0l.7-5.6c0-1.9.4-3.6,1.3-5.4,0,0,.2,0,.2,0h0Z" fill="#fff"/><path d="M176.2,298.9c1.3,1.4,1,3.2.4,4.7-.4,1.1-.8,2.2-1.5,3.3-.3.4-.4.8-.9.9,0,0,0-.2,0-.2.6-1.3.6-2.9.8-4.3,0-.7,0-1.5.1-2.2.2-.7.4-1.4.8-2.2h.2Z" fill="#fff"/><path d="M170.9,286.6c-.3,2.6-1.3,4.8-2.6,7-1.1,2.2-2.1,4.5-3,6.8,0,0-.2,0-.2,0,.4-2.5,1-4.9,1.8-7.3.7-2.5,1.8-4.8,3.9-6.5,0,0,.2,0,.2,0h0Z" fill="#fff"/><path d="M167.7,287c.6,1.4.2,2.6-.7,3.6-.6,1-1.4,2-2.2,2.9,0,0-.2,0-.2,0l.5-1.7.5-1.7c.2-.6.2-1.2.5-1.7.3-.5.7-.9,1.4-1.3h.2Z" fill="#fff"/><path d="M99.1,375c2.5-1.1,4.7-.9,7.3-.8,1.6,0,3.1-1.1,4.6-1.5,2.3-.9,4.5-1.3,7-1.8,0,0,.1.1.1.1-.5.8-1.2,1.3-1.9,1.8-2.9,2.1-6.4,1.6-9.7,2-1.6.5-3.2,1.2-4.9.9-.8,0-1.7-.2-2.5-.6,0,0,0-.2,0-.2h0Z" fill="#fff"/><path d="M89.5,359.7c1.3-1.4,3-2.1,4.8-2.3,1.1-.2,2.4.2,3.6-.3.6-.2,1.1-.6,1.6-.8.9-.3,1.8-.3,2.7,0,.3,0,.7.2,1,.5,0,0,0,0,0,0-1,.5-2.2,1-3.3,1.1-.6,0-1.2-.2-1.8-.1-1.7.3-3.1,1.7-4.8,2-1.1.2-2.3.4-3.6.2,0,0-.1-.1,0-.2h0Z" fill="#fff"/><path d="M93.9,371.6c3-.3,5.7-.2,8.6,0,2.9.2,6-.2,8.8-.1-2.7,1-5.8,1.3-8.7,1.7-2.9.4-6.1.4-8.7-1.4,0,0,0-.2,0-.2h0Z" fill="#fff"/><path d="M87.6,362.2c2.7-1.4,5.5-1.9,8.4-2.1,1.5-.2,5-.6,6.5-.7.8,0,1.6-.2,2.3.2,0,.1,0,.2-.2.1-.2,0-.6,0-1,0-2,.3-5.4,1.3-7.4,1.8-2.8.9-5.7,1.5-8.7.8,0,0-.1-.2,0-.2h0Z" fill="#fff"/><path d="M90.3,370.8c.9-.7,1.8-1,2.9-1,.5,0,1,.3,1.5.3,1.4,0,2.7-1.3,4.2-1.4,1-.1,1.9-.1,3,.2,0,0,0,0,0,.1-1.1,1.3-2.6,1.8-4.2,1.8-1,.1-2.1-.4-3-.1-1,.4-1.7,1-2.9.8-.5,0-1-.2-1.5-.5,0,0,0-.1,0-.2h0Z" fill="#fff"/><path d="M87.7,364.5c.8-.8,1.7-1.2,2.8-1.3.5,0,1,.2,1.5.2.5,0,1-.2,1.4-.5,1.3-.8,2.8-1.2,4.4-.9.3,0,1.4.3,1.6.7,0,0,0,0,0,0h0c-1.3.8-2.7,1.4-4.2,1.3-1,.1-2.1-.4-3,0-1,.4-1.6,1.1-2.8,1-.5,0-1,0-1.6-.4,0,0,0-.1,0-.2h0Z" fill="#fff"/><path d="M92.7,352.6c1.1-1.2,2.4-1.9,3.9-2.4,1.5-.3,3.1-.1,4.5-.8,1.1-.4,2.2-1.1,3.4-.8,0,0-.4,0-.4,0,2.5-.5,5.3,0,7.4,1.7,0,0,0,.2,0,.2-2.5,0-5.4,0-7.5-.2-.8-.1-1.7-.1-2.6-.1-2,0-3.5,1.7-5.5,2.1-.9.3-1.9.5-3,.5v-.2h0Z" fill="#fff"/><path d="M95.1,349.2c1-1.9,3-2.6,4.9-3,1.8-.5,3.7-.8,5.6-1,0,0,0,.2,0,.2l-5.1,2.3c-1.7,1-3.3,1.5-5.3,1.7,0,0-.1-.2-.1-.2h0Z" fill="#fff"/><path d="M91.5,356.6c.5-1.8,2.2-2.6,3.9-2.8,1.2-.3,2.3-.5,3.5-.5.5,0,.8,0,1.2.3,0,0-.2.1-.2.1-1.4.1-2.8,1-4.1,1.5-.7.3-1.3.8-2,1-.7.2-1.4.3-2.3.5,0,0-.1-.1-.1-.1h0Z" fill="#fff"/><path d="M87.8,366.4c2.4-1.1,4.8-1.3,7.3-1.4,2.5-.2,4.9-.5,7.4-.9,0,0,0,.2,0,.2-2.3,1-4.7,1.7-7.2,2.3-2.5.7-5,1-7.5,0,0,0,0-.2,0-.2h0Z" fill="#fff"/><path d="M89.9,369c.8-1.3,2.1-1.5,3.4-1.3,1.2,0,2.4.1,3.6.4,0,0,0,.2,0,.2l-1.7.5-1.7.5c-.6.2-1.1.5-1.7.4-.6,0-1.2-.1-1.9-.5,0,0,0-.2,0-.2h0Z" fill="#fff"/><path d="M210.9,327.4c-2.3,1.4-4.6,1.5-7.1,1.6-1.6.3-2.9,1.4-4.4,2.1-2.2,1.1-4.4,1.8-6.7,2.6,0,0-.1-.1-.1-.1.4-.9,1-1.4,1.7-2,2.7-2.4,6.1-2.3,9.4-3.2,1.5-.7,3-1.6,4.7-1.5.8,0,1.7,0,2.5.3,0,0,0,.2,0,.2h0Z" fill="#fff"/><path d="M208.4,352.5c-1.4,1.3-3.1,1.9-4.9,2-1.2.2-2.4-.3-3.6,0-.6.1-1.1.5-1.7.7-.9.3-1.8.2-2.7,0-.3-.1-.7-.3-.9-.6,0,0,0,0,0,0,1.1-.5,2.2-.9,3.4-.9.6,0,1.2.3,1.8.2,1.7-.2,3.2-1.5,5-1.7,1.1-.2,2.3-.2,3.6,0,0,0,.1.1,0,.2h0Z" fill="#fff"/><path d="M215.3,332.7c-2.8,1-5.5,1.6-8.4,2.1-2.8.5-5.8,1.7-8.5,2.3,2.4-1.6,5.3-2.7,8.1-3.7,2.8-1.1,5.9-1.8,8.8-.8,0,0,0,.2,0,.2h0Z" fill="#fff"/><path d="M210.2,349.3c-2.8,1.2-5.6,1.6-8.6,1.6-1.5,0-5.1.3-6.6.3-.8,0-1.6,0-2.2-.4,0-.1,0-.2.2-.1.2.1.6,0,1,0,2-.2,5.5-1,7.5-1.3,2.9-.7,5.8-1.1,8.7-.3,0,0,0,.2,0,.2h0Z" fill="#fff"/><path d="M214.6,335.8c-.8.8-1.7,1.2-2.8,1.2-.5,0-1-.2-1.5-.2-1.3.2-2.5,1.5-4.1,1.7-1,.2-1.9.3-3.1,0,0,0,0,0,0-.1,1-1.4,2.5-2,4-2.2,1-.2,2.1.3,3,0,1-.5,1.6-1.1,2.8-1,.5,0,1,.1,1.6.4,0,0,0,.1,0,.2h0Z" fill="#fff"/><path d="M210.1,345.6c-.8.7-1.8,1.1-2.8,1.1-.5,0-1-.3-1.5-.3-.5,0-1,.2-1.4.4-1.4.7-2.9,1-4.4.7-.3,0-1.4-.3-1.6-.8,0,0,0,0,0,0h0c1.3-.8,2.7-1.2,4.3-1.1,1,0,2,.5,3,.2,1-.4,1.7-1,2.9-.8.5,0,1,.2,1.5.5,0,0,0,.1,0,.2h0Z" fill="#fff"/><path d="M204.7,359.4c-1.1,1.1-2.5,1.8-4,2.1-1.5.2-3.1,0-4.5.6-1.1.3-2.3,1-3.4.6,0,0,.4,0,.4,0-2.6.3-5.3-.4-7.3-2.2,0,0,0-.2,0-.2,1.3,0,2.5.1,3.7.2,1.3,0,3,.3,3.9.5,1.8.3,3.7.5,5.3-.5,1.8-1,3.7-1.4,5.7-1.4,0,0,0,.2,0,.2h0Z" fill="#fff"/><path d="M214.3,329.2c-1.7,1.1-3.3,1.6-5.2,1.9,0,0-5.5,1.3-5.5,1.3v-.2c1.6-1,3.2-1.8,5-2.6,1.7-.9,3.7-1.6,5.7-.6,0,0,0,.2,0,.2h0Z" fill="#fff"/><path d="M206.6,355.5c-.6,1.8-2.4,2.4-4,2.6-1.2.2-2.4.3-3.6.2-.4,0-.9,0-1.2-.4,0,0,.2,0,.2,0,1.4,0,2.9-.8,4.2-1.3.7-.3,1.3-.8,2-.9.7-.2,1.4-.3,2.3-.3,0,0,.1.1.1.1h0Z" fill="#fff"/><path d="M204.2,326.4c-1.4,1.1-2.7,1.4-4.4,1.5-1.5.3-3,.6-4.5,1.1,0,0,0-.2,0-.2,1.3-1,2.7-1.8,4.2-2.4,1.5-.8,3.2-1.1,4.8-.2,0,0,0,.2,0,.2h0Z" fill="#fff"/><path d="M211.2,343.3c-1.6.7-3,.6-4.6.3-1.5-.2-3.1-.3-4.6-.2,0,0,0-.2,0-.2,1.5-.6,3.1-1,4.7-1.1,1.7-.3,3.4-.2,4.7,1.1,0,0,0,.2,0,.2h0Z" fill="#fff"/><path d="M212.7,339.5c-.9,1.2-2.2,1.4-3.5,1.1-1.2,0-2.4-.3-3.6-.6,0,0,0-.2,0-.2l1.8-.4,1.7-.4c.6-.1,1.1-.4,1.7-.3.6,0,1.1.2,1.8.6v.2h0Z" fill="#fff"/><path d="M157.8,347.6c3.2.5,5.8,2.1,8.4,3.7,1.9.9,4,1,6,1.5,3,.7,5.9,1.7,8.7,3.3,0,0,0,.2,0,.2-2.2.1-4.2-.2-6.2-.7-3.1-.7-5.7-2.6-8.6-3.7-2-.5-4.1-.9-5.9-2.1-.9-.5-1.7-1.2-2.5-2,0,0,0-.2,0-.2h0Z" fill="#fff"/><path d="M156.3,345.9c3.9,0,7.7.7,11.5,1.4,2.6.2,5.1-.5,7.7-.7,3.9-.5,7.7-.6,11.6-.3,0,0,.1.2,0,.2-3.7,1.4-7.6,2-11.5,1.9-2.6,0-5.2-.6-7.8-.5-1.9,0-3.9.5-5.9,0-.6,0-1.4-.2-1.9-.4-1.3-.3-2.5-.8-3.7-1.5,0,0,0-.2,0-.2h0Z" fill="#fff"/><path d="M156.5,345.4c2.3-1.7,4.8-2.1,7.5-2.3,1.7-.4,3.1-1.6,4.7-2.2,2.4-1.2,4.8-1.9,7.5-2.3,0,0,.2.1,0,.2-1.3,1.4-2.9,2.3-4.5,3-2.4,1.2-5.2,1.1-7.7,2-2.3,1.3-4.9,2.3-7.6,1.9,0,0-.1-.1,0-.2h0Z" fill="#fff"/><path d="M156.8,346.2l4.8,1.1c1.6.4,3.1,1,4.7,1.5,3.2,1,6.4,1.8,9.6,2.7,0,0,0,.2,0,.2-5-.5-10-1-14.8-2.5-1.6-.7-3.2-1.4-4.3-2.7,0,0,.1-.2.1-.2h0Z" fill="#fff"/><path d="M158.1,346c1.9-1.4,4.1-1.5,6.2-1.3,2.1,0,4.2.3,6.3.7,0,0,0,.2,0,.2l-6.2.7c-2.1.4-4.1.6-6.3,0,0,0,0-.2,0-.2h0Z" fill="#fff"/><path d="M150.7,338.9c-1.8-2.7-2.1-6-1.9-9.1-.3-3.1-1.5-6.1-1.4-9.2,0-2.1.2-4.2.9-6.2,0,0,.2,0,.2,0,.8,3.1,1,6.1.9,9.2,0,2-.4,4.1,0,6.2.9,3,1.8,5.9,1.5,9.1,0,0-.1.1-.2,0h0Z" fill="#fff"/><path d="M152,340.2c-.9-4,.2-7.9,1.8-11.5.9-2.5,1-5.1,1.9-7.6,1.1-3.8,2.8-7.3,5.4-10.4,0,0,.2,0,.2,0-.9,3.9-2.2,7.4-3.8,11-1,2.4-2.4,4.6-3,7.1-.5,3.8-1,7.6-2.2,11.3,0,0-.2,0-.2,0h0Z" fill="#fff"/><path d="M152.2,340.6c.8-2.7,2.8-4.6,5-6.1,1.8-1.9,2.9-4.5,5-6.2,1.3-1.1,2.8-2.2,4.6-2.8,0,0,.2,0,.1.2-1.5,2.3-3.2,4.2-5.2,5.9-1.3,1.2-3,2-4,3.4-1.4,2.3-2.8,4.5-5.3,5.8,0,0-.2,0-.1-.1h0Z" fill="#fff"/><path d="M151.2,339c-1.1-2.6-1.1-5.3-.8-8,.2-2.4.4-5.7.7-8,0,0,.2,0,.2,0,.2,2.3.5,5.7.6,8,.3,2.7.4,5.3-.6,8,0,0-.2,0-.2,0h0Z" fill="#fff"/><path d="M152.4,339.4c-.1-2.4.9-4.4,2.3-6.1,1.2-1.8,2.6-3.5,4.1-5.1,0,0,.2.1.2.1-1,1.9-2,3.9-2.9,5.8-.8,2.1-1.7,3.9-3.5,5.4,0,0-.2,0-.2,0h0Z" fill="#fff"/><path d="M140.8,341.1c-3.2.5-6.3-.6-9-2.2-2.9-1-6.2-1.2-9-2.6-1.9-.9-3.7-2-5.2-3.5,0,0,0-.2,0-.2,3.1.6,5.9,1.6,8.7,3.1,1.9.8,3.6,2.2,5.6,2.7,3.1.4,6.1.9,8.9,2.6,0,0,0,.2,0,.2h0Z" fill="#fff"/><path d="M143.3,340.9c-4.1-.6-7.2-3.1-10-6-2-1.7-4.3-2.9-6.3-4.6-3.1-2.5-5.7-5.4-7.6-8.9,0,0,0-.2.1-.1,3.2,2.3,6,4.8,8.7,7.7,1.8,1.8,3.3,4,5.5,5.5,3.4,1.9,6.7,3.8,9.7,6.3,0,0,0,.2,0,.2h0Z" fill="#fff"/><path d="M143.3,341.1c-2.3-1.5-3.5-4-4.4-6.5-1.3-2.3-3.4-4.1-4.4-6.6-.7-1.6-1.3-3.3-1.3-5.2,0,0,.1-.1.2,0,1.8,2.1,3.1,4.3,4,6.7.7,1.6,1,3.4,2,4.8,1.8,2,3.5,4,4,6.8,0,0,0,.2-.2.1h0Z" fill="#fff"/><path d="M142.9,341.6c-3.5.1-6.6-1.8-9.3-3.8-2.8-1.9-5.4-3.9-8-6,0,0,.1-.2.1-.2,1.4.8,2.9,1.7,4.3,2.5,2.8,1.7,5.9,3,8.7,4.6,0,0,4.2,2.6,4.2,2.6v.2h0Z" fill="#fff"/><path d="M142.2,340.4c-2.3-.8-3.7-2.5-4.8-4.5-1.2-1.8-2.3-3.7-3.3-5.7,0,0,.2-.1.2-.1,1.4,1.7,2.9,3.3,4.3,4.8,1.6,1.5,3,3.1,3.8,5.3,0,0-.1.1-.1.1h0Z" fill="#fff"/><path d="M141.7,351.3c-3.1.7-6.2.2-9.2-.4-2.1-.2-4.1.6-6.1.7-3.1.4-6.1.5-9.3,0,0,0-.1-.2,0-.2,2-.9,4-1.4,6.1-1.6,3.1-.4,6.2.4,9.3.4,3.1-.5,6.3-.6,9.3.9,0,0,0,.2,0,.2h0Z" fill="#fff"/><path d="M143,352.5c-3.5,1.8-7.1,2.9-10.8,4-2.4,1-4.4,2.8-6.6,4.1-3.2,2.2-6.6,4-10.2,5.5,0,0-.2,0-.1-.2,2.7-3,5.9-5.2,9.4-6.9,2.3-1.2,4.9-1.8,7.2-3.1,1.7-.9,3.3-2.2,5.2-2.7.5-.2,1.3-.4,1.9-.5,1.3-.3,2.6-.4,4-.3,0,0,.1.1,0,.2h0Z" fill="#fff"/><path d="M142.2,351.9l-4.8,1.3c-1.6.4-3.2.5-4.8.8-3.3.6-6.5,1.3-9.7,2,0,0,0-.2,0-.2,4.7-1.8,9.4-3.7,14.3-4.5,1.7-.1,3.5-.2,5.1.4,0,0,0,.2,0,.2h0Z" fill="#fff"/><path d="M141.7,353c-1.3,2-2.9,3.2-4.8,4.3-1.8,1.2-3.5,2.5-5.3,3.8h-.1c1.4-1.8,2.9-3.4,4.5-4.9,1.5-1.7,3.3-3,5.7-3.2,0,0,0,.2,0,.2h0Z" fill="#fff"/><path d="M147.7,340.8c-1.8-1.3-1.7,1.5-2.3,1.6-.7.1-1.1-.2-1.6.1-.5.3-.9.3-.8,1.7,0,1.4.7.6.6,1.4-.1.8-.6,1.2-.5,1.9s-.1.9.4,1.2.9.2.8.7c-.1.5.5.8.9,1.3.4.5.8,1.3,1.4,1.4s.5-.6.9.3c.4.9.3,1.5,1.3,1.2.9-.3,1.2-.3,1.4-.9.2-.7.8-.6,1.3-1.4.5-.8,1.4,0,1.8-.8.5-.7.8-2,.3-2.2s-.1-.7-.2-1.5c-.1-.9.6-2.2,0-2.3-.6,0-.9-.2-1.2-.8-.3-.6,0-1.2-.4-1.6s-1.7-.7-2-.3-1.9-.9-1.9-.9Z" fill="none" stroke="#fff" stroke-miterlimit="10" stroke-width=".9"/><path d="M148.7,351.5c1.3,1,1.3-1,1.8-1.1.5,0,.8.2,1.2,0s.7-.2.7-1.3c0-1.1-.5-.4-.4-1.1s.5-.9.5-1.4.1-.7-.3-.9-.7-.2-.6-.6-.3-.7-.6-1-.6-1-1-1.1-.4.4-.7-.3c-.2-.7-.2-1.1-.9-.9-.7.2-.9.2-1.1.6s-.6.4-1,1c-.4.6-1,0-1.4.5-.4.5-.7,1.5-.3,1.6s0,.5.1,1.2-.5,1.7,0,1.7.7.2.9.7c.2.5-.1.9.2,1.2.3.4,1.3.6,1.5.3.3-.3,1.4.8,1.4.8Z" fill="none" stroke="#fff" stroke-miterlimit="10" stroke-width=".7"/><path d="M147,344c-1.1-.3-.6,1-.9,1.2s-.6.1-.8.4-.4.3,0,1c.3.7.5.1.6.6,0,.4,0,.7,0,1s.1.5.4.5.5,0,.5.2.4.3.7.5.6.5.9.4.2-.4.5,0c.3.4.4.7.9.3.4-.3.5-.4.5-.7s.3-.5.4-1,.7-.3.8-.7,0-1.1-.3-1.1c-.3,0-.2-.3-.4-.7s-.1-1.2-.4-1.1-.5,0-.8-.2-.2-.6-.5-.7-1,0-1.1.2-1.1-.1-1.1-.1Z" fill="none" stroke="#fff" stroke-miterlimit="10" stroke-width=".5"/><path d="M241.2,163.2c-.2-.5-.3-.8-.3-1.1,0,0,0,0,.1,0,.3-.2.5-.4.6-.7.5,0,.9-.2,1.2-.5.2,0,.5,0,.7.1,6.3,12.1,17.8,22.5,26.3,14.9,1.7-1.6,7-.1,8.4-2.8,3-5.8-2.4-9.7-5.2-13.2-6.1-7.4-17.4-7-27.8-2.4-.8-.1-1.4-.3-1.7-.6,0-.4,0-.8-.3-1.2.2-.5.6-1,.9-1.3,2.7-.8,6.2-1.1,11.8-3.9,4-2,9.9-1.2,13.1-4.2,3.7-3.5,6-11.8,1.4-16-1.2-1.1-4.3-1.1-5.5-1.9-4.3-3-6.4-4.9-10-4-3.7.9-6.8,3.9-9.1,8.9-2,4.5-3.4,10.6-3.8,18.5-.3.5-.6.9-.9,1.2-.5,0-1,.1-1.4.6,0,0,0,0,0,0,0,0,0,0-.1-.1-.5-.4-1.2-.4-1.7,0-.3-.2-.6-.5-.7-.7,2.3-8.6,9.3-29.2-3.5-31.9-1.6-.3-3.9-3.6-7.5-3-4.2,1.5-4.5,5.8-6,7.1-5.5,4.9-.8,15.8,14.3,29.3.3.4.4.8.4,1.1,0,0,0,.2,0,.2,0,.6-.6.9-1.2,1.1-3.5-2.2-8.8-5.2-14.1-6.4-5.4-1.3-13.2-1.3-16.4,3.5-1.4,2.2,1.8,7.9,1.9,12.6-.7,5.8,2.2,7.2,6.1,9.3,7.2,3.9,17.1,1,24.8-13.2.5-.5.9-.8,1.2-.9.2,0,.4,0,.6,0,.3.3.4.9.4,1.5-3.6,8.1-21.5,23.4-.5,34.6,3,1.6.4-1.5,13,3.6,5.9-1.4,7.6-14.3-9.6-38.2Z" fill="none" stroke="#fff" stroke-miterlimit="10" stroke-width="2.4"/><path d="M233.8,156.6c-1.5,1.2.8,1.8.8,2.4s-.4.9-.3,1.4,0,.8,1.3,1.1c1.2.3.6-.5,1.3-.2s.9.8,1.5.9c.6.1.7.3,1.1,0s.4-.7.8-.5.8-.2,1.3-.4c.5-.3,1.3-.3,1.5-.8s-.3-.6.5-.7,1.3,0,1.3-.8c0-.9,0-1.1-.4-1.4s-.3-.8-.9-1.4.3-1.2-.2-1.7-1.5-1.2-1.8-.8-.6,0-1.4-.2-1.8-1-1.9-.5-.4.7-1,.8c-.6.1-1-.4-1.5,0-.5.3-1,1.3-.7,1.7.2.4-1.3,1.4-1.3,1.4Z" fill="none" stroke="#fff" stroke-miterlimit="10" stroke-width=".8"/><path d="M233.3,157.8c-2.1,0-4-.6-5.9-1.3-3.4-.4-6.7,0-10-1.2,0,0,0-.1,0-.1,1.4-.4,2.7-.4,4.1-.4,2.1,0,4,.9,6,1.3,2.1,0,4.2.3,5.9,1.6,0,0,0,.1,0,.1h0Z" fill="#fff"/><path d="M234.3,160.4c-2.6.5-5,.6-7.5.6-4.1.9-7.9,2.8-12.2,3.1,0,0-.1,0,0-.1,1.5-1,3-1.6,4.7-2.1,2.4-.8,5-.8,7.6-1.3,2.4-.8,5.1-1.2,7.6-.4,0,0,0,.1,0,.1h0Z" fill="#fff"/><path d="M235.6,161.5c-1.2,1.4-2.8,2-4.5,2.5-1,.5-1.8,1.4-2.7,2.1-1.4,1.1-2.8,1.9-4.5,2.5,0,0-.1,0,0,0,.6-1,1.5-1.8,2.5-2.5,1.4-1.1,3.2-1.4,4.7-2.3,1.3-1.2,2.8-2.1,4.6-2.2,0,0,0,0,0,.1h0Z" fill="#fff"/><path d="M233.9,159.3c-1.9.3-4.5.6-6.4.5-2.2.1-4.3.3-6.5.5h0c3.2-.9,6.4-1.7,9.7-1.8,1.1,0,2.3.2,3.3.7,0,0,0,.1,0,.1h0Z" fill="#fff"/><path d="M234.3,158c-1.8.6-3.5.4-5.3.1-1.7-.2-3.5-.5-5.2-.8h0c1.8-.2,3.5-.2,5.3-.2,1.8-.1,3.5,0,5.2.8,0,0,0,.1,0,.1h0Z" fill="#fff"/><path d="M232.9,156.7c-3.6-.5-6.7-2.5-10.4-3,0,0,0-.1,0-.1,1.8,0,3.7.2,5.5.6,1.8.3,3.6,1,4.9,2.4,0,0,0,.1,0,.1h0Z" fill="#fff"/><path d="M234,161.2c-2.2,1.9-5.2,2.1-7.8,3.3,0,0,0-.1,0-.1,1.2-.8,2.4-1.6,3.6-2.3,1.3-.8,2.6-1.3,4.2-1.1,0,0,0,.1,0,.1h0Z" fill="#fff"/><path d="M235.6,162.1c-.4,1.5-1.4,2.5-2.6,3.2-1.1.8-2.3,1.6-3.5,2.3h0c1-1.1,1.9-2,2.9-3,.9-1.1,1.8-2,3.2-2.6,0,0,0,0,0,0h0Z" fill="#fff"/><path d="M207.6,172.6c1.6-.5,3.2-.2,4.8.1.5,0,1.1,0,1.6-.2,2.1-.6,4.1-.8,6.2-1,0,0,0,.1,0,.1-.8.9-1.9,1.3-3,1.5-1.6.4-3.3-.1-4.9,0-1.1.2-2.1.5-3.2.2-.5-.1-1.1-.3-1.6-.6h0Z" fill="#fff"/><path d="M204,160.5c.7-1.1,1.7-1.7,2.8-2.1.7-.3,1.6-.2,2.3-.6.6-.4,1.2-1.1,2.1-1.1.4,0,.8-.1,1.3.2,0,0,0,0,0,0-.6.5-1.3.9-2,1.1-.4,0-.8,0-1.2.1-1.1.4-1.8,1.4-2.9,1.8-.7.3-1.4.5-2.3.5,0,0,0,0,0-.1h0Z" fill="#fff"/><path d="M204.9,169.7c1.9-.5,3.6-.8,5.5-1,1.9-.2,3.8-.8,5.6-1.1-1.6.9-3.6,1.5-5.4,2.1-1.8.6-3.9.9-5.8.1,0,0,0-.1,0-.1h0Z" fill="#fff"/><path d="M204,162.2c2.2-1.8,5.3-2.3,7.9-3.2,1-.2,1.9-.7,2.9-.5,0,0,0,.1,0,.1-.9,0-1.8.6-2.6.9,0,0-2.6,1.2-2.6,1.2-1.7.9-3.5,1.6-5.5,1.5,0,0,0,0,0-.1h0Z" fill="#fff"/><path d="M205.4,168.5c.5-.5,1-.9,1.7-.9.3,0,.7,0,1,0,.6,0,1.1-.7,1.7-1,.9-.5,1.7-.7,2.8-.6,0,0,0,0,0,0-.4.7-1,1.1-1.6,1.4-.9.5-2,.2-2.9.5-.9.7-1.7,1.1-2.8.6,0,0,0,0,0-.1h0Z" fill="#fff"/><path d="M205.4,163.9c.4-.6,1-1,1.6-1.1.3,0,.7,0,1,0,.3,0,.6-.2.9-.5.8-.7,1.7-1.1,2.7-1.1.3,0,.9,0,1.1.3,0,0,0,0,0,0h0c-.7.7-1.6,1.2-2.5,1.4-.6.2-1.4,0-1.9.3-.5.4-1,.9-1.7,1-.3,0-.7,0-1.1,0,0,0,0,0,0-.1h0Z" fill="#fff"/><path d="M203.4,157c.8-1.1,1.8-2,3.2-2.3.7-.1,1.3-.4,1.8-.7.6-.4,1.3-1,2.1-.9,0,0-.3,0-.3,0,1.6-.6,3.4-.6,4.9.3,0,0,0,.1,0,.1-1.6.3-3.5.7-4.9.7-.5,0-1.1.1-1.7.2-1.3.2-2.1,1.5-3.3,2-.6.3-1.2.5-1.9.7h0Z" fill="#fff"/><path d="M206.4,171.3c2.3-1,4.8-.6,7.2-1,0,0,0,.1,0,.1-1.1.5-2.3.9-3.5,1.2-1.2.4-2.6.6-3.7-.2,0,0,0-.1,0-.1h0Z" fill="#fff"/><path d="M203.1,156c.4-1.4,1.6-2,2.8-2.5,1.1-.5,2.3-.9,3.5-1.3,0,0,0,.1,0,.1l-3,2.1c-1,.8-1.9,1.3-3.2,1.7,0,0,0,0,0,0h0Z" fill="#fff"/><path d="M203.9,159.2c.3-2.1,2.7-2.5,4.4-2.9.3,0,.5-.1.8,0h0c-1.3.5-2.5,1.7-3.6,2.4-.4.2-.9.4-1.4.6h-.1Z" fill="#fff"/><path d="M209.3,174c1.1-.3,2-.1,3,.3,1,.3,2,.4,3,.6h0c-1,.4-2.1.5-3.1.4-1.1,0-2.2-.2-2.9-1.1,0,0,0-.1,0-.1h0Z" fill="#fff"/><path d="M205.3,165.6c.9-.7,1.8-.8,2.9-.9,1-.1,2-.3,3-.6h0c-.8.7-1.8,1.2-2.8,1.6-1,.5-2.1.6-3.1,0,0,0,0-.1,0-.1h0Z" fill="#fff"/><path d="M205.2,167.4c.4-.9,1.2-1.2,2-1.2.8-.1,1.6-.2,2.4-.2h0c-1.1.6-2.1,1.2-3.1,1.6-.4,0-.8,0-1.3,0h0Z" fill="#fff"/><path d="M272,133.6c.4,1.7-.3,3.3-1.2,4.7-.6,1.5-.7,3.2-1.6,4.6-.6.9-1.3,1.8-2.4,2.3,0,0,0-.1,0-.1.9-2,1.7-3.8,3-5.5.3-.4.6-.9.7-1.4.2-1,.2-2.1.7-3.1.2-.5.4-1,.8-1.4h.1Z" fill="#fff"/><path d="M261.6,126.2c-.5,1.2-1.1,2-2.1,2.7-.6.5-1.4.8-1.8,1.4-.2.3-.3.7-.5,1.1-.3.5-1.2,1.4-1.7,1.6-.2-.9.4-1.7.9-2.2.3-.2.7-.4,1-.7.8-.8,1.1-2.1,2-2.8.6-.5,1.3-.9,2.1-1.1,0,0,.1,0,0,0h0Z" fill="#fff"/><path d="M270.1,130.1c.2,2-.8,3.9-2,5.4-1.1,1.5-2.3,3.3-3.7,4.4.9-1.6,2.1-3.3,2.9-5,.8-1.8,1.6-3.3,2.7-4.9,0,0,.1,0,.1,0h0Z" fill="#fff"/><path d="M263.2,126.8c-.8,2.8-3.4,4.7-5.2,6.8-.6.7-1.4,1.3-1.7,2.2,0,0,0,0,0,0-.2-.2.1-.6.2-.8.6-1.2,2-3,2.8-4.1,1.1-1.6,2.3-3,3.9-4.1,0,0,.1,0,.1,0h0Z" fill="#fff"/><path d="M268.8,130.2c0,1.3-.6,1.9-1.5,2.5-.5.5-.5,1.3-.9,1.8-.5.9-1.3,1.6-2.4,1.8,0,0,0,0,0,0,.2-1.1.7-1.8,1.5-2.5.4-.5,1.2-.7,1.5-1.3.2-.6.3-1.3.9-1.7.2-.2.5-.4.9-.6,0,0,.1,0,.1,0h0Z" fill="#fff"/><path d="M264.4,128.6c0,.7-.4,1.3-.9,1.8-.3.2-.6.3-.9.5-.6.7-.8,1.8-1.5,2.5-.4.5-1,.9-1.6,1.2,0,0,0,0,0,0-.1-1.1.5-2,1.3-2.7.4-.5,1.2-.7,1.5-1.2.3-.6.4-1.3,1-1.7.3-.2.6-.4.9-.5,0,0,0,0,0,0h0Z" fill="#fff"/><path d="M258.5,124.5c-.7,1.1-1.6,2.1-2.8,2.7-.6.3-1.1.7-1.4,1.3-.3.5-.6,1-.8,1.5-.5,1.3-1.5,2.9-2.3,4.3,0,0-.1,0-.1,0-.3-1.7.3-3.4,1.4-4.8,0,0,0,.3,0,.3.2-.8,1-1.2,1.5-1.7,1.1-.8,1.5-2.2,2.7-2.9.5-.4,1.1-.7,1.8-.8h0Z" fill="#fff"/><path d="M271.1,132c.4,1.4-.3,2.6-1.1,3.6-.7,1-1.4,2-2.3,2.9h-.1c.8-1.7,1.4-3.5,2.2-5.1.3-.5.7-1,1.1-1.5h.1Z" fill="#fff"/><path d="M257.6,123.9c-.7,1.1-1.5,1.8-2.6,2.5,0,0-2.9,2.2-2.9,2.2h0c.7-1.1,1.5-2,2.4-2.9.8-1,1.8-1.9,3.2-1.8,0,0,0,.1,0,.1h0Z" fill="#fff"/><path d="M260.4,125.7c-1.1,1.7-3.2,2.2-4.4,3.8,0,0-.1,0-.1,0,0-.6.4-1,.7-1.5,1-1.2,2-2.9,3.8-2.5,0,0,0,.1,0,.1h0Z" fill="#fff"/><path d="M266.1,129c.2,1.2-.3,2.2-1.1,3-.7.8-1.4,1.6-2.3,2.2h0c.9-1.3,1.5-2.7,2.2-4,.3-.4.6-.8,1.1-1.1,0,0,.1,0,.1,0h0Z" fill="#fff"/><path d="M267.8,129.6c0,1-.4,1.5-1.1,2-.5.5-1.1,1.1-1.6,1.7h-.1c.2-.8.6-1.5.9-2.2.3-.8.8-1.5,1.8-1.5,0,0,0,0,0,0h0Z" fill="#fff"/><path d="M275.5,162.3c-1.7-.2-3-1-4.4-1.9-.5-.2-1-.3-1.5-.4-2.2-.2-4.1-.8-6.1-1.4,0,0,0-.1,0-.1,1.1-.5,2.2-.4,3.3-.3,1.7.2,3,1.3,4.5,1.9,1.1.2,2.2.3,3.1,1,.5.3.9.7,1.2,1.1,0,0,0,.1,0,.1h0Z" fill="#fff"/><path d="M276.1,174.1c-1.2.4-2.4.3-3.5-.2-.7-.2-1.3-.9-2.1-1-.8,0-1.6,0-2.3-.5-.3-.2-.7-.4-.9-1,0,0,0,0,0,0,.8,0,1.6,0,2.3.5.3.2.6.5,1,.6,1.1.4,2.3,0,3.4.4.7.2,1.4.5,2.1,1,0,0,0,.1,0,.1h0Z" fill="#fff"/><path d="M277.4,165.9c-1.8-.8-3.3-1.7-4.9-2.8-1.6-1-3.5-1.8-5.1-2.7,1.9.3,3.7,1.1,5.5,1.8,1.8.7,3.6,1.8,4.5,3.6,0,0,0,.1,0,0h0Z" fill="#fff"/><path d="M278,173.2c-2.9,0-5.5-1.6-8.1-2.6-.8-.5-1.9-.7-2.5-1.5,0,0,0-.1,0,0,.7.5,1.8.7,2.6.9,0,0,2.7.7,2.7.7,1.9.4,3.7,1,5.2,2.3,0,0,0,.1,0,.1h0Z" fill="#fff"/><path d="M279.2,167.4c-.7.1-1.4,0-1.9-.4-.3-.2-.5-.5-.8-.7-.6-.3-1.3-.1-1.9-.3-1-.2-1.8-.6-2.6-1.3,0,0,0,0,0-.1.7-.3,1.4-.2,2.1,0,1,.2,1.7,1.1,2.6,1.4,1.1,0,2,.2,2.6,1.3,0,0,0,.1,0,.1h0Z" fill="#fff"/><path d="M278.7,171.9c-.7.2-1.4.2-2-.2-.3-.2-.5-.5-.8-.6-.3-.1-.6-.2-1-.2-1,0-2-.2-2.8-.9-.2-.2-.7-.6-.7-.9,0,0,0,0,0,0h0c1,0,2,0,2.8.6.6.2,1,.9,1.7,1,.6,0,1.3-.1,1.9.3.3.2.6.4.8.7,0,0,0,.1,0,.1h0Z" fill="#fff"/><path d="M269.4,176.1c-1.3.4-2.7.4-3.9-.3-.6-.3-1.2-.5-1.9-.6-.7-.1-1.6,0-2.2-.6,0,0,.2.2.2.2-1.6-.5-3-1.7-3.7-3.3,0,0,0,0,0,0,1.4.8,3.1,1.7,4.2,2.5.4.3.9.6,1.4.9,1.2.7,2.6.1,3.8.5.6.2,1.2.3,1.9.7,0,0,0,.1,0,.1h0Z" fill="#fff"/><path d="M269,177.1c-1.2.8-2.5.5-3.7.1-1.2-.3-2.4-.7-3.5-1.2h0c0-.1,3.6.2,3.6.2,1.3,0,2.3.2,3.5.7,0,0,0,.1,0,.1h0Z" fill="#fff"/><path d="M271.3,174.5c-1.5,1.4-3.7.2-5.3-.5-.2-.1-.5-.2-.6-.6h.1c1.3.5,2.9.3,4.3.5.5.1.9.2,1.4.5h0Z" fill="#fff"/><path d="M279.2,170.8c-3.3-.3-5.9-2.5-9.1-3.4,0,0,0-.1,0-.1,1.6.2,3.2.6,4.8,1,1.6.4,3.2,1,4.3,2.4,0,0,0,.1,0,.1h0Z" fill="#fff"/><path d="M278.9,168.6c-.9.5-1.7.2-2.4-.3-.7-.4-1.3-.8-1.9-1.4h0c1.1.2,2.3.4,3.4.7.3.2.6.4.9.9h0Z" fill="#fff"/><path d="M220.2,125.9c.7,1.5.7,3.1.7,4.7,0,.5.2,1,.5,1.5,1,2,1.5,3.9,2,6,0,0,0,0,0,0-1-.7-1.6-1.7-2-2.7-.7-1.5-.4-3.2-.8-4.8-.4-1-.9-2-.7-3.2,0-.5.1-1.1.3-1.6h.1Z" fill="#fff"/><path d="M230,119.2c1,.8,1.5,1.9,1.6,3.1.2.7,0,1.6.3,2.3.3.7.9,1.3.8,2.2,0,.4,0,.8-.4,1.2,0,0,0,0,0,0-.4-.7-.7-1.4-.8-2.2,0-.4.1-.8,0-1.2-.3-1.1-1.2-2-1.4-3.1-.2-.7-.3-1.5-.2-2.3,0,0,0,0,.1,0h0Z" fill="#fff"/><path d="M222.3,122.4c.3,1.9.3,3.7.2,5.6,0,1.9.3,3.9.3,5.7-.7-1.7-1-3.8-1.3-5.7-.3-1.9-.4-4,.7-5.7,0,0,.1,0,.1,0h0Z" fill="#fff"/><path d="M228.3,118.1c1.5,2.5,1.6,5.5,2,8.3,0,1,.4,2,0,2.9,0,0-.1,0,0,0,.1-.9-.4-1.9-.6-2.7,0,0-.8-2.7-.8-2.7-.6-1.8-1.1-3.7-.7-5.7,0,0,0,0,.1,0h0Z" fill="#fff"/><path d="M222.7,120c.5.6.7,1.2.7,1.8,0,.3-.2.7-.2,1,0,.7.6,1.2.7,1.8.4.9.5,1.8.2,2.9,0,0,0,0,0,0-.6-.5-.9-1.1-1.2-1.7-.4-1,0-2-.1-3-.5-.9-.9-1.8-.3-2.9,0,0,0,0,.1,0h0Z" fill="#fff"/><path d="M226.8,118.1c.5.5.8,1.1.9,1.8,0,.3-.1.7,0,1,0,.3.2.6.3.9.5.9.9,1.8.7,2.8,0,.3-.1.9-.4,1.1,0,0,0,0,0,0h0c-.5-.9-.9-1.8-.9-2.8,0-.6.2-1.4,0-2-.3-.6-.8-1.1-.7-1.8,0-.3,0-.7.2-1,0,0,0,0,.1,0h0Z" fill="#fff"/><path d="M234.7,121.2c1,.9,1.7,2.1,1.8,3.5,0,.7.2,1.3.5,1.9.3.7.8,1.4.6,2.2,0,0,0-.3,0-.3.4,1.7.1,3.5-.9,4.9,0,0-.1,0-.1,0-.1-1.6-.2-3.5,0-4.9,0-.5,0-1.1,0-1.7,0-1.3-1.2-2.3-1.5-3.5-.2-.6-.4-1.2-.4-1.9h.1Z" fill="#fff"/><path d="M237,122.6c1.3.6,1.8,1.9,2.1,3.1.3,1.2.6,2.4.8,3.6h-.1s-1.6-3.3-1.6-3.3c-.7-1.1-1.1-2.1-1.2-3.4,0,0,0,0,0,0h0Z" fill="#fff"/><path d="M232.1,120.5c2,.5,2.1,3.1,2.3,4.8,0,.3,0,.5-.2.8h0c-.2-1.5-1.2-2.8-1.8-4-.2-.5-.3-.9-.4-1.5h0Z" fill="#fff"/><path d="M225.5,118.2c1.4,3,1,6.4,1.9,9.5,0,0-.1,0-.1,0-.7-1.5-1.2-3.1-1.7-4.6-.5-1.6-.8-3.3-.2-4.9,0,0,.1,0,.1,0h0Z" fill="#fff"/><path d="M223.9,119.7c.8.5,1,1.3.9,2.2,0,.8,0,1.6-.2,2.4h-.1c-.3-1.1-.8-2.2-1-3.3,0-.4,0-.8.3-1.2h.1Z" fill="#fff"/><path d="M253.6,197.9c-.9-1.4-1.1-3-1.2-4.6-.1-.5-.4-1-.6-1.5-1.2-1.8-1.9-3.7-2.7-5.7,0,0,0,0,0,0,1.1.5,1.7,1.5,2.3,2.4.8,1.4.8,3.2,1.3,4.7.5,1,1.1,1.9,1.1,3.1,0,.5,0,1.1-.1,1.7h-.1Z" fill="#fff"/><path d="M237.1,196.9c-.9-.9-1.3-2-1.5-3.2-.1-.8.1-1.6-.1-2.3-.3-.7-.8-1.4-.6-2.2,0-.4,0-.8.5-1.2,0,0,0,0,0,0,.3.7.6,1.4.6,2.2,0,.4-.2.8-.1,1.2.2,1.1,1,2.1,1.2,3.2.1.7.2,1.5,0,2.3,0,0,0,0-.1,0h0Z" fill="#fff"/><path d="M250.2,200.9c-.7-1.8-1.2-3.5-1.6-5.4-.4-1.8-1.2-3.7-1.7-5.5,1.1,1.5,1.9,3.4,2.6,5.2.8,1.8,1.3,3.8.7,5.7,0,0-.1,0-.1,0h0Z" fill="#fff"/><path d="M239.2,198c-1.3-2.5-1.2-5.6-1.5-8.4,0-1-.3-2,.1-2.9,0,0,.1,0,0,0-.2.9.3,1.9.4,2.8,0,0,.6,2.8.6,2.8.5,1.9.9,3.8.4,5.7,0,0-.1,0-.1,0h0Z" fill="#fff"/><path d="M248.2,200.5c-.5-.5-.8-1.1-.8-1.8,0-.3.1-.7,0-1,0-.7-.7-1.2-.9-1.7-.5-.9-.6-1.8-.5-2.9,0,0,0,0,0,0,.7.4,1,1,1.3,1.6.4.9,0,2,.4,2.9.6.9,1,1.7.5,2.9,0,0,0,0-.1,0h0Z" fill="#fff"/><path d="M241.6,197.8c-.5-.5-.8-1.1-.8-1.8,0-.3.2-.7.2-1,0-.3-.1-.6-.3-.9-.5-.9-.7-1.9-.5-2.9,0-.3.2-.9.5-1,0,0,0,0,0,0h0c.5.9.8,1.8.8,2.8,0,.6-.3,1.3,0,2,.3.6.7,1.1.6,1.9,0,.3,0,.7-.3,1,0,0,0,0-.1,0h0Z" fill="#fff"/><path d="M232.5,194.6c-1-1-1.6-2.2-1.6-3.6,0-.7-.1-1.3-.4-1.9-.2-.7-.7-1.5-.5-2.2,0,0,0,.3,0,.3-.3-1.7.1-3.5,1.2-4.8,0,0,.1,0,.1,0,0,1.6,0,3.5-.2,4.9,0,.5-.1,1.1-.1,1.7,0,1.3,1.1,2.3,1.3,3.6.2.6.3,1.2.3,2h-.1Z" fill="#fff"/><path d="M252.5,200.2c-1.4-2.1-1.5-4.6-2.3-6.9,0,0,.1,0,.1,0,.7,1,1.3,2.1,1.8,3.2.6,1.1,1.1,2.4.5,3.7,0,0-.1,0-.1,0h0Z" fill="#fff"/><path d="M235.1,195.8c-2-.7-1.9-3.2-2-4.9,0-.3,0-.5.2-.8h0c.1,1.5,1.1,2.9,1.6,4.1.1.5.2.9.3,1.5h0Z" fill="#fff"/><path d="M254.1,193.5c-.8-.9-1-1.8-1.1-2.8-.2-1-.5-2-.8-2.9h.1c.7.7,1.2,1.7,1.6,2.6.5,1,.8,2,.3,3.1,0,0-.1,0-.1,0h0Z" fill="#fff"/><path d="M243.2,198.5c-.5-1-.5-2-.3-3,0-1,0-2,0-3,0,0,.1,0,.1,0,.4,1,.7,2,.9,3,.3,1.1.2,2.2-.6,3.1,0,0-.1,0-.1,0h0Z" fill="#fff"/><path d="M245.7,199.4c-.8-.6-1-1.4-.8-2.2,0-.8.1-1.6.3-2.4h.1c.3,1.1.7,2.2.8,3.4,0,.4,0,.8-.3,1.2h-.1Z" fill="#fff"/><path d="M239,163.7c-.3,2.1-1.2,3.8-2.2,5.6-1,3.2-1.1,6.6-2.8,9.7,0,0-.1,0-.1,0-.1-1.4,0-2.8.3-4.1.4-2,1.6-3.8,2.2-5.7.3-2,1-4.1,2.5-5.5,0,0,.1,0,.1,0h0Z" fill="#fff"/><path d="M240.1,162.7c.1,2.6-.2,5-.6,7.5.2,4.2,1.5,8.3,1.1,12.6,0,0,0,0-.1,0-.7-1.6-1.1-3.3-1.3-4.9-.4-2.5,0-5.1,0-7.7-.4-2.5-.4-5.2.9-7.6,0,0,.1,0,.1,0h0Z" fill="#fff"/><path d="M240.4,162.8c1.2,1.4,1.5,3.1,1.7,4.8,1.2,2.7,2.8,4.7,3.3,7.9,0,0,0,.1-.1,0-.9-.8-1.5-1.8-2.1-2.8-.8-1.6-.9-3.4-1.5-5-.9-1.5-1.6-3.1-1.4-4.9,0,0,0,0,.1,0h0Z" fill="#fff"/><path d="M240,163c-.3,1.9-.8,4.5-1.5,6.3-.5,2.1-1,4.2-1.5,6.3h-.1c.2-3.3.4-6.6,1.3-9.8.4-1,.9-2.1,1.7-2.9h.1Z" fill="#fff"/><path d="M240.1,163.8c1,1.2,1.1,2.6,1,4,0,1.4-.1,2.8-.3,4.1h-.1c-.2-1.4-.4-2.7-.6-4.1-.3-1.4-.5-2.7-.1-4.1,0,0,.1,0,.1,0h0Z" fill="#fff"/><path d="M244.6,158.8c1.7-1.2,3.8-1.5,5.9-1.5,2-.3,3.9-1.1,6-1.1,1.4,0,2.7,0,4.1.5,0,0,0,.1,0,.1-3.3,1.1-6.7.6-10,1-1.9.7-3.8,1.3-5.9,1.2,0,0,0,0,0-.1h0Z" fill="#fff"/><path d="M243.7,159.7c2.6-.7,5.2,0,7.6.9,2.5.6,5.1.8,7.4,1.8,1.6.6,3.1,1.4,4.5,2.5,0,0,0,.1,0,.1-4.3-.6-7.9-2.8-12-4-2.5-.2-5-.5-7.5-1.2,0,0,0-.1,0-.1h0Z" fill="#fff"/><path d="M243.5,159.9c1.8.5,3,1.7,4.1,3.1,1.3,1.1,3,1.8,4.2,3.1.8.9,1.5,1.8,1.9,2.9,0,0,0,.1,0,0-1.5-.9-2.8-2-4-3.3-.8-.8-1.4-1.9-2.3-2.5-1.5-.8-3-1.7-3.9-3.3,0,0,0-.1,0-.1h0Z" fill="#fff"/><path d="M244.5,159.2c1.7-.8,3.4-.8,5.2-.7,1.8,0,3.5.1,5.3.2,0,0,0,.1,0,.1-1.7.3-3.5.5-5.2.7-1.8.3-3.5.4-5.3-.2,0,0,0-.1,0-.1h0Z" fill="#fff"/><path d="M244.3,160c1.5-.1,2.9.5,4.1,1.4,1.2.8,2.4,1.6,3.5,2.5,0,0,0,.1,0,.1-1.3-.6-2.6-1.2-3.9-1.8-1.4-.5-2.6-1-3.6-2.1,0,0,0-.1,0-.1h0Z" fill="#fff"/><path d="M242.9,152.4c-.4-2.1.3-4.1,1.2-6,.6-1.9.7-4,1.5-5.9.5-1.2,1.2-2.4,2.1-3.5,0,0,.1,0,.1,0-.4,3.5-2.3,6.3-3.4,9.5-.2,2-.4,4-1.5,5.9,0,0-.1,0-.1,0h0Z" fill="#fff"/><path d="M243.1,154.1c.3-2.7,1.9-4.8,3.7-6.7,1.5-2,2.7-4.4,4.5-6.2,1.2-1.2,2.5-2.4,4-3.2,0,0,.1,0,0,0-2.2,3.7-5.6,6.3-8.2,9.6-1.2,2.3-2.3,4.4-3.9,6.5,0,0-.1,0-.1,0h0Z" fill="#fff"/><path d="M243,154c1-1.6,2.5-2.4,4.2-3,1.5-.9,2.6-2.3,4.2-3,1-.5,2.1-.9,3.4-1,0,0,0,0,0,.1-1.3,1.2-2.7,2.1-4.3,2.8-1,.5-2.2.7-3.1,1.4-1.2,1.2-2.5,2.4-4.3,2.8,0,0-.1,0,0-.1h0Z" fill="#fff"/><path d="M242.6,153.8c-.2-2.3,1-4.3,2.2-6.2,1.2-1.9,2.4-3.6,3.7-5.4,0,0,.1,0,.1,0-1.6,2.8-2.9,5.8-4.3,8.7,0,0-1.6,2.8-1.6,2.8,0,0-.1,0-.1,0h0Z" fill="#fff"/><path d="M243.4,153.3c.4-1.5,1.5-2.5,2.8-3.3,1.2-.8,2.4-1.6,3.6-2.3h0c-1,1.1-2.1,2-3.1,3-1,1.1-1.9,2-3.3,2.6,0,0,0,0,0,0h0Z" fill="#fff"/><path d="M236.2,153.3c-.5-2.1-.2-4,0-6-.3-3.4-1.4-6.6-.9-10,0,0,0,0,.1,0,.6,1.3,1,2.6,1.2,3.9.3,2-.1,4.1,0,6.1.4,2,.6,4.1-.3,6.1,0,0-.1,0-.1,0h0Z" fill="#fff"/><path d="M235.5,154.1c-1.3-2.3-2-4.6-2.9-7-2.1-3.7-5.1-6.7-6.7-10.7,0,0,0-.1,0,0,1.4,1.1,2.5,2.4,3.4,3.8,1.5,2.1,2.3,4.6,3.5,6.8,1.5,2.1,2.7,4.5,2.6,7.1,0,0,0,0-.1,0h0Z" fill="#fff"/><path d="M235.9,153.6c-.6-1.8-1.3-4.4-1.6-6.2-.5-2.1-1-4.2-1.6-6.3,0,0,.1,0,.1,0,1.3,3,2.6,6,3.3,9.2.1,1.1.2,2.3-.2,3.4h-.1Z" fill="#fff"/><path d="M235.1,153.3c-2.4-1.5-3.6-4.3-5.5-6.4,0,0,0,0,0,0,1.2.8,2.2,1.8,3.3,2.8,1.1,1,2.1,2.1,2.3,3.7,0,0-.1,0-.1,0h0Z" fill="#fff"/><path d="M243.2,156.9c.8-1.2-1-1-1.1-1.5s0-.7-.1-1-.2-.6-1.1-.5-.3.5-.9.4-.8-.4-1.3-.3-.6,0-.8.3c-.2.4-.1.6-.5.5s-.5.3-.8.6c-.3.3-.8.6-.9.9s.4.3-.2.6c-.6.3-.9.2-.7.9.2.6.2.8.6.9s.4.5,1,.8c.5.3,0,.9.6,1.2s1.3.5,1.4.2.4,0,1-.2,1.5.3,1.5,0,.1-.6.5-.8.8,0,1.1-.3.4-1.1.1-1.3.6-1.3.6-1.3Z" fill="none" stroke="#fff" stroke-miterlimit="10" stroke-width=".6"/><path d="M236.3,157.8c-.6.9.7.8.8,1.2s0,.5,0,.8.1.4.8.4.3-.4.7-.3.6.3.9.3.5,0,.6-.2.1-.4.4-.4.4-.2.7-.4.7-.4.7-.7-.3-.3.2-.4.7-.2.6-.6-.1-.6-.4-.7-.3-.4-.7-.6,0-.7-.4-.9c-.4-.2-1-.4-1.1-.2s-.3,0-.8.1c-.4,0-1.1-.3-1.1,0s-.1.4-.4.6-.6,0-.8.2-.3.8-.2,1-.5.9-.5.9Z" fill="none" stroke="#fff" stroke-miterlimit="10" stroke-width=".4"/><path d="M241.1,156.6c.2-.8-.7-.3-.8-.5s0-.4-.3-.5-.2-.2-.7,0,0,.3-.4.4-.5,0-.7,0-.3,0-.3.3,0,.3-.1.4-.2.3-.3.5-.3.4-.3.6.3,0,0,.3-.4.3-.2.6.2.3.5.3.3.2.6.2.2.4.5.5.7,0,.7-.2.2-.1.5-.3.8-.1.7-.3,0-.3.1-.5.4-.1.5-.3,0-.6-.2-.7,0-.7,0-.7Z" fill="none" stroke="#fff" stroke-miterlimit="10" stroke-width=".3"/><path d="M78.7,69.2c-.2.8-.5,1.4-.8,1.9,0,0-.1,0-.2,0-.6,0-1.1,0-1.6.3-.6-.5-1.4-.7-2.2-.6-.3-.3-.6-.7-.8-1,4.8-23.1.8-49.6-19.1-48.7-4,.2-9.6-7.5-14.3-5.5-10.3,4.5-7.4,15.7-7.4,23.3.1,16.5,15.7,28.4,34.6,33.5,1,1.1,1.5,1.9,1.6,2.6-.6.5-.9,1.1-1,1.9-.8.5-2,.7-2.7.8-4.6-1.9-9.5-5.3-20.1-7.7-7.5-1.7-14.5-9.2-22.2-8.6-8.9.6-20.9,9.3-19.3,20,.4,2.7,4.5,6.3,5.2,8.6,2.5,8.7,3.3,13.6,9.1,16.4,5.9,2.8,13.3,2.3,21.9-2,7.6-3.8,16.1-10.5,25.3-20.5.9-.3,1.7-.5,2.4-.6.6.6,1.6.9,2.5.7,0,0,0,0,0,0,0,.1,0,.2,0,.3.3,1.1,1.2,1.8,2.2,2,.2.7.2,1.3.2,1.6-12.5,9-44.4,28.9-30.2,46.5,1.8,2.2,1.2,9.1,6.8,12.2,7.2,2.5,12.4-2.8,15.9-3,12.6-.5,18.4-20.2,12.9-54.9.1-.9.3-1.5.6-2,.1,0,.2-.2.3-.3.8-.7,1.9-.6,2.9-.1,2.3,6.8,6.2,16.6,11.9,24,5.8,7.6,16.3,16.2,25.8,13.2,4.3-1.4,6.2-12.6,11.2-18.9,7.3-7.1,4.9-12,1.9-19.2-5.4-13.2-21.8-20-47.6-9.5-1.3.1-2.1,0-2.6-.2-.2-.3-.4-.5-.7-.7-.2-.7.5-1.7,1.1-2.4,13.6-6.9,54.4-7.9,38.5-45.8-2.3-5.4-2.1,1.6-13.5-19-9.4-4.6-25.8,10.9-28.9,61.6Z" fill="none" stroke="#fff" stroke-miterlimit="10" stroke-width="4.1"/><path d="M81.5,86.1c3.4,0,.8-3.3,1.6-4,.7-.7,1.5-.7,1.9-1.6.4-.8.8-1.1-.5-2.8s-1.4,0-1.9-1.2c-.5-1.2-.3-2-1-2.9-.6-.8-.6-1.3-1.6-1.1s-1.3.5-1.6-.2-1.3-.7-2.2-.9-2.1-1-2.9-.5c-.8.5-.2,1.2-1.4.4-1.2-.8-1.7-1.5-2.6-.4-.9,1.2-1.3,1.4-1,2.4.3,1-.5,1.5-.4,2.9s-1.6,1.3-1.6,2.6c0,1.3.7,3.2,1.5,3,.8-.2.7.7,1.6,1.7s1.2,3.3,2,2.8,1.3-.5,2.2,0c.9.5.9,1.5,1.9,1.7s2.7-.7,2.8-1.4c0-.8,3.2-.4,3.2-.4Z" fill="none" stroke="#fff" stroke-miterlimit="10" stroke-width="1.4"/><path d="M83.5,85.1c2.9,2.2,4.7,5.1,6.5,8.2,1.4,1.9,3.5,3.1,5.2,4.7,2.7,2.3,5,4.8,7,7.8,0,0,0,.2-.1.2-2.2-1-4.1-2.4-5.9-4-2.7-2.3-4.3-5.6-6.6-8.2-2.8-2.3-5.2-4.9-6.1-8.5,0,0,0-.2.2-.1h0Z" fill="#fff"/><path d="M85,80.5c3.9,2,7.3,4.7,10.8,7.4,2.5,1.6,5.4,2.2,8.1,3.4,4.1,1.6,8,3.4,11.8,5.8,0,0,0,.2,0,.2-4.5-.5-8.7-2-12.6-4.1-2.6-1.3-4.9-3.3-7.5-4.6-2-1-4.2-1.6-5.9-3-.5-.4-1.3-1-1.7-1.4-1.1-1-2.1-2.1-2.9-3.4,0,0,0-.2.2-.2h0Z" fill="#fff"/><path d="M84.4,77.6c3.3-.5,5.8.4,8.7,1.6,1.9.5,4,0,5.9.3,3,0,5.8.6,8.7,1.6,0,0,0,.2,0,.2-2,.7-4,.8-6,.7-3-.1-5.8-1.6-8.7-2.1-3,.1-6-.2-8.7-2.1,0,0,0-.2,0-.2h0Z" fill="#fff"/><path d="M84.3,82.5l4.7,3c1.6,1,2.9,2.3,4.4,3.4,3,2.2,6.1,4.3,9.2,6.5,0,0-.1.2-.1.2-5.1-2.5-10.3-4.9-14.8-8.3-1.4-1.3-2.9-2.8-3.6-4.6,0,0,.2-.1.2-.1h0Z" fill="#fff"/><path d="M82.3,83.7c2.9,1.3,5.1,3.3,7.1,5.6,0,0,3.1,3.3,3.1,3.3,1,1.1,2.1,2.2,3.1,3.3v.2c-2.3-1.5-5.3-3.9-7.4-5.5-2.5-1.8-4.8-3.8-6.1-6.8,0,0,.2-.2.2-.2h0Z" fill="#fff"/><path d="M82.8,87c2.3,2.3,3.7,4.9,5.2,7.7,1.6,2.7,3.4,5.2,5.4,7.6,0,0-.1.2-.1.2-2.5-1.9-4.7-4.3-6.7-6.8-2.1-2.4-3.8-5.3-4-8.6,0,0,.2,0,.2,0h0Z" fill="#fff"/><path d="M86.2,79.8c2.6-.1,4.8.6,7.1,1.7,0,0,3.4,1.2,3.4,1.2,4.6,1.5,4.6,1.6-.2,1.1-3.7-.6-7.8-.7-10.4-3.7,0,0,0-.2,0-.2h0Z" fill="#fff"/><path d="M85,76.9c2.1-1.6,4.6-1.8,7-1.5,2.4,0,4.8.3,7.1.7,0,0,0,.2,0,.2l-3.5.4-3.5.4c-1.2.1-2.3.5-3.5.4-1.2,0-2.3-.1-3.6-.5v-.2h0Z" fill="#fff"/><path d="M134,93.3c-1.7-.8-3.2-1.8-4.5-3.2-.6-.7-1.1-1.5-1.8-2.2-1.4-1.3-3.3-1.7-4.9-2.6-2.5-1.2-4.6-2.7-6.9-4.3,0,0,0-.2,0-.2,1-.2,2,0,3,.2,1.9.5,3.6,1.4,5.1,2.6,1.5,1.1,2.6,2.8,4.2,3.8,1.6.9,3.5,1.6,4.6,3.3.6.8,1.1,1.6,1.4,2.5h-.2Z" fill="#fff"/><path d="M125.5,113.5c-2.1.7-4.1.5-6-.3-1.3-.4-2.3-1.5-3.6-1.7-1.4-.1-2.7.1-3.9-.8-.6-.5-1.3-.8-1.5-1.7,0,0,0,0,0,0,1.3,0,2.7.2,3.9.8.6.3,1.1.9,1.7,1.1,1.8.6,4,0,5.9.7,1.2.4,2.4.9,3.6,1.8,0,0,0,.2,0,.2h0Z" fill="#fff"/><path d="M134.4,100.1c-3.1-1.3-5.7-2.9-8.5-4.8-2.8-1.8-6-3.1-8.8-4.7,3.2.5,6.5,1.9,9.5,3.2,3.1,1.2,6.2,3,7.8,6.2,0,0,0,.2-.2.2h0Z" fill="#fff"/><path d="M127.4,111.2c-3.4-.1-6.5-1.1-9.5-2.5-1.6-.7-5.3-2.2-6.8-2.9-.7-.4-1.7-.7-2.1-1.5,0-.2.2-.2.2,0,0,0,.2.2.4.3,2.4,1,6.3,1.8,8.8,2.5,3.3.7,6.5,1.7,9,4,0,0,0,.2,0,.2h0Z" fill="#fff"/><path d="M132.5,101.1c-1.2.2-2.3,0-3.4-.6-.5-.3-.8-.9-1.3-1.1-.5-.3-1-.4-1.6-.4-1.1,0-2.2-.2-3.3-.5-1-.4-2-1-2.9-1.9,0,0,0-.1,0-.2,1.8-.7,3.6-.4,5.2.5,1,.4,1.8,1.6,2.9,1.8.5.1,1.2,0,1.8.1.6,0,1.1.4,1.5.7.5.4.9.8,1.2,1.4,0,0,0,.2,0,.2h0Z" fill="#fff"/><path d="M127.4,107.4c-1.2.3-2.4.3-3.4-.3-.5-.3-.9-.8-1.4-1.1-1-.5-2.3-.1-3.4-.4-1.1-.2-2.2-.6-3.1-1.3-.5-.4-.9-.8-1.2-1.5,0,0,0,0,0,0,0,0,0,0,0,0h.1c1.7,0,3.4.1,4.8,1,1,.4,1.8,1.5,2.9,1.7.5.1,1.2,0,1.8,0,.6,0,1.1.3,1.6.6.5.3,1,.7,1.4,1.2,0,0,0,.2,0,.2h0Z" fill="#fff"/><path d="M122.6,118.9c-1.7.6-3.4.6-5.1.2-1.6-.5-3.1-1.5-4.9-1.6-1.3-.2-2.8-.1-3.8-1.1,0,0,.4.3.4.3-2.8-.9-5.3-3-6.3-5.8,0,0,.2-.1.2-.1,1.3.7,2.5,1.3,3.6,2,1.2.7,2.9,1.7,3.8,2.4.7.5,1.6,1,2.4,1.4,2,1.1,4.4.2,6.6.9,1.1.3,2.1.6,3.2,1.2,0,0,0,.2,0,.2h0Z" fill="#fff"/><path d="M134.1,96.4c-2.2-.6-3.9-1.5-5.5-2.9,0,0-5.3-3.6-5.3-3.6,0,0,0-.2,0-.2,2.1.6,4.1,1.4,6,2.3,2.1.8,4.2,2,4.8,4.3,0,0-.2.1-.2.1h0Z" fill="#fff"/><path d="M121.9,120.5c-2,1.4-4.3,1-6.5.2-2.1-.5-4.1-1.2-6.1-2.1,0,0,0-.2,0-.2l6.3.6c2.2,0,4.1.3,6.1,1.3,0,0,0,.2,0,.2h0Z" fill="#fff"/><path d="M124.3,115.4c-2.3,2.3-5.4.6-7.9-.2-.7-.4-1.9-.7-2.3-1.6,0,0,.2,0,.2,0,1.5.6,3.3.6,4.9.8.8,0,1.7-.1,2.5,0,.8.2,1.6.4,2.5.8v.2h0Z" fill="#fff"/><path d="M133.2,89.5c-1.9-.8-2.8-2.1-3.8-3.7-1-1.4-2.1-2.8-3.4-4,0,0,.1-.2.1-.2,1.6.8,3.2,1.8,4.5,3,1.6,1.1,2.7,2.6,2.7,4.7,0,0-.2.1-.2.1h0Z" fill="#fff"/><path d="M129.5,105.3c-2,0-3.4-.9-4.9-2-1.5-.9-3-1.8-4.6-2.5,0,0,0-.2,0-.2,1.8.1,3.6.5,5.3,1.1,1.9.5,3.5,1.4,4.2,3.4,0,0-.1.2-.1.2h0Z" fill="#fff"/><path d="M131.6,102.9c-1.5.8-2.9.3-4.1-.6-1.2-.7-2.3-1.5-3.4-2.4,0,0,0-.2,0-.2l2,.5,1.9.5c.6.2,1.3.1,1.9.5.6.3,1.1.8,1.6,1.5,0,0,0,.2,0,.2h0Z" fill="#fff"/><path d="M5.1,75.3c.9-1.7,2.3-3.1,4-3.9.9-.4,1.8-.6,2.7-1,1.7-.8,3-2.3,4.6-3.2,1.6-1,3.4-1.7,5.4-1.9,1,0,2-.2,3,.2v.2c-2.5,1.2-4.8,2.5-7.4,3.3-1.7.7-3.6.9-5.2,2-1.4,1.2-2.6,2.6-4.3,3.4-.8.4-1.6.8-2.6,1.1,0,0-.1-.2-.1-.2h0Z" fill="#fff"/><path d="M11,96.4c1.9-1,3.7-1.4,5.8-1.3,1.3,0,2.7.5,4,.1.6-.2,1.2-.6,1.8-.9,1.3-.5,2.7-.4,4-.3,0,0,0,0,0,0-.2.5-.5.7-.8.9-.9.6-1.9,1-2.9,1-.7,0-1.4-.2-2.1-.2-2,.3-3.7,1.6-5.8,1.6-1.3,0-2.7-.1-4-.8,0,0,0-.2,0-.2h0Z" fill="#fff"/><path d="M3.8,82c2-2.9,5.3-4.3,8.6-5.1,3.2-.8,6.7-1.8,9.9-1.9-3,1.2-6.3,2.1-9.3,3.5-3,1.5-5.8,2.7-9,3.6,0,0-.2,0-.1-.2h0Z" fill="#fff"/><path d="M9.4,93.9c4.1-2.8,9.6-2.6,14.4-3.4,1.5-.3,3.3-.3,4.7-.9,0-.1.3-.1.2,0-.5.7-1.5.8-2.3,1.2-1.6.6-5.5,1.6-7.1,2-3.2,1-6.4,1.6-9.8,1.3-.1,0-.1-.2,0-.2h0Z" fill="#fff"/><path d="M5.7,83.3c.8-1,1.8-1.6,3-1.7,1.2.1,2.3.3,3.3-.5,2-1.3,4.4-1.8,6.7-.7,0,0,0,.2,0,.2-1,.8-2.1,1.2-3.1,1.5-1.1.2-2.2.3-3.3.1-.6,0-1.2,0-1.7.2-.5.2-1,.7-1.5,1-.5.3-1,.4-1.6.4-.6,0-1.1,0-1.8-.2,0,0-.1-.1,0-.2h0Z" fill="#fff"/><path d="M9.9,90.1c.9-.9,1.9-1.4,3.1-1.4.6,0,1.2.3,1.7.2.6,0,1.1-.3,1.6-.6,1-.6,2-1,3.1-1.2,1.1-.2,2.3,0,3.5.1,0,0,0,0,0,.1-1.1,1.6-2.9,2.2-4.7,2.3-1.1.2-2.3-.4-3.4,0-.5.2-1,.6-1.5.9-.5.2-1.1.3-1.7.2-.6,0-1.2-.1-1.8-.4,0,0-.1-.1,0-.2h0Z" fill="#fff"/><path d="M13.2,102.1c1.7-.6,3.3-.8,5-.8,1.6.2,3.4.7,5,0,.8-.2,2.2-.9,2.6-1.1,2.6-1.4,5.1-2.3,7.9-3.4,0,0,.1.2.1.2-1.4,2.6-4.2,4.3-7,4.9,0,0,.4-.3.4-.3-1.1.8-2.6.6-3.9.6-2.3-.2-4.4,1.3-6.7,1-1.1,0-2.3-.3-3.4-.9v-.2h0Z" fill="#fff"/><path d="M4.6,78.3c1.5-3.3,5.4-3.6,8.5-4.5,1.1-.2,2.1-.5,3.2-.6v.2c0,0-5.6,2.9-5.6,2.9-1.9,1.2-3.6,1.9-5.9,2.2,0,0-.1-.2-.1-.2h0Z" fill="#fff"/><path d="M13.7,103.9c2.2-.7,4.1-.8,6.2-.4,0,0,6.3.3,6.3.3,0,0,0,.2,0,.2-2.1.6-4.2,1-6.3,1.2-2.2.4-4.5.5-6.4-1.1,0,0,0-.2,0-.2h0Z" fill="#fff"/><path d="M12.1,98.5c1.9-.5,3.3-.6,5.1-.2,1.6,0,3.4.3,5-.1,0,0,.2,0,.2,0-.1.4-.4.4-.6.5-1.4.7-3,1-4.5,1.3-1.8.4-3.9.4-5.2-1.3,0,0,0-.2,0-.2h0Z" fill="#fff"/><path d="M8,87.8c1.4-2.8,4.6-2.8,7.3-3.2.9,0,1.8,0,2.7,0v.2c-1.7.5-3.3,1.1-4.9,1.8-1.6.9-3.1,1.6-5.1,1.3,0,0-.1-.2-.1-.2h0Z" fill="#fff"/><path d="M6.3,85.1c1.1-1.2,2.2-1.5,3.7-1.5,0,0,2-.2,2-.2l2-.2v.2c-.5.4-1.1.7-1.7,1-1.1.5-2.7,1.5-3.8,1.5-.7,0-1.4-.1-2.2-.6v-.2h0Z" fill="#fff"/><path d="M31.8,32.9c1.3,1.4,2.3,2.9,3,4.7.3.9.4,1.8.8,2.7.8,1.7,2.4,2.8,3.5,4.3,1.9,2.1,3.2,4.3,4.8,6.6,0,0,0,.2,0,.2-1-.2-1.9-.7-2.7-1.3-1.6-1.1-2.8-2.6-3.7-4.3-1-1.6-1.3-3.6-2.4-5.1-1.2-1.4-2.6-2.8-3-4.7-.3-.9-.4-1.9-.4-2.9,0,0,.2,0,.2,0h0Z" fill="#fff"/><path d="M43.9,16.5c2,.8,3.5,2.2,4.4,4.1.7,1.1.9,2.6,1.7,3.6,1,1,2.1,1.6,2.5,3.1.2.8.5,1.4,0,2.3,0,0,0,0-.1,0-1-.9-2-1.8-2.5-3.1-.2-.6-.3-1.4-.6-1.9-1-1.7-3-2.6-4.1-4.3-.7-1.1-1.3-2.2-1.7-3.7,0,0,0-.2.2-.1h0Z" fill="#fff"/><path d="M33.2,26.1c1.6,3,2.6,5.9,3.5,9.1,1,3.1,2.7,6.2,3.8,9.2-2.1-2.4-3.8-5.6-5.4-8.5-1.7-2.9-2.9-6.3-2.2-9.7,0-.1.2-.1.2,0h0Z" fill="#fff"/><path d="M40.5,15.6c2.6,2.3,4.3,5,5.7,8,.8,1.5,2.7,5,3.4,6.6.3.8.9,1.6.7,2.5,0,.1-.2,0-.2-.1,0,0,0-.3-.1-.5-1.2-2.2-3.7-5.4-5.2-7.6-2.1-2.6-3.9-5.4-4.5-8.8,0-.1.1-.2.2-.1h0Z" fill="#fff"/><path d="M32.5,22c1.1.6,1.8,1.5,2.2,2.6.1.6,0,1.2.3,1.7.2.5.6.9,1,1.3.9.7,1.6,1.6,2.2,2.5.5,1,.9,2,1,3.3,0,0,0,.1-.1.1-1.8-.6-3-2-3.7-3.7-.5-1-.4-2.3-1.1-3.3-.3-.5-.9-.8-1.3-1.2-.4-.4-.6-1-.7-1.5-.1-.6-.2-1.2,0-1.8,0,0,.1-.1.2,0h0Z" fill="#fff"/><path d="M38.1,16.6c1.1.5,2,1.3,2.5,2.4.2.5.2,1.2.4,1.7.4,1,1.7,1.6,2.3,2.5.8.9,1.3,1.9,1.6,3,.1.6.3,1.2,0,2,0,0,0,0,0,0,0,0,0,0,0,0h0c-1.4-1.1-2.5-2.3-3.1-3.9-.5-1-.4-2.3-1.2-3.2-.4-.4-.9-.7-1.4-1.1-.4-.4-.6-.9-.8-1.4-.2-.5-.3-1.1-.3-1.8,0,0,0-.2.2-.1h0Z" fill="#fff"/><path d="M55.1,21.1c1.7.6,3,1.7,4.1,3.1.9,1.4,1.4,3.2,2.7,4.3.9.9,2.1,1.8,2.2,3.2,0,0-.1-.5-.1-.5,1.5,2.5,2.2,5.6,1.3,8.5,0,0-.2,0-.2,0-.6-1.3-1.1-2.6-1.5-3.9-.5-1.3-1.2-3.2-1.4-4.2-.5-1.9-1.3-4-3.1-5.2-1.9-1.3-3.2-3.1-4.1-5.2,0,0,.1-.2.1-.2h0Z" fill="#fff"/><path d="M56.7,20.2c2.4.2,4,2,5.1,3.9,1.3,1.7,2.4,3.6,3.4,5.4,0,0-.2.1-.2.1l-4.5-4.4c-1.7-1.4-2.9-2.8-3.9-4.9,0,0,.1-.2.1-.2h0Z" fill="#fff"/><path d="M50.8,21.1c3.2-.3,4.6,2.9,5.9,5.2.3.8,1,1.8.8,2.7,0,0-.2-.1-.2-.1-.7-1.4-2.2-2.6-3.3-3.7-.6-.6-1.4-1-1.9-1.6-.5-.7-.9-1.3-1.4-2.2v-.2h0Z" fill="#fff"/><path d="M36.1,17.5c2.2,2,3.4,4.5,4.5,7.1,1.2,2.5,2.6,5,4,7.4,0,0-.2.1-.2.1-2-2-3.7-4.3-5.4-6.6-1.8-2.3-3.1-4.9-3.2-7.9,0,0,.2,0,.2,0h0Z" fill="#fff"/><path d="M34.2,20.8c1.7.3,2.4,1.6,2.8,3,.5,1.3.8,2.6,1.1,3.9,0,0-.2,0-.2,0l-1.2-1.6-1.2-1.6c-.4-.5-1-1-1.2-1.6-.2-.6-.4-1.3-.3-2.2h.2Z" fill="#fff"/><path d="M66,142.2c.5-1.9,1.3-3.5,2.4-5,.6-.7,1.3-1.3,1.8-2.1,1-1.5,1.1-3.5,1.8-5.2.8-2.7,2-5,3.1-7.5,0,0,.2,0,.2,0,.4,1,.4,2,.3,3-.1,1.9-.8,3.8-1.7,5.4-.8,1.7-2.3,3-3.1,4.7-.6,1.8-1.1,3.7-2.5,5-.6.7-1.3,1.3-2.2,1.8h-.2Z" fill="#fff"/><path d="M45.7,140.4c-.4-2.2,0-4.1,1.2-5.9.6-1.2,1.8-2.1,2.2-3.4.3-1.4.3-2.7,1.4-3.8.5-.6,1-1.1,1.9-1.3,0,0,0,0,0,0-.2,1.3-.5,2.7-1.3,3.7-.4.5-1,1-1.3,1.5-.9,1.7-.6,3.9-1.5,5.7-.6,1.2-1.2,2.3-2.3,3.3,0,0-.2,0-.2,0h0Z" fill="#fff"/><path d="M59.4,144.5c1.8-2.9,3.7-5.3,5.9-7.7,2.1-2.5,3.9-5.5,5.9-8-1,3.1-2.8,6.1-4.5,9-.9,1.4-1.7,2.9-2.9,4.1-1.2,1.2-2.6,2.3-4.3,2.8,0,0-.2,0-.1-.2h0Z" fill="#fff"/><path d="M46.7,143.8c.6-3.4,2-6.3,3.8-9.1.9-1.5,2.9-5,3.9-6.3.5-.7.9-1.6,1.8-1.9.2,0,.1.2,0,.2,0,0-.2.2-.3.4-1.3,2.2-2.7,6-3.7,8.4-1.2,3.1-2.6,6.2-5.2,8.4,0,0-.2,0-.2-.1h0Z" fill="#fff"/><path d="M56.3,147.2c0-1.2.3-2.3,1.1-3.2.4-.4,1-.7,1.3-1.1.3-.4.5-1,.6-1.6.2-1.1.5-2.2,1-3.2.6-.9,1.2-1.8,2.3-2.6,0,0,.1,0,.2,0,.4,1.9-.1,3.6-1.2,5-.6,1-1.8,1.6-2.2,2.6-.2.5-.2,1.2-.4,1.7-.2.6-.5,1-.9,1.4-.4.4-.9.8-1.5,1,0,0-.2,0-.2-.1h0Z" fill="#fff"/><path d="M48.7,145.3c-.2-1.2,0-2.4.8-3.3.4-.4.9-.8,1.2-1.3.7-.9.5-2.3.9-3.3.3-1.1.9-2.1,1.8-2.9.4-.4.9-.8,1.7-1,0,0,0,0,0,0,0,0,0,0,0,0h0c-.2,1.8-.6,3.4-1.7,4.8-.6.9-1.8,1.6-2.1,2.7-.2.5-.1,1.2-.2,1.7-.1.6-.4,1-.8,1.5-.4.4-.8.9-1.4,1.2,0,0-.2,0-.2,0h0Z" fill="#fff"/><path d="M41.5,132.6c-.3-1.8-.1-3.5.5-5.1.7-1.5,2-2.9,2.3-4.6.4-1.2.5-2.7,1.6-3.6,0,0-.4.3-.4.3,1.3-2.6,3.7-4.8,6.6-5.5,0,0,.1.2.1.2-.8,1.2-1.7,2.3-2.5,3.3-.9,1.1-2.1,2.7-2.9,3.4-1.4,1.5-2.7,3.2-2.8,5.3-.1,2.3-1,4.3-2.3,6.3,0,0-.2,0-.2,0h0Z" fill="#fff"/><path d="M40.1,128.2c-1.1-2.2-.3-4.4.7-6.4.8-2,1.8-3.9,2.9-5.7,0,0,.2,0,.2,0l-1.4,6.2c-.3,2.2-.9,4-2.1,5.9,0,0-.2,0-.2,0h0Z" fill="#fff"/><path d="M44.3,136.4c-1.9-2.6.1-5.4,1.3-7.8.5-.7,1-1.8,1.9-2.1,0,0,0,.2,0,.2-.8,1.4-1,3.2-1.4,4.8-.2.8-.1,1.7-.4,2.5-.3.8-.6,1.5-1.1,2.4h-.2Z" fill="#fff"/><path d="M50.6,146.6c.6-2.9,2-5.2,3.7-7.5,1.5-2.4,2.9-4.8,4.2-7.3,0,0,.2,0,.2,0-.7,2.8-1.7,5.4-2.9,8-1,2.7-2.5,5.2-5.1,6.8,0,0-.2-.1-.2-.1h0Z" fill="#fff"/><path d="M54.3,146.4c-.6-1.6,0-2.9,1.1-4,.8-1.1,1.8-2.1,2.8-3,0,0,.2.1.2.1l-.7,1.9-.7,1.9c-.2.6-.3,1.3-.7,1.8-.4.5-.9,1-1.7,1.4h-.2Z" fill="#fff"/><path d="M100.1,9.2c-.3,1.9-.9,3.6-1.8,5.2-.5.8-1.2,1.5-1.6,2.3-.8,1.7-.7,3.6-1.2,5.4-.5,2.7-1.3,5.2-2.2,7.8,0,0-.2,0-.2,0-.5-.9-.6-1.9-.6-2.9,0-1.9.3-3.8,1.1-5.6.6-1.8,2-3.3,2.5-5.1.4-1.8.6-3.8,1.9-5.3.6-.8,1.2-1.5,2-2.1h.2Z" fill="#fff"/><path d="M121,28.6c.2,2.2-.3,4.1-1.5,5.8-.6,1.2-1.9,2-2.4,3.2-.4,1.3-.4,2.7-1.6,3.7-.6.5-1,1.1-1.9,1.1,0,0,0,0,0,0,.3-1.3.7-2.6,1.5-3.7.4-.5,1.1-.9,1.4-1.4,1-1.7.9-3.9,1.9-5.6.6-1.1,1.3-2.2,2.5-3.2,0,0,.2,0,.2,0h0Z" fill="#fff"/><path d="M107.9,9c-1,3.2-2.3,6-3.8,8.9-1.5,2.9-2.4,6.3-3.7,9.2.2-3.2,1.2-6.6,2.1-9.8.5-1.6.9-3.3,1.8-4.7.9-1.4,2-2.8,3.5-3.8,0,0,.2,0,.2.1h0Z" fill="#fff"/><path d="M119.4,24.8c-.8,3.3-2.4,6.1-4.4,8.8-1,1.4-3.2,4.8-4.2,6.1-.6.6-1,1.5-1.9,1.8-.2,0-.1-.2,0-.2,0,0,.3-.2.4-.4,1.4-2.1,3-5.8,4.2-8.1,1.3-3.1,2.9-6,5.7-8.1,0,0,.2,0,.2.1h0Z" fill="#fff"/><path d="M110.2,11.7c.1,1.2-.1,2.3-.8,3.3-.4.4-.9.8-1.2,1.2-.3.5-.4,1-.5,1.6,0,1.1-.3,2.2-.7,3.3-.5,1-1.1,1.9-2,2.8,0,0-.1,0-.2,0-.6-1.9-.1-3.6.8-5.1.5-1,1.7-1.7,2-2.8.2-.5.1-1.2.2-1.8.1-.6.5-1,.8-1.5.4-.4.8-.8,1.4-1.1,0,0,.2,0,.2.1h0Z" fill="#fff"/><path d="M116,22.4c0,1.2-.2,2.4-1,3.3-.4.4-1,.7-1.3,1.2-.7.9-.6,2.2-1.1,3.2-.4,1.1-1,2-1.9,2.8-.5.4-.9.8-1.7.9,0,0,0,0,0,0,0,0,0,0,0,0,0,0,0-.1,0-.1.3-1.7.8-3.3,2-4.5.6-.9,1.9-1.5,2.3-2.5.2-.5.2-1.2.3-1.7.2-.6.5-1,.9-1.4.4-.4.8-.8,1.5-1.1,0,0,.2,0,.2.1h0Z" fill="#fff"/><path d="M124.7,36.6c.2,1.8-.1,3.5-.8,5.1-.8,1.5-2.1,2.7-2.6,4.4-.4,1.2-.7,2.7-1.8,3.5,0,0,.4-.3.4-.3-1.5,2.5-4,4.6-6.9,5.1,0,0-.1-.2-.1-.2.9-1.2,1.8-2.2,2.7-3.2.9-1.1,2.3-2.5,3.1-3.2,1.5-1.4,2.9-3,3.1-5.1.3-2.3,1.3-4.2,2.7-6.1,0,0,.2,0,.2,0h0Z" fill="#fff"/><path d="M104.1,7.4c-.2,2.3-.8,4.1-1.9,6,0,0-2.6,5.8-2.6,5.8h-.2c.2-2.2.6-4.3,1.1-6.4.4-2.2,1.2-4.5,3.3-5.6,0,0,.2.1.2.1h0Z" fill="#fff"/><path d="M122.6,32.3c1.8,2.7-.4,5.4-1.8,7.7-.6.6-1.1,1.8-2,1.9,0,0,0-.2,0-.2.9-1.3,1.2-3.1,1.7-4.7.2-.8.2-1.7.6-2.4.3-.8.7-1.4,1.3-2.3h.2Z" fill="#fff"/><path d="M94.6,14.6c0,2-.6,3.4-1.6,5-.8,1.5-1.5,3.1-2.1,4.8,0,0-.2,0-.2,0,0-1.8.2-3.6.7-5.4.3-1.9,1.2-3.6,3.1-4.5,0,0,.2.1.2.1h0Z" fill="#fff"/><path d="M114.6,19.9c-.5,2-1.5,3.1-2.9,4.4-1.2,1.3-2.3,2.6-3.3,4,0,0-.2,0-.2,0,.5-1.8,1.2-3.4,2.2-5,.8-1.7,2.1-3.2,4.2-3.5,0,0,.1.2.1.2h0Z" fill="#fff"/><path d="M112.2,15.8c.5,1.6-.2,2.9-1.4,3.9-.9,1-1.9,2-3,2.8,0,0-.2-.1-.2-.1l.8-1.8.9-1.8c.3-.6.4-1.3.9-1.8.5-.5,1-.9,1.8-1.3h.2Z" fill="#fff"/><path d="M82.2,70.9c2.6-2.5,5.8-3.8,9.1-5.1,2.1-1.1,3.6-3,5.5-4.3,2.7-2.3,5.6-4.1,8.8-5.6,0,0,.2,0,.1.2-1.3,2-3,3.7-4.9,5.2-2.7,2.3-6.2,3.3-9.2,5.2-2.7,2.4-5.7,4.4-9.4,4.7-.1,0-.2-.1,0-.2h0Z" fill="#fff"/><path d="M79.6,71.1c2.6-3.5,5.8-6.5,9-9.4,2-2.2,3.1-5,4.6-7.4,2.2-3.8,4.7-7.3,7.6-10.7,0,0,.2,0,.2.1-1.2,4.3-3.4,8.2-6.1,11.7-1.7,2.4-4.1,4.3-5.8,6.7-1.3,1.8-2.3,3.9-3.9,5.4-.5.5-1.2,1.1-1.7,1.5-1.2.9-2.5,1.7-3.8,2.3-.1,0-.2,0-.1-.2h0Z" fill="#fff"/><path d="M79.3,70.6c0-2.1.6-4,1.5-5.8.5-.9,1.2-1.7,1.5-2.6.8-1.8.7-3.9,1.2-5.8.6-3,1.5-5.6,3-8.3,0,0,.2,0,.2,0,.3,2.1,0,4.1-.3,6.1-.6,3-2.5,5.5-3.5,8.3-.4,3-1.2,5.9-3.5,8.2,0,0-.2,0-.2,0h0Z" fill="#fff"/><path d="M80.2,70.8l4.3-3.6c1.4-1.2,3-2.1,4.5-3.2,3-2.2,6-4.5,8.9-6.8,0,0,.1.2.1.2-3.9,4.1-7.8,8.3-12.4,11.6-1.7,1-3.5,1.9-5.4,2,0,0,0-.2,0-.2h0Z" fill="#fff"/><path d="M80.9,69.5c0-2.6,1.4-4.7,3.1-6.5,1.5-1.8,3.2-3.6,4.9-5.2,0,0,.2.1.2.1l-1.8,3-1.8,3c-.6,1-1,2.1-1.8,3-.7.9-1.5,1.8-2.6,2.6h-.2Z" fill="#fff"/><path d="M69.4,71.4c-3.7-.2-6.7-2.2-9.5-4.5-3-1.8-6.5-2.8-9.3-5-1.9-1.4-3.6-3.1-5-5.1,0,0,0-.2.1-.2,3.3,1.4,6.2,3.2,8.9,5.4,1.9,1.4,3.4,3.2,5.5,4.2,3.3,1.2,6.6,2.4,9.2,4.9,0,0,0,.2,0,.2h0Z" fill="#fff"/><path d="M71.5,71.1c-2.1-.9-3.9-2.3-5.4-4-1.6-1.5-2.5-3.7-3.8-5.5-1.6-2.4-3.9-4.4-5.6-6.9-2.6-3.6-4.7-7.6-5.7-11.9,0-.1.1-.2.2,0,2.9,3.4,5.2,7,7.3,10.9,1.5,2.5,2.5,5.3,4.4,7.6,3.1,3.1,6.2,6.1,8.7,9.7,0,0,0,.2-.1.2h0Z" fill="#fff"/><path d="M72,71.2c-1.9-2.6-2.2-5.6-2.2-8.6-.5-2.9-2-5.7-2.2-8.7-.1-2,0-4,.6-6,0,0,.2-.1.2,0,1.1,2.9,1.6,5.7,1.7,8.7.2,1.9-.2,4,.3,5.9,1.2,2.9,2.2,5.5,1.7,8.7,0,.1-.2.1-.2,0h0Z" fill="#fff"/><path d="M69.9,71c-3.1-.7-5.5-2.6-7.8-4.8-2-1.8-4.8-4.3-6.7-6.1,0,0,.1-.2.1-.2,2.2,1.4,5.4,3.4,7.6,4.9,2.7,1.6,5.1,3.3,6.8,6,0,0-.1.2-.1.2h0Z" fill="#fff"/><path d="M71.1,70.2c-2.2-1.5-3.3-3.8-3.9-6.3-.8-2.3-1.4-4.7-1.9-7.2,0,0,.2,0,.2,0,.9,1.9,2.3,4.6,3.3,6.6,1.3,2.2,2.3,4.2,2.5,6.9,0,0-.2.1-.2.1h0Z" fill="#fff"/><path d="M64.6,81.8c-1.8,3.3-4.8,5.2-8.1,6.7-2.9,2-5.3,4.7-8.5,6.3-2.1,1.1-4.3,2-6.7,2.3-.1,0-.2-.1,0-.2,2.7-2.4,5.5-4.2,8.7-5.8,2-1.1,4.4-1.7,6.2-3.2,2.5-2.5,5-4.9,8.4-6.3,0,0,.2,0,.1.2h0Z" fill="#fff"/><path d="M66.2,79.4c-1.6,1.6-3.6,2.7-5.7,3.5-2,.9-4.4,1-6.5,1.4-2.9.6-5.6,1.9-8.5,2.6-4.3,1.1-8.7,1.5-13.2.8-.1,0-.1-.2,0-.2,4.3-1.4,8.5-2.2,12.9-2.6,2.9-.4,5.9-.3,8.6-1.2,4-1.7,8-3.5,12.3-4.4.1,0,.2.1.1.2h0Z" fill="#fff"/><path d="M66.4,79.6c-3.1,1.1-6,.5-8.9-.5-3-.4-6,.2-9-.5-1.9-.5-3.9-1.1-5.6-2.4,0,0,0-.2,0-.2,3.1-.2,5.9.1,8.8.9,1.9.4,3.8,1.4,5.7,1.5,3.1-.3,5.9-.4,8.8,1,0,0,0,.2,0,.2h0Z" fill="#fff"/><path d="M66.6,80.2c-2.3,3.2-6.1,4.7-9.7,5.8-3.6,1.2-7.2,2.3-10.9,3.1,0,0,0-.2,0-.2,3.4-1.5,6.9-2.9,10.3-4.5,1.7-.8,3.3-1.8,5-2.4l5.2-2v.2h.1Z" fill="#fff"/><path d="M65,80.1c-2.2,1.5-4.8,1.7-7.3,1.3-2.5-.1-4.9-.4-7.4-.9,0,0,0-.2,0-.2,2.1-.1,5.2-.4,7.3-.6,2.5-.4,4.8-.6,7.3.2,0,0,0,.2,0,.2h0Z" fill="#fff"/><path d="M74.5,87.9c-1.5,3.3-4.1,5.7-6.7,8-1.6,1.7-2.3,4.1-3.5,6-1.7,3.1-3.7,5.8-6.2,8.4,0,0-.2,0-.2-.1.5-2.4,1.5-4.5,2.7-6.6,1.7-3.1,4.6-5.4,6.7-8.2,1.2-2,2.2-4.2,4.1-5.7.9-.8,1.9-1.5,3-2,0,0,.2,0,.2.2h0Z" fill="#fff"/><path d="M76.4,87.6c-.7,4.3-2.3,8.4-3.8,12.5-.8,2.8-.5,5.8-.8,8.7-.3,4.4-.8,8.6-2,13,0,.1-.2.1-.2,0-.9-4.4-.7-8.9.2-13.2.5-2.9,1.7-5.7,2.1-8.6.3-2.2.2-4.5,1.1-6.6.2-.6.5-1.5.8-2.1.6-1.4,1.4-2.7,2.4-3.8,0,0,.2,0,.2,0h0Z" fill="#fff"/><path d="M75.4,87.9l-2.1,5.2c-.7,1.7-1.7,3.3-2.6,4.9-1.7,3.3-3.2,6.8-4.8,10.2,0,0-.2,0-.2,0,1.6-5.4,3.1-11,5.7-16,1-1.6,2.2-3.3,3.9-4.3,0,0,.2.1.2.1h0Z" fill="#fff"/><path d="M76.1,89.1c.9,2.5.9,4.8.6,7.3,0,0-.1,3.6-.1,3.6,0,4.9-.1,4.9-1.1,0-.5-3.7-1.7-7.6.4-11,0,0,.2,0,.2,0h0Z" fill="#fff"/><path d="M69.1,75.4c-2.4.8.2,2.5-.2,3.2-.4.7-.9.9-1,1.6,0,.7-.3,1,1,1.9s1-.3,1.6.4c.7.7.7,1.4,1.3,1.8.6.4.7.8,1.4.4s.8-.7,1.2-.2,1.1.2,1.8,0c.7,0,1.7.2,2.2-.3s-.1-.9.9-.6,1.5.7,1.9-.3.6-1.3.1-1.9,0-1.1-.4-2.1c-.4-1,.9-1.3.5-2.2-.3-.9-1.2-2.1-1.7-1.8s-.7-.4-1.5-.8-1.6-2-2.1-1.5-.8.7-1.6.5c-.8-.1-1-.9-1.7-.7s-1.8,1.1-1.6,1.6c.1.6-2.1,1.1-2.1,1.1Z" fill="none" stroke="#fff" stroke-miterlimit="10" stroke-width="1"/><path d="M79.5,81.8c1.8-.5,0-1.9.2-2.4s.7-.6.8-1.1.3-.7-.7-1.5c-1-.7-.8.2-1.2-.4-.5-.5-.5-1.1-.9-1.4s-.5-.6-1-.4-.6.5-.9.1c-.3-.3-.8-.2-1.3-.1-.5,0-1.3-.2-1.7.2s0,.7-.7.4-1.1-.6-1.5.2c-.3.8-.5.9-.2,1.4s0,.9.2,1.6c.3.8-.7.9-.5,1.6s.9,1.6,1.3,1.4.5.3,1.1.7,1.2,1.6,1.5,1.2.6-.5,1.2-.3.7.7,1.3.6,1.4-.8,1.3-1.2,1.6-.7,1.6-.7Z" fill="none" stroke="#fff" stroke-miterlimit="10" stroke-width=".8"/><path d="M71.6,78.2c-1,.8.6,1.2.5,1.6s-.3.6-.2,1,0,.5.9.7.4-.3.9-.1.6.5,1,.6.5.2.8,0,.3-.5.6-.3.6-.1.9-.3c.3-.2.9-.2,1-.6s-.2-.4.3-.5c.6,0,.9,0,.9-.5,0-.6,0-.7-.3-1s-.2-.6-.6-1,.2-.8-.2-1.2-1-.8-1.2-.5c-.2.3-.4,0-.9-.1s-1.2-.7-1.3-.4-.3.5-.7.6c-.4,0-.7-.2-1,0s-.7.9-.5,1.1-.9.9-.9.9Z" fill="none" stroke="#fff" stroke-miterlimit="10" stroke-width=".5"/><path d="M245.3,272.9c7.5,0,16,.6,13.9,1.8-3.3,2-3.6,6.7-6.3,10.4-2.4,3.2-4.5,8.9-19.8,8.9s-5-.1-8-.4l-9.5-2.8s4.1-6.2,6.8-9.4c2.8-3.2,9.6-6.9,13.1-7.9,1.3-.4,5.4-.5,9.8-.5M245.3,270.8c-2.4,0-8.3,0-10.3.6-3.6,1-10.9,4.8-14.1,8.5-2.8,3.3-6.8,9.4-7,9.6l-1.5,2.4,2.7.8,9.5,2.8h.2c0,0,.2,0,.2,0,3,.3,5.7.4,8.2.4,14.8,0,18.4-5.2,20.7-8.7.2-.4.5-.7.7-1,1.3-1.7,2.1-3.6,2.8-5.3.9-2,1.6-3.8,2.9-4.6,1.3-.8,1.5-1.9,1.2-2.8-.5-1.8-2.4-2.2-6.6-2.6-2.6-.2-6.1-.3-9.7-.3h0Z" fill="#fff"/><path d="M216,290.6c3.7-.3,7.4-.4,11-.7,5.5-.3,10.8-1.3,15-4.9,1.5-1.1,2.6-2.6,4.1-3.7,1.6-1.1,3.4-1.8,5-2.5,1.7-.7,3.4-1.4,5.2-2,0,0,0,.2,0,.2-1.7.7-3.4,1.5-5,2.3-1.6.9-3.3,1.6-4.7,2.8-2.6,2.6-5.1,5.5-8.6,7.2-3.4,1.8-7.3,2.5-11.1,2.5-3.8,0-7.5-.3-11.1-1,0,0,0-.2,0-.2h0Z" fill="#fff"/><path d="M216.7,290.7c3.3-1.7,6.8-2.6,10.4-3.1,2.4-.4,4.5-1.7,6.7-2.8,3.3-1.5,6.1-3,9.4-4.9,0,0,.1.1.1.1-2.2,4.9-7.8,6.2-12.5,7.2-2.4.4-4.6,1.7-6.8,2.6-2.3.7-4.7,1.2-7.2,1v-.2h0Z" fill="#fff"/><path d="M214.9,290.9c4.1-2.4,8.2-4.7,12.6-6.6,3.7-1.8,9-4.5,12.7-6.4,0,0,.1.2.1.2-3.9,2.7-8,5.2-12.1,7.7-4.1,2.5-8.4,5-13.3,5.4,0,0,0-.2,0-.2h0Z" fill="#fff"/><path d="M217.3,290.2c-.3-1.6.5-3.2,1.6-4.3.6-.5,1.3-.8,1.9-1.3,1.6-1.6,2.5-3.7,4.3-5,1.2-.9,2.5-1.6,4-2,0,0,.1.2.1.2-1.2,2-2.6,3.5-4.5,4.8-1.1.9-2.7,1.4-3.5,2.5-.5.6-.7,1.3-1.1,1.9-.8,1.2-1.7,2.1-2.7,3.2h-.2Z" fill="#fff"/><path d="M215.5,290.5c1.3-1.6,2.9-2.8,4.6-3.9,1.8-.9,3.7-1.5,5.1-3,3-2.7,5.5-5.7,9-7.6,0,0,.1.1.1.1-.4,1-.9,1.9-1.5,2.7-1.7,2.7-4.4,4.2-7.2,5.5-1.9.8-3.2,2.4-4.7,3.7-1.6,1.2-3.4,2.1-5.4,2.6v-.2h-.1Z" fill="#fff"/><path d="M217.1,290.8c3.5.2,6.6.7,10.1,1.2,3.4.3,6.8.3,10.2.1,0,0,0,.2,0,.2-5.1,1.1-10.4,1.8-15.6,1-1.7-.4-3.4-1.1-4.8-2.3v-.2h0Z" fill="#fff"/><path d="M226.4,176.7l.4.2c-.8,2.7.2,5,.9,7.8.7,2.9,1,6.4-.5,9.3-3.2,5.9-9.3,7.3-8.5,12.6.3,2.6.5,10.1,1.5,12.7,2.8,6.6,3.4,12.1,3.4,16.6-.3,7.6-2.4,27.7-2.7,35.5-2.2,8.3-5.8,15.3-12.1,21.3-2.9,1.9-4.8,2.8-6.4,5.4-6,8.7-19.3,30.4-29,35.7l-16.1,10.9-4-2.3,11-8.6c9.7-3.5,31.8-28,35.7-37,1.1-2.8,4.2-5.6,6.4-7.2,4.2-4.7,7.5-12.3,9.1-18.4-.7-10.8,5.2-29.2,5.1-34.5-.5-4.2-5-29.7-4-34.3,1-4.2,5.3-7.2,6.9-10.4,2.8-4-.6-11.2,3-15.2M226.4,174.7c-.6,0-1.1.2-1.5.7-2.5,2.7-2.4,6.4-2.3,9.6,0,2.3,0,4.5-.8,5.9,0,0,0,.1-.1.2-.5,1-1.5,2.2-2.5,3.3-1.8,2.1-3.9,4.5-4.6,7.5,0,0,0,0,0,0-.8,3.7,1.2,16.9,3.3,30.1.3,2.2.6,3.9.7,4.8,0,1.9-.9,6.2-1.9,10.6-1.6,7.5-3.6,16.8-3.2,23.6-1.3,5-4.3,12.4-8.4,17.1-1.5,1.1-5.4,4.4-6.9,8-3.7,8.4-25.5,32.6-34.5,35.9-.2,0-.4.2-.6.3l-11,8.6c-.5.4-.8,1.1-.8,1.7,0,.7.4,1.3,1,1.6l4,2.3c.3.2.7.3,1,.3s.8-.1,1.1-.4l16-10.9c8.6-4.8,19.3-20.8,26.4-31.4,1.3-1.9,2.3-3.5,3.3-4.9,0,0,0,0,0,0,1.1-1.8,2.3-2.5,4.3-3.8.5-.3,1-.6,1.5-1,0,0,.2-.1.3-.2,6.1-5.8,10.2-12.8,12.7-22.2,0-.1,0-.3,0-.4.2-3.8.8-10.6,1.3-17.3.6-7,1.2-14.3,1.4-18.2,0,0,0,0,0-.1,0-4.3-.5-10.2-3.6-17.4-.6-1.7-1-6.4-1.1-9.3,0-1.2-.1-2.2-.2-2.9,0,0,0,0,0,0-.3-2,.8-3.1,3.1-5.2,1.6-1.5,3.7-3.4,5.2-6.1,1.5-2.9,1.7-6.5.6-10.8-.1-.5-.3-1-.4-1.5-.6-2-1-3.5-.5-5.2.3-.9-.1-1.9-.9-2.3l-.4-.2c-.3-.2-.7-.3-1-.3h0Z" fill="#fff"/><path d="M212.9,94.4s.8,14.9-4.2,22.7c0,0-2.3,14.3-25.8,20.2-3.3.9-5.6,1.3-7.1,1.3-3.5,0-3-2.3-1.7-7,0,0,5.1-18.1,8.9-20.6,3.8-2.5,7.4-2.4,10.4-3.5,3-1.1,3.1-4.7,7.3-6.4,4.2-1.7,8-.2,12.3-6.6M215.5,85.1l-5.1,7.7c-2.3,3.5-4.1,3.8-6.8,4.3-1.2.2-2.7.5-4.2,1.1-3,1.3-4.5,3.3-5.6,4.8-.7,1-1.1,1.5-1.6,1.6-.8.3-1.8.5-2.8.7-2.3.5-5.2,1.1-8.2,3.1-4.2,2.8-8.5,16.5-10.1,22.3-1,3.6-1.8,6.7,0,9,1,1.3,2.6,2,4.7,2s4.1-.4,7.9-1.4c22.5-5.7,27.1-18.8,27.9-22,5.2-8.6,4.4-23.4,4.4-24l-.5-9.2h0Z" fill="#fff"/><path d="M177.8,137.3c6.9-5.1,13.5-10.6,18.9-17.3,5.4-6.7,9.8-14.2,12.6-22.3,0,0,.2,0,.2,0-4.6,15.4-16.4,33.8-31.7,39.5h0Z" fill="#fff"/><path d="M175.2,138.2c2.5-2.7,5.4-4.8,8.2-7.1,1.8-1.7,2.9-3.9,4.4-5.8,2.1-3,4.2-5.8,6.7-8.6,0,0,.2,0,.1,0-2,6-6.4,10.3-10.8,14.6-2.2,3-4.9,5.7-8.5,6.9,0,0-.1,0,0-.1h0Z" fill="#fff"/><path d="M175,138.3c8.4-10,15.6-20.9,20.5-33.1,0,0,.2,0,.2,0-2,6.3-4.7,12.3-7.9,18.1-3.1,5.8-7.1,11.3-12.6,15.1,0,0-.1-.1-.1-.1h0Z" fill="#fff"/><path d="M173.8,137.9c2.1-3.3,4.2-6.3,6.3-9.5,1.2-2.2,1.6-4.8,2.4-7.2,1-3.7,2.2-7.2,3.7-10.8,0,0,.2,0,.2,0,0,5.9-2.1,11.4-5,16.5-1.4,2.9-2.1,6.2-4.5,8.6-.8,1-1.9,1.9-3,2.5,0,0-.2,0-.1-.1h0Z" fill="#fff"/><path d="M173.5,136.5c.9-2.4,2.1-4.3,3.5-6.4.7-1.5.7-3.2,1.1-4.8.5-2.4,1.1-4.7,2.3-7,0,0,.1,0,.2,0,.2,1.7,0,3.4-.2,5-.5,2.5-1.9,4.6-2.8,6.9-.4,1.6-.7,3.3-1.9,4.6-.5.7-1.2,1.3-1.9,1.7,0,0-.2,0-.1-.1h0Z" fill="#fff"/><path d="M165,90.2c1.5,0,9.3,15.3,9.8,18.1.6,3.1.4,9.7-1,13-1.4,3.4-4.6,8.9-4.6,8.9l-5.8-6.2c-10.4-16.6-6-21-4.2-24.6s5.3-5.6,5.6-8.9c0-.3.1-.4.2-.4M165,87.1h0c-1.5,0-3.1,1.1-3.3,3.2,0,.9-1,2-2.1,3.3-1.1,1.2-2.3,2.6-3.2,4.5-.1.3-.3.6-.5.9-2.8,5.1-4.8,11.4,4.8,26.7l.2.3.2.2,5.8,6.2,2.8,3,2.1-3.6c.1-.2,3.3-5.7,4.8-9.2,1.7-4.2,1.9-11.4,1.2-14.8-.5-2.7-4.4-10.1-4.9-10.9-.9-1.6-2.1-3.9-3.3-5.8-1.3-2.1-2.6-3.9-4.7-3.9h0Z" fill="#fff"/><path d="M169,129.9c-4.8-6.3-9.1-14.3-6.7-22.5.4-1.5,1.2-3,1.5-4.5.3-1.5.3-3.1.3-4.7,0-1.6,0-3.2-.1-4.7h.2c.2,1.6.4,3.1.5,4.7,0,1.6.3,3.2,0,4.8-.3,1.6-1,3-1.3,4.6-1.1,4.6.2,9.1,2,13.4,1.2,2.9,2.5,5.8,3.7,8.7,0,0-.1,0-.1,0h0Z" fill="#fff"/><path d="M168.6,129.4c-1.1-1.9-1.7-3.9-2-6-.2-2.1,0-4.2-.6-6.2-1.1-4-2.2-8.8.7-12.4,0,0,.2,0,.2,0-.1,3.3-.3,6-.1,9.1,0,2.1-.2,4.2.4,6.2,1.1,3,1.7,5.9,1.7,9.2,0,0-.2,0-.2,0h0Z" fill="#fff"/><path d="M169.1,130.9c-1.6-3.9-1.4-8.2-1-12.3.3-4.1.7-8.2,1.3-12.2h.2c0,4.1,0,8.2,0,12.3.2,4.1,0,8.1-.2,12.2,0,0-.2,0-.2,0h0Z" fill="#fff"/><path d="M168.8,128.5c.5-1.2.8-2.3,1.4-3.3.3-.5.8-1,1.1-1.6.6-1.1.3-2.5.6-3.7.3-1.9.8-3.6,2-5.3,0,0,.2,0,.2,0,.3,1.3.2,2.6,0,3.9-.3,1.9-1.6,3.5-2.2,5.3-.2,1.3-.3,2.7-1.2,3.7-.4.5-1,1-1.7,1.2h-.1Z" fill="#fff"/><path d="M169.2,130.2c-.4-1.7-.4-3.5,0-5.2.4-1.7,1.1-3.3,1.1-5-.2-3.5.5-7,2.9-9.8,0,0,.2,0,.2,0,0,3.5-1.4,6.5-2.3,9.8-.6,1.7-.3,3.4-.3,5.1-.1,1.7-.5,3.3-1.2,5h-.2Z" fill="#fff"/><path d="M168.4,129.2c-2.8-1.3-4.7-4-5.8-6.7-1.3-2.7-2.3-5.5-3-8.4h.2c1.2,2.6,2.5,5.3,4,7.7,1.7,2.4,3.3,4.7,4.8,7.3,0,0-.1.1-.1.1h0Z" fill="#fff"/></svg>