<?xml version="1.0" encoding="UTF-8"?><svg id="Layer_1" xmlns="http://www.w3.org/2000/svg" width="128.5" height="77" viewBox="0 0 128.5 77"><path d="M116.7,16.4v44.3c0,1-.2,2-.6,2.9l-30.8-26.6,30.3-24.5c.7,1.1,1.1,2.5,1.1,3.9Z" fill="#fff"/><path d="M112.9,67.3c-1.1.6-2.4,1-3.8,1H19.4c-1.4,0-2.8-.4-3.9-1.1l31.3-27.1,9.1,7.4c2.5,2,5.3,3,8.2,3s5.8-1,8.2-3l9.1-7.3,31.4,27.1Z" fill="#fff"/><path d="M42.9,36.9l-30.6,26.4c-.3-.8-.5-1.8-.5-2.7V16.4c0-1.4.4-2.7,1-3.8l30.1,24.3Z" fill="#fff"/><path d="M111.7,9.2l-42.5,34.4c-3.1,2.5-7.1,2.5-10.2,0L16.6,9.3c.9-.3,1.8-.5,2.8-.5h89.7c.9,0,1.8.2,2.7.5Z" fill="#fff"/></svg>