<?xml version="1.0" encoding="UTF-8"?><svg id="Layer_1" xmlns="http://www.w3.org/2000/svg" width="191.1" height="544.5" viewBox="0 0 191.1 544.5"><path d="M160.1,151.2c1.4,0,3,2.1,4.2,2.1s.1,0,.2,0c.8-.1,1.8-.3,2.7-.3.8,0,1.5.1,2,.4,1.2.8.7,3.5.7,3.5,0,0,3.3,2.6,3.4,4.5,0,1.3-1.1,3.8-1.1,5.1-.4,15.1-7.8,28.2-19.3,28.2s-7.4-1.2-11.6-3.9c-10.7-16.5,0-28.3,11.7-34.2,2.6-1.3,4.2-4.6,6.7-5.3.1,0,.3,0,.4,0M160.1,148.4c-.4,0-.8,0-1.2.2-2.1.6-3.5,2.1-4.8,3.4-.8.9-1.6,1.7-2.4,2.1-5.2,2.6-14.4,8.5-17,18.2-1.7,6.4-.3,13.1,4.2,20l.3.5.5.3c4.5,2.9,8.9,4.4,13.1,4.4,12.3,0,21.6-13,22.1-30.9,0-.3.3-1.1.4-1.6.4-1.2.7-2.5.7-3.7-.1-2.1-1.9-4.2-3.3-5.5,0-1.5-.3-3.5-2-4.7-.9-.6-2.1-.9-3.6-.9s-1.9.1-2.6.2c-.2-.1-.4-.3-.6-.4-.9-.7-2.2-1.6-3.9-1.6h0Z" fill="#fff"/><path d="M141.5,190.4c-2.5-6.1.5-11.4,4.1-16.2,1.1-2,2.3-4.1,4.2-5.5.9-.7,1.8-1.4,2.9-1.9h0c-2,2.9-4.5,5.2-6.8,7.7-2,2.7-2.8,6.1-3.6,9.3-.5,2.1-.7,4.3-.8,6.6h-.2Z" fill="#fff"/><path d="M145,193.7c3.2-1.6,5.9-3.5,8.5-5.8,1.7-1.6,3.6-3,4.8-5,1.6-3.2,3.1-6.3,5.3-9.1,0,0,.1,0,.1,0-.6,3.6-2.6,6.7-5,9.4-2.1,2.9-3.9,6.1-6.9,8.2-2,1.4-4.4,2.4-6.8,2.5v-.2h0Z" fill="#fff"/><path d="M151.6,198.5c2.4,1,5.2,1.7,8.5.8,7-1.9,9.6-7.8,9.6-7.8-4,4.8-7.8,7.2-17,4.2,0,0-4.2-2.8-10.4-3.3-3-5.2-7.1-7.7-7.1-7.7-6.5-7.1-5.9-11.6-3.2-17.2,0,0-4.3,4.8-3.2,12,.6,3.8,2.8,6.1,4.8,8,2.1,2.9,0,7.4,0,11.1,0,1.3.6,2.3,1.3,3.1,0,0,0,0,0,0,.3.3.9.8,1.6,1.2.7.4,1.4.7,1.8.9,0,0,0,0,0,0,1,.3,2.2.4,3.3-.2,3.2-1.6,6.2-5.3,9.6-5Z" fill="none" stroke="#fff" stroke-linecap="round" stroke-linejoin="round" stroke-width="2.8"/><path d="M142.4,189.8c-1-2.1-.4-4.5.7-6.4,1.1-3.5,2.2-7,5.3-9.3,0,0,0,0,0,0-1.1,3.4-3.6,6.1-5,9.4-.3,2.1-.6,4-1,6.2,0,0-.1,0-.1,0h0Z" fill="#fff"/><path d="M146.8,192.2c1.6-1.7,3.2-3.2,5-4.6,2.4-3,3.9-6.5,6.8-9.2,0,0,.1,0,.1,0-.4,1.5-1.2,2.9-2,4.2-1.2,2-3.1,3.4-4.6,5.2-1.1,1.6-2.3,3.2-4.1,4.1-.4.2-.7.3-1.1.4h0Z" fill="#fff"/><path d="M144.6,191.6c2.1-3.2,5.5-5.1,7.7-8.4,0,0,.1,0,.1,0-.8,1.8-1.9,3.3-3.2,4.8-1.2,1.6-2.6,2.9-4.5,3.6,0,0,0,0,0,0h0Z" fill="#fff"/><path d="M149.5,179.8c-2.8,3.1-3.8,7.2-6.3,10.6,0,0-.1,0-.1,0,0-2.2,1-4.1,2.2-5.9,1.1-1.8,2.5-3.4,4.1-4.7h0Z" fill="#fff"/><path d="M148.8,184.2c-.8,2-1.9,3.9-3.2,5.5-.5.5-1.1.9-1.8,1.2,0,0,0,0,0,0,.4-1.5,1.3-2.5,2.4-3.5.9-1,1.8-2.1,2.7-3.2h.1Z" fill="#fff"/><path d="M138.4,185.2c-1.4-1.9-1.2-4.3-.5-6.4.4-3.6.9-7.3,3.5-10.1,0,0,.1,0,.1,0-.5,3.6-2.4,6.6-3.2,10.1,0,2.1.2,4.1.2,6.3,0,0-.1,0-.1,0h0Z" fill="#fff"/><path d="M142.2,173.2c-1.7,3.8-1.4,8-2.7,12,0,0-.1,0-.1,0-.6-2.1-.3-4.2.3-6.3.6-2,1.3-4,2.5-5.8,0,0,.1,0,.1,0h0Z" fill="#fff"/><path d="M141.2,178.5c.2,2.1.2,4.3-.2,6.4-.2.7-.5,1.3-1,1.9,0,0-.1,0-.1,0-.3-1.5,0-2.8.4-4.2.3-1.4.6-2.7.8-4.1,0,0,.1,0,.1,0h0Z" fill="#fff"/><path d="M152.4,195c1.9-1.1,3.6-2,5.5-3,2.6-2.4,4.3-5.6,7.1-7.9,0,0,.1,0,.1,0-1.1,3.6-4.1,6-7,8.1-1.4,1.6-3.4,3.1-5.8,2.8,0,0,0-.1,0-.1h0Z" fill="#fff"/><path d="M161.2,185.9c-1,1.8-2.4,3.4-4,4.9-1.5,1.5-3.3,2.8-5.4,3.2,0,0,0-.1,0-.1,1.4-1.6,3.1-2.7,4.8-3.8,1.7-1.2,3.2-2.6,4.5-4.2,0,0,.1,0,.1,0h0Z" fill="#fff"/><path d="M157.2,188.5c-2.4,1.5-4,4-6.8,4.9,0,0,0,0,0,0,.6-1.4,1.7-2.3,3-3,1.2-.7,2.5-1.4,3.8-1.9h0Z" fill="#fff"/><path d="M137.4,202c-.9-1-1.7-2-1.5-3.4.4-1.3,1.3-2.1,1.2-3.4,0-1.7.1-3.3-.3-4.9-.2-.6-.4-1.2-.4-1.8,0,0,.1,0,.1,0,.6.6,1,1.1,1.5,1.8.8,1.6.5,3.5-.2,5.2-.5,1-1,2.3-.8,3.4,0,.9.6,2,.6,3.3h-.1Z" fill="#fff"/><path d="M144.1,199.3c0-1.2.8-1.8,1.8-2.1.9-.4,1.8-.6,2.7-.5v.2c-1.5.7-2,1.5-2.9,2.3-.4.2-.8.3-1.4.3h-.1Z" fill="#fff"/><path d="M165.5,151.9c-.7,1.3-1.2,2-2.2,3-.8,1-1.5,2.1-2.1,3.2,0,0-.1,0-.1,0,.2-1.3.6-2.6,1.2-3.8.5-1.3,1.6-2.6,3.2-2.5,0,0,0,.1,0,.1h0Z" fill="#fff"/><path d="M172.7,155.7c-.6,1.6-1.8,2.7-3.2,3.5-1.3.9-2.6,1.9-3.9,2.7,0,0-.1-.1-.1-.1,1.6-1.8,3.1-3.7,4.9-5.2.7-.4,1.4-.8,2.3-1h.1Z" fill="#fff"/><path d="M134.4,201.2c.9,0,1.3,4.4,1.3,4.4-3.8,7.7-7.5,11.6-15.1,15.3-2.4,2.2-4.1,4.8-5.4,7.7l-1.5-2.7c1.1-2.9,2.5-5.6,4.5-8.1,6-4.3,11.9-10.3,15.8-16.2.2-.3.4-.4.5-.4M134.4,198.4h0c-.6,0-1.9.2-2.8,1.6-3.7,5.5-9.4,11.3-15.2,15.5l-.3.2-.2.3c-2,2.6-3.6,5.5-4.9,8.9l-.5,1.2.6,1.1,1.5,2.7,2.7,4.8,2.3-5.1c1.1-2.6,2.6-4.7,4.5-6.5,7.7-3.8,12-8.1,16.1-16.4l.3-.7v-.8c-.2-2.1-.6-7-4.1-7h0Z" fill="#fff"/><path d="M76.2,446.6l-.7,16.3c-.9,6.3-2.6,9.4-1.8,17,.7,6.6,1.5,15.3,4.7,21.1,1.9,2.2,4.4,5.8,4.8,8.9.6,3.4,1.3,6.9,2.4,10.3l-.9,3.1c-1.5-4.2-2.9-8.5-4.4-12.5-1-3.1-2.8-4.4-5.4-7-5.1-7.6-7-15.7-7.2-24.7,1.3-6.2,4.6-16,4.6-16l3.9-16.4M73.4,446l-3.8,16.3c-.4,1.2-3.3,10.2-4.6,16.1v.3c0,0,0,.3,0,.3.2,10.4,2.6,18.8,7.7,26.2v.2c.1,0,.3.2.3.2.5.5.9.9,1.3,1.3,1.8,1.8,2.8,2.7,3.4,4.6h0c0,0,0,.1,0,.1.9,2.3,1.7,4.7,2.5,7.2.6,1.7,1.2,3.5,1.8,5.3l3,8.3,2.3-8.5.9-3.1.2-.8-.2-.8c-.9-2.8-1.6-6-2.3-9.9-.5-4.1-3.7-8.3-5.3-10.1-2.7-5.1-3.5-12.9-4.2-19.1v-.7c-.6-4.8,0-7.5.7-10.9.4-1.6.7-3.3,1-5.4h0c0-.1,0-.3,0-.3l.7-16.3-5.5-.8h0Z" fill="#fff"/><path d="M75.9,106.4c5.1,15.3,4.4,32.1,10.2,44.5,3.6,7.7,3.8,33.4,5.7,44.1,2.6,7,8.9,12.4,12.5,19.2,1,1.6,1.8,3.8,2.1,5.6,1.4,5.5,5,10.1,7.5,15.3,2.9,5,4.1,12.7.6,17.8-.9,1.7-.3,3.1-.2,4.7,1.1,7.9,2.3,18,3.9,25.7-.4,7.2-5.4,13.3-10.2,18.2l-2.1,6.2-3.9,3.4c.6-11.5,11.9-16.7,12.9-27.6-2-9.3-3.5-19-4.5-28.5,0-3.4,2.5-5.7,2.9-8.5.9-6.8-3.8-13.7-6.9-20.7-1.8-3.4-1.6-7.5-3.5-10.9-3.5-6.9-9.4-12.2-12.2-19.6-2.3-11.4-2.8-22.9-4.9-34.3-.8-5.7-3.5-10.9-6.4-16.1l-3.5-38.5M75.9,103.7c-.2,0-.4,0-.6,0-1.3.3-2.3,1.5-2.1,2.9l3.5,38.5c0,.4.1.7.3,1.1,3,5.5,5.4,10.1,6.1,15.1,0,0,0,0,0,.1,1,5.2,1.6,10.6,2.2,15.8.7,6.1,1.4,12.3,2.7,18.5,0,.1,0,.3.1.4,1.7,4.5,4.4,8.2,7.1,11.8,2,2.7,3.9,5.3,5.3,8.1,0,0,0,0,0,0,.8,1.4,1.1,3,1.5,4.8.4,2,.9,4,1.9,6,.7,1.7,1.6,3.3,2.4,5,2.5,5.1,4.9,9.8,4.3,14.2,0,.8-.6,1.7-1,2.6-.8,1.6-1.9,3.7-1.8,6.2,0,0,0,.2,0,.3,1.1,10,2.6,19.5,4.5,28.3-.5,4.3-3.1,7.8-5.8,11.4-3.2,4.3-6.8,9.1-7.1,15.9,0,1.1.5,2.1,1.5,2.6.4.2.8.3,1.2.3.6,0,1.3-.2,1.8-.6l3.9-3.4c.4-.3.6-.7.8-1.2l1.9-5.6c4.7-4.9,10-11.4,10.5-19.4,0-.2,0-.5,0-.7-1.3-6.6-2.4-14.9-3.4-22.2-.2-1.2-.3-2.3-.5-3.4,0-.4,0-.8-.2-1.1-.2-1-.2-1.4,0-1.9,2.9-4.4,4-12.5-.5-20.3-.9-2-2-3.8-3-5.6-1.7-3-3.4-5.9-4.2-9-.3-2.1-1.2-4.4-2.4-6.4-1.7-3.2-3.8-6-5.9-8.7-2.5-3.3-4.9-6.4-6.3-9.9-.7-3.9-1.2-10-1.7-16.4-.9-11.2-1.8-22.8-4.2-28-3-6.4-4.2-14.2-5.4-22.4-1.1-7.2-2.3-14.6-4.7-21.9-.4-1.1-1.4-1.8-2.6-1.8h0Z" fill="#fff"/><path d="M73,267.1s3.5,3.1,3.5,3.1c3.5,10.9,4.3,17.6,6.8,28.2,1.5,6.2-2.4,11.9-3.4,17.3-1,5.7-.7,15-1,20.8,0,1.3-.6.7-.8,1.1-.2-7.3-1-14.9-.1-22.3.7-5.7,2.9-10.3,2.6-16-.1-2.5-1.5-23.5-7.5-32.2M78,337.6c0,.3,0,.7,0,1,0,0,0,.1,0,.1,0,0-.2-.2-.2-.4,0-.4,0-.7.2-.8M73,264.4c-.6,0-1.3.2-1.8.7-1,.9-1.2,2.4-.4,3.6,5,7.2,6.8,25.1,7.1,30.8.1,3.1-.6,5.9-1.3,8.9-.5,2.1-1,4.3-1.3,6.6-.7,5.9-.4,11.8-.1,17.6,0,1.5.2,3.1.2,4.6-.1.4-.1.8-.1,1.1,0,0,0,.1,0,.2,0,1.7,1.3,3,2.9,3s1.4-.3,1.9-.8c.4-.4.7-1,.8-1.6.4-.5.8-1.3.8-2.4.1-2,.1-4.3.2-6.7,0-4.8.2-10.2.8-13.8.3-1.6.9-3.3,1.5-5.1,1.4-3.9,3-8.4,1.8-13.3-.8-3.6-1.5-6.7-2.1-9.7-1.2-5.9-2.4-11.4-4.7-18.8q-.2-.8-4.2-4.3c-.5-.5-1.1-.7-1.8-.7h0Z" fill="#fff"/><path d="M74.7,431.6c.3.7.6,1.3,1,1.6,0,0,.1,0,.2,0,.5-.2,1,0,1.5,0,.5-.6,1.2-.9,1.9-.8.2-.3.4-.7.6-1-7.3-20.4-7.2-44.9,10.9-46.7,3.7-.4,7.7-8.1,12.2-6.8,9.9,2.7,8.8,13.3,9.7,20.2,2.1,15-10.5,27.8-27.1,35-.8,1.1-1.1,1.9-1.1,2.6.6.3,1,.9,1.1,1.6.8.3,1.9.4,2.5.4,3.9-2.3,7.9-6,17.2-9.6,6.6-2.5,12-10.2,19-10.7,8.2-.6,20.2,5.7,20.1,15.6,0,2.5-3.3,6.3-3.6,8.5-1.1,8.3-1.2,12.8-6.1,16-5,3.3-11.8,3.8-20.2,1-7.4-2.5-16-7.5-25.7-15.3-.9-.2-1.6-.3-2.3-.2-.5.6-1.3,1.1-2.2,1,0,0,0,0,0,0,0,0,0,.2,0,.3-.1,1-.8,1.8-1.7,2.1,0,.7,0,1.2,0,1.5,12.6,6.5,44,20.4,33.5,38.3-1.3,2.2,0,8.4-4.5,12-6.2,3.2-11.6-.9-14.8-.6-11.5,1.2-19.3-16-18.9-48.2-.2-.8-.5-1.3-.8-1.7-.1,0-.2-.2-.3-.2-.8-.6-1.8-.3-2.6.3-1.2,6.4-3.5,15.8-7.6,23.3-4.3,7.7-12.7,16.8-21.7,15.3-4.1-.7-7.3-10.6-12.7-15.7-7.6-5.5-6-10.3-4.3-17.1,3.2-12.7,17.2-21,42-14.8,1.2,0,1.9-.3,2.3-.5.1-.3.3-.5.5-.7,0-.7-.7-1.5-1.4-2-13.3-4.5-50.4,0-40.9-36.5,1.4-5.2,2.1,1.1,9.8-19.1,7.9-5.4,24.8,6.5,34.3,52.2Z" fill="none" stroke="#fff" stroke-miterlimit="10" stroke-width="3.7"/><path d="M74.4,447.3c-3.1.4-1.2-2.8-1.9-3.4-.8-.6-1.5-.5-1.9-1.2-.5-.7-.9-.9,0-2.6,1-1.8,1.2-.2,1.6-1.4.3-1.1,0-1.9.5-2.7s.4-1.2,1.3-1.2c.9,0,1.3.3,1.4-.4.2-.7,1.1-.8,1.9-1.1s1.8-1.2,2.6-.8.3,1,1.3.2c1-.9,1.3-1.6,2.3-.7s1.3,1.1,1.2,2,.6,1.3.7,2.6c0,1.3,1.6.9,1.8,2.1.1,1.2-.2,3-1,2.9s-.6.8-1.3,1.8c-.7,1-.7,3.2-1.4,2.8-.8-.3-1.3-.3-2,.3s-.6,1.5-1.5,1.8-2.6-.2-2.7-.9c-.2-.7-2.9,0-2.9,0Z" fill="none" stroke="#fff" stroke-miterlimit="10" stroke-width="1.2"/><path d="M72.6,446.7c-.3,3.4-2.2,6.1-4.5,8.5-1.8,2.7-2.8,5.9-4.9,8.3-1.4,1.6-2.9,3.2-4.8,4.4,0,0-.2,0-.1-.1,1.4-3,3.2-5.6,5.3-8,1.3-1.7,3.1-3,4.1-4.9,1.2-3,2.5-5.9,4.8-8.3,0,0,.2,0,.2,0h0Z" fill="#fff"/><path d="M70.6,442.7c-.8,1.9-2.1,3.6-3.6,5-1.4,1.5-3.3,2.4-5,3.5-2.2,1.5-4,3.6-6.2,5.2-3.3,2.4-6.9,4.4-10.9,5.4,0,0-.2-.1,0-.2,3.1-2.7,6.4-4.8,9.9-6.8,2.3-1.4,4.9-2.3,6.9-4.1,2.8-2.9,5.5-5.8,8.8-8.1,0,0,.2,0,.2.1h0Z" fill="#fff"/><path d="M70.6,440.1c-2.1,2.1-4.8,2.7-7.6,3-2.6.8-4.9,2.5-7.7,3-1.8.4-3.7.5-5.6.2,0,0-.1-.2,0-.2,2.5-1.3,5-2.2,7.7-2.6,1.7-.4,3.7-.3,5.3-1,2.5-1.4,4.7-2.6,7.7-2.6,0,0,.1.1,0,.2h0Z" fill="#fff"/><path d="M71.5,444.4c-1,3.5-3.8,6-6.6,8-2.7,2.1-5.5,4.2-8.4,6,0,0-.1-.2-.1-.2,1.3-1.2,2.5-2.3,3.8-3.5,2.6-2.3,4.8-4.9,7.3-7.2,0,0,3.9-3.3,3.9-3.3h.2Z" fill="#fff"/><path d="M73.4,445.3c-.8,2.8-2.6,5-4.6,6.9-1.7,1.8-4.1,4.3-5.8,6,0,0-.2-.1-.2-.1,1.3-2,3.3-4.8,4.8-6.8,1.5-2.4,3.2-4.5,5.7-6.1,0,0,.2.1.2.1h0Z" fill="#fff"/><path d="M73.4,448.3c.4,4.6-2.5,8.4-4.9,12-.9,1.2-1.8,2.3-2.8,3.3h-.2c1.5-2.5,2.8-5.1,3.9-7.7,1-2.7,1.9-5.3,3.7-7.7,0,0,.2,0,.2,0h0Z" fill="#fff"/><path d="M69.3,442.3c-1.3,2.1-3.4,3.1-5.7,3.7-2.1.8-4.3,1.4-6.5,1.8,0,0,0-.2,0-.2,2-1,4-2.1,6-3.1,2-1.2,3.8-2.2,6.2-2.4,0,0,.1.2.1.2h0Z" fill="#fff"/><path d="M69.9,439.5c-2.1,1-4.2,1.1-6.4,1,0,0-3.2.1-3.2.1h-3.3c0,.1,0,0,0,0,1-.3,2.1-.6,3.2-.9,3.2-.7,6.7-2,9.8-.3,0,0,0,.2,0,.2h0Z" fill="#fff"/><path d="M27.4,460.5c.4-1.7,1.3-3.3,2.6-4.5.7-.6,1.5-1,2.1-1.5,1.3-1.1,2-2.8,3.3-4,1.2-1.3,2.6-2.4,4.3-3,.8-.3,1.7-.6,2.7-.6v.2c-1.9,1.7-3.6,3.4-5.7,4.8-1.3,1-3,1.7-4.1,3-1,1.4-1.6,3-3,4.1-.6.6-1.2,1.1-2,1.6,0,0-.2-.1-.2-.1h0Z" fill="#fff"/><path d="M37.9,477.7c1.4-1.4,2.9-2.2,4.8-2.6,1.1-.4,2.5-.2,3.5-.9.5-.3.9-.9,1.4-1.2,1-.7,2.2-1,3.3-1.2h.1s0,0,0,0c0,.4-.3.8-.5,1-.6.7-1.4,1.3-2.3,1.6-.6.2-1.3.1-1.9.3-1.7.7-2.9,2.3-4.7,2.8-1.2.3-2.4.5-3.8.3,0,0-.1-.1,0-.2h0Z" fill="#fff"/><path d="M28,466.8c1-3.1,3.6-5.1,6.3-6.6,2.6-1.5,5.4-3.3,8.3-4.1-2.3,1.8-5,3.4-7.3,5.4-2.3,2-4.4,3.8-7.1,5.4,0,0-.2,0-.2-.1h0Z" fill="#fff"/><path d="M35.9,475.9c2.9-3.5,7.9-4.7,11.8-6.6,1.3-.6,2.9-1.1,3.9-2,0-.1.2-.2.2,0-.3.8-1.1,1.1-1.7,1.6-1.2.9-4.4,2.8-5.8,3.6-2.6,1.7-5.2,3-8.3,3.5,0,0-.2,0-.1-.2h0Z" fill="#fff"/><path d="M29.9,467.4c.4-1.1,1.2-1.9,2.2-2.3.5-.2,1.1-.1,1.6-.3.5-.2.9-.5,1.2-1,.7-.8,1.6-1.4,2.5-1.9,1-.4,2-.6,3.2-.4,0,0,.1.1,0,.2-1.1,1.4-2.2,2.2-3.8,2.6-.9.4-2.1.3-3,.9-.8.8-1.1,1.6-2.4,2-.5.2-1,.3-1.6.3,0,0-.1,0-.1-.2h0Z" fill="#fff"/><path d="M35.3,472.4c.6-1,1.4-1.7,2.4-2,.5-.1,1.1,0,1.6-.2,1.3-.6,2.2-2.1,3.7-2.8.9-.4,2-.7,3.1-.8,0,0,0,0,0,0-.5,1.7-2,2.6-3.6,3.2-.9.4-2.2.2-3,.8-.8.7-1.3,1.6-2.5,1.8-.5.1-1,.2-1.7,0,0,0-.1-.1,0-.2h0Z" fill="#fff"/><path d="M41.3,482.2c1.3-1,2.7-1.5,4.2-1.9,1.5-.3,3.2-.2,4.4-1.2.6-.4,1.7-1.3,2-1.6,1.9-1.8,3.9-3.3,6.1-4.9,0,0,.2.1.2.1-.6,2.7-2.6,4.8-5,6,0,0,.3-.3.3-.3-.8,1-2.2,1.1-3.3,1.5-2.1.4-3.6,2.3-5.7,2.6-1,.2-2.1.3-3.2,0v-.2h0Z" fill="#fff"/><path d="M27.7,463.3c.3-2.2,2-3.6,3.8-4.5,1.7-1.1,3.4-2,5.2-2.9,0,0,.1.2.1.2l-4.3,3.9c-1.3,1.5-2.7,2.6-4.6,3.4,0,0-.2-.1-.2-.1h0Z" fill="#fff"/><path d="M42.2,483.6c1.7-1.1,3.4-1.7,5.4-1.9,0,0,5.7-1.3,5.7-1.3,0,0,0,.2,0,.2-1.7,1-3.4,1.9-5.2,2.7-1.8.9-3.9,1.6-5.9.6,0,0,0-.2,0-.2h0Z" fill="#fff"/><path d="M39.4,479.2c1.5-.9,2.7-1.3,4.4-1.4,1.4-.4,3.1-.5,4.4-1.3,0,0,.2,0,.2,0-.2.8-1.2,1.2-1.9,1.7-2.1,1.1-4.8,3-7.1,1.3,0,0,0-.2,0-.2h0Z" fill="#fff"/><path d="M27.6,457.1c-.5-2.8,1.8-4.7,3.5-6.4.6-.5,1.3-1.1,2-1.5h.1c-1.5,2-2.4,4.3-3.6,6.3-.5.6-1,1.2-1.9,1.7h-.2Z" fill="#fff"/><path d="M33.1,470.8c.4-1.9,1.8-3,3.4-3.6,1.5-.8,3-1.4,4.7-1.7,0,0,0,.2,0,.2-2.1,1.2-3.8,2.9-5.6,4.4-.7.4-1.4.7-2.4.9h-.1Z" fill="#fff"/><path d="M30.9,468.9c.7-1.4,1.6-1.9,2.9-2.2,0,0,1.7-.7,1.7-.7l1.7-.7v.2c-.3.5-.8.9-1.2,1.4-1.5,1.3-2.8,3.1-5.1,2.3,0,0,0-.2,0-.2h0Z" fill="#fff"/><path d="M142.2,427.6c-1.7-.3-3.3-.8-4.8-1.7-.7-.5-1.3-1.1-2.1-1.5-1.5-.8-3.3-.7-4.9-1.1-2.5-.4-4.7-1.3-7.2-2.1,0,0,0-.2,0-.2.9-.5,1.8-.5,2.7-.6,1.8,0,3.5.3,5.1,1,1.6.6,3,1.8,4.6,2.3,1.7.4,3.5.6,4.8,1.7.7.5,1.4,1.1,1.9,1.9v.2h-.1Z" fill="#fff"/><path d="M139.7,447.6c-1.7,1.1-3.5,1.4-5.4,1.2-1.2,0-2.4-.7-3.6-.6-.6,0-1.2.3-1.8.4-.9.1-1.9-.1-2.7-.6-.3-.2-.7-.4-.8-.7,0,0,0,0,0,0,1.2-.3,2.4-.5,3.6-.3.6.2,1.2.5,1.8.6,1.8,0,3.5-.9,5.4-.8,1.2,0,2.4.2,3.6.7,0,0,0,.1,0,.2h0Z" fill="#fff"/><path d="M144.2,433.6c-3.1-.4-5.8-1.1-8.7-2.1-2.9-.9-6.1-1.2-8.9-2,3-.3,6.2,0,9.2.4,3.1.3,6.3,1.1,8.5,3.5,0,0,0,.2,0,.2h0Z" fill="#fff"/><path d="M140.8,445.1c-3.1.8-6,.6-9,.1-1.6-.2-5.2-.6-6.7-.9-.8-.2-1.6-.2-2.2-.8,0-.1,0-.2.2,0,1.3.4,3,.2,4.3.2,0,0,4.5,0,4.5,0,3.1-.2,6.1-.1,9,1.3,0,0,0,.2,0,.2h0Z" fill="#fff"/><path d="M142.8,435c-1,.5-2.1.6-3.1.3-.5-.2-.9-.6-1.4-.7-1.4-.2-3,.6-4.6.4-1-.1-2-.4-3-.9,0,0,0-.1,0-.2,1.4-1,3.1-1.2,4.7-.8,1,.1,2,.9,3,.9,1.1-.2,2-.6,3.1,0,.5.2,1,.4,1.4.9,0,0,0,.2,0,.2h0Z" fill="#fff"/><path d="M139.9,441.8c-1,.6-2,.8-3.1.6-.5-.2-1-.5-1.5-.6-.5,0-1,0-1.5.1-1.5.5-3.1.5-4.6-.1-.5-.2-1-.4-1.5-1,0,0,0,0,0,0,0,0,0,0,0,0h.1c1.5-.5,3-.8,4.5-.3,1,.1,2,.9,3,.8,1.1-.2,1.9-.7,3.1-.3.5.2,1,.3,1.5.7,0,0,0,.2,0,.2h0Z" fill="#fff"/><path d="M138.4,453.1c-1.4.9-2.9,1.4-4.5,1.5-1.6,0-3.1-.6-4.7-.2-1.2.1-2.5.6-3.6,0,0,0,.4.2.4.2-2.7-.1-5.4-1.3-7-3.5,0,0,.1-.2.1-.2,1.3.3,2.5.6,3.7.9,1.3.3,3,.8,3.9,1.2,1.7.6,3.7,1.1,5.5.4,2-.7,4-.7,6.1-.4,0,0,0,.2,0,.2h0Z" fill="#fff"/><path d="M143,430.3c-2.1,0-3.8-.4-5.6-1.2,0,0-5.5-1.9-5.5-1.9v-.2c2,0,4,.2,5.9.5,2,.2,4.2.7,5.3,2.6,0,0-.1.2-.1.2h0Z" fill="#fff"/><path d="M138.2,454.7c-1.4,1.7-3.6,1.9-5.6,1.8-2,0-3.9,0-5.9-.3,0,0,0-.2,0-.2l5.7-1.1c1.9-.6,3.7-.7,5.7-.4,0,0,0,.2,0,.2h0Z" fill="#fff"/><path d="M139.1,449.6c-.9,1.7-2.8,2.1-4.6,1.9-1.2,0-2.5,0-3.7-.4-.4-.2-.9-.1-1.2-.6,0,0,.2,0,.2,0,1.5.2,3.1-.3,4.5-.6.8-.2,1.5-.5,2.2-.6.8,0,1.5,0,2.4,0v.2h.1Z" fill="#fff"/><path d="M141.2,439.4c-1.8.5-3.2,0-4.8-.6-1.5-.4-3.1-.8-4.7-1,0,0,0-.2,0-.2,1.6-.4,3.3-.4,5-.3,1.8,0,3.5.4,4.6,1.9,0,0,0,.2,0,.2h0Z" fill="#fff"/><path d="M142.5,436.8c-1.1,1.1-2.5,1-3.8.5-1.2-.3-2.4-.7-3.5-1.2,0,0,0-.2,0-.2h1.9c0,0,1.8-.1,1.8-.1.6,0,1.2-.2,1.8,0,.6.2,1.1.4,1.8.9,0,0,0,.2,0,.2h0Z" fill="#fff"/><path d="M112.7,392.6c.3,1.8,0,3.5-.7,5.1-.4.8-1,1.5-1.4,2.2-.8,1.5-.8,3.4-1.5,4.9-.6,1.6-1.5,3.2-2.8,4.4-.6.6-1.3,1.2-2.3,1.5v-.2c1-2.3,2-4.5,3.4-6.6.8-1.5,2.1-2.7,2.6-4.3.4-1.6.4-3.4,1.2-4.9.4-.8.7-1.5,1.3-2.3h.2Z" fill="#fff"/><path d="M99.6,379.3c-.2,2-.9,3.6-2,5.1-.6,1-1.8,1.8-2.2,2.9-.2.6-.2,1.2-.3,1.8-.3,1.2-1,2.1-1.8,3,0,0,0,0,0,0,0,0,0,0,0,0-.2-.3-.3-.7-.3-1.1,0-1,.2-1.9.7-2.7.4-.5.9-.9,1.2-1.4.8-1.6.8-3.6,1.9-5.2.7-1,1.5-2,2.7-2.6,0,0,.2,0,.2.1h0Z" fill="#fff"/><path d="M110.5,386.4c1.1,3,.4,6.3-.7,9.1-1.1,2.8-2.1,6-3.8,8.4.6-2.9,1.7-5.9,2.2-8.8.5-3,1-5.8,2-8.7,0,0,.2,0,.2,0h0Z" fill="#fff"/><path d="M102.6,378c0,4.6-3.1,8.6-5,12.6-.6,1.3-1.5,2.6-1.7,4,0,.1,0,.2-.2.1-.3-.8.1-1.6.3-2.3.4-1.5,1.7-4.9,2.2-6.4.9-2.9,2.1-5.6,4.2-8,0,0,.2,0,.2,0h0Z" fill="#fff"/><path d="M110.6,382.8c.3,1.1.3,2.2-.3,3.1-.7.8-1.4,1.6-1.4,2.8,0,2.2-1,4.2-3,5.4,0,0-.2,0-.2,0,0-1.2.2-2.2.5-3.1.5-1.5,2-2.5,2.4-3.9.1-1.1-.2-2,.6-3,.3-.4.6-.9,1.1-1.2,0,0,.2,0,.2,0h0Z" fill="#fff"/><path d="M104.8,378.6c.2,1.1,0,2.2-.6,3.1-.3.4-.8.7-1.1,1.2-.7,1.3-.3,3-1.1,4.5-.5.9-1.2,1.8-1.9,2.5,0,0,0,0-.1,0-.7-1.7-.1-3.3.8-4.7.5-.9,1.5-1.6,1.8-2.6.2-1.1,0-2,.8-3,.3-.4.7-.8,1.2-1.1,0,0,.2,0,.2,0h0Z" fill="#fff"/><path d="M90,384.9c-.4,1.6-1.1,2.9-2,4.2-1,1.1-2.3,2.2-2.7,3.7-.2.8-.4,1.8-.5,2.6-.3,2.2-1,5.1-1.6,7.6,0,0-.2,0-.2,0-1.2-2.4-1.1-5.4,0-7.9,0,0,0,.4,0,.4,0-1.3.9-2.2,1.6-3.2,1.3-1.6,1.3-4,2.8-5.6.7-.8,1.5-1.5,2.4-2.1,0,0,.2.1.2.1h0Z" fill="#fff"/><path d="M88.4,384.4c-.6,2-1.6,3.5-2.9,4.9,0,0-3.5,4.6-3.5,4.6h-.2c.7-1.9,1.4-3.7,2.4-5.5.8-1.9,2-3.7,4.2-4.2,0,0,.1.2.1.2h0Z" fill="#fff"/><path d="M93.8,384.4c-.6,1.7-1.3,2.7-2.5,3.9-.9,1.2-2,2.4-2.5,3.8,0,0-.1.1-.1.1-.3-.8.2-1.7.4-2.5.9-2.2,1.8-5.4,4.7-5.5,0,0,.1.2.1.2h0Z" fill="#fff"/><path d="M106.8,379.1c.3,2.8-.5,5.3-1.9,7.6-1.2,2.3-2.4,4.6-4,6.7h-.2c1-2.5,1.9-4.9,2.7-7.3.7-2.6,1.4-4.9,3.1-7,0,0,.2,0,.2,0h0Z" fill="#fff"/><path d="M108.9,381.9c.3,1.5,0,2.5-.8,3.6,0,0-.9,1.6-.9,1.6l-.9,1.6s-.2,0-.2,0c0-.6,0-1.3.2-1.9.4-1.9.2-4.2,2.5-5,0,0,.2,0,.2,0h0Z" fill="#fff"/><path d="M95.6,496.3c-1.7-.7-3-1.8-4-3.3-.4-.7-.7-1.6-1.2-2.3-.9-1.5-2.4-2.5-3.4-3.9-1.1-1.4-1.9-3-2.3-4.7-.2-.9-.3-1.8-.1-2.7,0,0,.2,0,.2,0,1.4,2.2,2.7,4.1,3.8,6.4.8,1.4,1.2,3.2,2.3,4.5,1.2,1.2,2.7,2.1,3.5,3.6.5.7.9,1.4,1.3,2.3h-.1Z" fill="#fff"/><path d="M113.8,492c-1.6-1.2-2.6-2.6-3.3-4.4-.5-1.1-.6-2.5-1.3-3.4-.4-.5-1-.8-1.4-1.2-.8-.9-1.3-2-1.6-3.1h0c0-.1,0-.2,0-.2.4,0,.8.1,1.1.3.8.5,1.5,1.2,1.9,2,.2.6.3,1.3.6,1.8.9,1.6,2.7,2.6,3.4,4.3.5,1.1.9,2.3.8,3.7,0,0-.1.1-.2,0h0Z" fill="#fff"/><path d="M101.9,497.6c-3.2-.6-5.6-2.9-7.4-5.3-1.9-2.4-4-4.9-5.2-7.6,2.1,2,4.1,4.5,6.4,6.5,2.3,2,4.4,3.9,6.4,6.3,0,0,0,.2,0,.2h0Z" fill="#fff"/><path d="M113.3,495.2c-3.9-2.4-5.7-7.1-8.1-10.8-.8-1.2-1.4-2.7-2.5-3.6-.1,0-.2-.2,0-.2.8.2,1.3.9,1.8,1.5,1.1,1.1,3.3,4,4.3,5.3,2,2.3,3.7,4.7,4.7,7.7,0,0,0,.2-.2.1h0Z" fill="#fff"/><path d="M105,499.6c-1.1-.3-2-.9-2.5-1.9-.3-1-.6-2-1.7-2.6-1.8-1.2-3.1-3.1-3-5.4,0,0,0-.1.2,0,1,.6,1.8,1.3,2.4,2.1,1,1.2,1.1,3,2.1,4.1.9.7,1.8.9,2.3,2.1.2.5.4,1,.5,1.6,0,0,0,.1-.1.1h0Z" fill="#fff"/><path d="M111.6,496.8c-1.1-.4-1.9-1.1-2.3-2.1-.2-.5-.2-1.1-.4-1.5-.7-1.2-2.4-1.9-3.2-3.3-.6-.9-.9-1.9-1.2-3,0,0,0,0,0,0,1.8.3,2.9,1.6,3.6,3.1.5.9.5,2.1,1.3,2.9.8.7,1.7,1.1,2.1,2.3.2.5.3,1,.3,1.6,0,0,0,.1-.2.1h0Z" fill="#fff"/><path d="M116.5,484.4c-1.1-1.2-1.9-2.5-2.5-3.9-.5-1.4-.7-3.1-1.8-4.2-.5-.5-1.6-1.5-1.9-1.7-2.1-1.7-3.8-3.4-5.7-5.4,0,0,0-.2,0-.2,2.7.2,5.1,1.9,6.7,4.1,0,0-.4-.3-.4-.3,1.1.6,1.4,2,1.9,3,.7,2,2.8,3.2,3.3,5.3.3,1,.6,2,.5,3.2,0,0-.2,0-.2,0h0Z" fill="#fff"/><path d="M117.2,480.1c-1.4-1.6-2.1-3.1-2.7-5.1,0,0-2.1-5.4-2.1-5.4h.2c1.2,1.4,2.4,3,3.4,4.7,1.2,1.7,2.1,3.6,1.4,5.7,0,0-.2,0-.2,0h0Z" fill="#fff"/><path d="M114.5,488.1c-1.1-1.4-1.7-2.5-2-4.2-.6-1.4-1-3-1.9-4.1,0,0,0-.2,0-.2.8.1,1.4,1.1,2,1.6,1.4,2,3.7,4.3,2.2,6.9,0,0-.2,0-.2,0h0Z" fill="#fff"/><path d="M110.1,498.2c-2.5-1.1-4.2-3.2-5.5-5.5-1.4-2.2-2.7-4.5-3.6-6.9,0,0,.2,0,.2,0,1.5,2.1,3.1,4.1,4.7,6.1,1.8,1.9,3.4,3.8,4.4,6.3,0,0-.1.1-.1.1h0Z" fill="#fff"/><path d="M106.7,498.5c-1.4-.5-2.1-1.3-2.6-2.6,0,0-.9-1.6-.9-1.6l-.9-1.6h.1c.5.2,1,.6,1.5,1,1.5,1.3,3.4,2.4,3,4.7,0,0-.2,0-.2,0h0Z" fill="#fff"/><path d="M47.6,379.8c1.6.9,2.8,2.2,3.6,3.7.4.8.5,1.7.9,2.5.7,1.6,2.1,2.7,2.9,4.3.9,1.5,1.5,3.2,1.7,4.9,0,.9.1,1.8-.2,2.7,0,0-.2,0-.2,0-1.1-2.3-2.2-4.4-3-6.8-.6-1.5-.8-3.4-1.8-4.7-1.1-1.3-2.4-2.4-3.1-4-.4-.8-.8-1.5-1-2.4h.2Z" fill="#fff"/><path d="M31.1,400.1c1.6,1.1,2.7,2.4,3.5,4.1.6,1,.7,2.4,1.6,3.3.4.4,1,.7,1.5,1.1.9.8,1.4,1.9,1.8,3h0c0,.1,0,.2,0,.2-.4,0-.8,0-1.1-.3-.8-.4-1.6-1.1-2-1.9-.3-.6-.4-1.2-.7-1.8-1-1.5-2.8-2.4-3.7-4.1-.6-1.1-1-2.3-1-3.6,0,0,.1-.1.2,0h0Z" fill="#fff"/><path d="M40.4,380.5c2.9,1.4,4.7,4.1,5.9,7,1.2,2.8,2.7,5.8,3.2,8.6-1.6-2.5-2.9-5.4-4.6-7.9-1.8-2.5-3.3-4.8-4.7-7.6,0,0,0-.2.1-.1h0Z" fill="#fff"/><path d="M32.1,396.4c4.1,2.2,6.2,6.8,8.8,10.3.8,1.1,1.6,2.6,2.7,3.4.1,0,.2.2,0,.2-.8-.1-1.3-.9-1.9-1.4-1.1-1-3.6-3.8-4.6-5-2.2-2.2-4-4.5-5.1-7.4,0,0,0-.2.1-.1h0Z" fill="#fff"/><path d="M38.8,383.3c1.1.4,1.9,1.1,2.4,2.1.2,1.1.5,2.1,1.5,2.7,1.7,1.4,2.8,3.3,2.6,5.6,0,0-.1.1-.2,0-1-.7-1.7-1.4-2.2-2.3-.9-1.3-.9-3.1-1.7-4.3-.8-.8-1.7-1-2.1-2.2-.2-.5-.4-1-.4-1.6,0,0,0-.1.2-.1h0Z" fill="#fff"/><path d="M34.9,393.8c1.1.4,1.9,1,2.4,2,.2.5.3,1.1.5,1.5.8,1.2,2.5,1.7,3.4,3.1.6.8,1,1.9,1.4,2.9,0,0,0,0,0,0-1.8-.2-3-1.4-3.8-2.9-.6-.8-.7-2.1-1.4-2.8-.9-.7-1.8-1-2.2-2.1-.2-.5-.4-1-.4-1.6,0,0,0-.1.2-.1h0Z" fill="#fff"/><path d="M28.8,407.9c1.2,1.1,2,2.3,2.7,3.7.5,1.4.8,3,2,4.1.5.5,1.7,1.4,2,1.6,2.2,1.5,4,3.2,6,5,0,0,0,.2,0,.2-2.7,0-5.3-1.6-6.9-3.7,0,0,.4.2.4.2-1.1-.5-1.5-1.9-2.1-2.9-.8-2-2.9-3-3.6-5.1-.4-1-.7-2-.7-3.1,0,0,.2,0,.2,0h0Z" fill="#fff"/><path d="M43.7,378.6c2.1.7,3.1,2.7,3.8,4.6.7,1.8,1.3,3.7,1.8,5.6,0,0-.2,0-.2,0l-3.1-5c-1.2-1.6-2-3.1-2.5-5.2,0,0,.1-.1.1-.1h0Z" fill="#fff"/><path d="M30.2,403.8c1.2,1.3,1.8,2.4,2.3,4.1.6,1.3,1.2,2.9,2.2,4,0,0,0,.2,0,.2-.8,0-1.5-1-2.1-1.5-1.5-1.9-3.9-4.1-2.6-6.7,0,0,.2,0,.2,0h0Z" fill="#fff"/><path d="M53.3,383.9c1.8.5,2.8,2,3.4,3.7.7,1.5,1.2,3.1,1.4,4.8,0,0-.2,0-.2,0-1.1-2.2-2.6-4-4-5.9-.3-.7-.6-1.5-.7-2.4h.2Z" fill="#fff"/><path d="M35.7,391.3c2.9,0,4.3,2.6,5.7,4.7.4.7.8,1.4,1.1,2.2h-.2c-1.6-1.7-3.6-3-5.4-4.6-.5-.6-1-1.2-1.4-2.1,0,0,.1-.2.1-.2h0Z" fill="#fff"/><path d="M37.4,387.4c1.5.4,2.2,1.2,2.8,2.4,0,0,1,1.5,1,1.5l1,1.6h-.1c-.6-.2-1.1-.5-1.6-.9-1.5-1.2-3.6-2.1-3.2-4.5,0,0,.2-.1.2-.1h0Z" fill="#fff"/><path d="M71.7,433.8c-3.4.2-6.4-1.2-9.2-3-3-1.3-6.2-1.8-9-3.5-1.9-1.1-3.6-2.4-5.1-4.1,0,0,0-.2.1-.2,3.2.9,6,2.2,8.8,3.9,1.9,1,3.5,2.5,5.5,3.2,3.2.7,6.3,1.5,9,3.4,0,0,0,.2,0,.2h0Z" fill="#fff"/><path d="M74,433.6c-2-.5-3.9-1.5-5.5-2.7-1.7-1.1-2.9-2.9-4.3-4.4-1.9-1.9-4.2-3.4-6.1-5.3-2.9-2.8-5.4-6.1-7.1-9.8,0,0,0-.2.2-.1,3.1,2.6,5.8,5.5,8.3,8.7,1.7,2,3.1,4.4,5.2,6.1,3.3,2.3,6.6,4.5,9.4,7.4,0,0,0,.2,0,.2h0Z" fill="#fff"/><path d="M74.1,433c-2.4-1.8-3.5-4.3-4.2-7-1.2-2.4-3.3-4.4-4.2-7.1-.6-1.7-1.1-3.5-1.1-5.5,0,0,.1-.1.2,0,1.7,2.3,2.9,4.6,3.9,7.2.7,1.7.9,3.6,1.9,5.1,1.8,2.2,3.4,4.2,3.8,7.2,0,0,0,.2-.2.1h0Z" fill="#fff"/><path d="M73.5,433.4c-3.6.1-6.9-1.8-9.7-3.9-2.9-2-5.6-4-8.3-6.2,0,0,.1-.2.1-.2,1.5.9,3,1.7,4.5,2.5,2.9,1.8,6.1,3.1,9.1,4.8,0,0,4.3,2.7,4.3,2.7,0,0,0,.2,0,.2h0Z" fill="#fff"/><path d="M72.6,432.2c-2.1-1.1-3.4-2.7-4.6-4.5,0,0-2-2.5-2-2.5l-2.1-2.5h.1c.9.5,1.8,1.1,2.6,1.8,2.5,2.2,5.7,4.1,6.2,7.6,0,0-.2.1-.2.1h0Z" fill="#fff"/><path d="M83.3,432.1c2.1-2.6,4.9-4.1,7.7-5.7,1.8-1.2,2.9-3.1,4.5-4.6,2.2-2.4,4.6-4.4,7.4-6.1,0,0,.2,0,.1.1-1,2-2.4,3.7-3.8,5.3-2.2,2.4-5.3,3.7-7.8,5.8-2.2,2.5-4.7,4.6-8,5.3,0,0-.2,0-.1-.2h0Z" fill="#fff"/><path d="M81.3,432.2c1.8-3.6,4.2-6.8,6.6-10,1.4-2.3,2-5,3-7.4,1.4-3.8,3-7.4,5.2-10.9,0,0,.2,0,.2,0-.4,4.1-1.7,8-3.7,11.6-1.2,2.4-3,4.5-4.1,7-.9,1.8-1.4,3.9-2.7,5.5-.3.5-.9,1.2-1.3,1.6-.9,1-1.9,2-3.1,2.7,0,0-.2,0-.1-.1h0Z" fill="#fff"/><path d="M80.8,432.4c-.9-2.9-.3-5.4.4-8.1.2-1.8-.4-3.6-.5-5.4-.3-2.7-.2-5.4.4-8.1,0,0,.2-.1.2,0,.9,1.7,1.2,3.6,1.3,5.4.3,2.8-.7,5.5-.8,8.2.5,2.8.6,5.5-.8,8.1,0,0-.2,0-.2,0h0Z" fill="#fff"/><path d="M82.7,431.9c1.3-2.6,3.2-4.5,5.4-6.3,1.8-1.6,4.4-3.9,6.3-5.4,0,0,.1.1.1.1-1.5,1.9-3.7,4.6-5.3,6.4-1.7,2.2-3.7,4.2-6.4,5.3,0,0-.1-.1-.1-.1h0Z" fill="#fff"/><path d="M81.5,431.4c-.2-2.4.5-4.4,1.4-6.6.7-2.1,1.4-4.2,2.1-6.4h.2c0,2.3-.3,4.6-.8,6.8-.3,2.3-.9,4.6-2.8,6.2,0,0-.2,0-.2,0h0Z" fill="#fff"/><path d="M89.2,441c3.2.8,5.8,2.7,8.4,4.6,1.8,1.1,4.1,1.3,6,2.1,3.1,1,5.9,2.3,8.7,4.1,0,0,0,.2,0,.2-2.2,0-4.4-.6-6.4-1.3-3.1-1-5.6-3.2-8.5-4.6-2-.7-4.2-1.3-5.9-2.7-.9-.6-1.7-1.4-2.4-2.3,0,0,0-.2.1-.2h0Z" fill="#fff"/><path d="M87.4,439c4,.3,7.9,1.4,11.7,2.4,2.6.5,5.4,0,8,0,4-.1,8,0,12,.7.1,0,.1.2,0,.2-4,1.2-8,1.4-12.1,1-2.7-.2-5.3-1-8-1.2-2-.1-4.1.2-6.1-.4-.6-.1-1.4-.4-2-.6-1.3-.4-2.5-1.1-3.7-1.9,0,0,0-.2,0-.2h0Z" fill="#fff"/><path d="M87.2,439.2c2.5-1.7,5-1.9,7.9-2,1.8-.3,3.3-1.5,5-2.1,2.5-1.1,5.1-1.7,7.9-2,0,0,.2.1,0,.2-1.4,1.3-3.1,2.2-4.8,2.9-2.6,1.1-5.4.9-8.1,1.6-2.5,1.3-5.1,2.2-8,1.6,0,0-.1-.1,0-.2h0Z" fill="#fff"/><path d="M87.2,439.8l5,1.1c1.7.4,3.2,1.1,4.9,1.5,3.3,1,6.6,1.9,9.9,2.7,0,0,0,.2,0,.2-5.2-.5-10.4-1.1-15.4-2.6-1.6-.7-3.3-1.5-4.5-2.8,0,0,.1-.2.1-.2h0Z" fill="#fff"/><path d="M88.5,439.5c2.2-1.1,4.3-1.2,6.6-1.1,2.2-.1,4.5-.2,6.7-.4v.2c-2.1.8-4.3,1.4-6.5,1.8-2.3.6-4.6.8-6.8-.2,0,0,0-.2,0-.2h0Z" fill="#fff"/><path d="M81,447.9c3.2,1,5.6,3.4,7.5,6.1,2.3,2.3,5.2,3.9,7.2,6.5,1.3,1.7,2.5,3.5,3.3,5.6,0,0,0,.2-.2.1-2.6-2-4.8-4.2-6.8-6.8-1.4-1.6-2.3-3.6-4-5-2.7-1.8-5.3-3.6-7.1-6.4,0,0,0-.2.1-.2h0Z" fill="#fff"/><path d="M79.3,447.8c3.2,2.8,4.7,6.7,5.5,10.7.8,2.6,2.3,4.9,3.1,7.5,1.4,3.8,2.1,7.9,1.9,12,0,.1-.2.1-.2,0-1.6-3.8-2.7-7.6-3.5-11.5-.6-2.6-.8-5.3-1.8-7.8-1.9-3.5-3.8-7-5.1-10.8,0,0,0-.2.2-.1h0Z" fill="#fff"/><path d="M80.3,447.9c3.3,1.5,5.2,4.8,6.8,7.9,1.6,3,3.2,6.1,4.5,9.3,0,0-.2,0-.2,0-.9-1.4-1.9-2.9-2.8-4.3-1.8-2.9-4-5.6-5.8-8.4,0,0-2.6-4.4-2.6-4.4,0,0,.1-.2.1-.2h0Z" fill="#fff"/><path d="M79.9,449.2c1.6,1.9,1.9,4.2,1.8,6.6,0,2.3,0,4.5-.2,6.8,0,0-.2,0-.2,0-.3-2.2-.8-4.4-1.2-6.6-.6-2.2-1-4.3-.4-6.7,0,0,.2,0,.2,0h0Z" fill="#fff"/><path d="M84.2,436c2.3.4.2,2.3.6,2.9.4.6.9.7,1.1,1.3.2.6.4.8-.7,1.8-1.1,1-.9-.1-1.4.6-.5.7-.5,1.3-1,1.8-.5.5-.6.8-1.2.6s-.8-.5-1.1,0c-.3.5-1,.3-1.6.3s-1.6.4-2,0,0-.8-.9-.4-1.3.8-1.8,0c-.5-.9-.7-1.1-.4-1.7.3-.6-.1-1,.1-2,.2-.9-.9-1-.8-1.9.2-.9.8-2,1.4-1.8s.6-.4,1.3-1c.7-.5,1.2-2.1,1.7-1.7.5.4.8.5,1.5.3.7-.2.8-.9,1.5-.9s1.7.8,1.7,1.3c0,.5,2.1.7,2.1.7Z" fill="none" stroke="#fff" stroke-miterlimit="10" stroke-width=".9"/><path d="M75.6,443c-1.7-.2-.2-1.7-.5-2.1s-.7-.5-.9-.9-.4-.6.4-1.4.7,0,1.1-.5.3-1,.7-1.4.4-.6.9-.5.7.3.8,0,.7-.3,1.2-.3,1.2-.4,1.5,0,0,.6.7.3c.7-.3,1-.7,1.4,0,.4.7.6.8.3,1.3s.1.8,0,1.5c-.1.7.7.8.6,1.4-.1.7-.6,1.6-1,1.4s-.4.3-.9.8-.8,1.6-1.2,1.3-.7-.3-1.1-.1c-.5.2-.6.7-1.1.7s-1.3-.5-1.3-.9c0-.4-1.6-.4-1.6-.4Z" fill="none" stroke="#fff" stroke-miterlimit="10" stroke-width=".7"/><path d="M82.3,438.8c1,.6-.3,1.2-.3,1.5s.3.5.3.8,0,.5-.7.8c-.7.3-.4-.2-.8,0s-.5.6-.8.7-.4.3-.7,0-.3-.4-.5-.2-.5,0-.9-.1c-.3-.1-.8,0-1-.4s.2-.4-.4-.4-.8.2-.9-.4c0-.5-.1-.7.1-.9s.1-.5.4-1-.3-.7,0-1.1.8-.9,1-.7.4,0,.8-.2,1-.8,1.1-.5.3.4.7.4.6-.3.9-.2.7.7.6,1,.9.7.9.7Z" fill="none" stroke="#fff" stroke-miterlimit="10" stroke-width=".5"/><path d="M60.9,257.1c.2-.5.3-.9.3-1.2,0,0,0,0-.1,0-.3-.2-.5-.4-.6-.7-.5,0-.9-.2-1.3-.5-.3,0-.5,0-.8.2-6.4,12.6-18.1,23.6-27.1,15.8-1.8-1.6-7.3,0-8.7-2.7-3.1-5.9,2.4-10.1,5.2-13.7,6.2-7.7,18-7.5,28.8-2.8.9-.1,1.4-.3,1.7-.6,0-.4,0-.9.3-1.2-.2-.5-.7-1.1-1-1.4-2.9-.8-6.4-1.1-12.3-3.9-4.1-2-10.2-1.1-13.6-4.2-3.9-3.6-6.4-12.2-1.6-16.6,1.2-1.1,4.5-1.2,5.6-2.1,4.4-3.2,6.6-5.2,10.4-4.3,3.8.9,7.1,3.9,9.5,9.1,2.2,4.6,3.6,11,4.2,19.1.3.5.6.9.9,1.2.5,0,1.1.1,1.4.6,0,0,0,0,0,0,0,0,0,0,.1-.1.5-.4,1.2-.4,1.8-.1.3-.3.6-.5.7-.7-2.5-8.9-10.1-30.1,3.2-33.1,1.6-.4,4-3.8,7.7-3.2,4.3,1.5,4.8,6,6.4,7.3,5.7,5,1.1,16.4-14.4,30.6-.3.5-.4.8-.4,1.1,0,0,0,.2,0,.2,0,.6.7,1,1.3,1.1,3.6-2.3,9.1-5.5,14.5-6.8,5.6-1.4,13.7-1.5,17,3.4,1.5,2.3-1.8,8.2-1.8,13.1.8,6-2.2,7.5-6.2,9.7-7.5,4.2-17.7,1.3-25.9-13.3-.6-.5-1-.8-1.3-.9-.2,0-.4,0-.6,0-.3.3-.4,1-.4,1.6,3.8,8.3,22.6,24,1,35.9-3.1,1.7-.4-1.5-13.5,3.9-6.1-1.3-8-14.7,9.4-39.7Z" fill="none" stroke="#fff" stroke-miterlimit="10" stroke-width="2.4"/><path d="M68.5,250.2c1.6,1.3-.8,1.8-.8,2.5s.4.9.3,1.4,0,.8-1.3,1.1c-1.3.3-.7-.5-1.4-.1-.7.3-.9.8-1.5,1s-.8.4-1.2,0c-.4-.4-.4-.7-.8-.5s-.9-.2-1.4-.4c-.5-.3-1.4-.3-1.6-.8s.3-.6-.5-.7c-.9,0-1.4.1-1.4-.8,0-.9,0-1.1.4-1.5s.3-.9.9-1.5-.3-1.2.2-1.8c.5-.6,1.5-1.2,1.8-.8s.6,0,1.4-.2c.8-.1,1.8-1.1,2-.6.2.5.4.7,1.1.8.6,0,1-.4,1.5,0,.5.3,1,1.3.8,1.7s1.3,1.4,1.3,1.4Z" fill="none" stroke="#fff" stroke-miterlimit="10" stroke-width=".8"/><path d="M69,251.3c1.8-1.4,3.9-1.7,6.1-1.7,2.1-.4,4-1.3,6.2-1.4,1.4,0,2.8,0,4.2.3,0,0,0,.1,0,.1-3.5,1.3-6.9.9-10.4,1.3-2,.8-3.9,1.5-6.1,1.4,0,0,0,0,0-.1h0Z" fill="#fff"/><path d="M68,254c2.6-1,5.3-.5,7.9.3,2.6.4,5.3.4,7.8,1.2,1.7.5,3.3,1.2,4.9,2.2,0,0,0,.1,0,.1-4.5-.3-8.4-2.2-12.7-3.1-2.6,0-5.2,0-7.8-.5,0,0,0-.1,0-.1h0Z" fill="#fff"/><path d="M66.8,255.2c1.9,0,3.4,1.1,4.8,2.3,1.6.9,3.4,1.2,4.9,2.3,1,.7,1.9,1.5,2.6,2.6,0,0,0,.1,0,.1-1.8-.6-3.3-1.4-4.7-2.5-1-.6-1.8-1.6-2.9-2.1-1.1-.4-2.3-.6-3.3-1.3-.5-.3-1-.7-1.4-1.2,0,0,0-.1,0-.1h0Z" fill="#fff"/><path d="M68.4,252.8c2.1-1.1,4.5-.9,6.8-.5,2.2.3,4.5.8,6.7,1.3h0c-3.4-.2-6.7-.2-10.1-.3,0,0-3.3-.4-3.3-.4h0Z" fill="#fff"/><path d="M68,251.5c1.7-.8,3.5-.9,5.4-.9,1.8,0,3.6,0,5.5,0h0c-1.8.5-3.6.7-5.4,1-1.8.4-3.6.5-5.5,0,0,0,0-.1,0-.1h0Z" fill="#fff"/><path d="M69.4,250.2c1.3-1.5,3.2-2.2,5.1-2.6,1.9-.4,3.8-.7,5.7-.7h0c-1.8.5-3.6,1-5.4,1.7-1.7.8-3.4,1.5-5.3,1.7,0,0,0-.1,0-.1h0Z" fill="#fff"/><path d="M68.4,254.8c1.6-.3,3,.2,4.3,1,1.3.7,2.6,1.4,3.8,2.3h0c-1.4-.4-2.8-.9-4.2-1.3-1.5-.4-2.8-.8-4-1.9,0,0,0-.1,0-.1h0Z" fill="#fff"/><path d="M66.8,255.8c2.7,1.2,4.2,3.8,6.4,5.6,0,0,0,.1,0,.1-1.3-.7-2.5-1.5-3.6-2.3-1.3-.8-2.4-1.8-2.8-3.3,0,0,0,0,0,0h0Z" fill="#fff"/><path d="M95.8,266.6c-1.5,1-3.3.9-5,.5-1.7,0-3.4.5-5.1,0-1.1-.3-2.2-.6-3.1-1.5h0c2.2,0,4.3.2,6.5.8.5.2,1.1.2,1.6.2,1.1-.2,2.1-.6,3.3-.4.5,0,1.1,0,1.7.2h0Z" fill="#fff"/><path d="M99.3,253.9c-1.3,0-2.4-.4-3.4-1.1-.7-.4-1.2-1.1-2-1.3-.4-.1-.8,0-1.2-.1-.6,0-1.8-.8-2.1-1.1.8-.5,1.8-.2,2.5.1.3.2.6.6,1,.7,1.1.5,2.4.4,3.5,1,.7.4,1.3.9,1.8,1.7,0,0,0,.1,0,.1h0Z" fill="#fff"/><path d="M98.6,263.5c-1.9.9-4.1.6-6,0-1.9-.6-4-1.1-5.7-2.1,1.9.3,3.9.8,5.9,1.1,2,.2,3.8.4,5.8.9,0,0,0,.1,0,.1h0Z" fill="#fff"/><path d="M99.4,255.6c-3,.2-5.8-1.6-8.4-2.7-.9-.3-1.8-.9-2.7-.9,0,0,0,0,0,0,0,0,0,0,0,0,.6-.2,1,0,1.5,0,1,.2,3.3.9,4.3,1.2,2,.5,3.8,1.1,5.4,2.4,0,0,0,.1,0,.1h0Z" fill="#fff"/><path d="M98,262.3c-1.2.5-2.1,0-2.9-.6-.6-.3-1.4,0-2-.2-1.1-.2-2-.7-2.6-1.6,0,0,0,0,0-.1,1.1-.1,2.1,0,3,.6.6.3,1.1.9,1.8,1,.7,0,1.4-.2,2,.2.3.2.6.3.9.7,0,0,0,.1,0,.1h0Z" fill="#fff"/><path d="M98,257.5c-.7.2-1.4.1-2-.2-.3-.2-.5-.5-.8-.7-.9-.4-2,0-3-.5-.6-.3-1.2-.7-1.7-1.1,0,0,0,0,0,0,1-.5,2.2-.2,3.1.3.6.3,1.1.9,1.8,1.1.7,0,1.4,0,2,.4.3.2.6.4.8.8,0,0,0,.1,0,.1h0Z" fill="#fff"/><path d="M99.9,250.2c-1.4-.3-2.6-.8-3.6-1.8-.5-.5-1.1-.8-1.8-.9-.6-.1-1.2-.2-1.7-.2-1.5,0-3.4-.4-5-.7,0,0,0-.1,0-.1,1.6-.9,3.5-.9,5.1-.3,0,0-.3,0-.3,0,.8,0,1.5.5,2.2.9,1.1.8,2.7.7,3.8,1.6.6.4,1.1.9,1.5,1.5h0Z" fill="#fff"/><path d="M97.1,265.2c-1.2.8-2.6.6-3.9.2-1.3-.3-2.5-.7-3.7-1.2h0c1.3,0,2.5,0,3.8.1,1.3,0,2.4.1,3.7.7,0,0,0,.1,0,.1h0Z" fill="#fff"/><path d="M100.2,249.2c-1.3-.3-2.3-.9-3.3-1.7,0,0-3.2-2.1-3.2-2.1h0c1.2.2,2.4.7,3.6,1.2,1.3.4,2.5,1.1,2.9,2.5,0,0,0,0,0,0h0Z" fill="#fff"/><path d="M99.4,252.5c-2.1-.4-3.3-2.4-5.3-2.9,0,0,0,0,0,0,.6-.2,1.1,0,1.7.1,1.5.5,3.6.9,3.8,2.8,0,0-.1,0-.1,0h0Z" fill="#fff"/><path d="M94.1,268c-.8,1-1.9,1.3-3,1.2-1.1,0-2.2,0-3.2-.3h0c1.6-.3,3.1-.8,4.6-1.2.5,0,1,0,1.7.1h0Z" fill="#fff"/><path d="M98.2,259.2c-1.1.6-2.2.5-3.3,0-1-.4-2-.8-2.9-1.5h0c1.5.3,3.1.4,4.6.6.5.2,1,.3,1.5.7h0Z" fill="#fff"/><path d="M98.3,261.1c-.9.3-1.6.1-2.4-.4-.7-.3-1.5-.7-2.2-1,0,0,0-.1,0-.1.8,0,1.6,0,2.5.1.9,0,1.7.3,2.1,1.2,0,0,0,.1,0,.1h0Z" fill="#fff"/><path d="M28.7,226.8c1,1.4,1.3,3,1.6,4.7.2.5.4,1,.8,1.5,1.4,1.8,2.2,3.7,3.2,5.7,0,0,0,.1,0,.1-1.2-.5-1.9-1.4-2.5-2.3-1-1.4-1.1-3.2-1.7-4.8-.6-1-1.3-1.9-1.3-3.1,0-.6,0-1.1,0-1.7h.1Z" fill="#fff"/><path d="M39.3,219c1.3.3,2.3,1,3,2,.5.6.7,1.5,1.4,2,.7.5,1.5.8,1.8,1.6.2.4.4.8.3,1.3,0,0,0,0,0,0-.7-.4-1.3-.9-1.8-1.6-.2-.3-.3-.8-.5-1.1-.8-.9-2-1.3-2.8-2.2-.5-.6-1-1.2-1.3-2,0,0,0-.1,0,0h0Z" fill="#fff"/><path d="M30.6,223.1c1.2,1.6,2,3.3,2.9,5.1.9,1.7,2.2,3.4,3.1,5.1-1.5-1.2-2.7-3-3.9-4.6-1.2-1.6-2.3-3.5-2.1-5.6,0,0,0,0,.1,0h0Z" fill="#fff"/><path d="M37.7,219.6c2.5,1.5,4.1,4.3,5.9,6.6.5.8,1.4,1.7,1.5,2.6,0,0-.1,0-.1,0-.3-.9-1.2-1.5-1.8-2.2,0,0-2.1-2.1-2.1-2.1-1.5-1.4-2.8-2.9-3.4-4.8,0,0,0-.1.1,0h0Z" fill="#fff"/><path d="M31.9,223.2c.7.3,1.2.7,1.5,1.4.1.3.2.7.3,1,.6.8,1.7,1.2,2.2,2,.2.3,1,1.5.9,1.9-1.1-.2-2-.9-2.5-1.9-.4-.5-.5-1.4-.9-1.8-.9-.6-1.7-1.2-1.6-2.5,0,0,0,0,.1,0h0Z" fill="#fff"/><path d="M36.5,221.5c.7.2,1.3.6,1.7,1.2.2.3.2.7.4,1,.2.3.5.5.8.7.9.5,1.7,1.3,2,2.3,0,.2.3.9.1,1.2,0,0,0,0,0,0,0,0,0,0,0,0-.9-.5-1.7-1.1-2.2-2-.4-.5-.5-1.3-1-1.8-.6-.4-1.3-.6-1.5-1.3-.2-.3-.3-.6-.3-1,0,0,0,0,0,0h0Z" fill="#fff"/><path d="M42.5,217.1c1.4.3,2.6,1.1,3.3,2.3.4.6.8,1.1,1.4,1.5.6.5,1.4.9,1.6,1.7,0,0-.1-.3-.1-.3,1.1,1.3,1.8,3.1,1.5,4.9,0,0-.1,0-.1,0-.9-1.4-1.9-3.1-2.4-4.5-.2-.5-.5-1.1-.8-1.5-.7-1.2-2.2-1.5-3.1-2.5-.5-.5-.9-1-1.3-1.6h0Z" fill="#fff"/><path d="M29.6,225.2c1.8,1.9,2.3,4.4,3.5,6.7,0,0-.1,0-.1,0-.9-1-1.7-2-2.4-3-.8-1-1.5-2.3-1.2-3.7,0,0,.1,0,.1,0h0Z" fill="#fff"/><path d="M43.4,216.5c1.5,0,2.5.8,3.4,1.9.9.9,1.7,1.9,2.5,2.9,0,0,0,0,0,0l-3.1-2.2c-1.1-.7-2-1.4-2.8-2.5,0,0,0-.1,0-.1h0Z" fill="#fff"/><path d="M40.5,218.4c2.1-.5,3.4,1.8,4.4,3.2.1.2.3.4.3.8h-.1c-.8-1.2-2.4-1.9-3.6-2.8-.4-.3-.7-.7-1-1.2h0Z" fill="#fff"/><path d="M34.7,222c1,.6,1.5,1.5,1.9,2.5.5.9,1,1.8,1.6,2.7h0c-.9-.5-1.7-1.3-2.4-2.1-.8-.8-1.4-1.8-1.1-3,0,0,.1,0,.1,0h0Z" fill="#fff"/><path d="M32.9,222.5c1,0,1.6.7,1.9,1.6.4.7.7,1.5,1,2.2h-.1c-.8-.8-1.8-1.6-2.5-2.5-.2-.4-.3-.7-.4-1.3h0Z" fill="#fff"/><path d="M25.3,256.5c1-1.5,2.7-2.1,4.4-2.3,1.6-.6,2.9-1.7,4.7-2,1.1-.2,2.3-.3,3.4.3,0,0,0,.1,0,.1-2.1.7-4.1,1.3-6.3,1.6-.6,0-1.1.2-1.6.4-.9.6-1.8,1.3-2.9,1.6-.5.2-1,.3-1.6.4,0,0,0-.1,0-.1h0Z" fill="#fff"/><path d="M24.9,268.7c1-.8,2.1-1.2,3.3-1.3.8-.2,1.6,0,2.4-.3.4-.2.7-.5,1-.7.5-.3,1.9-.6,2.4-.5-.3.9-1.2,1.3-2,1.5-.4,0-.8,0-1.2,0-1.1.3-2.1,1.3-3.3,1.4-.8.1-1.6.2-2.5-.1,0,0,0,0,0-.1h0Z" fill="#fff"/><path d="M23.3,260.3c.9-1.9,2.8-3,4.6-3.8,1.8-.8,3.8-1.7,5.7-2-1.7,1-3.6,1.8-5.2,2.9-1.6,1.1-3.2,2.1-5,2.9,0,0-.1,0,0,0h0Z" fill="#fff"/><path d="M22.9,267.9c2.2-2.1,5.5-2.4,8.2-3.3.9-.3,2-.4,2.7-1,0,0,0,0,0,0,0,0,0,0,0,0-.3.5-.8.6-1.2.9-.9.5-3.1,1.4-4.1,1.8-1.8.9-3.6,1.5-5.7,1.6,0,0,0,0,0-.1h0Z" fill="#fff"/><path d="M21.5,261.9c.6-1.1,1.6-1.3,2.7-1.4.7-.2,1.1-.8,1.7-1.1.9-.5,1.9-.7,3.1-.4,0,0,0,0,0,0-.8.8-1.6,1.3-2.7,1.4-.6.2-1.4,0-2,.3-.5.4-1,1-1.7,1.1-.3,0-.7.1-1.1,0,0,0,0,0,0-.1h0Z" fill="#fff"/><path d="M22.2,266.6c.5-.6,1-1,1.7-1.1.3,0,.7,0,1.1,0,1-.3,1.6-1.2,2.6-1.5.6-.2,1.4-.3,2.1-.2,0,0,0,0,0,0-.5,1.1-1.5,1.5-2.6,1.8-.6.2-1.4,0-2,.3-.6.4-1,.9-1.8.9-.3,0-.7,0-1.1,0,0,0,0,0,0-.1h0Z" fill="#fff"/><path d="M31.8,270.8c1.3-.6,2.5-1,3.9-.9.7,0,1.3,0,1.9-.4.5-.3,1-.6,1.5-.9,1.2-.9,2.9-1.8,4.3-2.7,0,0,.1,0,.1,0-.6,1.7-2.1,2.9-3.7,3.5,0,0,.2-.2.2-.2-.6.6-1.5.6-2.2.7-1.4,0-2.5,1.2-3.9,1.2-.7,0-1.4,0-2.1-.2,0,0,0-.1,0-.1h0Z" fill="#fff"/><path d="M32.3,271.8c1.2-.6,2.3-.8,3.7-.8,0,0,3.8-.4,3.8-.4h0c-1.2.6-2.4,1.1-3.6,1.4-1.2.5-2.6.7-3.9,0,0,0,0-.1,0-.1h0Z" fill="#fff"/><path d="M29.9,269.2c1.9-1,4-.3,5.9-1.1,0,0,.1,0,.1,0-.3.6-.9.7-1.4,1-1.5.5-3.3,1.6-4.7.2,0,0,0-.1,0-.1h0Z" fill="#fff"/><path d="M21.5,265.4c1.2-1.4,2.7-2.1,4.4-2.5,1.6-.5,3.3-.9,5-1.1,0,0,0,.1,0,.1-1.6.6-3.1,1.2-4.6,2-1.5.8-3,1.5-4.8,1.7,0,0,0-.1,0-.1h0Z" fill="#fff"/><path d="M21.9,263.2c.5-.8,1.2-1.1,2.1-1.2.8-.2,1.5-.4,2.3-.6h0c-.6.7-1.3,1.1-2,1.6-.7.6-1.5.8-2.4.4,0,0,0-.1,0-.1h0Z" fill="#fff"/><path d="M82.3,218.1c.7,1.7.3,3.4-.3,5-.3,1.7,0,3.4-.7,5-.4,1-1,2.1-2,2.8,0,0,0,0,0,0,.5-2.2,1-4.2,2-6.2.2-.5.4-1,.5-1.6,0-1.1-.2-2.2.1-3.3.1-.5.2-1.1.5-1.6h.1Z" fill="#fff"/><path d="M72.1,211.4c.1,1.3,0,2.4-.6,3.5-.3.7-.9,1.4-1,2.2,0,.4,0,.8,0,1.2,0,.6-.5,1.9-.8,2.3-.6-.7-.5-1.7-.2-2.5.2-.4.5-.7.6-1.1.3-1.2,0-2.4.5-3.6.3-.7.7-1.5,1.4-2,0,0,.1,0,.1,0h0Z" fill="#fff"/><path d="M80,214.5c1.1,1.8,1.1,3.9.8,5.9-.3,2-.5,4.1-1.3,5.9,0-1.9.3-4,.2-6-.1-2-.1-3.8.1-5.8,0,0,0,0,.1,0h0Z" fill="#fff"/><path d="M73.8,210.2c.6,2.9-.8,5.9-1.5,8.7-.2.9-.7,1.9-.6,2.8,0,0,0,0,0,0,0,0,0,0,0,0-.3-.5-.1-1-.1-1.5,0-1,.4-3.4.6-4.4.2-2,.6-3.9,1.6-5.7,0,0,.1,0,.1,0h0Z" fill="#fff"/><path d="M79.6,212.1c.6,1.1.3,2-.2,3-.2.7.1,1.4,0,2.1,0,1.1-.4,2-1.3,2.8,0,0,0,0-.1,0-.3-1.1-.2-2.1.2-3,.2-.6.7-1.2.7-1.9,0-.7-.4-1.3,0-2,.1-.3.3-.6.5-.9,0,0,.1,0,.1,0h0Z" fill="#fff"/><path d="M75.3,210.2c.3.7.3,1.4,0,2.1-.2.3-.4.6-.5.9-.2,1,.2,2-.1,3-.2.7-.5,1.3-.9,1.9,0,0,0,0,0,0-.6-1-.5-2.1-.2-3.1.2-.6.8-1.2.8-1.9,0-.7-.3-1.4.1-2,.2-.3.3-.6.6-.9,0,0,.1,0,.1,0h0Z" fill="#fff"/><path d="M67.2,213.5c-.1,1.4-.4,2.7-1.2,3.8-.4.6-.6,1.2-.7,1.9,0,.6,0,1.2,0,1.7.1,1.4,0,3.4,0,5.1,0,0-.1,0-.1,0-1.1-1.4-1.4-3.3-1-5,0,0,0,.3,0,.3-.2-.8.3-1.6.6-2.3.6-1.2.3-2.8,1-4,.3-.6.7-1.2,1.3-1.6h.1Z" fill="#fff"/><path d="M64.8,215.1c-.1,1.4-.5,2.4-1.2,3.5,0,0-1.6,3.4-1.6,3.4h-.1c.2-1.3.4-2.6.8-3.8.3-1.3.8-2.6,2.1-3.3,0,0,.1,0,.1,0h0Z" fill="#fff"/><path d="M69.9,212.8c-.2,2.1-1.9,3.6-2.2,5.6,0,0,0,.1,0,.1-.3-.6-.1-1.1-.1-1.7.3-1.6.4-3.7,2.3-4.1,0,0,0,0,0,0h0Z" fill="#fff"/><path d="M76.7,210.3c.6,1.7.4,3.4-.2,5.1-.4,1.7-.9,3.3-1.6,4.8h-.1c.3-1.7.6-3.4.7-5,0-1.7.3-3.3,1.1-4.9,0,0,.1,0,.1,0h0Z" fill="#fff"/><path d="M78.3,211.8c.4.9.3,1.6,0,2.4-.2.8-.4,1.5-.7,2.3h-.1c-.1-.8-.2-1.6-.2-2.5-.1-.9,0-1.7.9-2.3,0,0,.1,0,.1,0h0Z" fill="#fff"/><path d="M48.4,293.2c-.5-1.7,0-3.4.9-4.9.5-1.6.5-3.4,1.3-4.9.6-1,1.2-2,2.3-2.5,0,0,0,.1,0,.1-.8,2.1-1.5,4-2.7,5.9-.3.5-.5,1-.7,1.5-.1,1.1,0,2.2-.5,3.3-.2.5-.4,1-.7,1.5h-.1Z" fill="#fff"/><path d="M65.5,291.9c-.2-1.3,0-2.4.4-3.5.2-.7.8-1.4.9-2.2,0-.4-.1-.8-.1-1.2,0-.6.4-2,.7-2.3.6.7.6,1.7.4,2.5-.1.4-.4.7-.5,1.1-.2,1.2.1,2.4-.3,3.6-.3.8-.6,1.5-1.3,2.1,0,0-.1,0-.1,0h0Z" fill="#fff"/><path d="M52,296.3c-.7-2-.1-4.1.7-5.9.8-1.8,1.5-3.9,2.7-5.4-.5,1.9-1.3,3.8-1.7,5.7-.4,2-.8,3.7-1.5,5.6,0,0-.1,0-.1,0h0Z" fill="#fff"/><path d="M63.3,293.1c-.8-2.9.4-6,1-8.8.1-.9.6-2,.4-2.9,0,0,0,0,0,0,0,0,0,0,0,0,.3.5.2,1,.2,1.5,0,1-.2,3.4-.3,4.4,0,2-.4,3.9-1.2,5.8,0,0-.1,0-.1,0h0Z" fill="#fff"/><path d="M54.1,295.8c-.5-1.2-.1-2,.5-3,.3-.6,0-1.4.1-2.1.1-1.1.6-2,1.5-2.7,0,0,0,0,.1,0,.2,1.1,0,2.1-.4,3-.2.6-.8,1.1-.9,1.8,0,.7.3,1.4-.1,2-.1.3-.3.6-.6.9,0,0-.1,0-.1,0h0Z" fill="#fff"/><path d="M60.8,293c-.3-.7-.4-1.4-.2-2,.1-.3.4-.6.5-.9.2-1-.3-2,0-3,.1-.7.4-1.3.8-1.9,0,0,0,0,0,0,.7.9.6,2.1.3,3.1-.1.7-.7,1.2-.7,1.9,0,.7.3,1.4,0,2-.1.3-.3.6-.6.9,0,0-.1,0-.1,0h0Z" fill="#fff"/><path d="M70.2,289.5c0-1.4.3-2.7,1-3.9.4-.6.5-1.2.6-1.9,0-.6,0-1.2-.1-1.7-.2-1.4-.3-3.4-.3-5.1,0,0,.1,0,.1,0,1.2,1.3,1.6,3.2,1.3,5,0,0,0-.3,0-.3.3.8-.2,1.6-.4,2.3-.6,1.3-.1,2.8-.8,4-.3.6-.6,1.2-1.2,1.7h-.1Z" fill="#fff"/><path d="M49.6,295.6c-.6-1.3-.1-2.7.5-3.9.5-1.2,1.1-2.3,1.8-3.4h.1c-.3,1.3-.7,2.5-1,3.7-.2,1.3-.6,2.4-1.4,3.5,0,0-.1,0-.1,0h0Z" fill="#fff"/><path d="M67.6,290.7c0-2.1,1.7-3.7,1.8-5.7,0,0,0-.1,0-.1.4.5.2,1.1.2,1.7-.2,1.6-.2,3.7-2,4.3,0,0,0,0,0,0h0Z" fill="#fff"/><path d="M47.9,288.6c-.6-1.1-.3-2.2.2-3.2.4-1,1-2,1.7-2.8h.1c-.6,1.6-.7,3.1-1,4.6-.2.5-.4,1-.8,1.4,0,0-.1,0-.1,0h0Z" fill="#fff"/><path d="M59.2,293.7c-.8-.9-.9-2.1-.7-3.2.2-1.1.4-2.1.8-3.1h.1c-.1,1.6.1,3.2.2,4.7,0,.5-.1,1-.4,1.6,0,0-.1,0-.1,0h0Z" fill="#fff"/><path d="M56.6,294.6c-.5-.9-.4-1.6-.1-2.4.2-.8.4-1.6.6-2.3h.1c.2.8.3,1.6.3,2.4.2.9,0,1.7-.8,2.3,0,0-.1,0-.1,0h0Z" fill="#fff"/><path d="M63.3,257.5c1.6,1.5,2.3,3.6,2.7,5.7.7,2,1.9,3.8,2.4,5.9.3,1.4.5,2.8.4,4.2,0,0,0,0-.1,0-1.8-3.2-2-6.6-3-10-1.1-1.8-2.1-3.6-2.4-5.8,0,0,0-.1.1,0h0Z" fill="#fff"/><path d="M62.1,256.5c1.4,2.4,1.4,5.2,1,7.8.1,4.3.7,9-1.3,13.1-.6-4.4.8-8.7.9-13.1-.4-2.6-.8-5.1-.7-7.8,0,0,0,0,.1,0h0Z" fill="#fff"/><path d="M61.8,256.7c.2,1.9-.5,3.6-1.4,5.1-.6,1.7-.6,3.6-1.5,5.2-.5,1.1-1.2,2.1-2.1,3,0,0-.1,0-.1,0,.3-1.8.8-3.4,1.7-5,.5-1.1,1.3-2,1.6-3.2.2-1.8.5-3.6,1.7-5,0,0,.1,0,.1,0h0Z" fill="#fff"/><path d="M62.3,256.8c1.7,1.7,2.2,4.1,2.5,6.3.4,2.2.6,4.5.8,6.7h-.1c-.7-3.3-1.7-6.5-2.6-9.7,0,0-.7-3.3-.7-3.3h.1Z" fill="#fff"/><path d="M62.2,257.8c.7,2.8-.5,5.6-.6,8.5,0,0-.1,0-.1,0-.2-1.4-.3-2.8-.4-4.3-.1-1.5,0-3,1-4.2,0,0,.1,0,.1,0h0Z" fill="#fff"/><path d="M57.3,252.8c-2.2.2-4.1-.5-6.2-1.1-3.5-.3-6.9.3-10.4-.9,0,0,0-.1,0-.1,1.4-.4,2.8-.5,4.2-.5,2.1,0,4.2.8,6.2,1.1,2.1,0,4.3.2,6.1,1.4,0,0,0,.1,0,.1h0Z" fill="#fff"/><path d="M58.2,253.7c-2.6.8-5.1,1-7.7,1.3-4.2,1.3-8,3.6-12.4,4.3,0,0-.1,0,0-.1,3.5-2.9,8-3.7,12.3-4.6,2.5-1,5.2-1.7,7.8-1,0,0,0,.1,0,.1h0Z" fill="#fff"/><path d="M58.5,253.8c-.9,1.6-2.5,2.6-4,3.5-1,.7-1.5,1.8-2.4,2.7-1.2,1.4-2.5,2.5-4.1,3.4,0,0-.1,0-.1,0,.4-1.2,1.2-2.2,2-3.1,1.2-1.4,2.9-2.1,4.3-3.3,1.1-1.5,2.4-2.7,4.2-3.3,0,0,.1,0,0,.1h0Z" fill="#fff"/><path d="M57.4,253.1c-1.8.6-3.6.6-5.4.3-1.8-.2-3.6-.4-5.4-.6,0,0,0-.1,0-.1,1.8-.2,3.6-.2,5.4-.3,1.8-.2,3.7-.2,5.4.6,0,0,0,.1,0,.1h0Z" fill="#fff"/><path d="M57.7,253.9c-2,2.1-5.2,2.7-7.7,4.1,0,0,0-.1,0-.1,1.1-1,2.3-1.9,3.6-2.7,1.2-.9,2.6-1.6,4.2-1.5,0,0,0,.1,0,.1h0Z" fill="#fff"/><path d="M58.8,246c-1.1-1.9-1.3-3.9-1.6-6.1-1.2-3.3-3.2-6.1-3.6-9.8,0,0,0-.1.1,0,1,1.1,1.7,2.3,2.3,3.6.9,1.9,1,4.1,1.7,6.1,1,1.9,1.7,4,1.3,6.2,0,0-.1,0-.1,0h0Z" fill="#fff"/><path d="M58.7,247.7c-1.7-2.1-2.9-4.3-4.1-6.7-2.8-3.4-6.3-6-8.7-9.8,0,0,0-.1,0,0,4,2.2,6.4,6,8.9,9.7,1.9,1.9,3.6,4.1,3.9,6.9,0,0,0,.1-.1,0h0Z" fill="#fff"/><path d="M58.9,247.8c-1.8-.4-3.2-1.6-4.5-2.8-1-.7-2.2-.9-3.2-1.5-1.7-.7-3.1-1.6-4.5-2.8,0,0,0-.1,0-.1,1.3,0,2.4.5,3.5,1,1.7.7,2.9,2.2,4.4,3.1,1.7.6,3.3,1.4,4.4,3.1,0,0,0,.1,0,.1h0Z" fill="#fff"/><path d="M59.2,247.5c-1.1-1.7-2.4-4.1-3.2-5.9-1-2-2.1-4-3.2-6h.1c1.4,1.7,2.7,3.5,4,5.4,1.3,1.9,2.5,4,2.4,6.4,0,0-.1,0-.1,0h0Z" fill="#fff"/><path d="M58.4,247c-2.7-1.1-4.4-3.8-6.7-5.6,0,0,0-.1,0-.1,1.3.7,2.6,1.5,3.8,2.3,1.3.8,2.5,1.8,2.9,3.3,0,0,0,0,0,0h0Z" fill="#fff"/><path d="M65.8,246.8c-1-2-.9-4.2-.4-6.3,0-2.1-.4-4.2-.1-6.3.2-1.4.5-2.8,1.2-4.1,0,0,.1,0,.1,0,.6,3.6-.6,6.9-.8,10.4.4,2.1.7,4.1.2,6.3,0,0-.1,0-.1,0h0Z" fill="#fff"/><path d="M66.5,247.6c-.1-2.8,1.1-5.3,2.6-7.4,1.2-2.4,2-4.9,3.5-7.1,1-1.4,2.1-2.8,3.5-4,0,0,.1,0,.1,0-1.6,4.2-4.7,7.4-6.8,11.2-.8,2.5-1.6,4.9-2.9,7.3,0,0-.1,0-.1,0h0Z" fill="#fff"/><path d="M66.1,247.1c-.7-2.3,0-4.6.7-6.8.7-2.2,1.5-4.3,2.4-6.3h.1c-.9,3.3-1.5,6.6-2.2,9.9,0,0-.9,3.2-.9,3.2h-.1Z" fill="#fff"/><path d="M67,246.7c.2-1.6,1.1-2.8,2.3-3.8,1.1-1.1,2.1-2,3.3-2.9h0c-.9,1.3-1.8,2.4-2.6,3.6-.8,1.3-1.6,2.4-3,3.2,0,0-.1,0-.1,0h0Z" fill="#fff"/><path d="M58.7,250.6c-.8-1.3,1-1.1,1.1-1.6s0-.7.1-1.1.2-.6,1.2-.5c1,0,.4.5.9.4s.8-.4,1.3-.3.6,0,.8.3c.2.4.1.6.5.6s.6.3.9.6c.3.3.9.6.9,1s-.4.4.2.6c.6.3,1,.2.8.9-.2.6-.2.8-.6.9s-.4.5-1,.8,0,.9-.6,1.2-1.3.5-1.5.2-.5,0-1-.2c-.6,0-1.5.3-1.5,0s-.1-.6-.5-.8-.8,0-1.1-.3-.4-1.2-.2-1.4-.6-1.3-.6-1.3Z" fill="none" stroke="#fff" stroke-miterlimit="10" stroke-width=".6"/><path d="M65.9,251.5c.7.9-.7.9-.8,1.2s0,.6,0,.8-.1.4-.9.4-.3-.4-.7-.3-.6.3-1,.3-.5,0-.6-.2-.1-.5-.4-.4-.4-.2-.7-.4-.7-.4-.7-.7.3-.3-.2-.5-.7-.1-.6-.6c.1-.5.1-.6.5-.7s.3-.4.7-.7,0-.7.4-.9,1-.4,1.1-.2.4,0,.8.1c.4,0,1.1-.3,1.2,0s.1.5.4.6.6,0,.8.2.4.9.2,1,.5,1,.5,1Z" fill="none" stroke="#fff" stroke-miterlimit="10" stroke-width=".5"/><path d="M60.9,250.2c-.2-.8.7-.4.8-.6s0-.4.3-.5.2-.2.7,0,0,.3.4.4.5,0,.7,0,.3,0,.3.3,0,.3.1.4.2.3.3.5.3.4.3.6-.3.1,0,.3.4.3.2.6-.2.4-.5.3-.3.2-.7.2-.2.4-.5.5-.8,0-.8-.2-.2-.1-.5-.3-.8-.1-.8-.3,0-.3-.1-.5-.4-.1-.5-.4,0-.7.2-.7,0-.8,0-.8Z" fill="none" stroke="#fff" stroke-miterlimit="10" stroke-width=".3"/><path d="M81.6,87.6c-.4.8-.7,1.4-.8,2,0,0,.1,0,.2,0,.5.4.8.9.9,1.4.8,0,1.6.5,2.1,1.2.4,0,.9,0,1.3-.1,13.4-20.5,35.6-37.1,49.6-22,2.8,3.1,12.5,1.4,14.5,6.4,4.3,10.8-6,17-11.6,22.6-12.2,12.1-32.3,9.5-50-.6-1.5,0-2.5.3-3.1.7,0,.8-.2,1.5-.7,2.1.2,1,.9,1.9,1.4,2.5,4.8,1.9,10.8,3,20.4,9,6.7,4.2,17.4,3.8,22.6,9.8,6.1,7,8.6,22.1-.3,28.8-2.3,1.7-7.9,1.3-10.1,2.5-8.2,4.6-12.3,7.6-18.6,5.4-6.4-2.3-11.5-8.1-14.7-17.5-2.8-8.4-4.2-19.5-3.6-33.6-.4-.9-.9-1.7-1.4-2.2-.9,0-1.8-.4-2.3-1.3,0,0,0,0,0,0,0,0-.1.2-.2.2-1,.6-2.2.5-3.1-.1-.6.4-1.1.8-1.3,1,2.7,15.8,11.6,53.6-11.7,56.3-2.9.3-7.5,5.8-13.9,4.1-7.2-3.4-7.1-11.1-9.6-13.8-8.9-9.6,1.2-28.3,30.6-49.8.6-.7.9-1.4,1-1.9,0-.1,0-.3,0-.4,0-1.1-1-1.8-2-2.2-6.6,3.3-16.6,7.7-26.2,9-9.8,1.4-23.8,0-28.6-9.1-2.2-4.2,4.6-13.8,5.5-22.1-.2-10.5,5.2-12.4,12.5-15.5,13.6-5.7,30.7,1.2,42,27.8.9,1,1.5,1.5,2,1.7.3,0,.7,0,1,0,.6-.4.9-1.6.9-2.6-5-15-34.3-45.5,5.1-61.8,5.6-2.3.4,2.7,23.9-4.1,10.3,3.5,11,26.9-23.7,66.4Z" fill="none" stroke="#fff" stroke-miterlimit="10" stroke-width="4.2"/><path d="M67.2,98c-2.5-2.5,1.8-3,1.8-4.1,0-1.1-.6-1.6-.2-2.5s.2-1.4,2.4-1.7c2.3-.3,1.1,1,2.3.5,1.3-.5,1.7-1.3,2.8-1.4,1.1-.1,1.4-.5,2,.3s.6,1.3,1.4,1,1.4.5,2.3,1c.8.5,2.3.8,2.5,1.7.2.9-.7,1,.7,1.3s2.4,0,2.2,1.6c-.2,1.5,0,1.9-1,2.5s-.7,1.4-1.9,2.4c-1.1,1,.3,2.1-.7,3.1-1,.9-2.8,1.8-3.3,1.1-.5-.7-1.1,0-2.4,0-1.4,0-3.3,1.5-3.5.6-.2-.9-.6-1.3-1.7-1.6-1-.3-1.8.5-2.6-.1s-1.5-2.5-1-3.1c.5-.6-2-2.6-2-2.6Z" fill="none" stroke="#fff" stroke-miterlimit="10" stroke-width="1.4"/><path d="M66.5,96c-3.3,2-7,2.2-10.7,1.8-3.6.2-7.2,1.5-10.9,1.2-2.4-.1-4.9-.5-7.2-1.4-.1,0,0-.2,0-.2,3.7-.8,7.2-.9,10.8-.7,2.4,0,4.8.7,7.2.3,3.5-1,7-1.8,10.8-1.3.1,0,.1.2,0,.2h0Z" fill="#fff"/><path d="M68.7,91.5c-2.3.5-4.6.5-6.9.2-2.3-.2-4.4-1.4-6.6-2.1-2.9-1-6-1.1-8.9-2.1-4.4-1.3-8.6-3.2-12.3-6.1,0,0,0-.2,0-.2,4.5,1,8.7,2.5,12.9,4.3,2.8,1.1,5.4,2.8,8.4,3.4,4.5.5,9,1,13.3,2.4.1,0,.1.2,0,.2h0Z" fill="#fff"/><path d="M71.1,89.8c-3.3-.5-5.7-2.5-7.9-4.8-2.5-1.8-5.6-2.7-8-4.8-1.5-1.4-3-2.9-4-4.9,0,0,0-.2.2-.2,2.9,1.4,5.3,3,7.6,5.2,1.6,1.3,2.8,3.1,4.5,4.1.9.5,1.9.8,2.9,1.2,1.8,1,3.4,2.3,4.7,4,0,0,0,.2-.1.2h0Z" fill="#fff"/><path d="M67.8,93.5c-3.8,1.5-8,.6-11.7-.5-3.8-1-7.5-2.1-11.2-3.5,0,0,0-.2,0-.2,3.8.7,7.6,1.4,11.5,2,3.9.3,7.5,1.1,11.4,2,0,0,0,.2,0,.2h0Z" fill="#fff"/><path d="M68.4,95.8c-3.1,1.2-6.2,1.1-9.4.5-2.8-.3-6.6-.8-9.3-1.2,0,0,0-.2,0-.2,2.7-.2,6.6-.3,9.4-.4,3.2-.3,6.3-.2,9.3,1,0,0,0,.2,0,.2h0Z" fill="#fff"/><path d="M65.7,97.9c-3.9,3.5-9.3,3.5-14.2,3.8-1.6,0-3.3,0-4.9-.3v-.2c3.2-.3,6.4-.8,9.5-1.6,3.2-1,6.1-1.9,9.5-1.9,0,0,0,.2,0,.2h0Z" fill="#fff"/><path d="M68.2,90.1c-4.2.3-7.2-2.7-10.4-4.8-1-.8-2-1.6-3-2.4,0,0,.1-.2.1-.2,2.3,1.1,4.5,2.2,6.9,3.3,2.5.9,4.6,1.9,6.5,4,0,0,0,.2,0,.2h0Z" fill="#fff"/><path d="M71.1,88.7c-2.3-1.3-3.8-3-5.2-5.1,0,0-2.3-2.9-2.3-2.9l-2.3-2.9s.2-.2.2-.2c1,.7,2,1.5,3,2.2,2.8,2.5,6.4,4.6,6.9,8.7,0,0-.2.1-.2.1h0Z" fill="#fff"/><path d="M23.3,64.7c1.8-.8,3.9-1.1,5.8-.7,1,.2,1.9.7,2.8.9,1.9.4,3.9,0,5.8.2,2,.2,3.9.8,5.6,1.8.9.5,1.7,1.1,2.3,2l-.2.2c-2.8-.6-5.5-1-8.2-1.9-1.8-.5-3.6-1.6-5.5-1.6-1,0-1.9.2-2.9.3-1.4,0-2.8-.2-4.2-.5-.5-.1-.9-.2-1.4-.4v-.2h0Z" fill="#fff"/><path d="M14.9,85.8c2.2.3,4,1.2,5.6,2.5,1.1.7,1.9,2.1,3.2,2.6.6.3,1.4.2,2.1.4,1.3.4,2.4,1.3,3.4,2.3,0,0,0,0,0,0-.5.3-.9.3-1.2.3-1.1,0-2.2-.3-3-1-.6-.4-1-1.1-1.6-1.5-1.8-1-4-1-5.8-2.4-1.1-.8-2.1-1.8-2.8-3.2,0,0,0-.2.1-.2h0Z" fill="#fff"/><path d="M18,69.4c3.5-1.1,7.1-.2,10.3,1.2,2.9,1.2,7,2.8,9.3,4.7-3.2-.9-6.5-2.2-9.9-2.9-3.4-.7-6.5-1.4-9.7-2.7-.1,0-.1-.2,0-.2h0Z" fill="#fff"/><path d="M15.2,82.8c5.3.3,9.4,3.8,14,6.2,1.4.7,2.9,1.8,4.4,2.1.1,0,.3,0,.1.2-.9.3-1.8-.2-2.6-.4-1.7-.5-5.5-2.1-7.2-2.8-3.3-1.2-6.3-2.6-8.9-5.1,0,0,0-.2,0-.2h0Z" fill="#fff"/><path d="M18.7,71.6c1.3-.3,2.5-.2,3.5.5.9.8,1.8,1.7,3.1,1.7,2.5.2,4.7,1.3,5.9,3.7,0,0,0,.2-.1.2-1.3,0-2.5-.3-3.5-.7-1-.5-2-1.2-2.8-2-.4-.4-.9-.8-1.5-.9-.6-.2-1.2,0-1.8-.1-.6,0-1.1-.4-1.6-.7-.5-.3-1-.7-1.4-1.3,0,0,0-.2,0-.2h0Z" fill="#fff"/><path d="M17.9,80c1.3-.2,2.5,0,3.5.8.4.4.8,1,1.3,1.3.5.3,1.1.5,1.7.5,1.2.1,2.3.4,3.4.9,1,.5,2,1.4,2.8,2.3,0,0,0,.1,0,.1-1.9.7-3.7,0-5.3-1.1-1-.6-1.7-1.8-2.8-2.1-.5-.2-1.2-.1-1.8-.3-.6-.1-1.1-.5-1.5-.8-.5-.4-.9-.8-1.2-1.5,0,0,0-.2.1-.2h0Z" fill="#fff"/><path d="M13.2,92c1.8.6,3.2,1.4,4.6,2.5,1.2,1.2,2.3,2.7,4.1,3.2.8.3,2.4.6,2.8.7,3,.5,5.7,1.3,8.6,2.2,0,0,0,.2,0,.2-2.8,1.3-6.1.9-8.9-.4,0,0,.5,0,.5,0-1.4,0-2.5-1.2-3.6-1.9-1.8-1.6-4.5-1.6-6.2-3.4-.9-.8-1.7-1.7-2.2-2.8v-.2h.1Z" fill="#fff"/><path d="M20.9,66.9c3.3-1.8,6.7.5,9.8,1.6,1,.5,2,.9,3,1.5,0,0,0,.2,0,.2l-6.5-1.2c-2.3-.2-4.2-.7-6.2-1.9,0,0,0-.2,0-.2h0Z" fill="#fff"/><path d="M12.5,93.7c2.2.8,3.8,1.9,5.4,3.5,0,0,5.1,4.2,5.1,4.2v.2c-2.2-.8-4.2-1.8-6.1-2.9-2.1-1-4.1-2.5-4.6-4.9,0,0,.2-.1.2-.1h0Z" fill="#fff"/><path d="M14.5,88.2c1.9.7,3,1.6,4.3,3,1.3,1,2.6,2.4,4.2,3,0,0,.2.2.2.2-.3.2-.6,0-.8,0-1.6-.3-3.1-1-4.5-1.8-1.8-.8-3.5-2.2-3.5-4.4,0,0,.2-.1.2-.1h0Z" fill="#fff"/><path d="M26.5,62.5c2.2-2.4,5.4-1.6,8.2-1.2.9.2,1.8.4,2.7.7v.2c-2.8,0-5.4.6-8.1,1-.9,0-1.8-.1-2.8-.5v-.2h0Z" fill="#fff"/><path d="M17.9,76.9c2.9-1.4,5.6.6,8.1,2,.8.5,1.6,1.1,2.3,1.7,0,0-.1.2-.1.2-2.5-1-5.2-1.4-7.8-2.1-.8-.4-1.6-.8-2.4-1.5v-.2h0Z" fill="#fff"/><path d="M18.1,73.6c1.7-.3,2.8.1,4,1.1,0,0,1.8,1.1,1.8,1.1l1.8,1.1s0,.2,0,.2c-.7,0-1.4-.2-2.1-.3-1.2-.3-3.1-.5-4.1-1.1-.6-.4-1.1-1-1.4-1.9v-.2h.1Z" fill="#fff"/><path d="M131.1,145.8c-.9-1.7-1.5-3.6-1.7-5.5,0-.9,0-2-.1-2.9-.3-1.9-1.7-3.5-2.4-5.2-1.3-2.6-2.1-5.1-3-7.9,0,0,.1-.2.1-.2,1,.5,1.7,1.2,2.3,2,1.3,1.5,2.1,3.4,2.6,5.3.6,1.8.4,3.9,1.1,5.7.8,1.8,1.8,3.5,1.7,5.6,0,1,0,2-.4,3,0,0-.2,0-.2,0h0Z" fill="#fff"/><path d="M111.4,157.2c-2.1-.8-3.7-2.2-4.8-4-.8-1.1-1-2.7-1.9-3.7-1.1-1-2.3-1.6-2.7-3.1-.2-.8-.5-1.5-.2-2.3,0,0,0,0,.1,0,1,.9,2.1,1.8,2.7,3.1.3.6.4,1.4.7,2,1.1,1.6,3.2,2.5,4.4,4.3.8,1.1,1.5,2.3,1.9,3.7,0,0,0,.2-.2.2h0Z" fill="#fff"/><path d="M127.2,151.7c-1.7-3.1-2.9-6-4-9.3-1.2-3.2-3.1-6.3-4.3-9.4,2.3,2.4,4.1,5.6,5.9,8.6,1.8,3,3.3,6.4,2.6,10,0,.1-.2.1-.2,0h0Z" fill="#fff"/><path d="M114.4,156.4c-2.8-2.2-4.6-5-6.3-8.1-.9-1.6-3-5.1-3.8-6.7-.3-.8-1-1.6-.8-2.5,0-.1.2,0,.2.1,0,0,0,.3.2.5,1.4,2.3,4.1,5.5,5.7,7.6,2.3,2.6,4.3,5.4,5,9,0,.1-.1.2-.2.1h0Z" fill="#fff"/><path d="M124.9,151.3c-1.1-.6-1.9-1.5-2.4-2.6-.2-.6-.1-1.2-.4-1.8-.2-.5-.6-1-1.1-1.3-1-.7-1.7-1.6-2.4-2.5-.6-1-1-2-1.2-3.4,0,0,0-.1.1-.1,1.9.6,3.2,2,3.9,3.7.6,1,.5,2.4,1.3,3.3.4.5,1,.8,1.4,1.2.4.4.6,1,.8,1.6.2.6.3,1.2.1,1.9,0,0-.1.1-.2.1h0Z" fill="#fff"/><path d="M116.8,153.3c-1.2-.5-2.1-1.3-2.6-2.4-.2-.6-.2-1.2-.5-1.8-.3-.5-.7-.9-1.2-1.3-1.5-1.1-2.6-2.5-3.1-4.3-.1-.6-.3-1.2,0-2,0,0,0,0,0,0,0,0,0,0,0,0h.1c1.4,1.1,2.7,2.3,3.4,3.9.6,1,.5,2.4,1.3,3.2.4.4,1,.7,1.5,1.1.4.4.7.9.9,1.5.2.6.4,1.1.4,1.9,0,0,0,.2-.2.1h0Z" fill="#fff"/><path d="M105.6,159.7c-1.8-.6-3.2-1.7-4.4-3-1-1.4-1.6-3.2-3-4.4-.9-.9-2.2-1.8-2.4-3.2,0,0,.1.5.1.5-1.7-2.5-2.5-5.8-1.6-8.7,0,0,.2,0,.2,0,1.3,2.7,2.6,5.8,3.4,8.3.6,2,1.5,4.1,3.4,5.2,2,1.3,3.4,3.1,4.5,5.3,0,0-.1.2-.1.2h0Z" fill="#fff"/><path d="M129.3,148.4c-1.5-1.9-2.2-3.7-2.7-5.9,0,0-2.1-6.3-2.1-6.3,0,0,.2-.1.2-.1,1.3,1.8,2.5,3.7,3.5,5.6,1.2,1.9,2.2,4.3,1.3,6.6,0,0-.2,0-.2,0h0Z" fill="#fff"/><path d="M104,160.7c-3.7-.2-5.4-3.9-7.4-6.5-.6-.9-1.2-1.8-1.8-2.8,0,0,.2-.1.2-.1l4.9,4.4c1.8,1.4,3.2,2.8,4.3,4.9,0,0-.1.2-.1.2h0Z" fill="#fff"/><path d="M109.2,157.9c-3.3.5-4.9-2.8-6.4-5.1-.3-.8-1.2-1.8-.9-2.7,0,0,.2.1.2.1.8,1.5,2.4,2.6,3.6,3.7.7.6,1.5,1,2,1.6.6.7,1,1.3,1.6,2.2,0,0,0,.2,0,.2h0Z" fill="#fff"/><path d="M119.8,152.9c-1.6-1.3-2.2-2.8-2.8-4.7-.7-1.7-1.4-3.3-2.3-4.9,0,0,.2-.1.2-.1,1.4,1.2,2.7,2.7,3.7,4.3,1.3,1.6,2,3.4,1.4,5.5,0,0-.2,0-.2,0h0Z" fill="#fff"/><path d="M123.1,152.3c-1.7-.3-2.6-1.5-3-3-.6-1.3-1-2.7-1.3-4,0,0,.2,0,.2,0l1.3,1.6,1.3,1.6c.4.5,1,.9,1.3,1.6.2.6.4,1.3.4,2.2,0,0-.2.1-.2.1h0Z" fill="#fff"/><path d="M142.7,95.3c-1.4,1.5-3.2,2.4-5.1,2.8-1,.2-2,0-2.9.3-1.9.3-3.6,1.5-5.5,2-1.9.6-3.9.8-5.9.5-1-.2-2-.4-2.9-1,0,0,0-.2,0-.2,2.8-.5,5.4-1.2,8.3-1.3,1.9-.3,3.9,0,5.7-.6.9-.3,1.7-.9,2.6-1.4,1.3-.6,2.7-.9,4.1-1.1.5,0,1-.1,1.5-.1v.2h0Z" fill="#fff"/><path d="M145.7,74.4c-1.9,1.2-3.8,1.6-5.9,1.6-1.3.1-2.8-.4-4.1,0-.7.2-1.2.7-1.9,1-1.2.5-2.6.5-3.9.4h-.1s0,0,0,0c.2-.5.5-.8.8-1,.9-.6,1.9-1.1,2.9-1.2.7,0,1.5.2,2.1.1,2-.3,3.7-1.7,6-1.8,1.4,0,2.8,0,4.2.7,0,0,.1.2,0,.2h0Z" fill="#fff"/><path d="M146.7,89.2c-2,3.1-5.3,4.7-8.7,5.6-3,.9-7.2,2.2-10.2,2.3,3-1.4,6.5-2.4,9.5-4,3-1.6,5.9-3,9.2-4.1,0,0,.2,0,.1.2h0Z" fill="#fff"/><path d="M148.9,76.2c-4.2,3.1-9.8,3.1-14.8,4.1-1.6.3-3.4.4-4.8,1.2,0,.1-.3.1-.2,0,.5-.8,1.5-.9,2.3-1.3,1.6-.7,5.6-1.8,7.3-2.4,3.3-1.2,6.5-1.9,10.1-1.7.1,0,.2.2,0,.2h0Z" fill="#fff"/><path d="M150.1,86.7c-.8,1-1.8,1.7-3,1.9-1.2,0-2.4-.2-3.4.7-2,1.4-4.5,2-6.9.9,0,0-.1-.2,0-.2,1-.9,2.1-1.3,3.2-1.7,1.1-.3,2.3-.4,3.4-.2.6,0,1.2,0,1.7-.2.5-.2,1-.7,1.5-1.1.5-.3,1.1-.4,1.6-.5.6,0,1.2,0,1.9.2,0,0,.1.1,0,.2h0Z" fill="#fff"/><path d="M149.9,78.6c-.9.9-2,1.5-3.2,1.6-.6,0-1.2-.2-1.8-.2-1.2,0-2.1,1.1-3.2,1.5-1.6.8-3.3.8-5.1.6,0,0-.1,0-.1,0,0,0,0,0,0,0,1-1.7,2.9-2.4,4.8-2.5,1.1-.2,2.4.3,3.5-.1.5-.2,1-.7,1.6-.9.5-.3,1.1-.3,1.7-.3.6,0,1.2,0,1.9.4,0,0,.1.2,0,.2h0Z" fill="#fff"/><path d="M134.1,69.6c-1.7.7-3.4,1-5.1,1-1.7-.1-3.5-.6-5.2.1-.9.4-1.9.8-2.7,1.3-2.2,1.3-5.3,2.6-8,3.7,0,0-.2-.2-.2-.2,1.4-2.8,4.1-4.6,7.1-5.3,0,0-.4.3-.4.3,1.1-.9,2.7-.7,4-.7,2.4,0,4.5-1.6,6.9-1.3,1.2,0,2.4.3,3.5.8v.2h0Z" fill="#fff"/><path d="M133.5,67.8c-2.2.8-4.2,1-6.4.7,0,0-6.6,0-6.6,0,0,0,0-.2,0-.2,2.1-.7,4.3-1.2,6.5-1.5,2.2-.6,4.8-.7,6.6.9,0,0,0,.2,0,.2h0Z" fill="#fff"/><path d="M137.2,72.7c-1.9.6-3.4.7-5.2.4-1.7,0-3.5-.2-5.1.3,0,0-.2,0-.2,0,.1-.4.4-.4.6-.6,1.5-.8,3.1-1.2,4.7-1.5,1.9-.5,4.1-.6,5.5,1.2,0,0,0,.2,0,.2h0Z" fill="#fff"/><path d="M150.8,80.8c-2.2,2.2-5.1,3.1-8.1,3.5-2.9.5-5.8.9-8.8,1,0,0,0-.2,0-.2,2.8-.7,5.6-1.5,8.3-2.5,2.8-1.1,5.4-2,8.5-2,0,0,0,.2,0,.2h0Z" fill="#fff"/><path d="M149.7,84.6c-1.1,1.3-2.2,1.7-3.8,1.7,0,0-2,.3-2,.3l-2.1.3v-.2c.5-.4,1.1-.8,1.7-1.1,1.1-.5,2.7-1.6,3.9-1.8.7,0,1.5,0,2.3.6,0,0,0,.2,0,.2h0Z" fill="#fff"/><path d="M37.5,150.5c-.5-1.9-.4-4,.2-5.8.4-.9,1-1.7,1.3-2.7.7-1.8.6-3.9,1.2-5.7.5-1.9,1.4-3.7,2.7-5.2.7-.8,1.4-1.5,2.4-2v.2c-.9,2.7-1.7,5.3-3.1,7.8-.7,1.7-2.1,3.3-2.5,5.2-.2.9,0,1.9-.2,2.9-.2,1.4-.6,2.8-1.2,4.1-.2.4-.4.9-.7,1.3h-.2Z" fill="#fff"/><path d="M53.7,164c0-2.3.6-4.1,1.7-5.9.6-1.2,1.8-2.2,2.1-3.5.2-.7,0-1.4.1-2.1.2-1.4,1-2.6,1.8-3.7,0,0,0,0,0,0,.4.4.4.8.5,1.2.1,1.1,0,2.2-.5,3.1-.4.6-.9,1.1-1.2,1.8-.8,1.9-.5,4.1-1.5,6-.7,1.2-1.5,2.4-2.8,3.2,0,0-.2,0-.2-.1h0Z" fill="#fff"/><path d="M40.6,157.2c-1.6-3.3-1.2-7-.2-10.3.8-3,1.8-7.3,3.3-9.9-.4,3.3-1.3,6.8-1.5,10.2-.2,3.5-.5,6.6-1.3,10,0,.1-.2.1-.2,0h0Z" fill="#fff"/><path d="M50.5,165.8c-.5-5.3,2.5-9.9,4.2-14.7.5-1.5,1.4-3.1,1.5-4.7,0-.1,0-.3.2-.2.4.8,0,1.8,0,2.7-.3,1.7-1.3,5.8-1.8,7.5-.7,3.4-1.8,6.6-3.8,9.5,0,0-.2,0-.2,0h0Z" fill="#fff"/><path d="M40.9,161.3c-.5-1.2-.5-2.4,0-3.6.7-1,1.4-2,1.2-3.3-.2-2.5.6-4.9,2.8-6.4,0,0,.2,0,.2,0,.2,1.3,0,2.5-.2,3.6-.4,1.1-.9,2.1-1.6,3.1-.4.5-.6,1-.7,1.6,0,.6.1,1.2.1,1.8,0,.6-.2,1.1-.5,1.7-.3.5-.6,1-1.1,1.5,0,0-.2,0-.2,0h0Z" fill="#fff"/><path d="M47.9,165.4c-.3-1.3-.3-2.4.3-3.5.3-.5.8-.9,1.1-1.5.3-.5.3-1.1.3-1.7,0-1.2.1-2.3.5-3.5.4-1.1,1.1-2.1,1.9-3.1,0,0,.1,0,.1,0,.9,1.8.5,3.7-.3,5.4-.4,1.1-1.5,1.9-1.7,3.1-.1.6,0,1.2,0,1.8,0,.6-.3,1.1-.6,1.6-.3.5-.7,1-1.3,1.4,0,0-.2,0-.2,0h0Z" fill="#fff"/><path d="M62.4,161.3c.3-1.8.9-3.4,1.8-4.9,1-1.4,2.3-2.7,2.6-4.5.2-.8.3-2.4.3-2.9,0-3,.5-5.8,1-8.8,0,0,.2,0,.2,0,1.6,2.6,1.8,5.9.8,8.8,0,0,0-.5,0-.5.2,1.4-.8,2.6-1.4,3.8-1.3,2-1,4.7-2.5,6.6-.7,1-1.5,1.9-2.5,2.6h-.2Z" fill="#fff"/><path d="M66.8,159c.5-2.3,1.4-4.1,2.8-5.9,0,0,3.4-5.6,3.4-5.6,0,0,.2,0,.2,0-.5,2.1-1.2,4.3-2.1,6.3-.7,2.2-1.9,4.4-4.2,5.2,0,0-.2-.2-.2-.2h0Z" fill="#fff"/><path d="M57.7,162c.5-1.9,1.2-3.2,2.4-4.7.8-1.4,2-2.9,2.4-4.5,0,0,.1-.2.1-.2.3.3.2.5.2.8-.1,1.6-.6,3.2-1.2,4.8-.5,1.9-1.7,3.8-3.9,4,0,0-.1-.2-.1-.2h0Z" fill="#fff"/><path d="M45.6,165c-.7-3.1,0-6,1.2-8.7,1-2.8,2.2-5.5,3.7-8h.2c-.9,2.9-1.6,5.7-2.2,8.5-.5,2.9-1.1,5.7-2.8,8.3,0,0-.2,0-.2,0h0Z" fill="#fff"/><path d="M43,162.1c-.6-1.6-.3-2.8.5-4.1,0,0,.8-1.9.8-1.9l.8-1.9s.2,0,.2,0c0,.7,0,1.4,0,2.1-.1,1.2,0,3.1-.5,4.2-.4.6-.8,1.3-1.7,1.6h-.2Z" fill="#fff"/><path d="M109.8,27.8c.3,2,0,4-.9,5.8-.5.9-1.2,1.6-1.6,2.5-.9,1.7-1,3.8-1.9,5.5-.7,1.8-1.8,3.5-3.3,4.9-.7.7-1.5,1.3-2.6,1.7v-.2c1.2-2.6,2.3-5,4-7.4.9-1.6,2.5-3,3.1-4.8.3-.9.3-1.9.5-2.8.3-1.4.9-2.7,1.6-3.9.2-.4.5-.8.8-1.3h.2Z" fill="#fff"/><path d="M80.2,26.9c.1,2.3-.3,4.1-1.3,6-.5,1.2-1.7,2.3-1.9,3.6-.1.7,0,1.4,0,2.1-.1,1.4-.8,2.7-1.5,3.8,0,0,0,0,0,0-.4-.4-.4-.8-.5-1.2-.2-1.1-.1-2.2.3-3.1.3-.6.9-1.2,1.1-1.8.6-2,.2-4.1,1.2-6.1.6-1.3,1.3-2.5,2.6-3.4,0,0,.2,0,.2,0h0Z" fill="#fff"/><path d="M104.2,21.9c.8,3.6-.5,7.1-2.3,10.1-1.5,2.8-3.5,6.6-5.6,8.8,1.2-3.1,2.9-6.3,4-9.5,1-3.3,2.1-6.3,3.7-9.4,0,0,.2,0,.2,0h0Z" fill="#fff"/><path d="M84.2,25.2c.8,5.2-1.9,10.1-3.3,14.9-.4,1.5-1.2,3.2-1.2,4.8,0,.1,0,.3-.1.2-.5-.8-.1-1.8,0-2.7.2-1.7,1-5.8,1.3-7.6.5-3.4,1.4-6.7,3.2-9.7,0,0,.2,0,.2,0h0Z" fill="#fff"/><path d="M100.6,22.3c.4,1.2.3,2.5-.2,3.6-.8.9-1.6,1.8-1.5,3.2,0,2.5-1,4.8-3.3,6.1,0,0-.2,0-.2-.1,0-1.3.1-2.5.5-3.5.5-1.1,1-2,1.8-2.9.4-.5.7-1,.8-1.5.1-.6,0-1.2,0-1.8,0-.6.3-1.1.6-1.6.3-.5.7-1,1.2-1.4,0,0,.2,0,.2,0h0Z" fill="#fff"/><path d="M88.5,25.9c.4,1.2.4,2.4-.1,3.6-.3.5-.8,1-1,1.5-.2.5-.3,1.1-.2,1.7.1,1.2,0,2.3-.3,3.5-.3,1.1-1,2.2-1.7,3.2,0,0,0,0-.1,0-1-1.7-.7-3.7,0-5.4.3-1.1,1.4-2,1.5-3.2,0-.6-.1-1.2-.1-1.8,0-.6.2-1.1.5-1.7.3-.5.6-1,1.2-1.5,0,0,.2,0,.2,0h0Z" fill="#fff"/><path d="M71.6,30.1c-.2,1.9-.7,3.4-1.5,5-.9,1.5-2.2,2.8-2.3,4.6-.1.8-.1,2.5,0,2.9.1,3-.1,5.8-.4,8.9,0,0-.2,0-.2,0-1.8-2.5-2.1-5.8-1.4-8.8,0,0,0,.5,0,.5-.3-1.4.7-2.7,1.2-3.9,1.2-2.1.7-4.7,2.1-6.7.6-1,1.3-2,2.4-2.7,0,0,.2.1.2.1h0Z" fill="#fff"/><path d="M108.2,23.6c1.2,3.5-1.7,6.5-3.4,9.3-.7.9-1.3,1.8-2,2.7h-.2c0-.1,2.4-6.3,2.4-6.3.6-2.2,1.5-4,3-5.8,0,0,.2,0,.2,0h0Z" fill="#fff"/><path d="M76.3,28.5c-.4,2-1,3.3-2.1,4.8-.8,1.5-1.9,3-2.1,4.7,0,0-.1.2-.1.2-.3-.3-.2-.5-.2-.8,0-1.6.4-3.3.9-4.8.4-1.9,1.4-3.9,3.6-4.3,0,0,.1.2.1.2h0Z" fill="#fff"/><path d="M109.9,35.8c1.2,3-1,5.6-2.5,7.9-.6.7-1.2,1.5-1.9,2.1h-.2c1.2-2.6,1.8-5.2,2.7-7.8.4-.8.9-1.6,1.7-2.3h.2Z" fill="#fff"/><path d="M91.3,25c1.9,2.6.6,5.6-.3,8.3-.4.9-.7,1.7-1.2,2.5,0,0-.2,0-.2,0,.5-2.7.4-5.4.5-8.1.2-.9.4-1.7,1-2.7,0,0,.2,0,.2,0h0Z" fill="#fff"/><path d="M96,23.9c.7,1.6.4,2.7-.3,4.1,0,0-.7,2-.7,2l-.7,2h-.2c0-.7-.1-1.4-.2-2.1,0-1.3-.2-3.1.3-4.2.3-.7.8-1.3,1.6-1.7h.2Z" fill="#fff"/><path d="M77.5,86.4c-2.5-2.9-3.3-6.6-3.5-10.3-.8-3.5-2.6-6.9-3-10.5-.3-2.4-.3-4.9.2-7.4,0-.1.2-.1.2,0,1.4,3.5,2.1,6.9,2.4,10.6.4,2.4,0,4.9.8,7.2,1.5,3.4,2.9,6.6,3,10.4,0,.1-.1.2-.2,0h0Z" fill="#fff"/><path d="M79.3,88.4c-.9-2.2-1.3-4.5-1.3-6.8-.2-2.3.7-4.6,1-6.8.5-3,.1-6.1.6-9.1.5-4.6,1.8-9,4-13.1,0-.1.2,0,.2,0-.2,4.6-1,9-2.2,13.4-.6,2.9-1.9,5.8-2,8.8.2,4.5.4,9-.2,13.5,0,.1-.2.1-.2,0h0Z" fill="#fff"/><path d="M79.9,88c0-3.4,1.5-6.1,3.4-8.6,1.4-2.8,1.8-6,3.5-8.6,1.1-1.7,2.4-3.4,4.2-4.7,0,0,.2,0,.2.1-.9,3.1-2.1,5.8-3.8,8.4-1,1.8-2.6,3.2-3.3,5.2-.4,1-.5,2-.7,3-.7,2-1.7,3.8-3.1,5.3,0,0-.2,0-.2,0h0Z" fill="#fff"/><path d="M79.1,87.8c-2.6-3.1-3-7.4-3.1-11.3-.2-3.9-.2-7.8,0-11.7,0,0,.2,0,.2,0,.5,3.9,1,7.7,1.6,11.5.9,3.8,1.2,7.5,1.5,11.4,0,0-.2,0-.2,0h0Z" fill="#fff"/><path d="M79.5,86.1c-.4-2.6,0-4.9.9-7.3,0,0,.9-3.6.9-3.6l.9-3.6h.2c0,1.3,0,2.5,0,3.7-.3,3.7.2,7.9-2.7,10.8,0,0-.2,0-.2,0h0Z" fill="#fff"/><path d="M86.9,95.7c3.8.1,7,1.6,10.4,3.1,2.3.8,4.8.5,7.2.9,3.6.4,7.1,1.1,10.5,2.5.1,0,0,.2,0,.2-2.5.5-4.9.4-7.4.1-3.7-.4-7-2.2-10.5-3.1-2.4-.3-4.9-.4-7.1-1.6-1.1-.5-2.2-1.2-3.1-2,0,0,0-.2,0-.2h0Z" fill="#fff"/><path d="M85.5,94c4.5-.8,9-.8,13.5-.8,3-.3,5.8-1.6,8.7-2.4,4.4-1.3,8.7-2.3,13.3-2.7.1,0,.2.2,0,.2-4,2.4-8.4,3.9-12.9,4.6-3,.6-6.1.4-9.1,1-2.2.5-4.4,1.4-6.8,1.3-.7,0-1.7,0-2.3,0-1.5-.1-3.1-.4-4.6-1-.1,0,0-.2,0-.2h0Z" fill="#fff"/><path d="M85,93.7c1.3-1.7,2.9-3,4.7-4,.9-.4,2-.7,2.9-1.2,1.8-1,3-2.9,4.5-4.1,2.3-2.1,4.7-3.8,7.6-5.2,0,0,.2,0,.2.2-1,2-2.4,3.5-4,4.9-2.3,2.1-5.4,3-8,4.8-2.2,2.3-4.6,4.3-7.9,4.8-.1,0-.2-.1-.1-.2h0Z" fill="#fff"/><path d="M86.8,95.1c3.2-.7,6.3-.2,9.4.6,0,0,4.6.9,4.6.9,1.5.3,3.1.7,4.6,1v.2c-2.8,0-6.7-.2-9.4-.4-3.2,0-6.3-.4-9.2-2.2,0,0,0-.2,0-.2h0Z" fill="#fff"/><path d="M86.4,93.7c2.1-1.8,4.3-2.6,6.9-3.2,2.4-.8,4.8-1.6,7.2-2.5,0,0,.1.2.1.2-2.1,1.5-4.3,2.7-6.6,3.9-2.3,1.4-4.8,2.3-7.5,1.8,0,0,0-.2,0-.2h0Z" fill="#fff"/><path d="M82.9,107.1c1.5,3.4,1.6,7.1,1.6,10.7.3,2.4,1.6,4.6,2.2,6.9,1.2,3.5,2,6.9,2.2,10.6,0,.1-.1.2-.2,0-1.5-2-2.5-4.3-3.2-6.6-1.2-3.5-1-7.3-1.7-10.8-1.3-3.4-2.2-7.2-1.1-10.8,0-.1.2-.1.2,0h0Z" fill="#fff"/><path d="M83.5,104.1c2.5,3.9,4.1,8,5.8,12.2,1.4,2.7,3.7,4.8,5.5,7.2,2.9,3.5,5.4,7.2,7.6,11.3,0,0,0,.2-.2.1-3.7-2.8-6.7-6.3-9.1-10.2-1.7-2.6-2.7-5.5-4.4-8.1-1.3-1.9-2.9-3.6-3.8-5.8-.3-.6-.6-1.5-.8-2.2-.5-1.5-.8-3-.8-4.6,0-.1.2-.2.2,0h0Z" fill="#fff"/><path d="M83.2,104c2,.7,3.7,1.9,5.2,3.3.7.8,1.3,1.7,2,2.4,1.5,1.4,3.6,2,5.3,3.1,2.7,1.5,5,3.4,7.2,5.8,0,0,0,.2-.1.2-2.2-.4-4.1-1.3-5.8-2.3-2.7-1.6-4.5-4.3-7-6.2-2.9-1.4-5.4-3.1-6.9-6.1,0,0,0-.2.1-.2h0Z" fill="#fff"/><path d="M82.7,104.5c2.7,5.2,4.2,10.7,6.5,16.1.7,1.8,1.5,3.6,2.2,5.4h-.2c-3-4.9-6.1-10-8.1-15.5-.5-1.9-.9-4-.5-6,0,0,.2,0,.2,0h0Z" fill="#fff"/><path d="M83.8,105.5c2.4,1.2,4,3.1,5.5,5.2,1.6,2,3.3,3.9,5,5.8,0,0-.1.2-.1.2-2.2-1.4-4.2-3-6.1-4.7-2.1-1.6-3.9-3.6-4.4-6.3,0,0,.2-.1.2-.1h0Z" fill="#fff"/><path d="M71.2,104.4c1.3,3.6.7,7.4-.4,10.9-.5,3.6,0,7.4-1,10.9-.6,2.4-1.5,4.7-2.8,6.8,0,0-.2,0-.2,0,0-3.7.5-7.2,1.5-10.7.5-2.3,1.7-4.6,1.8-7-.2-3.6-.3-7.3.9-10.8,0-.1.2-.1.2,0h0Z" fill="#fff"/><path d="M70,102.8c-.2,2.3-.9,4.6-1.9,6.7-.9,2.1-2.7,3.8-4,5.6-1.8,2.5-2.9,5.4-4.7,7.9-2.5,3.8-5.7,7.2-9.5,9.9,0,0-.2,0-.2-.2,2.3-4,5-7.6,8-11,1.9-2.3,4.3-4.3,5.8-7,1.9-4.2,3.7-8.2,6.3-12,0,0,.2,0,.2,0h0Z" fill="#fff"/><path d="M70.6,103.8c.8,4-.7,8-2.5,11.5-1.6,3.6-3.4,7.1-5.3,10.4,0,0-.2,0-.2,0,1.3-3.6,2.7-7.3,3.9-11,1-3.8,2.3-7.2,3.9-10.9,0,0,.2,0,.2,0h0Z" fill="#fff"/><path d="M69.2,104.3c-.9,4.1-4.7,6.1-7.7,8.5-1.1.7-2.1,1.5-3.2,2.1v-.2c1.6-1.8,3.4-3.7,5-5.6,1.6-2.1,3.2-3.8,5.7-5,0,0,.2.1.2.1h0Z" fill="#fff"/><path d="M84,99.1c1.2,2.3-1.9,1.7-2.2,2.5s0,1.3-.4,1.8-.5,1-2.1.6-.5-.9-1.5-.9-1.5.5-2.3.3c-.8-.2-1.1,0-1.3-.7s-.1-1.1-.7-1-.9-.7-1.4-1.2c-.5-.6-1.4-1.1-1.4-1.8s.7-.5-.2-1.1-1.6-.6-1.2-1.7.5-1.3,1.3-1.5c.8-.1.8-.8,1.9-1.3,1-.4.3-1.6,1.2-2,.9-.4,2.4-.6,2.6,0s.8.3,1.7.5c1,.3,2.7-.3,2.6.4s.1,1.1.8,1.5c.7.4,1.4,0,1.8.7s.5,2.1,0,2.4c-.5.3.8,2.3.8,2.3Z" fill="none" stroke="#fff" stroke-miterlimit="10" stroke-width="1"/><path d="M71.8,96.3c-1-1.7,1.4-1.4,1.6-1.9s0-1,.3-1.4.3-.7,1.6-.6c1.3.2.4.7,1.2.6.7,0,1.1-.4,1.7-.3s.8,0,1,.5.1.8.6.8c.4,0,.7.5,1.1.9s1.1.8,1.1,1.3-.5.4.2.8,1.3.4.9,1.2c-.3.8-.3,1-.9,1.2s-.6.7-1.4,1c-.8.4-.2,1.2-.8,1.5s-1.8.6-1.9.1-.6-.2-1.3-.3-2,.3-2-.2c0-.5-.1-.8-.6-1.1s-1,0-1.4-.5-.5-1.6,0-1.8c.4-.3-.7-1.7-.7-1.7Z" fill="none" stroke="#fff" stroke-miterlimit="10" stroke-width=".8"/><path d="M80.3,99.4c.1,1.4-1.3.5-1.6.8s-.2.6-.6.8-.4.4-1.2,0,0-.6-.6-.7-.8,0-1.2-.3-.5-.2-.5-.6.1-.6-.2-.7-.3-.5-.5-.9c-.1-.4-.5-.8-.3-1.2s.5-.1,0-.6c-.4-.5-.7-.6-.3-1,.4-.4.5-.6.9-.5s.6-.3,1.2-.3.4-.7,1-.8,1.3.1,1.3.5c0,.3.3.3.8.6s1.4.4,1.2.7-.1.6.1.9.7.3.8.7-.1,1.1-.5,1.2,0,1.3,0,1.3Z" fill="none" stroke="#fff" stroke-miterlimit="10" stroke-width=".6"/><path d="M179.2,241.6s-1.4,10.5-6,15.2c0,0-3.5,9.7-20.7,10.6-1.1,0-2,.1-2.8.1-5,0-4.5-1.4-2.6-5.3,0,0,6-11.9,9-13.2,3-1.3,5.5-.7,7.7-1.1s2.8-2.9,5.9-3.5c3.1-.6,5.6.9,9.5-2.9M182.2,235.4l-4.6,4.7c-2.1,2.1-3.4,2.1-5.3,2.1-.9,0-1.9,0-3.1.2-2.3.5-3.6,1.7-4.5,2.6-.7.6-1,.9-1.3.9-.6,0-1.3.1-2.1.1-1.7,0-3.8,0-6.1,1.1-3.3,1.4-8.2,10.4-10.1,14.2-1.2,2.5-2.3,4.6-1.1,6.5,1.1,1.7,3.3,2,5.6,2s1.8,0,2.9-.1c16.5-.9,21.5-9.5,22.5-11.6,4.8-5.3,6.2-15.7,6.3-16.2l.9-6.5h0Z" fill="#fff"/><path d="M148.8,266.8c11.1-5,21.2-12.7,27.4-23.4,0,0,.1,0,.1,0-5.5,10.3-15.8,21.2-27.5,23.3h0Z" fill="#fff"/><path d="M146.9,267.1c2.2-1.5,4.4-2.6,6.7-3.8,3.4-2.6,6.1-6,9.7-8.5,0,0,.1,0,0,0-2.2,3.9-5.9,6.4-9.5,8.7,0,0-2,1.7-2,1.7-1.4,1-3.1,1.7-4.8,2,0,0,0,0,0-.1h0Z" fill="#fff"/><path d="M146.8,267.1c7.2-5.9,13.7-12.5,18.7-20.3,0,0,.1,0,.1,0-2.2,4.1-4.9,7.9-7.9,11.5-2.9,3.5-6.7,7.3-10.9,8.7h0Z" fill="#fff"/><path d="M146,266.6c2.4-2.7,5.5-4.8,7.1-8,1.6-3.2,3.3-6.5,5.3-9.5,0,0,.1,0,.1,0-.9,4.6-3.7,8.4-6.5,11.9-1.4,2.4-3.2,4.7-5.9,5.6,0,0-.1,0,0,0h0Z" fill="#fff"/><path d="M145.9,265.7c1-1.6,2.1-2.7,3.3-4,1.4-2.5,2-5.4,3.9-7.7,0,0,.1,0,.1,0,0,1.2-.4,2.4-.8,3.5-.7,1.7-1.9,3-2.9,4.4-.7,1.7-1.7,3.3-3.5,3.9,0,0-.1,0,0,0h0Z" fill="#fff"/><path d="M145,242.3c1,0,1.6,12.6,1.1,14.6-.5,2.2-2.6,6.4-4.5,8.1-1.9,1.8-5.6,4.4-5.6,4.4l-2-5.7c-1.9-13.8,2.3-15.4,4.5-17.1,2.2-1.8,5.1-2.1,6.2-4.1,0-.1.1-.2.2-.2M145,240.1h0c-.4,0-1.5.1-2.1,1.3-.3.6-1.2,1-2.3,1.5-1,.5-2.2,1.1-3.4,2-.2.1-.4.3-.6.4-3.3,2.5-6.5,6-4.7,18.7v.2s0,.2,0,.2l2,5.7.9,2.8,2.4-1.7c.2-.1,3.8-2.7,5.8-4.6,2.3-2.2,4.6-6.9,5.1-9.2.4-1.7.3-14.3-1.4-16.4-.5-.6-1.1-.9-1.9-.9h0Z" fill="#fff"/><path d="M136,269.2c-1.3-5.5-1.7-12,2.3-16.5,1.7-1.8,3-3,3.9-5.4.5-1,.9-2.1,1.3-3.1,0,0,.1,0,.1,0-.3,1.1-.7,2.2-1.1,3.2-.4,1-.8,2.1-1.4,3.1-.7,1-1.6,1.7-2.2,2.6-3.6,4.5-2.2,10.9-2.9,16h0Z" fill="#fff"/><path d="M135.9,268.8c-.5-3.3,1.2-5.7,1.9-8.7.5-2.9,1.2-6.4,4.1-7.8,0,0,0,0,0,0-1.4,2.7-2.5,5.2-3.7,7.9-1.1,2.8-.7,5.6-2.2,8.5,0,0-.1,0-.1,0h0Z" fill="#fff"/><path d="M135.8,269.9c.1-3,1.5-5.7,3-8.2,1.4-2.6,2.9-5.1,4.4-7.5,0,0,.1,0,.1,0-.6,1.3-1.2,2.6-1.8,4-1.3,2.6-2.3,5.3-3.5,7.9,0,0-2,3.9-2,3.9,0,0-.1,0-.1,0h0Z" fill="#fff"/><path d="M136.3,268.3c1-1.1,1.8-1.7,3.1-2.4.7-.6.9-1.5,1.5-2.2.7-1.2,1.6-2.1,2.8-2.8,0,0,0,0,0,0-.2,1-.6,1.8-1.1,2.5-.8,1.2-2.1,1.8-3,2.8-.5.8-.9,1.6-1.9,2-.4.2-.9.4-1.4.3h0Z" fill="#fff"/><path d="M136.1,269.5c.2-1.3.8-2.4,1.4-3.4.8-.9,1.7-1.8,2.2-2.9.8-2.3,2.4-4.4,4.8-5.5,0,0,0,0,0,0-1,2.3-2.8,3.8-4.4,5.7-.9.9-1.2,2.1-1.7,3.2-.6,1.1-1.3,2-2.2,2.9h-.1Z" fill="#fff"/><path d="M135.9,268.6c-2.7-3.4-1.8-8.4-1.3-12.4,0,0,.1,0,.1,0,0,2.1,0,4.2.3,6.2.4,2.1.7,4,.9,6.1,0,0-.1,0-.1,0h0Z" fill="#fff"/><path d="M47.9,316.7c2.1,0,16.4,14,18.1,16.9,1.9,3.3,4.2,10.9,3.9,15.3-.3,4.4-1.8,11.9-1.8,11.9l-9-4.8c-18.3-14.9-15-21.7-14.3-26.5.7-4.8,3.9-8.5,2.9-12.3,0-.4,0-.6.2-.6M47.9,314.5h0c-.8,0-1.5.3-1.9.9-.3.4-.7,1.2-.4,2.4.4,1.6-.3,3.4-1.2,5.5-.7,1.7-1.5,3.7-1.8,6,0,.4-.1.8-.2,1.3-.9,5.1-2.4,12.9,15.3,27.2h.2c0,.1.2.2.2.2l9,4.8,2.6,1.4.6-2.9c0-.3,1.6-7.7,1.9-12.2.3-5.1-2.2-13.2-4.2-16.5-1.2-2.1-6.4-7.3-9.3-10.1-8.3-8-9.9-8-10.7-8h0Z" fill="#fff"/><path d="M67.8,360.7c-8-5.3-16-12.9-16.3-23.1-.2-1.9.2-3.9,0-5.7-.2-1.8-.8-3.6-1.4-5.5-.6-1.8-1.2-3.6-2-5.4,0,0,.2,0,.2,0,.9,1.7,1.7,3.5,2.4,5.2.7,1.8,1.5,3.5,1.9,5.5.3,1.9,0,3.8.3,5.7.5,5.8,3.7,10.3,7.5,14.5,2.4,2.9,5.1,5.6,7.6,8.6,0,0-.1.2-.1.2h0Z" fill="#fff"/><path d="M67.2,360.2c-1.9-1.7-3.4-3.8-4.6-6-1-2.3-1.6-4.8-3.1-6.9-2.8-4.2-5.9-9.3-4-14.4,0,0,.2,0,.2,0,1.1,3.8,2,6.9,3.4,10.5.8,2.3,1.4,4.9,2.9,6.9,2.4,3,4.2,6.1,5.4,9.8,0,0-.2.1-.2.1h0Z" fill="#fff"/><path d="M68.3,361.7c-3.3-3.8-4.7-8.8-5.9-13.6-1.2-4.8-2.4-9.6-3.3-14.5,0,0,.2,0,.2,0,1.4,4.2,3.2,10,4.7,14,1.8,4.6,3.2,9.2,4.5,14,0,0-.2.1-.2.1h0Z" fill="#fff"/><path d="M67.1,359.1c.1-1.6,0-2.9.4-4.4.2-.7.6-1.4.6-2.2.2-1.5-.6-3-.8-4.5-.4-2.3-.4-4.5.2-6.8,0,0,.2,0,.2,0,.9,1.4,1.3,2.9,1.5,4.4.4,2.3-.5,4.6-.5,6.9.3,1.5.7,3.1,0,4.7-.3.7-.8,1.5-1.5,2h-.2Z" fill="#fff"/><path d="M68.2,360.9c-1.1-1.8-1.8-3.8-2.1-5.9-.1-2.1,0-4.2-.7-6.1-1.1-2.9-2-6.1-1.3-9.3.2-1,.4-2,.8-3.1h.2c1.7,4.9.3,10.2,1.6,15.2,1.3,2.9,2,5.8,1.6,9.1,0,0-.2,0-.2,0h0Z" fill="#fff"/><path d="M66.9,360.1c-3.8-.4-6.9-2.8-9.3-5.5-2.5-2.6-4.8-5.4-6.7-8.5,0,0,.2-.1.2-.1,2.4,2.6,4.9,5.1,7.6,7.4,2.9,2.1,5.5,4.1,8.3,6.5,0,0,0,.2,0,.2h0Z" fill="#fff"/><path d="M142.9,268.9h.4c-.3,5.7-8,8.5-8.9,13.5-1.1,3.5-.1,8.9-2.5,12.7-2.7,4.1-24.6,19.6-28,22.3-4,3.9-13.1,21.8-21.5,29.1-3.3,5.6-6.4,13.7-6.8,20.2.4,2.8.6,7.2-.6,10-3.7,9.6-5.8,21.5-1.2,31.1,0,0,2.6,14.6,3.2,16.6.6,2,1.8,6.1,1.8,6.1l-2.6,2.2-3-2.4c1.6-.5.2-7.5-4-20.7-3.3-11,1.1-22.9,3-33.7.7-3.1,0-5.1-.8-8.7-.3-9,2.2-16.8,6.6-24.5,5.4-6,18.6-22.3,23.9-28.1,3.4-3.3,7.8-6.9,14.7-9.8,2.7-1.2,8.3-6.6,10.4-8.3,4.5-3.3,1-8.8,3-15.5,1-3.2,3.8-5.5,6.4-7.2,2.5-1.5,5-2.5,6.4-5M143.5,266.9l-2.4,1c-.8,1.5-2.3,2.4-4.2,3.4-.5.3-.9.5-1.4.8-3.9,2.4-6.4,5.2-7.4,8.4-.9,3.1-.8,6-.7,8.3.1,3.3.1,4.9-1.5,6.1h0c-.6.5-1.4,1.2-2.3,2-2.2,2-5.9,5.2-7.6,6-7.5,3.1-12.1,7-15.3,10.2h0c-2.8,3.1-7.6,8.9-12.3,14.5-4.4,5.3-9,10.8-11.6,13.7l-.3.4c-5,8.8-7.2,16.9-6.9,25.6v.4c.2.6.3,1.2.4,1.8.6,2.4.9,3.9.4,6h0c-.4,2.5-1,4.9-1.6,7.5-2,9-4.1,18.3-1.4,27.3,4.8,15.1,4.7,18.2,4.5,18.8,0-.2.3-.6.9-.8l-.7,3.7,3,2.4h2.7s2.6-2.3,2.6-2.3l.7-2.2-1.8-6.1c-.4-1.4-2.1-10.6-3.2-16.4l-.2-.5c-4.9-10.2-1.3-22.8,1.2-29.4,1.6-3.7,1-9,.8-10.9.4-6.5,3.6-14,6.3-18.7,5.2-4.7,10.5-13,14.8-19.7,2.6-4,5-7.8,6.4-9.2.7-.6,2.2-1.6,4-3,11.1-8.2,22.2-16.5,24.4-19.8h0c1.7-2.8,1.9-6,2.1-8.9.1-1.6.2-3.2.6-4.3v-.2c.4-1.7,2-3.2,3.7-4.9,2.4-2.3,5.1-4.9,5.3-8.7l-1.6-2.2h-.4Z" fill="#fff"/></svg>