<?xml version="1.0" encoding="UTF-8"?><svg id="Layer_1" xmlns="http://www.w3.org/2000/svg" width="191.1" height="544.5" viewBox="0 0 191.1 544.5"><path d="M116.6,116.3c4.3,7.4,9.4,13.9,13.8,21.4.3.5.7.9.9,1.4.2.6.3,1.2.5,1.8,2.5,9.4,3.1,18.4.2,28.1-2,3.8-3.5,5.9-3.5,9.6-.8,12.9.8,27.7-6.3,39.3-6.3,5.8-12.6,13.4-16.1,20.7-.7,1.4-.5,3.2-.5,4.7-.4,5.6-.4,11.7-2,17-1.4-3.1-1.1-7.7-1.8-11.3-.1-3.5-1.6-8.7-.5-11.9,3.3-9.3,9.3-17.3,17.7-22.5,8.3-9.6,7.6-24,6.1-36-.7-3.6.8-8.5,2.2-11.5,1.4-7.5.1-17.6-2.2-25-3.2-4.4-5.9-9.3-8.3-14.2v-11.7M113.2,103.9v12.4c.1,0,.3,11.7.3,11.7v.7s.3.7.3.7c2.9,5.8,5.5,10.3,8.3,14.2,1.9,6.4,3.2,15.6,2,22.5-.9,2.2-3.2,8.1-2.3,13,1.5,11.5,2,24.4-5,33-8.5,5.5-14.9,13.7-18.6,23.9h0s0,0,0,0c-.9,2.9-.4,6.4,0,9.5.2,1.3.3,2.5.4,3.5v.3s0,.3,0,.3c.2,1.2.3,2.5.5,4,.2,2.8.5,5.6,1.6,8.1l3.6,7.9,2.5-8.3c1.3-4.6,1.6-9.5,1.9-14.2,0-1.2.1-2.3.2-3.5h0v-.2c0-.2,0-.5,0-.7,0-1,0-2.1.2-2.7,2.9-6.2,8.5-13.4,15.3-19.7l.3-.3.2-.4c6-9.7,6.2-21,6.4-32,0-3.1.1-6,.3-8.8h0c0,0,0-.2,0-.2,0-2.3.8-3.7,2.2-6.3.3-.6.6-1.2,1-1.9v-.3c.1,0,.2-.3.2-.3,2.8-9.5,2.8-18.9-.2-29.8-.1-.6-.3-1.3-.5-2v-.2c0,0-.2-.2-.2-.2-.3-.7-.7-1.3-1.1-1.7-2.2-3.8-4.6-7.3-6.9-10.7-2.4-3.5-4.7-6.9-6.8-10.5l-6.2-10.7h0Z" fill="#fff"/><path d="M65.6,176.3s0,0,0,0c3.9,1.6,8,3.1,11.2,6.4,1.7,1.7,2.2,4.1,2.8,5.9,1.8,5.3,3.6,12.4,7.5,16.3,5.8,4.8,12,11,13.3,18.6-.7,8.4-.9,19.3-1.1,27.8,0,1.7-.4,3.2.8,5,4.5,5.1,4.1,13.5,1.6,19-2,5.8-5.4,10.9-6.3,16.9,0,2-.7,4.4-1.6,6.2-3,7.5-9.3,13.8-11.3,21.4-1.5,20.6,3.4,41.9-6.6,60.8-.9,2.5-2.2,5.4-2.1,8,.6.8,2.7,1.4,4.1,2.3,3.5,2.1,3.9,7,3.7,10.3,0,15.5-8.4,32.7-1.6,47.3,1.8,3.3,4.5,6.8,7.1,9.6,1.5,1.6,3.8,3.2,4.5,5.5,3,12.2,7.4,24.1,8.8,36.6,1.1,6.1,7.2,9.1,10.8,14.3,4.9,7,10.1,22.7,10.1,26.2s0,0,0,0c0,0-6.8-18.5-11.9-25-3.7-4.7-10.9-8.3-12.2-15.1-1.8-12-6.5-23.8-9.7-35.6-3.3-4.4-7.9-7.6-11.6-14.6-8-15.9.9-33.4,1.4-49.7.2-4.1.3-6.2-4.3-8.1-1-.6-2.6-1.5-3-3.7-.2-1.6.2-2.6.4-3.7,2.9-9.7,9.2-18.6,9.4-28.7.9-12.3,0-24.7,1.2-37,2.2-8.1,8-14.2,11-21.9,1.6-3.8.9-8.2,2.5-11.9,2.5-7.7,6.8-15.5,5-22.6-.7-2.9-3.8-5.2-4.2-8.8,0-10.2.4-20.6,1.5-30.7-2.4-11.5-15.5-16.2-17.5-28.5-1.4-3.7-1.4-8.4-3.7-11.5-2.5-3.1-6.6-4.9-10.3-6.9-.2-.1-.1-.4,0-.4M65.6,173.4c-1.5,0-2.7,1-3.1,2.5-.3,1.4.3,2.8,1.6,3.5.5.3,1,.5,1.6.8,3.1,1.6,5.9,3.1,7.7,5.2,1,1.4,1.4,3.5,1.9,5.7.3,1.6.7,3.2,1.3,4.8,1.3,7,5.7,11.8,9.6,16.1,3.4,3.7,6.6,7.2,7.7,11.8-1,9.5-1.5,19.8-1.4,30.6h0c0,.1,0,.3,0,.3.3,2.7,1.7,4.8,2.8,6.5.7,1,1.3,1.9,1.5,2.7,1.2,4.6-.8,9.9-2.9,15.4-.7,1.8-1.4,3.6-2,5.5-.9,2.2-1.2,4.5-1.4,6.6-.2,1.9-.4,3.7-1,5.2h0s0,0,0,0c-1.2,3.1-3,6-4.8,9-2.4,4-5,8.2-6.3,13.2v.2c0,0,0,.3,0,.3-.6,6.7-.7,13.4-.7,20,0,5.6,0,11.4-.5,17.1h0c0,0,0,.2,0,.2-.1,5.9-2.6,11.4-5.1,17.3-1.5,3.4-3.1,7-4.2,10.7h0c0,0,0,.1,0,.1v.3c-.4,1.1-.7,2.5-.5,4.4h0c0,.1,0,.2,0,.2.6,3.3,3,4.8,4.2,5.5h.2c0,.1.2.2.2.2h.2c2.6,1.2,2.6,1.4,2.5,5.2v.2c-.2,5.2-1.2,10.4-2.3,16-2.2,11.6-4.6,23.6,1.2,35.1h0s0,0,0,0c2.6,4.8,5.5,8,8.2,10.8,1.2,1.3,2.4,2.5,3.3,3.8,1.1,3.8,2.3,7.7,3.4,11.4,2.4,7.6,4.9,15.5,6.1,23.3h0c0,0,0,.1,0,.1,1.1,5.5,5.1,9,8.6,12.2,1.6,1.4,3.1,2.8,4.2,4.2,2.6,3.4,6.3,11,10.9,22.8.7,1.8,1.3,3.2,3.3,3.2h2.9v-2.9c0-4.4-5.6-20.7-10.6-27.9-1.5-2.1-3.3-3.8-5-5.5-2.6-2.5-4.8-4.6-5.4-7.5-1-8.6-3.4-17-5.7-25.1-1.1-3.9-2.2-7.9-3.2-11.8h0c0,0,0-.2,0-.2-.7-2.5-2.6-4.2-4.1-5.5-.4-.4-.8-.8-1.1-1.1-2.5-2.7-5-6-6.6-8.9-3.9-8.5-2.1-18.1-.3-28.4,1.1-5.8,2.2-11.7,2.1-17.5.4-5.9-1.4-10.6-5-12.8-.8-.5-1.6-.9-2.3-1.2-.1,0-.2,0-.3-.1.2-1.2.7-2.5,1.2-3.9.2-.5.4-1,.5-1.5,7.2-13.8,6.9-28.8,6.6-43.3-.1-6-.2-12.2.2-18.2,1.1-3.8,3.3-7.3,5.7-11,2-3.1,4-6.3,5.4-9.8,1.1-2.2,1.7-4.8,1.8-7.1.5-3.3,2-6.5,3.5-9.9.9-2,1.8-4,2.6-6.2,1.5-3.3,2.2-7.2,2.1-10.9-.2-4.3-1.6-8.1-4-11-.3-.5-.3-.9-.2-2,0-.4,0-.8,0-1.2,0-1.2,0-2.4,0-3.6.2-7.9.4-16.8,1-23.9v-.4s0-.4,0-.4c-1.5-8.7-8.4-15.4-14.2-20.3-2.7-2.8-4.3-7.9-5.8-12.5-.3-.9-.6-1.8-.9-2.6,0-.3-.2-.6-.3-.9-.5-1.8-1.3-4.2-3.2-6.1-3.2-3.3-7.2-5-10.8-6.4-.5-.2-.9-.4-1.4-.6-.4-.2-.8-.3-1.2-.3h0Z" fill="#fff"/><path d="M119.1,94.5c-.4-1-.8-1.7-1.2-2.2,0,0-.2,0-.2.1-.7.2-1.3,0-1.9-.2-.7.7-1.6,1.1-2.6,1-.3.4-.6.9-.9,1.3,8.5,27.1,6.9,59.3-17,60.5-4.8.3-10.5,10.2-16.4,8.3-12.8-4.2-10.8-17.9-11.6-27-1.8-19.8,15.4-35.9,37.4-44.3,1.1-1.4,1.6-2.5,1.6-3.3-.7-.5-1.2-1.3-1.4-2.2-1.1-.5-2.4-.6-3.3-.6-5.3,2.8-10.7,7.4-23.1,11.6-8.7,2.9-16.3,12.7-25.5,13-10.7.3-26.1-8.6-25.5-21.6.2-3.3,4.7-8,5.2-10.9,2-10.7,2.3-16.7,8.9-20.6,6.7-4,15.7-4.3,26.5-.2,9.6,3.6,20.6,10.7,32.7,21.6,1.1.3,2.1.4,3,.4.7-.8,1.7-1.3,2.9-1.1,0,0,0,0,.1,0,0-.1,0-.2,0-.4.2-1.3,1.2-2.3,2.4-2.6.1-.9,0-1.6,0-2-16.1-9.3-56.5-29.3-41.7-52,1.8-2.8.4-11,6.6-15.4,8.4-3.9,15.2,1.9,19.4,1.7,15.2-.9,24.4,22,22,64.1.2,1,.6,1.8,1,2.3.1,0,.2.2.4.3,1,.8,2.3.5,3.5-.2,1.9-8.4,5.4-20.5,11.3-30.1,6-9.8,17.6-21.3,29.3-18.8,5.3,1.1,8.9,14.3,15.7,21.3,9.6,7.6,7.3,13.8,4.6,22.7-4.9,16.4-23.7,26.5-55.8,17-1.5,0-2.5.2-3.1.5-.2.3-.4.6-.7.9-.1.9.8,1.9,1.7,2.7,17.1,6.6,66,2.9,51.5,50.2-2.1,6.7-2.7-1.6-13.9,24.4-10.7,6.6-32.2-10-41.9-70.3Z" fill="none" stroke="#fff" stroke-miterlimit="10" stroke-width="4.9"/><path d="M120.4,74c4-.4,1.4,3.8,2.4,4.6s1.9.7,2.5,1.7,1.1,1.2-.3,3.5c-1.4,2.2-1.6.2-2.2,1.7s-.1,2.5-.8,3.5-.6,1.6-1.8,1.6-1.7-.4-1.9.5-1.5,1-2.6,1.3c-1.1.4-2.5,1.4-3.4,1s-.4-1.4-1.7-.3-1.8,2-3.1.8c-1.3-1.3-1.7-1.5-1.4-2.7s-.7-1.7-.8-3.4c0-1.7-2.1-1.3-2.2-2.9s.5-3.9,1.4-3.8.8-1,1.7-2.2c.9-1.3,1.1-4.1,2.1-3.6s1.7.4,2.7-.3.9-2,2.1-2.3,3.3.5,3.5,1.4c.2.9,3.9.2,3.9.2Z" fill="none" stroke="#fff" stroke-miterlimit="10" stroke-width="1.6"/><path d="M122.7,74.9c.5-2.8,1.7-5.5,3.4-7.8.9-1.1,2-2,2.9-3.1,2.5-3.5,3.9-7.4,7-10.6,1.9-2.1,4-4,6.6-5.4.1,0,.3,0,.2.2-2,3.8-4.5,7.1-7.4,10.2-1.8,2.1-4.2,3.8-5.6,6.2-.7,1.2-1.2,2.6-1.8,3.8-1.3,2.5-3,4.7-5,6.7,0,0-.3,0-.2-.1h0Z" fill="#fff"/><path d="M125.1,80.2c1.2-2.4,3-4.5,5-6.3,1.9-1.9,4.5-2.9,6.8-4.3,3-1.9,5.5-4.5,8.5-6.4,4.4-3,9.2-5.3,14.5-6.5.1,0,.2.2.1.2-4.2,3.3-8.6,6-13.4,8.3-3,1.7-6.5,2.8-9.2,5-1.4,1.1-2.5,2.5-3.8,3.7-1.9,1.8-4,3.3-6,4.9-.7.5-1.4,1.1-2.2,1.6-.1,0-.3,0-.2-.2h0Z" fill="#fff"/><path d="M124.9,83.6c1.9-1.6,4.1-2.6,6.5-3.1,1.2-.2,2.5-.1,3.6-.4,3.5-.9,6.5-3,10.2-3.5,2.4-.4,4.8-.5,7.3,0,.1,0,.1.2,0,.3-3.4,1.6-6.6,2.5-10.2,3-2.3.5-4.8.1-7.1,1-1.1.4-2.1,1.1-3.2,1.6-2.2.9-4.6,1.4-7,1.3-.1,0-.2-.2,0-.2h0Z" fill="#fff"/><path d="M124,77.9c1.5-4.5,5.4-7.6,9.1-10.1,3.7-2.6,7.5-5.1,11.4-7.4,0,0,.1.2.1.2-3.4,2.9-6.9,5.8-10.2,8.8-3.2,3.2-6.5,5.9-10.2,8.7,0,0-.2-.1-.2-.1h0Z" fill="#fff"/><path d="M121.5,76.7c1.2-3.7,3.7-6.4,6.5-8.8,2.6-2.6,5.3-5,8-7.5,0,0,.2.2.2.2-2.2,2.9-4.4,5.8-6.6,8.7-2.1,3.1-4.5,5.7-7.8,7.6,0,0-.2-.2-.2-.2h0Z" fill="#fff"/><path d="M121.7,72.8c-.2-6,3.7-10.9,7.1-15.5,1.2-1.5,2.5-2.9,3.9-4.2,0,0,.2.2.2.2-2.2,3.1-4,6.4-5.6,9.7-1.4,3.5-2.9,6.9-5.3,9.9,0,0-.2,0-.2,0h0Z" fill="#fff"/><path d="M126.7,80.8c2.8-4,7.7-4.5,12-5.7,1.5-.3,2.9-.6,4.4-.9v.3c-2.3,1-5.6,2.6-7.9,3.7-2.6,1.5-5.1,2.7-8.3,2.8,0,0-.1-.2-.1-.2h0Z" fill="#fff"/><path d="M125.8,84.4c2.9-1.1,5.5-1.2,8.4-.9,0,0,4.3,0,4.3,0h4.3s0,.3,0,.3c-1.4.4-2.8.7-4.2,1-4.3.7-8.8,2.3-12.9-.2,0,0,0-.3,0-.3h0Z" fill="#fff"/><path d="M182.6,59.4c-.6,2.3-1.9,4.2-3.6,5.7-.9.7-2,1.2-2.9,1.9-1.8,1.4-2.8,3.6-4.5,5-1.6,1.6-3.5,2.9-5.7,3.7-1.1.4-2.3.7-3.5.6v-.3c2.5-2.1,4.9-4.2,7.7-5.9,1.8-1.3,4-2,5.5-3.7.7-.8,1.2-1.9,1.9-2.8,1-1.3,2.2-2.4,3.5-3.4.4-.3.9-.7,1.5-1,0,0,.2.2.2.2h0Z" fill="#fff"/><path d="M170,36.2c-2,1.7-4,2.7-6.4,3.2-1.5.4-3.3.1-4.7.9-.7.4-1.3,1.1-1.9,1.5-1.3.9-2.9,1.2-4.4,1.4h-.2s0,0,0,0c0-.6.4-.9.7-1.3.8-.9,1.9-1.7,3.1-2,.8-.2,1.7-.1,2.5-.3.8-.2,1.5-.6,2.1-1.2,1.3-1,2.7-1.8,4.3-2.3,1.6-.4,3.2-.6,4.9-.2.1,0,.2.2,0,.3h0Z" fill="#fff"/><path d="M182.3,51.2c-1.5,4-5,6.5-8.7,8.3-3.5,2-7.1,3.6-10.9,5,0,0-.1,0-.2,0,3.2-2.2,6.8-4.2,9.9-6.6,3.1-2.5,6-4.8,9.6-6.7.1,0,.2,0,.2.2h0Z" fill="#fff"/><path d="M172.5,38.7c-2.8,3.1-6.5,4.6-10.4,5.8-2.9,1.2-7.5,2.6-10.3,4.1-.2.1-.4.3-.5.4,0,.2-.3.2-.3,0,.2-.6.7-.8,1.1-1.2,2.9-2,6-3.6,9.1-5.2,3.5-2,7-3.6,11.1-4.2.1,0,.2.1.1.2h0Z" fill="#fff"/><path d="M179.8,50.2c-.6,1.4-1.7,2.4-3,2.8-1.4.2-2.8.3-3.8,1.5-2,2.1-4.8,3.3-7.7,2.6,0,0-.1-.1-.1-.2,1-1.2,2.1-2,3.3-2.7,1.2-.5,2.5-.9,3.9-1,.7,0,1.4-.2,1.9-.6.6-.4.9-1.1,1.4-1.5.5-.5,1.1-.7,1.8-.9.7-.2,1.3-.3,2.2-.2.1,0,.2.1.1.2h0Z" fill="#fff"/><path d="M173,43.3c-.8,1.3-1.9,2.1-3.3,2.5-.7.1-1.5,0-2.1.2-.6.2-1.2.6-1.7,1.1-1,1-2.1,1.7-3.3,2.3-1.2.5-2.7.7-4.1.8,0,0-.1,0-.1-.1.7-2.1,2.8-3.4,4.9-3.9,1.2-.5,2.8-.2,4-.9.6-.3,1-1,1.6-1.4.5-.4,1.2-.6,1.9-.7.7-.1,1.4-.2,2.2,0,.1,0,.2.1.1.2h0Z" fill="#fff"/><path d="M165.7,30.2c-1.8,1.2-3.6,1.8-5.6,2.3-2,.2-4.1.1-5.8,1.3-1,.6-1.9,1.4-2.8,2.1-2.2,1.9-5.4,4.2-8.2,6,0,0-.2-.1-.2-.1,1-3.5,3.7-6.2,6.9-7.6,0,0-.4.4-.4.4,1.1-1.3,2.9-1.4,4.4-1.7,2.8-.4,4.8-2.8,7.6-3,1.4-.2,2.8-.2,4.2.1v.3h0Z" fill="#fff"/><path d="M182.4,55.6c-.8,4.2-5.4,5.7-8.7,7.6-1.2.6-2.3,1.1-3.5,1.6v-.2c-.1,0,5.7-4.9,5.7-4.9,1.8-1.9,3.7-3.2,6.3-4.2,0,0,.2.2.2.2h0Z" fill="#fff"/><path d="M164.7,28.3c-2.4,1.4-4.5,2-7.2,2.2,0,0-7.5,1.4-7.5,1.4v-.2c2.2-1.2,4.5-2.3,6.9-3.2,2.4-1.1,5.3-1.9,7.7-.5,0,0,0,.3,0,.3h0Z" fill="#fff"/><path d="M168.1,34.2c-2,1.1-3.7,1.5-5.9,1.6-1.9.4-4.1.5-5.8,1.5,0,0-.3,0-.3,0,0-.3.1-.3.2-.5.7-.7,1.5-1.2,2.3-1.7.9-.5,1.9-1,2.9-1.4,1-.4,2-1,3.1-.9,1.2,0,2.4.2,3.3,1.1,0,0,0,.3,0,.3h0Z" fill="#fff"/><path d="M182.2,63.9c.5,3.7-2.6,6-5,8.2-.9.7-1.7,1.3-2.7,1.9l-.2-.2c1.3-1.6,2.5-3.4,3.5-5.2.9-2,2.1-3.7,4.1-4.8,0,0,.2.1.2.1h0Z" fill="#fff"/><path d="M175.8,45.5c-.9,3.6-4.7,4.6-7.7,5.8-1,.3-2.1.6-3.2.8v-.2c1.8-1,3.5-2.3,5.2-3.5,1.6-1.5,3.3-2.7,5.6-3,0,0,.2.2.2.2h0Z" fill="#fff"/><path d="M178.5,48.2c-.9,1.7-2.2,2.4-3.9,2.8,0,0-2.3.8-2.3.8l-2.3.8s-.1-.2-.1-.2c.6-.6,1.2-1.1,1.8-1.7.6-.5,1.3-1,1.9-1.5.7-.5,1.2-1.2,2.1-1.3.8-.2,1.7-.3,2.7.2v.2h0Z" fill="#fff"/><path d="M30.5,95.8c2.2.4,4.3,1.3,6.2,2.5.9.6,1.7,1.5,2.7,2,1.9,1.1,4.3,1.1,6.4,1.7,3.2.7,6.1,2,9.3,3.1,0,0,0,.3,0,.3-1.1.5-2.4.6-3.5.6-2.3,0-4.6-.6-6.6-1.6-2.1-.8-3.8-2.6-5.9-3.3-2.2-.6-4.5-1-6.2-2.6-.9-.7-1.7-1.5-2.4-2.5v-.2h.1Z" fill="#fff"/><path d="M34.8,69.8c2.3-1.4,4.7-1.7,7.1-1.3,1.6.1,3.1,1.1,4.7,1,.8,0,1.6-.4,2.4-.5,1.2,0,2.5.3,3.6.9.4.3.8.5,1.1,1,0,0,0,.1,0,.1-1.5.3-3.2.6-4.8.1-.8-.2-1.5-.7-2.3-.8-.8-.1-1.6,0-2.4.2-1.6.4-3.1.6-4.7.6-1.6-.1-3.1-.4-4.7-1.1-.1,0-.1-.2,0-.3h0Z" fill="#fff"/><path d="M28.1,88c4,.7,7.5,1.8,11.2,3.2,3.8,1.1,7.6,2.1,11.4,2.9,0,0,.1,0,.1.2-3.9.3-8.1-.4-12-1.1-2-.4-4-.6-5.9-1.5-1.8-.9-3.7-1.9-5-3.6,0,0,0-.3.1-.2h0Z" fill="#fff"/><path d="M33.3,73c4-.8,7.9-.5,11.8.3,3.4.5,6.9,1,10.2,2,.5.2,1,.2,1.4.8,0,.2-.1.2-.2,0,0,0-.3-.2-.6-.2-3-.5-7.9-.4-11-.5-4,0-8-.2-11.7-2.2-.1,0,0-.2,0-.3h0Z" fill="#fff"/><path d="M30.1,86.2c1.4-.6,2.7-.7,4.1-.2.6.3,1.2.8,1.9,1,1.3.4,2.7-.3,4-.3,2.1-.2,3.9.3,5.9,1.4,0,0,0,.1,0,.2-1.8,1.2-4.1,1.4-6.2.8-1.3-.2-2.5-1.3-3.9-1.3-.7,0-1.4.3-2.1.3-.7,0-1.3-.2-2-.4-.6-.3-1.2-.7-1.8-1.3,0,0,0-.2,0-.3h0Z" fill="#fff"/><path d="M34.3,77.5c1.3-.7,2.7-1,4.1-.6.7.2,1.3.7,1.9.8.7.2,1.3,0,2-.1,2-.5,4.2-.5,6.1.4.7.4,1.4.7,1.9,1.4,0,0,0,.1,0,.1,0,0,0,0,0,0h-.1c-2,.6-4,.8-5.9.2-1.3-.2-2.5-1.3-3.9-1.2-.7,0-1.4.4-2.1.5-.7.1-1.3,0-2-.2-.7-.2-1.3-.5-1.9-1,0,0,0-.2,0-.3h0Z" fill="#fff"/><path d="M36.8,62.8c1.8-1.1,3.9-1.6,6-1.7,2,.2,4.1,1,6.1.6,1.5-.1,3.3-.6,4.7.2,0,0-.5-.3-.5-.3,3.5.3,7,2,9,5,0,0-.2.2-.2.2-3.5-.9-6.6-1.8-9.9-3.1-.5-.2-2.3-.8-3.2-1-2.7-.8-5.2,1-7.9.8-1.3,0-2.7,0-4.1-.5v-.3h0Z" fill="#fff"/><path d="M29.5,92.3c2.7,0,4.9.7,7.3,1.9,0,0,7.1,2.8,7.1,2.8v.3c-2.6-.2-5.2-.5-7.7-1-2.6-.3-5.5-1.2-6.9-3.7,0,0,.1-.2.1-.2h0Z" fill="#fff"/><path d="M37.2,60.6c2.9-3.2,7.5-2,11.3-1.8,1.3.2,2.6.3,3.8.5v.3s-7.5,1.1-7.5,1.1c-2.6.6-4.8.8-7.5.2,0,0,0-.2,0-.2h0Z" fill="#fff"/><path d="M35.8,67.3c1.2-2.2,3.9-2.6,6.1-2.2,1.6,0,3.2.3,4.8.7.5.2,1.2.3,1.5.8,0,0-.3,0-.3,0-1.9-.3-4,.2-6,.5-1,.2-2,.6-2.9.6-1,0-1.9,0-3.1-.2v-.2h-.1Z" fill="#fff"/><path d="M32.5,80.5c1.2-.3,2.2-.2,3.3,0,2,.5,3.9,1.5,5.9,1.9,1,.3,2,.5,3.1.7v.3c-2.1.4-4.4.4-6.5.2-2.3,0-4.5-.7-5.9-2.8,0,0,.1-.2.1-.2h0Z" fill="#fff"/><path d="M30.6,83.9c1.6-1.4,3.2-1.2,4.9-.4,1.6.5,3.1,1.1,4.6,1.8,0,0,0,.3,0,.3h-2.4s-2.4,0-2.4,0c-.8,0-1.6.2-2.3,0-.8-.2-1.5-.6-2.3-1.3v-.3h0Z" fill="#fff"/><path d="M67.1,143.5c-.3-2.3.2-4.6,1.2-6.7.6-1,1.4-1.8,1.9-2.8,1.1-2,1.3-4.4,2.3-6.4.9-2.1,2.2-4,3.9-5.6.9-.8,1.8-1.5,3-1.9v.2c-1.5,2.9-2.9,5.8-4.8,8.4-1.1,1.9-3,3.4-3.7,5.5-.4,1-.4,2.2-.7,3.3-.4,1.6-1.2,3.1-2,4.5-.3.5-.6,1-1,1.4,0,0-.3,0-.3,0h0Z" fill="#fff"/><path d="M83.5,161.6c.4-2.6,1.4-4.6,2.9-6.5.9-1.3,2.5-2.2,3-3.7.3-.7.3-1.6.5-2.4.4-1.5,1.5-2.7,2.5-3.9h.1c0-.1,0-.2.1-.1.3.5.3.9.3,1.4,0,1.2-.4,2.5-1.1,3.5-.5.6-1.2,1.2-1.7,1.8-.5.7-.7,1.4-.9,2.2-.3,1.6-1,3.1-1.9,4.5-.9,1.3-2.1,2.5-3.7,3.3-.1,0-.2,0-.2-.2h0Z" fill="#fff"/><path d="M69.6,151.6c-1.3-4-.2-8.2,1.4-11.9,1.4-3.7,3.2-7.3,5.3-10.7,0,0,.1,0,.2,0-1,3.7-2.5,7.6-3.4,11.4-.8,3.9-1.6,7.5-3.1,11.3,0,.1-.2.1-.3,0h0Z" fill="#fff"/><path d="M79.5,163.2c.2-4.2,2.1-7.7,4.3-11.1,1.5-2.7,4.1-6.8,5.3-9.7,0-.2.1-.5.1-.6,0-.2,0-.3.2-.2.3.6,0,1,0,1.6-1,3.3-2.4,6.6-3.7,9.7-1.4,3.8-3.1,7.2-5.9,10.2,0,0-.3,0-.2-.1h0Z" fill="#fff"/><path d="M69.2,156.4c-.4-1.5-.2-2.9.5-4.1,1-1.1,1.9-2,1.9-3.6.2-2.8,1.6-5.6,4.3-6.9,0,0,.2,0,.2,0,0,1.6-.3,2.9-.8,4.1-.6,1.2-1.3,2.3-2.3,3.3-.5.5-.9,1.1-1.1,1.7-.2.6,0,1.4-.1,2.1,0,.7-.4,1.3-.8,1.8-.4.6-.8,1.1-1.5,1.6,0,0-.2,0-.2,0h0Z" fill="#fff"/><path d="M76.6,162.3c-.2-1.5.1-2.8,1-4,.5-.5,1.1-.9,1.5-1.5.4-.6.6-1.2.6-1.9.1-1.4.5-2.7,1.1-3.9.6-1.2,1.6-2.3,2.6-3.2,0,0,.1,0,.2,0,.8,2.1,0,4.4-1.3,6.1-.7,1.2-2.1,1.9-2.5,3.3-.2.6-.2,1.4-.3,2.1-.2.7-.5,1.2-1,1.8-.4.5-1,1-1.7,1.4,0,0-.2,0-.2-.1h0Z" fill="#fff"/><path d="M96.4,154.8c.7-2.1,1.6-3.7,2.9-5.3,1.4-1.4,3.1-2.7,3.7-4.7.4-1.1.6-2.3.8-3.4.5-2.9,1.5-6.6,2.6-9.9,0,0,.3,0,.3,0,1.4,3.3,1.1,7.1-.5,10.3,0,0,0-.6,0-.6,0,1.7-1.4,2.9-2.3,4.1-1.9,2.1-1.9,5.2-4,7.2-.9,1-2,1.9-3.3,2.6,0,0-.2-.2-.2-.2h0Z" fill="#fff"/><path d="M98.4,155.6c.9-2.6,2.2-4.4,4.1-6.3,0,0,4.9-5.9,4.9-5.9h.2c-1,2.5-2.1,4.8-3.4,7-1.1,2.4-2.9,4.8-5.7,5.3,0,0-.2-.2-.2-.2h0Z" fill="#fff"/><path d="M91.3,155.3c.9-2.1,1.8-3.5,3.5-5,1.2-1.5,2.8-3,3.5-4.8,0,0,.2-.2.2-.2.2.2.1.4.1.5,0,1-.4,1.9-.8,2.8-.4,1-.9,2-1.4,2.9-.5.9-.9,2-1.8,2.7-.9.7-2,1.4-3.3,1.3,0,0-.1-.2-.1-.2h0Z" fill="#fff"/><path d="M74,161.4c-.5-5.4,2.9-9.8,5.5-14.2,1-1.4,1.9-2.8,3-4.2h.2c-1.5,3.2-2.7,6.3-3.9,9.4-1,3.3-2.2,6.3-4.5,9,0,0-.2,0-.2,0h0Z" fill="#fff"/><path d="M71.5,157.7c-.4-1.9.1-3.2,1.3-4.6,0,0,1.2-2.1,1.2-2.1l1.3-2.1h.2c0,.9-.2,1.7-.3,2.5-.1.8-.3,1.6-.5,2.4-.2.8-.2,1.7-.8,2.4-.5.7-1.2,1.3-2.2,1.6h-.2Z" fill="#fff"/><path d="M95.4,8.6c2.1,1,3.9,2.6,5.1,4.5.5,1,.8,2.2,1.4,3.1,1.1,2,3,3.4,4.2,5.3,1.4,1.9,2.3,4,2.7,6.3.2,1.1.3,2.3,0,3.6,0,0-.3,0-.3,0-1.7-2.9-3.4-5.6-4.6-8.6-1-1.9-1.4-4.3-2.8-6-.7-.9-1.7-1.5-2.5-2.3-1.2-1.2-2-2.6-2.8-4.1-.3-.5-.5-1-.7-1.6l.2-.2h0Z" fill="#fff"/><path d="M71.4,13.2c2,1.7,3.2,3.6,4,5.9.6,1.4.6,3.2,1.6,4.5.5.6,1.2,1.1,1.8,1.7,1,1.2,1.6,2.7,2,4.2h0c0,.2,0,.2,0,.3-.6,0-1-.2-1.4-.5-1-.7-1.9-1.6-2.4-2.8-.3-.8-.3-1.7-.7-2.4-.3-.7-.8-1.3-1.4-1.9-1.2-1.1-2.1-2.5-2.8-3.9-.6-1.5-1-3.1-.8-4.9,0-.1.2-.2.2,0h0Z" fill="#fff"/><path d="M87.2,6.5c4.1,1,7.1,4.1,9.4,7.4,2.4,3.2,4.6,6.6,6.4,10.1,0,0,0,.1,0,.2-2.6-2.8-5.1-6.1-8-8.9-2.9-2.7-5.5-5.3-8-8.6,0,0,0-.3.1-.2h0Z" fill="#fff"/><path d="M72.1,9c3.4,2.4,5.5,5.8,7.2,9.4,1.6,2.7,3.7,7.1,5.5,9.6.1.2.3.4.4.4.2,0,.2.2,0,.3-.6,0-.9-.5-1.3-.9-2.4-2.6-4.4-5.4-6.4-8.2-2.5-3.2-4.6-6.4-5.7-10.4,0-.1.1-.2.2-.2h0Z" fill="#fff"/><path d="M83.3,3.7c1.4.4,2.6,1.3,3.2,2.6.4,1.4.7,2.7,2,3.5,2.3,1.7,3.9,4.3,3.6,7.2,0,0,0,.1-.2.1-1.4-.8-2.3-1.8-3.1-2.9-.7-1.1-1.3-2.3-1.6-3.7-.2-.7-.4-1.3-.9-1.8-.4-.5-1.2-.8-1.7-1.2-.5-.4-.8-1-1.1-1.6-.3-.6-.5-1.3-.5-2.1,0-.1,0-.2.2-.2h0Z" fill="#fff"/><path d="M74.4,7c1.4.6,2.4,1.6,2.9,2.9.2.7.2,1.4.5,2.1.3.6.8,1.1,1.3,1.5,1.1.8,2,1.8,2.7,3,.7,1.2,1.1,2.6,1.4,3.9,0,0,0,.1,0,.1-2.2-.4-3.7-2.3-4.6-4.3-.7-1.2-.6-2.8-1.5-3.8-.4-.5-1.1-.9-1.6-1.3-.5-.5-.8-1.1-1-1.7-.2-.7-.4-1.3-.3-2.2,0-.1.1-.2.2-.1h0Z" fill="#fff"/><path d="M67.4,23c1.4,1.6,2.3,3.3,3.1,5.2.5,1.9.7,4.1,2.1,5.6.7.9,1.6,1.7,2.5,2.5,2.2,1.9,4.9,4.8,7.1,7.3,0,0-.1.2-.1.2-3.5-.5-6.6-2.8-8.5-5.8,0,0,.5.4.5.4-1.4-.9-1.7-2.7-2.3-4.1-.8-2.7-3.4-4.4-4-7.1-.4-1.3-.6-2.7-.5-4.2h.2Z" fill="#fff"/><path d="M66.2,28.6c1.7,2.1,2.6,4.2,3.2,6.8,0,0,2.5,7.2,2.5,7.2h-.2c-1.5-2-2.9-4.1-4.1-6.4-1.4-2.2-2.6-5-1.6-7.6,0,0,.3,0,.3,0h0Z" fill="#fff"/><path d="M70.2,18.3c1.4,1.8,2,3.4,2.4,5.6.7,1.8,1.1,4,2.3,5.5,0,0,0,.3,0,.3-.3,0-.4,0-.5-.1-.8-.6-1.4-1.3-2-2.1-.7-.9-1.2-1.8-1.8-2.7-.5-.9-1.2-1.8-1.4-3-.2-1.2-.1-2.4.6-3.5,0,0,.3,0,.3,0h0Z" fill="#fff"/><path d="M76.5,5.2c4.9,2.4,6.9,7.6,9.3,12.1.7,1.6,1.4,3.1,2,4.7,0,0-.2.1-.2.1-1.8-2.8-3.8-5.5-5.9-8.2-2.3-2.6-4.3-5.1-5.4-8.6,0,0,.2-.2.2-.2h0Z" fill="#fff"/><path d="M81,5c1.9.7,2.7,1.8,3.3,3.5,0,0,1.1,2.1,1.1,2.1l1.1,2.2-.2.2c-.7-.5-1.3-1-1.9-1.5-.6-.5-1.2-1.1-1.8-1.7-.6-.6-1.3-1.1-1.6-1.9-.3-.8-.5-1.7-.2-2.7,0,0,.2-.1.2-.1h0Z" fill="#fff"/><path d="M151.7,164c-2-1.2-3.5-3-4.5-5.1-.4-1.1-.6-2.2-1-3.3-.8-2.1-2.6-3.7-3.6-5.8-1.1-2-1.8-4.2-1.9-6.5,0-1.2,0-2.4.4-3.5,0,0,.3,0,.3,0,1.3,3.1,2.7,5.9,3.5,9.1.8,2,.8,4.4,2,6.3.6.9,1.5,1.7,2.2,2.6,1,1.3,1.7,2.8,2.3,4.4.2.5.4,1.1.5,1.7l-.2.2h0Z" fill="#fff"/><path d="M174.4,138.3c-2.1-1.6-3.4-3.3-4.4-5.6-.7-1.4-.8-3.2-1.8-4.4-.5-.6-1.3-1-1.9-1.5-1.1-1.1-1.7-2.6-2.2-4h0c0-.2,0-.2,0-.3.6,0,1,.2,1.4.4,1.1.6,2,1.5,2.6,2.6.3.8.4,1.6.8,2.3.4.7.9,1.3,1.6,1.8,1.3,1.1,2.3,2.3,3.1,3.7.7,1.4,1.2,3,1.1,4.8,0,.1-.1.2-.2.1h0Z" fill="#fff"/><path d="M161,163.4c-3.8-2-5.9-5.7-7.3-9.5-1.6-3.7-2.8-7.5-3.8-11.3,0,0,0-.1,0-.2,1.9,3.4,3.5,7.2,5.6,10.6,2.2,3.3,4.1,6.5,5.7,10.2,0,.1,0,.2-.2.2h0Z" fill="#fff"/><path d="M172.9,143c-3.6-2.2-5.8-5.5-7.8-9-1.7-2.6-4.1-6.8-6-9.2-.1-.2-.4-.4-.5-.4-.2,0-.2-.2,0-.3.6,0,.9.5,1.4.8,2.5,2.4,4.7,5.2,6.9,7.8,2.7,3,5,6.1,6.3,10,0,.1,0,.2-.2.2h0Z" fill="#fff"/><path d="M163.4,159.8c-1.4-.6-2.5-1.5-3-2.9-.3-1.4-.5-2.7-1.8-3.7-2.2-1.8-3.6-4.6-3-7.5,0,0,.1-.1.2-.1,1.3.9,2.1,2,2.8,3.1.6,1.2,1.1,2.4,1.3,3.8.1.7.3,1.3.8,1.9.4.5,1.1.9,1.6,1.3.5.5.8,1.1,1,1.7.2.6.4,1.3.4,2.2,0,.1-.1.2-.2.1h0Z" fill="#fff"/><path d="M169.1,146.3c-1.4-.5-2.5-1.4-3.1-2.7-.2-.6-.3-1.4-.6-2-.3-.6-.8-1.1-1.4-1.5-1.2-.8-2.1-1.7-2.9-2.8-.8-1.1-1.2-2.5-1.6-3.8,0,0,0-.1,0-.1,2.2.3,3.9,2.1,4.8,4,.7,1.1.7,2.8,1.7,3.7.5.5,1.2.8,1.7,1.2.5.4.8,1.1,1.1,1.7.3.6.5,1.3.4,2.1,0,.1-.1.2-.2.2h0Z" fill="#fff"/><path d="M177.8,128.2c-1.5-1.5-2.5-3.2-3.4-5-.6-1.9-.9-4-2.4-5.5-.8-.8-1.7-1.6-2.6-2.3-2.3-1.8-5.1-4.5-7.5-6.9,0,0,0-.2,0-.2,3.6.3,6.8,2.4,8.9,5.2,0,0-.5-.3-.5-.3,1.5.8,1.9,2.6,2.6,3.9,1,2.6,3.7,4.1,4.5,6.9.5,1.3.8,2.7.7,4.1h-.2Z" fill="#fff"/><path d="M156.7,165.7c-4-1.6-4.6-6.3-5.8-9.9-.3-1.3-.7-2.5-.9-3.8h.2c0,0,3.7,6.6,3.7,6.6,1.5,2.2,2.5,4.2,2.9,6.9,0,0-.2.2-.2.2h0Z" fill="#fff"/><path d="M175.8,133.5c-1.5-1.8-2.2-3.3-2.8-5.4-.8-1.8-1.3-3.9-2.6-5.4,0,0,0-.3,0-.3.3,0,.4,0,.5.1.8.5,1.5,1.3,2.1,2,.7.8,1.3,1.7,1.9,2.6.6.9,1.3,1.8,1.6,2.9.2,1.1.3,2.4-.4,3.5,0,0-.3,0-.3,0h0Z" fill="#fff"/><path d="M144.4,158.2c-3.6-1.2-4.3-5-5.2-8.1-.2-1.1-.5-2.1-.5-3.2h.3c.9,1.8,2,3.7,3.1,5.4,1.4,1.7,2.5,3.5,2.5,5.8,0,0-.2.2-.2.2h0Z" fill="#fff"/><path d="M167.8,149.5c-3.7-.2-5.4-3.6-7.2-6.4-.5-1-1-1.9-1.4-3h.2c1.4,1.5,2.9,2.9,4.5,4.3,1.8,1.3,3.3,2.7,4,4.9,0,0-.2.2-.2.2h0Z" fill="#fff"/><path d="M165.4,154.6c-1.9-.6-2.8-1.6-3.5-3.3,0,0-1.2-2.1-1.2-2.1l-1.2-2.1.2-.2c.7.4,1.3.9,2,1.4.6.5,1.3,1,1.9,1.6.6.6,1.4,1,1.7,1.8.3.8.6,1.6.4,2.7h-.2Z" fill="#fff"/><path d="M123.1,91.8c2.9,0,5.7.8,8.2,2.1,1.2.7,2.3,1.7,3.6,2.4,3.8,1.9,7.9,2.6,11.6,5.1,2.4,1.5,4.6,3.3,6.4,5.6,0,0,0,.3-.2.2-4.1-1.4-7.7-3.3-11.2-5.6-2.4-1.4-4.4-3.5-7-4.5-1.3-.5-2.7-.7-4.1-1.1-2.7-.9-5.1-2.2-7.5-3.9-.1,0,0-.3,0-.2h0Z" fill="#fff"/><path d="M120.1,92c2.6.8,5,2.2,7.1,3.9,2.2,1.6,3.6,4,5.3,6,2.4,2.7,5.4,4.6,7.7,7.3,3.7,3.9,6.8,8.3,8.7,13.3,0,.1-.1.2-.2.1-4-3.6-7.3-7.6-10.4-11.8-2.2-2.7-3.8-6-6.4-8.3-1.3-1.2-2.8-2.1-4.2-3.1-2.1-1.6-3.9-3.4-5.8-5.2-.6-.6-1.3-1.2-1.9-1.9,0,0,0-.3.1-.2h0Z" fill="#fff"/><path d="M120,92.7c1.9,1.6,3.3,3.6,4.2,5.9.4,1.1.5,2.4,1,3.5,1.5,3.3,4,5.9,5.2,9.5.7,2.3,1.3,4.7,1.1,7.2,0,.1-.2.2-.3,0-2.1-3-3.6-6.1-4.6-9.6-.8-2.2-.9-4.7-2.1-6.8-1.3-2-3-3.7-3.7-6.1-.4-1.1-.8-2.3-.9-3.6,0-.1.1-.2.2-.1h0Z" fill="#fff"/><path d="M120.7,92.2c4.7,0,8.9,2.8,12.4,5.6,3.6,2.7,7.2,5.6,10.5,8.6,0,0-.2.2-.2.2-3.8-2.4-7.6-4.8-11.5-7.1-4.1-2.1-7.6-4.4-11.3-7.1,0,0,0-.3,0-.3h0Z" fill="#fff"/><path d="M121.9,93.8c2.6,1.6,4.3,3.7,5.8,6.2,0,0,2.5,3.4,2.5,3.4l2.6,3.4-.2.2c-1.2-.9-2.2-1.8-3.3-2.7-3.1-3-7.2-5.6-7.6-10.3,0,0,.2-.1.2-.1h0Z" fill="#fff"/><path d="M107.9,93.3c-2,2.1-4.2,3.8-6.6,5.1-1.2.6-2.6,1.1-3.8,1.8-2.4,1.5-4,3.9-6.1,5.7-3,3-6.3,5.5-10.1,7.6-.1,0-.3,0-.2-.2,1.4-2.6,3.3-4.7,5.3-6.7,3.2-3.1,7.1-4.6,10.5-7.1,2.1-1.9,4-4.1,6.7-5.2,1.3-.6,2.6-1.1,4.1-1.3.1,0,.2.1.1.2h0Z" fill="#fff"/><path d="M110.5,93.3c-1.8,3-3.7,5.9-5.9,8.6-1.1,1.3-2.4,2.6-3.4,4-2,2.9-2.9,6.4-4.3,9.6-2,4.9-4.4,9.5-7.4,13.9,0,.1-.3,0-.2,0,.8-5.4,2.7-10.3,5.4-14.9,1.7-3.1,4.1-5.8,5.8-8.9,1.2-2.3,2.1-5,3.8-7,.5-.6,1.2-1.5,1.8-2,1.2-1.3,2.6-2.5,4.2-3.4.1,0,.3,0,.2.2h0Z" fill="#fff"/><path d="M111.1,93.1c.5,2.4.5,4.8,0,7.2-.3,1.2-.8,2.3-1,3.5-.4,2.4.3,4.8.3,7.1.2,3.6,0,7-1,10.6,0,.1-.2.1-.3,0-1-2.3-1.3-4.8-1.4-7.2-.2-3.6,1.3-7.1,1.5-10.7-.2-2.4-.6-4.8.2-7.2.3-1.2.7-2.3,1.4-3.4,0-.1.2,0,.3,0h0Z" fill="#fff"/><path d="M108.6,93.7c-1.8,3.4-4.5,5.8-7.5,7.9-2.8,2.3-5.7,4.6-8.6,6.8,0,0-.2-.2-.2-.2,2.4-2.8,4.8-5.5,7.3-8.1,2.4-2.8,5.1-5.4,8.7-6.6,0,0,.2.2.2.2h0Z" fill="#fff"/><path d="M110.1,94.4c0,3.2-.9,5.8-2.2,8.5,0,0-1.6,4.1-1.6,4.1-.5,1.4-1,2.8-1.5,4.1h-.3c.1-1.5.3-3,.5-4.5.9-4.4,1.1-9.3,4.8-12.4,0,0,.2.1.2.1h0Z" fill="#fff"/><path d="M100.6,81.4c-2.7-.9-5.2-2.2-7.5-3.8-1.1-.9-2.1-1.9-3.3-2.7-2.4-1.5-5.2-2-7.8-3.1-4-1.5-7.6-3.3-11.1-5.9-.1,0,0-.3,0-.2,2.9.2,5.7,1,8.3,2,4.2,1.6,7.1,4.5,10.9,6.5,2.6,1.1,5.4,1.9,7.5,3.9,1.1.9,2.1,1.9,3,3.1,0,.1,0,.3-.2.2h0Z" fill="#fff"/><path d="M102.9,84.1c-3.5-.5-6.9-1.2-10.2-2.2-1.7-.5-3.3-1.3-5-1.6-3.4-.8-7-.2-10.5-.4-5.3,0-10.4-.5-15.7-1.6-.1,0-.1-.2,0-.3,5.3-1.3,10.6-1.4,15.9-.6,3.5.4,6.9,1.7,10.4,2,2.6.3,5.4,0,8,.9.7.2,1.8.6,2.5.9,1.7.6,3.3,1.5,4.7,2.6.1,0,0,.3-.1.2h0Z" fill="#fff"/><path d="M103.2,83.9c-2.1,1.2-4.4,1.9-6.8,2.2-1.2,0-2.4-.1-3.6,0-2.4.3-4.4,1.7-6.7,2.4-3.4,1.3-6.7,2-10.5,2.2-.1,0-.2-.2,0-.2,1.9-1.7,4.1-2.7,6.4-3.5,3.4-1.3,7.2-.9,10.7-1.7,1.1-.3,2.2-1,3.4-1.4,2.3-.7,4.8-.8,7.2-.3.1,0,.1.2,0,.3h0Z" fill="#fff"/><path d="M103.2,83.1c-6.8-1.5-12.6-4.1-19.2-6.1-2.1-.7-4.3-1.4-6.5-2,0,0,0-.3,0-.3,4.5.6,9,1.4,13.4,2.4,2.2.5,4.5.9,6.6,1.8,2.1,1,4.3,2.2,5.7,4,0,0-.1.2-.1.2h0Z" fill="#fff"/><path d="M101.4,83.4c-2.9,1.3-5.7,1.3-8.7,1.1,0,0-4.4,0-4.4,0-1.5,0-2.9,0-4.4.1v-.3c1.4-.5,2.8-.8,4.3-1.2,4.4-.8,9-2.5,13.3-.1,0,0,0,.3,0,.3h0Z" fill="#fff"/><path d="M111.7,72.9c-2.7-1.1-5.1-2.8-6.9-4.9-.9-1.1-1.6-2.4-2.5-3.5-2.9-3.2-6.4-5.3-9-9-1.6-2.3-3.1-4.8-4-7.5,0-.1.1-.2.2-.1,3.3,2.8,6,5.8,8.5,9.3,1.7,2.2,2.9,4.9,4.9,6.8,1,1,2.3,1.7,3.4,2.5,2.2,1.8,4,3.9,5.6,6.3,0,.1,0,.3-.2.2h0Z" fill="#fff"/><path d="M114,73c-2-1.9-3.4-4.2-4.5-6.6-1.2-2.4-1.4-5.2-2.1-7.7-.9-3.4-2.7-6.6-3.6-10-1.6-5.1-2.3-10.4-1.8-15.8,0-.1.2-.2.3,0,1.9,5,3.1,10,3.9,15.3.7,3.4.7,7,2,10.3.6,1.6,1.6,3.2,2.4,4.7,1.1,2.3,2,4.8,2.9,7.2.3.8.6,1.7.8,2.6,0,.1-.1.2-.2.1h0Z" fill="#fff"/><path d="M112.7,72.8c-4.2-2.2-6.6-6.6-8.5-10.7-2-4.1-3.8-8.2-5.4-12.5,0,0,.2-.1.2-.1,2.3,3.9,4.6,7.8,7,11.6,2.7,3.7,4.7,7.4,6.8,11.5,0,0-.2.2-.2.2h0Z" fill="#fff"/><path d="M113.3,71.1c-2.9-3.8-2-8.7-1.8-13.2.1-1.5.3-3,.5-4.4,0,0,.3,0,.3,0,.3,2.5.8,6.2,1.1,8.7.7,3,1,5.7.2,8.8,0,0-.3,0-.3,0h0Z" fill="#fff"/><path d="M107,88.3c-2.9-.7,0-3-.6-3.8-.5-.8-1.2-.9-1.3-1.7s-.5-1.1,1-2.4c1.5-1.3,1.2.2,1.9-.7.7-.9.7-1.7,1.4-2.3.7-.6.8-1,1.6-.7s1.1.7,1.5.1c.4-.6,1.3-.3,2.1-.3s2.1-.4,2.6.1,0,1.1,1.1.6,1.8-1,2.3.2c.6,1.2.8,1.4.4,2.3-.5.8.1,1.4-.3,2.6s1.2,1.4.9,2.6c-.3,1.1-1.2,2.6-1.9,2.3s-.8.5-1.7,1.2c-1,.7-1.7,2.6-2.3,2.1-.6-.6-1.1-.7-2-.4-.9.3-1.1,1.2-2,1.1-.9,0-2.2-1.1-2.2-1.8,0-.7-2.7-1-2.7-1Z" fill="none" stroke="#fff" stroke-miterlimit="10" stroke-width="1.2"/><path d="M118.5,79.5c2.2.4.2,2.3.6,2.8.4.6.9.7,1.1,1.3s.4.8-.7,1.8-.9-.1-1.4.6c-.5.7-.5,1.3-1,1.8s-.6.8-1.2.6-.8-.5-1.1,0c-.3.4-.9.3-1.6.3s-1.5.4-2,0,0-.8-.9-.4-1.3.8-1.8,0c-.5-.9-.7-1.1-.4-1.7s-.1-1,0-2c.2-.9-.9-1-.8-1.9s.8-2,1.3-1.8.6-.4,1.3-1,1.2-2.1,1.7-1.7c.5.4.8.5,1.5.3.7-.2.8-.9,1.5-.9s1.7.7,1.7,1.3,2.1.7,2.1.7Z" fill="none" stroke="#fff" stroke-miterlimit="10" stroke-width=".9"/><path d="M109.5,84.7c-1.3-.9.5-1.5.4-2s-.4-.7-.3-1.1c0-.4,0-.7.9-1,1-.3.6.3,1.1,0,.5-.3.7-.7,1.1-.9s.6-.3.9,0,.4.5.7.3.7,0,1.1.2c.4.2,1.1.2,1.3.6s-.2.5.5.5,1.1-.2,1.1.5c0,.7.2.9-.2,1.2s-.2.7-.6,1.2c-.4.5.3.9,0,1.4s-1.1,1.1-1.4.8-.5.1-1.1.3-1.3,1-1.5.6-.4-.5-.9-.6-.8.4-1.2.2-.9-1-.7-1.3-1.1-1-1.1-1Z" fill="none" stroke="#fff" stroke-miterlimit="10" stroke-width=".6"/><path d="M60.6,383.7c.7-.3,1.2-.5,1.7-.6,0,0,0,.1,0,.2.2.5.6.7,1,.9,0,.7.3,1.4.8,1.9,0,.4-.1.8-.2,1.2-17.5,9.9-35.6,33.1-23.5,46.1,2.5,2.5,0,12.2,4.5,13.5,9.9,2.6,16.4-8,21.7-13.4,11.7-12.1,9.3-27.9,2.2-43.6.1-1.3.4-2.1.8-2.6.6.1,1.2,0,1.8-.5.8.3,1.5.9,2,1.3,1.4,4.1,1.9,9.3,6.7,17.2,3.4,5.5,2.9,14.2,8.4,17.9,6.3,4.4,20.7,4,26.5-3.1,1.4-1.8.8-5.7,1.7-7.3,3.7-6.1,6-8.9,3.7-13.1-2.4-4.3-7.6-7.8-15.5-10.5-7-2.3-16.2-4-27.6-4.4-.7-.4-1.3-.8-1.8-1.3,0-.8-.3-1.6-.9-2,0,0,0,0,0,0,0,0,.1-.1.2-.2.5-.8.5-1.8,0-2.6.3-.5.7-.8.9-1,12,4.1,44,11.6,44.6-3.9.1-2,4.1-4.5,2.3-8.9-3.1-5.2-8.8-6.4-10.8-8.5-7.5-7.5-19.7-5.1-38.4,17.2-.6.4-1.1.6-1.5.6-.1,0-.2,0-.3,0-.9-.1-1.3-1-1.6-2,3.1-5.3,7-13.1,8.6-20.7,1.6-7.8,1.5-19.3-4.1-25.4-2.5-2.8-9.5.6-15.3-.5-6.9-2.7-9,1.7-12.4,7.8-6.2,11.2-5,29.7,14.9,42.3.7.8,1.1,1.5,1.2,2,0,.3-.1.6,0,.9-.4.5-1.3.6-2.2.6-12.5-4.4-28.6-39.5-49.5-1-3.1,5.9,2.1.3-8.6,25.4,0,12.6,22.2,9.6,58-19.7Z" fill="none" stroke="#fff" stroke-miterlimit="10" stroke-width="3.4"/><path d="M70,372.1c-1.7-2.4-2.5,1.2-3.3,1.1-.9-.1-1.2-.7-2-.5-.7.2-1.1,0-1.6,2-.4,1.9.7,1,.2,2.1-.5,1.1-1.2,1.4-1.4,2.3-.2.9-.5,1.2,0,1.8.6.6,1,.7.7,1.3-.3.6.2,1.3.6,2.1.4.8.5,2.1,1.2,2.3.7.3.9-.6,1,.7.1,1.3-.1,2.1,1.2,2,1.3,0,1.6,0,2.1-.8.5-.8,1.2-.6,2.1-1.5.9-.9,1.7.3,2.5-.4.8-.8,1.6-2.3,1.1-2.7-.5-.4,0-.9.2-2,.1-1.1,1.4-2.6.7-2.9-.7-.3-1-.6-1.2-1.5-.2-.9.5-1.5,0-2.2-.4-.8-1.8-1.5-2.4-1.2-.5.4-1.9-2-1.9-2Z" fill="none" stroke="#fff" stroke-miterlimit="10" stroke-width="1.1"/><path d="M68.3,371.3c-.1-3.2.8-6.2,1.8-9,.5-2,.2-4.1.3-6.2.1-3.1.5-6.1,1.4-9,0,0,.1,0,.2,0,.4,2.1.5,4.2.4,6.3-.1,3.1-1.3,5.9-1.8,9,0,3.2-.4,6.3-2.2,8.9,0,0-.2,0-.2,0h0Z" fill="#fff"/><path d="M64.6,372.7c-.7-3.9-.6-7.9-.6-11.9-.2-2.7-1.2-5.2-1.7-7.8-.9-4-1.5-7.9-1.6-12.1,0-.1.1-.1.2,0,1.6,3.8,2.5,7.8,3,11.8.4,2.7.2,5.4.7,8.1.3,2,1,3.9,1,6,0,.6,0,1.4,0,2,0,1.3-.3,2.7-.7,4,0,0-.2,0-.2,0h0Z" fill="#fff"/><path d="M63.1,374.7c-1.9-1.9-2.7-4.6-3.3-7.3-.6-1.7-1.9-3-2.6-4.6-1.3-2.3-2.3-4.8-2.9-7.6,0,0,0-.2.1-.1,1.3,1.2,2.3,2.7,3.1,4.3,1.3,2.4,1.7,5.3,2.8,7.7,1.5,2.2,2.9,4.6,2.9,7.5,0,0-.1.1-.2,0h0Z" fill="#fff"/><path d="M66.3,372.1c-.4-3.2-.7-6.9-.6-10.1,0-3.4-.2-6.8-.3-10.2,0,0,.1,0,.2,0,.6,3.4,1.1,6.8,1.5,10.2.5,3.4.9,7-.6,10.2,0,0-.1,0-.2,0t0,0Z" fill="#fff"/><path d="M68,372.9c-.7-2.8-.5-5.4,0-8.1.3-2.4.7-5.7,1.1-8,0,0,.1,0,.2,0,.1,2.7.1,5.4.1,8.1.1,2.8,0,5.5-1.2,8,0,0-.2,0-.2,0h0Z" fill="#fff"/><path d="M69.9,370.7c.3-2.9,1.2-5.3,2.1-7.8.8-2.5,1.5-5.1,1.9-7.7,0,0,.2,0,.2,0,0,2.8-.3,5.5-.8,8.2-.4,2.8-1.3,5.4-3.3,7.4,0,0-.2,0-.2,0h0Z" fill="#fff"/><path d="M63.6,372.2c-1.4-1.8-2-3.8-2.4-6.1-.6-2.1-1.1-4.3-1.7-6.5,0,0,.1,0,.2,0,1.1,1.9,2,4,2.9,6,1,2,1.7,4.2,1.3,6.6,0,0-.2,0-.2,0h0Z" fill="#fff"/><path d="M62.3,374.7c-2.1-.6-3.4-2.3-4.4-4.3-1.1-1.8-2.1-3.8-2.9-5.8,0,0,0,0,.1-.1,1.3,1.6,2.5,3.3,3.9,4.9,1.5,1.5,2.7,3,3.5,5.2,0,0-.1.2-.1.2t0,0Z" fill="#fff"/><path d="M51.2,327.9c.3,2.9-.2,5.2-.9,7.9-.3,1.8.2,3.6.3,5.3.2,2.7.1,5.1.1,7.8,0,0-.1.1-.1.1-.6-.7-.9-1.6-1.1-2.5-1.1-3.6,0-7.2.3-10.9,0-1.8-.3-3.7.3-5.4.2-.9.5-1.7,1-2.4,0,0,0,0,.1,0t0,0Z" fill="#fff"/><path d="M66.4,325.3c1.2,1.4,1.9,3.1,2.2,4.9.3,1.2.1,2.5.5,3.6.2.6.6,1.1.8,1.6.3.9.4,1.8.4,2.8,0,.3-.1.8-.3,1,0,0,0,0,0,0-.5-1-1.1-2.2-1.2-3.4,0-.6,0-1.2,0-1.8-.4-1.7-1.6-3.2-2-5-.3-1.2-.5-2.4-.4-3.7,0,0,0-.1.1,0h0Z" fill="#fff"/><path d="M55.2,324.2c.3,3.2.4,6.1.3,9.3,0,3.1.5,6.4.6,9.4-1-2.8-1.5-6.2-1.9-9.3-.5-3.2-.5-6.6.8-9.5,0,0,.1,0,.1,0h0Z" fill="#fff"/><path d="M64.4,324.8c1.3,2.8,1.9,5.7,2.4,8.8.3,1.6,1,5.2,1.2,6.7,0,.8.3,1.6,0,2.3,0,0-.2,0-.1-.2,0-1.4-.7-2.9-1-4.2,0,0-1.3-4.3-1.3-4.3-.9-2.9-1.6-5.9-1.3-9.1,0,0,.1-.1.1,0h0Z" fill="#fff"/><path d="M56.5,325.3c.6.9.9,1.9.9,3.1,0,.5-.2,1.1-.2,1.6,0,1.1.7,2,1,3,.5,1.5.7,3,.4,4.7,0,0,0,.1-.1,0-.8-.8-1.2-1.8-1.5-2.8-.5-1.7,0-3.3-.3-4.9-.1-.5-.4-1-.6-1.5-.3-1-.2-2.1.2-3.3,0,0,.1,0,.2,0h0Z" fill="#fff"/><path d="M62.2,326.5c.7.8,1.1,1.8,1.2,2.9,0,.5-.1,1.1,0,1.6,0,.5.2,1,.5,1.5.7,1.4,1.2,2.9,1.1,4.5,0,.3,0,1.6-.5,1.7,0,0,0,0,0,0,0,0,0,0,0,0-.8-1.3-1.3-2.7-1.4-4.3-.2-1,.2-2.2-.2-3.1-.4-1-1-1.7-1-2.9,0-.5,0-1.1.2-1.7,0,0,0,0,.1,0h0Z" fill="#fff"/><path d="M70.7,325.3c1,1.1,1.7,2.5,2.2,4,.4,1.5.4,3.1,1.1,4.5.4,1.1,1.1,2.2,1,3.4,0,0,0-.4,0-.4.7,2.6.7,5.3-.5,7.4,0,0-.2,0-.2,0-.4-2.5-.8-5.4-.8-7.6,0-.8,0-1.7-.2-2.5-.2-2.1-1.8-3.5-2.3-5.5-.3-1-.5-1.9-.7-3.1,0,0,0,0,.1,0h0Z" fill="#fff"/><path d="M53.1,326.3c.5,2.1.5,3.9.3,6,0,0-.2,6.1-.2,6.1,0,0-.1,0-.2,0-.4-2-.7-4-.9-6.1-.3-2.1-.4-4.4.8-6.1,0,0,.1,0,.1,0h0Z" fill="#fff"/><path d="M71.9,325.1c1.6,1,2.3,3,2.8,5,.6,1.8,1,3.7,1.5,5.6,0,0,0,0-.1,0-.8-1.7-1.6-3.4-2.4-5.1-.9-1.7-1.5-3.3-1.8-5.4,0,0,.1-.1.1-.1h0Z" fill="#fff"/><path d="M68,325.4c1.5.5,2.2,2.3,2.5,4,.3,1.2.6,2.4.7,3.6,0,.5.2.9,0,1.3,0,0,0-.2,0-.2-.4-2.1-1.8-4.3-2.6-6.2-.2-.7-.4-1.4-.6-2.3,0,0,0,0,0-.1h0Z" fill="#fff"/><path d="M49.2,330.4c.2,1.9-.2,3.4-.9,5-.5,1.6-.9,3.2-1.2,4.9,0,0-.1,0-.2,0-.2-1.8,0-3.6.2-5.3.1-1.9.6-3.6,1.9-4.6,0,0,.1,0,.1,0t0,0Z" fill="#fff"/><path d="M60.1,325.8c.7,1.7.8,3.1.7,4.9,0,1.6.2,3.3.4,4.9,0,0,0,0-.1,0-.7-1.5-1.2-3.1-1.5-4.8-.5-1.7-.5-3.5.4-5,0,0,.2,0,.2,0h0Z" fill="#fff"/><path d="M57.9,325.2c1,.9,1.3,2.2,1.2,3.6,0,1.3,0,2.6,0,3.8,0,0-.1,0-.2,0-.4-1.7-1.1-3.7-1.4-5.4,0-.6,0-1.2.3-2,0,0,0,0,.1,0h0Z" fill="#fff"/><path d="M109.9,423c-2.8,1.1-5.4.7-7.9,0-3.5-.3-7.3.2-10.2-1.7-.7-.4-1.4-.9-1.8-1.7,0,0,.1,0,.2-.1,2.5.6,4.8.9,7.2,1.7,1.6.4,3.1,1.2,4.8,1.3,1.7,0,3.5-.4,5.2,0,.8.1,1.7.2,2.6.5,0,0,0,.1,0,.2h0Z" fill="#fff"/><path d="M119.2,408.1c-2-.3-3.5-1-4.8-2-.9-.6-1.5-1.6-2.6-2-.5-.2-1.2-.3-1.8-.4-1.1-.4-1.9-1.1-2.7-1.8,0,0,0,0,0,0,0,0,0,0,0,0,1.1-.4,2.7.2,3.6.8.5.4.8.8,1.3,1.1,1.5.9,3.5,1,4.9,2,.9.6,1.8,1.4,2.3,2.3,0,0,0,.1-.1.1h0Z" fill="#fff"/><path d="M115.2,419.6c-3.3.8-6.5.2-9.3-.9-2.7-1-5.8-2.2-7.9-3.8,2.8.8,5.6,1.9,8.6,2.5,3,.5,5.8,1.1,8.7,2,0,0,0,.1,0,.2h0Z" fill="#fff"/><path d="M118.7,410.2c-4.7-.3-8.3-3.1-11.9-5.1-1.2-.6-2.4-1.6-3.7-1.9-.1,0-.2,0-.1-.1.8-.1,1.5.3,2.2.5,1.4.5,4.6,2,6,2.5,2.8,1,5.3,2.2,7.5,4,0,0,0,.2,0,.1h0Z" fill="#fff"/><path d="M114.7,418c-1.3.2-2.3,0-3.2-.3-.4-.3-.7-.7-1.2-.9-.9-.5-2.1-.3-3.1-.6-1.6-.4-2.8-1.2-3.4-2.6,0,0,0-.1,0-.1,1.8,0,3.1.5,4.4,1.3.8.4,1.4,1.3,2.4,1.6,1.1.2,2.1,0,3,.6.4.2.8.5,1.1,1,0,0,0,.1,0,.1t0,0Z" fill="#fff"/><path d="M116.1,412.1c-1.2,0-2.2-.1-3.1-.7-.4-.3-.6-.7-1.1-1-1.2-.6-3-.5-4.3-1.3-.9-.5-1.6-1.1-2.2-1.8,0,0,0,0,0,0,1.7-.4,3.3.2,4.6,1.1.8.5,1.3,1.4,2.3,1.7,1.1.2,2.1.2,2.9.9.4.3.7.6,1,1.1,0,0,0,.1-.1.1h0Z" fill="#fff"/><path d="M121.1,404c-1.5-.5-2.7-1.1-3.9-2-1-.9-1.9-2-3.3-2.5-.7-.3-2-.6-2.4-.7-2.5-.6-4.8-1.5-7.2-2.4,0,0,0-.2,0-.2,2.5-.6,5.3,0,7.5,1.2-.1,0-.3,0-.4,0,1.2.1,2,1.1,2.9,1.7,1.4,1.3,3.8,1.5,5.1,2.8.7.6,1.4,1.3,1.8,2.1,0,0,0,0-.1.1h0Z" fill="#fff"/><path d="M112.3,421.4c-2.2.9-4.3.5-6.1-.3-1.8-.6-3.6-1.3-5.3-2.1,0,0,0-.1,0-.2,1.9.3,3.8.7,5.8,1,2.1.1,3.8.5,5.6,1.4,0,0,0,.2,0,.2h0Z" fill="#fff"/><path d="M121.8,402.8c-1.9-.7-3.2-1.5-4.5-2.8,0,0-4.1-3.3-4.1-3.4,0,0,0,0,.1-.1,1.7.8,3.3,1.6,4.9,2.5,1.7.9,3.4,1.9,3.7,3.6,0,0-.1,0-.2,0h0Z" fill="#fff"/><path d="M119.7,406.5c-1.6-.6-2.6-1.2-3.6-2.3-1-.8-2.1-1.9-3.4-2.4,0,0-.1-.1-.1-.1.8-.2,1.7.3,2.4.6,1.4.7,3,1.2,4.1,2.2.5.5.9,1.2.8,2,0,0-.1,0-.2,0h0Z" fill="#fff"/><path d="M115.9,414.3c-2.8.9-5.1-.5-7.1-1.6-.7-.4-1.3-.8-1.9-1.3,0,0,0,0,.1-.1,2.1.9,4.5,1.3,6.8,1.8.7.3,1.4.6,2.1,1.1,0,0,0,.1,0,.2h0Z" fill="#fff"/><path d="M115.4,416.6c-1.6.2-2.5-.1-3.6-.8-1-.5-2-1.1-3-1.7,0,0,0-.1,0-.2,1.3.1,2.5.3,3.7.6,1.4.2,2.6.7,2.9,1.9,0,0-.1.1-.1.1t0,0Z" fill="#fff"/><path d="M62.8,438.2c.2-2.9,1.4-5.1,2.8-7.6.7-1.7.5-3.4.8-5.1.3-2.5,1-4.9,1.6-7.4,0,0,.2,0,.2,0,.5.8.6,1.6.8,2.5.6,3.5-1.5,6.7-2.7,10.2-.3,1.7-.4,3.5-1.5,5.2-.5.8-1,1.6-1.8,2.4,0,0-.1,0-.2,0h0Z" fill="#fff"/><path d="M43.1,443.6c-.6-1.9-.4-4,.3-6.1.4-1.3,1.4-2.6,1.6-3.9.1-.7,0-1.4,0-2,.2-1,.7-2,1.3-2.9.2-.3.6-.7,1-.8,0,0,0,0,0,0,0,1.3-.2,2.7-.8,3.9-.3.6-.8,1.2-1.1,1.9-.6,1.9,0,3.9-.7,5.9-.4,1.3-.8,2.6-1.7,4,0,0-.2,0-.2,0h0Z" fill="#fff"/><path d="M56.9,442.6c1.2-3.2,2.7-6,4.3-8.9,1.6-2.9,2.7-6.1,4.2-8.9-.4,3-1.6,6.2-2.7,9.3-1,3.1-2.7,6.4-5.7,8.6,0,0-.2,0-.2-.1h0Z" fill="#fff"/><path d="M44.5,446.4c0-3.4,1.1-6.7,2.4-9.9.6-1.7,2-5.6,2.8-7.2.4-.8.6-1.7,1.4-2.3.2,0,.1.1,0,.2-.8,1.3-1,3.1-1.4,4.6,0,0-1.2,4.8-1.2,4.9-.7,3.3-1.6,6.6-3.8,9.7,0,0-.2,0-.2,0h0Z" fill="#fff"/><path d="M54.4,446.1c-.2-1.1,0-2.2.5-3.3.3-.5.8-1,1.1-1.5.5-1,.2-2.2.4-3.3.2-1.7.9-3.1,2.1-4.7,0,0,.2,0,.2,0,.5,1.1.4,2.2.2,3.3-.3,1.9-1.8,3.1-2.3,4.7-.1.5,0,1.1,0,1.7-.2,1.1-.9,2.2-2,3.1,0,0-.2,0-.2,0h0Z" fill="#fff"/><path d="M46.8,447.1c-.3-1.1-.3-2.3.2-3.4.3-.5.8-1.1,1-1.6.2-.5.3-1.1.3-1.7,0-1.7.3-3.5,1.4-5,.2-.3,1-1.5,1.5-1.5,0,0,0,0,0,0,0,0,0,0,0,.1,0,1.6-.1,3.3-.9,4.9-.4,1.1-1.5,2.1-1.6,3.2,0,1.2.2,2.1-.5,3.4-.3.5-.6,1.1-1.2,1.6,0,0-.2,0-.2,0t0,0Z" fill="#fff"/><path d="M39.8,432.7c-.5-1.6-.5-3.4,0-5.1.5-1.7,1.5-3.4,1.6-5.1.2-1.3.2-2.8,1.1-3.9,0,0-.3.4-.3.4.9-2.9,2.8-5.5,5.4-6.9,0,0,0,0,.1.1-.6,1.3-1.3,2.6-1.9,3.8-.7,1.3-1.6,3.1-2.3,4-.5.8-1,1.7-1.4,2.6-1.1,2.2-.3,4.4-1,6.7-.3,1.1-.6,2.2-1.2,3.4,0,0-.1,0-.2,0h0Z" fill="#fff"/><path d="M38.3,432.3c-1.2-1.8-.8-4.3,0-6.5.6-2.2,1.3-4.3,2.1-6.4,0,0,.1,0,.2,0-.2,2.1-.5,4.3-.7,6.4,0,2.2-.4,4.1-1.3,6.4,0,0-.2,0-.2,0h0Z" fill="#fff"/><path d="M42.4,435.5c-1.4-1.2-1.2-3.4-.5-5.2.4-1.4.8-2.7,1.5-4,.3-.5.4-.9.9-1.2,0,0,0,.2,0,.2-.9,2.3-.6,5.2-.9,7.5-.2.8-.4,1.6-.8,2.6,0,0-.1,0-.2,0h0Z" fill="#fff"/><path d="M48.7,447.6c.1-2.9,1.2-5.6,2.5-8.3,1.1-2.7,2.1-5.4,2.9-8.1,0,0,.1,0,.2,0-.3,2.7-.8,5.5-1.5,8.3-.6,2.9-1.6,5.7-3.8,8.1,0,0-.2,0-.2,0h0Z" fill="#fff"/><path d="M52.3,446.1c-.8-1.3-.4-2.7.5-4.1.6-1.3,1.4-2.5,2.2-3.7,0,0,.1,0,.2,0-.5,1.9-.7,4.1-1.3,5.8-.3.6-.7,1.2-1.4,1.9,0,0-.1,0-.2,0h0Z" fill="#fff"/><path d="M110.5,356c-2,.7-3.9.5-6.1.2-1.4,0-2.5.7-3.8,1-1.9.6-3.8.9-5.8,1.3,0,0-.1-.1-.1-.1.3-.7.9-1.1,1.5-1.5,2.3-1.7,5.3-1,8.1-1.2,1.3-.3,2.5-.8,4-.5.7.1,1.5.3,2.2.7,0,0,0,.1,0,.2h0Z" fill="#fff"/><path d="M121.5,369.1c-.9,1.1-2.2,1.7-3.9,1.8-1,.2-2.2-.2-3.2.2-.5.1-.9.5-1.3.7-.7.3-1.6.2-2.4,0-.3,0-.7-.2-.9-.4,0,0,0,0,0,0,.9-.4,1.8-.9,2.8-.9.5,0,1.1.2,1.6.1,1.5-.2,2.5-1.3,4-1.6,1-.2,2-.3,3.2,0,0,0,.1,0,0,.1h0Z" fill="#fff"/><path d="M115.5,359.2c-2.5,0-4.9-.2-7.4-.5-2.5-.3-5.1-.1-7.6-.4,2.2-.7,4.8-.8,7.3-.9,2.5-.2,5.2.1,7.7,1.7,0,0,0,.2,0,.2h0Z" fill="#fff"/><path d="M122.7,367.1c-2.1,1-4.5,1.4-7.1,1.5-1.3.1-4.4.4-5.7.4-.7,0-1.4.1-2.1-.2,0-.1,0-.2.1,0,1.2.1,2.5-.4,3.6-.6,0,0,3.6-.8,3.6-.8,2.4-.6,4.8-1,7.6-.4,0,0,.1.1,0,.2h0Z" fill="#fff"/><path d="M118.7,360c-.6.5-1.4.7-2.3.6-.4,0-.9-.3-1.4-.3-.9,0-1.5.6-2.3.7-1.2.4-2.4.4-3.8,0,0,0-.1-.1,0-.2.5-.7,1.3-1,2.1-1.2,1.3-.3,2.7.4,3.9.2.4,0,.7-.3,1.1-.5.8-.2,1.7,0,2.7.5,0,0,0,.1,0,.2h0Z" fill="#fff"/><path d="M122.2,365.3c-.5.6-1.3.9-2.2.9-.5,0-1-.2-1.4-.2-.4,0-.8.1-1.2.3-1,.6-2.3.9-3.7.7-.3,0-1.3-.2-1.6-.7,0,0,0,0,0,0,0,0,0,0,0,0,1-.6,2.1-1,3.5-.9.8,0,1.9.4,2.7.2.8-.3,1.2-.9,2.3-.7.5,0,.9.1,1.5.3,0,0,.1.1,0,.2t0,0Z" fill="#fff"/><path d="M120,374.7c-.8,1-1.8,1.6-3.1,2-1.3.3-2.8.2-4,.8-.9.3-1.8,1-3,.7.1,0,.3,0,.4,0-2.3.5-5,.1-7.1-1.3,0,0,0-.2,0-.2,2.4-.1,5-.2,7.1,0,.7,0,1.6,0,2.3,0,1.9,0,2.9-1.5,4.6-1.8.8-.2,1.6-.4,2.6-.4,0,0,0,0,.1.1t0,0Z" fill="#fff"/><path d="M118.4,377.5c-.5,1.6-2.3,2.2-4,2.5-1.6.4-3.3.8-5,1,0,0,0-.1,0-.2,1.5-.7,2.9-1.4,4.4-2.1,1.4-.9,2.8-1.3,4.6-1.5,0,0,.1.1.1.1h0Z" fill="#fff"/><path d="M120.3,371.5c0,1.5-1.5,2.1-3,2.3-1,.2-2.1.4-3.2.4-.4,0-.8,0-1.2-.2,0,0,0,0,.1,0,1.9-.2,3.5-1.5,5.1-2.1.6-.2,1.2-.3,2-.4,0,0,0,0,.1.1h0Z" fill="#fff"/><path d="M121.8,363.7c-1.9.8-3.9.9-6.1.8-2.1,0-4.3.2-6.3.5,0,0,0-.1,0-.2,1.9-.8,3.9-1.3,6-1.6,2-.5,4.2-.6,6.6.3,0,0,0,.2,0,.2h0Z" fill="#fff"/><path d="M119.5,361.6c-.5,1-1.5,1.1-2.7.9-1.1,0-2.1-.2-3.2-.5,0,0,0-.1,0-.2,1.4-.3,2.9-.8,4.2-.9.5,0,1,.2,1.7.5,0,0,0,.1,0,.2t0,0Z" fill="#fff"/><path d="M7.2,408.4c2.5-2,4.7-2.5,7.3-3,1.6-.6,3.1-2.1,4.6-3.1,2.2-1.6,4.5-2.7,6.8-3.9,0,0,.1.1.1.1-.4,1-1.1,1.8-1.8,2.6-2.8,3.2-6.3,3.6-9.6,5-1.6,1-3.1,2.4-4.9,2.5-.8.1-1.7.2-2.5,0,0,0,0-.2,0-.2t0,0Z" fill="#fff"/><path d="M12.6,376.7c1.5-1.7,3.1-2.5,4.9-2.7,1.1-.2,2.2.3,3.3-.1.5-.2,1.1-.7,1.6-.9.8-.3,1.7-.3,2.5,0,.3.1.6.3.8.6,0,0,0,0,0,.1-1,.6-2.1,1.1-3.3,1.1-.5,0-1.1-.3-1.6-.2-1.6.3-3.2,1.9-4.8,2.2-1.1.2-2.2.4-3.3.1,0,0,0-.2,0-.2t0,0Z" fill="#fff"/><path d="M3.5,402.1c2.9-1.7,5.6-2.6,8.5-3.5,2.9-1,5.8-2.7,8.6-3.6-2.5,2.2-5.5,3.8-8.3,5.4-2.8,1.7-6,3-8.8,2,0,0,0-.2,0-.2h0Z" fill="#fff"/><path d="M10.5,380.8c2.8-1.7,5.5-2.2,8.3-2.4,1.5-.2,4.8-.6,6.2-.6.7,0,1.5-.2,2.1.4,0,.1,0,.2-.2.1-1.2-.2-2.7.5-4,.8,0,0-4.1,1.2-4.1,1.2-2.8,1-5.6,1.7-8.3.8,0,0,0-.2,0-.2h0Z" fill="#fff"/><path d="M4.6,398.1c.9-1,1.8-1.7,2.9-1.8.5,0,1,.2,1.5,0,1-.2,1.9-1.4,2.8-1.8,1.5-1,2.8-1.3,4.4-1.1,0,0,.1.1,0,.2-.8,1.2-1.7,1.9-2.7,2.5-1.6.9-3,.3-4.5.9-.5.3-.9.8-1.4,1.1-1,.5-2,.6-3,0,0,0,0-.2,0-.2h0Z" fill="#fff"/><path d="M10.2,385.4c.9-1,1.8-1.5,2.8-1.5.5,0,.9.3,1.4.3.5,0,.9-.3,1.4-.6,1.4-.9,2.9-1.4,4.3-1.1.3,0,1.3.3,1.4.9,0,0,0,0,0,0,0,0,0,0,0,0-1.3.9-2.7,1.6-4.2,1.5-.9.1-1.9-.5-2.8-.1-1,.5-1.7,1.4-2.8,1.2-.5,0-1-.1-1.4-.5,0,0,0-.2,0-.2t0,0Z" fill="#fff"/><path d="M17,368.2c1.2-1.4,2.5-2.2,4-2.6,1.4-.2,2.8,0,4.2-.7,1-.4,2.2-1.2,3.2-.7-.1,0-.2,0-.4-.1,2.4-.4,4.8.4,6.4,2.5,0,0,0,.2,0,.2-2.3-.1-4.9-.3-6.9-.8-.7-.1-1.5-.3-2.2-.3-1.8-.1-3.5,1.8-5.3,2.2-.9.2-1.8.5-2.8.4,0,0,0-.1,0-.2t0,0Z" fill="#fff"/><path d="M4,406.5c1.8-1.6,3.5-2.5,5.4-3.1,0,0,5.6-2.3,5.6-2.3,0,0,0,.1,0,.2-1.7,1.4-3.5,2.7-5.3,3.8-1.8,1.4-3.9,2.5-5.8,1.5,0,0,0-.2,0-.2h0Z" fill="#fff"/><path d="M14.7,372.9c.8-2.2,2.5-3,4-3.2,1.1-.3,2.2-.4,3.3-.3.4,0,.8,0,1.1.4,0,0-.1,0-.2.1-1.9.2-4.2,1.9-6,2.8-.7.2-1.3.4-2.2.5,0,0,0-.1,0-.2t0,0Z" fill="#fff"/><path d="M14,408.7c1.5-1.6,2.9-2.1,4.5-2.5,1.5-.5,3.1-1.1,4.6-1.9,0,0,0,.1,0,.2-1.3,1.3-2.8,2.5-4.4,3.4-1.6,1.2-3.3,1.8-4.9,1,0,0,0-.2,0-.2h0Z" fill="#fff"/><path d="M8.8,388.3c1.7-1,3-1,4.5-.7,1.5,0,2.9,0,4.4,0,0,0,0,.1,0,.2-1.5.9-3.1,1.4-4.6,1.8-1.7.6-3.3.5-4.4-1,0,0,0-.2,0-.2h0Z" fill="#fff"/><path d="M6.8,393.3c1-1.6,2.3-1.9,3.5-1.7,1.2,0,2.3.2,3.4.4,0,0,0,.2,0,.2-1.7.5-3.6,1.5-5.2,1.8-.6,0-1.1-.1-1.7-.6,0,0,0-.2,0-.2t0,0Z" fill="#fff"/><path d="M59.9,380.2c-3-.4-5.5-2-7.9-3.7-1.7-.9-3.7-.9-5.5-1.5-2.8-.7-5.4-1.8-7.9-3.5,0,0,0-.2,0-.2,2-.2,3.9.1,5.7.7,2.8.8,5.1,2.8,7.8,3.9,1.9.5,3.8.8,5.5,2.1.8.6,1.6,1.2,2.3,2,0,0,0,.2,0,.2h0Z" fill="#fff"/><path d="M61.4,382c-3.7.2-7.3-.3-10.8-.9-2.4-.1-4.9.8-7.3,1.1-3.7.7-7.3,1.1-11,1,0,0-.1-.2,0-.2,3.6-1.9,7.3-2.7,11-2.8,2.5-.2,4.9.4,7.3.2,1.8-.1,3.7-.7,5.5-.3.5,0,1.3.2,1.8.3,1.2.3,2.4.7,3.5,1.4,0,0,0,.2,0,.2h0Z" fill="#fff"/><path d="M61.1,382.5c-2.1,1.9-4.6,2.5-7.1,2.9-1.6.5-3,1.9-4.6,2.7-2.3,1.4-4.7,2.5-7.3,3.1,0,0-.2,0,0-.2,1.3-1.6,2.8-2.7,4.4-3.7,2.3-1.4,5-1.6,7.4-2.6,2.2-1.6,4.6-2.7,7.2-2.5,0,0,.1.1,0,.2h0Z" fill="#fff"/><path d="M60.9,381.7c-2.9-.5-6.2-1.2-9-2.3-3-.9-5.9-1.7-8.9-2.6,0,0,0-.1,0-.2,3.1.2,6.2.6,9.2,1.2,3.1.5,6.4,1.2,8.7,3.8,0,0,0,.1,0,.2h0Z" fill="#fff"/><path d="M59.6,382c-1.7,1.6-3.8,1.8-5.9,1.7-2,0-4-.1-6-.4,0,0,0-.1,0-.2,2-.4,4-.7,5.9-1,2-.6,3.8-.8,5.9-.2,0,0,0,.2,0,.2h0Z" fill="#fff"/><path d="M66.9,388.8c1.9,2.6,2.3,5.8,2.3,9,.5,3.1,1.9,5.9,2.1,9.1.1,2.1,0,4.2-.5,6.3,0,0-.2.1-.2,0-1.1-2.9-1.5-5.9-1.7-9.1-.2-2,.2-4.2-.4-6.2-1.1-2.9-2.1-5.8-1.9-9.1,0,0,.1-.1.2,0h0Z" fill="#fff"/><path d="M65.6,387.6c1.1,4,.2,8.1-1.2,11.9-.7,2.6-.8,5.4-1.5,8-.9,4.1-2.5,8-4.9,11.7,0,0-.2,0-.2,0,.7-4.2,1.9-8.2,3.4-12.1.9-2.6,2.2-5.1,2.6-7.7.3-4,.6-8,1.7-11.8,0,0,.2-.1.2,0t0,0Z" fill="#fff"/><path d="M65.4,387.2c-.6,2.8-2.5,4.9-4.6,6.7-1.7,2.2-2.7,4.9-4.7,7-1.3,1.4-2.8,2.7-4.5,3.6,0,0-.2,0-.1-.1,1.4-2.7,3.1-4.9,5.1-6.9,1.2-1.4,2.9-2.4,3.8-3.9.9-1.6,1.5-3.4,2.9-4.6.6-.7,1.2-1.3,2-1.8,0,0,.2,0,.1.1h0Z" fill="#fff"/><path d="M66.4,388.7c1.2,2.6,1.3,5.3,1.2,8.1,0,2.7,0,5.4-.2,8.2,0,0-.1,0-.2,0-.4-2.3-.8-5.7-1.1-8.1-.5-2.7-.6-5.4.2-8.2,0,0,.2,0,.2,0h0Z" fill="#fff"/><path d="M65.3,388.4c.2,2.4-.7,4.5-2,6.5-1.1,2-2.4,3.9-3.8,5.8,0,0-.1,0-.2,0,.9-2.1,1.8-4.3,2.6-6.3.7-2.2,1.5-4.2,3.2-5.9,0,0,.2,0,.2,0h0Z" fill="#fff"/><path d="M76.3,386c3.1-.7,6,.2,8.8,1.5,2.9.7,6,.7,8.9,1.8,1.9.7,3.8,1.5,5.5,2.7,0,0,0,.2,0,.2-3.1-.3-6-.9-8.9-2-1.9-.6-3.7-1.7-5.7-2.1-3-.2-6-.4-8.7-1.9,0,0,0-.2,0-.2h0Z" fill="#fff"/><path d="M73.9,386.3c3.9.4,7.2,2.6,10.1,5.1,2.1,1.5,4.5,2.3,6.7,3.7,3.3,2,6.3,4.3,8.8,7.1,0,0,0,.2-.1.1-3.6-1.6-6.7-3.5-9.7-5.8-2-1.4-3.7-3.4-5.9-4.6-3.5-1.5-6.8-3.1-9.8-5.4,0,0,0-.2,0-.2t0,0Z" fill="#fff"/><path d="M73.9,386.1c2.3,1.4,3.7,3.7,4.7,6.1,1.5,2.1,3.7,3.6,5,5.9.9,1.5,1.6,3,1.9,4.7,0,0-.1.1-.2,0-2-1.7-3.5-3.6-4.7-5.9-.9-1.4-1.3-3.2-2.4-4.5-1.9-1.7-3.7-3.6-4.4-6.3,0,0,0-.2.1-.1h0Z" fill="#fff"/><path d="M74.2,385.6c3.4-.3,6.4,1.4,9.2,3,2.8,1.6,5.6,3.2,8.4,4.9,0,0,0,.1,0,.2-4.5-1.9-9-3.7-13.4-5.6,0,0-4.2-2.3-4.2-2.3,0,0,0-.1,0-.2h0Z" fill="#fff"/><path d="M75,386.7c2.2.6,3.7,2.2,5,4,1.3,1.6,2.6,3.4,3.7,5.1,0,0,0,0-.1.1-1.6-1.4-3.1-2.8-4.7-4.2-1.7-1.3-3.1-2.7-4-4.8,0,0,.1-.1.1-.1h0Z" fill="#fff"/><path d="M74.8,376c2.9-.7,5.7-.3,8.6.2,1.9.1,3.7-.6,5.6-.8,2.8-.5,5.6-.6,8.5-.2,0,0,.1.1,0,.2-1.7.8-3.5,1.3-5.4,1.6-2.9.5-5.8-.2-8.7-.1-2.8.6-5.9.8-8.6-.6,0,0,0-.2,0-.2t0,0Z" fill="#fff"/><path d="M73.6,374.9c3.1-1.8,6.4-2.9,9.7-4,2.1-.9,3.7-2.6,5.6-3.8,2.7-2,5.5-3.6,8.5-4.8,0,0,.2,0,.1.1-2,2.6-4.6,4.5-7.7,6.1-2,1.1-4.3,1.7-6.3,2.9-1.5.9-2.9,2.1-4.6,2.7-.5.2-1.2.4-1.7.5-1.2.3-2.4.5-3.6.4,0,0-.1-.1,0-.2h0Z" fill="#fff"/><path d="M74.3,375.4c2.8-.9,5.9-1.8,8.7-2.2,2.9-.6,5.8-1.3,8.7-1.9,0,0,0,.1,0,.2-2.7,1.2-5.5,2.2-8.3,3.2-2.9,1-6,2-9.2.9,0,0,0-.2,0-.2h0Z" fill="#fff"/><path d="M74.7,374.3c1.1-2,2.5-3.1,4.2-4.2,1.5-1.2,3.1-2.4,4.5-3.6,0,0,0,0,.1.1-1.1,1.6-2.3,3.1-3.7,4.6-1.3,1.6-2.9,3-5,3.2,0,0,0-.2,0-.2h0Z" fill="#fff"/><path d="M69.7,386.6c1.8,1.1,1.5-1.6,2.1-1.7.6-.2,1,0,1.5-.2.5-.3.8-.3.6-1.7-.2-1.4-.7-.5-.6-1.3,0-.8.5-1.2.4-1.9,0-.7,0-.9-.5-1.2-.5-.3-.9-.2-.8-.7,0-.5-.5-.8-.9-1.3-.4-.5-.8-1.3-1.3-1.3-.5,0-.5.6-.9-.3-.4-.9-.4-1.5-1.2-1.2-.9.3-1.1.3-1.3,1-.2.7-.7.7-1.1,1.5-.4.8-1.3.1-1.7.9-.4.8-.7,2.1-.2,2.2.5.2.1.7.3,1.6.1.9-.5,2.3,0,2.3.6,0,.9.2,1.2.8.3.6,0,1.2.4,1.6.5.4,1.7.6,2,.2.3-.4,1.8.8,1.8.8Z" fill="none" stroke="#fff" stroke-miterlimit="10" stroke-width=".8"/><path d="M68.3,376c-1.3-1-1.2,1.1-1.7,1.2-.5,0-.8-.1-1.1,0-.4.2-.6.2-.6,1.3,0,1.1.5.4.4,1.1-.1.6-.4.9-.4,1.5,0,.5-.1.7.3.9.4.2.6.2.6.6,0,.4.3.7.6,1,.3.4.6,1,1,1,.4,0,.4-.4.7.2.3.7.2,1.1.9.9.7-.2.9-.2,1-.7.2-.5.6-.5.9-1.1.3-.6,1,0,1.3-.6.3-.5.6-1.5.2-1.6-.4-.2,0-.5-.2-1.2,0-.6.4-1.7,0-1.7-.4,0-.6-.2-.9-.6-.2-.5,0-.9-.3-1.2-.3-.3-1.2-.5-1.4-.2-.2.3-1.3-.8-1.3-.8Z" fill="none" stroke="#fff" stroke-miterlimit="10" stroke-width=".6"/><path d="M70.2,383.4c1.1.2.5-1.1.8-1.3.3-.2.5-.2.7-.4.2-.3.3-.3,0-1-.3-.7-.4-.1-.5-.6-.1-.4,0-.7-.1-1-.2-.3-.1-.5-.4-.5-.3,0-.5,0-.5-.2,0-.3-.4-.3-.7-.5-.3-.1-.6-.5-.9-.4-.3.1-.1.4-.5,0-.3-.4-.4-.7-.8-.3-.4.3-.5.4-.5.8,0,.4-.2.5-.3,1,0,.5-.6.3-.7.8,0,.5,0,1.2.3,1.2.3,0,.2.3.4.7.2.4.2,1.2.5,1.1.3-.1.5,0,.7.2.3.2.2.6.5.7.3.1.9,0,1-.3,0-.3,1.1,0,1.1,0Z" fill="none" stroke="#fff" stroke-miterlimit="10" stroke-width=".4"/><path d="M26,146.3c2,0,4.3,1.4,6.6,1.4s.1,0,.2,0c.5,0,1,0,1.5,0,11.5,0,24,5,22.7,21.9-3.7,6.9-8.6,9.8-13.8,9.8-7.7,0-15.8-6.4-21.2-15.5-.6-1-2.6-2.5-3.1-3.6-.7-1.5.8-5,.8-5,0,0-1.6-1.9-1-3.1.5-1.1,2.5-1.7,3.7-2.2,1.2-.4,1.4-3.3,2.9-3.6.3,0,.6,0,.8,0M26,143.8c-.5,0-1,0-1.4.2-2,.4-2.8,2.2-3.4,3.3,0,.2-.2.4-.3.6-1.6.6-3.7,1.5-4.6,3.3-.8,1.6-.2,3.4.4,4.6-.5,1.7-1,4-.2,5.8.5,1,1.3,1.8,2.2,2.6.4.4.9.9,1,1.1,6.1,10.3,15,16.8,23.4,16.8s11.1-1.9,16-11.1l.3-.5v-.5c.6-7.3-1.2-13.1-5.1-17.4-4.4-4.7-11.5-7.3-20.1-7.3-.5,0-1,0-1.6,0h-.1c-.8,0-1.7-.3-2.7-.6-1.2-.4-2.5-.8-3.9-.8h0Z" fill="#fff"/><path d="M56.5,169.5c-2.7-4.2-5.9-8.3-10.4-10.6-2.9-1-5.8-1.7-8.6-3,0,0,0-.1,0-.1,1.1,0,2.1,0,3.1.2,2.1.3,3.9,1.4,5.7,2.5,2.8,1.4,5.8,2.7,7.8,5.2,1.3,1.7,2.2,3.7,2.5,5.8h-.1Z" fill="#fff"/><path d="M55.4,173.7c-5.3,2.6-10.8,0-15.5-2.5-3-1.1-6-2.6-8-5.2,0,0,0-.1,0-.1,3,1.3,5.5,3.1,8.1,4.9,2.8,1.4,6,1.9,9,2.4,2,.3,4,.4,6.2.4,0,0,0,.1,0,.1h0Z" fill="#fff"/><path d="M52.2,180.3c-1.5,1.8-3.3,3.6-6.4,4.3-6.4,1.5-11-2-11-2,5.2,2.1,9.3,2.3,15.2-4.1,0,0,2.1-4,6.8-7.1.1-5.4,2.2-9.2,2.2-9.2,2.1-8.4-.4-11.8-4.9-15,0,0,5.5,1.9,7.7,8.1,1.2,3.3.5,6-.3,8.4-.3,3.2,3.2,5.9,4.8,8.8.5,1,.5,2,.3,3,0,0,0,0,0,0-.1.4-.4,1-.7,1.7-.4.6-.8,1.2-1.1,1.5,0,0,0,0,0,0-.7.7-1.6,1.3-2.7,1.3-3.3.1-7.2-1.4-9.8.2Z" fill="none" stroke="#fff" stroke-linecap="round" stroke-linejoin="round" stroke-width="2.5"/><path d="M55.6,169.4c-1.2-1.5-2.3-3-3.5-4.5-2.5-2-5.6-3-8-5.2,0,0,0-.1,0-.1,3.4.5,5.9,2.8,8.2,5.1,1.7,1.1,3.2,2.6,3.3,4.7,0,0-.1,0-.1,0h0Z" fill="#fff"/><path d="M53.2,173.3c-2.1.6-4.2-.2-6.1-1.2-1.9-.7-4-1.1-5.9-2.1-1.2-.7-2.4-1.4-3.4-2.4,0,0,0,0,0,0,3.4.8,6.2,2.9,9.3,4.3,2,.4,3.9.8,5.9,1.5,0,0,0,.1,0,.1h0Z" fill="#fff"/><path d="M54.7,171.9c-1.8.3-3.5-.1-5.1-.8-1.6-.7-3.2-1.4-4.6-2.5,0,0,0,0,0,0,1.5.7,3.2,1.3,4.8,1.7,1.7.3,3.3.7,4.9,1.6,0,0,0,.1,0,.1h0Z" fill="#fff"/><path d="M45.7,164.5c1.8.4,3.6,1.1,5.3,2,1.7.8,3.3,2,4.3,3.7,0,0,0,0,0,0-1.8-.8-3.2-1.9-4.7-3-1.5-1.1-3.2-1.9-4.9-2.6,0,0,0-.1,0-.1h0Z" fill="#fff"/><path d="M48.3,167.6c2.3,1.2,5,1.3,6.9,3.1,0,0,0,.1,0,.1-1.4.2-2.6-.3-3.7-1-1.1-.6-2.2-1.3-3.2-2.1h0Z" fill="#fff"/><path d="M56.8,164c-.9-1.7-1.7-3.3-2.6-5.1-2.1-2.4-5-4-6.9-6.6,0,0,0,0,0,0,3.2,1.1,5.3,3.8,7.1,6.5,1.4,1.4,2.7,3.2,2.4,5.3,0,0-.1,0-.1,0h0Z" fill="#fff"/><path d="M48.6,156c1.6.9,3.1,2.1,4.5,3.5,1.4,1.3,2.6,2.9,3,4.8,0,0,0,0,0,0-1.4-1.3-2.5-2.7-3.5-4.3-1.1-1.5-2.4-2.8-3.8-4,0,0,0,0,0,0h0Z" fill="#fff"/><path d="M51.8,159.9c1.4,2.2,3.7,3.5,4.5,6,0,0,0,0,0,0-1.3-.5-2.1-1.5-2.8-2.7-.7-1.1-1.3-2.2-1.8-3.4h0Z" fill="#fff"/><path d="M50.1,178c-1.7,1.2-3.9.9-5.8.3-3.2-.5-6.6-1-9-3.4,0,0,0,0,0,0,3.2.5,5.9,2.4,9,3.1,1.9,0,3.7,0,5.7,0,0,0,0,.1,0,.1h0Z" fill="#fff"/><path d="M39.2,174.3c3.5,1.5,7.3,1.2,10.9,2.3,0,0,0,.1,0,.1-1.9.6-3.8.4-5.7-.2-1.8-.5-3.6-1.1-5.3-2.1h0Z" fill="#fff"/><path d="M43.4,174.7c1.9-.2,3.9-.3,5.8,0,.6.2,1.2.4,1.8.9h0c-1.3.4-2.5.2-3.8-.2-1.2-.3-2.5-.5-3.7-.6,0,0,0-.1,0-.1h0Z" fill="#fff"/><path d="M64.8,176.8c-.8-1.7-.6-2.9-1.8-4.1-1.7-1.3-3.9-3.1-3.6-5.5,0-.5.2-1,.3-1.6,0,0,.1,0,.1,0,.3.7.4,1.6.6,2.3.8,1.5,1.4,3.4,2.8,4.6.4.3,1,.5,1.4,1,.7,1.1.5,2.2.3,3.4,0,0-.1,0-.1,0h0Z" fill="#fff"/><path d="M58.4,177.7c-.9.5-1.5.4-2.3.1-.7-.2-1.5-.3-2.3-.2h0c.9-.7,2.5-1.1,3.6-.9.4.2.8.4,1,.9h0Z" fill="#fff"/><path d="M21,149.3c1.2-.8,2.6-.3,3.6.6,1,.7,1.9,1.6,2.6,2.5h0c-1.4-.8-3-1.5-4.6-2.1-.5-.2-.9-.5-1.5-.9h0Z" fill="#fff"/><path d="M16.9,155.4c1.5-.4,2.9-.1,4.3.4,1.4.4,2.7.9,4.1,1.4h0c-2.1,0-4.3-.2-6.4-.6-.7-.2-1.3-.5-2-1.1h0Z" fill="#fff"/><path d="M81,275.3s.3,0,.3,0c2.2,3.8.2,8.2,4.9,9.7,2.8,1.2,7,1.9,7.8,5.5.2.9.5,3.3-.4,3.5-2.1-3.8-6.1-4-8.5-7.6-1.2-2.1-3.4-2.6-4.8-4.6-1-2.4-.4-4.5.7-6.5M79.3,272.3l-.9,1.5c-1.8,3.1-2.1,6.2-.8,9.1v.2c.1,0,.3.2.3.2,1,1.4,2.2,2.3,3.1,3,.8.6,1.3,1,1.6,1.5h0c0,0,0,.2,0,.2,1.5,2.2,3.4,3.3,5,4.4,1.5.9,2.6,1.6,3.3,2.9l1.1,2,2.2-.5c1.7-.4,3.5-1.9,2.6-6.9h0c0,0,0-.2,0-.2-1-4.3-5.1-5.8-7.8-6.8-.6-.2-1.2-.4-1.7-.7h-.2c0,0-.2-.1-.2-.1-1.1-.3-1.3-.5-1.6-3-.2-1.5-.5-3.5-1.6-5.4h0c-.4-.7-1.2-1.4-2.7-1.5h-1.8Z" fill="#fff"/><path d="M59.2,232.1s11.7,3.8,16.1,10c0,0,10.3,6.1,7.7,25.9-.7,5.4-1.4,7.4-2.8,7.4s-2.3-1-4.2-2.4c0,0-12.3-9.4-13.1-13-.8-3.6.4-6.4.4-9,0-2.6-2.7-3.8-2.8-7.5s2.2-6.2-1.4-11.4M52.7,227.3l4.3,6.2c2,2.8,1.7,4.3,1.3,6.5-.2,1-.4,2.2-.4,3.5,0,2.7,1.2,4.5,2,5.7.6.9.8,1.3.8,1.7,0,.7-.2,1.5-.3,2.4-.3,1.9-.7,4.4,0,7.2.9,4.1,10.1,11.5,14.1,14.5,2.4,1.8,4,2.9,5.8,2.9,4.2,0,4.8-5.3,5.3-9.6,2.4-19-6.3-26.5-8.5-28.1-5.1-6.6-16.6-10.4-17.1-10.6l-7.2-2.4h0Z" fill="#fff"/><path d="M81.4,272c-3.4-13.7-10-26.9-20.9-36.1,0,0,0-.1,0-.1,10.6,8.3,20.9,22.6,20.8,36.3h0Z" fill="#fff"/><path d="M81.4,274.2c-1.3-2.8-2.1-5.6-3-8.4-2.2-4.4-5.6-8.2-7.7-12.8,0,0,0-.1.1,0,4,3.3,6,8.1,8,12.7,1.6,2.6,2.8,5.5,2.7,8.6,0,0-.1,0-.1,0h0Z" fill="#fff"/><path d="M81.4,274.4c-5.2-9.4-11.3-18.3-19.2-25.7,0,0,0-.1,0-.1,4.2,3.4,8,7.3,11.5,11.5,3.5,4.1,6.5,8.9,7.8,14.3,0,0-.1,0-.1,0h0Z" fill="#fff"/><path d="M80.7,275.2c-1.9-2.6-3.5-5.1-5.4-7.7-3.7-3.7-8.3-6.3-12-10.1,0,0,0-.1,0-.1,5.1,2,8.8,5.9,12.2,9.9,1.5,1.4,3.2,2.9,4.1,4.9.5.9.9,2,1.1,3,0,0,0,.1-.1,0h0Z" fill="#fff"/><path d="M79.6,275c-1.6-1.4-2.7-2.9-3.9-4.6-2.6-2.2-5.6-3.3-8-6.1,0,0,0-.1,0-.1,1.4.3,2.6,1,3.8,1.7,1.8,1.1,3,2.8,4.5,4.2,1.1.8,2.3,1.6,3,2.9.4.6.6,1.3.7,2,0,0,0,.1-.1,0h0Z" fill="#fff"/><path d="M64.1,277.2c.2,0,.4,0,.5,0,2.6.3,7.7,2.1,10,4.1,2.3,1.9,5.8,5.8,5.8,5.8l-6.3,3c-4.4,1.1-7.8,1.6-10.4,1.6-6.6,0-8.3-2.8-10-4.5-2.3-2.3-3.1-5.6-5.6-6.6-2.4-1,12.3-3.5,15.9-3.5M64.1,274.7h0c-2.1,0-6.5.6-9.7,1.2-6.3,1.2-8.5,1.9-8.9,4-.2,1.1.3,2.5,1.8,3.1.7.3,1.3,1.3,2.1,2.5.7,1.1,1.5,2.4,2.7,3.6.2.2.4.4.6.6,1.7,1.8,4.3,4.6,11.1,4.6s6.7-.5,11-1.7h.2c0,0,.2-.2.2-.2l6.3-3,3.1-1.5-2.3-2.5c-.1-.2-3.6-4-6-6.1-2.8-2.4-8.5-4.3-11.3-4.7-.2,0-.5,0-.8,0h0Z" fill="#fff"/><path d="M80.2,287.2c-6.2,2.2-13.6,3.6-19.3-.4-1.2-.7-2.1-1.7-3.2-2.3-1.1-.6-2.3-1-3.6-1.4-1.2-.4-2.5-.8-3.8-1.1,0,0,0-.1,0-.1,1.3.2,2.6.5,3.9.8,1.3.3,2.6.6,3.8,1.2,1.2.7,2.2,1.6,3.3,2.1,5.7,3.4,12.5,1.4,18.8,1.1,0,0,0,.1,0,.1h0Z" fill="#fff"/><path d="M79.7,287.4c-1.7.4-3.5.3-5.2,0-1.7-.4-3.3-1-5-1.1-3.4-.2-7.5-.5-9.5-3.7,0,0,0-.1,0-.1,2.5.9,4.6,1.7,7.1,2.4,1.6.5,3.2,1.2,5,1.2,2.6,0,5.1.2,7.6,1,0,0,0,.1,0,.1h0Z" fill="#fff"/><path d="M81,287.3c-3.5.3-6.8-1-9.9-2.3-3.1-1.3-6.2-2.6-9.3-4.1,0,0,0-.1,0-.1,3.2,1.1,6.4,2.1,9.6,3.1,3.3.9,6.4,2,9.5,3.2,0,0,0,.1,0,.1h0Z" fill="#fff"/><path d="M79.1,287c-.8-.7-1.6-1.2-2.3-2-.3-.4-.6-.9-.9-1.2-.7-.7-1.9-.9-2.8-1.4-1.4-.7-2.6-1.6-3.7-2.9,0,0,0-.1,0-.1,1.1,0,2.1.5,3,1,1.4.7,2.3,2.1,3.6,3.1,1,.5,2,.9,2.6,1.9.3.5.5,1,.5,1.6,0,0-.1,0-.1,0h0Z" fill="#fff"/><path d="M80.5,287.1c-1.5-.1-2.8-.6-4.1-1.2-1.2-.8-2.3-1.7-3.7-2.1-2.8-.7-5.4-2.2-7-4.8,0,0,0-.1,0-.1,3.5,1,5.7,4,9,5.3,2.1.5,4,1.3,5.7,2.8,0,0,0,.1,0,.1h0Z" fill="#fff"/><path d="M79.5,287.5c-1.7,1.9-4.3,2.7-6.8,2.9-2.4.3-4.9.4-7.3.2h0c2.4-.4,4.8-.8,7.1-1.3,2.3-.7,4.5-1.4,6.9-1.9,0,0,0,.1,0,.1h0Z" fill="#fff"/><path d="M145.2,247.8c-1.1,1.1-13.9,8.5-18.5,7.1,1.4-.3-13.2-3.6-21,14.2-2.1,5-2.6,8.6-1.1,9.6,1,.8,3,.3,5.4-.4,1.3-2,11.8-.1,14.2-.9,2.2-2.2,2.8-5.2,4.3-7.2,1.4-1.9,4.5-1.6,7.2-5.8,2.7-4.5,1.9-6.8,9.5-16.6M156,238.2c-2.6,2.9-6,7.4-9.3,11.5-4.4,5.4-5.1,7.3-6.1,10.3-.5,1.3-1,2.8-1.9,4.4-1.8,3.3-4.4,5.2-6.1,6.1-1.2.7-1.6.9-1.8,1.2-.4.7-.7,1.4-1,2.2-.7,1.8-1.5,4.3-3.4,6.5-3.8,2.8-10.9-.6-16.1,2.6-3,1.1-5.4,1.7-7.2-.2-4-5.1-2.1-10.1-1.3-13,4.1-15.3,23.8-19.4,24.1-17.4,5.7.8,18.5-8.1,20.2-9.1,3.2-1.9,6.8-4,9.9-5.1h0Z" fill="#fff"/><path d="M105.4,273.5c14.4-19.8,19.7-3.9,35.6-19.3-15,13.9-23.8-2-35.6,19.3t0,0Z" fill="#fff"/><path d="M104.1,276.3c8.1-10.2,14.3-11.8,19.7-11.4-2.6-1.6-5.9-1.5-9.3.9-3,2.2-9,5.4-10.4,10.5h0Z" fill="#fff"/><path d="M104,276.5c12.8-13.1,17.2-7.2,26.8-7.6-8.9-.8-15.8-7.9-26.8,7.6h0Z" fill="#fff"/><path d="M104.2,278.1c2.3-1.6,4.5-3.3,6.4-4.6,6.3-5.3,9.1.8,14.4,1.4-5.1-4.6-7.8-5.9-14.7-2.7-2,1.1-5.1,3.3-6.1,5.9h0Z" fill="#fff"/><path d="M105.4,278.7c3.2-1.1,5.6-4.4,7.9-4.1,2.3.2,4.1,1,5.9,1.1-2.5-4.2-5.5-2.1-9.9-.9-1.2.6-3.5,2.1-4,3.9t0,0Z" fill="#fff"/></svg>