<?xml version="1.0" encoding="UTF-8"?><svg id="Layer_1" xmlns="http://www.w3.org/2000/svg" width="191.1" height="544.5" viewBox="0 0 191.1 544.5"><path d="M74.5,116.3v11.7c-2.6,5-5.3,9.8-8.5,14.2-2.3,7.4-3.6,17.5-2.2,25,1.4,3.1,2.9,7.9,2.2,11.5-1.6,12-2.2,26.3,6.1,36,8.3,5.2,14.3,13.2,17.7,22.5,1,3.2-.4,8.4-.5,11.9-.7,3.6-.4,8.2-1.8,11.3-1.6-5.3-1.6-11.4-2-17,0-1.5.1-3.3-.5-4.7-3.5-7.4-9.8-14.9-16.1-20.7-7.1-11.6-5.4-26.4-6.3-39.3,0-3.7-1.6-5.8-3.5-9.6-2.9-9.6-2.3-18.7.2-28.1.1-.6.3-1.2.5-1.8.3-.5.6-1,.9-1.4,4.4-7.5,9.5-13.9,13.8-21.4M77.9,103.9l-6.2,10.7c-2.1,3.6-4.4,7-6.8,10.5-2.3,3.4-4.7,6.9-6.9,10.7-.4.5-.7,1.1-1.1,1.7v.2c-.1,0-.2.2-.2.2-.2.7-.4,1.4-.5,2-2.9,10.8-3,20.3-.2,29.8v.3c0,0,.2.3.2.3.3.7.7,1.3,1,1.9,1.4,2.6,2.1,4,2.2,6.3h0c0,0,0,.2,0,.2.2,2.8.2,5.7.3,8.8.2,10.9.5,22.2,6.4,32l.2.4.3.3c6.8,6.2,12.4,13.4,15.3,19.7.2.5.2,1.6.2,2.6,0,.2,0,.5,0,.7h0c0,.1,0,.2,0,.2,0,1.1.1,2.3.2,3.5.3,4.8.5,9.7,1.9,14.2l2.5,8.3,3.6-7.9c1.1-2.5,1.4-5.3,1.6-8.1.1-1.4.2-2.8.5-4v-.3s0-.3,0-.3c0-1,.2-2.2.4-3.5.4-3.1.9-6.6,0-9.5h0s0,0,0,0c-3.6-10.2-10-18.4-18.6-23.9-7.1-8.6-6.5-21.5-5-33,.9-4.9-1.4-10.8-2.3-13-1.2-6.9,0-16.2,2-22.5,2.7-3.9,5.4-8.4,8.3-14.2l.3-.7v-.7s.1-11.7.1-11.7v-12.4h.1Z" fill="#fff"/><path d="M125.5,176.3c.2,0,.3.3,0,.4-3.7,2-7.7,3.8-10.3,6.9-2.3,3.1-2.2,7.8-3.7,11.5-2,12.3-15,16.9-17.5,28.5,1.1,10.1,1.5,20.5,1.5,30.7-.4,3.6-3.5,5.9-4.2,8.8-1.8,7.2,2.5,14.9,5,22.6,1.6,3.8.9,8.2,2.5,11.9,3,7.7,8.8,13.8,11,21.9,1.2,12.3.3,24.7,1.2,37,.2,10.1,6.5,19,9.4,28.7.3,1.1.6,2.1.4,3.7-.4,2.2-2,3-3,3.7-4.6,1.9-4.4,4-4.3,8.1.5,16.2,9.3,33.7,1.4,49.7-3.7,7-8.3,10.2-11.6,14.6-3.2,11.8-7.9,23.6-9.7,35.6-1.3,6.8-8.5,10.4-12.2,15.1-5,6.5-11.8,25-11.9,25s0,0,0,0c0-3.5,5.2-19.2,10.1-26.2,3.6-5.2,9.7-8.2,10.8-14.3,1.4-12.5,5.8-24.4,8.8-36.6.7-2.3,3-3.9,4.5-5.5,2.6-2.8,5.3-6.3,7.1-9.6,6.8-14.6-1.6-31.8-1.6-47.3-.2-3.2.2-8.1,3.7-10.3,1.4-.9,3.6-1.5,4.1-2.3.1-2.5-1.2-5.4-2.1-8-10-18.9-5.1-40.2-6.6-60.8-2-7.7-8.3-13.9-11.3-21.4-.9-1.8-1.5-4.2-1.6-6.2-.9-6-4.3-11.1-6.3-16.9-2.5-5.5-2.9-13.9,1.6-19,1.1-1.8.7-3.3.8-5-.2-8.5-.4-19.4-1.1-27.8,1.3-7.6,7.5-13.8,13.3-18.6,3.8-3.8,5.7-11,7.5-16.3.6-1.8,1.1-4.2,2.8-5.9,3.2-3.3,7.3-4.7,11.2-6.4,0,0,0,0,0,0M125.5,173.4c-.4,0-.9,0-1.2.3-.5.2-.9.4-1.4.6-3.5,1.5-7.6,3.1-10.8,6.4-1.9,1.9-2.7,4.3-3.2,6.1,0,.3-.2.6-.3.9-.3.8-.6,1.7-.9,2.6-1.5,4.5-3.1,9.7-5.8,12.5-5.8,4.9-12.7,11.5-14.2,20.3v.4c0,0,0,.4,0,.4.6,7.1.8,16.1,1,23.9,0,1.2,0,2.5,0,3.6,0,.4,0,.9,0,1.2,0,1.1,0,1.5-.2,2-2.4,2.8-3.8,6.6-4,11-.2,3.7.6,7.6,2.1,10.9.8,2.2,1.7,4.2,2.6,6.2,1.5,3.4,3,6.5,3.5,9.9.1,2.2.8,4.9,1.8,7.1,1.4,3.5,3.5,6.7,5.4,9.8,2.4,3.7,4.6,7.2,5.7,11,.4,6,.3,12.2.2,18.2-.3,14.5-.6,29.5,6.6,43.3.2.5.3,1,.5,1.5.5,1.3,1,2.7,1.2,3.9-.1,0-.2.1-.3.1-.7.3-1.6.7-2.3,1.2-3.6,2.2-5.4,6.9-5,12.8,0,5.8,1.1,11.8,2.1,17.5,1.9,10.2,3.7,19.9-.3,28.4-1.6,2.9-4.1,6.2-6.6,8.9-.3.3-.7.7-1.1,1.1-1.5,1.4-3.3,3.1-4.1,5.5h0c0,0,0,.2,0,.2-1,3.9-2.1,7.9-3.2,11.8-2.3,8.1-4.7,16.5-5.7,25.1-.6,2.9-2.8,5-5.4,7.5-1.7,1.7-3.5,3.4-5,5.5-5,7.2-10.6,23.5-10.6,27.9v2.9h2.9c2,0,2.6-1.4,3.3-3.2,4.6-11.8,8.3-19.5,10.9-22.8,1.1-1.4,2.6-2.7,4.2-4.2,3.5-3.1,7.5-6.7,8.6-12.2h0c0,0,0-.1,0-.1,1.2-7.7,3.7-15.6,6.1-23.3,1.2-3.7,2.4-7.6,3.4-11.4,1-1.3,2.1-2.5,3.3-3.8,2.6-2.8,5.6-5.9,8.2-10.8h0s0,0,0,0c5.8-11.6,3.4-23.5,1.2-35.1-1.1-5.6-2.1-10.8-2.2-15.9v-.2c-.2-3.8-.2-4,2.4-5.1h.2c0,0,.2-.2.2-.2h.2c1.1-.8,3.5-2.3,4.2-5.6h0c0-.1,0-.2,0-.2.2-2-.1-3.3-.4-4.4v-.3c0,0,0,0,0,0h0c-1.1-3.8-2.7-7.3-4.2-10.7-2.6-5.9-5-11.4-5.1-17.3h0c0,0,0-.2,0-.2-.4-5.6-.4-11.4-.5-17.1,0-6.5,0-13.3-.7-20v-.3s0-.2,0-.2c-1.4-5-3.9-9.1-6.3-13.2-1.8-3-3.6-5.9-4.8-9h0s0,0,0,0c-.6-1.5-.8-3.3-1-5.2-.2-2.2-.5-4.4-1.4-6.6-.6-1.9-1.3-3.7-2-5.5-2.1-5.6-4.1-10.8-3-15.4.2-.8.8-1.7,1.5-2.7,1.1-1.7,2.5-3.8,2.8-6.5h0c0-.1,0-.3,0-.3,0-10.8-.5-21-1.4-30.6,1.1-4.6,4.3-8.1,7.7-11.8,3.9-4.3,8.4-9.1,9.6-16.1.6-1.6.9-3.2,1.3-4.8.5-2.2.9-4.3,1.9-5.7,1.8-2.1,4.7-3.7,7.7-5.2.5-.3,1-.5,1.6-.8,1.3-.7,1.9-2.1,1.6-3.5-.3-1.4-1.6-2.5-3.1-2.5h0Z" fill="#fff"/><path d="M72,94.5c.4-1,.8-1.7,1.2-2.2,0,0,.2,0,.2.1.7.2,1.3,0,1.9-.2.7.7,1.6,1.1,2.6,1,.3.4.6.9.9,1.3-8.5,27.1-6.9,59.3,17,60.5,4.8.3,10.5,10.2,16.4,8.3,12.8-4.2,10.8-17.9,11.6-27,1.8-19.8-15.4-35.9-37.4-44.3-1.1-1.4-1.6-2.5-1.6-3.3.7-.5,1.2-1.3,1.4-2.2,1.1-.5,2.4-.6,3.3-.6,5.3,2.8,10.7,7.4,23.1,11.6,8.7,2.9,16.3,12.7,25.5,13,10.7.3,26.1-8.6,25.5-21.6-.2-3.3-4.7-8-5.2-10.9-2-10.7-2.3-16.7-8.9-20.6-6.7-4-15.7-4.3-26.5-.2-9.6,3.6-20.6,10.7-32.7,21.6-1.1.3-2.1.4-3,.4-.7-.8-1.7-1.3-2.9-1.1,0,0,0,0-.1,0,0-.1,0-.2,0-.4-.2-1.3-1.2-2.3-2.4-2.6-.1-.9,0-1.6,0-2,16.1-9.3,56.5-29.3,41.7-52-1.8-2.8-.4-11-6.6-15.4-8.4-3.9-15.2,1.9-19.4,1.7-15.2-.9-24.4,22-22,64.1-.2,1-.6,1.8-1,2.3-.1,0-.2.2-.4.3-1,.8-2.3.5-3.5-.2-1.9-8.4-5.4-20.5-11.3-30.1-6-9.8-17.6-21.3-29.3-18.8-5.3,1.1-8.9,14.3-15.7,21.3-9.6,7.6-7.3,13.8-4.6,22.7,4.9,16.4,23.7,26.5,55.8,17,1.5,0,2.5.2,3.1.5.2.3.4.6.7.9.1.9-.8,1.9-1.7,2.7-17.1,6.6-66,2.9-51.5,50.2,2.1,6.7,2.7-1.6,13.9,24.4,10.7,6.6,32.2-10,41.9-70.3Z" fill="none" stroke="#fff" stroke-miterlimit="10" stroke-width="4.9"/><path d="M70.7,74c-4-.4-1.4,3.8-2.4,4.6s-1.9.7-2.5,1.7-1.1,1.2.3,3.5c1.4,2.2,1.6.2,2.2,1.7s.1,2.5.8,3.5.6,1.6,1.8,1.6,1.7-.4,1.9.5,1.5,1,2.6,1.3c1.1.4,2.5,1.4,3.4,1s.4-1.4,1.7-.3,1.8,2,3.1.8c1.3-1.3,1.7-1.5,1.4-2.7s.7-1.7.8-3.4c0-1.7,2.1-1.3,2.2-2.9s-.5-3.9-1.4-3.8-.8-1-1.7-2.2c-.9-1.3-1.1-4.1-2.1-3.6s-1.7.4-2.7-.3-.9-2-2.1-2.3-3.3.5-3.5,1.4c-.2.9-3.9.2-3.9.2Z" fill="none" stroke="#fff" stroke-miterlimit="10" stroke-width="1.6"/><path d="M68.1,75c-2.1-2-3.7-4.2-5-6.7-.6-1.3-1-2.6-1.8-3.8-1.4-2.4-3.8-4.1-5.6-6.2-2.9-3.1-5.4-6.3-7.4-10.2,0-.1,0-.3.2-.2,2.6,1.4,4.7,3.4,6.6,5.4,3.1,3.3,4.4,7.2,7,10.6,1.9,2.1,4,4.1,5.1,6.8.6,1.3,1,2.7,1.3,4.1,0,.1-.1.2-.2.1h0Z" fill="#fff"/><path d="M65.7,80.3c-2.9-2-5.6-4.1-8.2-6.5-1.3-1.2-2.4-2.6-3.8-3.7-2.7-2.2-6.2-3.3-9.2-5-4.7-2.4-9.2-5-13.4-8.3-.1,0,0-.3.1-.2,5.3,1.1,10.1,3.4,14.5,6.5,3,1.9,5.5,4.5,8.5,6.4,2.3,1.4,4.8,2.4,6.8,4.3.6.5,1.4,1.3,1.9,1.9,1.2,1.3,2.3,2.8,3.1,4.4,0,.1,0,.3-.2.2h0Z" fill="#fff"/><path d="M66.1,83.8c-2.5,0-4.8-.4-7-1.3-1.1-.5-2.1-1.3-3.2-1.6-2.2-.9-4.7-.6-7.1-1-3.6-.5-6.9-1.4-10.2-3-.1,0,0-.2,0-.3,2.5-.6,4.9-.4,7.3,0,3.7.5,6.7,2.6,10.2,3.5,2.4.3,4.8.3,7,1.5,1.1.5,2.1,1.1,3.1,2,0,0,0,.2,0,.2h0Z" fill="#fff"/><path d="M66.8,78c-3.7-2.7-7-5.4-10.2-8.7-3.3-3-6.8-5.9-10.2-8.8,0,0,.1-.2.1-.2,3.9,2.3,7.7,4.8,11.4,7.4,1.8,1.3,3.8,2.6,5.4,4.3,1.6,1.7,3.1,3.6,3.8,5.9,0,0-.2.1-.2.1h0Z" fill="#fff"/><path d="M69.3,76.9c-3.4-1.8-5.7-4.5-7.8-7.6-2.3-2.9-4.5-5.7-6.6-8.7,0,0,.2-.2.2-.2,2.7,2.4,5.4,4.9,8,7.5,2.8,2.5,5.3,5.2,6.5,8.8,0,0-.2.2-.2.2h0Z" fill="#fff"/><path d="M69.1,72.8c-2.5-3-3.9-6.4-5.3-9.9-1.6-3.4-3.4-6.7-5.6-9.7,0,0,.2-.2.2-.2,2.8,2.6,5.2,5.7,7.2,8.9,2.3,3.2,3.9,6.8,3.8,10.8,0,0-.2,0-.2,0h0Z" fill="#fff"/><path d="M64.2,81c-3.2-.2-5.7-1.3-8.3-2.8,0,0-4-1.9-4-1.9-1.3-.6-2.7-1.2-4-1.8v-.3c1.5.2,3,.5,4.4.9,4.3,1.2,9.2,1.8,12,5.7,0,0-.1.2-.1.2h0Z" fill="#fff"/><path d="M65.3,84.6c-4,2.5-8.6.9-12.9.2-1.4-.3-2.8-.6-4.2-1v-.3s4.3,0,4.3,0h4.3c1.4,0,2.8-.4,4.2-.2,1.4.2,2.8.4,4.2,1v.3h0Z" fill="#fff"/><path d="M8.6,59.2c1.9,1.1,3.6,2.6,5,4.4.6.9,1.1,2,1.9,2.8,1.5,1.7,3.7,2.4,5.5,3.7,2.8,1.7,5.2,3.8,7.8,5.9,0,0,0,.3,0,.3-1.3.1-2.4-.2-3.5-.6-2.2-.8-4.1-2-5.7-3.7-1.7-1.5-2.8-3.6-4.5-5-1.9-1.3-3.9-2.4-5.1-4.4-.6-1-1.1-2-1.4-3.2,0,0,.2-.2.2-.2h0Z" fill="#fff"/><path d="M21.2,36c2.6-.6,5,0,7.2,1.1,1.5.6,2.6,2.1,4.2,2.5.8.2,1.7.2,2.5.3,1.2.3,2.3,1.1,3.1,2,.3.4.6.7.7,1.3,0,0,0,0,0,0-1.6-.2-3.2-.5-4.5-1.4-.6-.5-1.2-1.2-1.9-1.5-.7-.4-1.5-.5-2.3-.6-1.6,0-3.1-.4-4.6-1-1.4-.6-2.8-1.4-4.1-2.6,0,0,0-.2,0-.3h0Z" fill="#fff"/><path d="M8.9,51c3.6,2,6.5,4.2,9.6,6.7,3.2,2.3,6.5,4.5,9.9,6.5,0,0,0,.1,0,.2-3.8-1-7.5-3-11-4.9-1.7-1-3.6-1.9-5.1-3.3-1.5-1.4-2.8-3-3.6-5,0-.1,0-.2.2-.2h0Z" fill="#fff"/><path d="M18.7,38.5c4.1.5,7.6,2.1,11.1,4.2,3.1,1.6,6.2,3.2,9.1,5.2.4.4.9.6,1.1,1.2,0,.2-.2.2-.3,0,0-.1-.3-.3-.5-.4-2.7-1.4-7.4-2.9-10.3-4.1-3.8-1.2-7.5-2.8-10.4-5.8,0,0,0-.3.1-.2h0Z" fill="#fff"/><path d="M11.4,50c1.5,0,2.8.3,3.9,1.2.5.5.9,1.2,1.4,1.5,1.1.8,2.7.6,3.9,1,2.1.5,3.6,1.5,5.1,3.2,0,0,0,.2,0,.2-2.1.6-4.4,0-6.1-1.2-1.2-.6-2-2.1-3.3-2.5-.6-.2-1.4-.2-2.1-.4-.7-.2-1.2-.6-1.7-1.1-.5-.5-1-1-1.3-1.8,0,0,0-.2.1-.2h0Z" fill="#fff"/><path d="M18.2,43.1c1.5-.3,2.9,0,4.1.7.5.4,1,1.1,1.6,1.4,1.1.7,2.8.4,4,.9,1.7.4,3.2,1.4,4.3,2.8.2.3.5.6.6,1.1,0,.1-.1.1-.2.1-2-.1-4-.6-5.7-1.8-1.2-.6-2-2-3.3-2.4-.6-.2-1.4,0-2.1-.2-.7-.1-1.2-.5-1.8-.9-.5-.4-1.1-.9-1.5-1.6,0,0,0-.2.1-.2h0Z" fill="#fff"/><path d="M25.4,29.9c2.1-.5,4.2-.3,6.2.4,1.9.8,3.5,2.2,5.6,2.5,1.5.4,3.3.5,4.4,1.7,0,0-.4-.4-.4-.4,3.2,1.5,5.9,4.2,6.9,7.6,0,0-.2.1-.2.1-3-2-5.7-3.8-8.3-6.1-.4-.4-1.9-1.5-2.7-2-2.3-1.6-5.3-.8-7.7-1.8-1.3-.4-2.5-.9-3.7-1.8v-.3h0Z" fill="#fff"/><path d="M8.9,55.5c2.6,1,4.4,2.3,6.3,4.2,0,0,5.9,4.9,5.9,4.9v.2c-2.5-1-4.8-2.1-7.1-3.4-2.4-1.1-4.8-2.9-5.3-5.7,0,0,.2-.2.2-.2h0Z" fill="#fff"/><path d="M26.4,28c3.8-2,7.8.6,11.3,2,1.2.6,2.3,1.1,3.5,1.7v.2c0,0-7.6-1.4-7.6-1.4-2.6-.2-4.8-.8-7.2-2.2,0,0,0-.3,0-.3h0Z" fill="#fff"/><path d="M22.9,33.9c1.8-1.6,4.5-1.2,6.5-.1,1.5.6,3,1.3,4.3,2.2.5.4,1.1.6,1.2,1.3,0,0-.3,0-.3,0-1.7-.9-3.9-1.1-5.8-1.5-1-.2-2.1,0-3-.4-1-.3-1.8-.7-2.9-1.2v-.3h0Z" fill="#fff"/><path d="M9.1,63.8c2,1.1,3.2,2.8,4.1,4.8,1.1,1.8,2.2,3.6,3.5,5.2,0,0-.2.2-.2.2-1.9-1.1-3.6-2.5-5-4.1-1.7-1.5-2.9-3.5-2.6-6,0,0,.2-.1.2-.1h0Z" fill="#fff"/><path d="M15.5,45.3c2.3.2,4,1.4,5.6,3,1.7,1.3,3.4,2.5,5.2,3.5,0,0,0,.2,0,.2-2.2-.3-4.2-1-6.2-2-2.2-.8-4-2.1-4.7-4.6,0,0,.2-.2.2-.2h0Z" fill="#fff"/><path d="M12.6,47.9c1.9-.8,3.4,0,4.8,1.2,1.3,1,2.6,2,3.7,3.2,0,0-.1.2-.1.2l-2.3-.8-2.3-.8c-.7-.3-1.6-.3-2.2-.8-.6-.5-1.2-1-1.7-2,0,0,0-.2,0-.2h0Z" fill="#fff"/><path d="M160.7,96.1c-1.3,1.9-3.2,3.4-5.3,4.2-1.1.4-2.3.5-3.3.9-2.1.7-3.8,2.4-5.9,3.3-2.1,1-4.3,1.6-6.6,1.6-1.2,0-2.4,0-3.5-.6v-.3c3.2-1.2,6.1-2.4,9.3-3.1,2.1-.7,4.5-.6,6.4-1.7,1-.5,1.8-1.4,2.7-2,1.4-.9,2.9-1.6,4.5-2.1.5-.2,1.1-.3,1.7-.4v.2h.1Z" fill="#fff"/><path d="M156.2,70.1c-2.4,1-4.6,1.3-7.1.9-1.6,0-3.2-.9-4.7-.6-.8.1-1.5.6-2.3.8-1.5.4-3.1.2-4.6-.1h-.2s0,0,0-.1c.2-.5.6-.8,1.1-1,1.1-.6,2.3-1,3.6-.9.8,0,1.6.5,2.4.5.8,0,1.6-.1,2.4-.4,1.5-.6,3.2-.8,4.8-.8,1.6.1,3.2.5,4.7,1.4,0,0,0,.2,0,.3h0Z" fill="#fff"/><path d="M163.1,88.2c-2.7,3.2-6.9,4.5-10.9,5-3.9.7-7.9,1.1-11.9,1.2,0,0-.1,0-.1-.1,3.7-1.1,7.8-1.8,11.5-3.1,3.7-1.4,7.2-2.6,11.2-3.2.1,0,.2.1.1.2h0Z" fill="#fff"/><path d="M157.8,73.3c-3.7,2-7.7,2.2-11.7,2.2-3.1.2-8,0-11,.5-.2,0-.5.1-.6.2,0,.1-.3.1-.2,0,.4-.5.9-.6,1.4-.8,3.3-.9,6.8-1.4,10.2-2,4-.8,7.8-1.2,11.8-.3.1,0,.2.2,0,.3h0Z" fill="#fff"/><path d="M161,86.5c-1.1,1.1-2.3,1.7-3.8,1.7-1.4-.3-2.7-.6-4.1.2-2.5,1.3-5.6,1.6-8.1,0,0,0,0-.1,0-.2,1.3-.9,2.6-1.2,3.9-1.4,1.3-.1,2.7,0,4,.3.7.2,1.4.2,2,0,.6-.2,1.2-.7,1.9-1,.6-.3,1.3-.3,2-.3.7,0,1.4.1,2.1.5,0,0,.1.2,0,.3h0Z" fill="#fff"/><path d="M156.8,77.7c-1.2.9-2.5,1.4-3.9,1.3-.7-.1-1.4-.5-2.1-.5-.7,0-1.3.2-2,.5-1.2.6-2.5.9-3.9,1.1-1.3,0-2.8-.2-4.1-.6,0,0,0,0,0-.1,1.4-1.8,3.8-2.3,5.9-2.1,1.3,0,2.8.8,4.1.4.7-.1,1.3-.6,1.9-.8.7-.2,1.3-.2,2-.1.7.1,1.4.3,2.1.7,0,0,.1.2,0,.3h0Z" fill="#fff"/><path d="M154.2,63c-2.1.5-4,.6-6.1.4-1.9-.4-4-1.2-5.9-.7-1.1.3-2.3.7-3.3,1.1-2.7,1.1-6.5,2.2-9.8,3,0,0-.2-.2-.2-.2,2-3,5.5-4.7,9-5,0,0-.5.3-.5.3,1.4-.9,3.2-.3,4.7-.2,2.7.5,5.4-1.1,8.2-.4,1.3.3,2.7.7,3.9,1.5,0,0,0,.3,0,.3h0Z" fill="#fff"/><path d="M161.7,92.5c-2.1,3.8-6.9,3.6-10.7,4.3-1.3.1-2.6.3-3.8.4,0,0,0-.3,0-.3l7.1-2.8c2.4-1.2,4.5-1.8,7.3-1.9,0,0,.1.2.1.2h0Z" fill="#fff"/><path d="M153.8,60.8c-2.7.6-4.9.4-7.5-.2,0,0-7.5-1.1-7.5-1.1v-.3c2.5-.4,5.1-.7,7.7-.7,2.6-.3,5.6,0,7.5,2.1,0,0,0,.2,0,.2h0Z" fill="#fff"/><path d="M155.1,67.5c-2.3.4-4,.3-6.1-.4-1.9-.2-4-.8-6-.5,0,0-.3,0-.3,0,0-.2.2-.3.4-.4.9-.5,1.8-.6,2.8-.8,1.1-.2,2.1-.3,3.2-.3,1.1,0,2.2-.3,3.3.1,1.1.4,2.2,1,2.8,2.1,0,0-.1.2-.1.2h0Z" fill="#fff"/><path d="M158.7,80.8c-2.1,3.1-5.9,2.9-9.2,3-1.1,0-2.2,0-3.3-.3v-.3c2.1-.4,4.1-1,6.1-1.6,2-.9,4-1.5,6.2-1,0,0,.1.2.1.2h0Z" fill="#fff"/><path d="M160.5,84.2c-1.5,1.3-2.8,1.6-4.6,1.4,0,0-2.4,0-2.4,0h-2.4s0-.3,0-.3c.7-.4,1.5-.7,2.3-1,.8-.3,1.5-.6,2.3-.8.8-.2,1.6-.7,2.4-.6.8,0,1.7.3,2.5,1,0,0,0,.3,0,.3h0Z" fill="#fff"/><path d="M123.8,143.6c-1.4-1.8-2.4-3.8-3-5.9-.2-1.1-.3-2.2-.7-3.3-.7-2.1-2.6-3.7-3.7-5.5-2-2.6-3.4-5.5-5-8.4,0,0,.1-.2.1-.2,1.2.3,2.2,1.1,3,1.9,1.7,1.5,3,3.4,3.9,5.6,1,2,1.2,4.4,2.3,6.4,1.2,1.9,2.8,3.7,3,6,.2,1.1.3,2.3.1,3.5,0,0-.3,0-.3,0h0Z" fill="#fff"/><path d="M107.3,161.8c-2.3-1.2-3.9-3.1-4.8-5.4-.7-1.4-.7-3.2-1.6-4.6-.4-.7-1.2-1.2-1.7-1.8-.7-1-1.1-2.2-1.1-3.5,0-.5,0-1,.3-1.4,0,0,0,0,.1,0,1.1,1.2,2.2,2.4,2.6,4,.2.8.2,1.7.5,2.4.3.7.8,1.4,1.4,1.9,1.2,1.1,2.1,2.3,3,3.7.7,1.4,1.3,2.8,1.6,4.6,0,.1-.1.2-.2.2h0Z" fill="#fff"/><path d="M121.2,151.6c-1.5-3.8-2.4-7.4-3.1-11.3-1-3.8-2.2-7.6-3.5-11.3,0,0,0-.1,0-.2,2.2,3.1,3.9,7.2,5.4,10.8.7,1.9,1.6,3.7,1.8,5.8.2,2,.3,4.1-.4,6.1,0,.1-.2.1-.3,0h0Z" fill="#fff"/><path d="M111.3,163.3c-2.8-3-4.5-6.5-5.9-10.2-1.4-3.2-2.8-6.4-3.7-9.7,0-.6-.3-1,0-1.6.1-.2.3,0,.2.2,0,.1,0,.4.1.6,1.2,2.8,3.8,6.9,5.3,9.7,2.2,3.4,4.1,6.9,4.3,11.1,0,.1-.2.2-.2.1h0Z" fill="#fff"/><path d="M121.6,156.5c-1.2-.9-2-2-2.3-3.4,0-.7,0-1.5-.1-2.1-.3-1.3-1.7-2.1-2.4-3.3-1.3-1.7-1.8-3.5-1.9-5.7,0,0,0-.2.2-.2,2,.9,3.4,2.8,3.9,4.8.5,1.2.2,2.9.9,4,.3.6,1,1,1.4,1.6.4.6.5,1.2.7,1.9,0,.7,0,1.4-.1,2.2,0,.1-.2.2-.2,0h0Z" fill="#fff"/><path d="M114.2,162.4c-1.3-.7-2.2-1.8-2.7-3.2-.2-.7,0-1.5-.3-2.1-.4-1.3-1.8-2.1-2.5-3.3-1-1.4-1.6-3.1-1.5-4.9,0-.4,0-.8.3-1.2,0,0,0,0,.1,0,0,0,0,0,0,0,0,0,0,0,0,0,1.5,1.4,2.7,3,3.2,5,.5,1.2.2,2.8,1,3.9.4.6,1,1,1.5,1.5.4.5.7,1.2.8,1.8.2.7.3,1.4.1,2.2,0,.1-.1.2-.2.1h0Z" fill="#fff"/><path d="M94.5,155c-1.9-1-3.4-2.4-4.6-4.2-.9-1.8-1.3-4-2.7-5.5-.9-1.2-2.3-2.5-2.3-4.1,0,0,0,.6,0,.6-1.6-3.2-1.9-7-.5-10.3,0,0,.3,0,.3,0,1,3.4,2,6.5,2.6,10,.3,1.9,1,5.1,3,6.6,2.1,1.8,3.4,4.1,4.3,6.8,0,0-.2.2-.2.2h0Z" fill="#fff"/><path d="M92.5,155.8c-4.2-.8-5.6-5.4-7.5-8.7-.5-1.2-1.1-2.3-1.6-3.5,0,0,.2-.1.2-.1l4.9,5.9c1.9,1.8,3.2,3.7,4.1,6.3,0,0-.2.2-.2.2h0Z" fill="#fff"/><path d="M99.6,155.5c-2.5,0-4.2-1.9-5.1-4-.8-1.4-1.5-2.9-1.9-4.5-.1-.6-.4-1.2,0-1.7,0,0,.2.2.2.2.7,1.8,2.3,3.3,3.5,4.8.7.8,1.6,1.3,2.1,2.2.5.8,1,1.7,1.5,2.8v.2h-.1Z" fill="#fff"/><path d="M116.8,161.5c-2.4-2.7-3.5-5.7-4.5-9-1.2-3.1-2.5-6.3-3.9-9.3,0,0,.2-.1.2-.1,2.1,2.7,4,5.6,5.6,8.6,1.9,3,3.2,6.2,2.9,9.8,0,0-.2,0-.2,0h0Z" fill="#fff"/><path d="M119.4,157.8c-2-.6-2.7-2.1-3-4-.4-1.6-.7-3.2-.8-4.9,0,0,.2,0,.2,0l1.3,2.1,1.2,2.1c.4.7,1,1.3,1.2,2,.2.8.3,1.6,0,2.6h-.2Z" fill="#fff"/><path d="M95.8,8.8c-.8,2.1-2,4-3.5,5.6-.8.8-1.8,1.4-2.5,2.3-1.4,1.7-1.8,4.1-2.8,6-1.2,3-2.9,5.7-4.6,8.6,0,0-.3,0-.3,0-.3-1.2-.2-2.4,0-3.6.4-2.3,1.4-4.4,2.7-6.3,1.2-1.9,3.1-3.3,4.2-5.3.9-2,1.7-4.3,3.6-5.7.9-.8,1.8-1.5,2.9-1.9l.2.2h0Z" fill="#fff"/><path d="M119.9,13.3c.2,2.6-.6,4.9-2.1,6.9-.8,1.4-2.4,2.3-3,3.8-.3.7-.4,1.6-.7,2.4-.5,1.1-1.4,2.1-2.4,2.8-.4.3-.8.5-1.4.5,0,0,0,0,0-.1.4-1.5.9-3.1,2-4.3.6-.6,1.3-1,1.8-1.7.5-.6.7-1.4.9-2.2.3-1.6.9-3,1.6-4.5.8-1.3,1.7-2.6,3.1-3.7,0,0,.2,0,.2,0h0Z" fill="#fff"/><path d="M104,6.8c-2.4,3.3-5,5.9-8,8.6-2.7,2.8-5.3,5.8-7.8,8.9,0,0-.1,0-.2,0,1.5-3.6,4-7,6.4-10.2,1.2-1.6,2.3-3.3,4-4.6,1.6-1.3,3.4-2.4,5.5-2.9.1,0,.2.1.1.2h0Z" fill="#fff"/><path d="M119.2,9.2c-1.1,4-3.2,7.2-5.7,10.4-2,2.8-4,5.7-6.4,8.2-.4.4-.7.8-1.3.9-.2,0-.2-.2,0-.3.1,0,.3-.2.4-.4,1.8-2.5,3.9-6.9,5.5-9.6,1.8-3.6,3.8-7.1,7.2-9.4,0,0,.3,0,.2.2h0Z" fill="#fff"/><path d="M108,3.9c-.1,1.5-.7,2.7-1.7,3.7-.5.4-1.3.7-1.7,1.2-1,1-.9,2.6-1.6,3.7-.8,2-2,3.4-3.9,4.6,0,0-.2,0-.2,0-.3-2.2.6-4.3,2.1-5.9.8-1.1,2.3-1.7,2.9-2.9.3-.6.4-1.4.7-2,.3-.6.8-1.1,1.3-1.6.5-.4,1.1-.8,1.9-1,.1,0,.2,0,.2.2h0Z" fill="#fff"/><path d="M116.8,7.1c0,1.5-.3,2.8-1.3,3.9-.5.5-1.2.8-1.6,1.3-.9,1-.8,2.7-1.5,3.8-.7,1.6-1.8,3-3.4,3.9-.4.2-.7.4-1.2.4-.1,0,0-.2,0-.3.4-2,1.1-3.9,2.6-5.4.8-1.1,2.3-1.7,2.8-2.9.3-.6.3-1.4.5-2.1.2-.7.7-1.2,1.1-1.7.5-.5,1-.9,1.8-1.2,0,0,.2,0,.2.1h0Z" fill="#fff"/><path d="M124,23.1c.2,2.2-.3,4.2-1.2,6.1-1.1,1.8-2.7,3.2-3.3,5.2-.6,1.4-.9,3.2-2.3,4.1,0,0,.5-.4.5-.4-1.9,3-5,5.3-8.5,5.8,0,0-.1-.2-.1-.2,2.4-2.7,4.6-5.1,7.2-7.4.4-.3,1.8-1.6,2.4-2.4,1.9-2,1.5-5.1,2.9-7.4.6-1.2,1.3-2.3,2.3-3.4h.2Z" fill="#fff"/><path d="M125.1,28.6c1.5,4-1.7,7.6-3.5,10.9-.7,1.1-1.4,2.1-2.2,3.2,0,0-.2-.1-.2-.1l2.5-7.2c.6-2.6,1.5-4.7,3.2-6.8,0,0,.3,0,.3,0h0Z" fill="#fff"/><path d="M121.2,18.2c1.4,2.1.5,4.6-.8,6.4-.8,1.4-1.7,2.8-2.8,4-.4.4-.8,1-1.4,1,0,0,0-.3,0-.3,1.2-1.6,1.6-3.7,2.3-5.5.3-1,.3-2,.8-2.9.4-.9.9-1.7,1.6-2.7h.3Z" fill="#fff"/><path d="M114.8,5.4c-1.1,3.4-3.1,6-5.4,8.6-2,2.7-4,5.4-5.9,8.2,0,0-.2-.1-.2-.1,1.2-3.2,2.7-6.3,4.4-9.3,1.6-3.1,3.6-5.9,6.9-7.6,0,0,.2.2.2.2h0Z" fill="#fff"/><path d="M110.3,5.1c.5,2-.4,3.4-1.8,4.6-1.1,1.2-2.4,2.3-3.7,3.3,0,0-.2-.2-.2-.2l1.1-2.2,1.1-2.1c.4-.7.5-1.5,1.1-2.1.6-.6,1.2-1,2.2-1.4,0,0,.2.1.2.1h0Z" fill="#fff"/><path d="M39.2,163.8c.6-2.2,1.5-4.2,2.8-6,.7-.9,1.6-1.6,2.2-2.6,1.2-1.9,1.3-4.3,2-6.3.9-3.2,2.2-6,3.5-9.1,0,0,.3,0,.3,0,.5,1.2.5,2.4.4,3.5-.1,2.3-.8,4.5-1.9,6.5-.9,2-2.7,3.7-3.6,5.8-.7,2.1-1.2,4.4-2.9,6.1-.8.9-1.6,1.7-2.7,2.3l-.2-.2h0Z" fill="#fff"/><path d="M16.5,138.1c0-2.6.9-4.9,2.5-6.8.9-1.3,2.5-2.1,3.3-3.6.4-.7.5-1.6.8-2.3.5-1.1,1.5-2,2.6-2.6.4-.2.8-.5,1.4-.4,0,0,0,0,0,.1-.5,1.5-1.1,3-2.3,4.2-.6.5-1.4.9-1.9,1.5-.5.6-.8,1.3-1,2.1-.4,1.6-1.1,3-1.9,4.4-.9,1.3-1.9,2.5-3.3,3.5,0,0-.2,0-.2-.1h0Z" fill="#fff"/><path d="M29.8,163.2c1.6-3.8,3.5-6.9,5.7-10.2,1.9-3.4,3.8-6.9,5.4-10.5,0,0,.1,0,.2,0-.6,3.8-2.2,7.9-3.7,11.5-.8,1.8-1.5,3.8-2.7,5.4-1.2,1.6-2.7,3.1-4.6,4.1-.1,0-.2,0-.2-.2h0Z" fill="#fff"/><path d="M18,142.9c1.3-3.9,3.6-7,6.3-10,2.2-2.7,4.4-5.4,6.9-7.8.4-.3.7-.8,1.4-.8.2,0,.1.3,0,.3-.1,0-.3.2-.5.4-1.9,2.4-4.3,6.6-6,9.2-2,3.5-4.2,6.8-7.8,9-.1,0-.2,0-.2-.2h0Z" fill="#fff"/><path d="M27.5,159.7c0-1.5.4-2.8,1.4-3.9.5-.5,1.2-.8,1.6-1.3.9-1,.7-2.7,1.3-3.9.6-2,1.7-3.5,3.5-4.9,0,0,.2,0,.2,0,.5,2.2-.2,4.3-1.6,6-.7,1.1-2.2,1.8-2.7,3.1-.3.6-.3,1.4-.5,2.1-.2.7-.7,1.2-1.2,1.7-.5.5-1.1.9-1.9,1.2-.1,0-.2,0-.2-.1h0Z" fill="#fff"/><path d="M21.7,146.2c0-1.5.5-2.8,1.5-3.8.5-.4,1.3-.7,1.7-1.2,1-1,1-2.6,1.7-3.7.8-1.6,2-2.9,3.6-3.7.4-.2.7-.3,1.2-.3.1,0,0,.2,0,.3-.5,2-1.4,3.8-2.9,5.2-.8,1-2.4,1.5-3,2.8-.3.6-.4,1.4-.6,2-.3.6-.7,1.1-1.2,1.6-.5.5-1.1.9-1.9,1.1-.1,0-.2,0-.2-.2h0Z" fill="#fff"/><path d="M13,128.1c0-2.2.5-4.2,1.6-6,1.2-1.7,2.9-3,3.6-5,.7-1.4,1.1-3.2,2.6-3.9,0,0-.5.3-.5.3,2.1-2.9,5.3-5,8.9-5.2,0,0,0,.2,0,.2-2.4,2.4-5.2,5.1-7.5,6.9-.9.7-1.8,1.5-2.6,2.3-2,1.9-1.8,5-3.3,7.2-.7,1.1-1.4,2.3-2.5,3.3,0,0-.2,0-.2,0h0Z" fill="#fff"/><path d="M34.2,165.5c.5-2.7,1.4-4.8,2.9-6.9,0,0,3.7-6.7,3.7-6.7,0,0,.2,0,.2,0-.5,2.5-1.2,5-2.1,7.4-.7,2.6-2,5.3-4.6,6.3,0,0-.2-.2-.2-.2h0Z" fill="#fff"/><path d="M15,133.5c-1.2-2.1-.2-4.6,1.2-6.4.9-1.4,1.9-2.7,3-3.8.5-.4.8-.9,1.5-.9,0,0,0,.3,0,.3-1.3,1.5-1.8,3.6-2.6,5.4-.4,1-.4,2-1,2.8-.5.9-1,1.6-1.8,2.6h-.3Z" fill="#fff"/><path d="M46.4,158c0-1.2.4-2.2.8-3.2,1-1.8,2.4-3.3,3.4-5.2.5-.9,1-1.8,1.5-2.8h.3c-.2,2.2-.7,4.4-1.5,6.4-.6,2.2-1.8,4.2-4.2,5,0,0-.2-.2-.2-.2h0Z" fill="#fff"/><path d="M23.1,149.3c.7-2.2,2.2-3.6,4-4.9,1.6-1.4,3.1-2.8,4.5-4.4,0,0,.2.1.2.1-.8,2-1.9,4-3.2,5.7-1.2,2-2.9,3.5-5.4,3.7,0,0-.2-.2-.2-.2h0Z" fill="#fff"/><path d="M25.5,154.4c-.4-2.1.6-3.4,2.1-4.5,1.2-1.1,2.5-2.1,3.9-3,0,0,.2.2.2.2l-1.2,2.1-1.2,2.1c-.4.7-.6,1.5-1.2,2-.6.5-1.2,1-2.3,1.3h-.2Z" fill="#fff"/><path d="M68,92.1c-2.3,1.7-4.8,2.9-7.5,3.9-1.3.4-2.8.6-4.1,1.1-2.6,1-4.7,3.1-7,4.5-3.5,2.4-7.1,4.3-11.2,5.6-.1,0-.2-.1-.2-.2,1.8-2.3,4.1-4.1,6.4-5.6,3.7-2.5,7.8-3.2,11.6-5.1,2.4-1.5,4.7-3.3,7.5-3.9,1.4-.4,2.8-.6,4.3-.6.1,0,.2.2,0,.2h0Z" fill="#fff"/><path d="M71.1,92.2c-2.4,2.5-5,4.9-7.7,7.1-1.4,1-2.9,1.9-4.2,3.1-2.6,2.3-4.3,5.6-6.4,8.3-3.1,4.3-6.4,8.2-10.4,11.8,0,0-.3,0-.2-.1,2-5,5-9.4,8.7-13.3,2.4-2.7,5.4-4.6,7.7-7.3,1.8-2,3.2-4.4,5.3-6,.6-.5,1.5-1.2,2.2-1.6,1.5-1,3.1-1.8,4.9-2.3.1,0,.2.1.1.2h0Z" fill="#fff"/><path d="M71.3,92.9c-.3,2.5-1.2,4.7-2.4,6.7-.7,1-1.6,1.9-2.1,2.9-1.2,2.1-1.3,4.6-2.1,6.8-1,3.5-2.5,6.6-4.6,9.6,0,.1-.2,0-.2,0-.2-2.5.4-4.9,1.1-7.2,1.2-3.6,3.7-6.2,5.2-9.5.7-2.3,1.1-4.7,2.7-6.7.7-1,1.5-1.9,2.5-2.7,0,0,.2,0,.2.1h0Z" fill="#fff"/><path d="M70.4,92.4c-3.7,2.7-7.3,5-11.3,7.1-3.9,2.3-7.7,4.7-11.5,7.1,0,0-.2-.2-.2-.2,3.3-3.1,6.9-5.9,10.5-8.6,1.8-1.3,3.6-2.8,5.7-3.8,2.1-1,4.4-1.8,6.7-1.8,0,0,0,.3,0,.3h0Z" fill="#fff"/><path d="M69.4,93.9c-.5,4.7-4.5,7.4-7.6,10.3-1.1.9-2.2,1.9-3.3,2.7l-.2-.2,2.6-3.4,2.5-3.4c.8-1.1,1.5-2.4,2.5-3.4,1-1,2-1.9,3.4-2.8h.2Z" fill="#fff"/><path d="M83.3,93.1c2.8.6,5.5,1.8,7.7,3.6,1.1.9,2,2.1,3.1,3,3.4,2.6,7.3,4,10.5,7.1,2,1.9,3.9,4.1,5.3,6.7,0,.1,0,.3-.2.2-3.8-2.1-7-4.6-10.1-7.6-2.1-1.8-3.7-4.3-6.1-5.7-1.2-.7-2.6-1.2-3.8-1.8-2.5-1.4-4.7-3-6.6-5.1,0,0,0-.3.1-.2h0Z" fill="#fff"/><path d="M80.8,93.1c2.3,1.4,4.3,3.3,6,5.4,1.8,2.1,2.6,4.7,3.8,7,1.7,3.1,4.1,5.8,5.8,8.9,2.7,4.6,4.7,9.6,5.4,14.9,0,.1-.2.2-.2,0-3-4.4-5.4-9-7.4-13.9-1.5-3.1-2.3-6.7-4.3-9.6-1-1.5-2.3-2.7-3.4-4-1.7-2-3-4.2-4.5-6.4-.5-.7-1-1.5-1.4-2.3,0-.1,0-.2.2-.2h0Z" fill="#fff"/><path d="M80.2,93c1.2,2.2,1.8,4.5,1.9,7,0,1.2-.3,2.4-.3,3.6.3,3.6,1.7,7,1.5,10.7,0,2.4-.4,4.8-1.4,7.2,0,.1-.2.1-.3,0-.9-3.6-1.2-7-1-10.6,0-2.4.8-4.8.3-7.1-.2-1.2-.7-2.3-1-3.5-.5-2.4-.5-4.8,0-7.2,0-.1.2-.1.3,0h0Z" fill="#fff"/><path d="M82.7,93.5c3.6,1.3,6.3,3.8,8.7,6.6,2.5,2.6,5,5.3,7.3,8.1,0,0-.2.2-.2.2-2.9-2.2-5.7-4.5-8.6-6.8-3-2.2-5.7-4.6-7.5-7.9,0,0,.2-.2.2-.2h0Z" fill="#fff"/><path d="M81.2,94.3c3.7,3.1,3.9,8,4.8,12.4.2,1.5.4,2.9.5,4.4h-.3c-.9-2.4-2.2-5.8-3.1-8.2-1.3-2.7-2.3-5.3-2.2-8.5,0,0,.2-.1.2-.1h0Z" fill="#fff"/><path d="M90.3,81.2c1.7-2.3,3.9-4.2,6.5-5.5,1.3-.6,2.7-.9,4-1.6,3.8-2,6.7-4.9,10.9-6.5,2.6-1,5.4-1.8,8.3-2,.1,0,.2.2,0,.2-3.5,2.6-7.1,4.4-11.1,5.9-2.6,1.1-5.4,1.6-7.8,3.1-1.2.8-2.2,1.8-3.3,2.7-2.3,1.7-4.7,2.9-7.5,3.8-.1,0-.2-.1-.2-.2h0Z" fill="#fff"/><path d="M88.1,83.9c2.1-1.7,4.7-2.8,7.2-3.5,2.6-.9,5.3-.6,8-.9,3.5-.4,6.9-1.7,10.4-2,5.3-.8,10.6-.7,15.9.6.1,0,.1.2,0,.3-5.3,1.1-10.4,1.6-15.7,1.6-3.5.2-7.1-.3-10.5.4-1.7.4-3.4,1.1-5,1.6-2.5.8-5,1.2-7.6,1.8-.9.2-1.7.3-2.6.4-.1,0-.2-.2,0-.2h0Z" fill="#fff"/><path d="M87.9,83.7c2.4-.5,4.9-.4,7.2.3,1.1.4,2.2,1,3.4,1.4,3.5.8,7.2.4,10.7,1.7,2.3.8,4.5,1.8,6.4,3.5,0,0,0,.3-.1.2-3.7-.2-7.1-.9-10.4-2.2-2.3-.7-4.3-2.1-6.7-2.4-2.4-.2-4.8.1-7.1-.8-1.1-.4-2.3-.8-3.4-1.5-.1,0,0-.2,0-.3h0Z" fill="#fff"/><path d="M87.7,82.9c3.1-3.6,7.9-4.9,12.3-5.8,4.4-1,8.9-1.8,13.4-2.4,0,0,0,.3,0,.3-4.3,1.3-8.6,2.7-12.9,4.2-4.2,1.7-8.3,2.9-12.8,4,0,0-.1-.2-.1-.2h0Z" fill="#fff"/><path d="M89.6,83.1c4.2-2.3,8.9-.7,13.3.1,1.4.4,2.9.7,4.3,1.2,0,0,0,.3,0,.3-2.6-.1-6.2-.1-8.8-.2-3,.2-5.8.2-8.7-1.1,0,0,0-.3,0-.3h0Z" fill="#fff"/><path d="M79.2,72.7c1.5-2.4,3.4-4.5,5.6-6.3,1.1-.8,2.4-1.6,3.4-2.5,2.1-1.9,3.2-4.6,4.9-6.8,2.4-3.5,5.1-6.5,8.5-9.3,0,0,.3,0,.2.1-.9,2.8-2.4,5.3-4,7.5-2.6,3.7-6.1,5.8-9,9-1.7,2.3-3.2,4.8-5.6,6.3-1.1.8-2.4,1.6-3.8,2.1-.1,0-.2,0-.2-.2h0Z" fill="#fff"/><path d="M76.8,72.9c1-3.4,2.2-6.6,3.7-9.8.8-1.6,1.7-3.1,2.4-4.7,1.3-3.3,1.3-6.9,2-10.3.8-5.2,2-10.2,3.9-15.3,0-.1.2-.1.3,0,.5,5.4-.2,10.7-1.8,15.8-.9,3.4-2.7,6.6-3.6,10-.7,2.6-.8,5.3-2.1,7.7-.3.7-.8,1.7-1.2,2.4-.9,1.6-2,3-3.3,4.3,0,0-.3,0-.2-.1h0Z" fill="#fff"/><path d="M78.2,72.7c2.1-4.1,4.2-7.8,6.8-11.5,2.4-3.8,4.7-7.7,7-11.6,0,0,.2.1.2.1-1.6,4.3-3.4,8.4-5.4,12.5-1,2-1.9,4.2-3.3,6-1.4,1.8-3.1,3.7-5.2,4.7,0,0-.2-.2-.2-.2h0Z" fill="#fff"/><path d="M77.5,71.1c-.8-3.1-.5-5.8.2-8.8,0,0,.6-4.3.6-4.3.2-1.5.4-2.9.5-4.4h.3c.2,1.5.4,2.9.5,4.4.1,4.5,1.1,9.3-1.8,13.2,0,0-.3,0-.3,0h0Z" fill="#fff"/><path d="M84.1,88.3c2.9-.7,0-3,.6-3.8.5-.8,1.2-.9,1.3-1.7s.5-1.1-1-2.4c-1.5-1.3-1.2.2-1.9-.7-.7-.9-.7-1.7-1.4-2.3-.7-.6-.8-1-1.6-.7s-1.1.7-1.5.1c-.4-.6-1.3-.3-2.1-.3s-2.1-.4-2.6.1,0,1.1-1.1.6-1.8-1-2.3.2c-.6,1.2-.8,1.4-.4,2.3.5.8-.1,1.4.3,2.6s-1.2,1.4-.9,2.6c.3,1.1,1.2,2.6,1.9,2.3s.8.5,1.7,1.2c1,.7,1.7,2.6,2.3,2.1.6-.6,1.1-.7,2-.4.9.3,1.1,1.2,2,1.1.9,0,2.2-1.1,2.2-1.8,0-.7,2.7-1,2.7-1Z" fill="none" stroke="#fff" stroke-miterlimit="10" stroke-width="1.2"/><path d="M72.5,79.5c-2.2.4-.2,2.3-.6,2.8-.4.6-.9.7-1.1,1.3s-.4.8.7,1.8.9-.1,1.4.6c.5.7.5,1.3,1,1.8s.6.8,1.2.6.8-.5,1.1,0c.3.4.9.3,1.6.3s1.5.4,2,0,0-.8.9-.4,1.3.8,1.8,0c.5-.9.7-1.1.4-1.7s.1-1,0-2c-.2-.9.9-1,.8-1.9s-.8-2-1.3-1.8-.6-.4-1.3-1-1.2-2.1-1.7-1.7c-.5.4-.8.5-1.5.3-.7-.2-.8-.9-1.5-.9s-1.7.7-1.7,1.3-2.1.7-2.1.7Z" fill="none" stroke="#fff" stroke-miterlimit="10" stroke-width=".9"/><path d="M81.5,84.7c1.3-.9-.5-1.5-.4-2s.4-.7.3-1.1c0-.4,0-.7-.9-1-1-.3-.6.3-1.1,0-.5-.3-.7-.7-1.1-.9s-.6-.3-.9,0-.4.5-.7.3-.7,0-1.1.2c-.4.2-1.1.2-1.3.6s.2.5-.5.5-1.1-.2-1.1.5c0,.7-.2.9.2,1.2s.2.7.6,1.2c.4.5-.3.9,0,1.4s1.1,1.1,1.4.8.5.1,1.1.3,1.3,1,1.5.6.4-.5.9-.6.8.4,1.2.2.9-1,.7-1.3,1.1-1,1.1-1Z" fill="none" stroke="#fff" stroke-miterlimit="10" stroke-width=".6"/><path d="M126.8,383.6c-.7-.3-1.2-.5-1.7-.5,0,0,0,.1,0,.2-.2.4-.6.7-1,.9,0,.7-.3,1.4-.8,1.9,0,.4.1.8.2,1.1,17.5,9.8,36.3,22.5,25.5,36.2-2.3,2.9,1.1,9.8-3.1,12.7-9.3,6.6-16.9.5-22.6-2.9-12.8-7-11.7-26.6-4.8-43.2-.2-1.3-.5-2.1-.8-2.6-.6.2-1.2,0-1.8-.4-.8.3-1.5,1-2,1.5-1.3,4.5-1.8,10-6.2,19.7-3.2,6.9-2,16.6-7,22.9-5.7,7.3-19.8,14.6-26.3,7.3-1.6-1.9-1.4-7.8-2.5-9.8-4.2-7.4-6.7-11.2-4.7-18.3,2.1-7.2,7.2-13.4,15.1-17.9,7-4,16.1-6.5,27.6-7.4.7-.5,1.3-1,1.7-1.4,0-.8.3-1.7.9-2.2,0,0,0,0,0,0,0,0-.1-.1-.2-.2-.5-.8-.5-1.9,0-2.8-.3-.5-.7-.9-.9-1.1-12,3.1-44.1,17.4-44.5-7.1,0-3-3.9-7.6-1.9-14.5,3.4-7.8,9.2-7.8,11.4-10.4,8.3-9.5,19.4,2.5,37.4,27.6.6.5,1.1.7,1.5.7.1,0,.2,0,.3,0,.9-.1,1.4-1,1.6-1.9-3-5.6-6.6-14.5-7.6-23.4-1.1-9,.3-22.1,6.5-25.7,2.8-1.6,9.2,5.1,14.9,6.4,7,.6,8.6,5.2,11.4,11.4,5.1,11.4,3,23.7-17.1,35.1-.7.8-1.1,1.4-1.2,1.9,0,.3,0,.6,0,.9.4.5,1.3.6,2.1.6,12.5-6.8,29.5-27.7,49.5-.5,3.2,3.5-2.3.8,8.8,15.3.5,5.8-22,14-58.2-10.4Z" fill="none" stroke="#fff" stroke-miterlimit="10" stroke-width="3.4"/><path d="M117.6,371.9c1.8-2.3,2.4,1.4,3.3,1.3.9,0,1.2-.6,2-.4.7.2,1.1,0,1.5,2,.4,1.9-.7,1-.2,2,.5,1,1.1,1.4,1.3,2.3.2.9.5,1.1,0,1.7-.6.6-1,.6-.7,1.3.3.6-.2,1.3-.6,2.1-.4.8-.5,2.1-1.2,2.3-.7.3-.9-.5-1,.8-.1,1.3.1,2-1.2,2.1-1.3,0-1.6.2-2.1-.6-.5-.8-1.2-.5-2.1-1.4-.9-.9-1.7.5-2.5-.3-.8-.8-1.6-2.3-1.1-2.8.5-.5,0-1-.2-2.2-.1-1.2-1.4-2.8-.7-3.1.7-.3,1-.7,1.2-1.6.2-.9-.5-1.6,0-2.4.4-.8,1.9-1.5,2.4-1.1.5.4,2-2,2-2Z" fill="none" stroke="#fff" stroke-miterlimit="10" stroke-width="1.1"/><path d="M119.1,371.2c-1.7-2.8-2-6.1-1.9-9.4-.3-3.2-1.4-6.4-1.3-9.7,0-2.2.2-4.4.8-6.5,0,0,.1,0,.2,0,.6,3.3.9,6.4.8,9.7,0,2.1-.4,4.3,0,6.4.9,3.1,1.7,6.1,1.5,9.4,0,0-.1.1-.2,0h0Z" fill="#fff"/><path d="M122.7,372.8c-1.2-4-.5-8.1.6-11.8.6-2.5.5-5.2,1.1-7.8.7-3.8,1.9-7.4,3.8-10.5,0,0,.2,0,.1,0-.5,3.9-1.3,7.4-2.4,11-.6,2.4-1.8,4.7-2.1,7.3-.2,3.9-.2,7.8-1,11.6,0,0-.1.1-.2,0h0Z" fill="#fff"/><path d="M124.3,374.8c.1-2.8,1.5-5.1,3.1-7,1.2-2.2,1.7-4.9,3.1-6.9.9-1.3,2-2.6,3.3-3.4,0,0,.2,0,.1.1-.8,2.4-1.8,4.5-3.2,6.5-.8,1.4-2.2,2.4-2.8,4-.6,1.6-.8,3.4-1.9,4.7-.5.7-.9,1.4-1.6,2,0,0-.2,0-.2,0t0,0Z" fill="#fff"/><path d="M121.1,372.1c-1.4-3.3-.9-6.9-.3-10.3.6-3.3,1.2-6.6,2.1-9.8,0,0,.1,0,.2,0-.6,5-.9,10-1.1,15,0,0-.6,5-.6,5,0,0-.1,0-.2,0t0,0Z" fill="#fff"/><path d="M119.4,372.8c-1.1-2.6-1.2-5.4-.9-8.3.1-2.8.3-5.5.5-8.3,0,0,.1,0,.2,0,.2,2.4.5,5.9.7,8.3.4,2.8.5,5.5-.3,8.3,0,0-.2,0-.2,0h0Z" fill="#fff"/><path d="M117.6,370.5c-1.9-2.2-2.8-5.1-3-8.1-.4-2.9-.6-5.9-.3-8.9,0,0,.1,0,.2,0,.3,2.9.8,5.7,1.5,8.5.9,2.8,1.7,5.3,1.9,8.3,0,0-.2,0-.2,0t0,0Z" fill="#fff"/><path d="M123.8,372.3c-.4-2.4.4-4.5,1.5-6.4.9-1.9,2-3.7,3.1-5.4,0,0,0,0,.1.1-.7,2-1.3,4-2,5.9-.5,2.1-1.2,4-2.6,5.7,0,0-.2,0-.2,0t0,0Z" fill="#fff"/><path d="M125.1,374.7c.8-2.1,2.1-3.4,3.6-4.8,0,0,4-4.2,4-4.1,0,0,0,0,.1.1-.9,1.7-1.9,3.4-3.1,5.1-1.1,1.8-2.4,3.4-4.5,3.9,0,0-.1-.2-.1-.2h0Z" fill="#fff"/><path d="M139.2,334.5c1.2,2.5,1,4.8.6,7.1,0,3.2.9,6.5-.5,9.3-.3.7-.6,1.4-1.3,1.9,0,0,0,0-.1-.1.2-2.3.2-4.5.7-6.7.2-1.5.8-2.9.7-4.5-.2-1.6-.7-3.2-.5-4.7,0-.8,0-1.5.3-2.3,0,0,.1,0,.2,0h0Z" fill="#fff"/><path d="M124.6,325.9c-.2,1.9-.7,3.4-1.6,4.8-.5.9-1.4,1.6-1.7,2.7-.2.5-.1,1.2-.2,1.8-.2,1.1-.8,2-1.5,2.9,0,0,0,0,0,0,0,0,0,0,0,0-.5-1.1,0-2.8.4-3.8.3-.5.7-.8,1-1.3.7-1.5.7-3.6,1.5-5,.5-.9,1.2-1.8,2.1-2.3,0,0,.1,0,.1.1h0Z" fill="#fff"/><path d="M135.7,329.8c1,3,.6,5.9-.2,8.5-.7,2.6-1.4,5.5-2.7,7.7.4-2.7,1.1-5.4,1.4-8.2.2-2.8.6-5.4,1.3-8,0,0,.1,0,.2,0h0Z" fill="#fff"/><path d="M126.6,326.4c0,4.5-2.4,8.1-3.9,11.9-.5,1.2-1.2,2.5-1.4,3.8,0,.1,0,.2-.1.1-.2-.8.1-1.5.2-2.3.3-1.5,1.4-4.8,1.8-6.2.7-2.8,1.7-5.3,3.2-7.4,0,0,.1,0,.1,0h0Z" fill="#fff"/><path d="M134.2,330.3c.3,1.2.2,2.1-.1,3-.2.4-.6.7-.7,1.1-.4.8-.1,2-.4,2.9-.2,1.5-.9,2.7-2.1,3.4,0,0,0,0-.1,0-.1-1.7.2-3,.8-4.2.3-.8,1.1-1.3,1.3-2.3,0-1-.2-1.9.4-2.8.2-.4.4-.8.8-1.1,0,0,.1,0,.1,0h0Z" fill="#fff"/><path d="M128.6,329c.2,1.1,0,2.1-.4,2.9-.2.4-.6.6-.8,1-.5,1.2-.2,2.9-.8,4.3-.3.9-.9,1.6-1.5,2.3,0,0,0,0,0,0-.5-1.7-.1-3.3.6-4.6.4-.8,1.2-1.4,1.4-2.3.1-1,0-2,.6-2.8.3-.4.5-.7.9-.9,0,0,.1,0,.1.1h0Z" fill="#fff"/><path d="M120.5,324c-.4,1.5-.9,2.8-1.6,4-.8,1-1.8,1.9-2.2,3.5-.2.8-.4,1.7-.5,2.5-.3,2.3-.9,5.2-1.5,7.7,0,0-.2,0-.2,0-.9-2.6-.7-5.6.2-8,0,.2,0,.3,0,.5,0-1.3.8-2.2,1.4-3.1,1.1-1.5,1.1-4,2.3-5.4.5-.7,1.2-1.4,1.9-1.8,0,0,0,0,.1.1t0,0Z" fill="#fff"/><path d="M137.5,332.4c1,1.9.7,3.9.2,5.6-.4,1.7-.9,3.3-1.5,4.9,0,0-.1,0-.2,0,.1-1.8.3-3.6.4-5.4,0-1.9.2-3.4.9-5.1,0,0,.2,0,.2,0t0,0Z" fill="#fff"/><path d="M119.3,323.3c-.5,1.9-1.3,3.3-2.4,4.6,0,0-2.9,4.3-2.9,4.4,0,0,0,0-.1-.1.6-1.8,1.3-3.6,2-5.3.7-1.8,1.7-3.5,3.3-3.8,0,0,0,.2,0,.2h0Z" fill="#fff"/><path d="M123,325.5c-.5,1.6-1,2.6-2,3.6-.7,1.1-1.6,2.2-2,3.5,0,0-.1.1-.1.1-.3-.8.2-1.7.3-2.5.8-2.2,1.5-5.2,3.7-5,0,0,0,.2,0,.2h0Z" fill="#fff"/><path d="M140.9,337.3c1.8,1.9,1.5,4.5,1.5,6.8,0,.7-.1,1.5-.3,2.2,0,0-.1,0-.2,0-.2-2.2-.9-4.4-1.4-6.6,0-.7,0-1.5.1-2.3,0,0,0,0,.1,0t0,0Z" fill="#fff"/><path d="M130.7,329.2c1.1,2.6-.1,4.8-1,6.8-.3.6-.7,1.3-1.1,1.9,0,0,0,0-.1-.1.6-2.1.8-4.4,1.1-6.6.2-.7.5-1.3.9-2,0,0,.1,0,.2,0h0Z" fill="#fff"/><path d="M132.9,329.6c.3,1.4,0,2.3-.5,3.3-.4,1-.9,1.9-1.3,2.9,0,0-.1,0-.2,0,0-1.2.1-2.4.3-3.5,0-1.3.5-2.4,1.6-2.8,0,0,.1.1.1.1t0,0Z" fill="#fff"/><path d="M79.9,440c2.5-2.3,4.8-3.2,7.6-4.1,1.7-.8,3.1-2.5,4.6-3.7,2.2-1.9,4.5-3.3,6.9-4.8,0,0,.2,0,.2,0-.3,1-1,1.9-1.6,2.7-2.6,3.4-6.4,4.4-9.8,6.4-1.6,1.2-3.1,2.8-5,3.2-.9.3-1.8.5-2.8.5,0,0,0-.1,0-.2h0Z" fill="#fff"/><path d="M69.2,422.6c.7-2.4,1.9-4.3,3.6-5.8,1-1.1,2.4-1.6,3.2-2.7.4-.6.8-1.3,1.2-2,.7-.9,1.6-1.5,2.5-1.9.3-.1.8-.3,1.1-.1,0,0,0,0,0,.1-.7,1.2-1.6,2.5-2.7,3.3-.6.4-1.2.6-1.7,1.1-1.5,1.5-2.2,3.8-3.7,5.4-1,1-2,2-3.3,2.8,0,0-.2,0-.1-.1h0Z" fill="#fff"/><path d="M74.3,437.6c2.8-2.6,5.4-4.5,8.3-6.5,2.8-2,5.6-4.6,8.2-6.5-2.1,2.8-4.8,5.4-7.5,7.9-2.6,2.6-5.7,5-9,5.3,0,0-.1-.1,0-.2h0Z" fill="#fff"/><path d="M69.8,425.5c2-3.4,4.4-5.9,7.1-8.2,1.4-1.3,4.4-4.1,5.8-5.1.7-.5,1.4-1.3,2.2-1.3.1,0,0,.2,0,.2-1.3.8-2.4,2.3-3.5,3.5,0,0-3.5,4-3.5,4-2.3,2.8-4.8,5.6-7.9,7.1,0,0-.2,0-.1-.2h0Z" fill="#fff"/><path d="M74.6,435.2c.5-1.3,1.3-2.4,2.3-3.1.5-.3,1.1-.4,1.6-.8,1-.7,1.4-2.2,2.2-3.1,1.1-1.6,2.4-2.6,4.1-3.4,0,0,.2,0,.1.1-.3,1.4-1,2.5-1.8,3.5-1.3,1.7-3,2-4.3,3.4-.4.5-.7,1.2-1.1,1.7-.8,1-1.8,1.6-3.1,1.9,0,0-.1,0,0-.2t0,0Z" fill="#fff"/><path d="M72.6,427.3c.4-1.4,1.1-2.5,2.1-3.3.5-.3,1.1-.5,1.6-.9.5-.4.8-.9,1.1-1.5.9-1.7,2.2-3.2,3.7-4,.3-.2,1.5-.8,1.8-.4,0,0,0,0,0,0,0,0,0,0,0,.1-.9,1.7-1.9,3.2-3.4,4.2-.9.8-2.1,1.1-2.9,2.1-.7,1.1-1.1,2.3-2.2,3-.5.3-1,.7-1.7.8,0,0-.1,0-.1-.2h0Z" fill="#fff"/><path d="M67,417.1c.6-2,1.5-3.7,2.7-5.2,1.3-1.3,2.8-2.3,3.9-3.9.8-1.1,1.6-2.6,2.8-3.1,0,0-.4.2-.4.2,2.2-2.2,4.9-3.5,7.4-3.1,0,0,0,.1,0,.2-2.3,1.7-4.9,3.6-7.1,4.8-1.7,1-3.5,2.2-4.6,4.4-1.1,2.3-2.7,4.1-4.7,5.7,0,0-.1-.1-.1-.1t0,0Z" fill="#fff"/><path d="M77.4,438.8c1.7-2,3.3-3.3,5.3-4.3,0,0,5.6-3.7,5.6-3.7,0,0,0,.1.1.2-1.6,1.7-3.2,3.4-5,5-1.7,1.7-3.8,3.4-6,3.1,0,0,0-.2,0-.2h0Z" fill="#fff"/><path d="M66.2,415.6c.2-2.7,1.8-4.8,3.5-6.5,1.5-1.7,3.1-3.3,4.8-4.8,0,0,0,.1.1.2-1.3,1.9-2.6,3.9-3.9,5.8-1.2,2.2-2.5,3.8-4.3,5.4,0,0-.2,0-.2,0h0Z" fill="#fff"/><path d="M68.5,420.5c-.3-2.2,1.1-4.2,2.5-5.6,1-1.1,2-2.1,3.1-2.9.4-.3.8-.7,1.3-.6,0,0-.1.2-.1.2-1.8,1.7-3.2,4.7-4.7,6.8-.6.7-1.2,1.3-2,2.1,0,0-.1,0-.2,0h0Z" fill="#fff"/><path d="M73.1,430.4c1.2-2,2.5-3,4.2-4,1.5-1.1,3-2.2,4.4-3.4,0,0,0,0,.1.1-1,1.7-2.3,3.3-3.7,4.7-1.4,1.6-3,2.9-4.9,2.7,0,0,0-.2,0-.2h0Z" fill="#fff"/><path d="M73.7,433.6c.2-1.9,1.3-3.1,2.7-3.8,1.2-.9,2.4-1.6,3.6-2.3,0,0,0,.1,0,.2-1.4,1.6-2.9,3.7-4.3,5.1-.6.4-1.2.8-2,1,0,0,0,0-.1-.1h0Z" fill="#fff"/><path d="M127.4,436.3c-2.5-1.1-3.4-3.3-4-5.9-1.5-2.9-3.8-5.4-3.6-9.1,0-.9.1-1.8.6-2.7,0,0,.1,0,.2,0,.8,2.3,1.7,4.4,2.2,6.8.5,1.5.4,3.3,1.2,4.7.9,1.3,2.2,2.3,2.7,3.8.3.7.6,1.4.8,2.3,0,0-.1,0-.2.1h0Z" fill="#fff"/><path d="M147.2,432.7c-1.4-1.1-2.2-2.4-2.6-4.1-.4-1-.1-2.3-.7-3.2-.3-.5-.8-.8-1.2-1.2-.7-.8-.9-1.9-1.1-3,0,0,0,0,0-.1,0,0,0,0,0,0,1.3.1,2.2,1.4,2.6,2.4.1.5,0,1.2.3,1.7.7,1.5,2.3,2.5,2.7,4.1.3,1,.5,2.1.2,3.4,0,0-.1.1-.2,0t0,0Z" fill="#fff"/><path d="M133.7,437.8c-3.2-.7-5.1-3-6.5-5.5-1.4-2.5-2.9-5.2-3.5-7.9,1.6,2.2,3,4.8,4.9,6.9,1.9,2.1,3.6,4,5.2,6.4,0,0,0,.2-.1.2h0Z" fill="#fff"/><path d="M146.1,435.7c-3.7-2.3-4.6-6.7-6.3-10.3-.5-1.1-.9-2.6-1.8-3.5-.1,0-.2-.2,0-.2.8.2,1.1,1,1.6,1.5.9,1.1,2.6,4,3.4,5.1,1.6,2.2,2.9,4.5,3.4,7.3,0,0-.1.2-.2.1h0Z" fill="#fff"/><path d="M136.5,439.8c-1.2-.3-1.9-1-2.3-1.9-.1-.5,0-1.1-.3-1.5-.3-.9-1.5-1.3-2-2.1-1-1.2-1.3-2.6-.9-4.3,0,0,0-.1.1,0,1.4.9,2.1,2,2.5,3.4.4.8.1,2,.8,2.7.7.7,1.7.9,1.9,2,.1.5.3.9.2,1.5,0,0-.1.1-.2.1h0Z" fill="#fff"/><path d="M144,437.2c-1-.4-1.7-1.1-2-2,0-.5,0-1-.2-1.5-.5-1.2-2.1-1.8-2.7-3.2-.4-.8-.6-1.8-.6-2.8,0,0,0,0,0,0,1.7.4,2.6,1.7,3.1,3.1.4.8.1,2,.7,2.7.7.7,1.6,1,1.8,2.2,0,.5.2.9,0,1.5,0,0-.1.1-.2.1t0,0Z" fill="#fff"/><path d="M149.4,422.7c-.9-1.1-1.5-2.3-1.8-3.6-.2-1.3,0-2.8-1-3.9-.4-.6-1-1.2-1.5-1.7-.7-.6-1.8-1.9-2.5-2.8-.7-.9-1.4-1.8-2.1-2.8,0,0,0-.1.1-.2,2.6.6,4.6,2.4,5.7,4.5-.1,0-.2-.2-.3-.3,1,.7,1,1.9,1.3,2.9.3,1.9,2.2,3.1,2.4,5,.2.9.2,1.8,0,2.8,0,0-.1,0-.2,0h0Z" fill="#fff"/><path d="M150.9,421.8c-1.1-1.5-1.6-2.9-1.8-4.7,0,0-1.1-5-1.1-5,0,0,.1,0,.2,0,.9,1.5,1.8,3,2.5,4.6.9,1.6,1.5,3.3.4,5.2,0,0-.2,0-.2,0h0Z" fill="#fff"/><path d="M147.2,425.8c-.9-1.3-1.2-2.4-1.3-3.9-.3-1.2-.4-2.8-1.1-3.9,0,0,0-.2,0-.2.8.2,1.2,1.1,1.7,1.6.7,1.3,1.7,2.5,1.8,4,0,.8-.1,1.6-.8,2.4,0,0-.1,0-.2,0t0,0Z" fill="#fff"/><path d="M142.2,438.5c-2.4-1.1-3.8-3.1-4.6-5.3-1-2.1-1.8-4.4-2.3-6.8,0,0,.2,0,.2,0,1.1,2.1,2.3,4.1,3.6,6,1.5,1.9,2.8,3.6,3.3,6.1,0,0-.2.1-.2.1h0Z" fill="#fff"/><path d="M138.5,438.8c-1.4-.5-1.9-1.3-2.2-2.5-.4-1-.8-2.1-1.2-3.1,0,0,.1,0,.2-.1.9.7,1.8,1.5,2.5,2.3,1,.8,1.6,1.9.9,3.3,0,0-.2,0-.2,0h0Z" fill="#fff"/><path d="M78.1,345.3c2.4-1,4.3,0,6.2,1.5,2.7,1,5.8,1,7.9,3.7.5.6,1.1,1.3,1.4,2.3,0,0,0,0-.1.1-2-.9-3.9-1.7-5.7-3-1.2-.7-2.3-2.1-3.7-2.4-1.4-.2-2.8,0-4.1-.8-.6-.3-1.3-.6-1.9-1.2,0,0,0-.2,0-.2h0Z" fill="#fff"/><path d="M66.3,362.7c1.8-.1,3.1.4,4.5,1.4.9.5,1.6,1.8,2.6,2,.5.1,1.1,0,1.6,0,1,.1,1.9.8,2.7,1.5,0,0,0,0,0,0,0,0,0,0,0,.1-.9.9-2.5.7-3.4.2-.5-.3-.8-.9-1.3-1.1-1.5-.7-3.3-.2-4.6-1.2-.9-.6-1.7-1.4-2.3-2.7,0,0,0-.2.1-.2h0Z" fill="#fff"/><path d="M72.8,348.6c2.6-1.8,5.3-1.3,7.8-.4,2.4.8,5.1,1.6,7.2,3.2-2.5-.3-5-1.1-7.5-1.4-2.6-.1-4.9-.4-7.4-1.1,0,0,0-.2,0-.2h0Z" fill="#fff"/><path d="M65.2,359.4c4-.8,7.5,2.2,11.1,3.6,1.1.5,2.3,1.3,3.6,1.3,0,0,.2,0,.1.1-.7.5-1.4.1-2.1,0-1.3-.2-4.4-1.1-5.7-1.4-2.6-.6-5-1.5-7-3.5,0,0,0-.2,0-.2t0,0Z" fill="#fff"/><path d="M69.6,349c1-.6,1.9-.6,2.7-.1.4.3.7.8,1.1,1,.8.5,1.8,0,2.6.2,1.4.2,2.5,1,3.2,2.7,0,0,0,.1,0,.2-1.5.4-2.7,0-3.9-.8-.8-.4-1.3-1.5-2.2-1.6-.9,0-1.7.5-2.6-.2-.4-.3-.7-.6-1-1.1,0,0,0-.2,0-.2h0Z" fill="#fff"/><path d="M65.8,356.6c1-.4,1.9-.4,2.7.2.4.3.6.9,1,1.1,1.1.6,2.6-.1,3.9.6.8.4,1.6,1,2.2,1.8,0,0,0,.1,0,.1-1.5,1-2.9.7-4.1,0-.8-.4-1.3-1.5-2.2-1.7-.9,0-1.8.3-2.6-.5-.4-.3-.7-.7-.9-1.3,0,0,0-.2,0-.2h0Z" fill="#fff"/><path d="M67.7,371.7c1.4.2,2.6.7,3.8,1.5,1.1.9,2,2.2,3.4,2.3.7,0,1.5,0,2.3,0,2.1-.2,4.7,0,7.1.2,0,0,0,.1,0,.2-2.2,1.9-4.8,2.3-7.1,1.6.1,0,.3,0,.4,0-1.2.3-2.1-.6-3-1.1-1.5-1.2-3.7-.6-5.1-2-.7-.6-1.4-1.4-1.9-2.4,0,0,0-.1.1-.2h0Z" fill="#fff"/><path d="M69.2,376.1c1.8.3,3.2,1.1,4.6,2.3,0,0,4.4,3,4.4,3,0,0,0,.1,0,.2-1.7-.3-3.4-.8-5-1.5-1.7-.5-3.5-1.4-4-3.9,0,0,0-.1.1-.2t0,0Z" fill="#fff"/><path d="M67.5,366.8c1.5.4,2.5,1,3.5,2.2,1,.8,2.2,1.9,3.4,2.2,0,0,.1.1.1.1-.7.6-1.6.1-2.3,0-2-.6-4.9-1-5-4.4,0,0,.2-.2.2-.2h0Z" fill="#fff"/><path d="M66.3,354.1c2.4-.9,4.6-.2,6.6,1,2,1,4,2.1,5.8,3.5,0,0,0,.1,0,.2-2.1-.8-4.2-1.4-6.3-1.9-2.2-.4-4.3-.9-6.1-2.6,0,0,0-.2,0-.2h0Z" fill="#fff"/><path d="M68.8,351.2c1.3-.6,2.1-.4,3.1.4.9.5,1.8,1.1,2.8,1.6,0,0,0,.2,0,.2-1.1.1-2.2.1-3.2,0-1.2,0-2.2-.4-2.6-2,0,0,0-.1,0-.2h0Z" fill="#fff"/><path d="M180.6,397.7c-2.6.8-5,.3-7.5-.5-3.3-.5-6.9-.3-9.7-2.2-.7-.4-1.4-.9-1.9-1.6,0,0,0,0,.1-.1,2.4.6,4.6,1.1,6.9,2,1.5.4,3,1.3,4.7,1.5,1.6,0,3.3-.2,4.9.3.8.2,1.6.3,2.5.6,0,0,0,0,0,.1t0,0Z" fill="#fff"/><path d="M174.8,377.9c-1.7.2-3.3,0-4.9-.6-1.1-.3-2.1-1.1-3.2-1.1-.5,0-1.1.1-1.6.1-1.1,0-2.1-.4-3.1-.9,0,0,0,0-.1,0,0,0,0,0,0,0,.7-.7,2.3-.7,3.3-.4.5.2,1.1.6,1.6.7,1.6.4,3.3,0,5,.5,1.1.3,2.2.8,3.2,1.6,0,0,0,.1,0,.1h0Z" fill="#fff"/><path d="M184.2,393.4c-2.8.9-6,.5-8.8-.3-2.8-.8-5.9-1.5-8.4-2.9,2.8.5,5.7,1.3,8.6,1.7,2.9.3,5.6.6,8.6,1.3,0,0,.1.1,0,.1t0,0Z" fill="#fff"/><path d="M176.9,380.5c-3.9.9-8.4-.6-12.4-1.3-1.3-.2-2.7-.7-4-.6,0,0-.2,0-.2,0,.6-.4,1.4-.2,2.1-.2,1.4,0,4.7.3,6.2.5,2.8.1,5.5.5,8.3,1.6,0,0,0,.1,0,.2h0Z" fill="#fff"/><path d="M183,391.1c-1,.4-2,.5-3,.2-.5-.2-1-.5-1.4-.6-1-.3-2,.1-3,0-1.6,0-3-.5-4.2-1.6,0,0,0,0,0-.1,1.6-.3,2.9-.2,4.4.3.9.2,1.8.9,2.8.9,1,0,1.8-.4,2.9,0,.5.1,1,.3,1.5.6,0,0,0,.1,0,.1h0Z" fill="#fff"/><path d="M177.3,383.4c-.9.4-1.8.5-2.9.2-.5-.2-.9-.5-1.4-.6-1.3-.2-2.7.4-4.2.1-1-.1-1.9-.5-2.9-.9,0,0,0,0,0,0,1.2-.9,2.8-.8,4.3-.4.9.2,1.9.8,2.8.8,1,0,1.7-.4,2.8,0,.5.2.9.3,1.4.7,0,0,0,.1,0,.2t0,0Z" fill="#fff"/><path d="M170.6,372.1c-1.5,0-2.7-.4-4.1-.9-1.3-.6-2.5-1.5-3.9-1.5-.7,0-1.5,0-2.2,0-1.9.2-4.5.1-6.9,0,0,0,0-.1,0-.2,1.7-1.5,4.1-1.8,6.4-1.3-.1,0-.2,0-.4,0,1-.3,2.1.4,3.1.8,1.8.8,3.7.4,5.5,1.3.9.4,1.8.9,2.5,1.6,0,0,0,0,0,.1h0Z" fill="#fff"/><path d="M183.8,396.1c-1.8.8-3.9.5-5.8-.2-1.9-.5-3.6-1.1-5.4-1.8,0,0,0,0,0-.1,1.9.3,3.7.6,5.6.8,2,.1,3.6.4,5.5,1.2,0,0,0,.1,0,.1h0Z" fill="#fff"/><path d="M172.7,375.3c-1.6-.1-2.7-.5-4.1-1.2-1.3-.5-2.7-1.2-4-1.3,0,0-.2,0-.2,0,.5-.4,1.5-.2,2.2-.2,2.2.3,5,.5,6.2,2.7,0,0-.1.1-.1.1h0Z" fill="#fff"/><path d="M173.9,399c-2.3,1.2-4.9.2-7.2-.6-.7-.3-1.5-.6-2.1-1,0,0,0,0,0-.1,2.3.5,4.6.6,6.9.8.8.2,1.5.4,2.3.8,0,0,0,.1,0,.2h0Z" fill="#fff"/><path d="M178.7,385.3c-1.6,1.5-4.4.9-6.7.5-.8-.2-1.5-.3-2.3-.6,0,0,0-.1,0-.2,2.2.1,4.4-.2,6.6-.4.7,0,1.5.1,2.4.4,0,0,0,0,0,.1h0Z" fill="#fff"/><path d="M180.6,388.3c-1.1.6-2.1.6-3.4.2-1.1-.2-2.3-.4-3.5-.6,0,0,0-.1,0-.2,1.1-.3,2.2-.4,3.4-.5,1.2-.2,2.5,0,3.5.8,0,0,0,.1,0,.1t0,0Z" fill="#fff"/><path d="M127.5,380c2.1-2.4,4.9-3.3,7.8-3.7,2.7-.9,5.1-2.6,7.9-3.1,1.8-.3,3.7-.5,5.7-.2,0,0,.1.1,0,.2-2.5,1.2-5.1,2-7.9,2.5-1.8.4-3.8.4-5.5,1.2-2.5,1.5-5,2.9-7.9,3.3,0,0-.2-.1,0-.2t0,0Z" fill="#fff"/><path d="M126,381.7c3.4-2,7.2-1.9,10.9-1.4,2.5.1,4.9-.4,7.3-.2,3.7,0,7.4.7,11,2.1,0,0,0,.2,0,.2-3.7.2-7.3,0-11-.6-2.4-.2-4.9-1-7.3-.9-3.6.5-7.2,1.1-10.8,1,0,0-.1-.1,0-.2h0Z" fill="#fff"/><path d="M126.4,382.2c2.6-.3,5,.7,7.2,2.1,2.4.9,5,.9,7.4,2,1.6.7,3.1,1.6,4.4,2.8,0,0,0,.2,0,.2-2.6-.3-5-1-7.3-2.2-1.5-.6-2.9-1.8-4.6-2.2-1.6-.3-3.4-.3-4.9-1.1-.8-.4-1.5-.7-2.2-1.3,0,0,0-.2,0-.2h0Z" fill="#fff"/><path d="M126.5,381.5c2.4-2.5,5.6-3.1,8.7-3.5,3.1-.4,6.1-.7,9.2-.9,0,0,0,.1,0,.2-4.5.9-8.9,2.1-13.3,3.4,0,0-4.6.9-4.6.9,0,0,0-.1,0-.2h0Z" fill="#fff"/><path d="M127.9,381.7c2.1-.6,3.9-.3,5.9.1,0,0,5.9.8,5.9.8,0,0,0,.1,0,.2-2,.3-4,.5-6,.5-2.1.2-4.2,0-5.9-1.4,0,0,0-.2,0-.2t0,0Z" fill="#fff"/><path d="M120.7,388.9c.2,3.3-.7,6.3-1.7,9.4-.5,2.1,0,4.3-.1,6.4,0,3.2-.3,6.3-1.2,9.6,0,0-.2.1-.2,0-.7-2.1-.8-4.2-.8-6.4,0-3.3,1.3-6.5,1.7-9.7,0-3.3.3-6.6,2.1-9.4,0,0,.2,0,.2,0h0Z" fill="#fff"/><path d="M122,387.5c1.1,3.8,1.4,7.6,1.9,11.5.5,2.5,2,4.7,2.9,7,1.6,3.4,3,6.9,4,10.6,0,0-.1.2-.2.1-2.7-2.8-4.4-6.2-5.6-9.9-.8-2.4-1-5.1-1.8-7.6-.6-1.8-1.6-3.6-1.7-5.6,0-.6-.2-1.4-.2-2,0-1.3,0-2.7.4-4,0,0,.2-.1.2,0h0Z" fill="#fff"/><path d="M122.2,387.1c2.3,1.4,3.7,3.6,5,5.9,1,1.4,2.7,2.1,3.9,3.3,2,1.6,3.7,3.3,5.3,5.5,0,0,0,.2-.1.2-1.8-.5-3.3-1.4-4.6-2.5-2.1-1.6-3.2-4.1-4.9-6-2.1-1.5-4-3.4-4.7-6.2,0,0,0-.2.1-.1h0Z" fill="#fff"/><path d="M121.2,388.8c.8,2.7.7,5.4.3,8.2-.2,2.4-.5,5.8-.8,8.2,0,0-.1,0-.2,0-.3-2.7-.4-5.5-.5-8.2-.2-2.8-.2-5.6,1-8.2,0,0,.2,0,.2,0h0Z" fill="#fff"/><path d="M122.4,388.3c1.6,1.6,2.5,3.4,3.3,5.5.9,1.9,1.8,3.8,2.8,5.7,0,0-.1,0-.2.1-1.5-1.5-2.8-3.2-4-5-1.3-1.8-2.3-3.8-2.1-6.2,0,0,.2,0,.2,0h0Z" fill="#fff"/><path d="M111.1,386.7c-2.7,1.7-5.7,2.2-8.7,2.7-2,.5-3.7,2-5.6,2.9-2.8,1.6-5.7,2.8-8.8,3.5,0,0-.1-.1,0-.2,1.7-1.8,3.6-3,5.5-4,2.9-1.6,6-1.8,8.9-2.9,2.8-1.6,5.8-2.8,8.8-2.2,0,0,.1.2,0,.2h0Z" fill="#fff"/><path d="M113.6,386.9c-3,2.6-6.3,4.6-9.8,6.8-2.2,1.6-3.8,4.1-5.8,6.2-2.9,3.3-5.9,6.3-9.4,9.1,0,0-.2,0-.1-.1,2.3-4.2,5.2-7.6,8.5-10.5,2.1-2,4.5-3.3,6.6-5.2,1.5-1.4,2.9-3.2,4.6-4.2.5-.3,1.2-.8,1.7-1,1.2-.6,2.4-1,3.7-1.3,0,0,.1.1,0,.2h0Z" fill="#fff"/><path d="M113.7,386.6c-.6,2.9-2.4,5.1-4.3,7.2-1.1,1.5-1.5,3.6-2.3,5.3-1.1,2.7-2.6,5.1-4.5,7.5,0,0-.2,0-.2,0,.2-2.1.9-4,1.7-5.8,1.2-2.8,3.4-4.8,4.8-7.3.7-1.8,1.3-3.6,2.6-5,.6-.7,1.2-1.4,2-1.9,0,0,.2,0,.1.1h0Z" fill="#fff"/><path d="M113.3,386.2c-1.4.9-2.8,1.8-4.2,2.8-1.4.9-2.9,1.6-4.4,2.4-2.9,1.7-5.9,3.6-8.9,5.5,0,0,0-.1,0-.2,2.7-2.5,5.5-4.7,8.3-6.7,2.8-2.1,5.8-4.1,9.2-3.9,0,0,0,.2,0,.2t0,0Z" fill="#fff"/><path d="M112.5,387.4c-.9,2.3-2.3,3.9-4,5.6-1.5,1.7-3,3.5-4.5,5.3,0,0-.1,0-.2-.1,1.1-2.2,2.3-4.3,3.6-6.2,1.2-2.1,2.7-4,4.9-4.7,0,0,.1.1.1.1h0Z" fill="#fff"/><path d="M112.7,375.9c-2.8,1.4-5.8,1.2-8.6.4-2.9-.2-5.9.6-8.7,0-1.9-.4-3.7-1-5.4-2.2,0,0,0-.2,0-.2,3-.3,5.7,0,8.5.7,1.9.3,3.7,1.2,5.6,1.2,2.9-.5,5.7-.9,8.6,0,0,0,0,.2,0,.2h0Z" fill="#fff"/><path d="M113.9,374.7c-3.8,0-7.1-2-9.8-4.6-2-1.5-4.2-2.4-6.2-4-3-2.2-5.5-5.1-7.4-8.8,0,0,0-.2.1-.2,3,2.1,5.6,4.6,8.3,7.3,1.8,1.7,3.4,3.8,5.5,5.1,3.3,1.5,6.5,2.9,9.6,5,0,0,0,.2,0,.2h0Z" fill="#fff"/><path d="M113.2,375.3c-3.2,1.1-6.3,0-9.2-1.4-2.8-1.3-5.6-2.7-8.2-4.3v-.2c4.3,1.7,8.7,2.9,13.1,4.1,0,0,4.3,1.6,4.3,1.6,0,0,0,.1,0,.2h0Z" fill="#fff"/><path d="M112.7,374.1c-2.2-.4-3.7-1.9-5-3.8-1.3-1.7-2.5-3.6-3.5-5.6,0,0,0,0,.1-.1,1.4,1.6,2.9,3.1,4.4,4.5,1.7,1.4,3.1,2.7,4.1,4.9,0,0-.1.2-.1.2h0Z" fill="#fff"/><path d="M117.7,386.8c-1.8,1.3-1.5-1.5-2.2-1.7-.6-.1-1,.1-1.5-.2-.5-.3-.8-.3-.6-1.8.2-1.5.7-.6.6-1.4,0-.9-.5-1.3-.4-2,0-.7,0-1,.5-1.3.6-.3.9-.2.8-.7,0-.5.5-.9.9-1.3.4-.5.8-1.3,1.4-1.3.5,0,.5.6.9-.3.4-.9.4-1.5,1.2-1.1.9.3,1.1.3,1.3,1,.2.7.7.7,1.1,1.5.4.9,1.3.2,1.7.9.4.8.7,2,.2,2.2-.5.2-.1.7-.3,1.5-.1.9.5,2.3,0,2.3-.6,0-.9.2-1.2.8-.3.6,0,1.2-.4,1.7-.5.5-1.7.7-2,.3-.3-.4-1.8.9-1.8.9Z" fill="none" stroke="#fff" stroke-miterlimit="10" stroke-width=".8"/><path d="M119.2,375.9c1.3-1,1.2,1.1,1.6,1.2.5,0,.8-.1,1.1.1.4.2.6.2.6,1.3,0,1.1-.5.4-.4,1.1.1.6.4.9.4,1.5,0,.5.1.7-.3.9-.4.2-.7.2-.6.6,0,.4-.3.7-.6,1-.3.4-.6,1-1,1.1-.4,0-.4-.4-.7.3-.3.7-.2,1.1-.9,1-.7-.2-.9-.2-1-.7-.2-.5-.6-.5-.9-1.1-.3-.6-1,0-1.3-.6-.3-.6-.6-1.5-.2-1.7.4-.2,0-.5.2-1.2,0-.7-.4-1.8,0-1.8.4,0,.6-.2.9-.7.2-.5,0-.9.3-1.3.3-.4,1.2-.5,1.4-.2.2.3,1.3-.7,1.3-.7Z" fill="none" stroke="#fff" stroke-miterlimit="10" stroke-width=".6"/><path d="M117.3,383.6c-1.1.3-.5-1.1-.8-1.3-.3-.2-.5-.2-.7-.4-.2-.3-.3-.3,0-1.1.3-.7.4-.1.6-.6.1-.5,0-.8.1-1.1.2-.3.1-.5.4-.5.3,0,.5,0,.5-.2,0-.3.4-.3.7-.5.3-.1.6-.5.9-.4.3.1.1.4.5,0,.3-.4.4-.7.8-.3.4.3.5.4.5.8,0,.4.2.5.3,1,0,.5.6.3.7.8,0,.5,0,1.2-.3,1.2-.3,0-.2.3-.4.7-.2.4-.2,1.2-.5,1.1-.3-.1-.5,0-.7.2-.3.2-.2.6-.5.7-.3.1-.9,0-1-.3,0-.3-1.1,0-1.1,0Z" fill="none" stroke="#fff" stroke-miterlimit="10" stroke-width=".4"/><path d="M165,146.3c.3,0,.6,0,.8,0,1.5.3,1.7,3.2,2.9,3.6,1.2.4,3.1,1.1,3.7,2.2.6,1.2-1,3.1-1,3.1,0,0,1.5,3.5.8,5-.5,1.1-2.5,2.6-3.1,3.6-5.4,9.2-13.5,15.5-21.2,15.5s-10.1-2.9-13.8-9.8c-1.2-17,11.2-21.9,22.7-21.9s1,0,1.5,0c0,0,.1,0,.2,0,2.3,0,4.6-1.4,6.6-1.4M165,143.8h0c-1.4,0-2.7.4-3.9.8-1,.3-1.9.6-2.7.6h-.1c-.5,0-1,0-1.6,0-8.6,0-15.7,2.6-20.1,7.3-4,4.3-5.7,10.1-5.2,17.4v.5s.3.5.3.5c4.9,9.2,11.4,11.1,16,11.1,8.3,0,17.3-6.4,23.4-16.8.1-.2.7-.8,1-1.1.8-.8,1.7-1.7,2.2-2.6.8-1.7.3-4.1-.2-5.8.7-1.2,1.3-2.9.4-4.6-.9-1.8-3.1-2.7-4.6-3.3,0-.2-.2-.4-.3-.6-.5-1.1-1.4-2.9-3.4-3.3-.4-.1-.9-.2-1.4-.2h0Z" fill="#fff"/><path d="M134.5,169.4c.7-5.9,5.4-8.8,10.3-11,1.7-1.1,3.6-2.2,5.7-2.5,1-.2,2.1-.3,3.1-.2h0c-2.8,1.5-5.7,2.2-8.6,3.2-2.7,1.3-4.8,3.6-6.9,5.8-1.3,1.5-2.4,3.1-3.5,4.9h-.1Z" fill="#fff"/><path d="M135.7,173.6c5.2,0,10.5-.7,15.2-2.8,2.6-1.8,5.2-3.6,8.1-4.9,0,0,0,.1,0,.1-2,2.6-5,4.2-8,5.2-2.9,1.4-5.8,3.1-9,3.5-2.2.2-4.5,0-6.4-1,0,0,0-.1,0-.1h0Z" fill="#fff"/><path d="M138.8,180.3c1.5,1.8,3.3,3.6,6.4,4.3,6.4,1.5,11-2,11-2-5.2,2.1-9.3,2.3-15.2-4.1,0,0-2.1-4-6.8-7.1-.1-5.4-2.2-9.2-2.2-9.2-2.1-8.4.4-11.8,4.9-15,0,0-5.5,1.9-7.7,8.1-1.2,3.3-.5,6,.3,8.4.3,3.2-3.2,5.9-4.8,8.8-.5,1-.5,2-.3,3,0,0,0,0,0,0,.1.4.4,1,.7,1.7.4.6.8,1.2,1.1,1.5,0,0,0,0,0,0,.7.7,1.6,1.3,2.7,1.3,3.3.1,7.2-1.4,9.8.2Z" fill="none" stroke="#fff" stroke-linecap="round" stroke-linejoin="round" stroke-width="2.5"/><path d="M135.3,169.3c0-2.1,1.6-3.7,3.3-4.7,2.3-2.3,4.8-4.6,8.2-5.1,0,0,0,.1,0,.1-2.4,2.2-5.5,3.2-8,5.2-1.2,1.5-2.2,3-3.5,4.5,0,0-.1,0-.1,0h0Z" fill="#fff"/><path d="M137.8,173.1c2-.7,3.9-1.1,5.9-1.5,3.2-1.4,5.9-3.5,9.3-4.3,0,0,0,0,0,0-1,1-2.2,1.8-3.4,2.4-1.8,1-3.9,1.4-5.9,2.1-1.5.8-3.2,1.6-5,1.4-.4,0-.7,0-1.1-.2,0,0,0-.1,0-.1h0Z" fill="#fff"/><path d="M136.4,171.7c3.1-1.6,6.6-1.6,9.7-3.3,0,0,0,0,0,0-1.4,1.1-3,1.8-4.6,2.5-1.6.7-3.3,1.2-5.1.8,0,0,0-.1,0-.1h0Z" fill="#fff"/><path d="M145.4,164.6c-3.6,1.2-6.2,4-9.6,5.6,0,0,0,0,0,0,1-1.7,2.6-2.9,4.3-3.7,1.7-.9,3.5-1.6,5.3-2h0Z" fill="#fff"/><path d="M142.8,167.7c-1.5,1.2-3.2,2.3-5,2.9-.6.2-1.3.3-2,.2,0,0,0-.1,0-.1,1-1,2.1-1.4,3.4-1.7,1.2-.4,2.4-.8,3.5-1.4h0Z" fill="#fff"/><path d="M134.2,164c-.3-2.1.9-3.9,2.4-5.3,1.9-2.7,3.9-5.4,7.1-6.5,0,0,0,0,0,0-2,2.6-4.8,4.2-6.9,6.6-.9,1.7-1.6,3.3-2.6,5.1,0,0-.1,0-.1,0h0Z" fill="#fff"/><path d="M142.5,156.1c-3,2.3-4.6,5.7-7.4,8.3,0,0,0,0,0,0,.4-1.9,1.6-3.5,3-4.8,1.3-1.4,2.8-2.6,4.5-3.5h0Z" fill="#fff"/><path d="M139.4,159.9c-.7,1.8-1.7,3.5-2.9,5-.5.4-1,.8-1.6,1.1h0c.4-1.4,1.2-2.3,2.1-3.2.8-.9,1.7-1.9,2.4-2.9h0Z" fill="#fff"/><path d="M141,177.9c2,0,3.7,0,5.7,0,3.1-.8,5.8-2.6,9-3.1,0,0,0,0,0,0-2.4,2.4-5.8,2.9-9,3.4-1.9.7-4,1-5.8-.3,0,0,0-.1,0-.1h0Z" fill="#fff"/><path d="M151.9,174.4c-1.6,1-3.4,1.7-5.3,2.1-1.8.6-3.8.8-5.7.2,0,0,0-.1,0-.1,1.8-.6,3.6-.8,5.5-.9,1.8-.2,3.6-.7,5.4-1.3,0,0,0,.1,0,.1h0Z" fill="#fff"/><path d="M147.7,174.8c-2.6,0-4.9,1.5-7.5.9,0,0,0-.1,0-.1,1.1-.9,2.4-1.1,3.7-1.1,1.3,0,2.6,0,3.8.1h0Z" fill="#fff"/><path d="M126.2,176.8c-.3-1.1-.5-2.3.3-3.4.4-.5,1-.7,1.4-1,1.4-1.1,2-3,2.8-4.6.3-.7.3-1.6.6-2.3,0,0,.1,0,.1,0,.2.5.3,1.1.3,1.6.2,1.1-.5,2.4-1.1,3.3-.9,1.3-2.8,2-3.3,3.5-.4.7-.4,1.9-1,2.9h-.1Z" fill="#fff"/><path d="M132.6,177.6c.5-.9,1.4-1.1,2.3-.9.8,0,1.7.3,2.4.7,0,0,0,.1,0,.1-1.3-.1-2.2.3-3.3.5-.4,0-.8,0-1.2-.4h0Z" fill="#fff"/><path d="M170.1,149.4c-1.1.7-1.8,1.1-3,1.4-1.1.4-2.1,1-3,1.6,0,0,0-.1,0-.1.7-.9,1.6-1.8,2.6-2.5.9-.8,2.4-1.4,3.6-.6,0,0,0,.1,0,.1h0Z" fill="#fff"/><path d="M174.2,155.6c-1.2,1-2.6,1.3-4.1,1.4-1.4.2-2.8.3-4.3.4h0c2-.8,4.1-1.7,6.1-2.1.7,0,1.4,0,2.2.2,0,0,0,.1,0,.1h0Z" fill="#fff"/><path d="M110.1,275.3c1.1,2,1.7,4.1.7,6.5-1.4,2.1-3.6,2.6-4.8,4.6-2.5,3.6-6.5,3.8-8.5,7.6-.9-.2-.6-2.6-.4-3.5.9-3.5,5.1-4.2,7.8-5.5,4.7-1.5,2.7-5.9,4.9-9.7,0,0,.3,0,.3,0M111.8,272.3h-1.8c-1.6.1-2.3.8-2.7,1.6h0c-1.1,1.9-1.4,3.8-1.6,5.4-.4,2.5-.5,2.7-1.6,3h-.2c0,0-.2.1-.2.1-.5.2-1.1.4-1.7.7-2.7,1-6.8,2.5-7.8,6.8h0c0,0,0,.2,0,.2-.9,5,.9,6.5,2.6,6.9l2.2.5,1.1-2c.7-1.3,1.9-2,3.3-2.9,1.6-1,3.5-2.2,5-4.4h0c0,0,0-.2,0-.2.3-.5.8-.9,1.6-1.5,1-.7,2.1-1.6,3.1-3v-.2c.1,0,.3-.2.3-.2,1.3-2.9,1-6-.8-9.1l-.9-1.5h0Z" fill="#fff"/><path d="M131.9,232.1c-3.6,5.2-1.3,7.7-1.4,11.4s-2.8,4.9-2.8,7.5c0,2.6,1.2,5.4.4,9-.8,3.6-13.1,13-13.1,13-1.9,1.4-3.2,2.4-4.2,2.4-1.4,0-2.2-2-2.8-7.4-2.5-19.8,7.7-25.9,7.7-25.9,4.5-6.2,16.1-10,16.1-10M138.3,227.3l-7.2,2.4c-.5.2-12,4-17.1,10.6-2.2,1.6-10.9,9.1-8.5,28.1.5,4.3,1.2,9.6,5.3,9.6s3.4-1.1,5.8-2.9c3.9-3,13.2-10.4,14.1-14.5.6-2.9.2-5.3,0-7.2-.1-.9-.3-1.7-.3-2.4,0-.4.2-.8.8-1.7.8-1.3,1.9-3,2-5.7,0-1.3-.2-2.5-.4-3.5-.4-2.2-.7-3.7,1.3-6.5l4.3-6.2h0Z" fill="#fff"/><path d="M109.5,271.9c.6-14.3,10-27.5,20.9-36.2,0,0,0,.1,0,.1-7.3,6.4-13.1,14.6-16.7,23.6-.3.7-.7,1.7-1,2.4-1.4,3.3-2.2,6.7-3.2,10.1h-.1Z" fill="#fff"/><path d="M109.6,274.2c-.1-3.1,1.1-6,2.7-8.6,1.9-4.6,4-9.4,8-12.7,0,0,.1,0,.1,0-2.1,4.7-5.5,8.4-7.7,12.8-.9,2.9-1.7,5.7-3,8.4,0,0-.1,0-.1,0h0Z" fill="#fff"/><path d="M109.5,274.3c1.2-5.4,4.2-10.1,7.8-14.3,3.5-4.2,7.3-8,11.5-11.5h0c-3.9,3.8-7.5,7.9-10.7,12.2-3.1,4.4-5.9,8.9-8.5,13.6,0,0-.1,0-.1,0h0Z" fill="#fff"/><path d="M110.2,275.1c.6-3.3,2.7-5.8,5.2-7.9,3.5-4,7.2-8,12.2-9.9,0,0,.1,0,0,.1-3.7,3.8-8.3,6.4-12,10.1-1.8,2.6-3.5,5.1-5.4,7.7,0,0-.1,0-.1,0h0Z" fill="#fff"/><path d="M111.4,275c.3-2.2,1.9-3.7,3.7-4.8,1.5-1.4,2.7-3.1,4.5-4.2,1.2-.7,2.4-1.4,3.8-1.7,0,0,.1,0,0,.1-2.4,2.8-5.4,3.9-8,6.1-1.2,1.7-2.3,3.2-3.9,4.6,0,0-.1,0-.1,0h0Z" fill="#fff"/><path d="M126.9,277.2c3.7,0,18.3,2.5,15.9,3.5-2.5,1-3.2,4.3-5.6,6.6-1.7,1.6-3.4,4.5-10,4.5s-6-.4-10.4-1.6l-6.3-3s3.5-3.9,5.8-5.8c2.3-1.9,7.4-3.8,10-4.1.1,0,.3,0,.5,0M126.9,274.7c-.3,0-.6,0-.8,0-2.8.3-8.5,2.3-11.3,4.7-2.4,2-5.9,5.9-6,6.1l-2.3,2.5,3.1,1.5,6.3,3h.2c0,.1.2.2.2.2,4.4,1.1,8,1.7,11,1.7,6.8,0,9.4-2.8,11.1-4.6.2-.2.4-.4.6-.6,1.2-1.2,2-2.5,2.7-3.6.7-1.2,1.3-2.2,2.1-2.5,1.5-.6,2-2,1.8-3.1-.4-2.1-2.6-2.8-8.9-4-3.2-.6-7.6-1.2-9.7-1.2h0Z" fill="#fff"/><path d="M110.9,287.1c6.3.3,13.1,2.3,18.8-1.1,1.1-.6,2-1.5,3.3-2.1,1.2-.6,2.5-.9,3.8-1.2,1.3-.3,2.6-.6,3.9-.8h0c-1.3.4-2.5.8-3.8,1.2-1.2.4-2.5.8-3.6,1.4-2,1.5-4.2,3.3-6.8,4.1-2.6.9-5.4,1-8,.6-2.6-.4-5.2-1-7.7-1.9h0Z" fill="#fff"/><path d="M111.4,287.2c1.7-.6,3.3-.8,5-1,1.7,0,3.4.1,5.1-.4,3.3-1.1,6.3-1.9,9.5-3.2,0,0,0,.1,0,.1-2,3.2-6.1,3.5-9.5,3.7-1.7,0-3.4.7-5,1.1-1.7.2-3.4.3-5.2,0,0,0,0-.1,0-.1h0Z" fill="#fff"/><path d="M110.1,287.2c4.7-2,9.5-3.2,14.3-4.8,1.6-.5,3.2-1,4.8-1.6h0c-3,1.6-6.1,2.9-9.3,4.2-3.1,1.3-6.4,2.6-9.9,2.3,0,0,0-.1,0-.1h0Z" fill="#fff"/><path d="M111.9,286.9c0-1.9,1.6-2.9,3.1-3.5,1.3-.9,2.2-2.3,3.6-3.1.9-.5,1.9-.9,3-1h0c-1,1.4-2.2,2.3-3.7,3-.9.5-2,.7-2.8,1.4-.4.3-.6.8-.9,1.2-.7.8-1.4,1.3-2.3,2h-.1Z" fill="#fff"/><path d="M110.5,287c1.1-1,2.3-1.7,3.6-2.2,1.3-.4,2.8-.7,3.9-1.5,2.4-1.5,4.4-3.4,7.1-4.3,0,0,0,.1,0,.1-.8,1.3-1.8,2.3-3,3.1-1.9,1.3-4,1.4-5.9,2.5-1.7,1.3-3.6,2.3-5.8,2.4,0,0,0-.1,0-.1h0Z" fill="#fff"/><path d="M111.6,287.3c2.4.5,4.6,1.2,6.9,1.9,2.3.6,4.7,1,7.1,1.2h0c-3.6.4-7.5.3-11-.9-1.1-.5-2.3-1.1-3.1-2.1,0,0,0-.1,0-.1h0Z" fill="#fff"/><path d="M45.8,247.8c1.1,1.1,13.9,8.5,18.5,7.1-1.4-.3,13.2-3.6,21,14.2,2.1,5,2.6,8.6,1.1,9.6-1,.8-3,.3-5.4-.4-1.3-2-11.8-.1-14.2-.9-2.2-2.2-2.8-5.2-4.3-7.2-1.4-1.9-4.5-1.6-7.2-5.8-2.7-4.5-1.9-6.8-9.5-16.6M35.1,238.2c2.6,2.9,6,7.4,9.3,11.5,4.4,5.4,5.1,7.3,6.1,10.3.5,1.3,1,2.8,1.9,4.4,1.8,3.3,4.4,5.2,6.1,6.1,1.2.7,1.6.9,1.8,1.2.4.7.7,1.4,1,2.2.7,1.8,1.5,4.3,3.4,6.5,3.8,2.8,10.9-.6,16.1,2.6,3,1.1,5.4,1.7,7.2-.2,4-5.1,2.1-10.1,1.3-13-4.1-15.3-23.8-19.4-24.1-17.4-5.7.8-18.5-8.1-20.2-9.1-3.2-1.9-6.8-4-9.9-5.1h0Z" fill="#fff"/><path d="M85.7,273.5c-14.4-19.8-19.7-3.9-35.6-19.3,15,13.9,23.8-2,35.6,19.3t0,0Z" fill="#fff"/><path d="M87,276.3c-8.1-10.2-14.3-11.8-19.7-11.4,2.6-1.6,5.9-1.5,9.3.9,3,2.2,9,5.4,10.4,10.5h0Z" fill="#fff"/><path d="M87.1,276.5c-12.8-13.1-17.2-7.2-26.8-7.6,8.9-.8,15.8-7.9,26.8,7.6h0Z" fill="#fff"/><path d="M86.8,278.1c-2.3-1.6-4.5-3.3-6.4-4.6-6.3-5.3-9.1.8-14.4,1.4,5.1-4.6,7.8-5.9,14.7-2.7,2,1.1,5.1,3.3,6.1,5.9h0Z" fill="#fff"/><path d="M85.6,278.7c-3.2-1.1-5.6-4.4-7.9-4.1-2.3.2-4.1,1-5.9,1.1,2.5-4.2,5.5-2.1,9.9-.9,1.2.6,3.5,2.1,4,3.9t0,0Z" fill="#fff"/></svg>