<?xml version="1.0" encoding="UTF-8"?><svg id="Layer_1" xmlns="http://www.w3.org/2000/svg" width="191.1" height="544.5" viewBox="0 0 191.1 544.5"><path d="M159.4,156.8c1.4,0,3,2.1,4.2,2.1s.1,0,.2,0c.8-.1,1.8-.3,2.7-.3s1.5.1,2,.4c1.2.8.7,3.5.7,3.5,0,0,3.3,2.6,3.4,4.5,0,1.3-1.1,3.8-1.1,5.1-.4,15.1-7.8,28.2-19.3,28.2s-7.4-1.2-11.6-3.9c-10.7-16.5,0-28.3,11.7-34.2,2.6-1.3,4.2-4.6,6.7-5.3.1,0,.3,0,.4,0M159.4,153.9c-.4,0-.8,0-1.2.2-2.1.6-3.5,2.1-4.8,3.4-.8.9-1.6,1.7-2.4,2.1-5.2,2.6-14.4,8.5-17,18.2-1.7,6.4-.3,13.1,4.2,20l.3.5.5.3c4.5,2.9,8.9,4.4,13.1,4.4,12.3,0,21.6-13,22.1-30.9,0-.3.3-1.1.4-1.6.4-1.2.7-2.5.7-3.7-.1-2.1-1.9-4.2-3.3-5.5,0-1.5-.3-3.5-2-4.7-.9-.6-2.1-.9-3.6-.9-.9,0-1.9.1-2.6.2-.2-.1-.4-.3-.6-.4-.9-.7-2.2-1.6-3.9-1.6h0Z" fill="#fff"/><path d="M140.8,195.9c-2.5-6.1.5-11.4,4.1-16.2,1.1-2,2.3-4.1,4.2-5.5.9-.7,1.8-1.4,2.9-1.9h0c-2,2.9-4.5,5.2-6.8,7.7-2,2.7-2.8,6.1-3.6,9.3-.5,2.1-.7,4.3-.8,6.6,0,0-.2,0-.2,0h0Z" fill="#fff"/><path d="M144.3,199.3c3.2-1.6,5.9-3.5,8.5-5.8,1.7-1.6,3.6-3,4.8-5,1.6-3.2,3.1-6.3,5.3-9.1,0,0,.1,0,.1,0-.6,3.6-2.6,6.7-5,9.4-2.1,2.9-3.9,6.1-6.9,8.2-2,1.4-4.4,2.4-6.8,2.5,0,0,0-.2,0-.2h0Z" fill="#fff"/><path d="M150.9,204.1c2.4,1,5.2,1.7,8.5.8,7-1.9,9.6-7.8,9.6-7.8-4,4.8-7.8,7.2-17,4.2,0,0-4.2-2.8-10.4-3.3-3-5.2-7.1-7.7-7.1-7.7-6.5-7.1-5.9-11.6-3.2-17.2,0,0-4.3,4.8-3.2,12,.6,3.8,2.8,6.1,4.8,8,2.1,2.9,0,7.4,0,11.1,0,1.3.6,2.3,1.3,3.1,0,0,0,0,0,0,.3.3.9.8,1.6,1.2.7.4,1.4.7,1.8.9,0,0,0,0,0,0,1,.3,2.2.4,3.3-.2,3.2-1.6,6.2-5.3,9.6-5Z" fill="none" stroke="#fff" stroke-linecap="round" stroke-linejoin="round" stroke-width="2.8"/><path d="M141.6,195.4c-1-2.1-.4-4.5.7-6.4,1.1-3.5,2.2-7,5.3-9.3,0,0,0,0,0,0-1.1,3.4-3.6,6.1-5,9.4-.3,2.1-.6,4-1,6.2,0,0-.1,0-.1,0h0Z" fill="#fff"/><path d="M146.1,197.7c1.6-1.7,3.2-3.2,5-4.6,2.4-3,3.9-6.5,6.8-9.2,0,0,.1,0,.1,0-.4,1.5-1.2,2.9-2,4.2-1.2,2-3.1,3.4-4.6,5.2-1.1,1.6-2.3,3.2-4.1,4.1-.4.2-.7.3-1.1.4h0Z" fill="#fff"/><path d="M143.9,197.1c2.1-3.2,5.5-5.1,7.7-8.4,0,0,.1,0,.1,0-.8,1.8-1.9,3.3-3.2,4.8-1.2,1.6-2.6,2.9-4.5,3.6,0,0,0,0,0,0h0Z" fill="#fff"/><path d="M148.8,185.4c-2.8,3.1-3.8,7.2-6.3,10.6,0,0-.1,0-.1,0,0-2.2,1-4.1,2.2-5.9,1.1-1.8,2.5-3.4,4.1-4.7,0,0,0,0,0,0h0Z" fill="#fff"/><path d="M148,189.8c-.8,2-1.9,3.9-3.2,5.5-.5.5-1.1.9-1.8,1.2h0c.4-1.5,1.3-2.6,2.4-3.6.9-1,1.8-2.1,2.7-3.2h.1Z" fill="#fff"/><path d="M137.7,190.8c-1.4-1.9-1.2-4.3-.5-6.4.4-3.6.9-7.3,3.5-10.1,0,0,.1,0,.1,0-.5,3.6-2.4,6.6-3.2,10.1,0,2.1.2,4.1.2,6.3,0,0-.1,0-.1,0h0Z" fill="#fff"/><path d="M141.5,178.7c-1.7,3.8-1.4,8-2.7,12,0,0-.1,0-.1,0-.6-2.1-.3-4.2.3-6.3.6-2,1.3-4,2.5-5.8h.1Z" fill="#fff"/><path d="M140.5,184.1c.2,2.1.2,4.3-.2,6.4-.2.7-.5,1.3-1,1.9,0,0-.1,0-.1,0-.3-1.5,0-2.8.4-4.2.3-1.4.6-2.7.8-4.1,0,0,.1,0,.1,0h0Z" fill="#fff"/><path d="M151.7,200.6c1.9-1.1,3.6-2,5.5-3,2.6-2.4,4.3-5.6,7.1-7.9,0,0,.1,0,.1,0-1.1,3.6-4.1,6-7,8.1-1.4,1.6-3.4,3.1-5.8,2.8,0,0,0-.1,0-.1h0Z" fill="#fff"/><path d="M160.4,191.4c-1,1.8-2.4,3.4-4,4.9-1.5,1.5-3.3,2.8-5.4,3.2,0,0,0-.1,0-.1,1.4-1.6,3.1-2.7,4.8-3.8,1.7-1.2,3.2-2.6,4.5-4.2,0,0,.1,0,.1,0h0Z" fill="#fff"/><path d="M156.5,194.1c-2.4,1.5-4,4-6.8,4.9,0,0,0,0,0,0,.6-1.4,1.7-2.3,3-3,1.2-.7,2.5-1.4,3.8-1.9h0Z" fill="#fff"/><path d="M136.7,207.5c-.9-1-1.7-2-1.5-3.4.4-1.3,1.3-2.1,1.2-3.4,0-1.7.1-3.3-.3-4.9-.2-.6-.4-1.2-.4-1.8h.1c.6.5,1,1,1.5,1.7.8,1.6.5,3.5-.2,5.2-.5,1-1,2.3-.8,3.4,0,.9.6,2,.6,3.3,0,0-.1,0-.1,0h0Z" fill="#fff"/><path d="M143.4,204.8c0-1.2.8-1.8,1.8-2.1.9-.4,1.8-.6,2.7-.5,0,0,0,.2,0,.2-1.5.7-2,1.5-3,2.3-.4.2-.8.3-1.4.3,0,0-.1-.1-.1-.1h0Z" fill="#fff"/><path d="M164.7,157.5c-.7,1.3-1.2,2-2.2,3-.8,1-1.5,2.1-2.1,3.2,0,0-.1,0-.1,0,.2-1.3.6-2.6,1.2-3.8.5-1.3,1.6-2.6,3.2-2.5,0,0,0,.1,0,.1h0Z" fill="#fff"/><path d="M172,161.2c-.6,1.6-1.8,2.7-3.2,3.5-1.3.9-2.6,1.9-3.9,2.7h-.1c1.6-1.9,3.1-3.8,4.9-5.3.7-.4,1.4-.8,2.3-1h.1Z" fill="#fff"/><path d="M133.6,206.8c.9,0,1.3,4.4,1.3,4.4-3.8,7.7-7.5,11.6-15.1,15.3-2.4,2.2-4.1,4.8-5.4,7.7l-1.5-2.7c1.1-2.9,2.5-5.6,4.5-8.1,6-4.3,11.9-10.3,15.8-16.2.2-.3.4-.4.5-.4M133.6,204h0c-.6,0-1.9.2-2.8,1.6-3.7,5.5-9.4,11.3-15.2,15.5l-.3.2-.2.3c-2,2.6-3.6,5.5-4.9,8.9l-.5,1.2.6,1.1,1.5,2.7,2.7,4.8,2.3-5.1c1.1-2.6,2.6-4.7,4.5-6.5,7.7-3.8,12-8.1,16.1-16.4l.3-.7v-.8c-.2-2.1-.6-7-4.1-7h0Z" fill="#fff"/><path d="M79.5,472.9c-.9,6.3-2.6,9.4-1.8,17,.7,6.6,1.5,15.3,4.7,21.1,1.9,2.2,4.4,5.8,4.8,8.9.6,3.4,1.3,6.9,2.4,10.3l-.9,3.1c-1.5-4.2-2.9-8.5-4.4-12.5-1-3.1-2.8-4.4-5.4-7-5.1-7.6-7-15.7-7.2-24.7,1.3-6.2,4.6-16,4.6-16h3.2M82.7,470l-3.4.2h-3.2c0,.1-1.9.2-1.9.2l-.6,1.8c-.1.4-3.3,10-4.7,16.3v.3c0,0,0,.3,0,.3.2,10.4,2.6,18.8,7.7,26.2v.2c.1,0,.3.2.3.2.5.5.9.9,1.3,1.3,1.8,1.8,2.8,2.7,3.4,4.6h0c0,0,0,.1,0,.1.9,2.3,1.7,4.7,2.5,7.2.6,1.7,1.2,3.5,1.8,5.3l3,8.3,2.3-8.5.9-3.1.2-.8-.2-.8c-.9-2.8-1.6-6-2.3-9.9-.5-4.1-3.7-8.3-5.3-10.1-2.7-5.1-3.5-12.9-4.2-19.1v-.7c-.6-4.8,0-7.5.7-10.9.4-1.6.7-3.3,1-5.4l.5-3.3h0Z" fill="#fff"/><path d="M78.9,144.5c11,16.9,8.8,37.1,12.3,56.1,2.6,7,8.9,12.4,12.5,19.2,1,1.6,1.8,3.8,2.1,5.6,1.4,5.5,5,10.1,7.5,15.3,2.9,5,4.1,12.7.6,17.8-.9,1.7-.3,3.1-.2,4.7,1.1,7.9,2.3,18,3.9,25.7-.4,7.2-5.4,13.3-10.2,18.2l-2.1,6.2-3.9,3.4c.6-11.5,11.9-16.7,12.9-27.6-2-9.3-3.5-19-4.5-28.5,0-3.4,2.5-5.7,2.9-8.5.9-6.8-3.8-13.7-6.9-20.7-1.8-3.4-1.6-7.5-3.5-10.9-3.5-6.9-9.4-12.2-12.2-19.6-2.3-11.4-2.8-22.9-4.9-34.3-.8-5.7-3.5-10.9-6.4-16.1l.2-6M78.9,141.8c-.2,0-.5,0-.7,0-1.1.3-1.9,1.3-2,2.5l-.2,6c0,.5.1,1,.3,1.4,3,5.5,5.4,10.1,6.1,15.1,0,0,0,0,0,.1,1,5.2,1.6,10.6,2.2,15.8.7,6.1,1.4,12.3,2.7,18.5,0,.1,0,.3.1.4,1.7,4.5,4.4,8.2,7.1,11.8,2,2.7,3.9,5.3,5.3,8.1,0,0,0,0,0,0,.8,1.4,1.1,3,1.5,4.8.4,2,.9,4,1.9,6,.7,1.7,1.6,3.3,2.4,5,2.5,5.1,4.9,9.8,4.3,14.2,0,.8-.6,1.7-1,2.6-.8,1.6-1.9,3.7-1.8,6.2,0,0,0,.2,0,.3,1.1,10,2.6,19.5,4.5,28.3-.5,4.3-3.1,7.8-5.8,11.4-3.2,4.3-6.8,9.1-7.1,15.9,0,1.1.5,2.1,1.5,2.6.4.2.8.3,1.2.3.6,0,1.3-.2,1.8-.6l3.9-3.4c.4-.3.6-.7.8-1.2l1.9-5.6c4.7-4.9,10-11.4,10.5-19.4,0-.2,0-.5,0-.7-1.3-6.6-2.4-14.9-3.4-22.2-.2-1.2-.3-2.3-.5-3.4,0-.4,0-.8-.2-1.1-.2-1-.2-1.4,0-1.9,4.1-6.1,2.6-14.8-.5-20.3-.9-2-2-3.8-3-5.6-1.7-3-3.4-5.9-4.2-9-.3-2.1-1.2-4.4-2.4-6.4-1.7-3.2-3.8-6-5.9-8.7-2.5-3.3-4.9-6.4-6.3-9.9-1-5.5-1.5-11.3-2.1-16.9-1.2-13.5-2.5-27.5-10.6-39.9-.5-.8-1.4-1.2-2.3-1.2h0Z" fill="#fff"/><path d="M76.9,276.6c0,0,3.5,2.4,3.5,2.4-2.9,11.3-3.4,17.9-7.7,28.8-1.7,5.5,1.9,10.4,2.6,16,.9,7.7.7,15.4.5,23.1,0,.1-.1.2-.2.2s-.2,0-.2-.2c-.3-7.6-.7-15.3-2-22.7-1-5.4-5.3-11.2-3.4-17.3,3.7-10.6,4.5-19.3,7-30.3,0,0,0,0,0,0M76.9,273.9h-2.2l-.5,2.1c-.8,3.7-1.5,7.2-2.1,10.5-1.2,6.5-2.4,12.6-4.8,19.4h0s0,0,0,0c-1.5,4.9.2,9.5,1.7,13.5.7,1.8,1.3,3.5,1.6,5.1,1.3,7.4,1.7,15.1,2,22.3,0,.7.3,1.4.8,1.9.5.6,1.3.9,2.1.9,1.6,0,2.9-1.3,2.9-2.8v-1.3c.2-7.2.4-14.7-.5-22.2-.3-2.4-1-4.5-1.7-6.5-1-3.1-1.9-5.7-1.1-8.3,3-7.5,4.1-12.9,5.5-19.2.7-3,1.3-6.1,2.3-9.8l.5-1.8-1.5-1.1q-4.1-2.9-5-2.9h0Z" fill="#fff"/><path d="M80.4,433.8c.3.7.6,1.3,1,1.6,0,0,.1,0,.2,0,.5-.2,1,0,1.5,0,.5-.6,1.2-.9,1.9-.8.2-.3.4-.7.6-1-7.3-20.4-7.2-44.9,10.9-46.7,3.7-.4,7.7-8.1,12.2-6.8,9.9,2.7,8.8,13.3,9.7,20.2,2.1,15-10.5,27.8-27.1,35-.8,1.1-1.1,1.9-1.1,2.6.6.3,1,.9,1.1,1.6.8.3,1.9.4,2.5.4,3.9-2.3,7.9-6,17.2-9.6,6.6-2.5,12-10.2,19-10.7,8.2-.6,20.2,5.7,20.1,15.6,0,2.5-3.3,6.3-3.6,8.5-1.1,8.3-1.2,12.8-6.1,16-5,3.3-11.8,3.8-20.2,1-7.4-2.5-16-7.5-25.7-15.3-.9-.2-1.6-.3-2.3-.2-.5.6-1.3,1.1-2.2,1,0,0,0,0,0,0,0,0,0,.2,0,.3-.1,1-.8,1.8-1.7,2.1,0,.7,0,1.2,0,1.5,12.6,6.5,44,20.4,33.5,38.3-1.3,2.2,0,8.4-4.5,12-6.2,3.2-11.6-.9-14.8-.6-11.5,1.2-19.3-16-18.9-48.2-.2-.8-.5-1.3-.8-1.7-.1,0-.2-.2-.3-.2-.8-.6-1.8-.3-2.6.3-1.2,6.4-3.5,15.8-7.6,23.3-4.3,7.7-12.7,16.8-21.7,15.3-4.1-.7-7.3-10.6-12.7-15.7-7.6-5.5-6-10.3-4.3-17.1,3.2-12.7,17.2-21,42-14.8,1.2,0,1.9-.3,2.3-.5.1-.3.3-.5.5-.7,0-.7-.7-1.5-1.4-2-13.3-4.5-50.4,0-40.9-36.5,1.4-5.2,2.1,1.1,9.8-19.1,7.9-5.4,24.8,6.5,34.3,52.2Z" fill="none" stroke="#fff" stroke-miterlimit="10" stroke-width="3.7"/><path d="M80,449.5c-3.1.4-1.2-2.8-1.9-3.4-.8-.6-1.5-.5-1.9-1.2-.5-.7-.9-.9,0-2.6,1-1.8,1.2-.2,1.6-1.4.3-1.1,0-1.9.5-2.7s.4-1.2,1.3-1.2c.9,0,1.3.3,1.4-.4.2-.7,1.1-.8,1.9-1.1s1.8-1.2,2.6-.8.3,1,1.3.2c1-.9,1.3-1.6,2.3-.7,1,.9,1.3,1.1,1.2,2s.6,1.3.7,2.6c0,1.3,1.6.9,1.8,2.1.1,1.2-.2,3-1,2.9s-.6.8-1.3,1.8c-.7,1-.7,3.2-1.4,2.8-.8-.3-1.3-.3-2,.3s-.6,1.5-1.5,1.8-2.6-.2-2.7-.9c-.2-.7-2.9,0-2.9,0Z" fill="none" stroke="#fff" stroke-miterlimit="10" stroke-width="1.2"/><path d="M78.3,448.9c-.3,3.4-2.2,6.1-4.5,8.5-1.8,2.7-2.8,5.9-4.9,8.3-1.4,1.6-2.9,3.2-4.8,4.4,0,0-.2,0-.1-.1,1.4-3,3.2-5.6,5.3-8,1.3-1.7,3.1-3,4.1-4.9,1.2-3,2.5-5.9,4.8-8.3,0,0,.2,0,.2,0h0Z" fill="#fff"/><path d="M76.2,444.9c-.8,1.9-2.1,3.6-3.6,5-1.4,1.5-3.3,2.4-5,3.5-2.2,1.5-4,3.6-6.2,5.2-3.3,2.4-6.9,4.4-10.9,5.4,0,0-.2-.1,0-.2,3.1-2.7,6.4-4.8,9.9-6.8,2.3-1.4,4.9-2.3,6.9-4.1,2.8-2.9,5.5-5.8,8.8-8.1,0,0,.2,0,.2.1h0Z" fill="#fff"/><path d="M76.3,442.3c-2.1,2.1-4.8,2.7-7.6,3-2.6.8-4.9,2.5-7.7,3-1.8.4-3.7.5-5.6.2,0,0-.1-.2,0-.2,2.5-1.3,5-2.2,7.7-2.6,1.7-.4,3.7-.3,5.3-1,2.5-1.4,4.7-2.6,7.7-2.6,0,0,.1.1,0,.2h0Z" fill="#fff"/><path d="M77.2,446.7c-1,3.5-3.8,6-6.6,8-2.7,2.1-5.5,4.2-8.4,6,0,0-.1-.2-.1-.2,1.3-1.2,2.5-2.3,3.8-3.5,2.6-2.3,4.8-4.9,7.3-7.2,0,0,3.9-3.3,3.9-3.3,0,0,.2,0,.2,0h0Z" fill="#fff"/><path d="M79.1,447.5c-.8,2.8-2.6,5-4.6,6.9-1.7,1.8-4.1,4.3-5.8,6,0,0-.2-.1-.2-.1,1.3-2,3.3-4.8,4.8-6.8,1.5-2.4,3.2-4.5,5.7-6.1,0,0,.2.1.2.1h0Z" fill="#fff"/><path d="M79.1,450.5c.4,4.6-2.5,8.4-4.9,12-.9,1.2-1.8,2.3-2.8,3.3,0,0-.2-.1-.2-.1,1.5-2.4,2.8-5,3.9-7.6,1-2.7,1.9-5.3,3.7-7.7,0,0,.2,0,.2,0h0Z" fill="#fff"/><path d="M75,444.5c-1.3,2.1-3.4,3.1-5.7,3.7-2.1.8-4.3,1.4-6.5,1.8,0,0,0-.2,0-.2,2-1,4-2.1,6-3.1,2-1.2,3.8-2.2,6.2-2.4,0,0,.1.2.1.2h0Z" fill="#fff"/><path d="M75.6,441.8c-2.1,1-4.2,1.1-6.4,1,0,0-3.2.1-3.2.1h-3.3c0,.1,0,0,0,0,1-.3,2.1-.6,3.2-.9,3.2-.7,6.7-2,9.8-.3,0,0,0,.2,0,.2h0Z" fill="#fff"/><path d="M33.1,462.7c.4-1.7,1.3-3.3,2.6-4.5.7-.6,1.5-1,2.1-1.5,1.3-1.1,2-2.8,3.3-4,1.2-1.3,2.6-2.4,4.3-3,.8-.3,1.7-.6,2.7-.6v.2c-1.9,1.7-3.6,3.4-5.7,4.8-1.3,1-3,1.7-4.1,3-1,1.4-1.6,3-3,4.1-.6.6-1.2,1.1-2,1.6h-.2Z" fill="#fff"/><path d="M43.5,479.9c1.4-1.4,2.9-2.2,4.8-2.6,1.1-.4,2.5-.2,3.5-.9.5-.3.9-.9,1.4-1.2,1-.7,2.2-1,3.3-1.2h.1s0,0,0,0c0,.4-.3.8-.5,1-.6.7-1.4,1.3-2.3,1.6-.6.2-1.3.1-1.9.3-1.7.7-2.9,2.3-4.7,2.8-1.2.3-2.4.5-3.8.3,0,0-.1-.1,0-.2h0Z" fill="#fff"/><path d="M33.6,469c1-3.1,3.6-5.1,6.3-6.6,2.6-1.5,5.4-3.3,8.3-4.1-2.3,1.8-5,3.4-7.3,5.4-2.3,2-4.4,3.8-7.1,5.4,0,0-.2,0-.2-.1h0Z" fill="#fff"/><path d="M41.5,478.1c2.9-3.5,7.9-4.7,11.8-6.6,1.3-.6,2.9-1.1,3.9-2,0-.1.2-.2.2,0-.3.8-1.1,1.1-1.7,1.6-1.2.9-4.4,2.8-5.8,3.6-2.6,1.7-5.2,3-8.3,3.5,0,0-.2,0-.1-.2h0Z" fill="#fff"/><path d="M35.6,469.6c.4-1.1,1.2-1.9,2.2-2.3,1.1-.2,2.1-.3,2.8-1.3,1.5-1.6,3.5-2.7,5.7-2.2,0,0,.1.1,0,.2-.7,1-1.5,1.6-2.4,2.1-1.4.9-3.2.7-4.3,1.5-.8.8-1.1,1.6-2.4,2-.5.2-1,.3-1.6.3,0,0-.1,0-.1-.2h0Z" fill="#fff"/><path d="M41,474.6c.6-1,1.4-1.7,2.4-2,.5-.1,1.1,0,1.6-.2,1.3-.6,2.2-2.1,3.7-2.8.9-.4,2-.7,3.1-.8,0,0,0,0,0,0-.5,1.7-2,2.6-3.6,3.2-.9.4-2.2.2-3,.8-.8.7-1.3,1.6-2.5,1.8-.5.1-1,.2-1.7,0,0,0-.1-.1,0-.2h0Z" fill="#fff"/><path d="M46.9,484.4c1.3-1,2.7-1.5,4.2-1.9,1.5-.3,3.2-.2,4.4-1.2.6-.4,1.7-1.3,2-1.6,1.9-1.8,3.9-3.3,6.1-4.9,0,0,.2.1.2.1-.6,2.7-2.6,4.8-5,6,0,0,.3-.3.3-.3-.8,1-2.2,1.1-3.3,1.5-2.1.4-3.6,2.3-5.7,2.6-1,.2-2.1.3-3.2,0,0,0,0-.2,0-.2h0Z" fill="#fff"/><path d="M33.4,465.6c.3-2.2,2-3.6,3.8-4.5,1.7-1.1,3.4-2,5.2-2.9,0,0,.1.2.1.2l-4.3,3.9c-1.3,1.5-2.7,2.6-4.6,3.4,0,0-.2-.1-.2-.1h0Z" fill="#fff"/><path d="M47.8,485.8c1.7-1.1,3.4-1.7,5.4-1.9,0,0,5.7-1.3,5.7-1.3v.2c-1.6,1-3.4,1.9-5.2,2.7-1.8.9-3.9,1.6-5.9.6,0,0,0-.2,0-.2h0Z" fill="#fff"/><path d="M45,481.4c1.5-.9,2.7-1.3,4.4-1.4,1.4-.4,3.1-.5,4.4-1.3,0,0,.2,0,.2,0-.2.8-1.2,1.2-1.9,1.7-2.1,1.1-4.8,3-7.1,1.3,0,0,0-.2,0-.2h0Z" fill="#fff"/><path d="M33.3,459.3c-.5-2.8,1.8-4.7,3.5-6.4.6-.5,1.3-1.1,2-1.5h.1c-1.5,2-2.4,4.3-3.6,6.3-.5.6-1,1.2-1.9,1.7h-.2Z" fill="#fff"/><path d="M38.8,473c.4-1.9,1.8-3,3.4-3.6,1.5-.8,3-1.4,4.7-1.7,0,0,0,.2,0,.2-2.1,1.2-3.8,2.9-5.6,4.4-.7.4-1.4.7-2.4.9h-.1Z" fill="#fff"/><path d="M36.6,471.1c.7-1.4,1.6-1.9,2.9-2.2,0,0,1.7-.7,1.7-.7l1.7-.7v.2c-.3.5-.8.9-1.2,1.4-1.5,1.3-2.8,3.1-5.1,2.3,0,0,0-.2,0-.2h0Z" fill="#fff"/><path d="M147.8,429.9c-1.7-.3-3.3-.8-4.8-1.7-.7-.5-1.3-1.1-2.1-1.5-1.5-.8-3.3-.7-4.9-1.1-2.5-.4-4.7-1.3-7.2-2.1,0,0,0-.2,0-.2.9-.5,1.8-.5,2.7-.6,1.8,0,3.5.3,5.1,1,1.6.6,3,1.8,4.6,2.3,1.7.4,3.5.6,4.8,1.7.7.5,1.4,1.1,1.9,1.9v.2h-.1Z" fill="#fff"/><path d="M145.4,449.8c-1.7,1.1-3.5,1.4-5.4,1.2-1.2,0-2.4-.7-3.6-.6-.6,0-1.2.3-1.8.4-.9.1-1.9-.1-2.7-.6-.3-.2-.7-.4-.8-.7,0,0,0,0,0,0,1.2-.3,2.4-.5,3.6-.3.6.2,1.2.5,1.8.6,1.8,0,3.5-.9,5.4-.8,1.2,0,2.4.2,3.6.7,0,0,0,.1,0,.2h0Z" fill="#fff"/><path d="M149.9,435.8c-3.1-.4-5.8-1.1-8.7-2.1-2.9-.9-6.1-1.2-8.9-2,3-.3,6.2,0,9.2.4,3.1.3,6.3,1.1,8.5,3.5,0,0,0,.2,0,.2h0Z" fill="#fff"/><path d="M146.4,447.4c-3.1.8-6,.6-9,.1-1.6-.2-5.2-.6-6.7-.9-.8-.2-1.6-.2-2.2-.8,0-.1,0-.2.2,0,1.3.4,3,.2,4.3.2,0,0,4.5,0,4.5,0,3.1-.2,6.1-.1,9,1.3,0,0,0,.2,0,.2h0Z" fill="#fff"/><path d="M148.4,437.2c-1,.5-2.1.6-3.1.3-.5-.2-.9-.6-1.4-.7-1.4-.2-3,.6-4.6.4-1-.1-2-.4-3-.9,0,0,0-.1,0-.2,1.4-1,3.1-1.2,4.7-.8,1,.1,2,.9,3,.9,1.1-.2,2-.6,3.1,0,.5.2,1,.4,1.4.9,0,0,0,.2,0,.2h0Z" fill="#fff"/><path d="M145.5,444c-1,.6-2,.8-3.1.6-.5-.2-1-.5-1.5-.6-.5,0-1,0-1.5.1-1.5.5-3.1.5-4.6-.1-.5-.2-1-.4-1.5-1,0,0,0,0,0,0,0,0,0,0,0,0h.1c1.5-.5,3-.8,4.5-.3,1,.1,2,.9,3,.8,1.1-.2,1.9-.7,3.1-.3.5.2,1,.3,1.5.7,0,0,0,.2,0,.2h0Z" fill="#fff"/><path d="M144.1,455.3c-1.4.9-2.9,1.4-4.5,1.5-1.6,0-3.1-.6-4.7-.2-1.2.1-2.5.6-3.6,0,0,0,.4.2.4.2-2.7-.1-5.4-1.3-7-3.5,0,0,.1-.2.1-.2,1.3.3,2.5.6,3.7.9,1.3.3,3,.8,3.9,1.2,1.7.6,3.7,1.1,5.5.4,2-.7,4-.7,6.1-.4,0,0,0,.2,0,.2h0Z" fill="#fff"/><path d="M148.7,432.5c-2.1,0-3.8-.4-5.6-1.2,0,0-5.5-1.9-5.5-1.9v-.2c2,0,4,.2,5.9.5,2,.2,4.2.7,5.3,2.6,0,0-.1.2-.1.2h0Z" fill="#fff"/><path d="M143.9,456.9c-1.4,1.7-3.6,1.9-5.6,1.8-2,0-3.9,0-5.9-.3,0,0,0-.2,0-.2l5.7-1.1c1.9-.6,3.7-.7,5.7-.4,0,0,0,.2,0,.2h0Z" fill="#fff"/><path d="M144.7,451.8c-.9,1.7-2.8,2.1-4.6,1.9-1.2,0-2.5,0-3.7-.4-.4-.2-.9-.1-1.2-.6,0,0,.2,0,.2,0,1.5.2,3.1-.3,4.5-.6.8-.2,1.5-.5,2.2-.6.8,0,1.5,0,2.4,0v.2h.1Z" fill="#fff"/><path d="M146.8,441.6c-1.8.5-3.2,0-4.8-.6-1.5-.4-3.1-.8-4.7-1,0,0,0-.2,0-.2,1.6-.4,3.3-.4,5-.3,1.8,0,3.5.4,4.6,1.9,0,0,0,.2,0,.2h0Z" fill="#fff"/><path d="M148.1,439c-1.1,1.1-2.5,1-3.8.5-1.2-.3-2.4-.7-3.5-1.2,0,0,0-.2,0-.2h1.9c0,0,1.8-.1,1.8-.1.6,0,1.2-.2,1.8,0,.6.2,1.1.4,1.8.9,0,0,0,.2,0,.2h0Z" fill="#fff"/><path d="M118.4,394.8c.3,1.8,0,3.5-.7,5.1-.4.8-1,1.5-1.4,2.2-.8,1.5-.8,3.4-1.5,4.9-.6,1.6-1.5,3.2-2.8,4.4-.6.6-1.3,1.2-2.3,1.5v-.2c1-2.3,2-4.5,3.4-6.6.8-1.5,2.1-2.7,2.6-4.3.4-1.6.4-3.4,1.2-4.9.4-.8.7-1.5,1.3-2.3h.2Z" fill="#fff"/><path d="M105.2,381.5c-.2,2-.9,3.6-2,5.1-.6,1-1.8,1.8-2.2,2.9-.2.6-.2,1.2-.3,1.8-.3,1.2-1,2.1-1.8,3h0c0,.1,0,.1,0,0-.2-.3-.3-.7-.3-1.1,0-1,.2-1.9.7-2.7.4-.5.9-.9,1.2-1.4.8-1.6.8-3.6,1.9-5.2.7-1,1.5-2,2.7-2.6,0,0,.2,0,.2.1h0Z" fill="#fff"/><path d="M116.2,388.7c1.1,3,.4,6.3-.7,9.1-1.1,2.8-2.1,6-3.8,8.4.6-2.9,1.7-5.9,2.2-8.8.5-3,1-5.8,2-8.7,0,0,.2,0,.2,0h0Z" fill="#fff"/><path d="M108.2,380.2c0,4.6-3.1,8.6-5,12.6-.6,1.3-1.5,2.6-1.7,4,0,.1,0,.2-.2.1-.3-.8.1-1.6.3-2.3.4-1.5,1.7-4.9,2.2-6.4.9-2.9,2.1-5.6,4.2-8,0,0,.2,0,.2,0h0Z" fill="#fff"/><path d="M116.3,385c.3,1.1.3,2.2-.3,3.1-.7.8-1.4,1.6-1.4,2.8,0,2.2-1,4.2-3,5.4,0,0-.2,0-.2,0,0-1.2.2-2.2.5-3.1.5-1.5,2-2.5,2.4-3.9.1-1.1-.2-2,.6-3,.3-.4.6-.9,1.1-1.2,0,0,.2,0,.2,0h0Z" fill="#fff"/><path d="M110.5,380.8c.2,1.1,0,2.2-.6,3.1-.3.4-.8.7-1.1,1.2-.7,1.3-.3,3-1.1,4.5-.5.9-1.2,1.8-1.9,2.5,0,0,0,0-.1,0-.7-1.7-.1-3.3.8-4.7.5-.9,1.5-1.6,1.8-2.6.2-1.1,0-2,.8-3,.3-.4.7-.8,1.2-1.1,0,0,.2,0,.2,0h0Z" fill="#fff"/><path d="M95.6,387.1c-.4,1.6-1.1,2.9-2,4.2-1,1.1-2.3,2.2-2.7,3.7-.2.8-.4,1.8-.5,2.6-.3,2.2-1,5.1-1.6,7.6,0,0-.2,0-.2,0-1.2-2.4-1.1-5.4,0-7.9,0,0,0,.4,0,.4,0-1.3.9-2.2,1.6-3.2,1.3-1.6,1.3-4,2.8-5.6.7-.8,1.5-1.5,2.4-2.1h.2Z" fill="#fff"/><path d="M94.1,386.6c-.6,2-1.6,3.5-2.9,4.9,0,0-3.5,4.6-3.5,4.6h-.2c.7-1.9,1.4-3.7,2.4-5.5.8-1.9,2-3.7,4.2-4.2,0,0,.1.2.1.2h0Z" fill="#fff"/><path d="M99.5,386.6c-.6,1.7-1.3,2.7-2.5,3.9-.9,1.2-2,2.4-2.5,3.8,0,0-.1.1-.1.1-.3-.8.2-1.7.4-2.5.9-2.2,1.8-5.4,4.7-5.5,0,0,.1.2.1.2h0Z" fill="#fff"/><path d="M112.5,381.3c.3,2.8-.5,5.3-1.9,7.6-1.2,2.3-2.4,4.6-4,6.7,0,0-.2-.1-.2-.1,1-2.4,1.9-4.8,2.7-7.2.7-2.6,1.4-4.9,3.1-7,0,0,.2,0,.2,0h0Z" fill="#fff"/><path d="M114.5,384.1c.3,1.5,0,2.5-.8,3.6,0,0-.9,1.6-.9,1.6l-.9,1.6s-.2,0-.2,0c0-.6,0-1.3.2-1.9.4-1.9.2-4.2,2.5-5,0,0,.2,0,.2,0h0Z" fill="#fff"/><path d="M101.2,498.5c-1.7-.7-3-1.8-4-3.3-.4-.7-.7-1.6-1.2-2.3-.9-1.5-2.4-2.5-3.4-3.9-1.1-1.4-1.9-3-2.3-4.7-.2-.9-.3-1.8-.1-2.7h.2c1.4,2.2,2.7,4.1,3.8,6.4.8,1.4,1.2,3.2,2.3,4.5,1.2,1.2,2.7,2.1,3.5,3.6.5.7.9,1.4,1.3,2.3h-.1Z" fill="#fff"/><path d="M119.4,494.2c-1.6-1.2-2.6-2.6-3.3-4.4-.5-1.1-.6-2.5-1.3-3.4-.4-.5-1-.8-1.4-1.2-.8-.9-1.3-2-1.6-3.1h0c0-.1,0-.2,0-.2.4,0,.8.1,1.1.3.8.5,1.5,1.2,1.9,2,.2.6.3,1.3.6,1.8.9,1.6,2.7,2.6,3.4,4.3.5,1.1.9,2.3.8,3.7,0,0-.1.1-.2,0h0Z" fill="#fff"/><path d="M107.6,499.8c-3.2-.6-5.6-2.9-7.4-5.3-1.9-2.4-4-4.9-5.2-7.6,2.1,2,4.1,4.5,6.4,6.5,2.3,2,4.4,3.9,6.4,6.3,0,0,0,.2,0,.2h0Z" fill="#fff"/><path d="M119,497.4c-3.9-2.4-5.7-7.1-8.1-10.8-.8-1.2-1.4-2.7-2.5-3.6-.1,0-.2-.2,0-.2.8.2,1.3.9,1.8,1.5,1.1,1.1,3.3,4,4.3,5.3,2,2.3,3.7,4.7,4.7,7.7,0,0,0,.2-.2.1h0Z" fill="#fff"/><path d="M110.7,501.8c-1.1-.3-2-.9-2.5-1.9-.3-1-.6-2-1.7-2.6-1.8-1.2-3.1-3.1-3-5.4,0,0,0-.1.2,0,1,.6,1.8,1.3,2.4,2.1,1,1.2,1.1,3,2.1,4.1.9.7,1.8.9,2.3,2.1.2.5.4,1,.5,1.6,0,0,0,.1-.1.1h0Z" fill="#fff"/><path d="M117.3,499c-1.1-.4-1.9-1.1-2.3-2.1-.2-.5-.2-1.1-.4-1.5-.7-1.2-2.4-1.9-3.2-3.3-.6-.9-.9-1.9-1.2-3,0,0,0,0,0,0,1.8.3,2.9,1.6,3.6,3.1.5.9.5,2.1,1.3,2.9.8.7,1.7,1.1,2.1,2.3.2.5.3,1,.3,1.6,0,0,0,.1-.2.1h0Z" fill="#fff"/><path d="M122.2,486.6c-1.1-1.2-1.9-2.5-2.5-3.9-.5-1.4-.7-3.1-1.8-4.2-.5-.5-1.6-1.5-1.9-1.7-2.1-1.7-3.8-3.4-5.7-5.4,0,0,0-.2,0-.2,2.7.2,5.1,1.9,6.7,4.1,0,0-.4-.3-.4-.3,1.1.6,1.4,2,1.9,3,.7,2,2.8,3.2,3.3,5.3.3,1,.6,2,.5,3.2h-.2Z" fill="#fff"/><path d="M122.9,482.3c-1.4-1.6-2.1-3.1-2.7-5.1,0,0-2.1-5.4-2.1-5.4h.2c1.2,1.4,2.4,3,3.4,4.7,1.2,1.7,2.1,3.6,1.4,5.7,0,0-.2,0-.2,0h0Z" fill="#fff"/><path d="M120.2,490.3c-1.1-1.4-1.7-2.5-2-4.2-.6-1.4-1-3-1.9-4.1,0,0,0-.2,0-.2.8.1,1.4,1.1,2,1.6,1.4,2,3.7,4.3,2.2,6.9,0,0-.2,0-.2,0h0Z" fill="#fff"/><path d="M115.8,500.5c-2.5-1.1-4.2-3.2-5.5-5.5-1.4-2.2-2.7-4.5-3.6-6.9h.2c1.5,2,3.1,4,4.7,6,1.8,1.9,3.4,3.8,4.4,6.3,0,0-.1.1-.1.1h0Z" fill="#fff"/><path d="M112.4,500.8c-1.4-.5-2.1-1.3-2.6-2.6,0,0-.9-1.6-.9-1.6l-.9-1.6h.1c.5.2,1,.6,1.5,1,1.5,1.3,3.4,2.4,3,4.7,0,0-.2,0-.2,0h0Z" fill="#fff"/><path d="M53.2,382c1.6.9,2.8,2.2,3.6,3.7.4.8.5,1.7.9,2.5.7,1.6,2.1,2.7,2.9,4.3.9,1.5,1.5,3.2,1.7,4.9,0,.9.1,1.8-.2,2.7h-.2c-1.1-2.3-2.2-4.4-3-6.8-.6-1.5-.8-3.4-1.8-4.7-1.1-1.3-2.4-2.4-3.1-4-.4-.8-.8-1.5-1-2.4,0,0,.2-.1.2-.1h0Z" fill="#fff"/><path d="M36.8,402.3c1.6,1.1,2.7,2.4,3.5,4.1.6,1,.7,2.4,1.6,3.3.4.4,1,.7,1.5,1.1.9.8,1.4,1.9,1.8,3h0c0,.1,0,.2,0,.2-.4,0-.8,0-1.1-.3-.8-.4-1.6-1.1-2-1.9-.3-.6-.4-1.2-.7-1.8-1-1.5-2.8-2.4-3.7-4.1-.6-1.1-1-2.3-1-3.6,0,0,.1-.1.2,0h0Z" fill="#fff"/><path d="M46.1,382.8c2.9,1.4,4.7,4.1,5.9,7,1.2,2.8,2.7,5.8,3.2,8.6-1.6-2.5-2.9-5.4-4.6-7.9-1.8-2.5-3.3-4.8-4.7-7.6,0,0,0-.2.1-.1h0Z" fill="#fff"/><path d="M37.7,398.6c4.1,2.2,6.2,6.8,8.8,10.3.8,1.1,1.6,2.6,2.7,3.4.1,0,.2.2,0,.2-.8-.1-1.3-.9-1.9-1.4-1.1-1-3.6-3.8-4.6-5-2.2-2.2-4-4.5-5.1-7.4,0,0,0-.2.1-.1h0Z" fill="#fff"/><path d="M44.4,385.5c1.1.4,1.9,1.1,2.4,2.1.2,1.1.5,2.1,1.5,2.7,1.7,1.4,2.8,3.3,2.6,5.6,0,0-.1.1-.2,0-1-.7-1.7-1.4-2.2-2.3-.9-1.3-.9-3.1-1.7-4.3-.8-.8-1.7-1-2.1-2.2-.2-.5-.4-1-.4-1.6,0,0,0-.1.2-.1h0Z" fill="#fff"/><path d="M40.5,396c1.1.4,1.9,1,2.4,2,.2.5.3,1.1.5,1.5.8,1.2,2.5,1.7,3.4,3.1.6.8,1,1.9,1.4,2.9,0,0,0,0,0,0-1.8-.2-3-1.4-3.8-2.9-.6-.8-.7-2.1-1.4-2.8-.9-.7-1.8-1-2.2-2.1-.2-.5-.4-1-.4-1.6,0,0,0-.1.2-.1h0Z" fill="#fff"/><path d="M34.5,410.1c1.2,1.1,2,2.3,2.7,3.7.5,1.4.8,3,2,4.1.5.5,1.7,1.4,2,1.6,2.2,1.5,4,3.2,6,5,0,0,0,.2,0,.2-2.7,0-5.3-1.6-6.9-3.7,0,0,.4.2.4.2-1.1-.5-1.5-1.9-2.1-2.9-.8-2-2.9-3-3.6-5.1-.4-1-.7-2-.7-3.1h.2Z" fill="#fff"/><path d="M49.4,380.8c2.1.7,3.1,2.7,3.8,4.6.7,1.8,1.3,3.7,1.8,5.6,0,0-.2,0-.2,0l-3.1-5c-1.2-1.6-2-3.1-2.5-5.2,0,0,.1-.1.1-.1h0Z" fill="#fff"/><path d="M35.9,406c1.2,1.3,1.8,2.4,2.3,4.1.6,1.3,1.2,2.9,2.2,4,0,0,0,.2,0,.2-.8,0-1.5-1-2.1-1.5-1.5-1.9-3.9-4.1-2.6-6.7,0,0,.2,0,.2,0h0Z" fill="#fff"/><path d="M58.9,386.2c1.8.5,2.8,2,3.4,3.7.7,1.5,1.2,3.1,1.4,4.8,0,0-.2,0-.2,0-1.1-2.2-2.6-4-4-5.9-.3-.7-.6-1.5-.7-2.4h.2Z" fill="#fff"/><path d="M41.4,393.5c2.9,0,4.3,2.6,5.7,4.7.4.7.8,1.4,1.1,2.2h-.2c-1.6-1.7-3.6-3-5.4-4.6-.5-.6-1-1.2-1.4-2.1v-.2h.1Z" fill="#fff"/><path d="M43.1,389.6c1.5.4,2.2,1.2,2.8,2.4,0,0,1,1.5,1,1.5l1,1.6h-.1c-.6-.2-1.1-.5-1.6-.9-1.5-1.2-3.6-2.1-3.2-4.5,0,0,.2-.1.2-.1h0Z" fill="#fff"/><path d="M77.4,436c-3.4.2-6.4-1.2-9.2-3-3-1.3-6.2-1.8-9-3.5-1.9-1.1-3.6-2.4-5.1-4.1,0,0,0-.2.1-.2,3.2.9,6,2.2,8.8,3.9,1.9,1,3.5,2.5,5.5,3.2,3.2.7,6.3,1.5,9,3.4,0,0,0,.2,0,.2h0Z" fill="#fff"/><path d="M79.7,435.8c-2-.5-3.9-1.5-5.5-2.7-1.7-1.1-2.9-2.9-4.3-4.4-1.9-1.9-4.2-3.4-6.1-5.3-2.9-2.8-5.4-6.1-7.1-9.8,0,0,0-.2.2-.1,3.1,2.6,5.8,5.5,8.3,8.7,1.7,2,3.1,4.4,5.2,6.1,3.3,2.3,6.6,4.5,9.4,7.4,0,0,0,.2,0,.2h0Z" fill="#fff"/><path d="M79.8,435.2c-2.4-1.8-3.5-4.3-4.2-7-1.2-2.4-3.3-4.4-4.2-7.1-.6-1.7-1.1-3.5-1.1-5.5,0,0,.1-.1.2,0,1.7,2.3,2.9,4.6,3.9,7.2.7,1.7.9,3.6,1.9,5.1,1.8,2.2,3.4,4.2,3.8,7.2,0,0,0,.2-.2.1h0Z" fill="#fff"/><path d="M79.2,435.6c-3.6.1-6.9-1.8-9.7-3.9-2.9-2-5.6-4-8.3-6.2,0,0,.1-.2.1-.2,1.5.9,3,1.7,4.5,2.5,2.9,1.8,6.1,3.1,9.1,4.8,0,0,4.3,2.7,4.3,2.7,0,0,0,.2,0,.2h0Z" fill="#fff"/><path d="M78.2,434.5c-2.1-1.1-3.4-2.7-4.6-4.5,0,0-2-2.5-2-2.5l-2.1-2.5s.1-.1.1-.1c.9.6,1.8,1.3,2.6,2,2.5,2.2,5.7,4.1,6.2,7.6,0,0-.2.1-.2.1h0Z" fill="#fff"/><path d="M88.9,434.4c2.1-2.6,4.9-4.1,7.7-5.7,1.8-1.2,2.9-3.1,4.5-4.6,2.2-2.4,4.6-4.4,7.4-6.1,0,0,.2,0,.1.1-1,2-2.4,3.7-3.8,5.3-2.2,2.4-5.3,3.7-7.8,5.8-2.2,2.5-4.7,4.6-8,5.3,0,0-.2,0-.1-.2h0Z" fill="#fff"/><path d="M87,434.4c1.8-3.6,4.2-6.8,6.6-10,1.4-2.3,2-5,3-7.4,1.4-3.8,3-7.4,5.2-10.9,0,0,.2,0,.2,0-.4,4.1-1.7,8-3.7,11.6-1.2,2.4-3,4.5-4.1,7-.9,1.8-1.4,3.9-2.7,5.5-.3.5-.9,1.2-1.3,1.6-.9,1-1.9,2-3.1,2.7,0,0-.2,0-.1-.1h0Z" fill="#fff"/><path d="M86.5,434.7c-.9-2.9-.3-5.4.4-8.1.2-1.8-.4-3.6-.5-5.4-.3-2.7-.2-5.4.4-8.1,0,0,.2-.1.2,0,.9,1.7,1.2,3.6,1.3,5.4.3,2.8-.7,5.5-.8,8.2.5,2.8.6,5.5-.8,8.1,0,0-.2,0-.2,0h0Z" fill="#fff"/><path d="M88.4,434.1c1.3-2.6,3.2-4.5,5.4-6.3,1.8-1.6,4.4-3.9,6.3-5.4,0,0,.1.1.1.1-1.5,1.9-3.7,4.6-5.3,6.4-1.7,2.2-3.7,4.2-6.4,5.3,0,0-.1-.1-.1-.1h0Z" fill="#fff"/><path d="M87.2,433.6c-.2-2.4.5-4.4,1.4-6.6.7-2.1,1.4-4.2,2.1-6.4h.2c0,2.3-.3,4.6-.8,6.8-.3,2.3-.9,4.6-2.8,6.2,0,0-.2,0-.2,0h0Z" fill="#fff"/><path d="M94.9,443.2c3.2.8,5.8,2.7,8.4,4.6,1.8,1.1,4.1,1.3,6,2.1,3.1,1,5.9,2.3,8.7,4.1,0,0,0,.2,0,.2-2.2,0-4.4-.6-6.4-1.3-3.1-1-5.6-3.2-8.5-4.6-2-.7-4.2-1.3-5.9-2.7-.9-.6-1.7-1.4-2.4-2.3,0,0,0-.2.1-.2h0Z" fill="#fff"/><path d="M93,441.2c4,.3,7.9,1.4,11.7,2.4,2.6.5,5.4,0,8,0,4-.1,8,0,12,.7.1,0,.1.2,0,.2-4,1.2-8,1.4-12.1,1-2.7-.2-5.3-1-8-1.2-2-.1-4.1.2-6.1-.4-.6-.1-1.4-.4-2-.6-1.3-.4-2.5-1.1-3.7-1.9,0,0,0-.2,0-.2h0Z" fill="#fff"/><path d="M92.8,441.4c2.5-1.7,5-1.9,7.9-2,1.8-.3,3.3-1.5,5-2.1,2.5-1.1,5.1-1.7,7.9-2,0,0,.2.1,0,.2-1.4,1.3-3.1,2.2-4.8,2.9-2.6,1.1-5.4.9-8.1,1.6-2.5,1.3-5.1,2.2-8,1.6,0,0-.1-.1,0-.2h0Z" fill="#fff"/><path d="M92.8,442l5,1.1c1.7.4,3.2,1.1,4.9,1.5,3.3,1,6.6,1.9,9.9,2.7,0,0,0,.2,0,.2-5.2-.5-10.4-1.1-15.4-2.6-1.6-.7-3.3-1.5-4.5-2.8,0,0,.1-.2.1-.2h0Z" fill="#fff"/><path d="M94.2,441.7c2.2-1.1,4.3-1.2,6.6-1.1,2.2-.1,4.5-.2,6.7-.4v.2c-2.1.8-4.3,1.4-6.5,1.8-2.3.6-4.6.8-6.8-.2,0,0,0-.2,0-.2h0Z" fill="#fff"/><path d="M86.7,450.1c3.2,1,5.6,3.4,7.5,6.1,2.3,2.3,5.2,3.9,7.2,6.5,1.3,1.7,2.5,3.5,3.3,5.6,0,0,0,.2-.2.1-2.6-2-4.8-4.2-6.8-6.8-1.4-1.6-2.3-3.6-4-5-2.7-1.8-5.3-3.6-7.1-6.4,0,0,0-.2.1-.2h0Z" fill="#fff"/><path d="M84.9,450c3.2,2.8,4.7,6.7,5.5,10.7.8,2.6,2.3,4.9,3.1,7.5,1.4,3.8,2.1,7.9,1.9,12,0,.1-.2.1-.2,0-1.6-3.8-2.7-7.6-3.5-11.5-.6-2.6-.8-5.3-1.8-7.8-1.9-3.5-3.8-7-5.1-10.8,0,0,0-.2.2-.1h0Z" fill="#fff"/><path d="M85.9,450.1c3.3,1.5,5.2,4.8,6.8,7.9,1.6,3,3.2,6.1,4.5,9.3,0,0-.2,0-.2,0-.9-1.4-1.9-2.9-2.8-4.3-1.8-2.9-4-5.6-5.8-8.4,0,0-2.6-4.4-2.6-4.4v-.2h.1Z" fill="#fff"/><path d="M85.5,451.4c1.6,1.9,1.9,4.2,1.8,6.6,0,2.3,0,4.5-.2,6.8,0,0-.2,0-.2,0-.3-2.2-.8-4.4-1.2-6.6-.6-2.2-1-4.3-.4-6.7,0,0,.2,0,.2,0h0Z" fill="#fff"/><path d="M89.8,438.2c2.3.4.2,2.3.6,2.9.4.6.9.7,1.1,1.3.2.6.4.8-.7,1.8-1.1,1-.9-.1-1.4.6-.5.7-.5,1.3-1,1.8-.5.5-.6.8-1.2.6s-.8-.5-1.1,0c-.3.5-1,.3-1.6.3s-1.6.4-2,0,0-.8-.9-.4-1.3.8-1.8,0c-.5-.9-.7-1.1-.4-1.7.3-.6-.1-1,.1-2,.2-.9-.9-1-.8-1.9.2-.9.8-2,1.4-1.8s.6-.4,1.3-1c.7-.5,1.2-2.1,1.7-1.7.5.4.8.5,1.5.3.7-.2.8-.9,1.5-.9s1.7.8,1.7,1.3,2.1.7,2.1.7Z" fill="none" stroke="#fff" stroke-miterlimit="10" stroke-width=".9"/><path d="M81.3,445.3c-1.7-.2-.2-1.7-.5-2.1s-.7-.5-.9-.9-.4-.6.4-1.4.7,0,1.1-.5.3-1,.7-1.4.4-.6.9-.5.7.3.8,0c.2-.4.7-.3,1.2-.3s1.2-.4,1.5,0,0,.6.7.3c.7-.3,1-.7,1.4,0,.4.7.6.8.3,1.3s.1.8,0,1.5c-.1.7.7.8.6,1.4-.1.7-.6,1.6-1,1.4s-.4.3-.9.8-.8,1.6-1.2,1.3-.7-.3-1.1-.1-.6.7-1.1.7-1.3-.5-1.3-.9c0-.4-1.6-.4-1.6-.4Z" fill="none" stroke="#fff" stroke-miterlimit="10" stroke-width=".7"/><path d="M88,441c1,.6-.3,1.2-.3,1.5s.3.5.3.8,0,.5-.7.8c-.7.3-.4-.2-.8,0-.4.3-.5.6-.8.7s-.4.3-.7,0-.3-.4-.5-.2-.5,0-.9-.1c-.3-.1-.8,0-1-.4s.2-.4-.4-.4-.8.2-.9-.4c0-.5-.1-.7.1-.9s.1-.5.4-1-.3-.7,0-1.1.8-.9,1-.7.4,0,.8-.2,1-.8,1.1-.5.3.4.7.4.6-.3.9-.2.7.7.6,1,.9.7.9.7Z" fill="none" stroke="#fff" stroke-miterlimit="10" stroke-width=".5"/><path d="M60.2,262.6c.2-.5.3-.9.3-1.2,0,0,0,0-.1,0-.3-.2-.5-.4-.6-.7-.5,0-.9-.2-1.3-.5-.3,0-.5,0-.8.2-6.4,12.6-18.1,23.6-27.1,15.8-1.8-1.6-7.3,0-8.7-2.7-3.1-5.9,2.4-10.1,5.2-13.7,6.2-7.7,18-7.5,28.8-2.8.9-.1,1.4-.3,1.7-.6,0-.4,0-.9.3-1.2-.2-.5-.7-1.1-1-1.4-2.9-.8-6.4-1.1-12.3-3.9-4.1-2-10.2-1.1-13.6-4.2-3.9-3.6-6.4-12.2-1.6-16.6,1.2-1.1,4.5-1.2,5.6-2.1,4.4-3.2,6.6-5.2,10.4-4.3,3.8.9,7.1,3.9,9.5,9.1,2.2,4.6,3.6,11,4.2,19.1.3.5.6.9.9,1.2.5,0,1.1.1,1.4.6,0,0,0,0,0,0,0,0,0,0,.1-.1.5-.4,1.2-.4,1.8-.1.3-.3.6-.5.7-.7-2.5-8.9-10.1-30.1,3.2-33.1s4-3.8,7.7-3.2c4.3,1.5,4.8,6,6.4,7.3,5.7,5,1.1,16.4-14.4,30.6-.3.5-.4.8-.4,1.1,0,0,0,.2,0,.2,0,.6.7,1,1.3,1.1,3.6-2.3,9.1-5.5,14.5-6.8,5.6-1.4,13.7-1.5,17,3.4,1.5,2.3-1.8,8.2-1.8,13.1.8,6-2.2,7.5-6.2,9.7-7.5,4.2-17.7,1.3-25.9-13.3-.6-.5-1-.8-1.3-.9-.2,0-.4,0-.6,0-.3.3-.4,1-.4,1.6,3.8,8.3,22.6,24,1,35.9-3.1,1.7-.4-1.5-13.5,3.9-6.1-1.3-8-14.7,9.4-39.7Z" fill="none" stroke="#fff" stroke-miterlimit="10" stroke-width="2.4"/><path d="M67.8,255.7c1.6,1.3-.8,1.8-.8,2.5s.4.9.3,1.4,0,.8-1.3,1.1c-1.3.3-.7-.5-1.4-.1s-.9.8-1.5,1c-.6.1-.8.4-1.2,0-.4-.4-.4-.7-.8-.5s-.9-.2-1.4-.4-1.4-.3-1.6-.8.3-.6-.5-.7c-.9,0-1.4.1-1.4-.8,0-.9,0-1.1.4-1.5s.3-.9.9-1.5-.3-1.2.2-1.8,1.5-1.2,1.8-.8.6,0,1.4-.2,1.8-1.1,2-.6c.2.5.4.7,1.1.8.6,0,1-.4,1.5,0,.5.3,1,1.3.8,1.7s1.3,1.4,1.3,1.4Z" fill="none" stroke="#fff" stroke-miterlimit="10" stroke-width=".8"/><path d="M68.3,256.9c1.8-1.4,3.9-1.7,6.1-1.7,2.1-.4,4-1.3,6.2-1.4,1.4,0,2.8,0,4.2.3,0,0,0,.1,0,.1-3.5,1.3-6.9.9-10.4,1.3-2,.8-3.9,1.5-6.1,1.4,0,0,0,0,0-.1h0Z" fill="#fff"/><path d="M67.3,259.6c2.6-1,5.3-.5,7.9.3,2.6.4,5.3.4,7.8,1.2,1.7.5,3.3,1.2,4.9,2.2,0,0,0,.1,0,.1-4.5-.3-8.4-2.2-12.7-3.1-2.6,0-5.2,0-7.8-.5,0,0,0-.1,0-.1h0Z" fill="#fff"/><path d="M66.1,260.7c1.9,0,3.4,1.1,4.8,2.3,1.6.9,3.4,1.2,4.9,2.3,1,.7,1.9,1.5,2.6,2.6,0,0,0,.1,0,.1-1.8-.6-3.3-1.4-4.7-2.5-1-.6-1.8-1.6-2.9-2.1-1.1-.4-2.3-.6-3.3-1.3-.5-.3-1-.7-1.4-1.2,0,0,0-.1,0-.1h0Z" fill="#fff"/><path d="M67.7,258.4c2.1-1.1,4.5-.9,6.8-.5,2.2.3,4.5.8,6.7,1.3,0,0,0,.1,0,.1-3.4-.3-6.7-.4-10.1-.5,0,0-3.3-.4-3.3-.4h0Z" fill="#fff"/><path d="M67.2,257.1c1.7-.8,3.5-.9,5.4-.9,1.8,0,3.6,0,5.5,0h0c-1.8.5-3.6.7-5.4,1-1.8.4-3.6.5-5.5,0,0,0,0-.1,0-.1h0Z" fill="#fff"/><path d="M68.7,255.7c1.3-1.5,3.2-2.2,5.1-2.6,1.9-.4,3.8-.7,5.7-.7h0c-1.8.5-3.6,1-5.4,1.7-1.7.8-3.4,1.5-5.3,1.7,0,0,0-.1,0-.1h0Z" fill="#fff"/><path d="M67.7,260.4c1.6-.3,3,.2,4.3,1,1.3.7,2.6,1.4,3.8,2.3h0c-1.4-.4-2.8-.9-4.2-1.3-1.5-.4-2.8-.8-4-1.9,0,0,0-.1,0-.1h0Z" fill="#fff"/><path d="M66.1,261.3c2.7,1.2,4.2,3.8,6.4,5.6,0,0,0,.1,0,.1-1.3-.7-2.5-1.5-3.6-2.3-1.3-.8-2.4-1.8-2.8-3.3,0,0,0,0,0,0h0Z" fill="#fff"/><path d="M95.1,272.1c-1.5,1-3.3.9-5,.5-1.7,0-3.4.5-5.1,0-1.1-.3-2.2-.6-3.1-1.5h0c2.2,0,4.3.2,6.5.8.5.2,1.1.2,1.6.2,1.1-.2,2.1-.6,3.3-.4.5,0,1.1,0,1.7.2h0Z" fill="#fff"/><path d="M98.6,259.4c-1.3,0-2.4-.4-3.4-1.1-.7-.4-1.2-1.1-2-1.3-.4-.1-.8,0-1.2-.1-.6,0-1.8-.8-2.1-1.1.8-.5,1.8-.2,2.5.1.3.2.6.6,1,.7,1.1.5,2.4.4,3.5,1,.7.4,1.3.9,1.8,1.7,0,0,0,.1,0,.1h0Z" fill="#fff"/><path d="M97.9,269.1c-1.9.9-4.1.6-6,0-1.9-.6-4-1.1-5.7-2.1,1.9.3,3.9.8,5.9,1.1,2,.2,3.8.4,5.8.9,0,0,0,.1,0,.1h0Z" fill="#fff"/><path d="M98.7,261.2c-3,.2-5.8-1.6-8.4-2.7-.9-.3-1.8-.9-2.7-.9,0,0,0,0,0,0,0,0,0,0,0,0,.6-.2,1,0,1.5,0,1,.2,3.3.9,4.3,1.2,2,.5,3.8,1.1,5.4,2.4,0,0,0,.1,0,.1h0Z" fill="#fff"/><path d="M97.3,267.8c-1.2.5-2.1,0-2.9-.6-.6-.3-1.4,0-2-.2-1.1-.2-2-.7-2.6-1.6,0,0,0,0,0-.1,1.1-.1,2.1,0,3,.6.6.3,1.1.9,1.8,1,.7,0,1.4-.2,2,.2.3.2.6.3.9.7,0,0,0,.1,0,.1h0Z" fill="#fff"/><path d="M97.2,263c-.7.2-1.4.1-2-.2-.3-.2-.5-.5-.8-.7-.9-.4-2,0-3-.5-.6-.3-1.2-.7-1.7-1.1,0,0,0,0,0,0,1-.5,2.2-.2,3.1.3.6.3,1.1.9,1.8,1.1.7,0,1.4,0,2,.4.3.2.6.4.8.8,0,0,0,.1,0,.1h0Z" fill="#fff"/><path d="M99.2,255.8c-1.4-.3-2.6-.8-3.6-1.8-.5-.5-1.1-.8-1.8-.9-.6-.1-1.2-.2-1.7-.2-1.5,0-3.4-.4-5-.7,0,0,0-.1,0-.1,1.6-.9,3.5-.9,5.1-.3,0,0-.3,0-.3,0,.8,0,1.5.5,2.2.9,1.1.8,2.7.7,3.8,1.6.6.4,1.1.9,1.5,1.5h0Z" fill="#fff"/><path d="M96.3,270.7c-1.2.8-2.6.6-3.9.2-1.3-.3-2.5-.7-3.7-1.2h0c1.3,0,2.5,0,3.8.1,1.3,0,2.4.1,3.7.7,0,0,0,.1,0,.1h0Z" fill="#fff"/><path d="M99.5,254.7c-1.3-.3-2.3-.9-3.3-1.7,0,0-3.2-2.1-3.2-2.1h0c1.2.2,2.4.7,3.6,1.2,1.3.4,2.5,1.1,2.9,2.5,0,0,0,0,0,0h0Z" fill="#fff"/><path d="M98.7,258c-2.1-.4-3.3-2.4-5.3-2.9,0,0,0,0,0,0,.6-.2,1.1,0,1.7.1,1.5.5,3.6.9,3.8,2.8,0,0-.1,0-.1,0h0Z" fill="#fff"/><path d="M93.4,273.6c-.8,1-1.9,1.3-3,1.2-1.1,0-2.2,0-3.2-.3h0c1.6-.3,3.1-.8,4.6-1.2.5,0,1,0,1.7.1h0Z" fill="#fff"/><path d="M97.5,264.8c-1.1.6-2.2.5-3.3,0-1-.4-2-.8-2.9-1.5h0c1.5.3,3.1.4,4.6.6.5.2,1,.3,1.5.7h0Z" fill="#fff"/><path d="M97.6,266.7c-.9.3-1.6.1-2.4-.4-.7-.3-1.5-.7-2.2-1,0,0,0-.1,0-.1.8,0,1.6,0,2.5.1.9,0,1.7.3,2.1,1.2,0,0,0,.1,0,.1h0Z" fill="#fff"/><path d="M28,232.3c1,1.4,1.3,3,1.6,4.7.2.5.4,1,.8,1.5,1.4,1.8,2.2,3.7,3.2,5.7,0,0,0,.1,0,.1-1.2-.5-1.9-1.4-2.5-2.3-1-1.4-1.1-3.2-1.7-4.8-.6-1-1.3-1.9-1.3-3.1,0-.6,0-1.1,0-1.7h.1Z" fill="#fff"/><path d="M38.6,224.5c1.3.3,2.3,1,3,2,.5.6.7,1.5,1.4,2,.7.5,1.5.8,1.8,1.6.2.4.4.8.3,1.3,0,0,0,0,0,0-.7-.4-1.3-.9-1.8-1.6-.2-.3-.3-.8-.5-1.1-.8-.9-2-1.3-2.8-2.2-.5-.6-1-1.2-1.3-2,0,0,0-.1,0,0h0Z" fill="#fff"/><path d="M29.9,228.7c1.2,1.6,2,3.3,2.9,5.1.9,1.7,2.2,3.4,3.1,5.1-1.5-1.2-2.7-3-3.9-4.6-1.2-1.6-2.3-3.5-2.1-5.6,0,0,0,0,.1,0h0Z" fill="#fff"/><path d="M36.9,225.1c2.5,1.5,4.1,4.3,5.9,6.6.5.8,1.4,1.7,1.5,2.6,0,0-.1,0-.1,0-.3-.9-1.2-1.5-1.8-2.2,0,0-2.1-2.1-2.1-2.1-1.5-1.4-2.8-2.9-3.4-4.8,0,0,0-.1.1,0h0Z" fill="#fff"/><path d="M31.2,228.8c.7.3,1.2.7,1.5,1.4.1.3.2.7.3,1,.6.8,1.7,1.2,2.2,2,.2.3,1,1.5.9,1.9-1.1-.2-2-.9-2.5-1.9-.4-.5-.5-1.4-.9-1.8-.9-.6-1.7-1.2-1.6-2.5,0,0,0,0,.1,0h0Z" fill="#fff"/><path d="M35.7,227.1c.7.2,1.3.6,1.7,1.2.2.3.2.7.4,1,.2.3.5.5.8.7.9.5,1.7,1.3,2,2.3,0,.3.3.9.1,1.2,0,0,0,0,0,0h0c-.9-.5-1.7-1.1-2.2-2.1-.4-.5-.5-1.3-1-1.8-.6-.4-1.3-.6-1.5-1.3-.2-.3-.3-.6-.3-1,0,0,0,0,0,0h0Z" fill="#fff"/><path d="M41.8,222.7c1.4.3,2.6,1.1,3.3,2.3.4.6.8,1.1,1.4,1.5.6.5,1.4.9,1.6,1.7,0,0-.1-.3-.1-.3,1.1,1.3,1.8,3.1,1.5,4.9,0,0-.1,0-.1,0-.9-1.4-1.9-3.1-2.4-4.5-.2-.5-.5-1.1-.8-1.5-.7-1.2-2.2-1.5-3.1-2.5-.5-.5-.9-1-1.3-1.6h0Z" fill="#fff"/><path d="M28.9,230.7c1.8,1.9,2.3,4.4,3.5,6.7,0,0-.1,0-.1,0-.9-1-1.7-2-2.4-3-.8-1-1.5-2.3-1.2-3.7,0,0,.1,0,.1,0h0Z" fill="#fff"/><path d="M42.6,222c1.5,0,2.5.8,3.4,1.9.9.9,1.7,1.9,2.5,2.9h0c0,0-3.1-2.1-3.1-2.1-1.1-.7-2-1.4-2.8-2.5,0,0,0-.1,0-.1h0Z" fill="#fff"/><path d="M39.8,224c2.1-.5,3.4,1.8,4.4,3.2.1.2.3.4.3.8h-.1c-.8-1.2-2.4-1.9-3.6-2.8-.4-.3-.7-.7-1-1.2h0Z" fill="#fff"/><path d="M34,227.5c1,.6,1.5,1.5,1.9,2.5.5.9,1,1.8,1.6,2.7h0c-.9-.5-1.7-1.3-2.4-2.1-.8-.8-1.4-1.8-1.1-3,0,0,.1,0,.1,0h0Z" fill="#fff"/><path d="M32.2,228.1c1,0,1.6.7,1.9,1.6.4.7.7,1.5,1,2.2,0,0-.1,0-.1,0-.8-.9-1.8-1.6-2.5-2.5-.2-.4-.3-.7-.4-1.3h0Z" fill="#fff"/><path d="M24.5,262.1c1-1.5,2.7-2.1,4.4-2.3,1.6-.6,2.9-1.7,4.7-2,1.1-.2,2.3-.3,3.4.3,0,0,0,.1,0,.1-2.1.7-4.1,1.3-6.3,1.6-.6,0-1.1.2-1.6.4-.9.6-1.8,1.3-2.9,1.6-.5.2-1,.3-1.6.4h0Z" fill="#fff"/><path d="M24.1,274.3c1-.8,2.1-1.2,3.3-1.3.8-.2,1.6,0,2.4-.3.4-.2.7-.5,1-.7.5-.3,1.9-.6,2.4-.5-.3.9-1.2,1.3-2,1.5-.4,0-.8,0-1.2,0-1.1.3-2.1,1.3-3.3,1.4-.8.1-1.6.2-2.5-.1,0,0,0,0,0-.1h0Z" fill="#fff"/><path d="M22.6,265.9c.9-1.9,2.8-3,4.6-3.8,1.8-.8,3.8-1.7,5.7-2-1.7,1-3.6,1.8-5.2,2.9-1.6,1.1-3.2,2.1-5,2.9,0,0-.1,0,0,0h0Z" fill="#fff"/><path d="M22.2,273.5c2.2-2.1,5.5-2.4,8.2-3.3.9-.3,2-.4,2.7-1,0,0,0,0,0,0,0,0,0,0,0,0-.3.5-.8.6-1.2.9-.9.5-3.1,1.4-4.1,1.8-1.8.9-3.6,1.5-5.7,1.6,0,0,0,0,0-.1h0Z" fill="#fff"/><path d="M20.8,267.5c.6-1.1,1.6-1.3,2.7-1.4.7-.2,1.1-.8,1.7-1.1.9-.5,1.9-.7,3.1-.4,0,0,0,0,0,0-.8.8-1.6,1.3-2.7,1.4-.6.2-1.4,0-2,.3-.5.4-1,1-1.7,1.1-.3,0-.7.1-1.1,0,0,0,0,0,0-.1h0Z" fill="#fff"/><path d="M21.4,272.1c.5-.6,1-1,1.7-1.1.3,0,.7,0,1.1,0,1-.3,1.6-1.2,2.6-1.5.6-.2,1.4-.3,2.1-.2,0,0,0,0,0,0-.5,1.1-1.5,1.5-2.6,1.8-.6.2-1.4,0-2,.3-.6.4-1,.9-1.8.9-.3,0-.7,0-1.1,0,0,0,0,0,0-.1h0Z" fill="#fff"/><path d="M31.1,276.3c1.3-.6,2.5-1,3.9-.9.7,0,1.3,0,1.9-.4.5-.3,1-.6,1.5-.9,1.2-.9,2.9-1.8,4.3-2.7,0,0,.1,0,.1,0-.6,1.7-2.1,2.9-3.7,3.5,0,0,.2-.2.2-.2-.6.6-1.5.6-2.2.7-1.4,0-2.5,1.2-3.9,1.2-.7,0-1.4,0-2.1-.2h0Z" fill="#fff"/><path d="M31.6,277.3c1.2-.6,2.3-.8,3.7-.8,0,0,3.8-.4,3.8-.4h0c-1.2.6-2.4,1.1-3.6,1.4-1.2.5-2.6.7-3.9,0,0,0,0-.1,0-.1h0Z" fill="#fff"/><path d="M29.1,274.7c1.9-1,4-.3,5.9-1.1,0,0,.1,0,.1,0-.3.6-.9.7-1.4,1-1.5.5-3.3,1.6-4.7.2,0,0,0-.1,0-.1h0Z" fill="#fff"/><path d="M20.8,270.9c1.2-1.4,2.7-2.1,4.4-2.5,1.6-.5,3.3-.9,5-1.1,0,0,0,.1,0,.1-1.6.6-3.1,1.2-4.6,2-1.5.8-3,1.5-4.8,1.7,0,0,0-.1,0-.1h0Z" fill="#fff"/><path d="M21.2,268.7c.5-.8,1.2-1.1,2.1-1.2.8-.2,1.5-.4,2.3-.6,0,0,0,.1,0,.1-.6.5-1.3,1-2,1.4-.7.6-1.5.8-2.4.4,0,0,0-.1,0-.1h0Z" fill="#fff"/><path d="M81.5,223.7c.7,1.7.3,3.4-.3,5-.3,1.7,0,3.4-.7,5-.4,1-1,2.1-2,2.8,0,0,0,0,0,0,.5-2.2,1-4.2,2-6.2.2-.5.4-1,.5-1.6,0-1.1-.2-2.2.1-3.3.1-.5.2-1.1.5-1.6h.1Z" fill="#fff"/><path d="M71.3,217c.1,1.3,0,2.4-.6,3.5-.3.7-.9,1.4-1,2.2,0,.4,0,.8,0,1.2,0,.6-.5,1.9-.8,2.3-.6-.7-.5-1.7-.2-2.5.2-.4.5-.7.6-1.1.3-1.2,0-2.4.5-3.6.3-.7.7-1.5,1.4-2,0,0,.1,0,.1,0h0Z" fill="#fff"/><path d="M79.3,220.1c1.1,1.8,1.1,3.9.8,5.9-.3,2-.5,4.1-1.3,5.9,0-1.9.3-4,.2-6-.1-2-.1-3.8.1-5.8,0,0,0,0,.1,0h0Z" fill="#fff"/><path d="M73.1,215.7c.6,2.9-.8,5.9-1.5,8.7-.2.9-.7,1.9-.6,2.8,0,0,0,0,0,0,0,0,0,0,0,0-.3-.5-.1-1-.1-1.5,0-1,.4-3.4.6-4.4.2-2,.6-3.9,1.6-5.7,0,0,.1,0,.1,0h0Z" fill="#fff"/><path d="M78.9,217.7c.6,1.1.3,2-.2,3-.2.7.1,1.4,0,2.1,0,1.1-.4,2-1.3,2.8,0,0,0,0-.1,0-.3-1.1-.2-2.1.2-3,.2-.6.7-1.2.7-1.9,0-.7-.4-1.3,0-2,.1-.3.3-.6.5-.9,0,0,.1,0,.1,0h0Z" fill="#fff"/><path d="M74.6,215.8c.3.7.3,1.4,0,2.1-.2.3-.4.6-.5.9-.2,1,.2,2-.1,3-.2.7-.5,1.3-.9,1.9,0,0,0,0,0,0-.6-1-.5-2.1-.2-3.1.2-.6.8-1.2.8-1.9,0-.7-.3-1.4.1-2,.2-.3.3-.6.6-.9,0,0,.1,0,.1,0h0Z" fill="#fff"/><path d="M66.5,219.1c-.1,1.4-.4,2.7-1.2,3.8-.4.6-.6,1.2-.7,1.9,0,.6,0,1.2,0,1.7.1,1.4,0,3.4,0,5.1,0,0-.1,0-.1,0-1.1-1.4-1.4-3.3-1-5,0,0,0,.3,0,.3-.2-.8.3-1.6.6-2.3.6-1.2.3-2.8,1-4,.3-.6.7-1.2,1.3-1.6h.1Z" fill="#fff"/><path d="M64.1,220.7c-.1,1.4-.5,2.4-1.2,3.5,0,0-1.6,3.4-1.6,3.4h-.1c.2-1.3.4-2.6.8-3.8.3-1.3.8-2.6,2.1-3.3,0,0,.1,0,.1,0h0Z" fill="#fff"/><path d="M69.2,218.3c-.2,2.1-1.9,3.6-2.2,5.6,0,0,0,.1,0,.1-.3-.6-.1-1.1-.1-1.7.3-1.6.4-3.7,2.3-4.1,0,0,0,0,0,0h0Z" fill="#fff"/><path d="M75.9,215.9c.6,1.7.4,3.4-.2,5.1-.4,1.7-.9,3.3-1.6,4.8h-.1c.3-1.7.6-3.4.7-5,0-1.7.3-3.3,1.1-4.9,0,0,.1,0,.1,0h0Z" fill="#fff"/><path d="M77.6,217.4c.4.9.3,1.6,0,2.4-.2.8-.4,1.5-.7,2.3,0,0-.1,0-.1,0-.1-.8-.2-1.6-.2-2.5-.1-.9,0-1.7.9-2.3,0,0,.1,0,.1,0h0Z" fill="#fff"/><path d="M47.7,298.8c-.5-1.7,0-3.4.9-4.9.5-1.6.5-3.4,1.3-4.9.6-1,1.2-2,2.3-2.5h0c-.8,2.2-1.5,4.1-2.7,6-.3.5-.5,1-.7,1.5-.1,1.1,0,2.2-.5,3.3-.2.5-.4,1-.7,1.5h-.1Z" fill="#fff"/><path d="M64.8,297.5c-.2-1.3,0-2.4.4-3.5.2-.7.8-1.4.9-2.2,0-.4-.1-.8-.1-1.2,0-.6.4-2,.7-2.3.6.7.6,1.7.4,2.5-.1.4-.4.7-.5,1.1-.2,1.2.1,2.4-.3,3.6-.3.8-.6,1.5-1.3,2.1,0,0-.1,0-.1,0h0Z" fill="#fff"/><path d="M51.3,301.8c-.7-2-.1-4.1.7-5.9.8-1.8,1.5-3.9,2.7-5.4-.5,1.9-1.3,3.8-1.7,5.7-.4,2-.8,3.7-1.5,5.6,0,0-.1,0-.1,0h0Z" fill="#fff"/><path d="M62.6,298.7c-.8-2.9.4-6,1-8.8.1-.9.6-2,.4-2.9,0,0,0,0,0,0,0,0,0,0,0,0,.3.5.2,1,.2,1.5,0,1-.2,3.4-.3,4.4,0,2-.4,3.9-1.2,5.8,0,0-.1,0-.1,0h0Z" fill="#fff"/><path d="M53.4,301.4c-.5-1.2-.2-2,.5-3,.3-.6,0-1.4.1-2.1.1-1.1.6-2,1.5-2.7,0,0,0,0,.1,0,.2,1.1,0,2.1-.4,3-.2.6-.8,1.1-.9,1.8,0,.7.3,1.4-.1,2-.1.3-.3.6-.6.9,0,0-.1,0-.1,0h0Z" fill="#fff"/><path d="M60.1,298.5c-.3-.7-.4-1.4-.2-2,.1-.3.4-.6.5-.9.2-1-.3-2,0-3,.1-.7.4-1.3.8-1.9,0,0,0,0,0,0,.7.9.6,2.1.3,3.1-.1.7-.7,1.2-.7,1.9,0,.7.3,1.4,0,2-.1.3-.3.6-.6.9,0,0-.1,0-.1,0h0Z" fill="#fff"/><path d="M69.5,295.1c0-1.4.3-2.7,1-3.9.4-.6.5-1.2.6-1.9,0-.6,0-1.2-.1-1.7-.2-1.4-.3-3.4-.3-5.1,0,0,.1,0,.1,0,1.2,1.3,1.6,3.2,1.3,5,0,0,0-.3,0-.3.3.8-.2,1.6-.4,2.3-.6,1.3-.1,2.8-.8,4-.3.6-.6,1.2-1.2,1.7,0,0-.1,0-.1,0h0Z" fill="#fff"/><path d="M48.9,301.1c-.6-1.3-.1-2.7.5-3.9.5-1.2,1.1-2.3,1.8-3.4h.1c-.3,1.3-.7,2.5-1,3.7-.2,1.3-.6,2.4-1.4,3.5,0,0-.1,0-.1,0h0Z" fill="#fff"/><path d="M66.9,296.3c0-2.1,1.7-3.7,1.8-5.7,0,0,0-.1,0-.1.4.5.2,1.1.2,1.7-.2,1.6-.2,3.7-2,4.3,0,0,0,0,0,0h0Z" fill="#fff"/><path d="M47.1,294.2c-.6-1.1-.3-2.2.2-3.2.4-1,1-2,1.7-2.8,0,0,.1,0,.1,0-.6,1.5-.7,3-1,4.6-.2.5-.4,1-.8,1.4,0,0-.1,0-.1,0h0Z" fill="#fff"/><path d="M58.5,299.3c-.8-.9-.9-2.1-.7-3.2.2-1.1.4-2.1.8-3.1h.1c-.1,1.6.1,3.2.2,4.7,0,.5-.1,1-.4,1.6h-.1Z" fill="#fff"/><path d="M55.9,300.2c-.5-.9-.4-1.6-.1-2.4.2-.8.4-1.6.6-2.3h.1c.2.8.3,1.6.3,2.4.2.9,0,1.7-.8,2.3,0,0-.1,0-.1,0h0Z" fill="#fff"/><path d="M62.6,263.1c1.6,1.5,2.3,3.6,2.7,5.7.7,2,1.9,3.8,2.4,5.9.3,1.4.5,2.8.4,4.2,0,0,0,0-.1,0-1.8-3.2-2-6.6-3-10-1.1-1.8-2.1-3.6-2.4-5.8,0,0,0-.1.1,0h0Z" fill="#fff"/><path d="M61.4,262.1c1.4,2.4,1.4,5.2,1,7.8.1,4.3.7,9-1.3,13.1-.6-4.4.8-8.7.9-13.1-.4-2.6-.8-5.1-.7-7.8,0,0,0,0,.1,0h0Z" fill="#fff"/><path d="M61.1,262.3c.2,1.9-.5,3.6-1.4,5.1-.6,1.7-.6,3.6-1.5,5.2-.5,1.1-1.2,2.1-2.1,3,0,0-.1,0-.1,0,.3-1.8.8-3.4,1.7-5,.5-1.1,1.3-2,1.6-3.2.2-1.8.5-3.6,1.7-5,0,0,.1,0,.1,0h0Z" fill="#fff"/><path d="M61.6,262.4c1.7,1.7,2.2,4.1,2.5,6.3.4,2.2.6,4.5.8,6.7,0,0-.1,0-.1,0-.7-3.3-1.7-6.5-2.6-9.7,0,0-.7-3.3-.7-3.3h.1Z" fill="#fff"/><path d="M61.4,263.4c.7,2.8-.5,5.6-.6,8.5,0,0-.1,0-.1,0-.2-1.4-.3-2.8-.4-4.3-.1-1.5,0-3,1-4.2,0,0,.1,0,.1,0h0Z" fill="#fff"/><path d="M56.6,258.3c-2.2.2-4.1-.5-6.2-1.1-3.5-.3-6.9.3-10.4-.9,0,0,0-.1,0-.1,1.4-.4,2.8-.5,4.2-.5,2.1,0,4.2.8,6.2,1.1,2.1,0,4.3.2,6.1,1.4,0,0,0,.1,0,.1h0Z" fill="#fff"/><path d="M57.5,259.2c-2.6.8-5.1,1-7.7,1.3-4.2,1.3-8,3.6-12.4,4.3,0,0-.1,0,0-.1,3.5-2.9,8-3.7,12.3-4.6,2.5-1,5.2-1.7,7.8-1,0,0,0,.1,0,.1h0Z" fill="#fff"/><path d="M57.8,259.3c-.9,1.6-2.5,2.6-4,3.5-1,.7-1.5,1.8-2.4,2.7-1.2,1.4-2.5,2.5-4.1,3.4,0,0-.1,0-.1,0,.4-1.2,1.2-2.2,2-3.1,1.2-1.4,2.9-2.1,4.3-3.3,1.1-1.5,2.4-2.7,4.2-3.3,0,0,.1,0,0,.1h0Z" fill="#fff"/><path d="M56.7,258.7c-1.8.6-3.6.6-5.4.3-1.8-.2-3.6-.4-5.4-.6h0c1.8-.3,3.6-.4,5.4-.4,1.8-.2,3.7-.2,5.4.6,0,0,0,.1,0,.1h0Z" fill="#fff"/><path d="M57,259.5c-2,2.1-5.2,2.7-7.7,4.1,0,0,0-.1,0-.1,1.1-1,2.3-1.9,3.6-2.7,1.2-.9,2.6-1.6,4.2-1.5,0,0,0,.1,0,.1h0Z" fill="#fff"/><path d="M58.1,251.5c-1.1-1.9-1.3-3.9-1.6-6.1-1.2-3.3-3.2-6.1-3.6-9.8,0,0,0-.1.1,0,1,1.1,1.7,2.3,2.3,3.6.9,1.9,1,4.1,1.7,6.1,1,1.9,1.7,4,1.3,6.2,0,0-.1,0-.1,0h0Z" fill="#fff"/><path d="M58,253.3c-1.7-2.1-2.9-4.3-4.1-6.7-2.8-3.4-6.3-6-8.7-9.8,0,0,0-.1,0,0,4,2.2,6.4,6,8.9,9.7,1.9,1.9,3.6,4.1,3.9,6.9,0,0,0,.1-.1,0h0Z" fill="#fff"/><path d="M58.2,253.3c-1.8-.4-3.2-1.6-4.5-2.8-1-.7-2.2-.9-3.2-1.5-1.7-.7-3.1-1.6-4.5-2.8,0,0,0-.1,0-.1,1.3,0,2.4.5,3.5,1,1.7.7,2.9,2.2,4.4,3.1,1.7.6,3.3,1.4,4.4,3.1,0,0,0,.1,0,.1h0Z" fill="#fff"/><path d="M58.5,253c-1.1-1.7-2.4-4.1-3.2-5.9-1-2-2.1-4-3.2-6,0,0,.1,0,.1,0,1.4,1.8,2.7,3.6,4,5.5,1.3,1.9,2.5,4,2.4,6.4,0,0-.1,0-.1,0h0Z" fill="#fff"/><path d="M57.7,252.5c-2.7-1.1-4.4-3.8-6.7-5.6,0,0,0-.1,0-.1,1.3.7,2.6,1.5,3.8,2.3,1.3.8,2.5,1.8,2.9,3.3,0,0,0,0,0,0h0Z" fill="#fff"/><path d="M65.1,252.3c-1-2-.9-4.2-.4-6.3,0-2.1-.4-4.2-.1-6.3.2-1.4.5-2.8,1.2-4.1,0,0,.1,0,.1,0,.6,3.6-.6,6.9-.8,10.4.4,2.1.7,4.1.2,6.3,0,0-.1,0-.1,0h0Z" fill="#fff"/><path d="M65.8,253.2c-.1-2.8,1.1-5.3,2.6-7.4,1.2-2.4,2-4.9,3.5-7.1,1-1.4,2.1-2.8,3.5-4,0,0,.1,0,.1,0-1.6,4.2-4.7,7.4-6.8,11.2-.8,2.5-1.6,4.9-2.9,7.3,0,0-.1,0-.1,0h0Z" fill="#fff"/><path d="M65.4,252.7c-.7-2.3,0-4.6.7-6.8.7-2.2,1.5-4.3,2.4-6.3h.1c-.9,3.3-1.5,6.6-2.2,9.9,0,0-.9,3.2-.9,3.2,0,0-.1,0-.1,0h0Z" fill="#fff"/><path d="M66.2,252.3c.2-1.6,1.1-2.8,2.3-3.8,1.1-1.1,2.1-2,3.3-2.9,0,0,0,0,0,0-.9,1.2-1.8,2.3-2.6,3.5-.8,1.3-1.6,2.4-3,3.2,0,0-.1,0-.1,0h0Z" fill="#fff"/><path d="M58,256.2c-.8-1.3,1-1.1,1.1-1.6s0-.7.1-1.1.2-.6,1.2-.5c1,0,.4.5.9.4s.8-.4,1.3-.3.6,0,.8.3c.2.4.1.6.5.6s.6.3.9.6c.3.3.9.6.9,1s-.4.4.2.6c.6.3,1,.2.8.9-.2.6-.2.8-.6.9s-.4.5-1,.8c-.6.3,0,.9-.6,1.2s-1.3.5-1.5.2-.5,0-1-.2c-.6,0-1.5.3-1.5,0s-.1-.6-.5-.8-.8,0-1.1-.3-.4-1.2-.2-1.4-.6-1.3-.6-1.3Z" fill="none" stroke="#fff" stroke-miterlimit="10" stroke-width=".6"/><path d="M65.2,257c.7.9-.7.9-.8,1.2s0,.6,0,.8-.1.4-.9.4c-.7,0-.3-.4-.7-.3s-.6.3-1,.3-.5,0-.6-.2-.1-.5-.4-.4-.4-.2-.7-.4-.7-.4-.7-.7.3-.3-.2-.5-.7-.1-.6-.6c.1-.5.1-.6.5-.7s.3-.4.7-.7,0-.7.4-.9c.4-.2,1-.4,1.1-.2s.4,0,.8.1,1.1-.3,1.2,0,.1.5.4.6.6,0,.8.2.4.9.2,1,.5,1,.5,1Z" fill="none" stroke="#fff" stroke-miterlimit="10" stroke-width=".5"/><path d="M60.2,255.8c-.2-.8.7-.4.8-.6s0-.4.3-.5.2-.2.7,0,0,.3.4.4.5,0,.7,0,.3,0,.3.3,0,.3.1.4.2.3.3.5.3.4.3.6-.3.1,0,.3.4.3.2.6-.2.4-.5.3-.3.2-.7.2-.2.4-.5.5-.8,0-.8-.2-.2-.1-.5-.3-.8-.1-.8-.3,0-.3-.1-.5-.4-.1-.5-.4,0-.7.2-.7,0-.8,0-.8Z" fill="none" stroke="#fff" stroke-miterlimit="10" stroke-width=".3"/><path d="M80.9,93.2c-.4.8-.7,1.4-.8,2,0,0,.1,0,.2,0,.5.4.8.9.9,1.4.8,0,1.6.5,2.1,1.2.4,0,.9,0,1.3-.1,13.4-20.5,35.6-37.1,49.6-22,2.8,3.1,12.5,1.4,14.5,6.4,4.3,10.8-6,17-11.6,22.6-12.2,12.1-32.3,9.5-50-.6-1.5,0-2.5.3-3.1.7,0,.8-.2,1.5-.7,2.1.2,1,.9,1.9,1.4,2.5,4.8,1.9,10.8,3,20.4,9,6.7,4.2,17.4,3.8,22.6,9.8,6.1,7,8.6,22.1-.3,28.8-2.3,1.7-7.9,1.3-10.1,2.5-8.2,4.6-12.3,7.6-18.6,5.4-6.4-2.3-11.5-8.1-14.7-17.5-2.8-8.4-4.2-19.5-3.6-33.6-.4-.9-.9-1.7-1.4-2.2-.9,0-1.8-.4-2.3-1.3,0,0,0,0,0,0,0,0-.1.2-.2.2-1,.6-2.2.5-3.1-.1-.6.4-1.1.8-1.3,1,2.7,15.8,11.6,53.6-11.7,56.3-2.9.3-7.5,5.8-13.9,4.1-7.2-3.4-7.1-11.1-9.6-13.8-8.9-9.6,1.2-28.3,30.6-49.8.6-.7.9-1.4,1-1.9,0-.1,0-.3,0-.4,0-1.1-1-1.8-2-2.2-6.6,3.3-16.6,7.7-26.2,9-9.8,1.4-23.8,0-28.6-9.1-2.2-4.2,4.6-13.8,5.5-22.1-.2-10.5,5.2-12.4,12.5-15.5,13.6-5.7,30.7,1.2,42,27.8.9,1,1.5,1.5,2,1.7.3,0,.7,0,1,0,.6-.4.9-1.6.9-2.6-5-15-34.3-45.5,5.1-61.8,5.6-2.3.4,2.7,23.9-4.1,10.3,3.5,11,26.9-23.7,66.4Z" fill="none" stroke="#fff" stroke-miterlimit="10" stroke-width="4.2"/><path d="M66.5,103.6c-2.5-2.5,1.8-3,1.8-4.1,0-1.1-.6-1.6-.2-2.5s.2-1.4,2.4-1.7c2.3-.3,1.1,1,2.3.5,1.3-.5,1.7-1.3,2.8-1.4s1.4-.5,2,.3.6,1.3,1.4,1,1.4.5,2.3,1c.8.5,2.3.8,2.5,1.7.2.9-.7,1,.7,1.3s2.4,0,2.2,1.6c-.2,1.5,0,1.9-1,2.5s-.7,1.4-1.9,2.4c-1.1,1,.3,2.1-.7,3.1-1,.9-2.8,1.8-3.3,1.1-.5-.7-1.1,0-2.4,0-1.4,0-3.3,1.5-3.5.6s-.6-1.3-1.7-1.6c-1-.3-1.8.5-2.6-.1s-1.5-2.5-1-3.1c.5-.6-2-2.6-2-2.6Z" fill="#fff" stroke="#fff" stroke-miterlimit="10" stroke-width="1.4"/><path d="M65.8,101.5c-3.3,2-7,2.2-10.7,1.8-3.6.2-7.2,1.5-10.9,1.2-2.4-.1-4.9-.5-7.2-1.4-.1,0,0-.2,0-.2,3.7-.8,7.2-.9,10.8-.7,2.4,0,4.8.7,7.2.3,3.5-1,7-1.8,10.8-1.3.1,0,.1.2,0,.2h0Z" fill="#fff"/><path d="M68,97c-2.3.5-4.6.5-6.9.2-2.3-.2-4.4-1.4-6.6-2.1-2.9-1-6-1.1-8.9-2.1-4.4-1.3-8.6-3.2-12.3-6.1,0,0,0-.2,0-.2,4.5,1,8.7,2.5,12.9,4.3,2.8,1.1,5.4,2.8,8.4,3.4,4.5.5,9,1,13.3,2.4.1,0,.1.2,0,.2h0Z" fill="#fff"/><path d="M70.4,95.3c-3.3-.5-5.7-2.5-7.9-4.8-2.5-1.8-5.6-2.7-8-4.8-1.5-1.4-3-2.9-4-4.9,0,0,0-.2.2-.2,2.9,1.4,5.3,3,7.6,5.2,1.6,1.3,2.8,3.1,4.5,4.1.9.5,1.9.8,2.9,1.2,1.8,1,3.4,2.3,4.7,4,0,0,0,.2-.1.2h0Z" fill="#fff"/><path d="M67.1,99c-3.8,1.5-8,.6-11.7-.5-3.8-1-7.5-2.1-11.2-3.5,0,0,0-.2,0-.2,3.8.7,7.6,1.4,11.5,2,3.9.3,7.5,1.1,11.4,2,0,0,0,.2,0,.2h0Z" fill="#fff"/><path d="M67.6,101.3c-3.1,1.2-6.2,1.1-9.4.5-2.8-.3-6.6-.8-9.3-1.2,0,0,0-.2,0-.2,2.7-.2,6.6-.3,9.4-.4,3.2-.3,6.3-.2,9.3,1,0,0,0,.2,0,.2h0Z" fill="#fff"/><path d="M64.9,103.4c-3.9,3.5-9.3,3.5-14.2,3.8-1.6,0-3.3,0-4.9-.3,0,0,0-.2,0-.2,3.2-.3,6.4-.8,9.5-1.6,3.2-1,6.1-1.9,9.5-1.9,0,0,0,.2,0,.2h0Z" fill="#fff"/><path d="M67.5,95.6c-4.2.3-7.2-2.7-10.4-4.8-1-.8-2-1.6-3-2.4,0,0,.1-.2.1-.2,2.3,1.1,4.5,2.2,6.9,3.3,2.5.9,4.6,1.9,6.5,4,0,0,0,.2,0,.2h0Z" fill="#fff"/><path d="M70.4,94.3c-2.3-1.3-3.8-3-5.2-5.1,0,0-2.3-2.9-2.3-2.9l-2.3-2.9s.2-.2.2-.2c1,.7,2,1.5,3,2.2,2.8,2.5,6.4,4.6,6.9,8.7,0,0-.2.1-.2.1h0Z" fill="#fff"/><path d="M22.6,70.3c1.8-.8,3.9-1.1,5.8-.7,1,.2,1.9.7,2.8.9,1.9.4,3.9,0,5.8.2,2,.2,3.9.8,5.6,1.8.9.5,1.7,1.1,2.3,2l-.2.2c-2.8-.6-5.5-1-8.2-1.9-1.8-.5-3.6-1.6-5.5-1.6-1,0-1.9.2-2.9.3-1.4,0-2.8-.2-4.2-.5-.5-.1-.9-.2-1.4-.4v-.2h0Z" fill="#fff"/><path d="M14.2,91.4c2.2.3,4,1.2,5.6,2.5,1.1.7,1.9,2.1,3.2,2.6.6.3,1.4.2,2.1.4,1.3.4,2.4,1.3,3.4,2.3,0,0,0,0,0,0-.5.3-.9.3-1.2.3-1.1,0-2.2-.3-3-1-.6-.4-1-1.1-1.6-1.5-1.8-1-4-1-5.8-2.4-1.1-.8-2.1-1.8-2.8-3.2,0,0,0-.2.1-.2h0Z" fill="#fff"/><path d="M17.3,75c3.5-1.1,7.1-.2,10.3,1.2,2.9,1.2,7,2.8,9.3,4.7-3.2-.9-6.5-2.2-9.9-2.9-3.4-.7-6.5-1.4-9.7-2.7-.1,0-.1-.2,0-.2h0Z" fill="#fff"/><path d="M14.4,88.3c5.3.3,9.4,3.8,14,6.2,1.4.7,2.9,1.8,4.4,2.1.1,0,.3,0,.1.2-.9.3-1.8-.2-2.6-.4-1.7-.5-5.5-2.1-7.2-2.8-3.3-1.2-6.3-2.6-8.9-5.1,0,0,0-.2,0-.2h0Z" fill="#fff"/><path d="M18,77.2c1.3-.3,2.5-.2,3.5.5.9.8,1.8,1.7,3.1,1.7,2.5.2,4.7,1.3,5.9,3.7,0,0,0,.2-.1.2-1.3,0-2.5-.3-3.5-.7-1-.5-2-1.2-2.8-2-.4-.4-.9-.8-1.5-.9-.6-.2-1.2,0-1.8-.1-.6,0-1.1-.4-1.6-.7-.5-.3-1-.7-1.4-1.3,0,0,0-.2,0-.2h0Z" fill="#fff"/><path d="M17.2,85.5c1.3-.2,2.5,0,3.5.8.4.4.8,1,1.3,1.3.5.3,1.1.5,1.7.5,1.2.1,2.3.4,3.4.9,1,.5,2,1.4,2.8,2.3,0,0,0,.1,0,.1-1.9.7-3.7,0-5.3-1.1-1-.6-1.7-1.8-2.8-2.1-.5-.2-1.2-.1-1.8-.3-.6-.1-1.1-.5-1.5-.8-.5-.4-.9-.8-1.2-1.5,0,0,0-.2.1-.2h0Z" fill="#fff"/><path d="M12.5,97.5c1.8.6,3.2,1.4,4.6,2.5,1.2,1.2,2.3,2.7,4.1,3.2.8.3,2.4.6,2.8.7,3,.5,5.7,1.3,8.6,2.2,0,0,0,.2,0,.2-2.8,1.3-6.1.9-8.9-.4,0,0,.5,0,.5,0-1.4,0-2.5-1.2-3.6-1.9-1.8-1.6-4.5-1.6-6.2-3.4-.9-.8-1.7-1.7-2.2-2.8,0,0,.1-.2.1-.2h0Z" fill="#fff"/><path d="M20.2,72.4c3.3-1.8,6.7.5,9.8,1.6,1,.5,2,.9,3,1.5v.2c0,0-6.6-1.2-6.6-1.2-2.3-.2-4.2-.7-6.2-1.9,0,0,0-.2,0-.2h0Z" fill="#fff"/><path d="M11.8,99.3c2.2.8,3.8,1.9,5.4,3.5,0,0,5.1,4.2,5.1,4.2v.2c-2.2-.8-4.2-1.8-6.1-2.9-2.1-1-4.1-2.5-4.6-4.9,0,0,.2-.1.2-.1h0Z" fill="#fff"/><path d="M13.8,93.8c1.9.7,3,1.6,4.3,3,1.3,1,2.6,2.4,4.2,3,0,0,.2.2.2.2-.3.2-.6,0-.8,0-1.6-.3-3.1-1-4.5-1.8-1.8-.8-3.5-2.2-3.5-4.4,0,0,.2-.1.2-.1h0Z" fill="#fff"/><path d="M25.8,68.1c2.2-2.4,5.4-1.6,8.2-1.2.9.2,1.8.4,2.7.7v.2c-2.8,0-5.4.6-8.1,1-.9,0-1.8-.1-2.8-.5v-.2h0Z" fill="#fff"/><path d="M17.1,82.4c2.9-1.4,5.6.6,8.1,2,.8.5,1.6,1.1,2.3,1.7v.2c-2.6-1-5.4-1.4-7.9-2.1-.8-.4-1.6-.8-2.4-1.5v-.2h0Z" fill="#fff"/><path d="M17.4,79.1c1.7-.3,2.8.1,4,1.1,0,0,1.8,1.1,1.8,1.1l1.8,1.1v.2c-.8,0-1.5-.2-2.2-.3-1.2-.3-3.1-.5-4.1-1.1-.6-.4-1.1-1-1.4-1.9v-.2h.1Z" fill="#fff"/><path d="M130.4,151.3c-.9-1.7-1.5-3.6-1.7-5.5,0-.9,0-2-.1-2.9-.3-1.9-1.7-3.5-2.4-5.2-1.3-2.6-2.1-5.1-3-7.9,0,0,.1-.2.1-.2,1,.5,1.7,1.2,2.3,2,1.3,1.5,2.1,3.4,2.6,5.3.6,1.8.4,3.9,1.1,5.7.8,1.8,1.8,3.5,1.7,5.6,0,1,0,2-.4,3h-.2Z" fill="#fff"/><path d="M110.7,162.7c-2.1-.8-3.7-2.2-4.8-4-.8-1.1-1-2.7-1.9-3.7-1.1-1-2.3-1.6-2.7-3.1-.2-.8-.5-1.5-.2-2.3,0,0,0,0,.1,0,1,.9,2.1,1.8,2.7,3.1.3.6.4,1.4.7,2,1.1,1.6,3.2,2.5,4.4,4.3.8,1.1,1.5,2.3,1.9,3.7,0,0,0,.2-.2.2h0Z" fill="#fff"/><path d="M126.5,157.2c-1.7-3.1-2.9-6-4-9.3-1.2-3.2-3.1-6.3-4.3-9.4,2.3,2.4,4.1,5.6,5.9,8.6,1.8,3,3.3,6.4,2.6,10,0,.1-.2.1-.2,0h0Z" fill="#fff"/><path d="M113.6,162c-2.8-2.2-4.6-5-6.3-8.1-.9-1.6-3-5.1-3.8-6.7-.3-.8-1-1.6-.8-2.5,0-.1.2,0,.2.1,0,0,0,.3.2.5,1.4,2.3,4.1,5.5,5.7,7.6,2.3,2.6,4.3,5.4,5,9,0,.1-.1.2-.2.1h0Z" fill="#fff"/><path d="M124.2,156.8c-1.1-.6-1.9-1.5-2.4-2.6-.2-.6-.1-1.2-.4-1.8-.2-.5-.6-1-1.1-1.3-1-.7-1.7-1.6-2.4-2.5-.6-1-1-2-1.2-3.4,0,0,0-.1.1-.1,1.9.6,3.2,2,3.9,3.7.6,1,.5,2.4,1.3,3.3.4.5,1,.8,1.4,1.2.4.4.6,1,.8,1.6.2.6.3,1.2.1,1.9,0,0-.1.1-.2.1h0Z" fill="#fff"/><path d="M116.1,158.9c-1.2-.5-2.1-1.3-2.6-2.4-.2-.6-.2-1.2-.5-1.8-.3-.5-.7-.9-1.2-1.3-1.5-1.1-2.6-2.5-3.1-4.3-.1-.6-.3-1.2,0-2,0,0,0,0,0,0,0,0,0,0,0,0,0,0,.1,0,.1,0,1.4,1,2.7,2.2,3.4,3.9.6,1,.5,2.4,1.3,3.2.4.4,1,.7,1.5,1.1.4.4.7.9.9,1.5.2.6.4,1.1.4,1.9,0,0,0,.2-.2.1h0Z" fill="#fff"/><path d="M104.9,165.3c-1.8-.6-3.2-1.7-4.4-3-1-1.4-1.6-3.2-3-4.4-.9-.9-2.2-1.8-2.4-3.2,0,0,.1.5.1.5-1.7-2.5-2.5-5.8-1.6-8.7,0,0,.2,0,.2,0,1.3,2.7,2.6,5.8,3.4,8.3.6,2,1.5,4.1,3.4,5.2,2,1.3,3.4,3.1,4.5,5.3,0,0-.1.2-.1.2h0Z" fill="#fff"/><path d="M128.5,153.9c-1.5-1.9-2.2-3.7-2.7-5.9,0,0-2.1-6.3-2.1-6.3h.2c1.3,1.7,2.5,3.6,3.5,5.5,1.2,1.9,2.2,4.3,1.3,6.6,0,0-.2,0-.2,0h0Z" fill="#fff"/><path d="M103.3,166.2c-3.7-.2-5.4-3.9-7.4-6.5-.6-.9-1.2-1.8-1.8-2.8h.2c0-.1,4.9,4.3,4.9,4.3,1.8,1.4,3.2,2.8,4.3,4.9,0,0-.1.2-.1.2h0Z" fill="#fff"/><path d="M108.5,163.5c-3.3.5-4.9-2.8-6.4-5.1-.3-.8-1.2-1.8-.9-2.7,0,0,.2.1.2.1.8,1.5,2.4,2.6,3.6,3.7.7.6,1.5,1,2,1.6.6.7,1,1.3,1.6,2.2v.2h0Z" fill="#fff"/><path d="M119.1,158.4c-1.6-1.3-2.2-2.8-2.8-4.7-.7-1.7-1.4-3.3-2.3-4.9,0,0,.2-.1.2-.1,1.4,1.2,2.7,2.7,3.7,4.3,1.3,1.6,2,3.4,1.4,5.5,0,0-.2,0-.2,0h0Z" fill="#fff"/><path d="M122.4,157.8c-1.7-.3-2.6-1.5-3-3-.6-1.3-1-2.7-1.3-4,0,0,.2,0,.2,0l1.3,1.6,1.3,1.6c.4.5,1,.9,1.3,1.6.2.6.4,1.3.4,2.2h-.2Z" fill="#fff"/><path d="M141.9,100.9c-1.4,1.5-3.2,2.4-5.1,2.8-1,.2-2,0-2.9.3-1.9.3-3.6,1.5-5.5,2-1.9.6-3.9.8-5.9.5-1-.2-2-.4-2.9-1,0,0,0-.2,0-.2,2.8-.5,5.4-1.2,8.3-1.3,1.9-.3,3.9,0,5.7-.6.9-.3,1.7-.9,2.6-1.4,1.3-.6,2.7-.9,4.1-1.1.5,0,1-.1,1.5-.1v.2h0Z" fill="#fff"/><path d="M145,80c-1.9,1.2-3.8,1.6-5.9,1.6-1.3.1-2.8-.4-4.1,0-.7.2-1.2.7-1.9,1-1.2.5-2.6.5-3.9.4h-.1s0,0,0,0c.1-.5.5-.8.8-1,.9-.6,1.9-1.1,2.9-1.2.7,0,1.5.2,2.1.1,2-.3,3.7-1.7,6-1.8,1.4,0,2.8,0,4.2.7,0,0,.1.2,0,.2h0Z" fill="#fff"/><path d="M146,94.7c-2,3.1-5.3,4.7-8.7,5.6-3,.9-7.2,2.2-10.2,2.3,3-1.4,6.5-2.4,9.5-4,3-1.6,5.9-3,9.2-4.1,0,0,.2,0,.1.2h0Z" fill="#fff"/><path d="M148.2,81.7c-4.2,3.1-9.8,3.1-14.8,4.1-1.6.3-3.4.4-4.8,1.2,0,.1-.3.1-.2,0,.5-.8,1.5-.9,2.3-1.3,1.6-.7,5.6-1.8,7.3-2.4,3.3-1.2,6.5-1.9,10.1-1.7.1,0,.2.2,0,.2h0Z" fill="#fff"/><path d="M149.4,92.3c-.8,1-1.8,1.7-3,1.9-1.2,0-2.4-.2-3.4.7-2,1.4-4.5,2-6.9.9,0,0-.1-.2,0-.2,1-.9,2.1-1.3,3.2-1.7,1.1-.3,2.3-.4,3.4-.2.6,0,1.2,0,1.7-.2.5-.2,1-.7,1.5-1.1.5-.3,1.1-.4,1.6-.5.6,0,1.2,0,1.9.2,0,0,.1.1,0,.2h0Z" fill="#fff"/><path d="M149.2,84.2c-.9.9-2,1.5-3.2,1.6-.6,0-1.2-.2-1.8-.2-1.2,0-2.1,1.1-3.2,1.5-1.6.8-3.3.8-5.1.6,0,0-.1,0-.1,0,0,0,0,0,0,0,1-1.7,2.9-2.4,4.8-2.5,1.1-.2,2.4.3,3.5-.1.5-.2,1-.7,1.6-.9.5-.3,1.1-.3,1.7-.3.6,0,1.2,0,1.9.4,0,0,.1.2,0,.2h0Z" fill="#fff"/><path d="M133.3,75.1c-1.7.7-3.4,1-5.1,1-1.7-.1-3.5-.6-5.2.1-.9.4-1.9.8-2.7,1.3-2.2,1.3-5.3,2.6-8,3.7,0,0-.2-.2-.2-.2,1.4-2.8,4.1-4.6,7.1-5.3,0,0-.4.3-.4.3,1.1-.9,2.7-.7,4-.7,2.4,0,4.5-1.6,6.9-1.3,1.2,0,2.4.3,3.5.8,0,0,0,.2,0,.2h0Z" fill="#fff"/><path d="M132.8,73.3c-2.2.8-4.2,1-6.4.7,0,0-6.6,0-6.6,0,0,0,0-.2,0-.2,2.1-.7,4.3-1.2,6.5-1.5,2.2-.6,4.8-.7,6.6.9,0,0,0,.2,0,.2h0Z" fill="#fff"/><path d="M136.4,78.3c-1.9.6-3.4.7-5.2.4-1.7,0-3.5-.2-5.1.3,0,0-.2,0-.2,0,.1-.4.4-.4.6-.6,1.5-.8,3.1-1.2,4.7-1.5,1.9-.5,4.1-.6,5.5,1.2,0,0,0,.2,0,.2h0Z" fill="#fff"/><path d="M150.1,86.4c-2.2,2.2-5.1,3.1-8.1,3.5-2.9.5-5.8.9-8.8,1,0,0,0-.2,0-.2,2.8-.7,5.6-1.5,8.3-2.5,2.8-1.1,5.4-2,8.5-2,0,0,0,.2,0,.2h0Z" fill="#fff"/><path d="M149,90.1c-1.1,1.3-2.2,1.7-3.8,1.7,0,0-2,.3-2,.3l-2.1.3v-.2c.5-.4,1.1-.8,1.7-1.1,1.1-.5,2.7-1.6,3.9-1.8.7,0,1.5,0,2.3.6v.2h0Z" fill="#fff"/><path d="M36.7,156.1c-.5-1.9-.4-4,.2-5.8.4-.9,1-1.7,1.3-2.7.7-1.8.6-3.9,1.2-5.7.5-1.9,1.4-3.7,2.7-5.2.7-.8,1.4-1.5,2.4-2v.2c-.9,2.7-1.7,5.3-3.1,7.8-.7,1.7-2.1,3.3-2.5,5.2-.2.9,0,1.9-.2,2.9-.2,1.4-.6,2.8-1.2,4.1-.2.4-.4.9-.7,1.3,0,0-.2,0-.2,0h0Z" fill="#fff"/><path d="M53,169.5c0-2.3.6-4.1,1.7-5.9.6-1.2,1.8-2.2,2.1-3.5.2-.7,0-1.4.1-2.1.2-1.4,1-2.6,1.8-3.7,0,0,0,0,0,0,.4.4.4.8.5,1.2.1,1.1,0,2.2-.5,3.1-.4.6-.9,1.1-1.2,1.8-.8,1.9-.5,4.1-1.5,6-.7,1.2-1.5,2.4-2.8,3.2,0,0-.2,0-.2-.1h0Z" fill="#fff"/><path d="M39.9,162.7c-1.6-3.3-1.2-7-.2-10.3.8-3,1.8-7.3,3.3-9.9-.4,3.3-1.3,6.8-1.5,10.2-.2,3.5-.5,6.6-1.3,10,0,.1-.2.1-.2,0h0Z" fill="#fff"/><path d="M49.8,171.4c-.5-5.3,2.5-9.9,4.2-14.7.5-1.5,1.4-3.1,1.5-4.7,0-.1,0-.3.2-.2.4.8,0,1.8,0,2.7-.3,1.7-1.3,5.8-1.8,7.5-.7,3.4-1.8,6.6-3.8,9.5,0,0-.2,0-.2,0h0Z" fill="#fff"/><path d="M40.2,166.9c-.5-1.2-.5-2.4,0-3.6.7-1,1.4-2,1.2-3.3-.2-2.5.6-4.9,2.8-6.4,0,0,.2,0,.2,0,.2,1.3,0,2.5-.2,3.6-.4,1.1-.9,2.1-1.6,3.1-.4.5-.6,1-.7,1.6,0,.6.1,1.2.1,1.8,0,.6-.2,1.1-.5,1.7-.3.5-.6,1-1.1,1.5,0,0-.2,0-.2,0h0Z" fill="#fff"/><path d="M47.2,170.9c-.3-1.3-.3-2.4.3-3.5.3-.5.8-.9,1.1-1.5.3-.5.3-1.1.3-1.7,0-1.2.1-2.3.5-3.5.4-1.1,1.1-2.1,1.9-3.1,0,0,.1,0,.1,0,.9,1.8.5,3.7-.3,5.4-.4,1.1-1.5,1.9-1.7,3.1-.1.6,0,1.2,0,1.8,0,.6-.3,1.1-.6,1.6-.3.5-.7,1-1.3,1.4,0,0-.2,0-.2,0h0Z" fill="#fff"/><path d="M61.7,166.8c.3-1.8.9-3.4,1.8-4.9,1-1.4,2.3-2.7,2.6-4.5.2-.8.3-2.4.3-2.9,0-3,.5-5.8,1-8.8,0,0,.2,0,.2,0,1.6,2.6,1.8,5.9.8,8.8,0,0,0-.5,0-.5.2,1.4-.8,2.6-1.4,3.8-1.3,2-1,4.7-2.5,6.6-.7,1-1.5,1.9-2.5,2.6,0,0-.2-.1-.2-.1h0Z" fill="#fff"/><path d="M66.1,164.5c.5-2.3,1.4-4.1,2.8-5.9,0,0,3.4-5.6,3.4-5.6h.2c-.5,2.2-1.2,4.3-2.1,6.4-.7,2.2-1.9,4.4-4.2,5.2,0,0-.2-.2-.2-.2h0Z" fill="#fff"/><path d="M57,167.6c.5-1.9,1.2-3.2,2.4-4.7.8-1.4,2-2.9,2.4-4.5,0,0,.1-.2.1-.2.3.3.2.5.2.8-.1,1.6-.6,3.2-1.2,4.8-.5,1.9-1.7,3.8-3.9,4,0,0-.1-.2-.1-.2h0Z" fill="#fff"/><path d="M44.9,170.5c-.7-3.1,0-6,1.2-8.7,1-2.8,2.2-5.5,3.7-8h.2c-.9,2.9-1.6,5.7-2.2,8.5-.5,2.9-1.1,5.7-2.8,8.3,0,0-.2,0-.2,0h0Z" fill="#fff"/><path d="M42.3,167.7c-.6-1.6-.3-2.8.5-4.1,0,0,.8-1.9.8-1.9l.8-1.9s.2,0,.2,0c0,.7,0,1.4,0,2.1-.1,1.2,0,3.1-.5,4.2-.4.6-.8,1.3-1.7,1.6h-.2Z" fill="#fff"/><path d="M109.1,33.4c.3,2,0,4-.9,5.8-.5.9-1.2,1.6-1.6,2.5-.9,1.7-1,3.8-1.9,5.5-.7,1.8-1.8,3.5-3.3,4.9-.7.7-1.5,1.3-2.6,1.7v-.2c1.2-2.6,2.3-5,4-7.4.9-1.6,2.5-3,3.1-4.8.3-.9.3-1.9.5-2.8.3-1.4.9-2.7,1.6-3.9.2-.4.5-.8.8-1.3,0,0,.2,0,.2,0h0Z" fill="#fff"/><path d="M79.5,32.4c.1,2.3-.3,4.1-1.3,6-.5,1.2-1.7,2.3-1.9,3.6-.1.7,0,1.4,0,2.1-.1,1.4-.8,2.7-1.5,3.8,0,0,0,0,0,0-.4-.4-.4-.8-.5-1.2-.2-1.1-.1-2.2.3-3.1.3-.6.9-1.2,1.1-1.8.6-2,.2-4.1,1.2-6.1.6-1.3,1.3-2.5,2.6-3.4,0,0,.2,0,.2,0h0Z" fill="#fff"/><path d="M103.5,27.5c.8,3.6-.5,7.1-2.3,10.1-1.5,2.8-3.5,6.6-5.6,8.8,1.2-3.1,2.9-6.3,4-9.5,1-3.3,2.1-6.3,3.7-9.4,0,0,.2,0,.2,0h0Z" fill="#fff"/><path d="M83.5,30.8c.8,5.2-1.9,10.1-3.3,14.9-.4,1.5-1.2,3.2-1.2,4.8,0,.1,0,.3-.1.2-.5-.8-.1-1.8,0-2.7.2-1.7,1-5.8,1.3-7.6.5-3.4,1.4-6.7,3.2-9.7,0,0,.2,0,.2,0h0Z" fill="#fff"/><path d="M99.9,27.9c.4,1.2.3,2.5-.2,3.6-.8.9-1.6,1.8-1.5,3.2,0,2.5-1,4.8-3.3,6.1,0,0-.2,0-.2-.1,0-1.3.1-2.5.5-3.5.5-1.1,1-2,1.8-2.9.4-.5.7-1,.8-1.5.1-.6,0-1.2,0-1.8,0-.6.3-1.1.6-1.6.3-.5.7-1,1.2-1.4,0,0,.2,0,.2,0h0Z" fill="#fff"/><path d="M87.8,31.5c.4,1.2.4,2.4-.1,3.6-.3.5-.8,1-1,1.5-.2.5-.3,1.1-.2,1.7.1,1.2,0,2.3-.3,3.5-.3,1.1-1,2.2-1.7,3.2,0,0,0,0-.1,0-1-1.7-.7-3.7,0-5.4.3-1.1,1.4-2,1.5-3.2,0-.6-.1-1.2-.1-1.8,0-.6.2-1.1.5-1.7.3-.5.6-1,1.2-1.5,0,0,.2,0,.2,0h0Z" fill="#fff"/><path d="M70.9,35.7c-.2,1.9-.7,3.4-1.5,5-.9,1.5-2.2,2.8-2.3,4.6-.1.8-.1,2.5,0,2.9.1,3-.1,5.8-.4,8.9,0,0-.2,0-.2,0-1.8-2.5-2.1-5.8-1.4-8.8,0,0,0,.5,0,.5-.3-1.4.7-2.7,1.2-3.9,1.2-2.1.7-4.7,2.1-6.7.6-1,1.3-2,2.4-2.7,0,0,.2.1.2.1h0Z" fill="#fff"/><path d="M107.5,29.1c1.2,3.5-1.7,6.5-3.4,9.3-.7.9-1.3,1.8-2,2.7h-.2c0-.1,2.4-6.3,2.4-6.3.6-2.2,1.5-4,3-5.8,0,0,.2,0,.2,0h0Z" fill="#fff"/><path d="M75.6,34.1c-.4,2-1,3.3-2.1,4.8-.8,1.5-1.9,3-2.1,4.7,0,0-.1.2-.1.2-.3-.3-.2-.5-.2-.8,0-1.6.4-3.3.9-4.8.4-1.9,1.4-3.9,3.6-4.3,0,0,.1.2.1.2h0Z" fill="#fff"/><path d="M109.2,41.4c1.2,3-1,5.6-2.5,7.9-.6.7-1.2,1.5-1.9,2.1h-.2c1.2-2.6,1.8-5.2,2.7-7.8.4-.8.9-1.6,1.7-2.3h.2Z" fill="#fff"/><path d="M90.6,30.5c1.9,2.6.6,5.6-.3,8.3-.4.9-.7,1.7-1.2,2.5h-.2c.5-2.8.4-5.5.5-8.1.2-.9.4-1.7,1-2.7h.2Z" fill="#fff"/><path d="M95.3,29.4c.7,1.6.4,2.7-.3,4.1,0,0-.7,2-.7,2l-.7,2h-.2c0-.7-.1-1.4-.2-2.1,0-1.3-.2-3.1.3-4.2.3-.7.8-1.3,1.6-1.7h.2Z" fill="#fff"/><path d="M76.8,92c-2.5-2.9-3.3-6.6-3.5-10.3-.8-3.5-2.6-6.9-3-10.5-.3-2.4-.3-4.9.2-7.4,0-.1.2-.1.2,0,1.4,3.5,2.1,6.9,2.4,10.6.4,2.4,0,4.9.8,7.2,1.5,3.4,2.9,6.6,3,10.4,0,.1-.1.2-.2,0h0Z" fill="#fff"/><path d="M78.6,93.9c-.9-2.2-1.3-4.5-1.3-6.8-.2-2.3.7-4.6,1-6.8.5-3,.1-6.1.6-9.1.5-4.6,1.8-9,4-13.1,0-.1.2,0,.2,0-.2,4.6-1,9-2.2,13.4-.6,2.9-1.9,5.8-2,8.8.2,4.5.4,9-.2,13.5,0,.1-.2.1-.2,0h0Z" fill="#fff"/><path d="M79.2,93.6c0-3.4,1.5-6.1,3.4-8.6,1.4-2.8,1.8-6,3.5-8.6,1.1-1.7,2.4-3.4,4.2-4.7,0,0,.2,0,.2.1-.9,3.1-2.1,5.8-3.8,8.4-1,1.8-2.6,3.2-3.3,5.2-.4,1-.5,2-.7,3-.7,2-1.7,3.8-3.1,5.3,0,0-.2,0-.2,0h0Z" fill="#fff"/><path d="M78.4,93.4c-2.6-3.1-3-7.4-3.1-11.3-.2-3.9-.2-7.8,0-11.7,0,0,.2,0,.2,0,.5,3.9,1,7.7,1.6,11.5.9,3.8,1.2,7.5,1.5,11.4,0,0-.2,0-.2,0h0Z" fill="#fff"/><path d="M78.8,91.7c-.4-2.6,0-4.9.9-7.3,0,0,.9-3.6.9-3.6l.9-3.6s.2,0,.2,0c0,1.2,0,2.5,0,3.7-.3,3.7.2,7.9-2.7,10.8,0,0-.2,0-.2,0h0Z" fill="#fff"/><path d="M86.2,101.3c3.8.1,7,1.6,10.4,3.1,2.3.8,4.8.5,7.2.9,3.6.4,7.1,1.1,10.5,2.5.1,0,0,.2,0,.2-2.5.5-4.9.4-7.4.1-3.7-.4-7-2.2-10.5-3.1-2.4-.3-4.9-.4-7.1-1.6-1.1-.5-2.2-1.2-3.1-2,0,0,0-.2,0-.2h0Z" fill="#fff"/><path d="M84.8,99.6c4.5-.8,9-.8,13.5-.8,3-.3,5.8-1.6,8.7-2.4,4.4-1.3,8.7-2.3,13.3-2.7.1,0,.2.2,0,.2-4,2.4-8.4,3.9-12.9,4.6-3,.6-6.1.4-9.1,1-2.2.5-4.4,1.4-6.8,1.3-.7,0-1.7,0-2.3,0-1.5-.1-3.1-.4-4.6-1-.1,0,0-.2,0-.2h0Z" fill="#fff"/><path d="M84.2,99.3c1.3-1.7,2.9-3,4.7-4,.9-.4,2-.7,2.9-1.2,1.8-1,3-2.9,4.5-4.1,2.3-2.1,4.7-3.8,7.6-5.2,0,0,.2,0,.2.2-1,2-2.4,3.5-4,4.9-2.3,2.1-5.4,3-8,4.8-2.2,2.3-4.6,4.3-7.9,4.8-.1,0-.2-.1-.1-.2h0Z" fill="#fff"/><path d="M86,100.6c3.2-.7,6.3-.2,9.4.6,0,0,4.6.9,4.6.9,1.5.3,3.1.7,4.6,1,0,0,0,.2,0,.2-2.7,0-6.7-.2-9.4-.4-3.2,0-6.3-.4-9.2-2.2,0,0,0-.2,0-.2h0Z" fill="#fff"/><path d="M85.7,99.2c2.1-1.8,4.3-2.6,6.9-3.2,2.4-.8,4.8-1.6,7.2-2.5,0,0,.1.2.1.2-2.1,1.5-4.3,2.7-6.6,3.9-2.3,1.4-4.8,2.3-7.5,1.8,0,0,0-.2,0-.2h0Z" fill="#fff"/><path d="M82.2,112.7c1.5,3.4,1.6,7.1,1.6,10.7.3,2.4,1.6,4.6,2.2,6.9,1.2,3.5,2,6.9,2.2,10.6,0,.1-.1.2-.2,0-1.5-2-2.5-4.3-3.2-6.6-1.2-3.5-1-7.3-1.7-10.8-1.3-3.4-2.2-7.2-1.1-10.8,0-.1.2-.1.2,0h0Z" fill="#fff"/><path d="M82.8,109.7c2.5,3.9,4.1,8,5.8,12.2,1.4,2.7,3.7,4.8,5.5,7.2,2.9,3.5,5.4,7.2,7.6,11.3,0,0,0,.2-.2.1-3.7-2.8-6.7-6.3-9.1-10.2-1.7-2.6-2.7-5.5-4.4-8.1-1.3-1.9-2.9-3.6-3.8-5.8-.3-.6-.6-1.5-.8-2.2-.5-1.5-.8-3-.8-4.6,0-.1.2-.2.2,0h0Z" fill="#fff"/><path d="M82.5,109.6c2,.7,3.7,1.9,5.2,3.3.7.8,1.3,1.7,2,2.4,1.5,1.4,3.6,2,5.3,3.1,2.7,1.5,5,3.4,7.2,5.8,0,0,0,.2-.1.2-2.2-.4-4.1-1.3-5.8-2.3-2.7-1.6-4.5-4.3-7-6.2-2.9-1.4-5.4-3.1-6.9-6.1,0,0,0-.2.1-.2h0Z" fill="#fff"/><path d="M81.9,110c2.7,5.2,4.2,10.7,6.5,16.1.7,1.8,1.5,3.6,2.2,5.4,0,0-.2.1-.2.1-3-5-6.1-10.1-8.1-15.6-.5-1.9-.9-4-.5-6,0,0,.2,0,.2,0h0Z" fill="#fff"/><path d="M83.1,111c2.4,1.2,4,3.1,5.5,5.2,1.6,2,3.3,3.9,5,5.8,0,0-.1.2-.1.2-2.2-1.4-4.2-3-6.1-4.7-2.1-1.6-3.9-3.6-4.4-6.3,0,0,.2-.1.2-.1h0Z" fill="#fff"/><path d="M70.5,109.9c1.3,3.6.7,7.4-.4,10.9-.5,3.6,0,7.4-1,10.9-.6,2.4-1.5,4.7-2.8,6.8,0,0-.2,0-.2,0,0-3.7.5-7.2,1.5-10.7.5-2.3,1.7-4.6,1.8-7-.2-3.6-.3-7.3.9-10.8,0-.1.2-.1.2,0h0Z" fill="#fff"/><path d="M69.3,108.4c-.2,2.3-.9,4.6-1.9,6.7-.9,2.1-2.7,3.8-4,5.6-1.8,2.5-2.9,5.4-4.7,7.9-2.5,3.8-5.7,7.2-9.5,9.9,0,0-.2,0-.2-.2,2.3-4,5-7.6,8-11,1.9-2.3,4.3-4.3,5.8-7,1.9-4.2,3.7-8.2,6.3-12,0,0,.2,0,.2,0h0Z" fill="#fff"/><path d="M69.9,109.3c.8,4-.7,8-2.5,11.5-1.6,3.6-3.4,7.1-5.3,10.4,0,0-.2,0-.2,0,1.3-3.6,2.7-7.3,3.9-11,1-3.8,2.3-7.2,3.9-10.9,0,0,.2,0,.2,0h0Z" fill="#fff"/><path d="M68.5,109.8c-.9,4.1-4.7,6.1-7.7,8.5-1.1.7-2.1,1.5-3.2,2.1v-.2c1.6-1.8,3.4-3.7,5-5.6,1.6-2.1,3.2-3.8,5.7-5,0,0,.2.1.2.1h0Z" fill="#fff"/><path d="M83.3,104.7c1.2,2.3-1.9,1.7-2.2,2.5s0,1.3-.4,1.8-.5,1-2.1.6-.5-.9-1.5-.9-1.5.5-2.3.3c-.8-.2-1.1,0-1.3-.7s-.1-1.1-.7-1-.9-.7-1.4-1.2c-.5-.6-1.4-1.1-1.4-1.8s.7-.5-.2-1.1c-.9-.6-1.6-.6-1.2-1.7s.5-1.3,1.3-1.5c.8-.1.8-.8,1.9-1.3,1-.4.3-1.6,1.2-2,.9-.4,2.4-.6,2.6,0s.8.3,1.7.5c1,.3,2.7-.3,2.6.4s.1,1.1.8,1.5c.7.4,1.4,0,1.8.7s.5,2.1,0,2.4c-.5.3.8,2.3.8,2.3Z" fill="#fff" stroke="#fff" stroke-miterlimit="10" stroke-width="1"/><path d="M71.1,101.8c-1-1.7,1.4-1.4,1.6-1.9s0-1,.3-1.4.3-.7,1.6-.6c1.3.2.4.7,1.2.6.7,0,1.1-.4,1.7-.3s.8,0,1,.5.1.8.6.8c.4,0,.7.5,1.1.9.4.4,1.1.8,1.1,1.3s-.5.4.2.8,1.3.4.9,1.2c-.3.8-.3,1-.9,1.2s-.6.7-1.4,1c-.8.4-.2,1.2-.8,1.5s-1.8.6-1.9.1-.6-.2-1.3-.3-2,.3-2-.2c0-.5-.1-.8-.6-1.1s-1,0-1.4-.5-.5-1.6,0-1.8c.4-.3-.7-1.7-.7-1.7Z" fill="#fff" stroke="#fff" stroke-miterlimit="10" stroke-width=".8"/><path d="M79.6,104.9c.1,1.4-1.3.5-1.6.8s-.2.6-.6.8-.4.4-1.2,0,0-.6-.6-.7-.8,0-1.2-.3-.5-.2-.5-.6.1-.6-.2-.7-.3-.5-.5-.9c-.1-.4-.5-.8-.3-1.2s.5-.1,0-.6c-.4-.5-.7-.6-.3-1,.4-.4.5-.6.9-.5s.6-.3,1.2-.3.4-.7,1-.8,1.3.1,1.3.5c0,.3.3.3.8.6s1.4.4,1.2.7-.1.6.1.9.7.3.8.7-.1,1.1-.5,1.2,0,1.3,0,1.3Z" fill="#fff" stroke="#fff" stroke-miterlimit="10" stroke-width=".6"/><path d="M178.4,247.2s-1.4,10.5-6,15.2c0,0-3.5,9.7-20.7,10.6-1.1,0-2,.1-2.8.1-5,0-4.5-1.4-2.6-5.3,0,0,6-11.9,9-13.2,3-1.3,5.5-.7,7.7-1.1s2.8-2.9,5.9-3.5c3.1-.6,5.6.9,9.5-2.9M181.5,241l-4.6,4.7c-2.1,2.1-3.4,2.1-5.3,2.1-.9,0-1.9,0-3.1.2-2.3.5-3.6,1.7-4.5,2.6-.7.6-1,.9-1.3.9-.6,0-1.3.1-2.1.1-1.7,0-3.8,0-6.1,1.1-3.3,1.4-8.2,10.4-10.1,14.2-1.2,2.5-2.3,4.6-1.1,6.5,1.1,1.7,3.3,2,5.6,2s1.8,0,2.9-.1c16.5-.9,21.5-9.5,22.5-11.6,4.8-5.3,6.2-15.7,6.3-16.2l.9-6.5h0Z" fill="#fff"/><path d="M148.1,272.3c11.1-5,21.2-12.7,27.4-23.4,0,0,.1,0,.1,0-5.5,10.3-15.8,21.2-27.5,23.3h0Z" fill="#fff"/><path d="M146.2,272.6c2.2-1.5,4.4-2.6,6.7-3.8,3.4-2.6,6.1-6,9.7-8.5,0,0,.1,0,0,0-2.2,3.9-5.9,6.4-9.5,8.7,0,0-2,1.7-2,1.7-1.4,1-3.1,1.7-4.8,2,0,0,0,0,0-.1h0Z" fill="#fff"/><path d="M146,272.7c7.2-5.9,13.7-12.5,18.7-20.3,0,0,.1,0,.1,0-2.2,4.1-4.9,7.9-7.9,11.5-2.9,3.5-6.7,7.3-10.9,8.7h0Z" fill="#fff"/><path d="M145.3,272.2c2.4-2.7,5.5-4.8,7.1-8,1.6-3.2,3.3-6.5,5.3-9.5,0,0,.1,0,.1,0-.9,4.6-3.7,8.4-6.5,11.9-1.4,2.4-3.2,4.7-5.9,5.6,0,0-.1,0,0,0h0Z" fill="#fff"/><path d="M145.2,271.2c1-1.6,2.1-2.7,3.3-4,1.4-2.5,2-5.4,3.9-7.7,0,0,.1,0,.1,0,0,1.2-.4,2.4-.8,3.5-.7,1.7-1.9,3-2.9,4.4-.7,1.7-1.7,3.3-3.5,3.9,0,0-.1,0,0,0h0Z" fill="#fff"/><path d="M144.3,247.8c1,0,1.6,12.6,1.1,14.6-.5,2.2-2.6,6.4-4.5,8.1s-5.6,4.4-5.6,4.4l-2-5.7c-1.9-13.8,2.3-15.4,4.5-17.1,2.2-1.8,5.1-2.1,6.2-4.1,0-.1.1-.2.2-.2M144.3,245.6h0c-.4,0-1.5.1-2.1,1.3-.3.6-1.2,1-2.3,1.5-1,.5-2.2,1.1-3.4,2-.2.1-.4.3-.6.4-3.3,2.5-6.5,6-4.7,18.7v.2s0,.2,0,.2l2,5.7.9,2.8,2.4-1.7c.2-.1,3.8-2.7,5.8-4.6,2.3-2.2,4.6-6.9,5.1-9.2.4-1.7.3-14.3-1.4-16.4-.5-.6-1.1-.9-1.9-.9h0Z" fill="#fff"/><path d="M135.3,274.8c-1.3-5.5-1.7-12,2.3-16.5,1.7-1.8,3-3,3.9-5.4.5-1,.9-2.1,1.3-3.1,0,0,.1,0,.1,0-.3,1.1-.7,2.2-1.1,3.2-.4,1-.8,2.1-1.4,3.1-.7,1-1.6,1.7-2.2,2.6-3.6,4.5-2.2,10.9-2.9,16h0Z" fill="#fff"/><path d="M135.2,274.3c-.5-3.3,1.2-5.7,1.9-8.7.5-2.9,1.2-6.4,4.1-7.8,0,0,0,0,0,0-1.4,2.7-2.5,5.2-3.7,7.9-1.1,2.8-.7,5.6-2.2,8.5,0,0-.1,0-.1,0h0Z" fill="#fff"/><path d="M135.1,275.4c.1-3,1.5-5.7,3-8.2,1.4-2.6,2.9-5.1,4.4-7.5h.1c-.6,1.4-1.2,2.7-1.8,4-1.3,2.6-2.3,5.3-3.5,7.9,0,0-2,3.9-2,3.9h-.1Z" fill="#fff"/><path d="M135.6,273.8c1-1.1,1.8-1.7,3.1-2.4.7-.6.9-1.5,1.5-2.2.7-1.2,1.6-2.1,2.8-2.8,0,0,0,0,0,0-.2,1-.6,1.8-1.1,2.5-.8,1.2-2.1,1.8-3,2.8-.5.8-.9,1.6-1.9,2-.4.2-.9.4-1.4.3h0Z" fill="#fff"/><path d="M135.4,275c.2-1.3.8-2.4,1.4-3.4.8-.9,1.7-1.8,2.2-2.9.8-2.3,2.4-4.4,4.8-5.5,0,0,0,0,0,0-1,2.3-2.8,3.8-4.4,5.7-.9.9-1.2,2.1-1.7,3.2-.6,1.1-1.3,2-2.2,2.9,0,0-.1,0-.1,0h0Z" fill="#fff"/><path d="M135.2,274.2c-2.7-3.4-1.8-8.4-1.3-12.4,0,0,.1,0,.1,0,0,2.1,0,4.2.3,6.2.4,2.1.7,4,.9,6.1,0,0-.1,0-.1,0h0Z" fill="#fff"/><path d="M47.2,322.3c2.1,0,16.4,14,18.1,16.9,1.9,3.3,4.2,10.9,3.9,15.3-.3,4.4-1.8,11.9-1.8,11.9l-9-4.8c-18.3-14.9-15-21.7-14.3-26.5.7-4.8,3.9-8.5,2.9-12.3,0-.4,0-.6.2-.6M47.2,320.1h0c-.8,0-1.5.3-1.9.9-.3.4-.7,1.2-.4,2.4.4,1.6-.3,3.4-1.2,5.5-.7,1.7-1.5,3.7-1.8,6,0,.4-.1.8-.2,1.3-.9,5.1-2.4,12.9,15.3,27.2h.2c0,.1.2.2.2.2l9,4.8,2.6,1.4.6-2.9c0-.3,1.6-7.7,1.9-12.2.3-5.1-2.2-13.2-4.2-16.5-1.2-2.1-6.4-7.3-9.3-10.1-8.3-8-9.9-8-10.7-8h0Z" fill="#fff"/><path d="M67,366.2c-8-5.3-16-12.9-16.3-23.1-.2-1.9.2-3.9,0-5.7-.2-1.8-.8-3.6-1.4-5.5-.6-1.8-1.2-3.6-2-5.4h.2c.9,1.6,1.7,3.4,2.4,5.2.7,1.8,1.5,3.5,1.9,5.5.3,1.9,0,3.8.3,5.7.5,5.8,3.7,10.3,7.5,14.5,2.4,2.9,5.1,5.6,7.6,8.6,0,0-.1.2-.1.2h0Z" fill="#fff"/><path d="M66.5,365.8c-1.9-1.7-3.4-3.8-4.6-6-1-2.3-1.6-4.8-3.1-6.9-2.8-4.2-5.9-9.3-4-14.4,0,0,.2,0,.2,0,1.1,3.8,2,6.9,3.4,10.5.8,2.3,1.4,4.9,2.9,6.9,2.4,3,4.2,6.1,5.4,9.8,0,0-.2.1-.2.1h0Z" fill="#fff"/><path d="M67.6,367.2c-3.3-3.8-4.7-8.8-5.9-13.6-1.2-4.8-2.4-9.6-3.3-14.5,0,0,.2,0,.2,0,1.4,4.2,3.2,10,4.7,14,1.8,4.6,3.2,9.2,4.5,14,0,0-.2.1-.2.1h0Z" fill="#fff"/><path d="M66.4,364.7c.1-1.6,0-2.9.4-4.4.2-.7.6-1.4.6-2.2.2-1.5-.6-3-.8-4.5-.4-2.3-.4-4.5.2-6.8,0,0,.2,0,.2,0,.9,1.4,1.3,2.9,1.5,4.4.4,2.3-.5,4.6-.5,6.9.3,1.5.7,3.1,0,4.7-.3.7-.8,1.5-1.5,2,0,0-.2-.1-.2-.1h0Z" fill="#fff"/><path d="M67.5,366.5c-1.1-1.8-1.8-3.8-2.1-5.9-.1-2.1,0-4.2-.7-6.1-1.1-2.9-2-6.1-1.3-9.3.2-1,.4-2,.8-3.1h.2c1.7,4.9.3,10.2,1.6,15.2,1.3,2.9,2,5.8,1.6,9.1,0,0-.2,0-.2,0h0Z" fill="#fff"/><path d="M66.2,365.6c-3.8-.4-6.9-2.8-9.3-5.5-2.5-2.6-4.8-5.4-6.7-8.5,0,0,.2-.1.2-.1,2.4,2.6,4.9,5.1,7.6,7.4,2.9,2.1,5.5,4.1,8.3,6.5,0,0,0,.2,0,.2h0Z" fill="#fff"/><path d="M142.2,274.5h.4c-.3,5.7-8,8.5-8.9,13.5-1.1,3.5-.1,8.9-2.5,12.7-2.7,4.1-24.6,19.6-28,22.3-4,3.9-13.1,21.8-21.5,29.1-3.3,5.6-6.4,13.7-6.8,20.2.4,2.8.6,7.2-.6,10-3.7,9.6-7.1,21.3-2.5,31,5.5,6,8.6,13.7,9.4,22.1.1,2.8-2,6.8-2.8,9.7-1.3,2.9-1.9,6.7-3.7,9-.2-4.7,1.1-9.7,1.9-14.5.3-1.2.8-2.6.6-4-1.3-6.8-4.7-14.3-8.5-20.4-3.3-11,1.1-22.9,3-33.7.7-3.1,0-5.1-.8-8.7-.3-9,2.2-16.8,6.6-24.5,5.4-6,18.6-22.3,23.9-28.1,3.4-3.3,7.8-6.9,14.7-9.8,2.7-1.2,8.3-6.6,10.4-8.3,4.5-3.3,1-8.8,3-15.5,1-3.2,3.8-5.5,6.4-7.2,2.5-1.5,5-2.5,6.4-5M142.2,272.4c-.8,0-1.5.4-1.9,1.1-.8,1.5-2.3,2.4-4.2,3.4-.5.3-.9.5-1.4.8-3.9,2.4-6.4,5.2-7.4,8.4-.9,3.1-.8,6-.7,8.3.1,3.3.1,4.9-1.5,6.1,0,0,0,0,0,0-.6.5-1.4,1.2-2.3,2-2.2,2-5.9,5.2-7.6,6-7.5,3.1-12.1,7-15.3,10.2,0,0,0,0,0,0-2.8,3-7.6,8.8-12.3,14.4-4.4,5.3-9,10.8-11.6,13.7-.1.1-.2.2-.3.4-5,8.8-7.2,16.9-6.9,25.6,0,.1,0,.2,0,.4.1.6.3,1.2.4,1.8.6,2.4.9,3.9.4,6,0,0,0,0,0,.1-.4,2.4-1,4.8-1.6,7.4-2,9-4.1,18.3-1.4,27.3,0,.2.1.4.2.5,4.1,6.6,7.1,13.7,8.2,19.6,0,.6-.1,1.5-.4,2.4,0,.2-.1.5-.2.7,0,0,0,0,0,0-.2.9-.3,1.8-.5,2.7-.8,4-1.6,8.2-1.4,12.2,0,.9.6,1.7,1.5,1.9.2,0,.4.1.6.1.6,0,1.3-.3,1.7-.8,1.3-1.7,2.1-4,2.8-6.2.4-1.2.8-2.3,1.2-3.3,0,0,0-.2.1-.3.2-.8.6-1.8,1-2.8,1-2.4,2-5.2,1.9-7.6,0,0,0,0,0,0-.8-9-4.1-17-9.7-23.1-4-8.9-.7-20.1,2.7-29,1.6-3.7,1-9,.8-10.9.4-6.5,3.6-14,6.3-18.7,5.2-4.7,10.5-13,14.8-19.7,2.6-4,5-7.8,6.4-9.2.7-.6,2.2-1.6,4-3,11.1-8.2,22.2-16.5,24.4-19.8,0,0,0,0,0,0,1.7-2.7,1.9-6,2.1-8.9.1-1.6.2-3.2.6-4.3,0,0,0-.2,0-.2.3-1.7,1.9-3.2,3.7-4.9,2.4-2.3,5.1-4.9,5.3-8.7,0-1-.6-1.9-1.6-2.2h-.4c-.2-.2-.4-.2-.5-.2h0Z" fill="#fff"/></svg>