<?xml version="1.0" encoding="UTF-8"?><svg id="Layer_1" xmlns="http://www.w3.org/2000/svg" width="191.1" height="544.5" viewBox="0 0 191.1 544.5"><path d="M72.3,118.3l.2,11.7c-2.3,5-4.9,9.9-7.9,14.4-2.1,7.4-3.1,17.6-1.5,25,1.5,3,3.1,7.9,2.5,11.5-1.2,12-1.5,26.4,7.1,35.8,8.5,5,14.7,12.8,18.3,22,1.1,3.2-.2,8.4-.2,11.9-.6,3.7-.2,8.2-1.5,11.4-1.7-5.2-1.9-11.4-2.4-16.9,0-1.5,0-3.3-.7-4.7-3.7-7.3-10.2-14.6-16.7-20.3-7.4-11.4-6.1-26.2-7.3-39.1-.2-3.7-1.7-5.8-3.8-9.5-3.1-9.6-2.9-18.6-.6-28.1.1-.6.2-1.2.4-1.8.2-.5.6-1,.9-1.5,4.2-7.6,9.1-14.2,13.2-21.7M75.4,105.9l-5.9,10.9c-2,3.7-4.2,7.1-6.5,10.7-2.2,3.5-4.5,7.1-6.6,10.9-.3.5-.7,1.1-1,1.8v.2c0,0-.2.2-.2.2-.2.7-.4,1.4-.5,2-2.6,10.9-2.4,20.4.7,29.8v.3c0,0,.2.3.2.3.4.7.7,1.3,1,1.9,1.5,2.6,2.2,4,2.4,6.3h0c0,0,0,.2,0,.2.3,2.8.4,5.7.6,8.8.5,10.9,1.1,22.2,7.3,31.8l.2.4.3.3c7,6.1,12.8,13.1,15.9,19.3.3.5.3,1.6.3,2.6,0,.2,0,.5,0,.7h0c0,.1,0,.2,0,.2.1,1.1.2,2.3.3,3.5.4,4.7.8,9.7,2.3,14.2l2.7,8.3,3.4-8c1.1-2.5,1.2-5.4,1.4-8.1,0-1.4.2-2.8.4-4v-.3s0-.3,0-.3c0-1,.1-2.2.3-3.5.3-3.1.7-6.7-.3-9.5h0s0,0,0,0c-3.9-10.1-10.5-18.1-19.2-23.3-7.3-8.4-7.1-21.3-5.9-32.8.7-5-1.7-10.8-2.7-12.9-1.4-6.9-.4-16.2,1.4-22.6,2.6-4,5.2-8.6,7.9-14.4l.3-.7v-.7s-.2-11.7-.2-11.7l-.2-12.4h0Z" fill="#fff"/><path d="M122.1,394.2l-2.2,9.3-3.2,13.4-.5,12.7c.7,7,.3,14-3,20.7-3.7,7-8.3,10.2-11.6,14.6-3.2,11.8-7.9,23.6-9.7,35.6-1.3,6.8-8.5,10.4-12.2,15.1-5,6.5-11.8,25-11.9,25s0,0,0,0c0-3.5,5.2-19.2,10.1-26.2,3.6-5.2,9.7-8.2,10.8-14.3,1.4-12.5,5.8-24.4,8.8-36.6.7-2.3,3-3.9,4.5-5.5,2.6-2.8,5.3-6.3,7.1-9.6,4.2-9.1,2.6-19.2.7-29.2l9.1-24.2,3.2-.6M126,390.4l-4.5.9-3.2.6-1.6.3-.6,1.5-9.1,24.2-.3.8v.8c1.8,8.9,3.6,18.9-.3,27.4-1.6,2.9-4.1,6.2-6.6,8.9-.3.3-.7.7-1.1,1.1-1.5,1.4-3.3,3.1-4.1,5.5h0c0,0,0,.2,0,.2-1,3.9-2.1,7.9-3.2,11.8-2.3,8.1-4.7,16.5-5.7,25.1-.6,2.9-2.8,5-5.4,7.5-1.7,1.7-3.5,3.4-5,5.5-3.1,4.5-5.9,11.4-7.2,15.1-1.6,4.5-3.4,10.2-3.4,12.8v2.9h2.9c2,0,2.6-1.4,3.3-3.2,4.6-11.8,8.3-19.5,10.9-22.8,1.1-1.4,2.6-2.7,4.2-4.2,3.5-3.1,7.5-6.7,8.6-12.2h0c0,0,0-.1,0-.1,1.2-7.7,3.7-15.6,6.1-23.3,1.2-3.7,2.4-7.6,3.4-11.4,1-1.3,2.1-2.5,3.3-3.8,2.6-2.8,5.6-5.9,8.2-10.8h0s0,0,0,0c3.1-6.3,4.2-13.3,3.3-22.1l.5-12.2,3.1-13.1,2.2-9.2,1.1-4.5h0ZM122.1,397.1h0,0Z" fill="#fff"/><path d="M129.2,180.9c.2,0,.3.3,0,.4-3.7,2-7.7,3.8-10.3,6.9-2.3,3.1-2.2,7.8-3.7,11.5-2,12.3-15,16.9-17.5,28.5,1.1,10.1,1.5,20.5,1.5,30.7-.4,3.6-3.5,5.9-4.2,8.8-1.8,7.2,2.5,14.9,5,22.6,1.6,3.8.9,8.2,2.5,11.9,3,7.7,8.8,13.8,11,21.9,1.2,12.3.3,24.7,1.2,37,.1,5.1,1.7,9.8,3.7,14.5l-4.9-6.4c-2.5-14.6-.2-29.9-1.3-44.9-2-7.7-8.3-13.9-11.3-21.4-.9-1.8-1.5-4.2-1.6-6.2-.9-6-4.3-11.1-6.3-16.9-2.5-5.5-2.9-13.9,1.6-19,1.1-1.8.7-3.3.8-5-.2-8.5-.4-19.4-1.1-27.8,1.3-7.6,7.5-13.8,13.3-18.6,3.8-3.8,5.7-11,7.5-16.3.6-1.8,1.1-4.2,2.8-5.9,3.2-3.3,7.3-4.7,11.2-6.4,0,0,0,0,0,0M129.2,178h0c-.4,0-.8,0-1.2.3-.5.2-.9.4-1.4.6-3.5,1.5-7.6,3.1-10.8,6.4-1.9,1.9-2.7,4.3-3.2,6.1,0,.3-.2.6-.3.9-.3.8-.6,1.7-.9,2.6-1.5,4.5-3.1,9.7-5.8,12.5-5.8,4.9-12.7,11.5-14.2,20.3,0,.2,0,.5,0,.8.6,7.1.8,16.1,1,23.9,0,1.2,0,2.5,0,3.6,0,.4,0,.9,0,1.2,0,1.1,0,1.5-.2,2-5.3,6.2-4.7,15.6-1.9,21.8.8,2.2,1.7,4.2,2.6,6.2,1.5,3.4,3,6.5,3.5,9.9.1,2.2.8,4.9,1.8,7.1,1.4,3.5,3.5,6.7,5.4,9.8,2.4,3.7,4.6,7.2,5.7,11,.4,6,.3,12.2.2,18.2-.2,8.8-.4,17.9,1.2,26.7,0,.5.3.9.6,1.3l4.9,6.4c.6.7,1.4,1.1,2.3,1.1s1-.1,1.5-.4c1.3-.7,1.8-2.3,1.2-3.7-1.7-4.2-3.4-8.7-3.5-13.5,0,0,0-.1,0-.2-.4-5.6-.4-11.4-.5-17.1,0-6.5,0-13.3-.7-20,0-.2,0-.3,0-.5-1.4-5-3.9-9.1-6.3-13.2-1.8-3-3.6-5.9-4.8-9,0,0,0,0,0,0-.6-1.5-.8-3.3-1-5.2-.2-2.2-.5-4.4-1.4-6.6-.6-1.9-1.3-3.7-2-5.5-2.1-5.6-4.1-10.8-3-15.4.2-.8.8-1.7,1.5-2.7,1.1-1.7,2.5-3.8,2.8-6.5,0,0,0-.2,0-.3,0-10.8-.5-21-1.4-30.6,1.1-4.6,4.3-8.1,7.7-11.8,3.9-4.3,8.4-9.1,9.6-16.1.6-1.6.9-3.2,1.3-4.8.5-2.2.9-4.3,1.9-5.7,1.8-2.1,4.7-3.7,7.7-5.2.5-.3,1-.5,1.6-.8,1.3-.7,1.9-2.1,1.6-3.5-.3-1.4-1.6-2.5-3.1-2.5h0Z" fill="#fff"/><path d="M69.3,96.7c.4-1,.7-1.7,1.1-2.2,0,0,.2,0,.2.1.7.2,1.3,0,1.9-.2.7.7,1.6,1,2.6.9.3.4.6.8.9,1.3-7.7,27.3-5.3,59.4,18.7,60,4.8.1,10.8,9.9,16.6,7.8,12.7-4.5,10.3-18.2,10.9-27.3,1.3-19.8-16.4-35.4-38.7-43.2-1.1-1.4-1.6-2.4-1.7-3.2.7-.5,1.2-1.3,1.3-2.2,1-.5,2.4-.7,3.2-.7,5.3,2.7,10.9,7.1,23.4,11,8.8,2.7,16.6,12.3,25.8,12.3,10.7,0,25.9-9.3,24.9-22.3-.3-3.3-4.9-7.9-5.5-10.7-2.3-10.7-2.7-16.6-9.5-20.4-6.8-3.9-15.8-3.9-26.5.5-9.5,3.9-20.3,11.3-32.1,22.5-1.1.3-2.1.5-3,.5-.7-.8-1.8-1.3-2.9-1.1,0,0,0,0-.1,0,0-.1,0-.2,0-.4-.2-1.3-1.2-2.3-2.4-2.6-.1-.8-.1-1.6,0-1.9,15.8-9.7,55.7-30.8,40.2-53.2-1.9-2.8-.7-11-7-15.2-8.5-3.7-15.1,2.3-19.3,2.2-15.2-.4-23.8,22.7-20.2,64.7-.2,1-.5,1.8-.9,2.3-.1,0-.2.2-.4.3-1,.8-2.3.5-3.5,0-2.1-8.3-6-20.4-12.2-29.8-6.3-9.6-18.2-20.8-29.8-18-5.3,1.3-8.5,14.5-15.1,21.7-9.4,7.9-6.9,14-4,22.8,5.4,16.3,24.4,25.9,56.3,15.4,1.5,0,2.5.2,3.1.5.2.3.5.6.8.9.1.9-.7,2-1.6,2.8-16.9,7.1-65.9,4.8-50.1,51.6,2.3,6.7,2.7-1.7,14.6,24,10.9,6.3,31.9-10.9,39.9-71.4Z" fill="none" stroke="#fff" stroke-miterlimit="10" stroke-width="4.9"/><path d="M69.9,78.4c-4-.4-1.4,3.8-2.4,4.6s-1.9.7-2.5,1.7-1.1,1.2.3,3.5,1.6.2,2.2,1.7.1,2.5.8,3.5.6,1.6,1.8,1.6,1.7-.4,1.9.5,1.5,1,2.6,1.3c1.1.4,2.5,1.4,3.4,1,1-.5.4-1.4,1.7-.3s1.8,2,3.1.8c1.3-1.3,1.7-1.5,1.4-2.7s.7-1.7.8-3.4c0-1.7,2.1-1.3,2.2-2.9s-.5-3.9-1.4-3.8-.8-1-1.7-2.2c-.9-1.3-1.1-4.1-2.1-3.6s-1.7.4-2.7-.3-.9-2-2.1-2.3-3.3.5-3.5,1.4c-.2.9-3.9.2-3.9.2Z" fill="none" stroke="#fff" stroke-miterlimit="10" stroke-width="1.6"/><path d="M67.3,80.3c-2.1-2-3.7-4.2-5-6.7-.6-1.3-1-2.6-1.8-3.8-1.4-2.4-3.8-4.1-5.6-6.2-2.9-3.1-5.4-6.3-7.4-10.2,0-.1,0-.3.2-.2,2.6,1.4,4.7,3.4,6.6,5.4,3.1,3.3,4.4,7.2,7,10.6,1.9,2.1,4,4.1,5.1,6.8.6,1.3,1,2.7,1.3,4.1,0,.1-.1.2-.2.1h0Z" fill="#fff"/><path d="M64.9,85.6c-2.9-2-5.6-4.1-8.2-6.5-1.3-1.2-2.4-2.6-3.8-3.7-2.7-2.2-6.2-3.3-9.2-5-4.7-2.4-9.2-5-13.4-8.3-.1,0,0-.3.1-.2,5.3,1.1,10.1,3.4,14.5,6.5,3,1.9,5.5,4.5,8.5,6.4,2.3,1.4,4.8,2.4,6.8,4.3.6.5,1.4,1.3,1.9,1.9,1.2,1.3,2.3,2.8,3.1,4.4,0,.1,0,.3-.2.2h0Z" fill="#fff"/><path d="M65.2,89.1c-2.5,0-4.8-.4-7-1.3-1.1-.5-2.1-1.3-3.2-1.6-2.2-.9-4.7-.6-7.1-1-3.6-.5-6.9-1.4-10.2-3-.1,0,0-.2,0-.3,2.5-.6,4.9-.4,7.3,0,3.7.5,6.7,2.6,10.2,3.5,2.4.3,4.8.3,7,1.5,1.1.5,2.1,1.1,3.1,2,0,0,0,.2,0,.2h0Z" fill="#fff"/><path d="M66,83.3c-3.7-2.7-7-5.4-10.2-8.7-3.3-3-6.8-5.9-10.2-8.8,0,0,.1-.2.1-.2,3.9,2.3,7.7,4.8,11.4,7.4,1.8,1.3,3.8,2.6,5.4,4.3,1.6,1.7,3.1,3.6,3.8,5.9,0,0-.2.1-.2.1h0Z" fill="#fff"/><path d="M68.5,82.1c-3.4-1.8-5.7-4.5-7.8-7.6-2.3-2.9-4.5-5.7-6.6-8.7,0,0,.2-.2.2-.2,2.7,2.4,5.4,4.9,8,7.5,2.8,2.5,5.3,5.2,6.5,8.8,0,0-.2.2-.2.2h0Z" fill="#fff"/><path d="M68.3,78.1c-2.5-3-3.9-6.4-5.3-9.9-1.6-3.4-3.4-6.7-5.6-9.7,0,0,.2-.2.2-.2,2.8,2.6,5.2,5.7,7.2,8.9,2.3,3.2,3.9,6.8,3.8,10.8,0,0-.2,0-.2,0h0Z" fill="#fff"/><path d="M63.3,86.3c-3.2-.2-5.7-1.3-8.3-2.8,0,0-4-1.9-4-1.9-1.3-.6-2.7-1.2-4-1.8v-.3c1.5.2,3,.5,4.4.9,4.3,1.2,9.2,1.8,12,5.7,0,0-.1.2-.1.2h0Z" fill="#fff"/><path d="M64.4,89.9c-4,2.5-8.6.9-12.9.2-1.4-.3-2.8-.6-4.2-1v-.3s4.3,0,4.3,0h4.3c1.4,0,2.8-.4,4.2-.2,1.4.2,2.8.4,4.2,1v.3h0Z" fill="#fff"/><path d="M4,62c1.9,1.1,3.6,2.6,5,4.4.6.9,1.1,2,1.9,2.8,1.5,1.7,3.7,2.4,5.5,3.7,2.8,1.7,5.2,3.8,7.8,5.9,0,0,0,.3,0,.3-1.3.1-2.4-.2-3.5-.6-2.2-.8-4.1-2-5.7-3.7-1.7-1.5-2.8-3.6-4.5-5-1.9-1.3-3.9-2.4-5.1-4.4-.6-1-1.1-2-1.4-3.2l.2-.2h0Z" fill="#fff"/><path d="M16.5,38.8c2.6-.6,5,0,7.2,1.1,1.5.6,2.6,2.1,4.2,2.5.8.2,1.7.2,2.5.3,1.2.3,2.3,1.1,3.1,2,.3.4.6.7.7,1.3,0,0,0,0,0,0-1.6-.2-3.2-.5-4.5-1.4-.6-.5-1.2-1.2-1.9-1.5-.7-.4-1.5-.5-2.3-.6-1.6,0-3.1-.4-4.6-1-1.4-.6-2.8-1.4-4.1-2.6,0,0,0-.2,0-.3h0Z" fill="#fff"/><path d="M4.3,53.8c3.6,2,6.5,4.2,9.6,6.7,3.2,2.3,6.5,4.5,9.9,6.5,0,0,0,.1,0,.2-3.8-1-7.5-3-11-4.9-1.7-1-3.6-1.9-5.1-3.3-1.5-1.4-2.8-3-3.6-5,0-.1,0-.2.2-.2h0Z" fill="#fff"/><path d="M14,41.3c4.1.5,7.6,2.1,11.1,4.2,3.1,1.6,6.2,3.2,9.1,5.2.4.4.9.6,1.1,1.2,0,.2-.2.2-.3,0,0-.1-.3-.3-.5-.4-2.7-1.4-7.4-2.9-10.3-4.1-3.8-1.2-7.5-2.8-10.4-5.8,0,0,0-.3.1-.2h0Z" fill="#fff"/><path d="M6.7,52.8c1.5,0,2.8.3,3.9,1.2.5.5.9,1.2,1.4,1.5,1.1.8,2.7.6,3.9,1,2.1.5,3.6,1.5,5.1,3.2,0,0,0,.2,0,.2-2.1.6-4.4,0-6.1-1.2-1.2-.6-2-2.1-3.3-2.5-.6-.2-1.4-.2-2.1-.4-.7-.2-1.2-.6-1.7-1.1-.5-.5-1-1-1.3-1.8,0,0,0-.2.1-.2h0Z" fill="#fff"/><path d="M13.5,45.9c1.5-.3,2.9,0,4.1.7.5.4,1,1.1,1.6,1.4,1.1.7,2.8.4,4,.9,1.7.4,3.2,1.4,4.3,2.8.2.3.5.6.6,1.1,0,.1-.1.1-.2.1-2-.1-4-.6-5.7-1.8-1.2-.6-2-2-3.3-2.4-.6-.2-1.4,0-2.1-.2-.7-.1-1.2-.5-1.8-.9-.5-.4-1.1-.9-1.5-1.6,0,0,0-.2.1-.2h0Z" fill="#fff"/><path d="M20.7,32.8c2.1-.5,4.2-.3,6.2.4,1.9.8,3.5,2.2,5.6,2.5,1.5.4,3.3.5,4.4,1.7,0,0-.4-.4-.4-.4,3.2,1.5,5.9,4.2,6.9,7.6,0,0-.2.1-.2.1-3-2-5.7-3.8-8.3-6.1-.4-.4-1.9-1.5-2.7-2-2.3-1.6-5.3-.8-7.7-1.8-1.3-.4-2.5-.9-3.7-1.8v-.3h0Z" fill="#fff"/><path d="M4.2,58.3c2.6,1,4.4,2.3,6.3,4.2,0,0,5.9,4.9,5.9,4.9v.2c-2.5-1-4.8-2.1-7.1-3.4-2.4-1.1-4.8-2.9-5.3-5.7,0,0,.2-.2.2-.2h0Z" fill="#fff"/><path d="M21.7,30.9c3.8-2,7.8.6,11.3,2,1.2.6,2.3,1.1,3.5,1.7v.2c0,0-7.6-1.4-7.6-1.4-2.6-.2-4.8-.8-7.2-2.2,0,0,0-.3,0-.3h0Z" fill="#fff"/><path d="M18.2,36.8c1.8-1.6,4.5-1.2,6.5-.1,1.5.6,3,1.3,4.3,2.2.5.4,1.1.6,1.2,1.3,0,0-.3,0-.3,0-1.7-.9-3.9-1.1-5.8-1.5-1-.2-2.1,0-3-.4-1-.3-1.8-.7-2.9-1.2v-.3h0Z" fill="#fff"/><path d="M4.4,66.6c2,1.1,3.2,2.8,4.1,4.8,1.1,1.8,2.2,3.6,3.5,5.2,0,0-.2.2-.2.2-1.9-1.1-3.6-2.5-5-4.1-1.7-1.5-2.9-3.5-2.6-6,0,0,.2-.1.2-.1h0Z" fill="#fff"/><path d="M10.8,48.2c2.3.2,4,1.4,5.6,3,1.7,1.3,3.4,2.5,5.2,3.5,0,0,0,.2,0,.2-2.2-.3-4.2-1-6.2-2-2.2-.8-4-2.1-4.7-4.6,0,0,.2-.2.2-.2h0Z" fill="#fff"/><path d="M7.9,50.8c1.9-.8,3.4,0,4.8,1.2,1.3,1,2.6,2,3.7,3.2,0,0-.1.2-.1.2l-2.3-.8-2.3-.8c-.7-.3-1.6-.3-2.2-.8-.6-.5-1.2-1-1.7-2,0,0,0-.2,0-.2h0Z" fill="#fff"/><path d="M159.6,97.1c-1.3,1.9-3.2,3.4-5.3,4.2-1.1.4-2.3.5-3.3.9-2.1.7-3.8,2.4-5.9,3.3-2.1,1-4.3,1.6-6.6,1.6-1.2,0-2.4,0-3.5-.6v-.3c3.2-1.2,6.1-2.4,9.3-3.1,2.1-.7,4.5-.6,6.4-1.7,1-.5,1.8-1.4,2.7-2,1.4-.9,2.9-1.6,4.5-2.1.5-.2,1.1-.3,1.7-.4v.2h.1Z" fill="#fff"/><path d="M155.1,71.2c-2.4,1-4.6,1.3-7.1.9-1.6,0-3.2-.9-4.7-.6-.8.1-1.5.6-2.3.8-1.5.4-3.1.2-4.6-.1,0,0-.2,0-.2,0,0,0,0,0,0-.1.2-.5.6-.8,1.1-1,1.1-.6,2.3-1,3.6-.9.8,0,1.6.5,2.4.5.8,0,1.6-.1,2.4-.4,1.5-.6,3.2-.8,4.8-.8,1.6.1,3.2.5,4.7,1.4,0,0,0,.2,0,.3h0Z" fill="#fff"/><path d="M161.9,89.3c-2.7,3.2-6.9,4.5-10.9,5-3.9.7-7.9,1.1-11.9,1.2,0,0-.1,0-.1-.1,3.7-1.1,7.8-1.8,11.5-3.1,3.7-1.4,7.2-2.6,11.2-3.2.1,0,.2.1.1.2h0Z" fill="#fff"/><path d="M156.6,74.3c-3.7,2-7.7,2.2-11.7,2.2-3.1.2-8,0-11,.5-.2,0-.5.1-.6.2,0,.1-.3.1-.2,0,.4-.5.9-.6,1.4-.8,3.3-.9,6.8-1.4,10.2-2,4-.8,7.8-1.2,11.8-.3.1,0,.2.2,0,.3h0Z" fill="#fff"/><path d="M159.8,87.5c-1.1,1.1-2.3,1.7-3.8,1.7-1.4-.3-2.7-.6-4.1.2-2.5,1.3-5.6,1.6-8.1,0,0,0,0-.1,0-.2,1.3-.9,2.6-1.2,3.9-1.4,1.3-.1,2.7,0,4,.3.7.2,1.4.2,2,0,.6-.2,1.2-.7,1.9-1,.6-.3,1.3-.3,2-.3.7,0,1.4.1,2.1.5,0,0,.1.2,0,.3h0Z" fill="#fff"/><path d="M155.6,78.8c-1.2.9-2.5,1.4-3.9,1.3-.7-.1-1.4-.5-2.1-.5-.7,0-1.3.2-2,.5-1.2.6-2.5.9-3.9,1.1-1.3,0-2.8-.2-4.1-.6,0,0,0,0,0-.1,1.4-1.8,3.8-2.3,5.9-2.1,1.3,0,2.8.8,4.1.4.7-.1,1.3-.6,1.9-.8.7-.2,1.3-.2,2-.1.7.1,1.4.3,2.1.7,0,0,.1.2,0,.3h0Z" fill="#fff"/><path d="M153,64.1c-2.1.5-4,.6-6.1.4-1.9-.4-4-1.2-5.9-.7-1.1.3-2.3.7-3.3,1.1-2.7,1.1-6.5,2.2-9.8,3,0,0-.2-.2-.2-.2,2-3,5.5-4.7,9-5,0,0-.5.3-.5.3,1.4-.9,3.2-.3,4.7-.2,2.7.5,5.4-1.1,8.2-.4,1.3.3,2.7.7,3.9,1.5v.3h0Z" fill="#fff"/><path d="M160.6,93.6c-2.1,3.8-6.9,3.6-10.7,4.3-1.3.1-2.6.3-3.8.4v-.3c0,0,7.1-2.8,7.1-2.8,2.4-1.2,4.5-1.8,7.3-1.9,0,0,.1.2.1.2h0Z" fill="#fff"/><path d="M152.6,61.9c-2.7.6-4.9.4-7.5-.2,0,0-7.5-1.1-7.5-1.1v-.3c2.5-.4,5.1-.7,7.7-.7,2.6-.3,5.6,0,7.5,2.1,0,0,0,.2,0,.2h0Z" fill="#fff"/><path d="M154,68.6c-2.3.4-4,.3-6.1-.4-1.9-.2-4-.8-6-.5,0,0-.3,0-.3,0,0-.2.2-.3.4-.4.9-.5,1.8-.6,2.8-.8,1.1-.2,2.1-.3,3.2-.3,1.1,0,2.2-.3,3.3.1,1.1.4,2.2,1,2.8,2.1,0,0-.1.2-.1.2h0Z" fill="#fff"/><path d="M157.6,81.8c-2.1,3.1-5.9,2.9-9.2,3-1.1,0-2.2,0-3.3-.3v-.3c2.1-.4,4.1-1,6.1-1.6,2-.9,4-1.5,6.2-1,0,0,.1.2.1.2h0Z" fill="#fff"/><path d="M159.3,85.2c-1.5,1.3-2.8,1.6-4.6,1.4,0,0-2.4,0-2.4,0h-2.4s0-.3,0-.3c.7-.4,1.5-.7,2.3-1,.8-.3,1.5-.6,2.3-.8.8-.2,1.6-.7,2.4-.6.8,0,1.7.3,2.5,1v.3h0Z" fill="#fff"/><path d="M123.1,145.9c-1.4-1.8-2.4-3.8-3-5.9-.2-1.1-.3-2.2-.7-3.3-.7-2.1-2.6-3.7-3.7-5.5-2-2.6-3.4-5.5-5-8.4,0,0,.1-.2.1-.2,1.2.3,2.2,1.1,3,1.9,1.7,1.5,3,3.4,3.9,5.6,1,2,1.2,4.4,2.3,6.4,1.2,1.9,2.8,3.7,3,6,.2,1.1.3,2.3.1,3.5,0,0-.3,0-.3,0h0Z" fill="#fff"/><path d="M106.7,164.2c-2.3-1.2-3.9-3.1-4.8-5.4-.7-1.4-.7-3.2-1.6-4.6-.4-.7-1.2-1.2-1.7-1.8-.7-1-1.1-2.2-1.1-3.5,0-.5,0-1,.3-1.4,0,0,0,0,.1,0,1.1,1.2,2.2,2.4,2.6,4,.2.8.2,1.7.5,2.4.3.7.8,1.4,1.4,1.9,1.2,1.1,2.1,2.3,3,3.7.7,1.4,1.3,2.8,1.6,4.6,0,.1-.1.2-.2.2h0Z" fill="#fff"/><path d="M120.5,154c-1.5-3.8-2.4-7.4-3.1-11.3-1-3.8-2.2-7.6-3.5-11.3,0,0,0-.1,0-.2,2.2,3.1,3.9,7.2,5.4,10.8.7,1.9,1.6,3.7,1.8,5.8.2,2,.3,4.1-.4,6.1,0,.1-.2.1-.3,0h0Z" fill="#fff"/><path d="M110.6,165.7c-2.8-3-4.5-6.5-5.9-10.2-1.4-3.2-2.8-6.4-3.7-9.7,0-.6-.3-1,0-1.6.1-.2.3,0,.2.2,0,.1,0,.4.1.6,1.2,2.8,3.8,6.9,5.3,9.7,2.2,3.4,4.1,6.9,4.3,11.1,0,.1-.2.2-.2.1h0Z" fill="#fff"/><path d="M120.9,158.9c-1.2-.9-2-2-2.3-3.4,0-.7,0-1.5-.1-2.1-.3-1.3-1.7-2.1-2.4-3.3-1.3-1.7-1.8-3.5-1.9-5.7,0,0,0-.2.2-.2,2,.9,3.4,2.8,3.9,4.8.5,1.2.2,2.9.9,4,.3.6,1,1,1.4,1.6.4.6.5,1.2.7,1.9,0,.7,0,1.4-.1,2.2,0,.1-.2.1-.2,0h0Z" fill="#fff"/><path d="M113.5,164.8c-1.3-.7-2.2-1.8-2.7-3.2-.2-.7,0-1.5-.3-2.1-.4-1.3-1.8-2.1-2.5-3.3-1-1.4-1.6-3.1-1.5-4.9,0-.4,0-.8.3-1.2,0,0,0,0,.1,0,0,0,0,0,0,0h0c1.5,1.5,2.7,3.1,3.2,5.1.5,1.2.2,2.8,1,3.9.4.6,1,1,1.5,1.5.4.5.7,1.2.8,1.8.2.7.3,1.4.1,2.2,0,.1-.1.2-.2.1h0Z" fill="#fff"/><path d="M93.8,157.4c-1.9-1-3.4-2.4-4.6-4.2-.9-1.8-1.3-4-2.7-5.5-.9-1.2-2.3-2.5-2.3-4.1,0,0,0,.6,0,.6-1.6-3.2-1.9-7-.5-10.3,0,0,.3,0,.3,0,1,3.4,2,6.5,2.6,10,.3,1.9,1,5.1,3,6.6,2.1,1.8,3.4,4.1,4.3,6.8,0,0-.2.2-.2.2h0Z" fill="#fff"/><path d="M91.8,158.2c-4.2-.8-5.6-5.4-7.5-8.7-.5-1.2-1.1-2.3-1.6-3.5,0,0,.2-.1.2-.1l4.9,5.9c1.9,1.8,3.2,3.7,4.1,6.3,0,0-.2.2-.2.2h0Z" fill="#fff"/><path d="M98.9,157.9c-2.5,0-4.2-1.9-5.1-4-.8-1.4-1.5-2.9-1.9-4.5-.1-.6-.4-1.2,0-1.7,0,0,.2.2.2.2.7,1.8,2.3,3.3,3.5,4.8.7.8,1.6,1.3,2.1,2.2.5.8,1,1.7,1.5,2.8v.2h-.1Z" fill="#fff"/><path d="M116.1,163.9c-2.4-2.7-3.5-5.7-4.5-9-1.2-3.1-2.5-6.3-3.9-9.3,0,0,.2-.1.2-.1,2.1,2.7,4,5.6,5.6,8.6,1.9,3,3.2,6.2,2.9,9.8,0,0-.2,0-.2,0h0Z" fill="#fff"/><path d="M118.7,160.2c-2-.6-2.7-2.1-3-4-.4-1.6-.7-3.2-.8-4.9,0,0,.2,0,.2,0l1.3,2.1,1.2,2.1c.4.7,1,1.3,1.2,2,.2.8.3,1.6,0,2.6h-.2Z" fill="#fff"/><path d="M90.7,9c-.8,2.1-2,4-3.5,5.6-.8.8-1.8,1.4-2.5,2.3-1.4,1.7-1.8,4.1-2.8,6-1.2,3-2.9,5.7-4.6,8.6,0,0-.3,0-.3,0-.3-1.2-.2-2.4,0-3.6.4-2.3,1.4-4.4,2.7-6.3,1.2-1.9,3.1-3.3,4.2-5.3.9-2,1.7-4.3,3.6-5.7.9-.8,1.8-1.5,2.9-1.9l.2.2h0Z" fill="#fff"/><path d="M114.8,13.5c.2,2.6-.6,4.9-2.1,6.9-.8,1.4-2.4,2.3-3,3.8-.3.7-.4,1.6-.7,2.4-.5,1.1-1.4,2.1-2.4,2.8-.4.3-.8.5-1.4.5,0,0,0,0,0-.1.4-1.5.9-3.1,2-4.3.6-.6,1.3-1,1.8-1.7.5-.6.7-1.4.9-2.2.3-1.6.9-3,1.6-4.5.8-1.3,1.7-2.6,3.1-3.7,0,0,.2,0,.2,0h0Z" fill="#fff"/><path d="M98.9,6.9c-2.4,3.3-5,5.9-8,8.6-2.7,2.8-5.3,5.8-7.8,8.9,0,0-.1,0-.2,0,1.5-3.6,4-7,6.4-10.2,1.2-1.6,2.3-3.3,4-4.6,1.6-1.3,3.4-2.4,5.5-2.9.1,0,.2.1.1.2h0Z" fill="#fff"/><path d="M114,9.4c-1.1,4-3.2,7.2-5.7,10.4-2,2.8-4,5.7-6.4,8.2-.4.4-.7.8-1.3.9-.2,0-.2-.2,0-.3.1,0,.3-.2.4-.4,1.8-2.5,3.9-6.9,5.5-9.6,1.8-3.6,3.8-7.1,7.2-9.4,0,0,.3,0,.2.2h0Z" fill="#fff"/><path d="M102.9,4.1c-.1,1.5-.7,2.7-1.7,3.7-.5.4-1.3.7-1.7,1.2-1,1-.9,2.6-1.6,3.7-.8,2-2,3.4-3.9,4.6,0,0-.2,0-.2,0-.3-2.2.6-4.3,2.1-5.9.8-1.1,2.3-1.7,2.9-2.9.3-.6.4-1.4.7-2,.3-.6.8-1.1,1.3-1.6.5-.4,1.1-.8,1.9-1,.1,0,.2,0,.2.2h0Z" fill="#fff"/><path d="M111.7,7.3c0,1.5-.3,2.8-1.3,3.9-.5.5-1.2.8-1.6,1.3-.9,1-.8,2.7-1.5,3.8-.7,1.6-1.8,3-3.4,3.9-.4.2-.7.4-1.2.4-.1,0,0-.2,0-.3.4-2,1.1-3.9,2.6-5.4.8-1.1,2.3-1.7,2.8-2.9.3-.6.3-1.4.5-2.1.2-.7.7-1.2,1.1-1.7.5-.5,1-.9,1.8-1.2,0,0,.2,0,.2.1h0Z" fill="#fff"/><path d="M118.8,23.3c.2,2.2-.3,4.2-1.2,6.1-1.1,1.8-2.7,3.2-3.3,5.2-.6,1.4-.9,3.2-2.3,4.1,0,0,.5-.4.5-.4-1.9,3-5,5.3-8.5,5.8,0,0-.1-.2-.1-.2,2.4-2.7,4.6-5.1,7.2-7.4.4-.3,1.8-1.6,2.4-2.4,1.9-2,1.5-5.1,2.9-7.4.6-1.2,1.3-2.3,2.3-3.4h.2Z" fill="#fff"/><path d="M120,28.8c1.5,4-1.7,7.6-3.5,10.9-.7,1.1-1.4,2.1-2.2,3.2,0,0-.2-.1-.2-.1l2.5-7.2c.6-2.6,1.5-4.7,3.2-6.8,0,0,.3,0,.3,0h0Z" fill="#fff"/><path d="M116,18.4c1.4,2.1.5,4.6-.8,6.4-.8,1.4-1.7,2.8-2.8,4-.4.4-.8,1-1.4,1,0,0,0-.3,0-.3,1.2-1.6,1.6-3.7,2.3-5.5.3-1,.3-2,.8-2.9.4-.9.9-1.7,1.6-2.7h.3Z" fill="#fff"/><path d="M109.7,5.6c-1.1,3.4-3.1,6-5.4,8.6-2,2.7-4,5.4-5.9,8.2,0,0-.2-.1-.2-.1,1.2-3.2,2.7-6.3,4.4-9.3,1.6-3.1,3.6-5.9,6.9-7.6,0,0,.2.2.2.2h0Z" fill="#fff"/><path d="M105.2,5.3c.5,2-.4,3.4-1.8,4.6-1.1,1.2-2.4,2.3-3.7,3.3,0,0-.2-.2-.2-.2l1.1-2.2,1.1-2.1c.4-.7.5-1.5,1.1-2.1.6-.6,1.2-1,2.2-1.4h.2Z" fill="#fff"/><path d="M38.4,166.8c.5-2.2,1.4-4.3,2.6-6.1.7-.9,1.5-1.7,2.1-2.6,1.1-1.9,1.2-4.3,1.9-6.4.8-3.2,2.1-6.1,3.3-9.2,0,0,.3,0,.3,0,.5,1.2.5,2.4.5,3.5,0,2.3-.7,4.5-1.8,6.6-.9,2.1-2.6,3.7-3.4,5.8-.6,2.2-1.1,4.5-2.7,6.2-.7.9-1.5,1.7-2.6,2.3,0,0-.2-.2-.2-.2h0Z" fill="#fff"/><path d="M14.9,141.8c-.1-2.6.8-4.9,2.3-6.9.9-1.3,2.5-2.2,3.2-3.7.4-.7.4-1.6.8-2.4.5-1.1,1.4-2,2.5-2.7.4-.2.8-.5,1.4-.4,0,0,0,0,0,.1-.5,1.5-1,3.1-2.2,4.2-.6.5-1.4,1-1.8,1.6-.5.6-.8,1.4-1,2.2-.4,1.6-1,3-1.7,4.4-.8,1.3-1.8,2.5-3.2,3.6,0,0-.2,0-.2-.1h0Z" fill="#fff"/><path d="M29,166.4c1.5-3.8,3.3-7,5.4-10.4,1.9-3.5,3.6-7,5.1-10.6,0,0,.1,0,.2,0-.5,3.8-2,7.9-3.4,11.6-.8,1.9-1.4,3.8-2.6,5.5-1.2,1.6-2.6,3.2-4.5,4.2-.1,0-.2,0-.2-.2h0Z" fill="#fff"/><path d="M16.6,146.5c1.2-3.9,3.4-7.1,6-10.2,2.1-2.8,4.2-5.5,6.6-8,.4-.3.7-.8,1.4-.9.2,0,.1.2,0,.3-.1,0-.3.2-.5.4-1.9,2.4-4.1,6.8-5.8,9.4-1.9,3.6-4,6.9-7.5,9.2-.1,0-.2,0-.2-.2h0Z" fill="#fff"/><path d="M26.5,163c0-1.5.3-2.8,1.3-3.9.5-.5,1.2-.8,1.6-1.4.8-1.1.6-2.7,1.1-3.9.6-2,1.6-3.6,3.4-5,0,0,.2,0,.2,0,.5,2.2-.1,4.4-1.4,6.1-.7,1.2-2.1,1.9-2.6,3.2-.3.6-.2,1.4-.4,2.1-.2.7-.6,1.2-1.1,1.7-.5.5-1.1.9-1.8,1.2,0,0-.2,0-.2-.1h0Z" fill="#fff"/><path d="M20.5,149.7c0-1.5.4-2.8,1.4-3.9.5-.5,1.2-.8,1.7-1.3.9-1,.9-2.6,1.6-3.8.7-1.6,1.9-2.9,3.5-3.8.4-.2.7-.4,1.2-.4.1,0,0,.2,0,.3-.5,2-1.3,3.9-2.7,5.3-.8,1-2.3,1.6-2.9,2.8-.3.6-.3,1.4-.6,2-.2.6-.7,1.1-1.2,1.6-.5.5-1.1.9-1.8,1.2,0,0-.2,0-.2-.1h0Z" fill="#fff"/><path d="M11.2,131.8c-.1-2.2.4-4.2,1.4-6,1.1-1.7,2.8-3.1,3.5-5.1.6-1.4,1-3.2,2.5-4,0,0-.5.3-.5.3,2-2.9,5.1-5.1,8.7-5.5,0,0,.1.2.1.2-2.5,2.6-4.7,4.9-7.4,7.2-.4.3-1.8,1.6-2.5,2.3-2,2-1.7,5.1-3.1,7.3-.7,1.2-1.4,2.3-2.4,3.3h-.2Z" fill="#fff"/><path d="M33.5,168.6c.4-2.7,1.3-4.8,2.7-7,0,0,3.6-6.8,3.6-6.8h.2c-.5,2.6-1.1,5.1-1.9,7.6-.6,2.6-1.8,5.3-4.5,6.4,0,0-.2-.2-.2-.2h0Z" fill="#fff"/><path d="M13.4,137.2c-1.3-2.1-.4-4.6,1-6.4.8-1.4,1.8-2.7,2.9-3.9.4-.4.8-.9,1.5-.9,0,0,0,.3,0,.3-1.2,1.5-1.7,3.6-2.5,5.4-.3,1-.4,2-.9,2.9-.5.9-1,1.7-1.7,2.6h-.3Z" fill="#fff"/><path d="M45.5,160.8c0-1.2.3-2.2.7-3.2.9-1.8,2.3-3.4,3.2-5.3.5-.9,1-1.9,1.4-2.8,0,0,.3,0,.3,0-.1,2.2-.6,4.3-1.3,6.4-.6,2.3-1.7,4.2-4.1,5.1,0,0-.2-.2-.2-.2h0Z" fill="#fff"/><path d="M21.9,152.8c.6-2.2,2.1-3.7,3.9-5,1.5-1.4,3-2.9,4.4-4.6,0,0,.2.1.2.1-.7,2.1-1.8,4-3,5.8-1.1,2-2.8,3.6-5.3,3.8,0,0-.2-.2-.2-.2h0Z" fill="#fff"/><path d="M24.4,157.8c-.4-2,.5-3.4,2-4.5,1.2-1.2,2.5-2.2,3.8-3.1,0,0,.2.2.2.2l-1.2,2.1-1.2,2.1c-.4.7-.6,1.5-1.2,2-.6.5-1.2,1-2.2,1.4h-.2Z" fill="#fff"/><path d="M65.9,93c-2.3,1.8-4.7,3.1-7.3,4.1-1.3.4-2.8.7-4,1.2-2.6,1.1-4.6,3.2-6.9,4.7-3.4,2.5-7,4.5-11.1,5.9-.1,0-.2-.1-.2-.2,1.8-2.3,4-4.2,6.3-5.8,3.7-2.6,7.7-3.4,11.5-5.4,2.3-1.6,4.6-3.4,7.4-4.1,1.4-.4,2.8-.7,4.3-.7.1,0,.2.2,0,.2h0Z" fill="#fff"/><path d="M69,93c-2.4,2.6-4.8,5-7.5,7.3-1.4,1.1-2.9,2-4.1,3.3-2.6,2.4-4.1,5.7-6.2,8.5-3,4.4-6.2,8.4-10.1,12.1,0,0-.3,0-.2-.1,1.8-5.1,4.8-9.6,8.4-13.5,2.3-2.7,5.2-4.8,7.5-7.5,1.7-2,3-4.5,5.2-6.1.6-.5,1.5-1.2,2.1-1.6,1.5-1,3.1-1.9,4.8-2.4.1,0,.2.1.1.2h0Z" fill="#fff"/><path d="M69.2,93.6c-.3,2.5-1,4.7-2.3,6.8-.6,1-1.5,1.9-2.1,3-1.2,2.1-1.2,4.6-2,6.9-.9,3.5-2.3,6.6-4.4,9.7,0,.1-.2,0-.3,0-.2-2.5.2-4.9.9-7.2,1-3.6,3.5-6.3,4.9-9.6.6-2.3,1-4.8,2.5-6.7.7-1,1.4-2,2.4-2.8,0,0,.2,0,.2.1h0Z" fill="#fff"/><path d="M68.3,93.3c-3.6,2.8-7.1,5.2-11.1,7.4-3.8,2.4-7.6,4.9-11.3,7.4,0,0-.2-.2-.2-.2,3.3-3.2,6.7-6.1,10.3-8.9,1.8-1.4,3.5-2.9,5.6-4,2.1-1,4.4-2,6.7-2,0,0,0,.2,0,.2h0Z" fill="#fff"/><path d="M67.3,94.8c-.3,4.7-4.3,7.5-7.3,10.6-1.1,1-2.1,1.9-3.3,2.8l-.2-.2,2.5-3.5,2.4-3.5c.8-1.2,1.4-2.5,2.4-3.5,1-1,2-2,3.3-2.9,0,0,.2.1.2.1h0Z" fill="#fff"/><path d="M79.9,94.1c2.9.5,5.5,1.6,7.8,3.3,1.1.9,2.1,2,3.2,2.9,3.5,2.5,7.4,3.8,10.7,6.8,2.1,1.9,4.1,4,5.5,6.5,0,.1,0,.3-.2.2-3.9-2-7.1-4.4-10.3-7.3-2.1-1.8-3.8-4.2-6.3-5.6-1.2-.7-2.6-1.1-3.9-1.7-2.5-1.3-4.7-2.9-6.8-5,0,0,0-.3.1-.2h0Z" fill="#fff"/><path d="M77.4,94.2c2.4,1.3,4.4,3.1,6.1,5.2,1.8,2,2.7,4.6,4,6.9,1.8,3.1,4.3,5.6,6.1,8.7,2.8,4.5,4.9,9.5,5.9,14.8,0,.1-.2.2-.2,0-3.1-4.4-5.6-8.9-7.8-13.7-1.6-3.1-2.5-6.6-4.6-9.4-1-1.4-2.3-2.6-3.5-3.9-1.7-2-3.2-4.1-4.7-6.2-.5-.7-1-1.4-1.5-2.2,0-.1,0-.3.2-.2h0Z" fill="#fff"/><path d="M76.8,94.1c1.3,2.1,2,4.5,2.1,6.9,0,1.2-.3,2.4-.2,3.6.4,3.6,1.9,7,1.8,10.6,0,2.4-.3,4.8-1.2,7.2,0,.1-.2.1-.3,0-1-3.6-1.4-7-1.3-10.6,0-2.4.6-4.8.1-7.1-.2-1.2-.8-2.3-1.1-3.4-.6-2.4-.6-4.7-.2-7.2,0-.1.2-.2.3,0h0Z" fill="#fff"/><path d="M79.3,94.5c3.7,1.2,6.4,3.6,8.9,6.4,2.6,2.6,5.1,5.2,7.5,7.9,0,0-.2.2-.2.2-3-2.1-5.9-4.3-8.7-6.5-3.1-2.1-5.8-4.4-7.7-7.7,0,0,.2-.2.2-.2h0Z" fill="#fff"/><path d="M77.8,95.3c3.8,3,4.2,7.9,5.2,12.2.2,1.5.5,2.9.7,4.4,0,0-.3,0-.3,0-.9-2.4-2.3-5.8-3.3-8.2-1.4-2.7-2.4-5.3-2.5-8.4,0,0,.2-.1.2-.1h0Z" fill="#fff"/><path d="M87,82.8c1.7-2.3,3.9-4.2,6.5-5.5,1.3-.6,2.7-.9,4-1.6,3.8-2,6.7-4.9,10.9-6.5,2.6-1,5.4-1.8,8.3-2,.1,0,.2.2,0,.2-3.5,2.6-7.1,4.4-11.1,5.9-2.6,1.1-5.4,1.6-7.8,3.1-1.2.8-2.2,1.8-3.3,2.7-2.3,1.7-4.7,2.9-7.5,3.8-.1,0-.2-.1-.2-.2h0Z" fill="#fff"/><path d="M84.7,85.5c2.1-1.7,4.7-2.8,7.2-3.5,2.6-.9,5.3-.6,8-.9,3.5-.4,6.9-1.7,10.4-2,5.3-.8,10.6-.7,15.9.6.1,0,.1.2,0,.3-5.3,1.1-10.4,1.6-15.7,1.6-3.5.2-7.1-.3-10.5.4-1.7.4-3.4,1.1-5,1.6-2.5.8-5,1.2-7.6,1.8-.9.2-1.7.3-2.6.4-.1,0-.2-.2,0-.2h0Z" fill="#fff"/><path d="M84.6,85.3c2.4-.5,4.9-.4,7.2.3,1.1.4,2.2,1,3.4,1.4,3.5.8,7.2.4,10.7,1.7,2.3.8,4.5,1.8,6.4,3.5,0,0,0,.3-.1.2-3.7-.2-7.1-.9-10.4-2.2-2.3-.7-4.3-2.1-6.7-2.4-2.4-.2-4.8.1-7.1-.8-1.1-.4-2.3-.8-3.4-1.5-.1,0,0-.2,0-.3h0Z" fill="#fff"/><path d="M84.4,84.5c3.1-3.6,7.9-4.9,12.3-5.8,4.4-1,8.9-1.8,13.4-2.4,0,0,0,.3,0,.3-4.3,1.3-8.6,2.7-12.9,4.2-4.2,1.7-8.3,2.9-12.8,4,0,0-.1-.2-.1-.2h0Z" fill="#fff"/><path d="M86.3,84.8c4.2-2.3,8.9-.7,13.3.1,1.4.4,2.9.7,4.3,1.2,0,0,0,.3,0,.3-2.6-.1-6.2-.1-8.8-.2-3,.2-5.8.2-8.7-1.1,0,0,0-.3,0-.3h0Z" fill="#fff"/><path d="M73.7,77.6c1.5-2.4,3.4-4.5,5.6-6.3,1.1-.8,2.4-1.6,3.4-2.5,2.1-1.9,3.2-4.6,4.9-6.8,2.4-3.5,5.1-6.5,8.5-9.3,0,0,.3,0,.2.1-.9,2.8-2.4,5.3-4,7.5-2.6,3.7-6.1,5.8-9,9-1.7,2.3-3.2,4.8-5.6,6.3-1.1.8-2.4,1.6-3.8,2.1-.1,0-.2,0-.2-.2h0Z" fill="#fff"/><path d="M71.3,77.8c1-3.4,2.2-6.6,3.7-9.8.8-1.6,1.7-3.1,2.4-4.7,1.3-3.3,1.3-6.9,2-10.3.8-5.2,2-10.2,3.9-15.3,0-.1.2-.1.3,0,.5,5.4-.2,10.7-1.8,15.8-.9,3.4-2.7,6.6-3.6,10-.7,2.6-.8,5.3-2.1,7.7-.3.7-.8,1.7-1.2,2.4-.9,1.6-2,3-3.3,4.3,0,0-.3,0-.2-.1h0Z" fill="#fff"/><path d="M72.7,77.6c2.1-4.1,4.2-7.8,6.8-11.5,2.4-3.8,4.7-7.7,7-11.6,0,0,.2.1.2.1-1.6,4.3-3.4,8.4-5.4,12.5-1,2-1.9,4.2-3.3,6-1.4,1.8-3.1,3.7-5.2,4.7,0,0-.2-.2-.2-.2h0Z" fill="#fff"/><path d="M72,76c-.8-3.1-.5-5.8.2-8.8,0,0,.6-4.3.6-4.3.2-1.5.4-2.9.5-4.4h.3c.2,1.5.4,2.9.5,4.4.1,4.5,1.1,9.3-1.8,13.2,0,0-.3,0-.3,0h0Z" fill="#fff"/><path d="M83.4,92.7c2.9-.7,0-3,.6-3.8.5-.8,1.2-.9,1.3-1.7s.5-1.1-1-2.4c-1.5-1.3-1.2.2-1.9-.7-.7-.9-.7-1.7-1.4-2.3-.7-.6-.8-1-1.6-.7s-1.1.7-1.5.1c-.4-.6-1.3-.3-2.1-.3-.9,0-2.1-.4-2.6.1s0,1.1-1.1.6-1.8-1-2.3.2c-.6,1.2-.8,1.4-.4,2.3.5.8-.1,1.4.3,2.6s-1.2,1.4-.9,2.6c.3,1.1,1.2,2.6,1.9,2.3s.8.5,1.7,1.2c1,.7,1.7,2.6,2.3,2.1.6-.6,1.1-.7,2-.4.9.3,1.1,1.2,2,1.1.9,0,2.2-1.1,2.2-1.8,0-.7,2.7-1,2.7-1Z" fill="none" stroke="#fff" stroke-miterlimit="10" stroke-width="1.2"/><path d="M71.8,83.9c-2.2.4-.2,2.3-.6,2.8-.4.6-.9.7-1.1,1.3s-.4.8.7,1.8.9-.1,1.4.6c.5.7.5,1.3,1,1.8s.6.8,1.2.6.8-.5,1.1,0c.3.4.9.3,1.6.3s1.5.4,2,0,0-.8.9-.4,1.3.8,1.8,0c.5-.9.7-1.1.4-1.7s.1-1,0-2c-.2-.9.9-1,.8-1.9s-.8-2-1.3-1.8-.6-.4-1.3-1-1.2-2.1-1.7-1.7c-.5.4-.8.5-1.5.3-.7-.2-.8-.9-1.5-.9s-1.7.7-1.7,1.3-2.1.7-2.1.7Z" fill="none" stroke="#fff" stroke-miterlimit="10" stroke-width=".9"/><path d="M80.8,89.1c1.3-.9-.5-1.5-.4-2s.4-.7.3-1.1c0-.4,0-.7-.9-1-1-.3-.6.3-1.1,0-.5-.3-.7-.7-1.1-.9s-.6-.3-.9,0-.4.5-.7.3-.7,0-1.1.2c-.4.2-1.1.2-1.3.6s.2.5-.5.5c-.7,0-1.1-.2-1.1.5,0,.7-.2.9.2,1.2s.2.7.6,1.2c.4.5-.3.9,0,1.4s1.1,1.1,1.4.8c.3-.3.5.1,1.1.3s1.3,1,1.5.6.4-.5.9-.6.8.4,1.2.2.9-1,.7-1.3,1.1-1,1.1-1Z" fill="none" stroke="#fff" stroke-miterlimit="10" stroke-width=".6"/><path d="M131.4,389.3c-.6-.3-1.2-.5-1.6-.6,0,0,0,.1,0,.2-.3.4-.7.7-1.1.9,0,.7-.3,1.4-.9,1.9,0,.4,0,.8.2,1.1,16.9,10.9,34.9,24.2,23.1,37.8-2.5,2.9.3,10-4,12.8-9.7,6.3-16.6-.4-22.1-4.1-12.1-7.8-9.9-27.7-2.1-43.9,0-1.3-.3-2.2-.7-2.7-.6.1-1.2,0-1.7-.5-.8.3-1.6.9-2,1.4-1.5,4.4-2.3,9.9-7.2,19.4-3.5,6.8-2.9,16.6-8.2,22.8-6.1,7.1-20.3,13.6-26.1,5.6-1.5-2-.9-8-1.9-10.1-3.7-7.9-6-12-3.6-18.9,2.4-7.1,7.8-13,15.7-16.8,7.1-3.4,16.2-5.3,27.6-5.5.7-.4,1.3-.9,1.8-1.3,0-.8.3-1.7,1-2.2,0,0,0,0,0,0,0,0-.1-.1-.2-.2-.5-.9-.4-2,0-2.8-.3-.6-.7-1-.8-1.2-12.2,2.4-44.3,14.2-43.6-10.5,0-3-3.5-8-1.2-14.7,3.6-7.5,9.3-7,11.6-9.4,8.5-8.8,19.1,4.2,35.8,30.4.6.5,1.1.8,1.5.8.1,0,.2,0,.3,0,.9,0,1.4-.9,1.7-1.8-2.7-5.8-5.9-14.9-6.5-23.7-.7-9,1.1-21.8,7.4-24.9,2.8-1.4,9.1,5.8,14.8,7.5,7.1,1.1,8.5,5.7,11.1,11.9,4.7,11.5,1.9,23.4-18.8,33.6-.8.8-1.1,1.3-1.3,1.8,0,.3,0,.6,0,.9.3.5,1.3.7,2.1.7,12.8-6.1,31.3-25.6,49.9,1.8,3,3.5-2.3.7,7.8,15.4,0,5.8-23.1,13.6-57.9-12.8Z" fill="none" stroke="#fff" stroke-miterlimit="10" stroke-width="3.4"/><path d="M122.7,377.1c1.9-2.2,2.4,1.5,3.2,1.5.9,0,1.3-.5,2-.2.7.3,1.1.1,1.4,2.1.3,1.9-.7.9-.3,2,.4,1.1,1.1,1.5,1.2,2.4.1.9.4,1.2-.2,1.7-.6.6-1.1.6-.8,1.2.3.6-.3,1.3-.7,2-.4.8-.6,2-1.3,2.3-.7.3-.8-.6-1,.7-.2,1.3,0,2-1.3,2-1.3,0-1.6,0-2-.7-.5-.8-1.2-.6-2-1.5-.8-.9-1.7.4-2.5-.5-.8-.8-1.5-2.4-.9-2.9.6-.4,0-1,0-2.2,0-1.2-1.2-2.9-.5-3.2.7-.2,1.1-.6,1.3-1.5.2-.9-.4-1.6.1-2.4.5-.8,1.9-1.4,2.4-1,.5.4,2.1-1.8,2.1-1.8Z" fill="none" stroke="#fff" stroke-miterlimit="10" stroke-width="1.1"/><path d="M124.3,376.5c-1.6-2.9-1.7-6.2-1.5-9.5-.2-3.2-1.1-6.4-.9-9.7.1-2.2.4-4.3,1.1-6.3,0,0,.1,0,.2,0,.5,3.3.6,6.4.4,9.6,0,2.1-.5,4.2-.3,6.4.7,3.1,1.4,6.2,1.1,9.5,0,0-.1.1-.2,0t0,0Z" fill="#fff"/><path d="M127.9,378.4c-1-4-.1-8,1.2-11.7.7-2.5.8-5.2,1.4-7.6.9-3.7,2.3-7.2,4.2-10.1,0,0,.2,0,.1,0-.6,3.8-1.6,7.2-2.9,10.7-.7,2.3-2,4.5-2.4,7.1-.3,3.9-.6,7.7-1.6,11.5,0,0-.2.1-.2,0h0Z" fill="#fff"/><path d="M129.3,380.4c.3-2.8,1.8-5,3.5-6.8,1.3-2.1,1.9-4.7,3.4-6.6,1-1.3,2.1-2.4,3.5-3.1,0,0,.2,0,.1.1-.9,2.3-2,4.3-3.6,6.2-.9,1.3-2.3,2.3-3,3.8-.6,1.6-1,3.3-2.1,4.6-.5.7-1,1.4-1.7,1.9,0,0-.2,0-.2,0h0Z" fill="#fff"/><path d="M126.3,377.6c-1.3-3.4-.6-7,.2-10.2.7-3.3,1.5-6.5,2.5-9.6,0,0,.1,0,.2,0-.8,4.9-1.3,9.9-1.8,14.8,0,0-.9,4.9-.9,4.9,0,0-.1,0-.2,0h0Z" fill="#fff"/><path d="M124.5,378.1c-1-2.7-.9-5.5-.5-8.3.2-2.7.5-5.5.9-8.2,0,0,.1,0,.2,0,.1,2.4.2,5.8.3,8.3.2,2.8.2,5.5-.7,8.2,0,0-.2,0-.2,0h0Z" fill="#fff"/><path d="M122.8,375.8c-1.8-2.3-2.5-5.2-2.7-8.2-.3-2.9-.3-5.9,0-8.8,0,0,.1,0,.2,0,.2,2.9.5,5.8,1.1,8.5.7,2.8,1.4,5.4,1.5,8.4,0,0-.2,0-.2,0h0Z" fill="#fff"/><path d="M129,377.9c-.2-2.4.6-4.4,1.8-6.2,1-1.8,2.1-3.5,3.4-5.1,0,0,0,0,.1.1-.8,1.9-1.5,3.8-2.3,5.8-.6,2.1-1.4,3.9-2.9,5.5,0,0-.2,0-.2,0h0Z" fill="#fff"/><path d="M130.1,380.4c.9-2,2.2-3.3,3.8-4.5,0,0,4.2-3.9,4.2-3.9,0,0,0,0,.1.1-1,1.7-2.1,3.3-3.3,4.8-1.2,1.7-2.6,3.2-4.7,3.6,0,0-.1-.2-.1-.2h0Z" fill="#fff"/><path d="M146,341.7c1.1,2.5.9,4.7.3,7,0,3.1.6,6.4-.9,9.1-.3.7-.7,1.3-1.4,1.8,0,0,0,0-.1-.1.3-2.3.4-4.4,1-6.6.2-1.4.9-2.8.9-4.3-.1-1.5-.6-3.1-.3-4.6,0-.7.2-1.5.4-2.2,0,0,.1,0,.2,0h0Z" fill="#fff"/><path d="M131.6,332.2c-.3,1.9-.8,3.3-1.8,4.6-.5.9-1.5,1.4-1.8,2.5-.2.5-.2,1.2-.3,1.8-.3,1.1-.9,1.9-1.6,2.7,0,0,0,0,0,0,0,0,0,0,0,0-.5-1.2,0-2.8.5-3.7.3-.4.8-.8,1-1.2.7-1.5.8-3.5,1.7-4.8.6-.9,1.3-1.6,2.2-2.1,0,0,.1,0,.1.1h0Z" fill="#fff"/><path d="M142.7,336.8c.9,3,.4,5.8-.5,8.3-.8,2.5-1.7,5.3-3,7.3.5-2.6,1.4-5.3,1.8-7.9.4-2.7.8-5.2,1.6-7.8,0,0,.1,0,.2,0h0Z" fill="#fff"/><path d="M133.6,332.8c-.2,4.4-2.7,7.8-4.3,11.4-.5,1.1-1.3,2.4-1.5,3.7,0,.1,0,.2-.1.1-.2-.8.2-1.5.3-2.3.4-1.4,1.5-4.6,2-6,.8-2.7,1.9-5.1,3.5-7.1,0,0,.1,0,.1,0h0Z" fill="#fff"/><path d="M141.2,337.2c.3,1.2.2,2.1-.2,2.9-.2.4-.6.6-.8,1-.4.8-.2,2-.5,2.8-.3,1.4-1,2.6-2.2,3.2,0,0-.1,0-.1,0,0-1.7.3-2.9,1-4.1.4-.8,1.2-1.2,1.3-2.2.1-1,0-1.9.5-2.7.2-.4.5-.7.9-1,0,0,.1,0,.1,0h0Z" fill="#fff"/><path d="M135.5,335.5c.1,1.1,0,2.1-.5,2.8-.3.3-.7.6-.9,1-.6,1.1-.3,2.8-1,4.1-.4.8-1,1.6-1.6,2.2,0,0,0,0,0,0-.5-1.7,0-3.2.7-4.4.4-.8,1.2-1.3,1.5-2.2.2-1,0-2,.7-2.7.3-.3.6-.7,1-.9,0,0,.1,0,.1.1h0Z" fill="#fff"/><path d="M127.5,330c-.4,1.5-1,2.6-1.8,3.8-.8,1-1.9,1.8-2.3,3.3-.2.8-.4,1.6-.6,2.4-.3,2.2-1.1,5-1.8,7.5,0,0-.2,0-.2,0-.8-2.6-.5-5.6.5-7.9,0,.1,0,.3,0,.4,0-1.3.9-2.1,1.5-3,1.1-1.4,1.3-3.8,2.5-5.1.6-.7,1.2-1.3,2-1.6,0,0,0,0,.1.1h0Z" fill="#fff"/><path d="M144.5,339.5c.9,2,.6,3.8,0,5.4-.4,1.6-1,3.2-1.7,4.7,0,0-.1,0-.2,0,.2-1.7.4-3.5.6-5.2,0-1.9.3-3.4,1.1-4.9,0,0,.2,0,.2,0h0Z" fill="#fff"/><path d="M126.4,329.2c-.6,1.9-1.4,3.1-2.6,4.4,0,0-3,4.1-3,4.1,0,0,0,0-.1-.1.7-1.8,1.4-3.4,2.2-5,.8-1.7,1.8-3.3,3.4-3.5,0,0,0,.2,0,.2h0Z" fill="#fff"/><path d="M130,331.6c-.5,1.5-1.1,2.5-2.1,3.4-.7,1-1.7,2.1-2.2,3.3,0,0-.1.1-.1.1-.2-.9.2-1.7.4-2.4.9-2.1,1.7-5,3.9-4.6,0,0,0,.2,0,.2h0Z" fill="#fff"/><path d="M147.7,344.5c1.8,2,1.4,4.5,1.3,6.7,0,.7-.2,1.4-.4,2.1,0,0-.1,0-.2,0-.1-2.2-.7-4.4-1.1-6.5,0-.7,0-1.4.2-2.2,0,0,0,0,.1,0h0Z" fill="#fff"/><path d="M137.6,335.8c1,2.6-.3,4.7-1.2,6.6-.4.6-.7,1.2-1.1,1.7,0,0,0,0-.1-.1.7-2,.9-4.3,1.4-6.4.2-.6.5-1.3,1-1.9,0,0,.1,0,.2,0h0Z" fill="#fff"/><path d="M139.9,336.4c.3,1.4,0,2.3-.7,3.2-.4.9-.9,1.8-1.4,2.8,0,0,0,0-.1,0,0-1.2.2-2.3.4-3.4.1-1.3.6-2.3,1.7-2.6,0,0,.1.1.1.1h0Z" fill="#fff"/><path d="M81.9,443.1c2.5-2.2,4.9-2.9,7.6-3.6,1.7-.7,3.2-2.4,4.7-3.4,2.3-1.8,4.6-3,7.1-4.4,0,0,.2.1.2.1-.4,1-1.1,1.8-1.8,2.6-2.8,3.3-6.5,4.1-10,5.8-1.6,1.2-3.2,2.6-5.1,2.9-.9.2-1.8.4-2.7.3,0,0,0-.2,0-.2t0,0Z" fill="#fff"/><path d="M72.4,424.7c.8-2.4,2.1-4.2,3.8-5.6,1-1,2.4-1.4,3.3-2.5.5-.5.8-1.3,1.3-1.9.7-.9,1.6-1.4,2.5-1.8.3-.1.8-.2,1.1,0,0,0,0,0,0,.1-.8,1.2-1.7,2.4-2.8,3.2-.6.3-1.2.5-1.8,1-1.5,1.4-2.4,3.7-3.9,5.2-1,1-2.1,1.9-3.4,2.6,0,0-.2,0-.1-.1h0Z" fill="#fff"/><path d="M76.6,440.3c2.8-2.5,5.5-4.2,8.5-6,2.9-1.8,5.7-4.2,8.4-6-2.2,2.7-5.1,5.1-7.8,7.5-2.7,2.4-5.9,4.6-9.1,4.7,0,0-.1-.2,0-.2h0Z" fill="#fff"/><path d="M72.9,427.7c2.1-3.3,4.6-5.7,7.4-7.8,1.4-1.2,4.6-3.8,6-4.8.7-.4,1.4-1.2,2.2-1.1.1,0,0,.2-.1.2-1.3.7-2.5,2.2-3.6,3.3,0,0-3.6,3.8-3.6,3.8-2.4,2.7-5,5.3-8.1,6.6,0,0-.2,0,0-.2h0Z" fill="#fff"/><path d="M77,437.9c.6-1.3,1.4-2.3,2.4-3,.5-.3,1.1-.4,1.6-.7,1-.7,1.5-2.1,2.3-2.9,1.2-1.5,2.5-2.5,4.2-3.1,0,0,.2,0,.1.1-.4,1.4-1.1,2.5-2,3.4-1.4,1.6-3.1,1.8-4.4,3.1-.4.5-.7,1.1-1.1,1.7-.8.9-1.9,1.5-3.1,1.7,0,0-.1,0,0-.2h0Z" fill="#fff"/><path d="M75.5,429.7c.5-1.3,1.2-2.4,2.2-3.2.5-.3,1.1-.4,1.6-.8.5-.4.8-.9,1.2-1.4,1-1.7,2.3-3.1,3.8-3.8.3-.1,1.5-.7,1.8-.3,0,0,0,0,0,0,0,0,0,0,0,.1-.9,1.6-2,3.1-3.5,4-.9.7-2.1.9-2.9,1.9-.8,1.1-1.2,2.2-2.4,2.9-.5.3-1,.6-1.7.7,0,0-.1,0-.1-.2h0Z" fill="#fff"/><path d="M70.6,418.9c.6-2,1.7-3.6,2.9-5.1,1.3-1.3,2.9-2.1,4-3.7.9-1.1,1.7-2.5,2.9-2.9,0,0-.4.2-.4.2,2.2-2,5-3.1,7.5-2.5,0,0,0,.2,0,.2-2.3,1.5-5,3.3-7.2,4.3-1.7.9-3.6,2-4.7,4.1-1.2,2.3-2.9,4-4.9,5.4,0,0-.1-.1-.1-.1t0,0Z" fill="#fff"/><path d="M79.5,441.8c1.7-1.9,3.4-3.1,5.4-4,0,0,5.7-3.3,5.7-3.3,0,0,0,.1,0,.2-1.6,1.6-3.3,3.2-5.1,4.7-1.8,1.6-3.9,3.1-6,2.7,0,0,0-.2,0-.2h0Z" fill="#fff"/><path d="M69.8,417.3c.3-2.7,2-4.7,3.7-6.3,1.6-1.6,3.2-3.1,4.9-4.5,0,0,0,.1.1.2-1.4,1.8-2.7,3.7-4.1,5.6-1.3,2.1-2.6,3.7-4.5,5.1,0,0-.2,0-.2,0h0Z" fill="#fff"/><path d="M71.9,422.5c-.2-2.3,1.3-4.2,2.8-5.5,1-1,2.1-2,3.2-2.7.4-.2.8-.6,1.3-.5,0,0,0,.1-.1.2-1.9,1.5-3.4,4.5-4.9,6.6-.6.7-1.2,1.3-2,2,0,0-.1,0-.2,0h0Z" fill="#fff"/><path d="M75.8,432.9c1.2-1.9,2.6-2.9,4.3-3.7,1.5-1,3-2,4.4-3.1,0,0,0,0,.1.1-1.1,1.7-2.5,3.2-3.9,4.5-1.4,1.6-3.1,2.7-4.9,2.4,0,0,0-.2,0-.2h0Z" fill="#fff"/><path d="M76.2,436.2c.3-1.9,1.5-3,2.8-3.7,1.2-.8,2.4-1.5,3.7-2.1,0,0,0,.1,0,.2-1.4,1.5-3,3.6-4.4,4.9-.6.4-1.2.7-2,.8,0,0,0-.1-.1-.2h0Z" fill="#fff"/><path d="M128.8,442.5c-2.4-1.3-3.2-3.6-3.5-6.2-1.3-3-3.5-5.7-2.9-9.5,0-.9.2-1.8.7-2.7,0,0,.1,0,.2,0,.6,2.4,1.4,4.6,1.7,7,.4,1.6.2,3.4.9,4.8.8,1.3,2,2.4,2.5,4,.3.7.5,1.5.6,2.4,0,0-.1,0-.2.1h0Z" fill="#fff"/><path d="M148.5,439.9c-1.3-1.2-2-2.6-2.2-4.3-.3-1,0-2.3-.5-3.3-.3-.5-.8-.8-1.1-1.3-.6-.9-.8-2-.8-3.1,0,0,0,0,0-.1,0,0,0,0,0,0,1.3.2,2.1,1.5,2.4,2.5,0,.6,0,1.2.1,1.7.6,1.5,2.1,2.6,2.4,4.3.2,1.1.3,2.2,0,3.5,0,0-.2.1-.2,0t0,0Z" fill="#fff"/><path d="M134.9,444.4c-3.1-.8-4.9-3.3-6-6-1.2-2.6-2.5-5.4-2.9-8.3,1.5,2.4,2.7,5.1,4.4,7.3,1.8,2.2,3.3,4.3,4.7,6.8,0,0,0,.2-.1.2h0Z" fill="#fff"/><path d="M147.3,442.8c-3.4-2.5-4.1-7.1-5.5-10.8-.5-1.2-.7-2.7-1.5-3.6-.1,0-.1-.2,0-.2.8.3,1,1,1.4,1.6.8,1.2,2.3,4.1,3,5.4,1.4,2.4,2.6,4.7,2.8,7.6,0,0-.1.2-.2.1t0,0Z" fill="#fff"/><path d="M137.5,446.6c-1.1-.4-1.8-1.1-2.1-2,0-.5,0-1.1-.2-1.5-.3-.9-1.4-1.4-1.8-2.3-.9-1.3-1.1-2.7-.6-4.5,0,0,0-.1.2,0,1.3,1,2,2.1,2.3,3.6.3.9,0,2.1.6,2.8.7.7,1.6,1,1.8,2.2.1.5.2,1,0,1.6,0,0-.1.1-.2.1h0Z" fill="#fff"/><path d="M145.1,444.3c-1-.5-1.6-1.2-1.9-2.1,0-.5,0-1.1,0-1.5-.4-1.2-2-2-2.4-3.4-.3-.9-.4-1.9-.4-2.9,0,0,0,0,0,0,1.7.5,2.5,1.8,2.8,3.3.3.9,0,2,.5,2.8.7.7,1.5,1.1,1.6,2.3,0,.5,0,1-.1,1.6,0,0-.1.1-.2,0h0Z" fill="#fff"/><path d="M151.5,429.7c-.8-1.2-1.3-2.4-1.6-3.8-.1-1.4.1-2.8-.7-4-.4-.6-.9-1.3-1.4-1.8-.6-.6-1.6-2-2.3-2.9-.6-.9-1.3-1.8-1.9-2.9,0,0,0,0,.1-.1,2.6.7,4.4,2.6,5.4,4.8,0,0-.2-.2-.3-.3.9.7.9,2,1.1,3,.2,1.9,1.9,3.2,2,5.1,0,.9,0,1.9-.3,2.9,0,0-.1,0-.2,0h0Z" fill="#fff"/><path d="M153,428.9c-1-1.5-1.4-3-1.5-4.8,0,0-.8-5.1-.8-5.1,0,0,.1,0,.2,0,.8,1.5,1.6,3.1,2.2,4.7.8,1.6,1.3,3.4,0,5.3,0,0-.2,0-.2,0h0Z" fill="#fff"/><path d="M149,432.8c-.8-1.4-1.1-2.5-1-4-.2-1.3-.2-2.9-.9-4,0,0,0-.2,0-.2.8.2,1.1,1.1,1.5,1.7.6,1.3,1.5,2.6,1.5,4.1,0,.8-.3,1.6-1,2.4,0,0-.1,0-.2,0h0Z" fill="#fff"/><path d="M143.2,445.5c-2.3-1.2-3.5-3.3-4.2-5.7-.8-2.2-1.5-4.6-1.8-7,0,0,.2,0,.2,0,.9,2.2,2,4.3,3.1,6.3,1.4,2,2.5,3.9,2.8,6.4,0,0-.2.1-.2.1h0Z" fill="#fff"/><path d="M139.5,445.6c-1.4-.5-1.8-1.4-2-2.7-.4-1.1-.7-2.2-1-3.3,0,0,.1,0,.2-.1.9.8,1.7,1.6,2.3,2.5.9.9,1.4,2,.7,3.4,0,0-.2,0-.2,0t0,0Z" fill="#fff"/><path d="M84.7,347.5c2.4-.8,4.2.4,6,2,2.7,1.2,5.7,1.4,7.7,4.4.5.7,1,1.4,1.3,2.4,0,0,0,0-.1.1-1.9-1.1-3.8-2-5.5-3.5-1.2-.8-2.2-2.2-3.5-2.7-1.4-.3-2.8-.3-4-1.1-.6-.4-1.2-.7-1.8-1.3,0,0,0-.2,0-.2h0Z" fill="#fff"/><path d="M72.5,363.9c1.7,0,3,.7,4.3,1.9.9.6,1.5,1.9,2.5,2.2.5.2,1.1,0,1.6.1,1,.2,1.8,1,2.6,1.7,0,0,0,0,0,0,0,0,0,0,0,.1-1,.9-2.5.5-3.3,0-.4-.4-.8-1-1.2-1.3-1.4-.8-3.2-.5-4.5-1.6-.9-.7-1.6-1.6-2.1-2.9,0,0,0-.2.1-.2h0Z" fill="#fff"/><path d="M79.4,350.4c2.6-1.5,5.3-.9,7.6.3,2.3,1.1,4.9,2.1,6.9,3.8-2.4-.5-4.9-1.6-7.4-2-2.5-.3-4.8-.8-7.2-1.8,0,0,0-.2,0-.2h0Z" fill="#fff"/><path d="M71.6,360.5c4-.4,7.3,2.9,10.7,4.6,1.1.6,2.2,1.5,3.4,1.6,0,0,.2,0,.1.2-.7.4-1.4,0-2,0-1.3-.3-4.3-1.4-5.5-1.9-2.5-.8-4.8-1.9-6.7-4.1,0,0,0-.2,0-.2h0Z" fill="#fff"/><path d="M76.3,350.5c1-.5,1.9-.4,2.6.1.4.3.6.8,1,1.1.7.5,1.8.1,2.6.5,1.3.3,2.4,1.3,3.1,3,0,0,0,.1,0,.2-1.5.2-2.7-.2-3.8-1.1-.7-.5-1.2-1.6-2.1-1.8-.9,0-1.7.3-2.5-.5-.4-.3-.7-.6-1-1.2,0,0,0-.2,0-.2h0Z" fill="#fff"/><path d="M72.3,357.8c1-.3,1.9-.2,2.6.4.3.4.6.9,1,1.2,1.1.7,2.6.1,3.8.9.8.4,1.5,1.2,2.1,2,0,0,0,.1,0,.1-1.5.9-2.9.4-4.1-.4-.8-.4-1.3-1.6-2.1-1.9-.9-.1-1.8.2-2.5-.7-.3-.4-.6-.7-.9-1.4,0,0,0-.2,0-.2t0,0Z" fill="#fff"/><path d="M73.5,373.2c1.4.3,2.5.9,3.6,1.8,1,1,1.9,2.4,3.3,2.6.7.2,1.5.2,2.2.2,2,0,4.6.4,6.9.8,0,0,0,.1,0,.2-2.2,1.7-4.9,2-7.1,1.1.1,0,.3,0,.4,0-1.1.2-2-.8-2.9-1.4-1.5-1.3-3.6-.9-4.9-2.5-.7-.7-1.3-1.5-1.7-2.6,0,0,0-.1.1-.2h0Z" fill="#fff"/><path d="M74.7,377.7c1.8.5,3.1,1.3,4.4,2.7,0,0,4.1,3.4,4.2,3.4,0,0,0,.1,0,.2-1.7-.5-3.3-1.1-4.9-1.9-1.7-.7-3.3-1.7-3.7-4.2,0,0,0-.1.1-.2h0Z" fill="#fff"/><path d="M73.5,368.2c1.4.5,2.4,1.2,3.3,2.5,1,.9,2.1,2.1,3.3,2.5,0,0,.1.1.1.1-.7.5-1.5,0-2.2-.1-2-.8-4.7-1.4-4.7-4.9,0,0,.2-.1.2-.1h0Z" fill="#fff"/><path d="M72.9,355.3c2.4-.6,4.5.2,6.4,1.6,1.9,1.1,3.8,2.5,5.6,4.1,0,0,0,.1,0,.2-2-1-4-1.8-6.1-2.5-2.2-.6-4.1-1.3-5.8-3.1,0,0,0-.2,0-.2h0Z" fill="#fff"/><path d="M75.4,352.7c1.3-.5,2.1-.2,3,.7.9.6,1.7,1.2,2.6,1.8,0,0,0,.2,0,.2-1.1,0-2.1,0-3.2-.3-1.2,0-2.2-.6-2.5-2.3,0,0,0-.1,0-.2t0,0Z" fill="#fff"/><path d="M184.5,405.7c-2.6.7-5.1.2-7.5-.8-3.3-.6-6.9-.5-9.6-2.5-.7-.5-1.4-1-1.8-1.7,0,0,0,0,.1-.1,2.3.7,4.6,1.3,6.8,2.2,1.5.5,2.9,1.4,4.6,1.6,1.6.1,3.3,0,4.9.4.8.2,1.6.4,2.4.7,0,0,0,0,0,.1t0,0Z" fill="#fff"/><path d="M180.1,385.9c-1.8.1-3.3-.1-5-.7-1.1-.3-2.1-1.1-3.2-1.2-.5,0-1.1,0-1.7,0-1.1,0-2.1-.5-3.1-1,0,0,0,0-.1,0,0,0,0,0,0,0,.7-.7,2.3-.6,3.4-.2.5.2,1.1.6,1.6.8,1.6.4,3.4,0,5,.7,1.1.4,2.2.9,3.1,1.7,0,0,0,.1,0,.1t0,0Z" fill="#fff"/><path d="M188.5,401.5c-2.9.9-6.1.4-8.9-.5-2.8-.8-5.9-1.7-8.3-3.1,2.8.6,5.7,1.5,8.6,1.9,2.9.4,5.6.8,8.6,1.6,0,0,.1.1,0,.1h0Z" fill="#fff"/><path d="M182.1,388.6c-4,.8-8.5-.9-12.5-1.7-1.3-.3-2.7-.8-4-.7,0,0-.2,0-.2-.1.6-.4,1.4-.1,2.1-.1,1.4,0,4.8.5,6.2.7,2.8.2,5.5.7,8.3,1.9,0,0,0,.1,0,.1h0Z" fill="#fff"/><path d="M187.4,399.2c-1,.4-2.1.4-3,.2-.5-.2-.9-.5-1.4-.6-1-.3-2.1,0-3,0-1.6-.1-3-.6-4.1-1.8,0,0,0,0,0-.1,1.6-.2,3,0,4.5.5.9.3,1.8,1,2.8,1,1,0,1.9-.3,3,.1.5.2,1,.3,1.4.7,0,0,0,.1,0,.1t0,0Z" fill="#fff"/><path d="M182.2,391.4c-.9.3-1.9.4-2.9.1-.5-.2-.9-.5-1.4-.6-1.3-.3-2.8.3-4.3,0-1-.2-1.9-.6-2.8-1,0,0,0,0,0,0,1.3-.8,2.9-.7,4.4-.2.9.2,1.9.9,2.8.9,1,0,1.8-.4,2.9.1.5.2.9.4,1.4.7,0,0,0,.1,0,.1h0Z" fill="#fff"/><path d="M176.1,380.1c-1.5-.1-2.8-.5-4.1-1-1.3-.6-2.5-1.5-3.9-1.6-.7,0-1.5,0-2.2,0-2,0-4.6,0-7-.3,0,0,0-.1,0-.2,1.8-1.4,4.2-1.6,6.6-1-.1,0-.3,0-.4,0,1-.2,2.1.5,3.1.9,1.8.9,3.7.5,5.5,1.5.9.4,1.7.9,2.5,1.6,0,0,0,0,0,.1h0Z" fill="#fff"/><path d="M187.9,404.2c-1.9.8-4,.3-5.9-.3-1.8-.6-3.6-1.2-5.3-2,0,0,0,0,0-.1,1.9.3,3.7.7,5.6,1,2,.2,3.6.6,5.5,1.3,0,0,0,.1,0,.1t0,0Z" fill="#fff"/><path d="M178.1,383.3c-1.6-.2-2.8-.6-4.1-1.4-1.3-.5-2.7-1.3-4-1.5,0,0-.2,0-.2,0,.6-.4,1.5,0,2.2,0,2.2.4,5.1.7,6.1,2.9,0,0-.1.1-.1.1h0Z" fill="#fff"/><path d="M177.7,406.8c-2.4,1.2-4.9,0-7.2-.8-.7-.3-1.4-.7-2.1-1.1,0,0,0,0,0-.1,2.2.6,4.6.7,6.9,1,.7.2,1.5.4,2.3.9,0,0,0,.1,0,.2h0Z" fill="#fff"/><path d="M183.5,393.3c-1.8,1.5-4.5.7-6.9.3-.8-.2-1.5-.4-2.3-.7,0,0,0-.1,0-.2,2.3.2,4.5,0,6.7-.1.7,0,1.5.2,2.4.5,0,0,0,0,0,.1t0,0Z" fill="#fff"/><path d="M185.3,396.3c-1.2.5-2.2.5-3.5.1-1.1-.2-2.3-.4-3.5-.7,0,0,0-.1,0-.2,1.1-.2,2.3-.3,3.5-.4,1.3-.2,2.5,0,3.5.9,0,0,0,0,0,.1h0Z" fill="#fff"/><path d="M132.2,385.8c2.2-2.2,5.1-3,8-3.2,2.8-.8,5.2-2.3,8.1-2.6,1.9-.2,3.8-.3,5.8,0,0,0,.1.1,0,.2-2.6,1.1-5.3,1.7-8.1,2.1-1.8.3-3.9.2-5.6.9-2.5,1.3-5.1,2.6-8.1,2.8,0,0-.1-.1,0-.2h0Z" fill="#fff"/><path d="M130.7,387.4c3.5-1.8,7.3-1.5,11-.8,2.5.3,4.9-.1,7.4.2,3.7.3,7.4,1.1,11,2.6,0,0,0,.2,0,.2-3.8,0-7.4-.3-11.1-1.1-2.4-.4-4.8-1.2-7.3-1.2-3.6.3-7.2.7-10.9.4,0,0-.1-.1,0-.2t0,0Z" fill="#fff"/><path d="M131,387.9c2.6-.2,5,1,7.1,2.5,2.3,1,5,1.1,7.3,2.4,1.5.8,3,1.7,4.2,3,0,0,0,.2,0,.2-2.6-.5-4.9-1.3-7.2-2.5-1.5-.7-2.8-2-4.4-2.4-1.6-.4-3.3-.5-4.8-1.4-.7-.4-1.5-.8-2.1-1.5,0,0,0-.2,0-.2h0Z" fill="#fff"/><path d="M131.1,387.2c2.5-2.4,5.8-2.8,8.9-3,3.1-.3,6.2-.4,9.3-.4,0,0,0,.1,0,.2-4.5.7-9,1.7-13.6,2.7,0,0-4.6.6-4.6.6,0,0,0-.1,0-.2h0Z" fill="#fff"/><path d="M132.5,387.5c2.1-.4,3.9-.1,5.9.5,0,0,5.9,1.1,5.9,1.1,0,0,0,.1,0,.2-2,.2-4,.3-6,.2-2.1,0-4.2-.2-5.8-1.7,0,0,0-.2,0-.2h0Z" fill="#fff"/><path d="M125,394.3c0,3.3-1,6.3-2.2,9.3-.6,2.1-.3,4.3-.5,6.4-.2,3.3-.7,6.4-1.7,9.7,0,0-.2.1-.2,0-.5-2.1-.6-4.3-.4-6.5.2-3.3,1.6-6.5,2.2-9.7,0-3.3.7-6.6,2.6-9.3,0,0,.2,0,.2,0h0Z" fill="#fff"/><path d="M126.4,393c.9,3.8,1,7.7,1.3,11.6.4,2.6,1.7,4.8,2.5,7.2,1.4,3.6,2.6,7.1,3.4,10.9,0,0-.1.2-.2,0-2.5-2.9-4-6.5-4.9-10.3-.7-2.5-.7-5.2-1.4-7.7-.5-1.9-1.4-3.7-1.4-5.8,0-.6,0-1.4,0-2,0-1.3.2-2.7.6-4,0,0,.2,0,.2,0h0Z" fill="#fff"/><path d="M126.6,392.5c2.2,1.5,3.5,3.8,4.6,6.2.9,1.4,2.6,2.3,3.7,3.5,1.9,1.7,3.5,3.6,4.9,5.8,0,0,0,.2-.1.1-1.8-.6-3.2-1.6-4.5-2.7-2-1.7-2.9-4.3-4.6-6.3-2-1.6-3.8-3.7-4.3-6.4,0,0,0-.2.2-.1t0,0Z" fill="#fff"/><path d="M125.5,394.2c.7,2.8.4,5.4-.1,8.2-.3,2.4-.8,5.8-1.3,8.2,0,0-.1,0-.2,0-.1-2.8-.1-5.5,0-8.3,0-2.8.1-5.6,1.4-8.2,0,0,.2,0,.2,0t0,0Z" fill="#fff"/><path d="M126.7,393.8c1.6,1.7,2.3,3.6,3,5.7.8,2,1.6,4,2.5,5.9,0,0-.1,0-.2.1-1.4-1.6-2.6-3.4-3.7-5.3-1.2-1.8-2.1-3.9-1.8-6.3,0,0,.2,0,.2,0t0,0Z" fill="#fff"/><path d="M115.6,391.5c-2.8,1.5-5.8,1.9-8.8,2.1-2,.4-3.8,1.8-5.7,2.6-2.9,1.4-5.8,2.4-8.9,2.9,0,0-.1-.1,0-.2,1.8-1.6,3.7-2.8,5.6-3.7,2.9-1.4,6-1.4,8.9-2.3,2.8-1.4,5.8-2.4,8.9-1.6,0,0,0,.2,0,.2t0,0Z" fill="#fff"/><path d="M118.1,391.8c-3.1,2.4-6.5,4.2-10,6.2-2.2,1.5-4,3.9-6.1,5.8-3,3.1-6.2,5.9-9.8,8.6,0,0-.2,0-.1-.1,2.5-4,5.5-7.3,8.9-10,2.2-1.8,4.6-3,6.8-4.8,1.6-1.3,3-3,4.8-3.9.5-.3,1.2-.7,1.8-.9,1.2-.5,2.5-.9,3.7-1,0,0,.1.1,0,.2h0Z" fill="#fff"/><path d="M118.1,391.6c-.8,2.8-2.6,4.9-4.6,6.9-1.2,1.5-1.6,3.5-2.6,5.1-1.3,2.6-2.8,5-4.8,7.3,0,0-.2,0-.2,0,.3-2.1,1.1-4,2-5.7,1.3-2.7,3.6-4.6,5.1-7,.8-1.7,1.5-3.6,2.9-4.9.6-.7,1.3-1.3,2.1-1.8,0,0,.2,0,.1.1h0Z" fill="#fff"/><path d="M117.7,391.1c-1.4.8-2.8,1.7-4.3,2.5-1.4.8-3,1.4-4.5,2.1-3,1.5-6,3.2-9,4.9,0,0,0-.1,0-.2,2.8-2.3,5.7-4.3,8.5-6.2,2.9-2,6-3.7,9.3-3.4,0,0,0,.2,0,.2h0Z" fill="#fff"/><path d="M117,392.2c-1,2.3-2.5,3.8-4.2,5.4-1.6,1.6-3.2,3.3-4.8,5.1,0,0,0,0-.1-.1,1.2-2.1,2.5-4.1,3.9-6,1.3-2,2.9-3.8,5.1-4.4,0,0,.1.2.1.2h0Z" fill="#fff"/><path d="M117.7,380.8c-2.9,1.2-5.8.8-8.6-.1-2.8-.4-5.8.2-8.6-.7-1.8-.5-3.6-1.3-5.2-2.6,0,0,0-.2,0-.2,2.9,0,5.6.4,8.4,1.3,1.8.4,3.6,1.5,5.5,1.5,2.9-.3,5.7-.5,8.5.6,0,0,0,.2,0,.2t0,0Z" fill="#fff"/><path d="M119,379.7c-3.8-.2-6.9-2.4-9.6-5.3-1.9-1.7-4.1-2.7-5.9-4.4-2.8-2.4-5.2-5.5-6.9-9.3,0,0,0-.2.1-.2,2.8,2.4,5.4,5,7.9,7.9,1.7,1.8,3.2,4.1,5.2,5.4,3.2,1.7,6.4,3.4,9.3,5.6,0,0,0,.2,0,.2h0Z" fill="#fff"/><path d="M118.2,380.3c-3.2.8-6.3-.5-9-2-2.8-1.5-5.4-3.1-8-4.9,0,0,0-.1,0-.2,4.1,2,8.4,3.5,12.7,5.1,0,0,4.2,1.9,4.2,1.9,0,0,0,.1,0,.2h0Z" fill="#fff"/><path d="M117.8,379c-2.1-.5-3.6-2.2-4.8-4.2-1.2-1.8-2.3-3.8-3.3-5.8,0,0,0,0,.1-.1,1.3,1.7,2.8,3.2,4.2,4.8,1.6,1.5,2.9,2.9,3.8,5.1,0,0-.1.2-.1.2t0,0Z" fill="#fff"/><path d="M122.1,392c-1.9,1.2-1.4-1.6-2.1-1.8-.6-.2-1,0-1.5-.3-.5-.4-.8-.4-.5-1.9.2-1.5.7-.5.7-1.4,0-.9-.4-1.3-.3-2,.1-.7,0-1,.5-1.2.6-.2.9-.1.8-.7,0-.5.5-.8,1-1.3.4-.4.9-1.3,1.4-1.3.5,0,.4.6.9-.2.4-.8.5-1.5,1.3-1.1.8.4,1.1.4,1.2,1.1.1.7.7.7,1,1.6.4.9,1.2.2,1.6,1,.4.8.6,2.1.1,2.2-.5.2-.2.7-.4,1.5-.2.8.3,2.3-.2,2.3-.6,0-.9.2-1.2.8-.3.6,0,1.2-.5,1.6-.5.4-1.7.6-2,.1-.3-.4-1.9.8-1.9.8Z" fill="none" stroke="#fff" stroke-miterlimit="10" stroke-width=".8"/><path d="M124.2,381.2c1.3-.9,1.1,1.2,1.6,1.3.5.1.8,0,1.1.2.4.3.6.3.5,1.3,0,1.1-.5.4-.5,1,0,.6.4,1,.3,1.5,0,.5,0,.7-.3.9-.4.2-.7.1-.6.5,0,.4-.4.6-.7,1-.3.3-.6,1-1,1-.4,0-.4-.4-.7.2-.3.7-.3,1.1-1,.9-.7-.2-.9-.2-1-.7-.1-.5-.5-.5-.9-1.2-.3-.7-1,0-1.3-.7-.3-.6-.5-1.6-.1-1.7.4-.1.1-.5.2-1.2.1-.7-.3-1.8.1-1.8.4,0,.7-.1.9-.6.2-.5,0-.9.4-1.3.4-.3,1.2-.4,1.4-.1.2.3,1.4-.7,1.4-.6Z" fill="none" stroke="#fff" stroke-miterlimit="10" stroke-width=".6"/><path d="M121.8,388.7c-1.1.2-.4-1.1-.7-1.3-.3-.2-.5-.2-.7-.5-.2-.3-.3-.4,0-1,.4-.7.4-.1.6-.5.1-.4,0-.8.2-1.1.2-.3.1-.5.5-.5.3,0,.5.1.5-.2,0-.3.4-.3.7-.4.3-.1.7-.5.9-.3.3.1.1.4.5,0,.4-.3.5-.6.8-.3.4.4.5.4.4.8,0,.4.2.5.2,1,0,.5.6.4.6.8,0,.5,0,1.2-.3,1.1-.3,0-.2.3-.4.7-.2.4-.2,1.2-.5,1.1s-.5-.1-.7.1c-.3.2-.2.6-.5.7-.3.1-.9,0-1-.3,0-.3-1.1,0-1.1,0Z" fill="none" stroke="#fff" stroke-miterlimit="10" stroke-width=".4"/><path d="M168.8,151c.3,0,.6,0,.8,0,1.5.3,1.7,3.2,2.9,3.6,1.2.4,3.1,1.1,3.7,2.2.6,1.2-1,3.1-1,3.1,0,0,1.5,3.5.8,5-.5,1.1-2.5,2.6-3.1,3.6-5.4,9.2-13.5,15.5-21.2,15.5s-10.1-2.9-13.8-9.8c-1.2-17,11.2-21.9,22.7-21.9s1,0,1.5,0c0,0,.1,0,.2,0,2.3,0,4.6-1.4,6.6-1.4M168.8,148.4h0c-1.4,0-2.6.4-3.9.8-1,.3-1.9.6-2.7.6h-.1c-.5,0-1,0-1.6,0-8.6,0-15.7,2.6-20.1,7.3-4,4.3-5.7,10.1-5.2,17.4v.5s.3.5.3.5c4.9,9.2,11.4,11.1,16,11.1,8.3,0,17.3-6.4,23.4-16.8.1-.2.7-.8,1-1.1.8-.8,1.7-1.7,2.2-2.6.8-1.7.3-4.1-.2-5.8.7-1.2,1.3-2.9.4-4.6-.9-1.8-3.1-2.7-4.6-3.3,0-.2-.2-.4-.3-.6-.5-1.1-1.4-2.9-3.4-3.3-.4-.1-.9-.2-1.4-.2h0Z" fill="#fff"/><path d="M138.2,174c.7-5.9,5.4-8.8,10.3-11,1.7-1.1,3.6-2.2,5.7-2.5,1-.2,2.1-.3,3.1-.2,0,0,0,.1,0,.1-2.8,1.3-5.7,2.1-8.6,3-2.7,1.3-4.8,3.6-6.9,5.8-1.3,1.5-2.4,3.1-3.5,4.9h-.1Z" fill="#fff"/><path d="M139.4,178.2c5.2,0,10.5-.7,15.2-2.8,2.6-1.8,5.2-3.6,8.1-4.9,0,0,0,.1,0,.1-2,2.6-5,4.2-8,5.2-2.9,1.4-5.8,3.1-9,3.5-2.2.2-4.5,0-6.4-1h0Z" fill="#fff"/><path d="M142.6,184.9c1.5,1.8,3.3,3.6,6.4,4.3,6.4,1.5,11-2,11-2-5.2,2.1-9.3,2.3-15.2-4.1,0,0-2.1-4-6.8-7.1-.1-5.4-2.2-9.2-2.2-9.2-2.1-8.4.4-11.8,4.9-15,0,0-5.5,1.9-7.7,8.1-1.2,3.3-.5,6,.3,8.4.3,3.2-3.2,5.9-4.8,8.8-.5,1-.5,2-.3,3,0,0,0,0,0,0,.1.4.4,1,.7,1.7.4.6.8,1.2,1.1,1.5,0,0,0,0,0,0,.7.7,1.6,1.3,2.7,1.3,3.3.1,7.2-1.4,9.8.2Z" fill="none" stroke="#fff" stroke-linecap="round" stroke-linejoin="round" stroke-width="2.5"/><path d="M139.1,174c0-2.1,1.6-3.7,3.3-4.7,2.3-2.3,4.8-4.6,8.2-5.1,0,0,0,.1,0,.1-2.4,2.2-5.5,3.2-8,5.2-1.2,1.5-2.2,3-3.5,4.5,0,0-.1,0-.1,0h0Z" fill="#fff"/><path d="M141.6,177.8c2-.7,3.9-1.1,5.9-1.5,3.2-1.4,5.9-3.5,9.3-4.3,0,0,0,0,0,0-1,1-2.2,1.8-3.4,2.4-1.8,1-3.9,1.4-5.9,2.1-1.5.8-3.2,1.6-5,1.4-.4,0-.7,0-1.1-.2,0,0,0-.1,0-.1h0Z" fill="#fff"/><path d="M140.1,176.3c3.1-1.6,6.6-1.6,9.7-3.3,0,0,0,0,0,0-1.4,1.1-3,1.8-4.6,2.5-1.6.7-3.3,1.2-5.1.8,0,0,0-.1,0-.1h0Z" fill="#fff"/><path d="M149.1,169.2c-3.6,1.2-6.2,4-9.6,5.6,0,0,0,0,0,0,1-1.7,2.6-2.9,4.3-3.7,1.7-.9,3.5-1.6,5.3-2h0Z" fill="#fff"/><path d="M146.6,172.3c-1.5,1.2-3.2,2.3-5,2.9-.6.2-1.3.3-2,.2h0c1-1.1,2.1-1.5,3.4-1.8,1.2-.4,2.4-.8,3.5-1.4h0Z" fill="#fff"/><path d="M137.9,168.6c-.3-2.1.9-3.9,2.4-5.3,1.9-2.7,3.9-5.4,7.1-6.5,0,0,0,0,0,0-2,2.6-4.8,4.2-6.9,6.6-.9,1.7-1.6,3.3-2.6,5.1,0,0-.1,0-.1,0h0Z" fill="#fff"/><path d="M146.2,160.7c-3,2.3-4.6,5.7-7.4,8.3,0,0,0,0,0,0,.4-1.9,1.6-3.5,3-4.8,1.3-1.4,2.8-2.6,4.5-3.5h0Z" fill="#fff"/><path d="M143.1,164.5c-.7,1.8-1.7,3.5-2.9,5-.5.4-1,.8-1.6,1.1,0,0,0,0,0,0,.4-1.3,1.2-2.2,2.1-3.1.8-.9,1.7-1.9,2.4-2.9,0,0,0,0,0,0h0Z" fill="#fff"/><path d="M144.8,182.5c2,0,3.7,0,5.7,0,3.1-.8,5.8-2.6,9-3.1,0,0,0,0,0,0-2.4,2.4-5.8,2.9-9,3.4-1.9.7-4,1-5.8-.3,0,0,0-.1,0-.1h0Z" fill="#fff"/><path d="M155.6,179c-1.6,1-3.4,1.7-5.3,2.1-1.8.6-3.8.8-5.7.2,0,0,0-.1,0-.1,2.7-.9,5.5-.7,8.2-1.5.9-.2,1.8-.5,2.7-.8,0,0,0,.1,0,.1h0Z" fill="#fff"/><path d="M151.4,179.4c-2.6,0-4.9,1.5-7.5.9,0,0,0-.1,0-.1,1.1-.9,2.4-1.1,3.7-1.1,1.3,0,2.6,0,3.8.1h0Z" fill="#fff"/><path d="M129.9,181.4c-.3-1.1-.5-2.3.3-3.4.4-.5,1-.7,1.4-1,1.4-1.1,2-3,2.8-4.6.3-.7.3-1.6.6-2.3,0,0,.1,0,.1,0,.2.5.3,1.1.3,1.6.2,1.1-.5,2.4-1.1,3.3-.9,1.3-2.8,2-3.3,3.5-.4.7-.4,1.9-1,2.9h-.1Z" fill="#fff"/><path d="M136.3,182.2c.5-.9,1.4-1.1,2.3-.9.8,0,1.7.3,2.4.7h0c-1.3,0-2.2.5-3.3.6-.4,0-.8,0-1.2-.4h0Z" fill="#fff"/><path d="M173.8,154c-1.1.7-1.8,1.1-3,1.4-1.1.4-2.1,1-3,1.6,0,0,0-.1,0-.1.7-.9,1.6-1.8,2.6-2.5.9-.8,2.4-1.4,3.6-.6,0,0,0,.1,0,.1h0Z" fill="#fff"/><path d="M177.9,160.2c-1.2,1-2.6,1.3-4.1,1.4-1.4.2-2.8.3-4.3.4h0c2-.8,4.1-1.7,6.1-2.1.7,0,1.4,0,2.2.2h0Z" fill="#fff"/><path d="M119.7,284s.3,0,.3,0c1,2,1.4,4.2.2,6.5-1.5,2-3.7,2.3-5.1,4.3-2.7,3.4-6.7,3.3-9,7-.9-.3-.4-2.6-.2-3.5,1.1-3.5,5.4-3.9,8.2-5,4.8-1.2,3.1-5.7,5.6-9.4M118.2,281.1l-.9,1.3c-1.2,1.8-1.7,3.7-2,5.3-.5,2.5-.7,2.6-1.8,2.9h-.2s-.2,0-.2,0c-.5.2-1.1.4-1.7.5-2.7.8-6.9,2-8.2,6.3h0c0,0,0,.2,0,.2-1.2,4.9.5,6.5,2.2,7l2.1.7,1.2-1.9c.8-1.3,2-1.9,3.5-2.7,1.7-.9,3.7-1.9,5.3-4h0c0,0,0-.2,0-.2.3-.5.9-.8,1.7-1.4,1-.6,2.2-1.4,3.3-2.8l.2-.2v-.2c1.6-2.8,1.5-5.9-.1-9.2l-.8-1.6h-1.8s-.3,0-.3,0h-1.6Z" fill="#fff"/><path d="M144.7,242.3c-3.9,4.9-1.8,7.6-2.1,11.3s-3.1,4.7-3.2,7.3c-.1,2.6.9,5.4-.2,9-1,3.6-13.9,12.1-13.9,12.1-1.9,1.3-3.3,2.1-4.3,2.1-1.5,0-2.1-2-2.4-7.6-1.2-20,9.4-25.3,9.4-25.3,4.9-5.9,16.8-8.9,16.8-8.9M151.4,238l-7.4,1.9c-.5.1-12.3,3.2-17.8,9.4-2.3,1.4-11.5,8.4-10.3,27.5.2,4.4.5,10,5,10s3.3-1,5.7-2.5c4.1-2.7,13.8-9.5,15-13.5.8-2.8.6-5.3.4-7.2,0-.9-.2-1.7-.1-2.4,0-.4.3-.8.9-1.6.9-1.2,2.1-2.9,2.3-5.6.1-1.3,0-2.5-.1-3.5-.3-2.2-.4-3.7,1.7-6.4l4.7-5.9h0Z" fill="#fff"/><path d="M119.7,280.6c1.6-14.3,11.8-26.8,23.3-34.8,0,0,0,.1,0,.1-7.7,5.9-14.1,13.7-18.3,22.4-.4.7-.8,1.7-1.1,2.4-1.6,3.2-2.6,6.5-3.8,9.9h-.1Z" fill="#fff"/><path d="M119.6,282.8c0-3.1,1.5-5.9,3.3-8.4,2.2-4.5,4.6-9.1,8.8-12.2,0,0,.1,0,0,0-2.4,4.5-6,8.1-8.5,12.3-1.1,2.8-2,5.5-3.5,8.2,0,0-.1,0-.1,0h0Z" fill="#fff"/><path d="M119.6,283c1.6-5.3,4.9-9.8,8.7-13.7,3.7-4,7.8-7.5,12.2-10.7h0c-4.1,3.5-8,7.4-11.5,11.4-3.4,4.2-6.5,8.5-9.4,13,0,0-.1,0-.1,0h0Z" fill="#fff"/><path d="M120.2,283.8c.8-3.2,3.1-5.6,5.7-7.5,3.7-3.7,7.7-7.5,12.9-9.1,0,0,.1,0,0,.1-3.9,3.6-8.7,5.9-12.6,9.3-2,2.4-3.8,4.8-5.9,7.3,0,0-.1,0-.1,0h0Z" fill="#fff"/><path d="M121.4,283.8c.5-2.1,2.2-3.6,4-4.6,1.6-1.3,2.9-2.9,4.7-3.9,1.2-.7,2.5-1.2,3.9-1.4,0,0,.1,0,0,.1-2.6,2.7-5.6,3.6-8.4,5.6-1.3,1.6-2.5,3-4.2,4.3,0,0-.1,0-.1,0h0Z" fill="#fff"/><path d="M136.4,287c2.9,0,18.6,3.7,16,4.5-2.6.9-3.5,4.1-6,6.2-1.7,1.4-3.4,3.9-8.9,3.9s-6.5-.6-11.6-2.3l-6.1-3.4s3.8-3.7,6.2-5.4c2.4-1.8,7.7-3.3,10.2-3.4,0,0,0,0,.1,0M136.4,284.5c0,0-.2,0-.3,0-2.8.1-8.6,1.7-11.6,3.9-2.5,1.9-6.3,5.5-6.4,5.7l-2.4,2.4,3,1.7,6.1,3.4h.2c0,.1.2.2.2.2,5,1.6,9.1,2.4,12.4,2.4,5.7,0,8.2-2.4,9.9-3.9.2-.2.4-.4.6-.6,1.3-1.1,2.2-2.3,2.9-3.4.8-1.1,1.5-2.1,2.2-2.3,1.6-.5,2.2-2,2-3.1-.4-2.2-3.1-3.1-9.1-4.6-2.7-.7-7.7-1.8-9.7-1.8h0Z" fill="#fff"/><path d="M120.1,295.8c6.3.7,12.9,3.2,18.8.2,1.2-.5,2.1-1.3,3.4-1.9,1.3-.5,2.6-.7,3.9-1,1.3-.2,2.6-.4,3.9-.6h0c-1.3.4-2.6.7-3.8,1-1.3.3-2.5.6-3.7,1.2-2.1,1.4-4.4,3-7,3.6-2.7.7-5.5.6-8,0-2.6-.6-5.1-1.4-7.5-2.4h0Z" fill="#fff"/><path d="M120.5,296c2.6-.7,5.1-.8,7.7-.5,1.7,0,3.4-.5,5-.9,2.5-.5,4.7-1.2,7.3-1.9,0,0,0,.1,0,.1-2.2,3-6.3,3.1-9.8,3-1.7,0-3.4.5-5.1.7-1.7.1-3.5,0-5.2-.4,0,0,0-.1,0-.1h0Z" fill="#fff"/><path d="M119.3,295.9c4.8-1.6,9.7-2.5,14.6-3.8,1.6-.4,3.3-.8,4.9-1.3h0c-3.1,1.4-6.3,2.5-9.5,3.6-3.2,1.1-6.6,2.1-10,1.6,0,0,0-.1,0-.1h0Z" fill="#fff"/><path d="M121.1,295.7c0-1.9,1.7-2.8,3.3-3.3,1.3-.8,2.3-2.2,3.8-2.8,1-.4,2-.7,3.1-.8h0c-1.1,1.4-2.4,2.2-3.8,2.7-.9.4-2,.5-2.8,1.2-.4.3-.7.8-1,1.2-.7.7-1.5,1.2-2.4,1.8h-.1Z" fill="#fff"/><path d="M119.7,295.7c1.2-.9,2.4-1.5,3.7-2,1.4-.3,2.8-.5,4-1.3,2.5-1.4,4.6-3.1,7.4-3.8,0,0,0,.1,0,.1-.9,1.2-2,2.1-3.2,2.9-2,1.2-4.1,1.1-6.1,2.1-1.8,1.2-3.7,2-6,2,0,0,0-.1,0-.1h0Z" fill="#fff"/><path d="M120.8,296.1c2.4.7,4.5,1.5,6.8,2.4,2.3.7,4.6,1.3,7,1.7h0c-3.6.1-7.5-.2-10.9-1.6-1.1-.6-2.2-1.3-3-2.3h0Z" fill="#fff"/><path d="M44.9,261.9c1.2,1,15,6.5,19.4,4.4-1.5,0,12.5-5.5,22.8,11.1,2.8,4.7,3.8,8.2,2.5,9.4-.9.9-2.9.7-5.4.3-1.5-1.8-11.7,1.6-14.2,1.2-2.5-1.9-3.6-4.8-5.3-6.5-1.7-1.7-4.7-.9-7.9-4.7-3.3-4.1-2.9-6.5-11.8-15.1M32.9,253.9c3,2.5,7,6.5,10.8,10,5.1,4.8,6.1,6.5,7.5,9.3.6,1.2,1.3,2.6,2.5,4.1,2.3,3,5.1,4.5,6.9,5.2,1.2.5,1.7.6,2,1,.5.6.9,1.3,1.4,2.1,1,1.7,2.1,4.1,4.3,5.9,4.1,2.2,10.7-2.2,16.3.3,3.1.6,5.6.9,7.1-1.3,3.3-5.6.7-10.3-.6-13-6.3-14.6-26.3-15.8-26.3-13.8-5.5,1.6-19.5-5.3-21.3-6.1-3.5-1.4-7.3-3-10.5-3.7h0Z" fill="#fff"/><path d="M88,281.7c-17.1-17.6-20.1-1.1-38-14,16.8,11.6,23.3-5.4,38,14t0,0Z" fill="#fff"/><path d="M89.7,284.2c-9.5-8.9-15.9-9.7-21.1-8.4,2.3-1.9,5.6-2.3,9.3-.4,3.3,1.8,9.6,4.1,11.8,8.9h0Z" fill="#fff"/><path d="M89.8,284.5c-14.5-11.1-18-4.7-27.6-3.7,8.7-2,14.5-10.1,27.6,3.7h0Z" fill="#fff"/><path d="M89.8,286c-2.5-1.2-4.9-2.6-7-3.6-7-4.3-8.9,2.1-14.1,3.5,4.4-5.3,6.9-7,14.2-4.8,2.1.8,5.6,2.6,6.9,5h0Z" fill="#fff"/><path d="M88.7,286.8c-3.3-.6-6.1-3.5-8.4-2.9-2.2.5-4,1.6-5.7,1.9,1.9-4.5,5.1-2.8,9.7-2.3,1.3.4,3.8,1.5,4.5,3.3t0,0Z" fill="#fff"/></svg>