<?xml version="1.0" encoding="UTF-8"?><svg id="Layer_1" xmlns="http://www.w3.org/2000/svg" width="129.8" height="146.6" viewBox="0 0 129.8 146.6"><path d="M24.2,79.2c-.5,0-1.1-.1-1.6-.3h0s0,0,0,0c-1-1-1.4-2-1.4-3.1,0-1.7,1.4-3,2.2-3.6.2-.1.3-.3.4-.5.2-.3.3-.5.6-.7,0,0,.2,0,.2,0,.2,0,.3,0,.5.1,0,0,.2,0,.2,0,.2,0,.5-.2.7-.2s.2,0,.3,0c.3.1.4.5.4.7.2.1.7.4.8.7,0,.2,0,.4,0,.6,0,.1,0,.3,0,.4.4,2,0,3.8-.9,4.9-.6.7-1.4,1.1-2.3,1.1Z" fill="#fff"/><path d="M24.5,71c.2,0,.5.2.7.2s0,0,0,0c.2,0,.5-.2.7-.2s.1,0,.2,0c.2,0,.2.6.2.6,0,0,.7.3.8.7,0,.2,0,.7,0,.9.5,2.9-.5,5.7-2.9,5.7s-1-.1-1.6-.3c-2.5-2.5-1-4.9.8-6.4.4-.3.6-1,1-1.2,0,0,0,0,.1,0M24.5,70.5c-.1,0-.3,0-.4,0-.3.2-.5.5-.7.8-.1.2-.2.4-.3.5-.8.7-2.2,2-2.3,3.8,0,1.2.4,2.3,1.5,3.3h0c0,0,0,.1,0,.1.6.2,1.2.4,1.7.4,1,0,1.8-.4,2.5-1.2,1-1.2,1.3-3.1.9-5.1,0,0,0-.2,0-.3,0-.2,0-.5,0-.7,0-.4-.5-.7-.8-.8,0-.3-.2-.6-.5-.7-.1,0-.2,0-.4,0-.3,0-.5,0-.8.2,0,0,0,0-.1,0-.2,0-.3-.2-.6-.2h0Z" fill="#4b1428"/><path d="M22.7,78.5c-.5-.7-.5-1.7-.1-2.4.3-.7.5-1.6,1.2-2.1-.2.7-.9,1.3-1.1,2.2-.2.8,0,1.6,0,2.4h0Z" fill="#4b1428"/><path d="M23.4,79c.7-.5,1.1-1.1,1.6-1.8.5-.7.4-1.7.9-2.3,0,.9-.5,1.6-.8,2.4-.3.7-.9,1.6-1.8,1.8h0Z" fill="#4b1428"/><path d="M24.7,79.6c.4,0,1,.1,1.5-.2,1.1-.6,1.4-1.7,1.4-1.7-.5,1-1.1,1.5-2.8,1.4,0,0-.8-.3-1.9-.2-.7-.8-1.5-1.1-1.5-1.1-1.4-1-1.5-1.8-1.2-2.9,0,0-.6,1-.1,2.2.2.6.7,1,1.1,1.2.5.4.3,1.3.4,1.9,0,.2.2.4.3.5,0,0,0,0,0,0,0,0,.2.1.3.2.1,0,.3,0,.4,0,0,0,0,0,0,0,.2,0,.4,0,.6-.2.5-.4.9-1.1,1.5-1.2Z" fill="#fff" stroke="#4b1428" stroke-linecap="round" stroke-linejoin="round" stroke-width=".5"/><path d="M22.8,78.4c-.4-.5,0-1,0-1.5,0-.5.2-1.1.6-1.4,0,.8-.6,1.4-.5,2.2,0,0,0,.8,0,.8h0Z" fill="#4b1428"/><path d="M23.6,78.7c.3-.5.7-.8.9-1.4.2-.5.4-1,.7-1.5,0,.8-.7,1.5-.9,2.3-.1.2-.3.5-.6.6h0Z" fill="#4b1428"/><path d="M23.2,78.6c.3-.6.8-1.2,1-1.7-.2.6-.5,1.4-1,1.7h0Z" fill="#4b1428"/><path d="M23.7,76.4c-.4.6-.4,1.4-.7,2.1-.2-.7.3-1.6.7-2.1h0Z" fill="#4b1428"/><path d="M23.7,77.2c-.1.5-.2,1.1-.7,1.3,0-.5.4-.9.7-1.3h0Z" fill="#4b1428"/><path d="M21.9,77.8c-.5-.4-.3-1-.4-1.5,0-.5,0-1.1.3-1.5,0,.8-.3,1.5,0,2.2,0,0,.2.8.2.7h0Z" fill="#4b1428"/><path d="M22.1,75.5c-.2.7,0,1.5,0,2.2-.4-.6-.2-1.6,0-2.2h0Z" fill="#4b1428"/><path d="M22.2,76.5c.1.5.4,1.1,0,1.5-.2-.5,0-1,0-1.5h0Z" fill="#4b1428"/><path d="M24.7,79l.6-.5c.6-.4.7-1.3,1.2-1.9,0,.8-.7,1.4-1.1,2-.2.2-.5.4-.7.4h0Z" fill="#4b1428"/><path d="M25.9,77c-.3.7-.7,1.5-1.4,1.7.4-.6.9-1,1.4-1.7h0Z" fill="#4b1428"/><path d="M25.3,77.6c-.4.4-.5.8-1,1.1,0-.5.6-.9,1-1.1h0Z" fill="#4b1428"/><path d="M22.4,80.7c-.2-.1-.4-.3-.4-.5,0-.2.1-.4,0-.6,0-.4-.2-.8-.4-1.1.2,0,.4.3.5.5.2.4-.1.9,0,1.3,0,.1.2.4.2.6h0Z" fill="#4b1428"/><path d="M23.4,80c-.1-.4.6-.7.7-.6-.3.2-.3.6-.7.6h0Z" fill="#4b1428"/><path d="M25.4,71c-.1.4-.4.8-.5,1.2,0-.4,0-1.2.5-1.2h0Z" fill="#4b1428"/><path d="M26.8,71.4c-.1.6-.7,1-1,1.3.3-.4.5-1.2,1-1.3h0Z" fill="#4b1428"/><path d="M112.4,72.7c-.2-.7-.2-1.4-.3-2.2v-.5s0-.1,0-.1c0-.2,0-.4,0-.5-.5-1-1.3-2.1-2.4-3.1-.9-1.5-1-3.2-1-4.8,0-.5,0-.9,0-1.4,0-.4-.1-.7-.4-1.1l-.2-.3c-.5-1.5-.4-3,0-4.8.4-.7.8-1.3,1.2-1.9.4-.6.8-1.1,1.1-1.7l.2-.4c.5-.9,1.1-1.8,2-2.4h0s.1,0,.1,0h.2v.2c.2.1.1.2,0,.3-.6.9-1.1,2-1.6,3.1-.6,1.2-1.2,2.5-1.9,3.6-.3.9-.5,2.4-.3,3.6.1.2.5,1.2.3,1.9-.2,1.7-.3,3.9.9,5.3,1.2.8,2.2,2,2.8,3.5.1.4,0,.9,0,1.4,0,.2,0,.4,0,.5,0,.2,0,.5,0,.7,0,.4,0,.8-.2,1.2l-.3.6-.2-.6Z" fill="#fff"/><path d="M112.9,47.7s0,0,0,0c-1.4,2.1-2.1,4.7-3.6,6.7-.3,1.1-.6,2.7-.3,3.8.2.5.4,1.2.3,1.8-.2,1.8-.3,4,.9,5.5,1.3.8,2.2,2,2.7,3.5.2.5,0,1.3,0,1.8-.1.6,0,1.3-.3,1.7-.2-.8-.2-1.7-.3-2.6,0-.2,0-.5,0-.7-.5-1.1-1.5-2.3-2.5-3.2-1.1-1.8-.8-4-1-6,0-.6-.2-.9-.5-1.5-.5-1.6-.4-3,.1-4.6.7-1.3,1.6-2.4,2.3-3.6.6-1,1.2-2,2.2-2.7,0,0,0,0,0,0M112.9,47.2h-.3c-.9.8-1.5,1.7-2.1,2.6l-.2.4c-.4.6-.7,1.2-1.1,1.7-.4.6-.8,1.2-1.2,1.9h0s0,.1,0,.1c-.5,1.8-.6,3.3-.1,4.9h0s0,0,0,0c0,.1.1.2.2.3.2.4.3.6.3,1,0,.5,0,.9,0,1.4,0,1.7,0,3.4,1,4.9h0c0,0,0,.1,0,.1,1,1,1.9,2.1,2.4,3,0,0,0,.2,0,.4h0c0,.3,0,.5,0,.7,0,.7,0,1.5.3,2.2l.4,1.3.6-1.2c.2-.4.2-.8.2-1.2,0-.2,0-.4,0-.6h0s0,0,0,0c0-.2,0-.3,0-.5,0-.5.1-1,0-1.5-.6-1.6-1.5-2.8-2.9-3.7-1.1-1.3-1-3.4-.8-5.1.1-.7-.2-1.6-.4-2-.2-1.1,0-2.5.3-3.5.8-1.1,1.4-2.3,1.9-3.5.5-1.1,1-2.1,1.6-3.1.1-.2.1-.4,0-.5,0-.2-.3-.4-.5-.4h0Z" fill="#4b1428"/><path d="M18.1,113.8c-.2-.7-.3-1.4-.3-2.2v-.5s0-.1,0-.1c0-.2,0-.4,0-.5-.5-1-1.4-2.1-2.5-3.1-.9-1.5-1-3.2-1.1-4.8,0-.5,0-.9,0-1.4,0-.4-.2-.7-.4-1.1l-.2-.3c-.5-1.5-.5-3,0-4.8.4-.7.8-1.3,1.2-1.9.4-.6.8-1.1,1.1-1.8l.2-.4c.5-.9,1.1-1.8,2-2.4h0s.1,0,.1,0h.2v.2c.2.1.1.2,0,.3-.6.9-1.1,2-1.6,3.1-.6,1.2-1.1,2.5-1.9,3.6-.2.9-.5,2.4-.2,3.6.1.2.5,1.1.4,1.9-.2,1.7-.3,3.9,1,5.3,1.2.7,2.2,2,2.8,3.5.1.4,0,.9,0,1.4,0,.2,0,.4,0,.5,0,.2,0,.5,0,.7,0,.4,0,.8-.2,1.2l-.3.6-.2-.6Z" fill="#fff"/><path d="M18.3,88.8s0,0,0,0c-1.3,2.1-2.1,4.7-3.5,6.7-.3,1.1-.5,2.7-.3,3.8.2.5.5,1.2.4,1.8-.2,1.8-.3,4,1,5.5,1.3.8,2.2,2,2.8,3.4.2.5,0,1.3,0,1.8-.1.6,0,1.3-.3,1.7-.3-.8-.3-1.7-.3-2.6,0-.2,0-.5,0-.7-.6-1.1-1.5-2.3-2.5-3.1-1.1-1.8-.9-4-1.1-6,0-.6-.3-.9-.6-1.5-.5-1.6-.4-3,0-4.6.7-1.3,1.6-2.4,2.3-3.6.6-1,1.2-2,2.1-2.7,0,0,0,0,0,0M18.3,88.3h-.3c-.9.8-1.5,1.7-2,2.6l-.2.4c-.3.6-.7,1.2-1.1,1.8-.4.6-.8,1.2-1.2,1.9h0s0,.1,0,.1c-.5,1.8-.5,3.3,0,4.9h0s0,0,0,0c0,.1.1.2.2.3.2.4.3.6.3,1,0,.5,0,.9,0,1.4,0,1.7.1,3.4,1.1,4.9h0c0,0,0,.1,0,.1,1.1.9,1.9,2,2.4,3,0,0,0,.2,0,.4h0c0,.3,0,.5,0,.7,0,.7.1,1.5.3,2.2l.4,1.3.5-1.2c.2-.4.2-.8.2-1.2,0-.2,0-.4,0-.6h0s0,0,0,0c0-.2,0-.3,0-.5,0-.5.1-1,0-1.5-.6-1.6-1.6-2.8-2.9-3.6-1.1-1.3-1-3.4-.8-5.1.1-.7-.2-1.6-.4-2-.2-1.1,0-2.5.2-3.5.8-1.1,1.3-2.4,1.9-3.6.5-1.1,1-2.1,1.6-3.1.1-.2.1-.4,0-.5,0-.2-.3-.3-.5-.3h0Z" fill="#4b1428"/><path d="M13,68.2v-.2c-.1,0-.2-.2-.2-.2v-.2c.7-.9,1.1-2.1,1.6-3.2.5-1.2,1-2.5,1.7-3.7.2-.9.4-2.5,0-3.6-.1-.2-.5-1.1-.4-1.8.1-1.7.1-3.9-1.2-5.3-1.3-.7-2.3-1.9-3-3.4-.1-.4-.1-.9,0-1.4,0-.2,0-.4,0-.5,0-.2,0-.5,0-.7,0-.4,0-.8.2-1.2l.2-.6.2.6c.2.7.3,1.4.4,2.2v.5c0,0,0,.1,0,.1,0,.2,0,.4,0,.5.5,1,1.5,2,2.6,3,1,1.4,1.1,3.1,1.3,4.8,0,.5,0,.9.1,1.4,0,.4.2.7.4,1.1l.2.3c.5,1.5.6,3,.2,4.8-.4.7-.7,1.4-1.1,2-.3.6-.7,1.2-1,1.8l-.2.4c-.5.9-1,1.8-1.9,2.5h0c0,0-.1,0-.1,0h-.2Z" fill="#fff"/><path d="M12.1,43.1c.3.8.3,1.7.4,2.6,0,.2,0,.5.1.7.6,1.1,1.6,2.2,2.7,3,1.2,1.7,1.1,4,1.3,6,0,.6.3.9.6,1.4.6,1.5.5,3,.2,4.6-.7,1.3-1.5,2.4-2.1,3.7-.6,1-1.1,2.1-2,2.8,0,0,0,0,0,0,0,0,0,0,0,0,1.3-2.1,1.9-4.8,3.2-6.9.3-1.1.4-2.7.1-3.8-.2-.5-.5-1.2-.4-1.7.1-1.9.1-4.1-1.2-5.5-1.3-.7-2.3-1.9-2.9-3.3-.2-.5,0-1.3,0-1.8,0-.6,0-1.3.2-1.8M12.1,41.6l-.5,1.3c-.2.4-.2.8-.2,1.3,0,.2,0,.4,0,.6h0s0,0,0,0c0,.2,0,.3,0,.5,0,.5,0,1,0,1.5.7,1.5,1.7,2.8,3.1,3.5,1.2,1.3,1.2,3.3,1.1,5,0,.7.3,1.6.5,2,.3,1.1.1,2.5-.1,3.5-.7,1.1-1.2,2.4-1.7,3.6-.5,1.1-.9,2.2-1.4,3.2-.1.2-.1.4,0,.5,0,.2.3.3.5.3h.3c.9-.8,1.4-1.8,1.9-2.7l.2-.4c.3-.6.7-1.2,1-1.8.4-.6.8-1.3,1.1-2h0c0,0,0-.1,0-.1.4-1.8.4-3.4-.2-4.9h0s0,0,0,0c0-.1-.1-.2-.2-.3-.2-.4-.4-.6-.4-.9,0-.5,0-.9-.1-1.4-.1-1.7-.3-3.4-1.3-4.8h0c0,0,0-.1,0-.1-1.1-.9-2-1.9-2.5-2.9,0,0,0-.2,0-.4h0c0-.3,0-.5,0-.7,0-.7-.2-1.5-.4-2.2l-.5-1.3h0Z" fill="#4b1428"/><path d="M56.7,114.4c-.5,0-.6-.4-.6-.7s.2-.7.6-.7h4.4c1,0,1.2-.6,1.2-1.2v-57.4c0-.7-.3-1-1-1h-4.8c-.5,0-.7-.2-.7-.5s.3-.7.7-.7h18.4c12.7,0,21,5.7,21,30.8s-10.1,31.4-21,31.4h-18.2ZM71.8,53.6c-.6,0-1,.4-1,1v57.3c0,.7.2,1.2,1,1.2h3.2c8,0,13.1-8.6,13.1-30s-5.1-29.5-13.1-29.5h-3.1Z" fill="#4c1127"/><path d="M36.6,94.3c-.5,0-.6-.4-.6-.7s.2-.7.6-.7h4.4c1,0,1.2-.6,1.2-1.2v-57.3c0-.7-.3-1-1-1h-4.8c-.5,0-.7-.5-.7-.7s.3-.6.7-.6h17.1c10.6,0,17.3,4.1,17.3,18.1s-6.5,16.5-17,16.5h-3.2v25.1c0,.7.4,1.2,1.2,1.2h4.8c.5,0,.8.3.8.7s-.3.7-.8.7h-20.1ZM51.7,33.5c-.6,0-1,.4-1,1v30.7h3.2c5.5,0,8.1-3.6,8.1-15s-3-16.8-8.9-16.8h-1.4Z" fill="#4c1127"/><path d="M114,73.5c-5.9-8.8,7.3-51.7-11.6-51.5,0,0,0-.1,0-.2C96,4.8,67.9,2.6,64.4,2.4h0c-3.5.2-31.7,2.4-37.9,19.5,0,0,0,.2,0,.2-18.9-.3-5.7,42.6-11.6,51.5,5.9,8.8-7.3,51.2,11.6,50.9,0,0,0,.1,0,.2,6.2,17.1,34.4,19.3,37.9,19.5h0c3.5-.2,31.7-2.4,37.9-19.5,0,0,0-.2,0-.2,18.9.3,5.7-42.1,11.6-50.9ZM100.7,122.5c0,0,0,.1,0,.2-6,16.4-33,18.5-36.3,18.7h0c-3.3-.2-30.3-2.3-36.3-18.7,0,0,0-.2,0-.2-18.1.2-5.5-40.5-11.2-49,5.7-8.5-7-49.7,11.2-49.5,0,0,0-.1,0-.2C34,7.5,61,5.3,64.3,5.1c-.2,0-.3,0-.3,0h.7s-.1,0-.3,0c3.3.2,30.3,2.3,36.3,18.8,0,0,0,.2,0,.2,18.1-.2,5.5,41,11.2,49.5-5.7,8.5,7,49.2-11.2,49Z" fill="#4c1127"/><path d="M109.7,115.9v-.2c0-.6.8-3,1.6-4.2.2-.3.5-.6.7-.8.4-.4.8-.8.9-1.3.1-1.3.5-2.6.9-3.8.2-.6.3-1.2.5-1.8,0-.3.3-.6.6-.8,0,0,.1-.1.2-.2.4-.4.8-1,1.1-1.4.6-1.4.4-2.9,0-4.5-.2-.9-.3-1.8-.3-2.7,0-.4,0-1.3.7-1.8,0,0,.2-.1.3-.2,0,0,.1,0,.2,0,0-.2-.1-.5-.2-.8v-.3c-1.2-2-1.1-4.3-1.1-6.5,0-.9,0-1.9,0-2.9-.2-.6-.5-1.1-.9-1.7-.3-.5-.6-1-.8-1.5-.2-.3-.3-.7-.3-1,0-.5-.3-1-.6-1.6-.1-.3-.3-.6-.4-1-.4-.9-.5-2.3.3-3.1,0-.1,0-.3,0-.4,0,0,0-.7,0-.7,0-1.2,0-2.6-.2-3.7.2-1.3,1.3-2.3,2.1-3.1.4-.4.7-1.3.9-2l.2-.5c0-.3.2-.6.4-.8.5-.5,1-.7,1.6-.9h.3c0-.1.2-.1.2-.1v.2c0,0,.1.2.1.2h-.2c0,.1-.2.2-.2.2-.5.2-1,.5-1.3.9-.2.2-.2.6-.3,1,0,.3-.1.5-.2.7-.2,1-.8,1.7-1.4,2.4-.6.6-1.1,1.2-1.3,2,.2,1.4.2,3,.2,4.7,0,.4-.2.7-.4.9-.1.2-.2.3-.3.5-.2.8.1,1.6.5,2.5.1.3.2.6.3.8.1.3.2.6.2,1,0,.3,0,.6.2.9.2.5.5,1,.8,1.4.4.6.7,1.2.9,2,.1,1.1.1,2.1.1,3.1,0,.9,0,1.8,0,2.6,0,1,.4,1.8.8,2.8.2.5.5,1.1.6,1.6,0,.2.1.4,0,.7,0,.4-.4.6-.5.7-.6.3-.6.4-.6,1,0,.8.2,1.6.3,2.5.3,1.7.7,3.5-.2,5.2-.4.7-.8,1.2-1.2,1.6-.2.2-.4.4-.6.7-.1.5-.3,1.1-.5,1.8-.4,1.2-.8,2.4-.9,3.6-.2.8-.7,1.3-1.2,1.8-.3.2-.5.4-.7.7-.4.5-1,1.7-1.7,3.6-.1.3-.1.4-.3.4h-.2Z" fill="#fff"/><path d="M118.4,59.7s0,0,0,0c-.6.3-1.2.6-1.6,1.1-.3.5-.3,1.2-.6,1.8-.3,1.9-2.3,2.6-2.7,4.4.2,1.5.2,3.1.2,4.7,0,.5-.5.9-.6,1.4-.3,1.1.4,2.3.8,3.5.2.6.1,1.3.4,1.8.5,1.2,1.3,2.1,1.7,3.4.2,1.9,0,3.8.2,5.7,0,1.6,1,2.9,1.4,4.4,0,.2,0,.3,0,.6,0,.3-.3.5-.5.6-.7.3-.7.6-.7,1.2,0,2.5,1.4,5.2.2,7.6-.6,1.1-1.3,1.6-1.8,2.2-.5,1.8-1.2,3.6-1.5,5.5-.2,1-1.3,1.6-1.9,2.3-.8,1-1.8,3.8-1.8,3.8s0,0,0,0c0-.5.8-2.9,1.6-4,.6-.8,1.5-1.3,1.7-2.2.2-1.9.9-3.7,1.3-5.6.1-.4.5-.6.7-.8.4-.4.8-1,1.1-1.5,1-2.2-.3-4.9-.2-7.3,0-.5,0-1.2.6-1.6.2-.1.6-.2.6-.4,0-.4-.2-.8-.3-1.2-1.5-2.9-.8-6.2-1-9.3-.3-1.2-1.3-2.1-1.7-3.3-.1-.3-.2-.6-.2-.9-.1-.9-.7-1.7-1-2.6-.4-.8-.4-2.1.2-2.9.2-.3.1-.5.1-.8,0-1.3,0-3-.2-4.3.2-1.2,1.2-2.1,2-2.9.6-.6.9-1.7,1.1-2.5,0-.3.2-.7.4-.9.5-.5,1.1-.7,1.7-1,0,0,0,0,0,0M118.4,59.3h-.2s-.2.1-.2.1c-.5.2-1.2.5-1.7,1-.3.3-.4.7-.5.9h0c0,.3,0,.4-.1.5-.2.7-.5,1.5-.9,1.9-.9.7-1.9,1.7-2.2,3.1h0c0,0,0,.1,0,.1,0,1.1.1,2.5.2,3.7v.6s0,.1,0,.2c0,.2,0,.2,0,.3-.8,1-.7,2.4-.3,3.4.1.3.3.6.4.9.2.5.5,1,.5,1.5,0,.3.1.8.3,1.1.2.5.5,1,.8,1.5.4.6.7,1.1.9,1.7,0,.9,0,1.9,0,2.8,0,2.2,0,4.5,1,6.6,0,0,0,.1,0,.2,0,.2.1.4.2.6,0,0,0,0,0,0-.1,0-.3.1-.4.2-.5.3-.8,1.1-.8,2,0,.9.2,1.8.3,2.7.3,1.6.6,3.1,0,4.4-.2.4-.6.9-1,1.4,0,0-.1.1-.2.2-.2.2-.5.5-.6.9-.2.6-.3,1.2-.5,1.8-.4,1.2-.7,2.5-.9,3.9,0,.4-.4.8-.8,1.1-.3.3-.5.5-.8.8-.8,1.1-1.6,3.6-1.6,4.3v.4h.4s0,0,0,0c.3,0,.4-.2.5-.5.7-1.8,1.3-3,1.7-3.5.2-.2.4-.4.6-.6.5-.5,1.2-1,1.3-1.9.2-1.2.6-2.4.9-3.6.2-.6.4-1.2.5-1.8.2-.2.3-.4.5-.6.4-.4.9-.9,1.3-1.7.9-1.8.5-3.6.2-5.4-.2-.9-.3-1.7-.3-2.4,0-.6,0-.7.4-.8h0s0,0,0,0c.2-.1.6-.4.7-.9,0-.3,0-.5,0-.7h0s0,0,0,0c-.2-.6-.4-1.1-.6-1.6-.4-.9-.8-1.8-.8-2.7,0-.9,0-1.8,0-2.6,0-1,0-2-.1-3.1h0s0,0,0,0c-.2-.8-.6-1.4-1-2-.3-.5-.5-.9-.7-1.4-.1-.2-.1-.5-.2-.8,0-.3,0-.7-.2-1,0-.2-.2-.5-.3-.8-.3-.9-.6-1.7-.5-2.4,0-.1.1-.3.2-.4.2-.3.4-.6.4-1,0-1.7,0-3.3-.2-4.7.2-.7.7-1.2,1.2-1.8.6-.7,1.3-1.4,1.5-2.5,0-.2.1-.5.2-.7,0-.3.1-.7.3-.9.3-.3.7-.5,1.2-.8h.2c0-.1.3-.3.3-.3v-.4c-.1-.2-.3-.4-.5-.4h0Z" fill="#4b1428"/><path d="M16.4,80.9v-.2c-.4-1.2-.8-2.5-1.4-3.8-.1-.3-.3-.5-.5-.8-.4-.6-.9-1.3-.8-2.1.1-1.3,0-2.7,0-4,0-.7,0-1.4,0-2-.1-.2-.2-.5-.4-.7-.3-.5-.6-1.1-.8-2-.4-2,.4-3.8,1.2-5.6.4-.9.8-1.7,1-2.5.2-.7.2-.8-.3-1.2-.2-.2-.5-.4-.4-.9,0-.3.1-.5.2-.6.3-.6.7-1.1,1.1-1.6.7-.9,1.3-1.7,1.5-2.7.3-.9.5-1.9.8-2.8.3-1.1.5-2.1.9-3.2.4-.8,1-1.3,1.5-1.9.4-.4.8-.9,1.1-1.3.2-.3.3-.6.4-.9.1-.3.2-.7.5-1,.2-.3.3-.5.5-.8.6-.9,1.1-1.7,1.1-2.5,0-.2,0-.4-.1-.6-.1-.3-.2-.6-.2-1,.4-1.8.9-3.4,1.5-5,0-.8-.4-1.5-.8-2.3-.5-.8-.9-1.7-.9-2.8,0-.2,0-.5,0-.8,0-.4,0-.8,0-1.1-.2-.4-.6-.8-1.1-1.2l-.3-.3v-.2s0-.2,0-.2h.2s0,0,0,0l.3.2c.5.4,1,.7,1.4,1.3.2.3.2.7.2,1v.6c0,.8.2,1.7.5,2.3.7.9,1.5,2.2,1.4,3.6-.4,1.2-.8,2.6-1.1,3.9,0,0-.2.7-.2.8,0,.2,0,.3,0,.5.5,1,.1,2.5-.5,3.3-.2.3-.4.6-.6.9-.4.5-.8,1-1,1.6,0,.3-.3.7-.5,1-.3.5-.8.9-1.2,1.4-.5.5-1.1,1.1-1.4,1.7-.3.9-.5,2-.8,3-.5,2.3-1.1,4.7-2.7,6.7v.2c-.3.3-.5.5-.6.8,0,0,.1,0,.2.1.1,0,.2.2.3.3.6.6.4,1.6.2,2-.2.9-.6,1.8-1,2.7-.7,1.6-1.4,3.2-1.1,4.8.1.5.4,1.2.7,1.7,0,0,0,.1.1.2.2.3.4.6.4.9,0,.7,0,1.4,0,2,0,1.4,0,2.8,0,4.2,0,.6.3,1,.6,1.5.2.3.4.6.6,1,.5,1.2.8,2.5,1,3.8v.3c0,0,0,.1,0,.1h0c0,0-.1.1-.1.1h-.2Z" fill="#fff"/><path d="M21.7,20.5s0,0,0,0c.6.4,1.2.8,1.5,1.4.2.3.2.7.2,1,0,.9,0,2.1.5,2.9.7,1,1.5,2.2,1.4,3.4-.4,1.3-.9,3.1-1.3,4.5,0,.3-.2.5,0,.8.5,1,.1,2.3-.5,3.1-.6.9-1.3,1.6-1.7,2.5,0,.3-.3.7-.5.9-.8,1.1-2,1.9-2.6,3.1-1.1,3.3-1.1,6.9-3.5,9.6-.2.4-.6.8-.6,1.2,0,.2.4.3.6.5.5.5.3,1.3.2,1.8-.6,2.5-2.6,5-2.1,7.6.2.6.4,1.2.7,1.8.2.3.5.6.5,1,0,2.1.2,4.1,0,6.2,0,1,.8,1.7,1.2,2.7.5,1.3.8,2.6,1.1,4,0,0,0,0,0,0s0,0,0,0c-.4-1.3-.8-2.6-1.3-3.8-.4-.9-1.4-1.7-1.3-2.8.2-2,0-4.1-.1-6.1-.3-.8-.9-1.5-1.3-2.7-.6-2.8,1.5-5.4,2.2-8,.2-.7.3-1-.4-1.4-.1-.1-.4-.3-.3-.7,0-.3.1-.4.2-.6.8-1.5,2.2-2.7,2.6-4.3.6-2,1-4,1.7-5.9.7-1.2,1.8-2,2.6-3.2.4-.6.5-1.3.9-1.8.7-1.2,1.7-2.3,1.7-3.5,0-.5-.4-1-.3-1.6.4-1.7.9-3.3,1.5-4.9,0-1.9-1.8-3.1-1.6-5.2,0-.6.1-1.4-.1-2-.3-.6-.8-1-1.4-1.4,0,0,0,0,0,0M21.7,20h-.3v.4c-.1,0-.3.3-.3.3l.3.2.2.2c.4.4.8.7,1,1.1,0,.2,0,.6,0,1,0,.3,0,.5,0,.8,0,1.2.4,2.1.9,2.9.4.7.8,1.4.8,2.1-.5,1.5-1,3.2-1.4,4.9,0,.5,0,.9.2,1.2,0,.2.1.4.1.5,0,.8-.5,1.6-1.1,2.4-.2.3-.4.6-.5.8-.2.3-.3.7-.5,1-.1.3-.2.6-.4.8-.3.5-.7.9-1.1,1.3-.5.6-1.1,1.2-1.5,1.9h0s0,0,0,0c-.4,1.1-.6,2.2-.9,3.2-.2.9-.5,1.8-.8,2.7-.3,1-.9,1.8-1.5,2.7-.4.5-.8,1-1.1,1.6h0c0,.2-.2.4-.2.8,0,.6.3.9.4,1.1h0s0,0,0,0c.4.2.4.3.2.9-.2.9-.6,1.7-1,2.5-.8,1.8-1.7,3.7-1.2,5.7.2.9.6,1.5.9,2,.1.2.3.5.4.7,0,.7,0,1.3,0,2,0,1.3.2,2.7,0,4,0,.9.4,1.6.9,2.3.2.3.4.5.5.8.5,1.2.9,2.5,1.3,3.8v.3c.1,0,.5,0,.5,0,.2,0,.3,0,.4-.2v-.2c.1,0,0-.3,0-.3v-.2c-.3-1.3-.6-2.6-1.1-3.8-.2-.4-.4-.7-.6-1.1-.3-.5-.6-.9-.5-1.4.2-1.4.1-2.8,0-4.2,0-.7,0-1.3,0-2,0-.5-.2-.8-.4-1.1,0,0,0-.1-.1-.2-.3-.5-.6-1.1-.7-1.7-.3-1.5.4-3,1.1-4.6.4-.9.8-1.8,1-2.8.2-.5.4-1.6-.3-2.2,0,0-.2-.2-.3-.3,0,0,0,0,0,0,0-.2.2-.4.3-.6,0,0,0-.1.1-.2,1.7-2,2.2-4.4,2.8-6.8.2-1,.4-2,.8-2.9.3-.6.8-1.1,1.3-1.6.4-.4.9-.9,1.3-1.4.2-.3.5-.7.6-1.1.2-.5.6-1,1-1.5.2-.3.5-.6.7-.9.7-.9,1.1-2.4.5-3.6,0,0,0-.2,0-.3,0,0,0-.1,0-.2l.2-.6c.3-1.3.7-2.7,1.1-3.8h0c0,0,0-.1,0-.1.1-1.5-.7-2.8-1.5-3.8-.3-.5-.4-1.4-.4-2.2,0-.2,0-.3,0-.4v-.2c0-.3,0-.7-.3-1.1-.4-.6-1-1-1.5-1.4h-.2c0-.1-.1-.2-.1-.2h-.2Z" fill="#4b1428"/><path d="M110.2,47.2c0-.1.1-.3.2-.3,0,0,0,0,0,0,.1,0,.2,0,.3,0,.1.1.2.2.4.2,0,0,0,.1.1.2-1.3,4.2-1.1,9.1,2.6,9.3s1.6,1.6,2.5,1.3c2-.6,1.7-2.7,1.8-4.1.3-3-2.4-5.5-5.7-6.8-.2-.2-.2-.4-.2-.5.1,0,.2-.2.2-.3.2,0,.4,0,.5,0,.8.4,1.6,1.1,3.5,1.8s2.5,2,3.9,2,4-1.3,3.9-3.3c0-.5-.7-1.2-.8-1.7-.3-1.6-.3-2.6-1.4-3.2s-2.4-.7-4.1,0-3.2,1.6-5,3.3c-.2,0-.3,0-.5,0-.1-.1-.3-.2-.4-.2,0,0,0,0,0,0,0,0,0,0,0,0,0-.2-.2-.4-.4-.4,0-.1,0-.2,0-.3,2.5-1.4,8.7-4.5,6.4-8s0-1.7-1-2.4c-1.3-.6-2.3.3-3,.3-2.3-.1-3.7,3.4-3.4,9.8,0,.2,0,.3-.1.3,0,0,0,0,0,0-.2.1-.4,0-.5,0-.3-1.3-.8-3.2-1.7-4.6s-2.7-3.3-4.5-2.9-1.4,2.2-2.4,3.3c-1.5,1.2-1.1,2.1-.7,3.5.8,2.5,3.6,4.1,8.6,2.6.2,0,.4,0,.5,0,0,0,0,0,.1.1,0,.1-.1.3-.3.4-2.6,1-10.1.5-7.9,7.7s.4-.2,2.1,3.7c1.6,1,4.9-1.5,6.4-10.8Z" fill="#fff" stroke="#4b1428" stroke-miterlimit="10" stroke-width=".8"/><path d="M110,44c-.6,0-.2.6-.4.7s-.3.1-.4.3-.2.2,0,.5.3,0,.3.3,0,.4.1.5,0,.2.3.2.3,0,.3,0,.2.1.4.2.4.2.5.1,0-.2.3,0,.3.3.5.1.3-.2.2-.4.1-.3.1-.5.3-.2.3-.4,0-.6-.2-.6-.1-.2-.3-.3-.2-.6-.3-.6-.3,0-.4,0-.1-.3-.3-.3-.5,0-.5.2-.6,0-.6,0Z" fill="#fff" stroke="#4b1428" stroke-miterlimit="10" stroke-width=".2"/><path d="M109.6,44.2c-.7-.6-.8-1.5-1.5-2.1-.6-.6-1.2-1.2-1.6-2,.7.3,1.4,1.2,1.8,1.9.4.8,1.3,1.4,1.3,2.2h0Z" fill="#4b1428"/><path d="M109.3,45c-.9-.6-1.5-1.5-2.5-2-1-.5-2-.9-2.8-1.7,1.1.2,2.1.8,2.9,1.5.8.7,2.1,1.1,2.4,2.1h0Z" fill="#4b1428"/><path d="M109.3,45.5c-.8,0-1.4-.5-2.1-.6-.7,0-1.5-.2-2.1-.5.8-.2,1.5,0,2.2.3.6.3,1.6.1,2.1.8h0Z" fill="#4b1428"/><path d="M109.4,44.6c-1-.7-2.2-1.9-3.1-2.7,1,.7,2.8,1.5,3.1,2.7h0Z" fill="#4b1428"/><path d="M109.8,44.5c-.9-.5-1.7-1.7-2.2-2.5.7.8,1.9,1.5,2.2,2.5h0Z" fill="#4b1428"/><path d="M109.8,43.8c-.7-.9-1.1-2.1-1.6-3,.7.8,1.8,1.9,1.6,3h0Z" fill="#4b1428"/><path d="M109,45.1c-.6,0-1.9-.7-2.5-1,.8.2,2.1.2,2.5,1h0Z" fill="#4b1428"/><path d="M109.2,45.7c-.6.4-2,0-2.6-.2,0,0,1.3,0,1.3,0,.4,0,1,0,1.3.2h0Z" fill="#4b1428"/><path d="M100.5,41.8c.7.3.8,1.1,1.5,1.4.6.3,1.1.7,1.6,1.2-.7.2-1.4-.5-1.8-1-.4-.5-1.3-.8-1.3-1.6h0Z" fill="#4b1428"/><path d="M102.4,38.2c.9-.2,1.3.6,2.1.6.2,0,.5.2.6.5-.7,0-.8-.5-1.3-.5-.5,0-1.1-.2-1.3-.6h0Z" fill="#4b1428"/><path d="M100.6,40.5c1,.6,2,1.4,3,2.1-1-.4-2.7-1-3-2.1h0Z" fill="#4b1428"/><path d="M102.1,38.6c.6,0,1.2.3,1.7.6.3.2,1.4.7,1.5,1-.4-.3-1.2-.5-1.7-.7-.5-.2-1.3-.5-1.6-.9h0Z" fill="#4b1428"/><path d="M100.9,40.3c.6,0,.7.5,1.1.5.4,0,.9.2,1.1.6-.5.1-.9,0-1.2-.4-.3-.3-.8-.1-1-.7,0,0,0,0,0,0h0Z" fill="#4b1428"/><path d="M102,39.3c.5-.1.7.4,1.2.4.4,0,.9.2,1.1.7,0,0,0,0,0,0-.4,0-.8-.2-1.1-.5-.1-.2-.4-.2-.6-.2-.1,0-.5-.3-.5-.4h0Z" fill="#4b1428"/><path d="M103.1,37.3c.7-.2,1.2.3,1.8.4.2,0,.4,0,.7.3h0c.5.2.9.6,1.1,1.1-.5-.2-.9-.6-1.2-.9,0,0-.5-.4-.5-.4l.4.3c-.2-.2-.6-.5-1-.5-.4,0-1-.2-1.2-.4h0Z" fill="#4b1428"/><path d="M100.5,41.2c.7.2,1.3,1,1.9,1.4-.3,0-.7-.3-1.1-.5-.3-.1-.8-.5-.8-.9h0Z" fill="#4b1428"/><path d="M103.2,37c.4-.2.8,0,1.2,0,.3.2.8.3,1.1.5,0,0-1.1-.2-1.1-.2-.3,0-.9-.1-1.1-.4h0Z" fill="#4b1428"/><path d="M102.7,37.9c.3-.3.7-.2,1,0,.3.2.6.2.8.5-.5-.3-1.6-.2-1.8-.5h0Z" fill="#4b1428"/><path d="M100.6,42.5c.3.2.5.4.6.7.1.3.5.6.5.8-.5-.3-1.4-.9-1.1-1.6h0Z" fill="#4b1428"/><path d="M101.6,39.6c.4,0,.6.2.9.5.2.2.6.4.8.6-.6-.1-1.6-.4-1.6-1h0Z" fill="#4b1428"/><path d="M101.1,40c.3-.1.5,0,.7.2.2.1.5.4.6.5,0,0-.7-.2-.7-.2-.3,0-.6-.3-.6-.5h0Z" fill="#4b1428"/><path d="M123.8,47.4c-.4.7-1.2.6-1.8,1-.5.4-1.4.7-2,.4.6-.2,1.2-.5,1.9-.6.7,0,1.2-.9,1.9-.8h0Z" fill="#4b1428"/><path d="M123.2,43.4c-.5.2-1,.2-1.4,0-.5-.1-.8.3-1.4,0,.3-.6,1-.1,1.4-.3.4-.1,1.1-.2,1.5.1h0Z" fill="#4b1428"/><path d="M124.2,46.2c-.9.9-2.4.9-3.5.9,1.2-.2,2.4-.8,3.5-.9h0Z" fill="#4b1428"/><path d="M123.4,43.9c-1.1.6-2.5.2-3.6.5.2-.3,1.4-.3,1.8-.4.6,0,1.3-.2,1.8,0h0Z" fill="#4b1428"/><path d="M123.9,45.9c-.4.4-.8,0-1.2.3-.3.2-1,.3-1.2,0,.4-.2.8-.3,1.2-.2.4,0,.7-.4,1.2-.1,0,0,0,0,0,0h0Z" fill="#4b1428"/><path d="M123.2,44.6c-.4.4-.8,0-1.2.2-.4.2-.9.2-1.2,0,.3-.4.8-.4,1.2-.3.4.1.8-.3,1.2,0,0,0,0,0,0,0h0Z" fill="#4b1428"/><path d="M122.8,42.3c-.9.3-1.5-.3-2.3.1,0,0,.5-.2.5-.2-.7.2-1.3.5-2,.6.2-.5.9-.7,1.4-.8,0,0,0,0,0,0,.3-.1.5,0,.7,0,.4,0,.8-.2,1.3,0,.2,0,.6.1.6.3h0Z" fill="#4b1428"/><path d="M124,46.9c-.2.4-.7.5-1.1.6-.4,0-.9.2-1.2.1,0,0,1.1-.4,1.1-.4.3-.1.8-.4,1.1-.3h0Z" fill="#4b1428"/><path d="M122.8,42c-.7.2-1.6-.1-2.3-.2.3-.2.8-.1,1.2-.2.3,0,1,0,1.1.4h0Z" fill="#4b1428"/><path d="M123,43c-.6.1-1.3-.2-1.9-.1.3-.2.6-.2,1-.2.4,0,1,.2.9.4h0Z" fill="#4b1428"/><path d="M123.5,45.1c-.4.6-1.3.5-1.9.4.2-.1.7-.2.9-.3.2-.1.8-.3,1-.1h0Z" fill="#4b1428"/><path d="M123.8,45.6c-.4.3-.8.2-1.5.2,0-.2.5-.2.7-.3.3-.2.7,0,.8.1h0Z" fill="#4b1428"/><path d="M118.2,54.7c-.5-.5-.4-1.3-.8-1.9-.4-.5-.7-1.1-1.1-1.7.7.1,1.1,1,1.3,1.6.1.7.9,1.3.6,2h0Z" fill="#4b1428"/><path d="M115.7,57.5c-.9-.4-.7-1.3-1.3-1.8-.1-.2-.3-.5-.1-.8,0,0,0,0,0,0,.5.4.3.9.7,1.3.3.3.7.8.7,1.3h0Z" fill="#4b1428"/><path d="M117.8,55.9c-.4-1.1-.6-2.4-1-3.5.5.9,1.5,2.5,1,3.5h0Z" fill="#4b1428"/><path d="M116.3,57.7c-.4-.5-.7-1-.9-1.6-.1-.4-.7-1.4-.6-1.7.1.5.6,1.1.8,1.6.3.4.7,1.2.6,1.7h0Z" fill="#4b1428"/><path d="M117.8,56.7c-.5-.3-.2-.8-.5-1.1-.3-.3-.5-.7-.5-1.1.4.2.6.6.7,1.1,0,.4.6.6.4,1.2,0,0,0,0,0,0h0Z" fill="#4b1428"/><path d="M116.7,57.6c-.5-.2-.3-.7-.6-1.1-.3-.3-.5-.7-.4-1.2,0,0,0,0,0,0,.3.3.5.6.6,1.1,0,.2.2.4.3.5,0,.1.2.5.1.6h0Z" fill="#4b1428"/><path d="M113.7,56.4c-.7-.3-.8-1-1.1-1.5-.1-.2-.3-.3-.3-.6h0c-.2-.4-.3-1,0-1.5.2.4.3,1,.4,1.4,0,0,.1.6.1.6v-.5c0,.3,0,.8.4,1,.3.2.6.7.6,1.1h0Z" fill="#4b1428"/><path d="M113.4,56.6c-.5-.1-.7-.5-.9-.8-.2-.3-.5-.8-.5-1.1,0,0,.7.9.7.9.2.3.6.6.6,1h0Z" fill="#4b1428"/><path d="M114.5,56.5c-.4,0-.6-.3-.8-.6-.1-.3-.3-.6-.3-1,.2.5,1.1,1.1,1.1,1.6h0Z" fill="#4b1428"/><path d="M117.1,57.5c-.6-.8-.9-2-1.3-2.8.5.8,1.4,1.8,1.3,2.8h0Z" fill="#4b1428"/><path d="M117.5,56.9c-.3,0-.4-.3-.5-.6,0-.2-.2-.6,0-.8,0,0,.4.6.4.6.2.2.3.6.2.7h0Z" fill="#4b1428"/><path d="M113.9,34c-.2.7-.9,1-1.2,1.7-.2.7-.5,1.2-.9,1.8-.3-.6.3-1.4.7-1.9.5-.5.6-1.4,1.3-1.6h0Z" fill="#4b1428"/><path d="M117.6,34.7c.1.9-.7,1.2-.9,2-.1.2-.3.5-.6.5,0,0,0,0,0,0,0-.6.6-.7.7-1.2.1-.5.3-1,.8-1.2h0Z" fill="#4b1428"/><path d="M115.1,33.7c-.8,1-1.7,1.7-2.4,2.7.5-.9,1.3-2.5,2.4-2.7h0Z" fill="#4b1428"/><path d="M117.5,34.1c-.2.6-.5,1.1-.9,1.6-.3.3-.9,1.3-1.2,1.4.3-.3.7-1.1.9-1.6.2-.5.7-1.3,1.1-1.4h0Z" fill="#4b1428"/><path d="M115.8,33.3c0,.6-.5.6-.7,1-.1.4-.3.8-.7,1,0-.5.2-.9.6-1.1.4-.3.3-.8.8-.9,0,0,0,0,0,0h0Z" fill="#4b1428"/><path d="M117.1,33.8c0,.6-.5.7-.6,1.1-.1.4-.3.8-.8,1,0,0,0,0,0,0,0-.4.3-.8.6-1,.2-.1.2-.3.3-.6,0-.1.3-.5.5-.4h0Z" fill="#4b1428"/><path d="M118.2,36.2c.1.7-.4,1.2-.7,1.7-.1.2,0,.4-.4.6h0c-.3.4-.8.7-1.3.8.2-.4.7-.8,1-1.1,0,0,.4-.4.4-.4l-.4.3c.2-.2.6-.6.6-.9,0-.3.3-.9.6-1.1h0Z" fill="#4b1428"/><path d="M118.4,37.1c.1.4,0,.8-.2,1.2-.2.3-.4.8-.7,1,0,0,.4-1.1.4-1.1,0-.3.2-.8.5-1h0Z" fill="#4b1428"/><path d="M117.8,35.5c.2.3,0,.7-.1,1-.2.3-.3.6-.7.8.3-.5.4-1.5.8-1.7h0Z" fill="#4b1428"/><path d="M116.8,33.5c-.3.9-1.2,1.8-1.8,2.6.4-.9.8-2.2,1.8-2.6h0Z" fill="#4b1428"/><path d="M116.1,33.5c0,.3,0,.5-.3.7-.2.1-.4.5-.6.5,0,0,.3-.7.3-.7,0-.2.4-.6.5-.5h0Z" fill="#4b1428"/><path d="M105.2,57.8c.1-.7.8-1.1.9-1.8.1-.7.4-1.3.7-1.9.3.6,0,1.5-.5,2-.4.5-.4,1.5-1.1,1.7h0Z" fill="#4b1428"/><path d="M101.7,53.9c0-.9.8-1.2,1-2,.1-.2.3-.5.6-.5,0,0,0,0,0,0-.1.6-.7.7-.8,1.2-.1.4-.4,1-.8,1.2h0Z" fill="#4b1428"/><path d="M103.8,57.7c.5-1.1,1.2-2.1,1.7-3.2-.3,1-.7,2.8-1.7,3.2h0Z" fill="#4b1428"/><path d="M101.9,54.6c.2-.6.5-1.1,1-1.5.3-.3.9-1.3,1.3-1.3-.4.3-.7,1.1-1,1.5-.3.5-.7,1.2-1.2,1.4h0Z" fill="#4b1428"/><path d="M103.4,57.2c0-.6.5-.6.6-1.1,0-.4.3-.8.7-1.1,0,.5-.1.9-.5,1.2-.3.3-.2.8-.7,1,0,0,0,0,0,0h0Z" fill="#4b1428"/><path d="M102.5,55.1c0-.6.5-.6.6-1.1.1-.4.4-.8.9-.9,0,0,0,0,0,0-.1.4-.3.8-.7,1-.2.1-.3.3-.3.5,0,.1-.4.5-.5.4h0Z" fill="#4b1428"/><path d="M101.2,52.3c0-.7.5-1.1.8-1.7.1-.2,0-.4.4-.6h0c.3-.4.8-.7,1.4-.8-.3.4-.7.7-1.1,1.1,0,0-.4.4-.4.4l.4-.3c-.2.2-.6.5-.7.9,0,.3-.3.9-.6,1.1h0Z" fill="#4b1428"/><path d="M104.4,58.1c.1-.7.7-1.5,1-2.1,0,.3-.2.8-.3,1.2,0,.3-.3.9-.7.9h0Z" fill="#4b1428"/><path d="M101.5,53.2c-.2-.3,0-.7.2-1,.2-.3.4-.6.7-.7-.4.5-.5,1.5-.9,1.7h0Z" fill="#4b1428"/><path d="M106.3,56.9c0-.4.2-.6.4-.9.2-.2.3-.7.5-.8,0,.6-.2,1.6-.9,1.7h0Z" fill="#4b1428"/><path d="M102.7,55.6c.1-.3.3-.5.6-.7.3-.2.5-.6.7-.7-.2.5-.7,1.5-1.3,1.4h0Z" fill="#4b1428"/><path d="M103.1,56.4c0-.3,0-.5.3-.7.2-.1.5-.5.6-.4,0,0-.4.6-.4.6,0,.2-.4.5-.6.5h0Z" fill="#4b1428"/><path d="M109.6,46.8c-.7.6-1.6.6-2.3,1.1-.7.5-1.4,1-2.3,1.2.4-.7,1.4-1.2,2.2-1.4.8-.2,1.6-1.1,2.4-.9h0Z" fill="#4b1428"/><path d="M110.1,46.8c-.7.8-1.7,1.3-2.4,2.2-.6.9-1.3,1.8-2.1,2.5.4-1,1.1-1.9,1.9-2.6.8-.6,1.4-1.9,2.5-2h0Z" fill="#4b1428"/><path d="M110.1,46.9c0,.8-.7,1.3-.9,2-.2.7-.4,1.4-.9,2,0-.8.3-1.5.7-2.1.4-.6.4-1.6,1.1-1.9h0Z" fill="#4b1428"/><path d="M110,46.9c-1,.7-2.5,1.6-3.5,2.1,1-.8,2.2-2.2,3.5-2.1h0Z" fill="#4b1428"/><path d="M109.8,47.1c0,.7-1.1,1.7-1.7,2,0,0,.8-1.1.8-1.1.2-.3.6-.9.9-.9h0Z" fill="#4b1428"/><path d="M112,47c.9.1,1.4.9,2.2,1.4.7.4,1.6,1,1.9,1.8-.8-.4-1.4-1-2-1.6-.5-.7-1.7-.8-2.1-1.5h0Z" fill="#4b1428"/><path d="M111.6,47c1,.5,1.3,1.7,2,2.6.6.9,1.2,1.9,1.3,3-.6-.9-1.1-1.9-1.5-2.9-.4-1-1.4-1.7-1.8-2.7h0Z" fill="#4b1428"/><path d="M111.5,46.9c.5.7.1,1.4.3,2.2.2.7.3,1.6-.1,2.2-.2-.7-.2-1.4-.1-2.2.1-.7-.5-1.5-.1-2.2h0Z" fill="#4b1428"/><path d="M111.9,47c1,.4,1.8,1.5,2.4,2.3-.8-.7-2-1.3-2.4-2.3h0Z" fill="#4b1428"/><path d="M111.6,47.1c.7.6.7,1.7.8,2.6-.2-.3-.3-.9-.5-1.3-.2-.3-.4-1-.3-1.3h0Z" fill="#4b1428"/><path d="M113,45.1c.5-.8,1.5-.9,2.2-1.4.7-.5,1.6-1,2.4-.9-.7.5-1.5.9-2.3,1.1-.8.2-1.4,1.2-2.3,1.2h0Z" fill="#4b1428"/><path d="M112.7,45.5c.9-.8,2.1-.6,3.1-.8,1.1-.2,2.2-.4,3.3,0-1.1.3-2.1.3-3.2.3-1.1,0-2.2.7-3.2.6h0Z" fill="#4b1428"/><path d="M112.7,45.5c.8-.2,1.4.3,2.2.3.7,0,1.6.2,2.1.8-.8,0-1.4-.2-2.1-.5-.6-.3-1.6,0-2.1-.5h0Z" fill="#4b1428"/><path d="M112.6,45.4c1-1,2.6-1,3.9-1.3-.9.4-2,.7-2.9,1,0,0-1,.3-1,.3,0,0,0,0,0,0h0Z" fill="#4b1428"/><path d="M112.9,45.4c.9-.4,1.8,0,2.7.2-.4,0-.9,0-1.4,0-.4,0-1.1,0-1.3-.2h0Z" fill="#4b1428"/><path d="M111.3,43.8c.4-.8,1.3-1.1,1.8-1.9.5-.7,1-1.4,1.7-2-.1.8-.9,1.6-1.5,2.1-.7.5-1.1,1.6-1.9,1.7h0Z" fill="#4b1428"/><path d="M111,43.8c.3-1.1,1-1.9,1.1-3,.2-1.1.3-2.2.7-3.2.1,1.1-.1,2.2-.5,3.2-.4.9-.4,2.4-1.3,3h0Z" fill="#4b1428"/><path d="M111.2,43.8c.6-1.1,1.5-2.5,2.2-3.5-.5,1.1-1,3-2.2,3.5h0Z" fill="#4b1428"/><path d="M111.1,43.6c-.2-.6,0-2,.2-2.7,0,.9.4,2-.2,2.7h0Z" fill="#4b1428"/><path d="M112.1,46.2c.4-.1,0-.5,0-.6s.2-.1.2-.3,0-.2-.2-.4-.2,0-.3-.1-.1-.3-.2-.4-.1-.2-.2-.1-.2.1-.2,0-.2,0-.3,0-.3,0-.4,0,0,.2-.2,0-.3-.2-.4,0-.1.2,0,.3,0,.2,0,.4-.2.2-.1.4.2.4.3.4.1,0,.3.2.3.4.4.3.2-.1.3,0,.2.2.3.2.3-.2.3-.3.4-.2.4-.2Z" fill="#fff" stroke="#4b1428" stroke-miterlimit="10" stroke-width=".2"/><path d="M110.3,44.9c-.3,0,0,.3,0,.4s-.1.1-.2.2,0,.1.1.3.1,0,.2,0,0,.2.1.3,0,.1.2,0,.1,0,.2,0,.1,0,.2,0,.2,0,.3,0,0-.1.1,0,.2.1.3,0,.1-.2,0-.3,0-.2,0-.3.1-.2.1-.3-.1-.3-.2-.3,0,0-.2-.1-.2-.3-.3-.3-.1,0-.2,0-.1-.1-.2-.1-.3.1-.3.2-.3.1-.3.1Z" fill="#fff" stroke="#4b1428" stroke-miterlimit="10" stroke-width=".1"/><path d="M111.7,45.7c.2-.1,0-.2,0-.3s0-.1,0-.2,0-.1-.1-.2,0,0-.2,0-.1-.1-.2-.1,0,0-.1,0,0,0-.1,0-.1,0-.2,0-.2,0-.2,0,0,0,0,0-.2,0-.2,0,0,.1,0,.2,0,.1,0,.2,0,.1,0,.2.2.2.2.1,0,0,.2,0,.2.2.2,0,0,0,.1,0,.1,0,.2,0,.1-.1.1-.2.2-.2.2-.2Z" fill="#fff" stroke="#4b1428" stroke-miterlimit="10" stroke-width="0"/><path d="M16.4,110c0,.1.1.2.2.3,0,0,0,0,0,0,0,0,.2,0,.3,0,0-.1.2-.2.4-.2,0,0,0-.1,0-.2-1.8-3.6-2.2-8.1,1.3-8.4.7,0,1.4-1.4,2.3-1.2,2,.5,2,2.2,2.3,3.4.7,2.5-1.6,4.9-4.6,6.4-.1.2-.2.4-.2.5.1,0,.2.1.2.3.2,0,.4,0,.5,0,.7-.5,1.4-1.2,3.2-2,1.2-.6,2.1-1.9,3.5-2.1,1.6-.2,4,.5,4.1,2,0,.4-.5,1.1-.6,1.4,0,1.3,0,2.1-.9,2.7-.9.7-2.2,1-3.9.8-1.5-.2-3.2-.8-5.2-2-.2,0-.3,0-.4,0,0,.1-.2.2-.4.2,0,0,0,0,0,0,0,0,0,0,0,0,0,.2-.1.3-.3.4,0,.1,0,.2,0,.3,2.5,1,8.8,2.3,7.1,5.6-.2.4.2,1.4-.7,2.1-1.1.8-2.2.3-2.8.5-2.2.6-4-2.1-4.5-7.8,0-.1-.1-.2-.2-.3,0,0,0,0,0,0-.2,0-.3,0-.5,0-.1,1.2-.4,2.9-1,4.3-.7,1.5-2.1,3.4-3.9,3.3-.8,0-1.6-1.8-2.7-2.8-1.6-1-1.3-1.9-1.1-3.3.4-2.5,2.9-4,7.8-3.2.2,0,.4,0,.4-.1,0,0,0,0,0-.1,0-.1-.2-.3-.3-.4-2.6-.6-9.7.3-8.6-6.9.2-1,.4.2,1.5-3.6,1.4-1,4.9,1.7,7.6,9.8Z" fill="#fff"/><path d="M16.4,110c0,.1.1.2.2.3,0,0,0,0,0,0,0,0,.2,0,.3,0,0-.1.2-.2.4-.2,0,0,0-.1,0-.2-1.8-3.6-2.2-8.1,1.3-8.4.7,0,1.4-1.4,2.3-1.2,2,.5,2,2.2,2.3,3.4.7,2.5-1.6,4.9-4.6,6.4-.1.2-.2.4-.2.5.1,0,.2.1.2.3.2,0,.4,0,.5,0,.7-.5,1.4-1.2,3.2-2,1.2-.6,2.1-1.9,3.5-2.1,1.6-.2,4,.5,4.1,2,0,.4-.5,1.1-.6,1.4,0,1.3,0,2.1-.9,2.7-.9.7-2.2,1-3.9.8-1.5-.2-3.2-.8-5.2-2-.2,0-.3,0-.4,0,0,.1-.2.2-.4.2,0,0,0,0,0,0,0,0,0,0,0,0,0,.2-.1.3-.3.4,0,.1,0,.2,0,.3,2.5,1,8.8,2.3,7.1,5.6-.2.4.2,1.4-.7,2.1-1.1.8-2.2.3-2.8.5-2.2.6-4-2.1-4.5-7.8,0-.1-.1-.2-.2-.3,0,0,0,0,0,0-.2,0-.3,0-.5,0-.1,1.2-.4,2.9-1,4.3-.7,1.5-2.1,3.4-3.9,3.3-.8,0-1.6-1.8-2.7-2.8-1.6-1-1.3-1.9-1.1-3.3.4-2.5,2.9-4,7.8-3.2.2,0,.4,0,.4-.1,0,0,0,0,0-.1,0-.1-.2-.3-.3-.4-2.6-.6-9.7.3-8.6-6.9.2-1,.4.2,1.5-3.6,1.4-1,4.9,1.7,7.6,9.8Z" fill="none" stroke="#4b1428" stroke-miterlimit="10" stroke-width=".7"/><path d="M16.7,112.8c-.6.1-.3-.5-.4-.6-.2,0-.3,0-.4-.2-.1-.1-.2-.1,0-.5.2-.3.2,0,.3-.3,0-.2,0-.3,0-.5,0-.2,0-.2.2-.2.2,0,.3,0,.3,0,0-.1.2-.2.4-.2.2,0,.3-.2.5-.2.2,0,0,.2.3,0,.2-.2.2-.3.4-.2.2.2.3.2.3.3,0,.2.1.2.2.4,0,.2.3.1.4.3,0,.2,0,.5-.1.5-.1,0,0,.1-.2.3-.1.2,0,.6-.2.5-.2,0-.3,0-.4,0-.1.1,0,.3-.3.3-.2,0-.5,0-.5-.1,0-.1-.6,0-.6,0Z" fill="#fff"/><path d="M16.7,112.8c-.6.1-.3-.5-.4-.6-.2,0-.3,0-.4-.2-.1-.1-.2-.1,0-.5.2-.3.2,0,.3-.3,0-.2,0-.3,0-.5,0-.2,0-.2.2-.2.2,0,.3,0,.3,0,0-.1.2-.2.4-.2.2,0,.3-.2.5-.2.2,0,0,.2.3,0,.2-.2.2-.3.4-.2.2.2.3.2.3.3,0,.2.1.2.2.4,0,.2.3.1.4.3,0,.2,0,.5-.1.5-.1,0,0,.1-.2.3-.1.2,0,.6-.2.5-.2,0-.3,0-.4,0-.1.1,0,.3-.3.3-.2,0-.5,0-.5-.1,0-.1-.6,0-.6,0Z" fill="none" stroke="#4b1428" stroke-miterlimit="10" stroke-width=".2"/><path d="M16.3,112.7c0,.8-.7,1.4-1,2.1-.3.7-.8,1.6-1.4,1.9.3-.8.7-1.4,1.2-2,.5-.6.5-1.6,1.1-2.1t0,0Z" fill="#4b1428"/><path d="M15.9,112c-.3,1-1.4,1.4-2,2.2-.7.7-1.6,1.4-2.6,1.7.7-.7,1.6-1.3,2.4-1.8.9-.5,1.4-1.6,2.2-2t0,0Z" fill="#4b1428"/><path d="M15.8,111.6c-.5.6-1.3.5-1.9.9-.6.3-1.4.7-2,.5.6-.4,1.2-.6,1.9-.7.7,0,1.3-.8,2-.7h0Z" fill="#4b1428"/><path d="M16.1,112.3c-.3,1.2-1.7,2-2.6,2.8.5-.7,1.3-1.4,1.9-2.1,0,0,.7-.7.7-.7,0,0,0,0,0,0t0,0Z" fill="#4b1428"/><path d="M16.5,112.4c-.3,1-1.2,1.8-1.8,2.5.6-.8.9-2,1.8-2.5t0,0Z" fill="#4b1428"/><path d="M16.5,113c.2,1.1-.6,2.1-1.2,2.9.5-.9.7-2.4,1.2-2.9h0Z" fill="#4b1428"/><path d="M15.6,112c-.5.7-1.5,1-2.3,1.1.8-.3,1.4-1.1,2.3-1.1t0,0Z" fill="#4b1428"/><path d="M15.7,111.5c-.7.3-1.7.3-2.5.4.3-.2.8-.3,1.2-.4.4-.1.9-.2,1.3,0t0,0Z" fill="#4b1428"/><path d="M7.9,115.8c0-.8.8-1,1.1-1.6.3-.5.9-1.2,1.5-1.1-.6.8-1.6,1.1-1.9,2-.2.2-.4.6-.7.7t0,0Z" fill="#4b1428"/><path d="M10.2,119c.3-.4.7-.6,1.2-.7.5-.1.6-.6,1.2-.7,0,.6-.8.5-1.1.9-.3.3-.9.6-1.3.5h0Z" fill="#4b1428"/><path d="M8.1,117c.3-1.1,1.6-1.7,2.6-2.2-.9.6-1.7,1.7-2.6,2.2t0,0Z" fill="#4b1428"/><path d="M9.8,118.7c.7-1,2-1.2,2.9-1.9,0,.3-1,.8-1.3,1.1-.4.3-1,.8-1.5.8h0Z" fill="#4b1428"/><path d="M8.5,117.1c.1-.5.6-.4.9-.7.2-.3.7-.6,1.1-.5-.2.4-.6.5-1,.6-.4,0-.5.6-1,.6,0,0,0,0,0,0t0,0Z" fill="#4b1428"/><path d="M9.6,118c.2-.5.7-.3,1-.7.3-.3.6-.5,1-.6-.1.4-.5.6-.9.7-.4,0-.5.6-1,.5,0,0,0,0,0,0h0Z" fill="#4b1428"/><path d="M11,119.8c.5-.5,1.1-.4,1.6-.8.5-.5.9-.9,1.4-1.4,0,.5-.4,1-.8,1.2,0,0,0,0,0,0-.2.3-.4.2-.6.3-.5.3-1,.7-1.7.7,0,0,0,0,0,0t0,0Z" fill="#4b1428"/><path d="M8,116.4c0-.7,1.1-1.3,1.6-1.5,0,0-.8.8-.8.8-.2.3-.5.6-.9.7t0,0Z" fill="#4b1428"/><path d="M11.2,120c.5-.4,1.4-.6,2.1-.8-.2.3-.6.4-.9.6-.3.2-.8.4-1.1.2t0,0Z" fill="#4b1428"/><path d="M10.5,119.2c.5-.4,1.2-.4,1.7-.7-.2.3-.5.4-.7.6-.2.2-.7.4-.9,0t0,0Z" fill="#4b1428"/><path d="M7.9,115.2c-.2-.7.5-1.2.9-1.6,0,.2-.3.6-.4.8,0,.3-.2.6-.5.7t0,0Z" fill="#4b1428"/><path d="M9.2,117.7c.1-.7.9-.9,1.4-1.1-.1.2-.5.4-.7.6-.2.2-.4.5-.8.5h0Z" fill="#4b1428"/><path d="M8.7,117.4c.1-.4.6-.5,1.1-.8,0,.2-.3.4-.5.6-.1.2-.4.4-.7.2t0,0Z" fill="#4b1428"/><path d="M29.4,108c-.7,0-1.2-.4-1.9-.4-.7,0-1.3,0-1.9-.2.5-.4,1.4-.2,2,0,.6.2,1.5,0,1.8.6h0Z" fill="#4b1428"/><path d="M29.3,111.3c-.7.6-1.4.2-2.1.5-.3,0-.8,0-.7-.1.5-.3.9,0,1.4-.2.4-.2,1-.3,1.4-.2t0,0Z" fill="#4b1428"/><path d="M29.9,108.9c-1.2,0-2.3-.2-3.5-.2,1.1-.1,2.7-.4,3.5.2h0Z" fill="#4b1428"/><path d="M29.4,110.9c-.6.2-1.1.3-1.7.3-.4,0-1.5.1-1.7,0,1,0,2.6-.6,3.5-.2t0,0Z" fill="#4b1428"/><path d="M29.7,109.2c-.4.3-.8,0-1.2.1-.4.1-.8.2-1.2,0,.4-.3.8-.3,1.2-.2.4,0,.8-.3,1.2,0,0,0,0,0,0,0h0Z" fill="#4b1428"/><path d="M29.2,110.3c-.4.3-.8,0-1.2.2-.4.2-.8.2-1.2,0,0,0,0,0,0,0,.4-.2.8-.2,1.2-.1.4,0,.8-.3,1.2,0,0,0,0,0,0,0t0,0Z" fill="#4b1428"/><path d="M29.1,112.2c-.5.4-1.1.4-1.7.5-.2,0-.3.2-.7.1,0,0,0,0,0,0-.5,0-1.2,0-1.4-.4.8,0,1.2,0,2,.1.6,0,1.2-.5,1.8-.4h0Z" fill="#4b1428"/><path d="M29.6,108.4c-.7.1-1.5-.1-2.2-.2.3-.1.8,0,1.2,0,.3,0,.9,0,1.1.3h0Z" fill="#4b1428"/><path d="M29.1,112.5c-.4.5-1.6.6-2.2.6,0,0,1.1-.4,1.1-.4.3-.1.8-.3,1.1-.2t0,0Z" fill="#4b1428"/><path d="M29.2,111.6c-.2.3-.5.4-.8.4-.3,0-.7.1-1,0,.6,0,1.4-.5,1.8-.4t0,0Z" fill="#4b1428"/><path d="M29.4,109.9c-.7.2-1.2,0-1.9,0,0,0,0,0,0,0,.5-.1,1.5-.4,1.9,0h0Z" fill="#4b1428"/><path d="M29.6,109.5c-.2.2-.5.2-.7.2-.2,0-.6,0-.7-.1,0,0,.7-.1.7-.1.2,0,.7,0,.7,0h0Z" fill="#4b1428"/><path d="M23.1,102.8c.2.6-.3,1.1-.4,1.7,0,.5-.4,1.3-1,1.5.2-.5.5-1,.8-1.5.4-.5.1-1.2.6-1.6h0Z" fill="#4b1428"/><path d="M20.3,100.5c0,.5-.2.8-.5,1.1-.3.3,0,.8-.5,1.1-.4-.5.3-.8.3-1.2,0-.4.3-.9.7-1.1h0Z" fill="#4b1428"/><path d="M22.6,101.7c.5,1-.1,2.1-.6,3,.3-1,.2-2.1.6-3h0Z" fill="#4b1428"/><path d="M20.9,100.3c0,1.1-.8,1.9-1,2.9-.2-.3.2-1.2.3-1.5.1-.5.3-1.1.7-1.4h0Z" fill="#4b1428"/><path d="M22.6,101.1c.2.4-.2.6-.2,1,0,.3-.1.8-.5.9,0-.4,0-.7.3-1,.3-.3,0-.7.4-1,0,0,0,0,0,0h0Z" fill="#4b1428"/><path d="M21.3,100.4c.2.5-.3.6-.3,1,0,.4-.1.7-.4,1-.2-.4,0-.8.2-1,.3-.3,0-.7.5-.9,0,0,0,0,0,0t0,0Z" fill="#4b1428"/><path d="M18.6,101.5c0,.6-.6.9-.8,1.4,0,.7,0,1.2-.2,1.8-.3-.3-.3-1-.2-1.4,0,0,0,0,0,0,0-.3.2-.4.3-.6.3-.5.3-1.1.9-1.4,0,0,0,0,0,0t0,0Z" fill="#4b1428"/><path d="M18.2,101.4c-.1.6-.8,1.2-1.1,1.7,0-.3.2-.7.3-1,.1-.3.3-.7.8-.7t0,0Z" fill="#4b1428"/><path d="M19.3,101.4c-.1.5-.7.9-.9,1.4,0-.3,0-.6.2-.9,0-.2.3-.7.7-.5t0,0Z" fill="#4b1428"/><path d="M21.7,100.5c.2.9-.4,1.7-.9,2.5.2-.7.5-2.2.9-2.5h0Z" fill="#4b1428"/><path d="M22.2,101c.2.4-.2.7-.4,1.2-.1-.1,0-.5,0-.7,0-.2,0-.5.4-.5t0,0Z" fill="#4b1428"/><path d="M21.6,120.8c-.7,0-.9-.7-1.4-1.1-.5-.3-1.1-.9-.9-1.5.7.6.9,1.5,1.8,1.9.2.2.5.4.6.6t0,0Z" fill="#4b1428"/><path d="M25,119.4c-.4-.2-.7-.5-.8-.9-.2-.4-.7-.4-.8-.9.6,0,.6.6,1,.7.3.2.8.6.7,1h0Z" fill="#4b1428"/><path d="M22.8,120.8c-1.2,0-2-1-2.6-1.8.8.7,1.9,1.1,2.6,1.8h0Z" fill="#4b1428"/><path d="M25,119.9c-1.1-.3-1.4-1.4-2.3-2,.4,0,1,.7,1.3.9.4.3.9.7,1,1.1t0,0Z" fill="#4b1428"/><path d="M23.4,121c-.5,0-.5-.5-.9-.6-.3-.1-.7-.5-.6-.8.4.1.6.4.8.7.2.3.7.3.7.7,0,0,0,0,0,0t0,0Z" fill="#4b1428"/><path d="M24.7,120.3c-.5,0-.4-.5-.8-.6-.4-.1-.6-.4-.7-.7.5,0,.7.3.9.6.1.3.7.3.7.8,0,0,0,0,0,0t0,0Z" fill="#4b1428"/><path d="M25.4,118c-.5-.3-.6-.8-1-1.2-.6-.4-1-.5-1.6-.9.5-.1,1,.2,1.4.4,0,0,0,0,0,0,.3.1.3.3.4.4.3.4.9.7.9,1.3,0,0,0,0,0,0h0Z" fill="#4b1428"/><path d="M25.4,117.3c-.5-.3-.8-1.1-1.1-1.6.3,0,.5.5.8.7.2.2.5.6.3.9h0Z" fill="#4b1428"/><path d="M25.1,118.7c-.4-.3-.5-.9-.9-1.3.3,0,.5.3.7.5.2.1.4.5.2.8h0Z" fill="#4b1428"/><path d="M24.4,120.5c-1-.2-1.4-1-1.9-1.7.5.4,1.9,1.3,1.9,1.7t0,0Z" fill="#4b1428"/><path d="M23.7,120.7c-.5,0-.6-.4-.9-.8.2,0,.5.2.6.3.2,0,.5.3.3.5t0,0Z" fill="#4b1428"/><path d="M10.2,100.3c.7.4.8,1.1,1.3,1.6.4.5,1,1.3.7,1.9-.6-.8-.7-1.9-1.5-2.6-.2-.3-.5-.6-.5-.9t0,0Z" fill="#4b1428"/><path d="M7.5,104.1c.5.3.7.7.9,1.2.2.5.7.6.9,1.1-.6,0-.7-.7-1.1-1-.4-.3-.8-.8-.8-1.3h0Z" fill="#4b1428"/><path d="M8.9,100.4c1.1.7,1.6,2,2.1,3.1-.6-1-1.6-2-2.1-3.1t0,0Z" fill="#4b1428"/><path d="M7.6,103.4c1.1.6,1.6,2,2.5,2.7-.3,0-1.1-.9-1.4-1.2-.4-.4-1-1-1.1-1.5h0Z" fill="#4b1428"/><path d="M8.6,100.9c.5.2.5.7.8,1,.3.3.7.8.6,1.1-.4-.3-.6-.6-.7-1-.1-.4-.7-.5-.7-1.1,0,0,0,0,0,0t0,0Z" fill="#4b1428"/><path d="M8.1,102.9c.5.2.5.7.9.9.4.2.7.6.8,1-.5,0-.8-.5-.9-.9-.2-.4-.7-.5-.8-1,0,0,0,0,0,0t0,0Z" fill="#4b1428"/><path d="M7.2,105.6c.5.4.6,1.1,1.1,1.6.6.5,1.1.8,1.7,1.3-.5.1-1.1-.3-1.4-.7,0,0,0,0,0,0-.3-.2-.3-.4-.5-.6-.4-.5-.9-.9-1-1.6,0,0,0,0,0,0t0,0Z" fill="#4b1428"/><path d="M9.5,100c.7.3,1.1,1.5,1.2,2,0,0-.7-1-.7-1-.2-.3-.5-.7-.6-1.1h0Z" fill="#4b1428"/><path d="M7.4,104.8c.5.5.6,1.2,1,1.6-.3-.1-.5-.4-.8-.7-.2-.2-.5-.7-.3-1h0Z" fill="#4b1428"/><path d="M11.4,101.2c.7.3.9,1,1.1,1.6-.2-.1-.4-.6-.6-.8-.2-.2-.5-.5-.5-.9t0,0Z" fill="#4b1428"/><path d="M8.2,102.4c.7,0,1.1.8,1.4,1.4-.2,0-.5-.5-.8-.6-.3-.2-.6-.4-.7-.8h0Z" fill="#4b1428"/><path d="M8.4,101.7c.5.1.6.6,1,1.1-.2,0-.5-.3-.7-.4-.2-.1-.5-.4-.4-.7t0,0Z" fill="#4b1428"/><path d="M15.9,110.4c-.9.1-1.6-.5-2.4-.6-.8-.2-1.8-.6-2.2-1.2.8.2,1.6.6,2.3,1,.7.5,1.8.3,2.4.8h0Z" fill="#4b1428"/><path d="M16.4,110.3c-1.1-.1-1.8-1.1-2.7-1.7-.9-.6-1.7-1.4-2.2-2.3.9.6,1.6,1.4,2.3,2.2.7.8,1.9,1.1,2.5,1.8h0Z" fill="#4b1428"/><path d="M16.4,110.2c-.7-.4-.8-1.1-1.3-1.6-.4-.5-1-1.2-.9-1.9.5.5.8,1.1,1.1,1.8.2.6,1.1,1.1,1.1,1.7h0Z" fill="#4b1428"/><path d="M16.3,110.3c-1.4,0-2.5-1-3.6-1.7.9.3,1.9.9,2.8,1.2,0,0,.9.5.9.4,0,0,0,0,0,0t0,0Z" fill="#4b1428"/><path d="M16,110.1c-.7-.3-1.3-1.2-1.9-1.7.4,0,.7.5,1.1.7.3.2.8.6.8,1h0Z" fill="#4b1428"/><path d="M18.1,110c.5-.7,1.3-.9,1.8-1.5.5-.6,1-1.2,1.7-1.6-.2.7-.9,1.3-1.6,1.7-.7.4-1.1,1.3-2,1.4h0Z" fill="#4b1428"/><path d="M17.7,110c.3-.9,1.1-1.6,1.4-2.5.3-.9.5-1.8,1-2.6,0,1-.3,1.9-.8,2.7-.5.8-.6,2-1.6,2.4h0Z" fill="#4b1428"/><path d="M17.6,110c-.3-.7,0-1.3-.1-1.9-.2-.6-.3-1.3-.2-2,.4.6.4,1.3.4,1.9-.1.6.4,1.4,0,1.9t0,0Z" fill="#4b1428"/><path d="M18,109.9c.4-.9,1.3-1.6,2.1-2.2-.7.7-1.1,1.8-2.1,2.2h0Z" fill="#4b1428"/><path d="M17.8,109.8c0-.7.3-1.7.5-2.3,0,.8.2,1.8-.5,2.3t0,0Z" fill="#4b1428"/><path d="M19.4,111.4c.9,0,1.5.7,2.3.8.8.1,1.6.3,2.3.6-.7.2-1.7,0-2.4-.4-.7-.3-1.8-.3-2.2-1t0,0Z" fill="#4b1428"/><path d="M19,111.1c1.1,0,2,.3,3.1.1,1-.2,2.1-.3,3.1-.3-1,.4-2.1.5-3.1.5-1,0-2.3.3-3.1-.3h0Z" fill="#4b1428"/><path d="M19,111.1c.6-.5,1.4-.3,2-.7.6-.3,1.3-.6,2-.7-.5.5-1.2.8-1.9.9-.7,0-1.4.7-2,.5h0Z" fill="#4b1428"/><path d="M19,111.3c1.3.1,2.7.4,3.9.6-1.2,0-3,.3-3.9-.6t0,0Z" fill="#4b1428"/><path d="M19.3,111.2c.6-.3,1.8-.4,2.6-.5-.8.3-1.8.8-2.6.5h0Z" fill="#4b1428"/><path d="M18,112.8c.9.1,1.3.9,2,1.2.7.4,1.5.9,1.7,1.5-.7-.4-1.3-.8-1.8-1.4-.5-.6-1.6-.7-1.9-1.4t0,0Z" fill="#4b1428"/><path d="M17.6,112.8c.9.6,1.1,1.6,1.6,2.4.5.8.9,1.7.9,2.7-.5-.8-.8-1.7-1.1-2.6-.2-.9-1.2-1.6-1.4-2.5t0,0Z" fill="#4b1428"/><path d="M17.8,112.8c1.3.5,1.8,1.8,2.5,2.8-.6-.6-1.3-1.4-1.9-2,0,0-.6-.7-.6-.7,0,0,0,0,0,0t0,0Z" fill="#4b1428"/><path d="M17.8,113c.6.6.6,1.6.5,2.3-.1-.8-.7-1.6-.5-2.3h0Z" fill="#4b1428"/><path d="M18.3,110.6c.4,0,0,.4.2.5,0,0,.2.1.2.2,0,.1,0,.1,0,.3-.2.2-.2,0-.3.1,0,.1,0,.2-.2.3,0,0,0,.1-.2.1-.1,0-.2,0-.2,0,0,0-.2,0-.3,0-.1,0-.3,0-.4,0,0,0,0-.1-.2,0-.2,0-.2.2-.3,0-.1-.2-.2-.2-.1-.3,0-.1,0-.2,0-.4,0-.2-.2-.2-.2-.3s.1-.4.2-.3c.1,0,.1,0,.2-.2.1-.1.2-.4.3-.3,0,0,.2,0,.3,0,.1,0,.1-.2.3-.2.1,0,.4.1.4.2,0,0,.4,0,.4,0Z" fill="#fff"/><path d="M18.3,110.6c.4,0,0,.4.2.5,0,0,.2.1.2.2,0,.1,0,.1,0,.3-.2.2-.2,0-.3.1,0,.1,0,.2-.2.3,0,0,0,.1-.2.1-.1,0-.2,0-.2,0,0,0-.2,0-.3,0-.1,0-.3,0-.4,0,0,0,0-.1-.2,0-.2,0-.2.2-.3,0-.1-.2-.2-.2-.1-.3,0-.1,0-.2,0-.4,0-.2-.2-.2-.2-.3s.1-.4.2-.3c.1,0,.1,0,.2-.2.1-.1.2-.4.3-.3,0,0,.2,0,.3,0,.1,0,.1-.2.3-.2.1,0,.4.1.4.2,0,0,.4,0,.4,0Z" fill="none" stroke="#4b1428" stroke-miterlimit="10" stroke-width=".2"/><path d="M16.8,112c-.3,0,0-.3-.1-.4,0,0-.1,0-.2-.2,0,0,0-.1,0-.3.1-.2.1,0,.2-.1,0-.1,0-.2.1-.3,0,0,0-.1.2,0,0,0,.1,0,.2,0,0,0,.1,0,.2,0,0,0,.2,0,.3,0,0,0,0,.1.1,0,.1,0,.2-.1.3,0,0,.1.1.1,0,.2,0,0,0,.1,0,.3,0,.1.2.1.1.2,0,.1,0,.3-.2.3,0,0,0,0-.2.2,0,0-.1.3-.2.3,0,0-.1,0-.2,0,0,0,0,.1-.2.1,0,0-.3,0-.3-.1,0,0-.3,0-.3,0Z" fill="#fff"/><path d="M16.8,112c-.3,0,0-.3-.1-.4,0,0-.1,0-.2-.2,0,0,0-.1,0-.3.1-.2.1,0,.2-.1,0-.1,0-.2.1-.3,0,0,0-.1.2,0,0,0,.1,0,.2,0,0,0,.1,0,.2,0,0,0,.2,0,.3,0,0,0,0,.1.1,0,.1,0,.2-.1.3,0,0,.1.1.1,0,.2,0,0,0,.1,0,.3,0,.1.2.1.1.2,0,.1,0,.3-.2.3,0,0,0,0-.2.2,0,0-.1.3-.2.3,0,0-.1,0-.2,0,0,0,0,.1-.2.1,0,0-.3,0-.3-.1,0,0-.3,0-.3,0Z" fill="none" stroke="#4b1428" stroke-miterlimit="10" stroke-width=".1"/><path d="M18,111.1c.2,0,0,.2,0,.3,0,0,0,0,0,.1,0,0,0,0-.1.2-.1,0,0,0-.2,0,0,0,0,.1-.1.1,0,0,0,0-.1,0,0,0,0,0-.1,0,0,0-.1,0-.2,0,0,0-.2,0-.2,0,0,0,0,0,0,0,0,0-.2,0-.2,0,0,0,0-.1,0-.2,0,0,0,0,0-.2,0,0,0-.1,0-.2,0,0,.1-.2.2-.1,0,0,0,0,.2,0,0,0,.2-.2.2-.1,0,0,0,0,.1,0,0,0,.1,0,.2,0,0,0,.2.1.1.2,0,0,.2.1.2.1Z" fill="#fff"/><path d="M18,111.1c.2,0,0,.2,0,.3,0,0,0,0,0,.1,0,0,0,0-.1.2-.1,0,0,0-.2,0,0,0,0,.1-.1.1,0,0,0,0-.1,0,0,0,0,0-.1,0,0,0-.1,0-.2,0,0,0-.2,0-.2,0,0,0,0,0,0,0,0,0-.2,0-.2,0,0,0,0-.1,0-.2,0,0,0,0,0-.2,0,0,0-.1,0-.2,0,0,.1-.2.2-.1,0,0,0,0,.2,0,0,0,.2-.2.2-.1,0,0,0,0,.1,0,0,0,.1,0,.2,0,0,0,.2.1.1.2,0,0,.2.1.2.1Z" fill="none" stroke="#4b1428" stroke-miterlimit="10" stroke-width="0"/><path d="M118.7,91.5c-.1,0-.2,0-.3,0,0,0,0,0,0,0,0,0,0,.1-.2.1,0,.1,0,.2-.1.3,0,0,0,.1,0,.2,2.7,1.5,5.6,3.5,3.9,5.6-.3.4.2,1.5-.5,2-1.4,1-2.6,0-3.5-.4-2-1.1-1.8-4.1-.7-6.6,0-.2,0-.3-.1-.4,0,0-.2,0-.3,0-.1,0-.2.2-.3.2-.2.7-.3,1.5-.9,3-.5,1.1-.3,2.5-1.1,3.5-.9,1.1-3,2.2-4,1.1-.2-.3-.2-1.2-.4-1.5-.6-1.1-1-1.7-.7-2.8.3-1.1,1.1-2.1,2.3-2.7,1.1-.6,2.5-1,4.2-1.1.1,0,.2-.1.3-.2,0-.1,0-.3.1-.3,0,0,0,0,0,0,0,0,0,0,0,0,0-.1,0-.3,0-.4,0,0-.1-.1-.1-.2-1.8.5-6.8,2.7-6.8-1.1,0-.5-.6-1.2-.3-2.2.5-1.2,1.4-1.2,1.7-1.6,1.3-1.5,3,.4,5.7,4.2,0,0,.2.1.2.1,0,0,0,0,0,0,.1,0,.2-.1.3-.3-.5-.9-1-2.2-1.2-3.6-.2-1.4,0-3.4,1-3.9.4-.2,1.4.8,2.3,1,1.1,0,1.3.8,1.7,1.7.8,1.8.5,3.6-2.6,5.4-.1.1-.2.2-.2.3,0,0,0,0,0,.1,0,0,.2,0,.3,0,1.9-1,4.5-4.2,7.6,0,.5.5-.4.1,1.3,2.4,0,.9-3.4,2.2-8.9-1.6Z" fill="#fff"/><path d="M118.7,91.5c-.1,0-.2,0-.3,0,0,0,0,0,0,0,0,0,0,.1-.2.1,0,.1,0,.2-.1.3,0,0,0,.1,0,.2,2.7,1.5,5.6,3.5,3.9,5.6-.3.4.2,1.5-.5,2-1.4,1-2.6,0-3.5-.4-2-1.1-1.8-4.1-.7-6.6,0-.2,0-.3-.1-.4,0,0-.2,0-.3,0-.1,0-.2.2-.3.2-.2.7-.3,1.5-.9,3-.5,1.1-.3,2.5-1.1,3.5-.9,1.1-3,2.2-4,1.1-.2-.3-.2-1.2-.4-1.5-.6-1.1-1-1.7-.7-2.8.3-1.1,1.1-2.1,2.3-2.7,1.1-.6,2.5-1,4.2-1.1.1,0,.2-.1.3-.2,0-.1,0-.3.1-.3,0,0,0,0,0,0,0,0,0,0,0,0,0-.1,0-.3,0-.4,0,0-.1-.1-.1-.2-1.8.5-6.8,2.7-6.8-1.1,0-.5-.6-1.2-.3-2.2.5-1.2,1.4-1.2,1.7-1.6,1.3-1.5,3,.4,5.7,4.2,0,0,.2.1.2.1,0,0,0,0,0,0,.1,0,.2-.1.3-.3-.5-.9-1-2.2-1.2-3.6-.2-1.4,0-3.4,1-3.9.4-.2,1.4.8,2.3,1,1.1,0,1.3.8,1.7,1.7.8,1.8.5,3.6-2.6,5.4-.1.1-.2.2-.2.3,0,0,0,0,0,.1,0,0,.2,0,.3,0,1.9-1,4.5-4.2,7.6,0,.5.5-.4.1,1.3,2.4,0,.9-3.4,2.2-8.9-1.6Z" fill="none" stroke="#4b1428" stroke-miterlimit="10" stroke-width=".5"/><path d="M117.2,89.7c.3-.4.4.2.5.2.1,0,.2,0,.3,0,.1,0,.2,0,.2.3,0,.3-.1.2,0,.3,0,.2.2.2.2.4,0,.1,0,.2,0,.3,0,0-.2,0-.1.2,0,0,0,.2,0,.3,0,.1,0,.3-.2.4-.1,0-.1,0-.2.1,0,.2,0,.3-.2.3-.2,0-.2,0-.3,0,0-.1-.2,0-.3-.2-.1-.1-.3,0-.4,0-.1-.1-.3-.4-.2-.4,0,0,0-.2,0-.3,0-.2-.2-.4-.1-.5.1,0,.2-.1.2-.2,0-.1,0-.2,0-.4,0-.1.3-.2.4-.2,0,0,.3-.3.3-.3Z" fill="#fff"/><path d="M117.2,89.7c.3-.4.4.2.5.2.1,0,.2,0,.3,0,.1,0,.2,0,.2.3,0,.3-.1.2,0,.3,0,.2.2.2.2.4,0,.1,0,.2,0,.3,0,0-.2,0-.1.2,0,0,0,.2,0,.3,0,.1,0,.3-.2.4-.1,0-.1,0-.2.1,0,.2,0,.3-.2.3-.2,0-.2,0-.3,0,0-.1-.2,0-.3-.2-.1-.1-.3,0-.4,0-.1-.1-.3-.4-.2-.4,0,0,0-.2,0-.3,0-.2-.2-.4-.1-.5.1,0,.2-.1.2-.2,0-.1,0-.2,0-.4,0-.1.3-.2.4-.2,0,0,.3-.3.3-.3Z" fill="none" stroke="#4b1428" stroke-miterlimit="10" stroke-width=".2"/><path d="M117.5,89.6c-.4-.6-.2-1.3-.4-1.9-.1-.6-.2-1.5,0-2,.1.7.1,1.3.1,2,0,.7.4,1.3.2,1.9t0,0Z" fill="#4b1428"/><path d="M118,89.9c-.3-.8.1-1.6.2-2.4,0-.8.3-1.6.7-2.2,0,.8-.3,1.5-.5,2.3-.3.7,0,1.7-.3,2.4t0,0Z" fill="#4b1428"/><path d="M118.3,90.2c0-.6.5-.9.6-1.4.2-.5.4-1.1.9-1.2-.2.5-.4.9-.7,1.3-.3.4-.3,1.1-.8,1.3t0,0Z" fill="#4b1428"/><path d="M117.8,89.8c-.3-1,0-2.2.3-3.1-.2,1,0,2.1-.3,3.1h0Z" fill="#4b1428"/><path d="M117.5,89.9c-.3-.8-.1-1.8,0-2.5,0,.8.3,1.8,0,2.5h0Z" fill="#4b1428"/><path d="M117.2,89.5c-.5-.7-.6-1.8-.5-2.6,0,.9.5,1.7.5,2.6h0Z" fill="#4b1428"/><path d="M118.2,89.8c0-.7.4-1.4.7-1.8,0,0-.3.9-.3.9,0,.3-.2.7-.4.9t0,0Z" fill="#4b1428"/><path d="M118.4,90.2c.2-.5.8-1,1.2-1.4-.2.4-.7,1.4-1.2,1.4t0,0Z" fill="#4b1428"/><path d="M120.5,84c.3.5,0,1,.1,1.5,0,.5,0,1.1-.3,1.3,0-.5,0-.9.2-1.4.1-.4-.2-1,0-1.4h0Z" fill="#4b1428"/><path d="M118.3,82.7c0,.4-.2.7-.4.9-.2.3-.1.7-.4.9-.2-.5.2-.7.3-1,0-.3.2-.8.5-.8h0Z" fill="#4b1428"/><path d="M120,83.3c.2.9-.1,1.8-.4,2.5.2-.8.2-1.8.4-2.5h0Z" fill="#4b1428"/><path d="M118.6,82.8c0,.9-.6,1.6-.8,2.4,0-.3.2-1,.3-1.3.1-.4.3-.9.5-1.1t0,0Z" fill="#4b1428"/><path d="M119.8,83.4c.1.4-.2.5-.2.8,0,.3-.1.7-.4.7,0-.3,0-.6.2-.8.2-.2,0-.6.3-.8,0,0,0,0,0,0t0,0Z" fill="#4b1428"/><path d="M118.9,83.2c0,.4-.2.5-.2.8,0,.3-.1.6-.3.8-.1-.4,0-.6.2-.9.2-.2,0-.6.3-.8,0,0,0,0,0,0t0,0Z" fill="#4b1428"/><path d="M117.7,82.4c0,.5-.4.7-.6,1.1-.1.6-.2,1-.3,1.6-.2-.3-.1-.9,0-1.2,0,0,0,0,0,0,0-.3.1-.3.2-.5.2-.4.3-1,.7-1.1h0Z" fill="#4b1428"/><path d="M120.3,83.7c.2.5,0,1.2-.2,1.6,0-.4,0-1.4.2-1.6h0Z" fill="#4b1428"/><path d="M117.5,82.3c-.1.5-.6,1-.8,1.4,0-.3.2-.6.3-.8,0-.2.3-.6.5-.6h0Z" fill="#4b1428"/><path d="M118.1,82.6c-.1.5-.5.7-.6,1.1,0-.3,0-.5.2-.7,0-.2.3-.5.5-.4t0,0Z" fill="#4b1428"/><path d="M120.8,84.4c.3.3.3,1.1.2,1.4,0-.5-.3-1-.2-1.4t0,0Z" fill="#4b1428"/><path d="M119.2,83.2c.2.4-.1,1.1-.3,1.3.2-.4,0-1,.3-1.3t0,0Z" fill="#4b1428"/><path d="M119.6,83.3c0,.4-.2.7-.3,1,0-.1,0-.4,0-.6,0-.2,0-.4.3-.4t0,0Z" fill="#4b1428"/><path d="M111.4,100.2c.5-.5,1.1-.5,1.5-.9.5-.4.9-.7,1.4-1-.1.6-.8,1-1.3,1.2-.5.2-1.1.9-1.6.7h0Z" fill="#4b1428"/><path d="M109.8,97.5c.2-.8.9-1,1.2-1.6.1-.2.3-.4.6-.3-.2.5-.6.5-.9,1-.2.4-.5.9-.9,1h0Z" fill="#4b1428"/><path d="M110.6,99.8c.8-.8,1.7-1.3,2.5-2-.7.7-1.6,2-2.5,2h0Z" fill="#4b1428"/><path d="M109.9,98c.4-.8,1.1-1.3,1.7-1.8.2-.1.4-.4.6-.4-.8.5-1.5,1.9-2.3,2.2h0Z" fill="#4b1428"/><path d="M110.6,99.5c.1-.5.6-.5.8-.8.2-.3.5-.7.8-.8,0,.4-.4.7-.7.9-.3.2-.4.7-.9.7,0,0,0,0,0,0t0,0Z" fill="#4b1428"/><path d="M110.3,98.3c.1-.5.5-.5.7-.9.2-.3.5-.7.8-.7-.2.4-.4.6-.8.8-.3.2-.4.7-.8.8,0,0,0,0,0,0t0,0Z" fill="#4b1428"/><path d="M109.5,96.7c.2-.7.7-1,1-1.4.1-.2.2-.3.4-.5,0,0,0,0,0,0,.3-.3.8-.6,1.1-.4-.5.4-.9.6-1.4,1-.4.3-.6,1.1-1.1,1.3t0,0Z" fill="#4b1428"/><path d="M111.1,100c.4-.5,1.2-.9,1.7-1.2-.1.3-.5.5-.7.8-.2.2-.6.6-.9.4t0,0Z" fill="#4b1428"/><path d="M109.3,96.4c0-.7.9-1.4,1.3-1.7-.3.4-.9,1.5-1.3,1.7h0Z" fill="#4b1428"/><path d="M109.7,97.2c0-.6.7-1.2,1.1-1.4-.4.4-.6,1.1-1.1,1.4t0,0Z" fill="#4b1428"/><path d="M110.4,98.7c.2-.4.9-.8,1.3-1.1-.3.4-.8,1.2-1.3,1.1t0,0Z" fill="#4b1428"/><path d="M110.5,99.2c0-.3.2-.5.4-.6.2-.1.4-.3.6-.3,0,0-.4.5-.4.5-.1.2-.3.4-.5.4h0Z" fill="#4b1428"/><path d="M118.7,99.6c-.6-.2-.5-.8-.8-1.2-.3-.4-.5-1-.2-1.5.2.5.3.9.4,1.4,0,.5.7.8.6,1.3h0Z" fill="#4b1428"/><path d="M121.8,99.1c-.3-.2-.4-.5-.4-.9,0-.3-.4-.5-.4-.9.5,0,.3.6.6.8.2.2.4.6.3.9t0,0Z" fill="#4b1428"/><path d="M119.7,99.9c-.9-.3-1.2-1.3-1.5-2.1.4.8,1.2,1.4,1.5,2.1t0,0Z" fill="#4b1428"/><path d="M121.6,99.5c-.8-.5-.8-1.5-1.3-2.1.3,0,.6.8.8,1,.2.3.5.7.5,1.1t0,0Z" fill="#4b1428"/><path d="M120.1,100.2c-.4,0-.3-.5-.5-.7-.2-.2-.4-.5-.3-.8.3.2.4.4.4.7,0,.3.5.4.4.8,0,0,0,0,0,0t0,0Z" fill="#4b1428"/><path d="M121.3,99.8c-.4-.1-.2-.5-.5-.7-.2-.2-.4-.5-.4-.8.4,0,.5.4.5.7,0,.3.5.4.3.8,0,0,0,0,0,0h0Z" fill="#4b1428"/><path d="M122.1,97.5c-.3-.3-.2-.8-.4-1.2-.4-.4-.6-.7-.9-1.1.4,0,.7.4.9.7,0,0,0,0,0,0,.2.2.1.3.2.4.1.4.6.8.3,1.2h0Z" fill="#4b1428"/><path d="M122.3,97.4c-.3-.4-.3-1-.4-1.5.2.1.3.5.4.7.1.2.3.6,0,.8h0Z" fill="#4b1428"/><path d="M121.8,98c-.3-.4-.2-.8-.4-1.2.2.1.3.3.4.5.1.2.2.5,0,.7h0Z" fill="#4b1428"/><path d="M121,100c-.7-.3-.9-1.2-1-1.9.3.7,1,1.2,1,1.9t0,0Z" fill="#4b1428"/><path d="M120.4,100c-.4,0-.4-.6-.5-.9.2,0,.3.2.4.3.1,0,.3.3.1.5h0Z" fill="#4b1428"/><path d="M111.2,85.7c.5-.2.8.3,1.3.3.4,0,1,.3,1.1.8-.4-.2-.8-.4-1.1-.7-.3-.3-.9,0-1.2-.5h0Z" fill="#4b1428"/><path d="M109.4,88.3c.4,0,.6.1.9.4.3.3.6,0,.9.4-.4.4-.6-.2-1-.2-.3,0-.7-.2-.8-.6t0,0Z" fill="#4b1428"/><path d="M110.4,86.2c.8-.5,1.6,0,2.3.4-.7-.2-1.6-.1-2.3-.4t0,0Z" fill="#4b1428"/><path d="M109.2,87.8c.8-.1,1.5.6,2.3.8-.3.2-.9-.1-1.2-.2-.4,0-.9-.2-1.1-.6t0,0Z" fill="#4b1428"/><path d="M109.9,86.2c.3-.2.5.2.8.2.3,0,.6,0,.7.4-.3,0-.5,0-.7-.3-.2-.2-.6,0-.7-.3,0,0,0,0,0,0t0,0Z" fill="#4b1428"/><path d="M109.3,87.4c.4-.2.5.3.8.2.3,0,.6,0,.7.3-.3.2-.6,0-.8-.2-.2-.2-.6,0-.7-.4,0,0,0,0,0,0t0,0Z" fill="#4b1428"/><path d="M109.6,89.7c.5,0,.7.5,1.1.6.5,0,.9,0,1.4,0-.2.3-.8.4-1.1.3,0,0,0,0,0,0-.3,0-.3-.1-.5-.2-.4-.2-.9-.2-1.1-.7h0Z" fill="#4b1428"/><path d="M109.8,90.4c.5,0,1,.6,1.4.8-.2,0-.5-.1-.8-.2-.2,0-.6-.2-.6-.6h0Z" fill="#4b1428"/><path d="M109.5,89c.4,0,.7.6,1.1.7-.2.1-.4,0-.7,0-.2,0-.5-.3-.4-.6h0Z" fill="#4b1428"/><path d="M109.4,87c.7-.2,1.4.3,1.9.7-.6-.3-1.4-.2-1.9-.7t0,0Z" fill="#4b1428"/><path d="M109.7,86.6c.3-.2.6.2.9.3-.1.1-.3,0-.5,0-.2,0-.4,0-.4-.3h0Z" fill="#4b1428"/><path d="M126.9,93.7c-.5.2-1-.1-1.5-.1-.5,0-1.2-.2-1.4-.6.5.1.9.2,1.4.4.5.2,1.1,0,1.5.3h0Z" fill="#4b1428"/><path d="M126,90.7c-.4,0-.7,0-1-.2-.3-.2-.6,0-1-.2.3-.3.7.1,1,0,.3,0,.8,0,1,.3t0,0Z" fill="#4b1428"/><path d="M127.5,93c-.9.2-1.9-.1-2.6-.5.8.2,1.8.2,2.6.5h0Z" fill="#4b1428"/><path d="M126.3,91.1c-.8.2-1.7-.3-2.5-.3.2-.1.9,0,1.3,0,.4,0,.9,0,1.3.3t0,0Z" fill="#4b1428"/><path d="M127.3,92.7c-.3.2-.6,0-.9,0-.3,0-.7,0-.9-.3.3,0,.6,0,.9.1.3.1.6,0,.9.2,0,0,0,0,0,0h0Z" fill="#4b1428"/><path d="M126.4,91.5c-.3.2-.6-.1-.9,0-.3,0-.6,0-.9-.1.3-.2.6-.1.9,0,.3.1.6,0,.9.2,0,0,0,0,0,0h0Z" fill="#4b1428"/><path d="M125.4,89.8c-.5,0-.8-.3-1.2-.4-.5,0-.9,0-1.4,0,.2-.3.6-.3,1-.2,0,0,0,0,0,0,.2,0,.3,0,.5.1.4.1.9,0,1.2.5h0Z" fill="#4b1428"/><path d="M127.4,93.5c-.5.2-1.3-.1-1.7-.3.4,0,1.4.1,1.7.3t0,0Z" fill="#4b1428"/><path d="M125.7,90.3c-.4,0-.8-.3-1.3-.4.2,0,.4,0,.7,0,.2,0,.6.1.6.4t0,0Z" fill="#4b1428"/><path d="M125.9,93.9c-.4.2-1.2,0-1.4-.3.5.2,1,0,1.4.3t0,0Z" fill="#4b1428"/><path d="M126.6,91.8c-.3.3-1.1.1-1.4,0,.5,0,.9-.2,1.4,0t0,0Z" fill="#4b1428"/><path d="M126.9,92.3c-.3.2-.7,0-1.1,0,0,0,.4,0,.5-.1.2,0,.4,0,.5.1t0,0Z" fill="#4b1428"/><path d="M118.7,91c.4-.5,1.1-.5,1.6-.7.5-.2,1.2-.5,1.7-.3-.5.3-1.1.4-1.6.5-.6,0-1.1.6-1.7.6t0,0Z" fill="#4b1428"/><path d="M118.5,91.3c.7-.4,1.5-.2,2.2-.2.7,0,1.6,0,2.3.3-.8,0-1.5,0-2.3-.2-.7-.2-1.5.2-2.2,0t0,0Z" fill="#4b1428"/><path d="M118.6,91.3c.6,0,1,.3,1.5.4.5,0,1.1.3,1.4.7-.5,0-1-.2-1.5-.5-.4-.3-1.1-.1-1.4-.6t0,0Z" fill="#4b1428"/><path d="M118.6,91.2c.8-.7,1.9-.6,2.8-.6-.9.1-1.9.6-2.8.6h0Z" fill="#4b1428"/><path d="M118.8,91.2c.5-.1,1.3.1,1.8.1-.4.1-1.5.3-1.8-.1t0,0Z" fill="#4b1428"/><path d="M117.7,92.4c0,.7-.3,1.3-.3,1.9,0,.7,0,1.3-.2,2-.3-.5-.1-1.4,0-2,.2-.6,0-1.5.5-1.9h0Z" fill="#4b1428"/><path d="M117.9,92.1c.3.8.1,1.6.5,2.3.3.7.7,1.4.9,2.2-.6-.5-.9-1.3-1-2.1-.1-.8-.7-1.6-.3-2.4h0Z" fill="#4b1428"/><path d="M117.9,92.1c.5.3.6.9,1.1,1.2.4.3.9.6,1.1,1.1-.5-.1-.9-.5-1.2-1-.3-.4-.9-.7-.9-1.3t0,0Z" fill="#4b1428"/><path d="M117.8,92.3c.2.8,0,1.7-.1,2.5,0-.8-.3-1.8.1-2.5t0,0Z" fill="#4b1428"/><path d="M118,92.3c.4.4.6,1.2.9,1.7-.4-.3-1.1-1.2-.9-1.7h0Z" fill="#4b1428"/><path d="M116.2,92c-.6.4-1.2.3-1.8.6-.6.3-1.1.6-1.8.8.4-.5,1.2-.8,1.7-1,.6-.1,1.3-.7,1.8-.4h0Z" fill="#4b1428"/><path d="M116.6,92c-.6.6-1.4.8-2,1.5-.6.7-1.2,1.4-1.9,1.9.4-.9,1.1-1.5,1.8-2,.7-.5,1.3-1.4,2-1.4t0,0Z" fill="#4b1428"/><path d="M116.6,92c-.1.6-.6.9-.8,1.5-.2.6-.5,1.1-.9,1.6,0-.6.4-1.2.7-1.7.4-.4.5-1.2,1-1.4t0,0Z" fill="#4b1428"/><path d="M116.6,91.9c-.8.5-1.8,1.1-2.7,1.6.8-.6,1.7-1.7,2.7-1.6h0Z" fill="#4b1428"/><path d="M116.5,92.1c-.2.6-.9,1.1-1.3,1.7.2-.5.8-1.6,1.3-1.7t0,0Z" fill="#4b1428"/><path d="M116.5,90.4c-.6.3-1.2,0-1.8,0-.6,0-1.3,0-1.7-.4.6,0,1.2,0,1.7.2.6.2,1.3-.2,1.8.1h0Z" fill="#4b1428"/><path d="M116.7,90.2c-.8,0-1.3-.6-2-1-.6-.4-1.3-.9-1.6-1.7.6.4,1.1,1,1.7,1.5.5.6,1.4.7,1.9,1.2h0Z" fill="#4b1428"/><path d="M116.6,90.3c-1,.2-1.9-.4-2.7-.9.8.4,1.9.5,2.7.9t0,0Z" fill="#4b1428"/><path d="M116.5,90.1c-.6-.2-1-.9-1.3-1.5,0,0,.7.7.7.7.2.2.5.4.6.8t0,0Z" fill="#4b1428"/><path d="M117.3,92c-.3.2-.2-.2-.3-.3,0,0-.2,0-.2,0,0,0-.1,0,0-.3,0-.2.1,0,0-.2,0-.1,0-.2,0-.3,0-.1,0-.1,0-.2,0,0,.1,0,.1-.1,0,0,0-.1.1-.2,0,0,.1-.2.2-.2,0,0,0,0,.1,0,0-.1,0-.2.2-.2.1,0,.2,0,.2.2,0,.1.1.1.2.2,0,.1.2,0,.3.1,0,.1.1.3,0,.3,0,0,0,.1,0,.2,0,.1,0,.4,0,.4,0,0-.1,0-.2.1,0,0,0,.2,0,.3,0,0-.3.1-.3,0,0,0-.3.1-.3.1Z" fill="#fff"/><path d="M117.3,92c-.3.2-.2-.2-.3-.3,0,0-.2,0-.2,0,0,0-.1,0,0-.3,0-.2.1,0,0-.2,0-.1,0-.2,0-.3,0-.1,0-.1,0-.2,0,0,.1,0,.1-.1,0,0,0-.1.1-.2,0,0,.1-.2.2-.2,0,0,0,0,.1,0,0-.1,0-.2.2-.2.1,0,.2,0,.2.2,0,.1.1.1.2.2,0,.1.2,0,.3.1,0,.1.1.3,0,.3,0,0,0,.1,0,.2,0,.1,0,.4,0,.4,0,0-.1,0-.2.1,0,0,0,.2,0,.3,0,0-.3.1-.3,0,0,0-.3.1-.3.1Z" fill="none" stroke="#4b1428" stroke-miterlimit="10" stroke-width=".1"/><path d="M117.5,90.4c.2-.1.2.2.3.2,0,0,.1,0,.2,0,0,0,0,0,0,.2,0,.2,0,0,0,.2,0,0,0,.1,0,.2,0,0,0,.1,0,.1,0,0,0,0,0,0,0,0,0,.1,0,.2,0,0,0,.2-.2.2,0,0,0,0-.1,0,0,.1,0,.2-.1.1-.1,0-.1,0-.2-.1,0,0,0,0-.1-.2,0,0-.1,0-.2,0,0,0,0-.2,0-.3,0,0,0,0,0-.2,0-.1,0-.3,0-.3,0,0,0,0,.1-.1,0,0,0-.1,0-.2,0,0,.2,0,.2,0,0,0,.2-.1.2-.1Z" fill="#fff"/><path d="M117.5,90.4c.2-.1.2.2.3.2,0,0,.1,0,.2,0,0,0,0,0,0,.2,0,.2,0,0,0,.2,0,0,0,.1,0,.2,0,0,0,.1,0,.1,0,0,0,0,0,0,0,0,0,.1,0,.2,0,0,0,.2-.2.2,0,0,0,0-.1,0,0,.1,0,.2-.1.1-.1,0-.1,0-.2-.1,0,0,0,0-.1-.2,0,0-.1,0-.2,0,0,0,0-.2,0-.3,0,0,0,0,0-.2,0-.1,0-.3,0-.3,0,0,0,0,.1-.1,0,0,0-.1,0-.2,0,0,.2,0,.2,0,0,0,.2-.1.2-.1Z" fill="none" stroke="#4b1428" stroke-miterlimit="10" stroke-width="0"/><path d="M117.2,91.5c-.2,0,0-.2-.1-.2,0,0,0,0-.1,0,0,0,0,0,0-.2,0-.1,0,0,0,0,0,0,0-.1,0-.2,0,0,0,0,0,0,0,0,0,0,0,0,0,0,0,0,.1,0,0,0,0,0,.1,0,0,0,0,0,0,0,0,0,0-.1.1,0,0,0,0,0,0,.1,0,0,0,0,0,.2,0,0,0,0,.1.1,0,0,0,.2,0,.2,0,0,0,0,0,.1,0,0,0,.2,0,.2,0,0,0,0-.1,0,0,0,0,0,0,.1,0,0-.1,0-.2,0,0,0-.2,0-.2,0Z" fill="#fff"/><path d="M117.2,91.5c-.2,0,0-.2-.1-.2,0,0,0,0-.1,0,0,0,0,0,0-.2,0-.1,0,0,0,0,0,0,0-.1,0-.2,0,0,0,0,0,0,0,0,0,0,0,0,0,0,0,0,.1,0,0,0,0,0,.1,0,0,0,0,0,0,0,0,0,0-.1.1,0,0,0,0,0,0,.1,0,0,0,0,0,.2,0,0,0,0,.1.1,0,0,0,.2,0,.2,0,0,0,0,0,.1,0,0,0,.2,0,.2,0,0,0,0-.1,0,0,0,0,0,0,.1,0,0-.1,0-.2,0,0,0-.2,0-.2,0Z" fill="none" stroke="#4b1428" stroke-miterlimit="10" stroke-width="0"/><path d="M11.8,66.6c0,0-.1,0-.2,0,0,0,0,0,0,0,0,0,0,.1-.1.1,0,.1,0,.2,0,.3,0,0,0,.1,0,.2,2.1,1.5,4.1,4.4,2.2,6.4-.4.4-.4,1.7-1,2-1.4.6-1.8-.7-2.4-1.4-1.1-1.5-.4-4.1.5-6.6,0-.2,0-.3,0-.4,0,0-.2,0-.2,0,0,0-.2.1-.2.2-.2.6-.3,1.5-1,2.8-.5.9-.7,2.3-1.5,3-.9.8-2.8,1.2-3.3.1-.1-.3,0-1,0-1.2-.3-1-.5-1.5-.2-2.3.4-.8,1-1.5,2-2,.9-.4,2-.8,3.4-.8,0,0,.2-.1.2-.2,0-.1,0-.2.1-.3,0,0,0,0,0,0,0,0,0,0,0,0,0-.1,0-.3,0-.4,0,0,0-.1-.1-.2-1.5.6-5.3,2.1-5.5-.8,0-.4-.5-.9-.4-1.7.3-.9,1-1,1.2-1.4.7-1.2,2.5-.4,5,3.2,0,0,.1,0,.2.1,0,0,0,0,0,0,.1,0,.2-.1.2-.3-.4-.8-1-2.1-1.4-3.3-.4-1.2-.7-3-.3-3.8.2-.4,1.3.3,2,.3.8-.2,1.2.4,1.8,1.4,1.1,1.7,1.3,4.1-1.1,6,0,.1-.1.2-.1.3,0,0,0,0,0,.1,0,0,.2,0,.3,0,1.5-.8,3.2-5.3,6.1-.1.4.8-.2,0,1,3.3-.2,1.5-2.8,1.7-7-2.5Z" fill="#fff"/><path d="M11.8,66.6c0,0-.1,0-.2,0,0,0,0,0,0,0,0,0,0,.1-.1.1,0,.1,0,.2,0,.3,0,0,0,.1,0,.2,2.1,1.5,4.1,4.4,2.2,6.4-.4.4-.4,1.7-1,2-1.4.6-1.8-.7-2.4-1.4-1.1-1.5-.4-4.1.5-6.6,0-.2,0-.3,0-.4,0,0-.2,0-.2,0,0,0-.2.1-.2.2-.2.6-.3,1.5-1,2.8-.5.9-.7,2.3-1.5,3-.9.8-2.8,1.2-3.3.1-.1-.3,0-1,0-1.2-.3-1-.5-1.5-.2-2.3.4-.8,1-1.5,2-2,.9-.4,2-.8,3.4-.8,0,0,.2-.1.2-.2,0-.1,0-.2.1-.3,0,0,0,0,0,0,0,0,0,0,0,0,0-.1,0-.3,0-.4,0,0,0-.1-.1-.2-1.5.6-5.3,2.1-5.5-.8,0-.4-.5-.9-.4-1.7.3-.9,1-1,1.2-1.4.7-1.2,2.5-.4,5,3.2,0,0,.1,0,.2.1,0,0,0,0,0,0,.1,0,.2-.1.2-.3-.4-.8-1-2.1-1.4-3.3-.4-1.2-.7-3-.3-3.8.2-.4,1.3.3,2,.3.8-.2,1.2.4,1.8,1.4,1.1,1.7,1.3,4.1-1.1,6,0,.1-.1.2-.1.3,0,0,0,0,0,.1,0,0,.2,0,.3,0,1.5-.8,3.2-5.3,6.1-.1.4.8-.2,0,1,3.3-.2,1.5-2.8,1.7-7-2.5Z" fill="none" stroke="#4b1428" stroke-miterlimit="10" stroke-width=".4"/><path d="M10.6,64.8c.2-.4.3.2.4.2.1,0,.1,0,.2,0,0,0,.1,0,.2.3,0,.3,0,.2,0,.3,0,.2.1.2.2.4,0,.1,0,.2,0,.3,0,0-.1,0,0,.2,0,0,0,.2,0,.3,0,.1,0,.3-.2.4,0,0-.1,0-.1.1,0,.2,0,.3-.2.3-.2,0-.2,0-.3-.1,0-.1-.1,0-.3-.2-.1-.1-.2,0-.3,0,0-.1-.2-.3-.1-.4,0,0,0-.1,0-.3,0-.2-.2-.4,0-.5,0,0,.1,0,.1-.2,0-.1,0-.2,0-.3,0-.1.2-.2.3-.2,0,0,.2-.3.2-.3Z" fill="#fff"/><path d="M10.6,64.8c.2-.4.3.2.4.2.1,0,.1,0,.2,0,0,0,.1,0,.2.3,0,.3,0,.2,0,.3,0,.2.1.2.2.4,0,.1,0,.2,0,.3,0,0-.1,0,0,.2,0,0,0,.2,0,.3,0,.1,0,.3-.2.4,0,0-.1,0-.1.1,0,.2,0,.3-.2.3-.2,0-.2,0-.3-.1,0-.1-.1,0-.3-.2-.1-.1-.2,0-.3,0,0-.1-.2-.3-.1-.4,0,0,0-.1,0-.3,0-.2-.2-.4,0-.5,0,0,.1,0,.1-.2,0-.1,0-.2,0-.3,0-.1.2-.2.3-.2,0,0,.2-.3.2-.3Z" fill="none" stroke="#4b1428" stroke-miterlimit="10" stroke-width=".1"/><path d="M10.8,64.7c-.3-.5-.3-1.2-.5-1.8-.2-.6-.4-1.4-.3-1.9.4.9.3,1.9.7,2.8,0,.3.2.7.1,1h0Z" fill="#4b1428"/><path d="M11.2,64.9c-.3-.8,0-1.6-.1-2.4,0-.8,0-1.6,0-2.3.1.8.1,1.6,0,2.3-.1.7.2,1.7,0,2.4t0,0Z" fill="#4b1428"/><path d="M11.4,65.2c0-.6.3-1,.4-1.5,0-.5.2-1.1.5-1.3,0,.5-.2,1-.4,1.4-.2.4-.2,1.2-.5,1.4h0Z" fill="#4b1428"/><path d="M11,64.8c-.3-1-.1-2.1-.2-3.1.1.9.3,2.1.2,3.1t0,0Z" fill="#4b1428"/><path d="M10.8,64.9c-.2-.8-.3-1.7-.3-2.5.2.8.5,1.7.3,2.5t0,0Z" fill="#4b1428"/><path d="M10.6,64.6c-.5-.6-.6-1.6-.7-2.4.2.8.6,1.6.7,2.4t0,0Z" fill="#4b1428"/><path d="M11.4,64.8c0-.7.2-1.4.4-1.9,0,.4-.1,1.7-.4,1.9h0Z" fill="#4b1428"/><path d="M11.5,65.2c.1-.5.6-1,.8-1.5,0,.5-.4,1.4-.8,1.5t0,0Z" fill="#4b1428"/><path d="M12.1,58.5c.4.5.3,1,.5,1.5.2.5.3,1.2,0,1.5,0-.5-.2-1-.2-1.5,0-.5-.4-1-.4-1.5t0,0Z" fill="#4b1428"/><path d="M10,57.8c0,.4,0,.7,0,1,0,.3.1.7,0,1-.3-.4,0-.7,0-1,0-.3,0-.8,0-.9h0Z" fill="#4b1428"/><path d="M11.4,57.9c.5.9.5,1.9.4,2.7,0-.9-.3-1.9-.4-2.7t0,0Z" fill="#4b1428"/><path d="M10.3,57.8c.3.9,0,1.7.1,2.5-.1-.3,0-1-.1-1.3,0-.4,0-.9,0-1.2h0Z" fill="#4b1428"/><path d="M11.3,58c.2.4,0,.6.2.9,0,.3.1.7,0,.8,0-.3-.1-.6,0-.9,0-.3-.2-.6,0-.9,0,0,0,0,0,0h0Z" fill="#4b1428"/><path d="M10.6,58.1c.2.4,0,.5,0,.9,0,.3,0,.6,0,.9-.2-.3-.2-.6,0-.9,0-.3-.2-.6,0-.8,0,0,0,0,0,0h0Z" fill="#4b1428"/><path d="M9.5,57.7c.1.5,0,.8,0,1.2,0,.6.2.9.2,1.5-.1,0-.2-.4-.2-.6,0-.4,0-.7,0-1,0-.4,0-1,.2-1.2t0,0Z" fill="#4b1428"/><path d="M11.8,58.2c.4.5.4,1.3.3,1.7,0-.5-.4-1.4-.3-1.7t0,0Z" fill="#4b1428"/><path d="M9.3,57.6c0,.5,0,1-.2,1.5,0-.4-.1-1.4.2-1.5h0Z" fill="#4b1428"/><path d="M9.8,57.8c0,.5-.1.8-.1,1.2-.1-.3-.2-1.3.1-1.2t0,0Z" fill="#4b1428"/><path d="M12.4,58.9c.4.3.5,1,.5,1.4-.1-.3-.6-1.3-.5-1.4t0,0Z" fill="#4b1428"/><path d="M10.9,58c.3.5.2,1,.2,1.4,0-.3-.3-1.3-.2-1.4t0,0Z" fill="#4b1428"/><path d="M11.1,58c.2.3,0,.7,0,1-.1-.2-.2-.6-.2-.8,0,0,0-.2.1-.2h0Z" fill="#4b1428"/><path d="M5,73.4c.5-.3.9-.1,1.4-.4.4-.3.9-.4,1.3-.6-.2.5-.9.7-1.3.8-.4,0-1,.5-1.4.3h0Z" fill="#4b1428"/><path d="M4.3,71.1c.2-.4.5-.6.8-.8.3-.1.5-.7.9-.5-.2.4-.6.4-.8.7-.2.3-.6.6-.8.6t0,0Z" fill="#4b1428"/><path d="M4.5,73c.8-.4,1.7-.8,2.3-1.1-.7.5-1.6,1.3-2.3,1.1h0Z" fill="#4b1428"/><path d="M4.3,71.4c.3-.3.7-.6,1-.8.3-.2.8-.6,1.1-.6-.7.4-1.4,1.4-2.1,1.5t0,0Z" fill="#4b1428"/><path d="M4.6,72.7c.2-.4.5-.3.8-.5.2-.2.5-.4.8-.5-.2.3-.4.5-.7.6-.3,0-.5.5-.8.4,0,0,0,0,0,0h0Z" fill="#4b1428"/><path d="M4.6,71.7c.2-.4.5-.3.7-.6.2-.2.5-.5.8-.4-.2.3-.4.5-.7.5-.3,0-.4.5-.8.5,0,0,0,0,0,0t0,0Z" fill="#4b1428"/><path d="M4.1,70.4c.2-.5.6-.7,1-1,.2-.2.5-.5.8-.6.1,0,.4-.1.5,0-.4.3-.8.4-1.2.7-.3.2-.6.8-1,.9h0Z" fill="#4b1428"/><path d="M4.8,73.2c.4-.3,1.1-.5,1.5-.7-.3.3-1.3.9-1.5.7t0,0Z" fill="#4b1428"/><path d="M4.1,70.2c.2-.6.8-1,1.2-1.2-.3.3-.8,1.1-1.2,1.2t0,0Z" fill="#4b1428"/><path d="M4.3,70.8c0-.5.7-.9,1-1-.4.3-.6.8-1,1t0,0Z" fill="#4b1428"/><path d="M4.5,72.1c.4-.3.8-.5,1.2-.7-.3.3-.9.9-1.2.7h0Z" fill="#4b1428"/><path d="M4.5,72.5c.1-.3.7-.5.9-.6-.2.1-.7.7-.9.6h0Z" fill="#4b1428"/><path d="M10.6,74.7c-.3-.3-.1-.9-.2-1.4,0-.4-.1-1.1.2-1.5,0,.5,0,.9,0,1.5,0,.5.3.9,0,1.4h0Z" fill="#4b1428"/><path d="M12.9,75c-.1-.3-.1-.7,0-1.1,0-.4-.2-.7,0-1.1.4.2,0,.7.2,1,0,.3.1.8-.1,1.1t0,0Z" fill="#4b1428"/><path d="M11.2,75.2c-.6-.5-.5-1.6-.5-2.4.1.8.5,1.6.5,2.4t0,0Z" fill="#4b1428"/><path d="M12.6,75.4c-.3-.7,0-1.8-.3-2.6.2.2.2.9.3,1.2,0,.4.1.9,0,1.3h0Z" fill="#4b1428"/><path d="M11.4,75.6c-.3-.2,0-.6-.1-.8-.1-.2-.1-.7,0-.9.1.3.2.5,0,.9,0,.3.2.5,0,.9,0,0,0,0,0,0t0,0Z" fill="#4b1428"/><path d="M12.3,75.6c-.2-.2,0-.6,0-.9-.1-.3-.1-.6,0-.9.2.2.2.5.2.9,0,.3.2.5,0,.9,0,0,0,0,0,0t0,0Z" fill="#4b1428"/><path d="M13.7,73.4c-.1-.5,0-.9,0-1.4-.2-.5-.3-.9-.5-1.4.1,0,.3.2.4.3.2.3.2.7.2,1,0,.5.2,1,0,1.4t0,0Z" fill="#4b1428"/><path d="M13.9,73.3c-.1-.5,0-1.2,0-1.7.1.4.3,1.5,0,1.7t0,0Z" fill="#4b1428"/><path d="M13.3,73.9c0-.4.1-1,0-1.4.2.2.3,1.2,0,1.4t0,0Z" fill="#4b1428"/><path d="M12.1,75.7c-.4-.6-.2-1.4-.2-2.2,0,.7.3,1.5.2,2.2t0,0Z" fill="#4b1428"/><path d="M11.6,75.6c-.2-.2,0-.7,0-1,.1.1.2.5.2.7,0,0,0,.3-.2.3t0,0Z" fill="#4b1428"/><path d="M5.3,61.7c.3-.2.7.1,1,0,.3,0,.8.1,1,.6-.3-.1-.7-.2-1-.4-.3-.2-.7,0-1-.2h0Z" fill="#4b1428"/><path d="M4.2,64c.3,0,.5,0,.7.3.2.2.5,0,.7.3-.3.3-.5-.1-.8-.1-.2,0-.6-.1-.7-.4h0Z" fill="#4b1428"/><path d="M4.8,62.2c.6-.4,1.3-.1,1.9,0-.6,0-1.3,0-1.9,0h0Z" fill="#4b1428"/><path d="M4.1,63.6c.6-.2,1.2.4,1.9.4-.2.1-.7,0-1,0-.3,0-.7-.1-.9-.4h0Z" fill="#4b1428"/><path d="M4.4,62.3c.2-.2.4,0,.6,0,.2,0,.5,0,.6.3-.2,0-.4,0-.6-.1-.2-.2-.4.1-.6-.2,0,0,0,0,0,0t0,0Z" fill="#4b1428"/><path d="M4.1,63.3c.3-.2.4.2.6.1.2,0,.5,0,.6.2-.2.2-.5,0-.7,0-.2-.2-.4,0-.6-.2,0,0,0,0,0,0h0Z" fill="#4b1428"/><path d="M4.5,65c.4,0,.6.3.9.4.4,0,.7,0,1.1,0,0,.2-.3.2-.4.3-.3,0-.6,0-.8-.2-.3-.2-.8-.1-.9-.5t0,0Z" fill="#4b1428"/><path d="M4.7,65.5c.4,0,.8.4,1.1.6-.3,0-1.1-.2-1.1-.6t0,0Z" fill="#4b1428"/><path d="M4.4,64.4c.3,0,.6.4.9.5-.3.1-1,0-.9-.5t0,0Z" fill="#4b1428"/><path d="M4.1,63c.5-.2,1.1.1,1.6.4-.5-.1-1.2,0-1.6-.4t0,0Z" fill="#4b1428"/><path d="M4.4,62.6c.2-.2.5,0,.7.2-.1.1-.4,0-.6,0,0,0-.2,0-.2-.2h0Z" fill="#4b1428"/><path d="M18.2,69.7c-.4.2-.8-.3-1.2-.4-.4,0-.9-.4-1-.9.4.2.7.4,1.1.7.3.3.8.1,1.1.5h0Z" fill="#4b1428"/><path d="M17.7,65.6c-.3,0-.5,0-.8-.2-.3-.2-.5,0-.8-.2.2-.4.5.1.8,0,.2,0,.6,0,.8.4t0,0Z" fill="#4b1428"/><path d="M18.7,68.9c-.7.2-1.5-.4-2-.9.6.4,1.4.5,2,.9t0,0Z" fill="#4b1428"/><path d="M17.9,66.1c-.6.2-1.4-.4-2-.4.2-.2.7,0,1,0,.3,0,.7,0,1,.4h0Z" fill="#4b1428"/><path d="M18.6,68.4c-.3.2-.5-.2-.7-.2-.2,0-.6-.1-.7-.4.3,0,.5,0,.7.3.2.2.5,0,.7.3,0,0,0,0,0,0h0Z" fill="#4b1428"/><path d="M18,66.7c-.2.2-.5-.2-.7,0-.2,0-.5,0-.7-.2.2-.2.5-.1.7,0,.2.2.5,0,.7.2,0,0,0,0,0,0t0,0Z" fill="#4b1428"/><path d="M17.1,64.4c-.4,0-.7-.3-1-.4-.4,0-.7,0-1.1,0,0-.2.2-.2.3-.3.3,0,.5,0,.8,0,.3.1.8,0,1,.5t0,0Z" fill="#4b1428"/><path d="M18.6,69.5c-.4.2-1-.3-1.3-.7.3.2,1.1.3,1.3.7h0Z" fill="#4b1428"/><path d="M17.4,65.1c-.4,0-.7-.4-1-.5.2-.1,1,0,1,.5t0,0Z" fill="#4b1428"/><path d="M17.4,69.8c-.4.2-.8-.2-1.1-.5.3,0,1,.3,1.1.5t0,0Z" fill="#4b1428"/><path d="M18.1,67.1c-.3.4-.7,0-1.1,0,.3,0,1-.1,1.1,0t0,0Z" fill="#4b1428"/><path d="M18.4,67.8c-.2.2-.6,0-.8-.1.1-.1.4-.1.6,0,0,0,.2,0,.2.2h0Z" fill="#4b1428"/><path d="M11.9,66c.3-.5.9-.5,1.3-.8.4-.3.9-.5,1.3-.4-.4.3-.8.5-1.3.6-.5,0-.8.7-1.3.6h0Z" fill="#4b1428"/><path d="M11.7,66.3c.5-.4,1.2-.2,1.8-.2.6,0,1.2,0,1.8.4-.6,0-1.2,0-1.8-.2-.6-.2-1.2.2-1.8,0t0,0Z" fill="#4b1428"/><path d="M11.7,66.3c.4,0,.8.4,1.2.5.4,0,.9.4,1.1.8-.4-.1-.8-.3-1.2-.6-.3-.3-.9-.2-1.1-.6h0Z" fill="#4b1428"/><path d="M11.8,66.2c.6-.7,1.4-.6,2.2-.7-.7.3-1.5.6-2.2.7t0,0Z" fill="#4b1428"/><path d="M11.9,66.3c.4-.1,1,.1,1.5.2-.4.1-1.2.3-1.5-.2t0,0Z" fill="#4b1428"/><path d="M11,67.4c0,.7-.3,1.2-.4,1.9,0,.6-.2,1.3-.4,1.9,0-.6,0-1.3.3-1.9.2-.6.1-1.4.5-1.9t0,0Z" fill="#4b1428"/><path d="M11.2,67.2c.2.8,0,1.6.2,2.4.2.7.3,1.5.3,2.3-.3-.7-.4-1.5-.4-2.3,0-.8-.4-1.7,0-2.4t0,0Z" fill="#4b1428"/><path d="M11.2,67.1c.4.3.5.9.8,1.2.3.3.6.8.8,1.3-.4-.2-.7-.7-.9-1.2-.2-.5-.7-.8-.7-1.3h0Z" fill="#4b1428"/><path d="M11.1,67.3c.1.8,0,1.7-.3,2.5.1-.8,0-1.8.3-2.5t0,0Z" fill="#4b1428"/><path d="M11.2,67.3c.3.4.5,1.3.6,1.8-.3-.4-.7-1.2-.6-1.8h0Z" fill="#4b1428"/><path d="M9.9,67c-.5.3-1,.2-1.4.5-.5.3-1,.5-1.5.6.4-.4.9-.6,1.4-.7.5,0,1-.6,1.5-.3t0,0Z" fill="#4b1428"/><path d="M10.2,67c-.5.5-1.1.7-1.6,1.3-.5.6-1.1,1.1-1.7,1.5.5-.7,1-1.2,1.6-1.6.6-.4,1.1-1.2,1.7-1.1h0Z" fill="#4b1428"/><path d="M10.2,67c-.1.6-.5.8-.7,1.4-.2.5-.5,1-.8,1.4.1-.6.4-1,.7-1.4.3-.4.4-1.1.8-1.3t0,0Z" fill="#4b1428"/><path d="M10.1,66.9c-.7.5-1.5,1-2.2,1.3.7-.5,1.5-1.4,2.2-1.3h0Z" fill="#4b1428"/><path d="M10,67.1c-.2.5-.8,1-1.1,1.5.2-.5.7-1.4,1.1-1.5h0Z" fill="#4b1428"/><path d="M10,65.4c-.5.3-.9,0-1.4,0-.5,0-1,0-1.4-.3.7-.2,1.4.3,2.1.1.2,0,.5,0,.7,0t0,0Z" fill="#4b1428"/><path d="M10.2,65.2c-.6,0-1.1-.6-1.6-.9-.5-.3-1.1-.7-1.4-1.3.5.3,1,.7,1.5,1.2.5.5,1.2.5,1.6,1h0Z" fill="#4b1428"/><path d="M10.1,65.3c-.8.2-1.5-.4-2.2-.7.7.2,1.5.4,2.2.7h0Z" fill="#4b1428"/><path d="M10,65.1c-.5-.1-.9-.8-1.1-1.3.3.3,1.1.9,1.1,1.3t0,0Z" fill="#4b1428"/><path d="M10.7,67c-.2.2-.2-.2-.3-.3,0,0-.1,0-.2,0,0,0,0,0,0-.3,0-.2,0,0,0-.2,0-.1,0-.2,0-.3,0-.1,0-.1,0-.2,0,0,.1,0,0-.1,0,0,0-.1.1-.2,0,0,0-.2.2-.2,0,0,0,0,.1,0,0-.1,0-.2.1-.2.1,0,.1,0,.2.1,0,.1,0,.1.1.2,0,.1.2,0,.2.1,0,.1,0,.3,0,.3,0,0,0,.1,0,.2,0,.1,0,.4,0,.4,0,0-.1,0-.1.1,0,0,0,.2,0,.3,0,0-.2,0-.2,0,0,0-.2.1-.2.1Z" fill="#fff"/><path d="M10.7,67c-.2.2-.2-.2-.3-.3,0,0-.1,0-.2,0,0,0,0,0,0-.3,0-.2,0,0,0-.2,0-.1,0-.2,0-.3,0-.1,0-.1,0-.2,0,0,.1,0,0-.1,0,0,0-.1.1-.2,0,0,0-.2.2-.2,0,0,0,0,.1,0,0-.1,0-.2.1-.2.1,0,.1,0,.2.1,0,.1,0,.1.1.2,0,.1.2,0,.2.1,0,.1,0,.3,0,.3,0,0,0,.1,0,.2,0,.1,0,.4,0,.4,0,0-.1,0-.1.1,0,0,0,.2,0,.3,0,0-.2,0-.2,0,0,0-.2.1-.2.1Z" fill="none" stroke="#4b1428" stroke-miterlimit="10" stroke-width=".1"/><path d="M10.8,65.4c.1-.2.1.2.2.2,0,0,0,0,.1,0,0,0,0,0,0,.2,0,.2,0,0,0,.2,0,0,0,.1,0,.2,0,0,0,.1,0,.1,0,0,0,0,0,0,0,0,0,0,0,.2,0,0,0,.2-.1.2,0,0,0,0,0,0,0,.1,0,.2-.1.1,0,0-.1,0-.1-.1,0,0,0,0-.1-.2,0,0-.1,0-.2,0,0,0,0-.2,0-.3,0,0,0,0,0-.2,0,0,0-.3,0-.3,0,0,0,0,.1,0,0,0,0-.1,0-.2,0,0,.1,0,.2,0,0,0,.2-.1.2-.1Z" fill="#fff"/><path d="M10.8,65.4c.1-.2.1.2.2.2,0,0,0,0,.1,0,0,0,0,0,0,.2,0,.2,0,0,0,.2,0,0,0,.1,0,.2,0,0,0,.1,0,.1,0,0,0,0,0,0,0,0,0,0,0,.2,0,0,0,.2-.1.2,0,0,0,0,0,0,0,.1,0,.2-.1.1,0,0-.1,0-.1-.1,0,0,0,0-.1-.2,0,0-.1,0-.2,0,0,0,0-.2,0-.3,0,0,0,0,0-.2,0,0,0-.3,0-.3,0,0,0,0,.1,0,0,0,0-.1,0-.2,0,0,.1,0,.2,0,0,0,.2-.1.2-.1Z" fill="none" stroke="#4b1428" stroke-miterlimit="10" stroke-width="0"/><path d="M10.6,66.5c-.1,0,0-.2,0-.2,0,0,0,0,0,0,0,0,0,0,0-.2,0-.1,0,0,0,0,0,0,0-.1,0-.2,0,0,0,0,0,0,0,0,0,0,0,0,0,0,0,0,0,0,0,0,0,0,.1,0,0,0,0,0,0,0,0,0,0-.1,0,0,0,0,0,0,0,.1,0,0,0,0,0,.2,0,0,0,0,0,.1,0,0,0,.2,0,.2,0,0,0,0,0,.1,0,0,0,.2,0,.2,0,0,0,0,0,0,0,0,0,0,0,.1,0,0-.1,0-.1,0,0,0-.1,0-.1,0Z" fill="#fff"/><path d="M10.6,66.5c-.1,0,0-.2,0-.2,0,0,0,0,0,0,0,0,0,0,0-.2,0-.1,0,0,0,0,0,0,0-.1,0-.2,0,0,0,0,0,0,0,0,0,0,0,0,0,0,0,0,0,0,0,0,0,0,.1,0,0,0,0,0,0,0,0,0,0-.1,0,0,0,0,0,0,0,.1,0,0,0,0,0,.2,0,0,0,0,0,.1,0,0,0,.2,0,.2,0,0,0,0,0,.1,0,0,0,.2,0,.2,0,0,0,0,0,0,0,0,0,0,0,.1,0,0-.1,0-.1,0,0,0-.1,0-.1,0Z" fill="none" stroke="#4b1428" stroke-miterlimit="10" stroke-width="0"/><path d="M20.8,26.5c-.1,0-.2.1-.3.2,0,0,0,0,0,0,0,.1,0,.2,0,.3.1,0,.2.2.2.4,0,0,.1,0,.2.1,4-1.7,8.9-2,9.5,1.6.1.7,1.7,1.4,1.5,2.4-.4,2-2.6,1.9-3.9,2.2-3,.6-5.7-1.8-7.3-5-.2-.1-.4-.2-.5-.2,0,.1-.2.2-.3.2,0,.2,0,.4,0,.5.5.8,1.3,1.5,2.1,3.3s2.2,2.3,2.4,3.7-.9,4.1-2.9,4.2c-.5,0-1.3-.6-1.7-.6-1.7-.1-2.6,0-3.3-1s-.9-2.3-.5-4,1.3-3.3,2.8-5.3c0-.2,0-.3,0-.5-.1,0-.2-.2-.2-.4,0,0,0,0,0,0,0,0,0,0,0,0-.2,0-.4-.1-.4-.3-.1,0-.2,0-.3,0-1.2,2.6-3.6,9.1-7.3,7.2s-1.7.1-2.5-.8c-.7-1.2,0-2.4,0-3-.4-2.3,3-4.1,9.4-4.4.2,0,.3-.1.3-.2,0,0,0,0,0,0,.1-.2,0-.4,0-.5-1.3-.2-3.2-.5-4.8-1.3s-3.5-2.3-3.3-4.2,2-1.6,3-2.7c1-1.6,2-1.3,3.4-1.1,2.6.5,4.4,3.2,3.5,8.3,0,.2,0,.4.1.5,0,0,.1,0,.1,0,.1,0,.3-.2.4-.3.7-2.7-.6-10.1,6.8-8.7s-.2.4,3.9,1.7c1.2,1.5-1,5.1-10.1,7.5Z" fill="#fff" stroke="#4b1428" stroke-miterlimit="10" stroke-width=".8"/><path d="M17.6,26.6c-.1-.6.6-.3.7-.4s0-.3.2-.4.2-.2.5,0,0,.2.3.3.4,0,.6,0,.3,0,.3.2,0,.3.1.3.2.2.2.4.3.4.2.5-.2,0,0,.3.3.2.2.5-.2.3-.4.3-.2.1-.5.2-.2.3-.4.4-.6,0-.6-.2-.2-.1-.4-.2-.6,0-.6-.3,0-.3,0-.4-.3-.1-.4-.3,0-.5.2-.6,0-.6,0-.6Z" fill="#fff" stroke="#4b1428" stroke-miterlimit="10" stroke-width=".2"/><path d="M17.7,26.3c-.9,0-1.5-.8-2.4-1.1-.8-.3-1.7-.8-2.1-1.6.8.3,1.5.8,2.2,1.4.6.6,1.7.6,2.2,1.3h0Z" fill="#4b1428"/><path d="M18.5,25.8c-1.1-.4-1.6-1.5-2.4-2.2-.8-.8-1.5-1.7-1.8-2.7.8.8,1.4,1.7,1.9,2.6.5.9,1.7,1.5,2.2,2.4h0Z" fill="#4b1428"/><path d="M19,25.8c-.6-.5-.5-1.4-.9-2-.4-.6-.7-1.5-.5-2.1.4.6.6,1.3.7,2.1,0,.7.9,1.3.7,2.1h0Z" fill="#4b1428"/><path d="M18.1,26c-1.4-.4-2.1-1.8-3-2.9.7.6,1.5,1.4,2.3,2.1,0,0,.7.7.7.7h0Z" fill="#4b1428"/><path d="M18,26.4c-1-.3-2-1.3-2.7-2,.9.6,2.2,1,2.7,2h0Z" fill="#4b1428"/><path d="M17.4,26.4c-1.2.1-2.3-.7-3.2-1.4.5.1,1.1.5,1.6.7.5.2,1.2.3,1.6.7h0Z" fill="#4b1428"/><path d="M18.6,25.5c-.8-.5-1-1.6-1.3-2.4.3.3.5.8.7,1.1.2.3.6.9.5,1.2h0Z" fill="#4b1428"/><path d="M19.1,25.6c-.4-.7-.3-1.8-.4-2.6.2.3.3.9.4,1.3.1.3.2,1.2,0,1.3h0Z" fill="#4b1428"/><path d="M14.4,17.4c.8,0,1.1.8,1.7,1.2.5.3,1.3,1,1.2,1.7-.5-.5-.9-.9-1.3-1.5-.4-.6-1.3-.7-1.5-1.3h0Z" fill="#4b1428"/><path d="M11.1,19.7c.4.4.6.8.7,1.3,0,.5.6.6.7,1.3-.7,0-.5-.8-.9-1.2-.3-.3-.7-.9-.5-1.4h0Z" fill="#4b1428"/><path d="M13.1,17.5c1.2.4,1.8,1.8,2.3,2.8-.7-1-1.8-1.8-2.3-2.8h0Z" fill="#4b1428"/><path d="M11.4,19.2c1,.7,1.2,2.2,1.9,3.1-.3,0-.9-1.1-1.1-1.4-.3-.5-.8-1.1-.8-1.6h0Z" fill="#4b1428"/><path d="M13,17.9c.6.1.4.7.8,1,.3.2.7.8.5,1.1-.4-.3-.6-.6-.7-1,0-.4-.6-.5-.6-1.1,0,0,0,0,0,0h0Z" fill="#4b1428"/><path d="M12.1,19.1c.5.2.3.7.7,1,.3.3.6.7.6,1.1-.5-.1-.7-.5-.8-1,0-.4-.6-.6-.5-1.1,0,0,0,0,0,0h0Z" fill="#4b1428"/><path d="M10.2,20.4c.6.7.3,1.5,1.1,2.1,0,0-.3-.4-.3-.4.5.5,1.1,1,1.4,1.6-.5-.1-1-.5-1.3-.9h0c-.3-.2-.2-.4-.3-.6-.1-.4-.5-.7-.6-1.1,0-.2-.1-.5,0-.6h0Z" fill="#4b1428"/><path d="M13.8,17.4c.5,0,.8.4,1,.7.2.3.6.7.6,1,0,0-.8-.8-.8-.8-.3-.2-.7-.6-.7-.9h0Z" fill="#4b1428"/><path d="M9.9,20.6c.4.6.6,1.5.8,2.2-.3-.2-.4-.7-.6-1-.2-.3-.4-.9-.2-1.2h0Z" fill="#4b1428"/><path d="M10.8,20c.4.5.3,1.2.7,1.8-.3-.2-.4-.5-.6-.8-.2-.3-.3-.9,0-1h0Z" fill="#4b1428"/><path d="M15.1,17.3c.7-.1,1.2.5,1.7,1-.2,0-.6-.3-.9-.4-.2,0-.8-.3-.8-.6h0Z" fill="#4b1428"/><path d="M12.4,18.6c.7.1,1,1,1.2,1.6-.2-.1-.4-.5-.7-.7-.2-.1-.6-.6-.5-.8h0Z" fill="#4b1428"/><path d="M12.7,18.2c.5.2.5.7.8,1.2-.2,0-.4-.4-.6-.5-.3-.2-.4-.6-.2-.7h0Z" fill="#4b1428"/><path d="M22.4,40c0-.7.6-1.2.7-1.9,0-.7.2-1.3.4-2,.4.5.1,1.5-.2,2-.3.6-.2,1.5-.9,1.9h0Z" fill="#4b1428"/><path d="M18.3,39.7c-.6-.7,0-1.4-.3-2.2,0-.2,0-.5.2-.7,0,0,0,0,0,0,.3.5-.1.9,0,1.4.1.4.3,1.1,0,1.5h0Z" fill="#4b1428"/><path d="M21.2,40.5c.1-1.2.5-2.4.6-3.6,0,1.1.3,2.8-.6,3.6h0Z" fill="#4b1428"/><path d="M18.8,39.9c-.2-.6-.2-1.2-.1-1.8,0-.4,0-1.6.3-1.8-.1.5,0,1.3,0,1.8,0,.5.1,1.4-.2,1.8h0Z" fill="#4b1428"/><path d="M20.9,40.2c-.3-.5.1-.8,0-1.2-.1-.4-.2-.9,0-1.2.3.4.3.8.1,1.2-.2.4.2.8-.2,1.2,0,0,0,0,0,0h0Z" fill="#4b1428"/><path d="M19.5,39.7c-.4-.4,0-.8-.1-1.2-.1-.4-.2-.9.2-1.2,0,0,0,0,0,0,.2.4.2.8,0,1.2,0,.2,0,.4,0,.6,0,.1,0,.6-.2.6h0Z" fill="#4b1428"/><path d="M17.2,39.6c-.5-.5-.3-1.2-.4-1.8,0-.2-.1-.4,0-.7h0c0-.5.2-1,.6-1.4,0,.5-.2,1-.2,1.5,0,0-.1.6-.1.6v-.5c0,.3,0,.8,0,1.1.1.3.3.9.1,1.2h0Z" fill="#4b1428"/><path d="M21.8,40.2c0-.7.3-1.6.5-2.3.1.3,0,.8,0,1.2,0,.3,0,1-.5,1.1h0Z" fill="#4b1428"/><path d="M16.9,39.5c-.4-.3-.4-.7-.4-1.1,0-.4,0-.9,0-1.2,0,0,.3,1.1.3,1.1.1.3.3.8.1,1.2h0Z" fill="#4b1428"/><path d="M17.9,39.6c-.4-.2-.4-.5-.4-.9,0-.3,0-.7.1-1,0,.6.5,1.5.3,1.9h0Z" fill="#4b1428"/><path d="M20,39.9c-.1-.4,0-.6,0-1,.1-.3,0-.7.2-1,.1.6.4,1.6-.2,1.9h0Z" fill="#4b1428"/><path d="M20.5,40.2c-.2-.2-.2-.5-.1-.7,0-.2.1-.6.2-.7,0,0,0,.7,0,.7,0,.2,0,.7-.2.7h0Z" fill="#4b1428"/><path d="M29.1,33.7c-.8.2-1.3-.4-2-.5-.6-.1-1.5-.4-1.7-1.1.6.3,1.2.5,1.8.9.6.4,1.4.1,1.9.7h0Z" fill="#4b1428"/><path d="M31.6,30.9c-.5,0-.9-.2-1.3-.6-.4-.3-.9-.1-1.3-.6.6-.4.9.3,1.4.4.5,0,1.1.3,1.2.8h0Z" fill="#4b1428"/><path d="M30.3,33.1c-1.2.4-2.5-.2-3.6-.7,1.1.3,2.5.3,3.6.7h0Z" fill="#4b1428"/><path d="M31.9,31.4c-1.2,0-2.3-.9-3.4-1.2.3-.2,1.4.3,1.8.4.6.2,1.3.4,1.6.8h0Z" fill="#4b1428"/><path d="M31,33.1c-.5.2-.8-.3-1.2-.3-.4,0-1-.2-1.1-.6.5,0,.8.1,1.2.4.4.3.8,0,1.2.4,0,0,0,0,0,0h0Z" fill="#4b1428"/><path d="M31.8,31.9c-.5.2-.7-.3-1.2-.4-.4,0-.9-.2-1.1-.5.5-.2.9,0,1.2.3.3.3.8,0,1.1.5,0,0,0,0,0,0h0Z" fill="#4b1428"/><path d="M30.3,29c-.9-.2-1.2-.9-2.2-.9,0,0,.5,0,.5,0-.7,0-1.3-.1-2.1-.3.4-.3,1.1-.3,1.6-.1,0,0,0,0,0,0,.4,0,.5.2.7.3.3.2.8.2,1.2.5.1,0,.5.3.4.5h0Z" fill="#4b1428"/><path d="M30.4,28.7c-.7-.2-1.4-.8-2-1.2.3,0,.8.3,1.1.4.3.1.9.4.9.8h0Z" fill="#4b1428"/><path d="M30.5,29.8c-.6-.2-1-.7-1.6-.9.4,0,.7.1,1,.2.4,0,.8.6.7.7h0Z" fill="#4b1428"/><path d="M31.7,32.3c-1.1.2-2-.5-2.9-1,.4,0,1,.3,1.5.4.5.1,1.1.2,1.4.6h0Z" fill="#4b1428"/><path d="M31.2,32.8c-.5.2-.8-.2-1.4-.4.1-.1.6,0,.8,0,.3,0,.7.3.6.4h0Z" fill="#4b1428"/><path d="M8,31.5c.2-.8,1-.9,1.4-1.5.4-.5,1.2-1.1,1.8-.9-.6.4-1.1.8-1.7,1.1-.6.3-.9,1.2-1.6,1.3h0Z" fill="#4b1428"/><path d="M9.1,35.1c.3-.4.7-.7,1.2-.8.5-.2.5-.7,1.2-.9,0,.7-.8.6-1,1-.3.4-.8.8-1.3.7h0Z" fill="#4b1428"/><path d="M7.8,32.8c.2-1.2,1.5-2,2.4-2.7-.9.8-1.6,2-2.4,2.7h0Z" fill="#4b1428"/><path d="M8.5,35c.6-1.1,2-1.5,2.8-2.3,0,.3-1,1-1.3,1.3-.4.4-1,.9-1.5,1h0Z" fill="#4b1428"/><path d="M7.5,33.4c0-.6.6-.5.9-.9.2-.3.7-.8,1.1-.6-.2.4-.5.6-.9.8-.4.2-.4.7-1,.8,0,0,0,0,0,0h0Z" fill="#4b1428"/><path d="M8.1,34.7c.1-.6.7-.4.9-.8.2-.4.6-.7,1-.7,0,.5-.4.7-.9.9-.4.1-.5.7-1,.7,0,0,0,0,0,0h0Z" fill="#4b1428"/><path d="M10.7,35.5c.6-.7,1.4-.5,1.9-1.4,0,0-.3.4-.3.4.4-.6.8-1.1,1.3-1.6.1.5-.3,1.1-.7,1.4,0,0,0,0,0,0-.2.3-.4.3-.6.4-.4.2-.6.6-1,.7-.1,0-.5.2-.6.1h0Z" fill="#4b1428"/><path d="M11.5,35.6c.5-.5,1.4-.8,2-1.1-.2.3-.6.5-.9.8-.3.2-.8.5-1.1.3h0Z" fill="#4b1428"/><path d="M9.9,35.2c.5-.5,1.2-.5,1.7-.9-.1.3-.4.5-.7.7-.3.3-.9.4-1,.2h0Z" fill="#4b1428"/><path d="M7.8,34.4c.4-1,1.5-1.5,2.4-2-.3.4-.8.7-1.1,1.1-.4.4-.8.8-1.3.9h0Z" fill="#4b1428"/><path d="M7.7,33.7c.1-.5.6-.6,1.1-1,0,.2-.3.5-.4.6-.1.3-.6.5-.7.3h0Z" fill="#4b1428"/><path d="M30.9,20.4c-.3.7-1.1.8-1.6,1.3-.5.4-1.3.9-1.9.7.6-.3,1.1-.7,1.8-.9.7-.2,1-1,1.7-1.1h0Z" fill="#4b1428"/><path d="M26.6,17.4c-.3.5-.7.7-1.1.9-.5.2-.5.7-1.1.9,0-.7.7-.7,1-1.1.3-.4.8-.8,1.3-.7h0Z" fill="#4b1428"/><path d="M30.6,19c-.5,1.1-1.9,1.6-3,2,1-.6,2-1.6,3-2h0Z" fill="#4b1428"/><path d="M27.3,17.5c-.5,1.1-1.9,1.6-2.6,2.5,0-.3.9-1.1,1.2-1.4.4-.4.9-1,1.5-1.1h0Z" fill="#4b1428"/><path d="M30,18.7c-.1.6-.7.5-.9.8-.2.3-.7.7-1.1.5.2-.4.6-.6,1-.7.4-.1.5-.7,1-.7,0,0,0,0,0,0h0Z" fill="#4b1428"/><path d="M27.9,18c0,.6-.6.5-.9.9-.2.4-.6.7-1,.8,0-.5.4-.8.8-1,.4-.2.4-.7,1-.7,0,0,0,0,0,0h0Z" fill="#4b1428"/><path d="M25,17c-.6.7-1.4.6-1.8,1.5,0,0,.3-.4.3-.4-.4.5-.8,1.2-1.3,1.7,0-.6.3-1.1.7-1.4h0c.2-.2.4-.2.6-.4.4-.2.6-.6,1-.8.1,0,.5-.2.6-.1h0Z" fill="#4b1428"/><path d="M31,19.6c-.1.4-.5.7-.9.8-.4.1-.8.4-1.1.4,0,0,1-.7,1-.7.3-.2.7-.5,1-.5h0Z" fill="#4b1428"/><path d="M25.8,17.2c-.4.5-1.1.6-1.6,1,.2-.5.6-.8,1.1-1,.1,0,.5-.1.5,0h0Z" fill="#4b1428"/><path d="M30.1,21.6c-.2.7-1,.9-1.6,1.1.1-.2.6-.4.8-.6.1-.2.7-.6.9-.5h0Z" fill="#4b1428"/><path d="M28.4,18.2c0,.7-.8,1.1-1.3,1.5,0-.2.4-.5.6-.8,0-.2.5-.7.7-.7h0Z" fill="#4b1428"/><path d="M29.2,18.5c0,.5-.6.6-1,1,0-.2.3-.5.4-.7.1-.3.5-.5.7-.4h0Z" fill="#4b1428"/><path d="M20.3,25.9c-.2-.9.5-1.6.7-2.5.2-.8.6-1.8,1.2-2.3-.2.9-.6,1.6-1,2.4-.5.7-.3,1.8-.9,2.4h0Z" fill="#4b1428"/><path d="M20.4,26.4c.2-1.2,1.2-1.8,1.8-2.7.6-.9,1.4-1.7,2.4-2.2-.6.9-1.4,1.6-2.3,2.3-.8.7-1.2,1.9-2,2.5h0Z" fill="#4b1428"/><path d="M20.5,26.4c.4-.7,1.2-.8,1.8-1.2.5-.4,1.3-1,2-.9-.6.5-1.2.8-1.9,1.1-.7.2-1.2,1.1-1.9,1.1h0Z" fill="#4b1428"/><path d="M20.4,26.3c0-1.4,1.1-2.6,1.8-3.7-.3.9-.9,1.9-1.3,2.8,0,0-.5.9-.5.9h0Z" fill="#4b1428"/><path d="M20.6,26.1c.3-.7,1.3-1.3,1.8-1.9,0,.4-.5.8-.7,1.1-.1.3-.8.9-1.1.8h0Z" fill="#4b1428"/><path d="M20.8,28.2c.8.5,1,1.4,1.7,1.9.7.5,1.3,1.1,1.8,1.8-.8-.2-1.5-1-2-1.7-.4-.7-1.5-1.2-1.5-2.1h0Z" fill="#4b1428"/><path d="M20.7,27.8c1,.4,1.8,1.2,2.8,1.5,1,.3,2.1.6,3,1.2-1.1,0-2.2-.4-3.1-1-.9-.6-2.3-.7-2.8-1.7h0Z" fill="#4b1428"/><path d="M20.7,27.7c.7-.3,1.5,0,2.2,0,.7-.2,1.5-.3,2.2,0-.7.4-1.5.4-2.2.3-.7-.1-1.5.3-2.2,0,0,0,0,0,0,0h0Z" fill="#4b1428"/><path d="M20.8,28.1c1,.4,1.8,1.5,2.5,2.2-.8-.7-2.1-1.2-2.5-2.2h0Z" fill="#4b1428"/><path d="M20.9,27.9c.6,0,2,.3,2.6.6-.9,0-2.1.1-2.6-.6h0Z" fill="#4b1428"/><path d="M19.1,29.5c-.1.9-.8,1.5-1,2.4-.2.8-.4,1.6-.9,2.4-.2-.8.3-1.8.7-2.5.5-.7.5-1.9,1.2-2.3h0Z" fill="#4b1428"/><path d="M19.4,29.1c0,1.1-.5,2.1-.3,3.2.1,1.1.2,2.2,0,3.2-.4-1-.4-2.2-.3-3.2.2-1-.2-2.4.5-3.2h0Z" fill="#4b1428"/><path d="M19.4,29.1c.5.6.3,1.4.7,2.1.4.6.7,1.3.7,2.1-.6-.5-.8-1.3-.9-2-.1-.7-.7-1.3-.6-2.1,0,0,0,0,0,0h0Z" fill="#4b1428"/><path d="M19.3,29.1c-.2,1.2-.6,2.9-.9,4,.1-1.3,0-3.1.9-4h0Z" fill="#4b1428"/><path d="M19.3,29.4c.3.5.4,1.9.4,2.7-.3-.8-.9-1.9-.4-2.7h0Z" fill="#4b1428"/><path d="M17.6,28c-.2.9-1.1,1.4-1.5,2.1-.5.7-1.2,1.5-1.9,1.7.5-.7,1.1-1.3,1.8-1.9.7-.5.9-1.6,1.7-1.9h0Z" fill="#4b1428"/><path d="M17.6,27.6c-.7,1-1.9,1.1-2.8,1.6-1,.5-2.1.9-3.1.9,1-.5,2-.8,3.1-1.1,1.1-.2,1.9-1.2,2.9-1.4h0Z" fill="#4b1428"/><path d="M17.6,27.8c-.6,1.3-2.1,1.8-3.3,2.5.7-.6,1.7-1.3,2.4-1.9,0,0,.9-.6.9-.6,0,0,0,0,0,0h0Z" fill="#4b1428"/><path d="M17.3,27.7c-.7.6-1.8.5-2.7.5.3-.2.9-.2,1.3-.4.4-.1,1-.3,1.4-.1h0Z" fill="#4b1428"/><path d="M20,28.4c0,.5-.5,0-.6.1s-.1.2-.2.2-.2,0-.4-.1,0-.2-.1-.3-.3,0-.4-.2-.2-.1-.1-.2,0-.2,0-.2,0-.2,0-.3,0-.3,0-.4.2,0,0-.2-.2-.3,0-.4.2-.2.3,0,.2,0,.4,0,.2-.2.4-.2.4.1.4.3,0,.1.2.2.4.2.4.3,0,.2,0,.3.2.1.2.3-.1.4-.2.4-.1.4-.1.4Z" fill="#fff" stroke="#4b1428" stroke-miterlimit="10" stroke-width=".2"/><path d="M18.5,26.8c0-.3.3,0,.4-.1s0-.1.2-.2.1,0,.3,0,0,.1.1.2.2,0,.3.1.1,0,.1.2,0,.1,0,.2,0,.1,0,.2,0,.2,0,.3-.1,0,0,.1.1.2,0,.3-.1.1-.3,0-.2,0-.3,0-.1.2-.3.1-.3,0-.3-.2,0,0-.2-.2-.3-.1-.3-.2,0-.1,0-.2-.2-.1-.2-.2,0-.3.2-.3,0-.3,0-.3Z" fill="#fff" stroke="#4b1428" stroke-miterlimit="10" stroke-width=".1"/><path d="M19.4,28.1c-.1.2-.2,0-.3,0s0,0-.2,0,0,0-.2-.1,0,0,0-.2-.1,0-.2-.2,0,0,0-.1,0,0,0-.1,0-.1,0-.2,0-.2,0-.2,0,0,0,0,0-.2,0-.2.1,0,.2,0,.1,0,.2,0,.1,0,.2,0,.2.2.1.2,0,0,0,.2.2.2.1.2,0,0,0,.1,0,.1,0,.2-.1.2-.2.1-.1.2-.1.2Z" fill="#fff" stroke="#4b1428" stroke-miterlimit="10" stroke-width="0"/><path d="M121.9,60.4c-.7,0-1.6-.3-2.3-1.6-.1-1.1.1-2,.7-2.6.6-.7,1.7-1.1,2.9-1.1,0,0,.2,0,.2,0,.2,0,.3,0,.5-.1.2,0,.4-.1.5-.1s.1,0,.2,0c.2,0,.3.2.4.4,0,0,0,.1,0,.2.2,0,.5.2.7.4.1.2,0,.5-.1.6,0,.2.2.6,0,.8,0,.1-.2.2-.3.3,0,0-.2.2-.2.2-.9,1.5-2.2,2.5-3.4,2.5Z" fill="#fff"/><path d="M124.5,55.1s0,0,.1,0c.2,0,.3.5.4.6.2,0,.5.2.6.3,0,.2-.2.5-.2.5,0,0,.2.5.1.8,0,.2-.4.4-.5.5-.8,1.4-2.1,2.4-3.3,2.4s-1.5-.4-2.1-1.5c-.2-2.6,1.7-3.4,3.5-3.4s.1,0,.2,0c0,0,0,0,0,0,.4,0,.7-.2,1-.2M124.5,54.7h0c-.2,0-.4,0-.6.1-.2,0-.3,0-.4,0,0,0-.2,0-.3,0-1.3,0-2.4.4-3.1,1.1-.6.7-.9,1.6-.8,2.7h0c0,0,0,.2,0,.2.8,1.4,1.8,1.7,2.5,1.7,1.3,0,2.7-1,3.6-2.6,0,0,.1-.1.2-.2.1-.1.3-.3.3-.4.1-.3,0-.6,0-.9.1-.2.2-.4,0-.7-.1-.3-.5-.4-.7-.5,0,0,0,0,0,0,0-.2-.2-.4-.5-.5,0,0-.1,0-.2,0h0Z" fill="#4b1428"/><path d="M119.8,58.7c0-.7.6-1.2,1.2-1.5.6-.3,1.1-.7,1.8-.6-.5.3-1.2.3-1.7.7-.5.4-.9.9-1.2,1.4h0Z" fill="#4b1428"/><path d="M120,59.3c.7,0,1.3,0,1.9-.2.6-.1,1.1-.7,1.7-.9-.4.6-1.1.7-1.7,1-.5.3-1.4.5-1.9.1h0Z" fill="#4b1428"/><path d="M120.5,60.3c.2.3.5.6,1,.7,1,.2,1.7-.3,1.7-.3-.8.3-1.4.3-2.3-.6,0,0-.3-.6-1-1.1,0-.8-.3-1.4-.3-1.4-.3-1.3,0-1.8.8-2.3,0,0-.8.3-1.2,1.2-.2.5,0,.9,0,1.3,0,.5-.5.9-.7,1.4,0,.2,0,.3,0,.5,0,0,0,0,0,0,0,0,0,.2.1.3,0,0,.1.2.2.2,0,0,0,0,0,0,.1.1.2.2.4.2.5,0,1.1-.2,1.5,0Z" fill="#fff" stroke="#4b1428" stroke-linecap="round" stroke-linejoin="round" stroke-width=".4"/><path d="M120,58.7c0-.5.5-.7.7-.9.3-.3.7-.5,1-.6-.4.4-1.1.5-1.4,1,0,0-.4.5-.4.4h0Z" fill="#4b1428"/><path d="M120.3,59.2c1-.2,1.5-.6,2.3-.9-.4.5-1.1.6-1.7.9-.2,0-.5.1-.6,0h0Z" fill="#4b1428"/><path d="M120.1,59c.5-.2,1-.3,1.5-.5-.4.3-1,.6-1.5.5h0Z" fill="#4b1428"/><path d="M121.5,57.9c-.6.2-.9.6-1.5.9.2-.5,1-.8,1.5-.9h0Z" fill="#4b1428"/><path d="M121.1,58.4c-.3.2-.7.5-1.1.5.3-.3.7-.3,1.1-.5h0Z" fill="#4b1428"/><path d="M119.8,57.8c0-.4.3-.7.5-1.1.2-.3.6-.7.9-.7-.3.5-1,.7-1.2,1.3,0,0-.3.5-.3.5h0Z" fill="#4b1428"/><path d="M121.1,56.6c-.5.4-.7.9-1.1,1.3,0-.5.7-1,1.1-1.3h0Z" fill="#4b1428"/><path d="M120.6,57.2c-.2.3-.3.8-.7.9.1-.4.5-.6.7-.9h0Z" fill="#4b1428"/><path d="M120.8,60h.6c.6,0,1.1-.4,1.7-.5-.4.5-1.1.5-1.7.6-.2,0-.5,0-.6-.1h0Z" fill="#4b1428"/><path d="M122.5,59.4c-.5.3-1.1.5-1.7.3.6-.1,1.2-.2,1.7-.3h0Z" fill="#4b1428"/><path d="M121.8,59.5c-.4,0-.7.2-1.2.1.3-.3.8-.2,1.2-.1h0Z" fill="#4b1428"/><path d="M118.5,59.8c0-.2,0-.3,0-.5.1-.1.3-.2.4-.3.2-.3.3-.6.4-.9.3.6-.4.9-.6,1.3,0,0,0,.3-.2.4h0Z" fill="#4b1428"/><path d="M119.5,59.9c0-.1.2-.2.4-.1.1,0,.3,0,.4.1-.2,0-.5.2-.7,0h0Z" fill="#4b1428"/><path d="M125.3,55.6c-.3.2-.7.3-.9.5.2-.2.6-.7.9-.5h0Z" fill="#4b1428"/><path d="M125.9,56.5c-.4.3-.9.3-1.3.3.4-.1.9-.4,1.3-.3h0Z" fill="#4b1428"/><path d="M114.1,78c-.2,0-.3-.3-.2-.8.1-.6.6-.7,1.1-.9,0,0,.2,0,.3-.1.3-.1.4-.3.4-.7,0-.2,0-.5.2-.7h0c0-.1.3-.1.3-.1h.1c.2.5.3.9.1,1.3-.1.2-.3.3-.4.4-.1,0-.2.2-.3.3-.2.3-.5.5-.7.6-.2.2-.5.3-.6.5v.2c0,0-.2,0-.2,0Z" fill="#fff"/><path d="M116.1,74.9c.2.3.3.6.1,1-.2.3-.5.4-.7.7-.4.5-1,.6-1.3,1.2-.1,0,0-.4,0-.5.1-.5.8-.7,1.2-.8.7-.2.4-.9.8-1.5h0M116.3,74.5h-.3s0,0,0,0h-.2s-.1.2-.1.2c-.2.3-.2.6-.3.8,0,.4,0,.4-.3.5h0s0,0,0,0c0,0-.2,0-.3.1-.4.2-1,.4-1.2,1-.1.8.1,1,.4,1.1h.3c0,0,.2-.2.2-.2.1-.2.3-.3.5-.5.3-.2.5-.3.8-.7,0-.1.1-.2.3-.3.1-.1.3-.2.5-.5h0s0,0,0,0c.2-.4.1-.9-.1-1.4v-.2h-.1Z" fill="#4b1428"/><path d="M116.2,75.1c-.4,0-.5-.6-.6-1.3-.4-3.1,1.2-4.1,1.3-4.2.7-.9,2.4-1.5,2.5-1.6l.6-.2-.3.5c-.3.5-.3.8-.2,1.1,0,.2,0,.3,0,.5,0,.4-.2.6-.3.8,0,.2-.2.2-.2.4,0,.1,0,.3,0,.4,0,.3.1.6,0,1-.1.6-1.8,1.9-2.1,2.1-.3.3-.6.4-.8.4Z" fill="#fff"/><path d="M119.4,68.3c-.6.8-.2,1.2-.2,1.8s-.4.8-.4,1.2c0,.4.2.8,0,1.4s-2,2-2,2c-.3.2-.5.4-.7.4-.2,0-.3-.3-.4-1.1-.4-3,1.2-4,1.2-4,.7-1,2.5-1.5,2.5-1.5M120.4,67.5l-1.1.4c0,0-1.8.6-2.6,1.6-.3.2-1.7,1.4-1.3,4.3,0,.7.2,1.5.8,1.5s.5-.2.9-.4c.6-.5,2-1.6,2.2-2.2,0-.4,0-.8,0-1.1,0-.1,0-.2,0-.4,0,0,0-.1.1-.3.1-.2.3-.5.3-.9,0-.2,0-.4,0-.5,0-.3-.1-.6.2-1l.7-1h0Z" fill="#4b1428"/><path d="M116,74.4c.1-2.2,1.5-4.2,3.2-5.6-1.6,1.4-2.7,3.5-3.2,5.6h0Z" fill="#4b1428"/><path d="M116,74.7c0-.7.4-1.2.6-1.7.2-.6.6-1.1,1.1-1.5-.3.6-.6,1.1-1,1.6-.4.5-.4,1.2-.7,1.7h0Z" fill="#4b1428"/><path d="M116,74.8c.4-1.6,1.7-2.9,3-3.9-1.1,1.1-2.2,2.6-3,3.9h0Z" fill="#4b1428"/><path d="M116.1,74.9c.1-.7.7-1.1,1.1-1.6.4-.5,1-.9,1.6-1.2-.6.7-1.6,1.1-2.1,2,0,0-.6.8-.6.8,0,0,0,0,0,0h0Z" fill="#4b1428"/><path d="M116.3,74.9c0-.5.5-.6.8-1,.3-.3.6-.6,1.1-.7-.3.3-.6.6-1,.8-.4.2-.5.7-.9.9h0Z" fill="#4b1428"/><path d="M118.7,77.6c-.5,0-1,0-1.6-.2l-1.2-.6.2-.2s.6-.6.9-.9c.4-.3,1.2-.6,1.6-.7h0c.2,0,2.7.2,2.8.6v.2s-.2.1-.2.1c-.2,0-.3.2-.4.5-.1.2-.2.4-.4.5h0c-.2.4-.6.7-1.6.7h0Z" fill="#fff"/><path d="M118.7,75.2c.6,0,2.8.4,2.4.5-.4.2-.5.7-.9,1-.3.3-.5.7-1.5.7s-.9,0-1.6-.2l-1-.5s.5-.6.9-.9c.4-.3,1.1-.6,1.5-.6,0,0,0,0,0,0M118.7,74.8s0,0-.1,0c-.4,0-1.3.3-1.7.7-.4.3-.9.9-.9.9l-.3.4.5.2,1,.5h0s0,0,0,0c.7.2,1.2.3,1.7.3,1,0,1.4-.4,1.7-.7,0,0,0,0,0,0,.2-.2.3-.4.4-.6.1-.2.2-.3.3-.4.2,0,.3-.3.3-.5-.1-.7-2.8-.8-2.9-.8h0Z" fill="#4b1428"/><path d="M116.2,76.7c.8,0,1.6.2,2.4,0,.8-.3,1.3-.8,2.2-.9-.3.2-.8.2-1.1.4-.3.2-.6.5-1,.6-.8.3-1.7,0-2.4-.2h0Z" fill="#4b1428"/><path d="M116.3,76.7c.5-.2,1,0,1.6-.2.4-.1,1-.3,1.5-.5-.2.5-.9.5-1.4.6-.5,0-1.1.3-1.6.1h0Z" fill="#4b1428"/><path d="M116.1,76.7c.8-.3,2.1-.7,2.9-1-.9.4-2,1.1-2.9,1h0Z" fill="#4b1428"/><path d="M116.4,76.7c0-.4.4-.5.6-.7.2-.2.5-.5.8-.4-.2.3-.5.4-.8.5-.3.1-.4.5-.7.6h0Z" fill="#4b1428"/><path d="M116.1,76.7c.3-.3.8-.3,1.2-.6.3-.2.7-.5,1.1-.7-.2.4-.7.6-1.1.8-.4.1-.8.6-1.2.5h0Z" fill="#4b1428"/><path d="M116.3,76.8c.7.2,1.5.4,2.2.5-.7,0-1.7,0-2.2-.5h0Z" fill="#4b1428"/><path d="M112.6,75.7c-.2.2-.5.1-1,0-.5-.4-1.8,0-2.3-.3-.3-.3-.4-.6-.5-.9,0-.1-.1-.2-.2-.3,0-.1-.2-.1-.4-.2-.2-.1-.5-.3-.8-.8-.1-.2-.2-.4-.3-.6-.2-.4-.3-.8-1.1-1.8-.2-.3-.5-.6-.7-1,.3.2.5.3.8.5.3.2,2.2,1.4,3,1.2t0,0c-.3-.2,2.4-.3,3.4,2.4.2.6.4,1.3,0,1.7t0,0Z" fill="#fff"/><path d="M106.2,70.7c.2.2,2.1,1.3,2.8,1.1-.2,0,2-.6,3.2,2.2.3.8.4,1.3.2,1.5-.2.1-.5,0-.8,0-.2-.3-1.8,0-2.2-.1-.3-.3-.4-.8-.7-1.1-.2-.3-.7-.2-1.1-.9-.4-.7-.3-1-1.5-2.6M104.6,69.2c.4.4.9,1.1,1.4,1.8.7.8.8,1.1.9,1.6,0,.2.1.4.3.7.3.5.7.8.9.9.2.1.2.1.3.2,0,.1.1.2.2.3.1.3.2.7.5,1,.6.4,1.7,0,2.5.4.5.2.8.3,1.1,0,.6-.8.3-1.6.2-2-.6-2.4-3.7-3-3.7-2.7-.9.1-2.8-1.2-3.1-1.4-.5-.3-1-.6-1.5-.8h0Z" fill="#4b1428"/><path d="M112.3,74.6c-2.2-3-3-.6-5.5-3,2.3,2.1,3.7-.3,5.5,3t0,0Z" fill="#4b1428"/><path d="M112.5,75.1c-1.2-1.6-2.2-1.8-3-1.7.4-.2.9-.2,1.4.1.5.3,1.4.8,1.6,1.6h0Z" fill="#4b1428"/><path d="M112.5,75.1c-2-2-2.6-1.1-4.1-1.2,1.4-.1,2.4-1.2,4.1,1.2h0Z" fill="#4b1428"/><path d="M112.5,75.3c-.3-.2-.7-.5-1-.7-1-.8-1.4.1-2.2.2.8-.7,1.2-.9,2.3-.4.3.2.8.5.9.9h0Z" fill="#4b1428"/><path d="M112.3,75.4c-.5-.2-.9-.7-1.2-.6-.4,0-.6.2-.9.2.4-.6.8-.3,1.5-.1.2,0,.5.3.6.6t0,0Z" fill="#4b1428"/><path d="M12.6,46c-.3,0-.5-.3-.7-.8-.2-.4-1-2.2-.9-2.8.1-.4.3-.7.5-.9,0-.1.2-.2.2-.3,0-.1,0-.2,0-.4,0-.2,0-.5.1-.8,0-.2.2-.3.3-.4.2-.3.4-.5.3-1.1v-.6c0,0,.3.4.3.4,0,0,1.4,1.4,1.6,2.6h0s1,1.6-.8,4.2c-.5.7-.7.9-1,.9h0Z" fill="#fff"/><path d="M12.7,38.4s1.3,1.3,1.5,2.5c0,0,1,1.6-.8,4.1-.4.6-.6.8-.8.8s-.3-.2-.5-.6c0,0-1-2.1-.9-2.7.1-.6.5-.8.7-1.2.2-.4-.1-.7.2-1.2.3-.5.7-.7.6-1.7M12.1,37.3l.2,1.2c0,.5,0,.7-.3,1,0,.1-.2.3-.3.5-.2.4-.2.7-.1.9,0,.2,0,.2,0,.3,0,.1-.1.2-.2.3-.2.2-.4.5-.5,1-.2.6.6,2.3.9,3,.2.4.4.9.9.9s.7-.3,1.1-1c1.7-2.4,1-4.1.8-4.4-.2-1.2-1.5-2.6-1.6-2.6l-.8-.8h0Z" fill="#4b1428"/><polygon points="12.9 45.5 12.6 46 12.3 45.5 12.5 45.4 12.7 45.4 12.9 45.5" fill="#fff" stroke="#4b1428" stroke-miterlimit="10"/><path d="M12.9,45.4c.5-2.1.5-4.4-.3-6.4.9,1.9,1.3,4.5.3,6.4h0Z" fill="#4b1428"/><path d="M12.7,45.7c.3-1.4,0-2.3,0-3.7.2.6.3,1.2.2,1.8,0,.6,0,1.3-.3,1.8h0Z" fill="#4b1428"/><path d="M12.7,45.8c0-1.6-.3-3.3-.8-4.9.6,1.5,1.2,3.3.8,4.9h0Z" fill="#4b1428"/><path d="M12.6,45.8v-.9c-.2-1-.9-1.8-1.1-2.7.7.7.8,1.8,1.1,2.7,0,.3.1.7,0,1h0Z" fill="#4b1428"/><path d="M12.4,45.7c-.2-.4-.1-.8-.3-1.2-.2-.3-.4-.7-.5-1.1.5.4.6,1.1.9,1.7,0,.2.1.5,0,.6h0Z" fill="#4b1428"/><path d="M10.8,47.4c-2.1-1.2-2.1-2-2.1-2.5h0c0-.4,0-.6,0-.8,0-.2,0-.4,0-.6h0c0,0,0-.2,0-.2h0c0,0,.1,0,.1,0,.4,0,2.1,1.3,2.3,1.5.3.3.7,1.1.7,1.6,0,.5,0,1.3,0,1.3v.3s-1.3-.4-1.3-.4Z" fill="#fff"/><path d="M9.1,43.3c.3,0,1.9,1.2,2.1,1.4.2.3.6,1.1.7,1.5,0,.5,0,1.3,0,1.3l-1-.3c-2.1-1.2-1.9-2-1.9-2.5,0-.5.3-.9,0-1.3,0,0,0,0,0,0M9.1,42.9h-.2v.2c-.2,0-.3.2-.2.4,0,.1,0,.3,0,.5,0,.2,0,.4,0,.7,0,0,0,0,0,.1,0,.7.1,1.6,2.1,2.7h0s0,0,0,0l1,.3.5.2v-.5s0-.8,0-1.3c0-.6-.5-1.4-.7-1.7-.2-.2-2-1.6-2.5-1.6h0Z" fill="#4b1428"/><path d="M11.9,47.5c-.7-.4-1.5-.8-1.9-1.5-.3-.8-.3-1.6-.8-2.2.6.6.6,1.4,1,2.2.4.7,1.2,1.1,1.7,1.6h0Z" fill="#4b1428"/><path d="M11.8,47.5c-.5-.3-.7-.8-1-1.2-.3-.4-.8-.9-.6-1.4.2.4.5,1,.7,1.4.2.5.8.8.9,1.3h0Z" fill="#4b1428"/><path d="M11.9,47.6c-.7-.7-1.1-1.8-1.4-2.8.4.8,1.1,1.9,1.4,2.8h0Z" fill="#4b1428"/><path d="M11.8,47.4c0-.3,0-.6,0-.9-.1-.3-.2-.6-.2-.9.4.3.2.9.4,1.4,0,.1,0,.4-.1.5h0Z" fill="#4b1428"/><path d="M11.9,47.5c-.3-.3-.3-.8-.5-1.2-.2-.4-.4-.9-.2-1.3.2.3.2.9.3,1.2,0,.4.5.8.4,1.2h0Z" fill="#4b1428"/><path d="M11.8,47.5c-.8,0-1.4-.6-1.9-1.2.6.4,1.3.8,1.9,1.2h0Z" fill="#4b1428"/><path d="M12.4,94.2c-3.5-1-3.6-3.1-3.4-4,0,0,0-.2,0-.3,0-.4.1-.8.2-1.2.1-.5.2-.9.1-1.3,0,0,0,0,0-.1,0,0,0-.1,0-.2,0,0,0-.1.2,0,.5.4,2.9,2.9,3.4,3,.4.4,1.3,1.6,1.4,2.3.2.7.2,1.8.2,1.8,0,0,0,.1,0,.2-.7,0-1.5-.2-2.1-.3Z" fill="#fff"/><path d="M9.5,87.3c.4.4,2.8,2.8,3.2,2.9.4.4,1.2,1.5,1.4,2.2.2.7.2,1.9.2,1.9-.6,0-1.3-.2-1.9-.3-3.7-1.1-3.3-3.2-3.3-4,0-1,.5-1.7.3-2.6,0,0,0-.1,0-.1M9.5,86.9c-.1,0-.3,0-.3.2,0,0-.1.2,0,.5,0,.3,0,.7-.1,1.1,0,.4-.2.7-.2,1.2,0,0,0,.2,0,.3-.2,1,0,3.2,3.5,4.3,0,0,0,0,0,0,0,0,0,0,0,0,.6,0,1.2.2,1.9.2.2,0,.4,0,.6,0,0-.1,0-.3,0-.4,0,0,0-1.1-.2-1.8-.2-.8-1.1-2-1.5-2.4-.5,0-2.9-2.7-3.5-3.2,0,0,0,0,0,0Z" fill="#4b1428"/><path d="M14.2,94.3c-1.8-.5-3.3-1.1-3.7-2.9-.1-1-.5-1.9-1-3.2.4.6.7,1.5,1,2.1.2,1.4.8,2.3,2,2.9,0,0,1.8,1,1.7,1t0,0Z" fill="#4b1428"/><path d="M14.1,94.3c-.9-.3-1.3-1.2-1.9-1.7-.6-.5-1.4-1.2-1.1-2.1.3.7.8,1.4,1.2,2,.4.6,1.4,1,1.8,1.8t0,0Z" fill="#4b1428"/><path d="M14.4,94.4c-1.5-1-2.1-2.7-2.7-4,0,0,1.3,1.9,1.3,1.9.4.5,1,1.4,1.4,2,0,0,0,0,0,0,0,0,0,0,0,0Z" fill="#4b1428"/><path d="M14,94.1c-.2-.5,0-1-.3-1.4-.3-.4-.5-.9-.5-1.4.5.3.6.9.7,1.3,0,.5.6,1,0,1.4,0,0,0,0,0,0t0,0Z" fill="#4b1428"/><path d="M14.3,94.3c-.7-.4-.7-1.2-1.1-1.8-.4-.5-.8-1.2-.6-1.8.4.6.5,1.1.7,1.8.2.6,1,1.2.9,1.8t0,0Z" fill="#4b1428"/><path d="M14,94.2c-1.5.2-2.5-.7-3.3-1.3,1.2.6,2.1.8,3.3,1.3t0,0Z" fill="#4b1428"/><path d="M17.9,92.1c0,0-.2,0-.2-.2-.1-1.9.5-3.5,1.7-4.4,0,0,.2-.2.3-.2.3-.2.6-.5.8-.7.3-.4.2-.8,0-1.3-.1-.4-.3-.9-.3-1.4,0-.5.3-1.1.8-1.7l.2-.2c.3-.3.5-.5.6-.9,0,0,0-.1.2-.1s.2,0,.3.1c.1.6-.2,1.1-.5,1.6-.2.4-.5.8-.4,1.1,0,.3,0,.5.1.8,0,.5.2,1,0,1.5-.2.6-.6.9-1,1.2-.3.2-.5.4-.7.6-.5.8-.8,1.7-1.2,2.6-.2.5-.4.9-.6,1.4,0,0,0,.1-.2.1s0,0,0,0Z" fill="#fff"/><path d="M22.2,81.1c.2,1-1,1.8-.9,2.7,0,.7.4,1.5.2,2.3-.3.8-1.2,1.1-1.7,1.7-.8,1.3-1.2,2.7-1.8,4.1h0s0,0,0,0c-.1-1.5.3-3.3,1.6-4.3.4-.3.9-.6,1.1-1,.6-.8-.2-1.6-.2-2.8,0-.6.4-1.1.8-1.5.4-.4.7-.7.9-1.2h0M22.2,80.7h0c-.2,0-.3.1-.4.3,0,.3-.3.5-.6.8,0,0-.1.1-.2.2-.6.6-.9,1.2-.9,1.8,0,.6.1,1.1.3,1.5.2.6.2.8,0,1.1-.2.3-.5.5-.8.7-.1,0-.2.2-.3.2-1.2.9-1.9,2.6-1.8,4.6,0,.2.1.3.3.3,0,0,.1,0,.1,0,.2,0,.3,0,.3-.2.2-.5.4-1,.6-1.4.3-.9.7-1.8,1.2-2.6.1-.2.4-.3.6-.5.4-.3.9-.6,1.1-1.3.2-.6,0-1.1,0-1.6,0-.3-.1-.6,0-.8,0-.3.2-.7.4-1.1.3-.5.6-1.1.5-1.7,0-.2-.2-.3-.4-.3h0Z" fill="#4b1428"/></svg>