<?xml version="1.0" encoding="UTF-8"?><svg id="Layer_1" xmlns="http://www.w3.org/2000/svg" width="335.9" height="379.3" viewBox="0 0 335.9 379.3"><path d="M61.8,176.7c.6,0,1.3.6,1.8.6s.1,0,.2,0c.5-.2,1.2-.4,1.7-.4s.3,0,.4,0c.6.3.6,1.5.6,1.5,0,0,1.7.9,2,1.7.2.6-.1,1.8,0,2.4,1.4,7.5-1.3,14.8-7.6,14.8s-2.6-.3-4-.8c-6.4-6.4-2.7-12.8,2-16.6,1.1-.9,1.5-2.5,2.5-3.1.1,0,.2,0,.3,0M61.8,175.4c-.3,0-.7,0-.9.2-.9.5-1.4,1.3-1.8,2-.3.5-.6.9-.9,1.2-2.1,1.7-5.7,5.2-6,9.9-.2,3.1,1.1,6,3.8,8.7l.2.2h.3c1.6.7,3.1,1,4.5,1,2.6,0,4.8-1,6.4-3,2.5-3,3.4-8,2.5-13.3,0-.1,0-.5,0-.8,0-.6,0-1.2,0-1.7-.3-.9-1.2-1.7-2-2.2-.1-.7-.5-1.6-1.4-1.9-.3-.1-.6-.2-.9-.2-.7,0-1.4.2-2,.4,0,0-.2,0-.3-.1-.4-.2-.9-.4-1.5-.4h0Z" fill="#fff"/><path d="M57,196.3c-1.7-2.4-.9-5.3.3-7.7.4-1.5,1.2-3,2.5-4,0,0,0,0,0,0-.7,1.5-1.5,2.7-2.3,4.1-1,2.4-.7,5.2-.5,7.6h0Z" fill="#fff"/><path d="M58.9,197.4c2.1-1.7,3.8-3.8,5-6.2.4-1.6.8-3.1,1.5-4.6,0,0,0,0,0,0,0,1.7-.5,3.3-1.4,4.7-.7,1.5-1.2,3.1-2.3,4.4-.7.7-2,1.7-2.9,1.7h0Z" fill="#fff"/><path d="M62.3,199c1.2.2,2.5.3,3.9-.5,3-1.5,3.6-4.5,3.6-4.5-1.3,2.5-2.9,4-7.3,3.5,0,0-2.2-.8-5-.5-1.9-2.1-3.9-2.8-3.9-2.8-3.6-2.6-3.8-4.7-3.1-7.5,0,0-1.5,2.6-.3,5.7.6,1.7,1.8,2.5,2.9,3.1,1.2,1.1.7,3.3,1.1,5,.1.6.5,1,.9,1.3,0,0,0,0,0,0,.2.1.5.3.8.4.4.1.7.2.9.2,0,0,0,0,0,0,.5,0,1,0,1.5-.4,1.3-1,2.3-3,3.9-3.2Z" fill="none" stroke="#fff" stroke-linecap="round" stroke-linejoin="round" stroke-width="1.3"/><path d="M57.3,195.9c-.7-.9-.6-2-.3-3,.2-1.6.3-3.6,1.5-4.7-.1,2-1.6,3.7-1.3,5.7,0,0,0,1.9,0,1.9h0Z" fill="#fff"/><path d="M59.6,196.6c.6-.9,1.1-1.7,1.8-2.6.8-1.6,1.1-3.3,2.2-4.8,0,1.8-1.2,3.4-2,4.9-.4,1-.9,2-1.9,2.5,0,0,0,0,0,0h0Z" fill="#fff"/><path d="M58.5,196.5c.3-.9.8-1.5,1.4-2.3.5-.7.9-1.6,1.4-2.3-.4,1.5-1.2,3.8-2.7,4.5h0Z" fill="#fff"/><path d="M59.6,190.7c-1,1.7-1,3.6-1.8,5.4-.4-.6,0-2.2.4-2.9.4-.8.8-2,1.5-2.5h0Z" fill="#fff"/><path d="M59.7,192.8c-.2,1-.5,1.9-.9,2.8-.1.2-.5.7-.8.7,0-.7.4-1.2.7-1.8.4-.5.7-1.5,1-1.7h0Z" fill="#fff"/><path d="M55.1,194.2c-.8-.7-.9-1.8-.8-2.8-.1-1.6-.4-3.6.7-4.9.2,2-.9,3.9-.2,5.8,0,0,.4,1.9.4,1.9h0Z" fill="#fff"/><path d="M55.7,188.4c-.4,1.9.1,3.8,0,5.7,0,0,0,0,0,0-.5-.9-.6-1.9-.5-2.9,0-.9.2-2.1.6-2.8h0Z" fill="#fff"/><path d="M55.7,190.9c.3.9.5,1.9.5,2.9,0,.2-.1.9-.3,1-.3-.6-.3-1.3-.2-1.9,0-.6-.1-1.6,0-1.9h0Z" fill="#fff"/><path d="M62.4,197.3l1.5-1.3c1.7-1.1,1.9-3.4,3.2-4.9,0,1.7-1.3,3.1-2.3,4.4-.5.9-1.3,1.7-2.3,1.8,0,0,0,0,0,0h0Z" fill="#fff"/><path d="M65.5,192.3c-.6,1.6-1.8,4-3.5,4.5,1.2-1.7,2.4-2.6,3.5-4.5h0Z" fill="#fff"/><path d="M63.9,193.9c-1,.9-1.4,2.2-2.6,2.9-.2-.3.6-1.4,1-1.7.4-.4,1.1-1.1,1.6-1.2h0Z" fill="#fff"/><path d="M56.3,201.9c-.5-.4-1-.7-1-1.4,0-.3.2-.6.2-.9.2-.9-.2-1.8-.4-2.7-.1-.4-.4-.7-.5-1.1.1,0,.6.4.7.5.9.8.6,2.3.4,3.3,0,.9.4,1.3.7,2.2,0,0,0,0,0,0h0Z" fill="#fff"/><path d="M59,200c0-.5.2-.9.6-1.1.4-.2.7-.4,1.2-.5h0c-.5.4-.8,1-1.1,1.4-.1,0-.5.3-.7.2h0Z" fill="#fff"/><path d="M64.1,176.6c-.2.6-.4,1-.7,1.6-.3.5-.5,1.1-.6,1.7h0c0-1.1,0-3,1.4-3.3,0,0,0,0,0,0h0Z" fill="#fff"/><path d="M67.8,177.6c-.1.8-.6,1.4-1.1,1.9-.4.3-1.3,1.6-1.6,1.6.6-1,1.1-2,1.7-2.8.2-.2.8-.8,1-.6h0Z" fill="#fff"/><path d="M289.7,120.2c.1,0,.2.1,0,.2-3.6,5.4-5.5,12.1-9.4,17.4-.9,2.9-1.4,7-.9,10,.5,1.2,1.1,3.2.9,4.6-.6,4.8-.9,10.5,2.4,14.4,3.3,2.1,5.7,5.3,7,9,.4,1.3-.2,3.3-.2,4.7-.3,1.4-.1,3.3-.7,4.5-.6-2.1-.6-4.5-.8-6.8,0-.6,0-1.3-.2-1.9-1.4-3-3.9-6-6.4-8.3-2.8-4.6-2.2-10.5-2.5-15.7,0-1.5-.6-2.3-1.4-3.9-1.2-4.1-.9-7.9.3-11.9,1.9-3.3,4.2-6.1,6-9.4,1.6-2.5,3.1-5.2,5.7-7,0,0,0,0,0,0M289.7,118.9h0c-.3,0-.6,0-.8.3-2.4,1.7-3.9,4.1-5.4,6.4-.2.3-.4.6-.6,1h0s0,0,0,0c-.9,1.5-1.9,3-2.9,4.5-1.1,1.6-2.2,3.2-3.2,4.9h0c0,.1,0,.3,0,.3-1.4,4.6-1.5,8.6-.3,12.6h0c0,.1,0,.2,0,.2.1.3.3.5.4.8.5,1,.8,1.6.8,2.5h0s0,0,0,0c0,1.1.1,2.3.1,3.5,0,4.4.2,8.9,2.6,12.7v.2c0,0,.2.1.2.1,2.7,2.5,4.9,5.4,6.1,7.9,0,.2,0,.6,0,1,0,.1,0,.2,0,.4h0s0,0,0,0c0,.4,0,.8,0,1.3.1,1.9.2,3.9.8,5.8l1,3.3,1.4-3.2c.5-1,.5-2.1.6-3.2,0-.6,0-1.1.2-1.6h0c0,0,0-.2,0-.2,0-.4,0-.9.2-1.4.2-1.3.4-2.7,0-3.8-1.5-4.1-4-7.4-7.4-9.6-2.8-3.5-2.6-8.8-2-13.2.3-1.9-.5-4.2-.9-5.2-.5-2.9,0-6.6.8-9,2-2.8,3.5-6.1,5-9.2,1.3-2.9,2.6-5.5,4.2-8,.3-.4.4-.9.2-1.4-.2-.5-.8-.9-1.3-.9h0Z" fill="#fff"/><path d="M43.1,228c0,0,.2.1,0,.2-3.3,5.3-5,12-8.5,17.3-.8,2.9-1.2,6.9-.6,9.8.5,1.2,1.1,3.1.9,4.5-.5,4.7-.6,10.4,2.6,14.1,3.2,2,5.5,5.1,6.8,8.8.4,1.2,0,3.3-.1,4.7-.2,1.4,0,3.2-.6,4.5-.6-2.1-.7-4.5-.9-6.7,0-.6,0-1.3-.2-1.8-1.4-2.9-3.8-5.9-6.2-8.1-2.8-4.5-2.2-10.4-2.7-15.4,0-1.5-.6-2.3-1.4-3.8-1.2-4-1-7.8,0-11.7,1.7-3.3,3.8-6.1,5.5-9.3,1.5-2.5,2.9-5.2,5.2-7,0,0,0,0,0,0M43.1,226.8h0c-.3,0-.6,0-.8.3-2.3,1.7-3.7,4.1-5,6.4-.2.3-.4.6-.6.9h0s0,0,0,0c-.8,1.5-1.7,2.9-2.6,4.4-1,1.5-2,3.1-2.9,4.9h0c0,.1,0,.3,0,.3-1.2,4.6-1.2,8.5,0,12.4h0c0,.1,0,.2,0,.2.1.3.3.5.4.8.5,1,.8,1.6.9,2.5h0s0,0,0,0c0,1.1.1,2.3.2,3.5.2,4.3.3,8.7,2.7,12.5h0c0,.1.1.3.1.3,2.6,2.4,4.8,5.2,5.9,7.7,0,.2,0,.6,0,1,0,.1,0,.2,0,.4h0s0,0,0,0c0,.4,0,.8,0,1.3.1,1.9.3,3.9.8,5.7l1,3.3,1.3-3.2c.4-1,.5-2.1.5-3.2,0-.6,0-1.1.1-1.6h0c0,0,0-.2,0-.2,0-.4,0-.9.1-1.3.1-1.2.3-2.6,0-3.7-1.4-4-3.9-7.2-7.2-9.3-2.8-3.4-2.6-8.7-2.1-13,.3-1.8-.5-4.1-1-5.1-.6-2.9,0-6.6.6-8.9,1.9-2.8,3.2-6,4.6-9.1,1.2-2.7,2.4-5.5,3.8-7.9.3-.4.3-.9.2-1.3-.2-.5-.7-.9-1.3-.9h0Z" fill="#fff"/><path d="M27.6,108.1c.7,2.1.9,4.5,1.2,6.7,0,.6,0,1.3.3,1.8,1.6,2.9,4.3,5.7,6.9,7.9,3.1,4.5,2.8,10.4,3.4,15.5.1,1.5.8,2.3,1.6,3.8,1.4,4,1.4,7.8.4,11.9-1.7,3.4-3.8,6.3-5.5,9.7-1.4,2.6-2.8,5.4-5.2,7.3,0,0,0,0,0,0,0,0-.2-.1,0-.2,3.3-5.6,4.8-12.4,8.3-17.9.7-3,1-7,.3-10-.6-1.2-1.3-3.1-1.1-4.5.4-4.8.3-10.5-3.2-14.2-3.4-1.9-6-4.9-7.5-8.6-.5-1.2,0-3.3,0-4.7.2-1.5,0-3.3.5-4.6M27.6,104.4l-1.3,3.3c-.4,1-.4,2.2-.4,3.3,0,.6,0,1.1,0,1.6h0c0,0,0,.2,0,.2,0,.4,0,.9,0,1.4-.1,1.3-.2,2.7.2,3.8,1.7,4,4.4,7.2,8,9.1,3,3.3,3.1,8.7,2.8,13-.2,1.9.7,4.1,1.2,5.1.7,2.9.3,6.6-.3,9-1.9,3-3.2,6.3-4.5,9.5-1.2,2.9-2.3,5.7-3.8,8.2-.3.4-.3.9-.1,1.4.2.5.7.9,1.3.9s.6-.1.9-.3c2.3-1.8,3.7-4.3,5-6.7.2-.3.4-.7.6-1h0s0,0,0,0c.8-1.6,1.7-3.1,2.6-4.6,1-1.6,2-3.3,2.9-5.1h0c0-.1,0-.3,0-.3,1.1-4.7,1-8.7-.5-12.6h0c0-.1,0-.2,0-.2-.2-.3-.3-.5-.4-.8-.6-1-.9-1.5-1-2.5h0s0,0,0,0c-.1-1.1-.2-2.3-.3-3.5-.3-4.3-.7-8.8-3.3-12.6h-.1c0-.1-.1-.3-.1-.3-2.9-2.3-5.2-5.1-6.6-7.5,0-.2-.1-.6-.1-1,0-.1,0-.2,0-.4h0s0,0,0,0c0-.4,0-.8-.1-1.3-.2-1.9-.4-3.9-1.1-5.7l-1.2-3.3h0Z" fill="#fff"/><path d="M143.6,293.6c-1.2,0-1.6-1-1.6-1.8s.4-1.8,1.6-1.8h11.4c2.5,0,3.2-1.5,3.2-3.1v-149.2c0-1.8-.7-2.7-2.7-2.7h-12.4c-1.2,0-1.8-.6-1.8-1.3s.7-1.8,1.8-1.8h47.9c33.1,0,54.6,14.9,54.6,80s-26.1,81.5-54.6,81.5h-47.4ZM182.9,135.4c-1.6,0-2.7,1-2.7,2.7v148.9c0,1.8.4,3.1,2.5,3.1h8.3c20.7,0,34-22.5,34-78s-13.1-76.7-34-76.7h-8.1Z" fill="#fff"/><path d="M91.4,241.3c-1.2,0-1.6-1-1.6-1.8s.4-1.8,1.6-1.8h11.4c2.5,0,3.2-1.5,3.2-3.1V85.8c0-1.8-.7-2.7-2.7-2.7h-12.4c-1.2,0-1.8-1.2-1.8-1.9s.7-1.5,1.8-1.5h44.5c27.6,0,45,10.8,45,47s-16.8,42.8-44.2,42.8h-8.3v65.1c0,1.9,1,3.1,3.1,3.1h12.4c1.3,0,2.1.9,2.1,1.8s-.7,1.8-2.1,1.8h-52.1ZM130.6,83.1c-1.6,0-2.7,1-2.7,2.7v79.9h8.3c14.2,0,21.1-9.3,21.1-39s-7.7-43.6-23-43.6h-3.7Z" fill="#fff"/><path d="M292.6,187.4c-15.4-22.9,18.9-134.5-30.3-133.8-.2,0-.1-.3-.2-.5C246,8.6,172.7,2.9,163.6,2.4h0c-9.1.5-82.4,6.2-98.6,50.7,0,.2,0,.5-.2.5-49.2-.7-14.8,110.9-30.3,133.8,15.4,22.9-18.9,133.1,30.3,132.4.2,0,.1.3.2.5,16.2,44.4,89.5,50.1,98.6,50.7h0c9.1-.5,82.4-6.2,98.6-50.7,0-.2,0-.5.2-.5,49.2.7,14.9-109.5,30.3-132.4ZM258.2,314.7c-.2,0-.1.3-.2.5-15.5,42.7-85.7,48.2-94.4,48.7h0c-8.7-.5-78.9-6-94.4-48.7,0-.1,0-.5-.2-.5-47.1.6-14.2-105.3-29-127.3,14.8-22-18.1-129.3,29-128.6.2,0,.1-.3.2-.4C84.7,15.5,154.9,10,163.5,9.5c-.5,0-.8,0-.8,0h1.7s-.3,0-.8,0c8.7.5,78.9,6,94.4,48.7,0,.1,0,.4.2.4,47.1-.6,14.2,106.6,29,128.6-14.8,22,18.1,128-29,127.3Z" fill="#fff"/><path d="M304.2,151.4c0,0,.1.1,0,.2-1.5.8-3.1,1.5-4.1,2.7-.9,1.2-.9,3.1-1.5,4.6-.8,4.9-6,6.8-7,11.4.4,4,.6,8.2.6,12.3-.1,1.4-1.4,2.4-1.7,3.5-.7,2.9,1,5.9,2,9,.6,1.5.3,3.3,1,4.8,1.2,3.1,3.5,5.5,4.4,8.7.5,4.9.1,9.9.5,14.8,0,4,2.6,7.6,3.8,11.5.1.4.2.9.2,1.5-.2.9-.8,1.2-1.2,1.5-1.8.8-1.8,1.6-1.7,3.2.2,6.5,3.7,13.5.5,19.8-1.5,2.8-3.3,4.1-4.6,5.8-1.3,4.7-3.1,9.4-3.9,14.2-.5,2.7-3.4,4.1-4.9,6-2,2.6-4.7,10-4.7,10s0,0,0,0c0-1.4,2.1-7.6,4-10.5,1.4-2.1,3.9-3.3,4.3-5.7.6-5,2.3-9.7,3.5-14.6.3-.9,1.2-1.5,1.8-2.2,1-1.1,2.1-2.5,2.8-3.8,2.7-5.8-.7-12.7-.6-18.9,0-1.3,0-3.2,1.5-4.1.6-.4,1.4-.6,1.7-.9,0-1-.5-2.2-.8-3.2-4-7.5-2-16.1-2.6-24.3-.8-3.1-3.3-5.6-4.5-8.6-.3-.7-.6-1.7-.6-2.5-.4-2.4-1.7-4.4-2.5-6.7-1-2.2-1.2-5.5.6-7.6.5-.7.3-1.3.3-2,0-3.4-.2-7.7-.4-11.1.5-3.1,3-5.5,5.3-7.4,1.5-1.5,2.3-4.4,3-6.5.2-.7.4-1.7,1.1-2.4,1.3-1.3,2.9-1.9,4.5-2.5,0,0,0,0,0,0M304.2,150.3h-.5c0,.1-.5.3-.5.3-1.4.6-3,1.2-4.3,2.6-.7.7-1,1.7-1.3,2.4,0,.1,0,.3-.1.4-.1.3-.2.7-.3,1-.6,1.8-1.3,3.9-2.3,5-2.3,1.9-5.1,4.6-5.7,8.1h0c0,.1,0,.3,0,.3.2,2.9.3,6.4.4,9.5v1.4c0,.2,0,.3,0,.5,0,.4,0,.6,0,.8-2.1,2.5-1.9,6.2-.8,8.7.3.9.7,1.7,1,2.5.6,1.3,1.2,2.6,1.4,3.9,0,.9.3,1.9.7,2.8.6,1.4,1.4,2.7,2.2,3.9.9,1.5,1.8,2.9,2.3,4.4.2,2.4.1,4.9,0,7.3-.1,5.8-.2,11.8,2.6,17.3,0,.2.1.4.2.6.2.5.4,1.1.5,1.5,0,0,0,0-.1,0-.3.1-.6.3-.9.5-1.4.9-2.2,2.7-2,5.1,0,2.3.4,4.7.9,7,.8,4.1,1.5,7.9-.1,11.3-.6,1.1-1.6,2.5-2.6,3.6-.1.1-.3.3-.4.4-.6.5-1.3,1.2-1.6,2.2h0s0,0,0,0c-.4,1.6-.8,3.2-1.3,4.7-.9,3.2-1.9,6.6-2.3,10-.2,1.2-1.1,2-2.1,3-.7.7-1.4,1.3-2,2.2-2,2.9-4.2,9.4-4.2,11.1v1.2h1.2c.8,0,1-.6,1.3-1.3,1.8-4.7,3.3-7.8,4.3-9.1.4-.5,1-1.1,1.7-1.7,1.4-1.3,3-2.7,3.4-4.9.5-3.1,1.5-6.3,2.4-9.3.5-1.5,1-3,1.4-4.6.4-.5.9-1,1.3-1.5,1-1.1,2.2-2.4,3.3-4.3,2.3-4.6,1.4-9.4.5-14-.4-2.2-.8-4.3-.9-6.4h0c0-1.6,0-1.7,1-2.1h0s0,0,0,0h0c.5-.3,1.4-.9,1.7-2.2h0s0,0,0,0c0-.8,0-1.3-.2-1.8h0c0-.1,0-.1,0-.1h0c-.4-1.5-1.1-2.9-1.7-4.3-1-2.3-2-4.6-2-6.9h0s0,0,0,0c-.2-2.2-.2-4.6-.2-6.8,0-2.6,0-5.3-.3-8h0c0-.1,0-.2,0-.2-.5-2-1.5-3.6-2.5-5.3-.7-1.2-1.4-2.4-1.9-3.6-.3-.6-.3-1.3-.4-2.1,0-.9-.2-1.8-.6-2.6-.2-.7-.5-1.5-.8-2.2-.8-2.2-1.6-4.3-1.2-6.1,0-.3.3-.7.6-1.1.4-.7,1-1.5,1.1-2.6h0c0,0,0-.1,0-.1,0-4.3-.2-8.4-.6-12.2.4-1.8,1.7-3.2,3.1-4.7,1.6-1.7,3.3-3.6,3.8-6.4.2-.6.4-1.3.5-1.9.2-.9.4-1.7.8-2.3.7-.9,1.9-1.5,3.1-2.1.2-.1.4-.2.6-.3.5-.3.8-.8.6-1.4-.1-.6-.6-1-1.2-1h0Z" fill="#fff"/><path d="M52.8,49.5s0,0,0,0c1.4,1,3,2,4,3.6.5.8.5,1.9.5,2.7.2,2.4.2,5.5,1.4,7.5,1.9,2.5,3.8,5.6,3.6,8.9-1.2,3.5-2.4,8-3.3,11.6-.2.7-.5,1.3-.2,2.2,1.3,2.5.3,6-1.3,8.1-1.4,2.3-3.4,4.1-4.4,6.6-.2.8-.7,1.8-1.3,2.5-2,2.9-5.2,5-6.9,8.1-2.8,8.5-2.9,17.9-9,25-.6,1-1.5,2.1-1.7,3.2.1.4,1,.8,1.5,1.3,1.2,1.2.9,3.3.5,4.6-1.6,6.5-6.8,13.1-5.5,19.8.4,1.5,1.2,3.2,1.9,4.6.5.8,1.3,1.7,1.3,2.7,0,5.4.5,10.8-.2,16.1-.2,2.7,2,4.4,3,6.9,1.3,3.4,2,6.8,2.8,10.3,0,0,0,.1,0,.1s0,0,0,0c-1-3.4-2.1-6.8-3.5-10-1-2.3-3.6-4.4-3.5-7.4.5-5.2-.2-10.5-.3-15.8-.9-2.1-2.5-3.9-3.3-7.1-1.6-7.4,3.8-14,5.7-20.8.5-1.7.8-2.6-.9-3.8-.4-.4-.9-.8-.9-1.8,0-.7.3-1.1.6-1.5,2.2-3.8,5.7-7.1,6.8-11.3,1.6-5.1,2.5-10.4,4.3-15.4,1.8-3.2,4.8-5.3,6.8-8.3,1.1-1.4,1.2-3.4,2.3-4.8,1.8-3,4.4-5.9,4.4-9.1,0-1.3-1-2.5-.8-4.1,1-4.3,2.3-8.6,3.8-12.8.2-5-4.7-8.1-4.3-13.4-.2-1.7.3-3.6-.3-5.1-.7-1.5-2.2-2.6-3.5-3.7,0,0,0-.2,0-.2M52.8,48.2c-.6,0-1.1.4-1.3.9-.2.5,0,1.1.4,1.5.2.2.4.3.6.5,1.1.9,2.1,1.8,2.6,2.8.3.7.2,1.6.2,2.5,0,.7,0,1.4,0,2.1-.2,3.1,1.1,5.5,2.3,7.6,1,1.8,2,3.6,2,5.6-1.4,3.9-2.6,8.2-3.7,12.7h0c0,0,0,.1,0,.1-.2,1.2.2,2.2.5,3,.2.5.3.9.3,1.3,0,2-1.4,4.1-2.8,6.3-.5.7-.9,1.4-1.4,2.1-.6.8-.9,1.8-1.3,2.7-.3.8-.5,1.5-1,2.1-.9,1.3-1.9,2.3-2.9,3.4-1.4,1.5-2.9,3-3.9,5h0c0,0,0,.2,0,.2-.9,2.8-1.7,5.6-2.3,8.3-.6,2.4-1.2,4.8-2,7.1h0s0,0,0,0c-.7,2.5-2.2,4.6-3.9,6.9-1,1.3-2,2.7-2.8,4.1h0s0,0,0,0h0c-.2.6-.5,1.1-.6,1.9h0s0,0,0,0c0,1.5.8,2.3,1.2,2.7h0c0,0,0,.1,0,.1h0c.9.7.9.8.4,2.4h0c-.6,2.2-1.6,4.4-2.6,6.6-2.1,4.7-4.3,9.5-3.1,14.8.6,2.3,1.5,3.9,2.3,5.3.4.6.7,1.2,1,1.9,0,1.7.1,3.4.2,5.1.2,3.4.4,6.9.1,10.3-.1,2.4,1.2,4.3,2.3,5.9.5.7,1,1.4,1.3,2.1,1.4,3.2,2.5,6.6,3.4,9.8.2.6.7,1,1.3,1s.8-.2,1.1-.5c.3-.3.3-.7.2-1.1v-.5c-.8-3.3-1.6-6.6-2.9-9.9-.4-1-.9-1.9-1.5-2.7-.8-1.3-1.5-2.3-1.4-3.6.5-3.7.4-7.4.3-11,0-1.7-.1-3.5,0-5.2h0s0,0,0,0c0-1.1-.6-2-1.1-2.7-.1-.2-.3-.4-.4-.6-.8-1.3-1.4-2.9-1.8-4.3-.7-3.9,1-7.8,2.8-12,1-2.3,2.1-4.7,2.7-7.2.5-1.5,1-4.1-.8-5.9-.2-.3-.6-.5-.8-.7,0,0,0,0,0,0,.2-.5.6-1,.9-1.5.1-.2.2-.4.4-.6,4.4-5.2,5.8-11.5,7.2-17.6.6-2.5,1.2-5.2,2-7.6.8-1.5,2.1-2.8,3.5-4.2,1.1-1.1,2.3-2.3,3.2-3.6.7-.8,1.2-1.9,1.5-2.8.6-1.4,1.5-2.6,2.5-3.9.6-.8,1.2-1.5,1.7-2.4,1.8-2.4,3-6.2,1.5-9.3,0-.2,0-.4.1-.9,0-.2,0-.3.1-.5l.4-1.5c.9-3.3,1.9-7,2.9-10h0c0-.1,0-.3,0-.3.3-3.8-1.9-7.2-3.8-9.7-.8-1.4-1-3.7-1.1-5.7,0-.4,0-.8,0-1.2,0-.1,0-.3,0-.4,0-.8,0-1.9-.7-2.9-1-1.7-2.5-2.7-3.8-3.6-.2-.1-.3-.2-.5-.4-.2-.2-.5-.3-.8-.3h0Z" fill="#fff"/><path d="M282.8,118.8c.2-.4.3-.7.5-.9,0,0,0,0,0,0,.3,0,.5,0,.8,0,.3.3.6.4,1,.4.1.2.2.3.3.5-3.4,10.8-2.8,23.6,6.8,24.2,1.9.1,4.2,4.1,6.5,3.3,5.1-1.7,4.3-7.1,4.6-10.8.7-7.9-6.1-14.3-14.9-17.7-.4-.6-.6-1-.6-1.3.3-.2.5-.5.6-.9.4-.2,1-.2,1.3-.3,2.1,1.1,4.3,3,9.2,4.6,3.5,1.2,6.5,5.1,10.2,5.2,4.3.1,10.4-3.4,10.2-8.6,0-1.3-1.9-3.2-2.1-4.3-.8-4.3-.9-6.7-3.5-8.2-2.7-1.6-6.3-1.7-10.6,0-3.8,1.5-8.2,4.3-13.1,8.6-.5.1-.9.2-1.2.2-.3-.3-.7-.5-1.2-.5,0,0,0,0,0,0,0,0,0,0,0-.1,0-.5-.5-.9-.9-1.1,0-.3,0-.6,0-.8,6.4-3.7,22.5-11.7,16.6-20.8-.7-1.1-.1-4.4-2.6-6.1-3.3-1.6-6.1.8-7.7.7-6-.3-9.7,8.8-8.8,25.6,0,.4-.2.7-.4.9,0,0,0,0-.1.1-.4.3-.9.2-1.4,0-.8-3.3-2.2-8.2-4.5-12s-7-8.5-11.7-7.5-3.6,5.7-6.3,8.5c-3.8,3-2.9,5.5-1.8,9.1,2,6.5,9.5,10.6,22.3,6.8.6,0,1,0,1.2.2,0,.1.2.3.3.4,0,.3-.3.8-.7,1.1-6.8,2.6-26.3,1.2-20.6,20,.8,2.7,1.1-.6,5.6,9.7,4.3,2.6,12.8-4,16.7-28Z" fill="none" stroke="#fff" stroke-miterlimit="10" stroke-width="1.9"/><path d="M282.3,110.6c-1.6-.2-.5,1.5-.9,1.8s-.7.3-1,.7-.5.5.1,1.4.7,0,.9.7,0,1,.3,1.4.2.6.7.6.7-.2.8.2.6.4,1,.5,1,.6,1.4.4.2-.5.7-.1.7.8,1.2.3.7-.6.6-1.1.3-.7.3-1.4.8-.5.9-1.2-.2-1.5-.6-1.5-.3-.4-.7-.9-.4-1.6-.8-1.4-.7.2-1.1-.1-.4-.8-.8-.9-1.3.2-1.4.5-1.5,0-1.5,0Z" fill="none" stroke="#fff" stroke-miterlimit="10" stroke-width=".6"/><path d="M281.3,111c-1.3-1.2-2-2.7-2.7-4.2-1.7-2.2-4-3.9-5.2-6.5,0,0,0-.1,0,0,1,.6,1.9,1.3,2.6,2.2,1.2,1.2,1.8,2.9,2.8,4.2,1.2,1.2,2.3,2.6,2.5,4.4,0,0,0,0,0,0h0Z" fill="#fff"/><path d="M280.4,113.1c-1.8-1.2-3.3-2.6-4.8-4-2.9-1.9-6.5-3-9-5.4,3.6.6,6.4,3,9.2,5.1,1.9,1,3.7,2.2,4.7,4.2,0,0,0,.1,0,0h0Z" fill="#fff"/><path d="M280.5,114.5c-1.5.1-2.8-.5-4.1-1.2-2.3-.5-4.7-.4-6.9-1.6,0,0,0,0,0-.1,1-.2,2-.2,2.9,0,1.4.2,2.7,1,4.1,1.4,1.5,0,2.9.4,4,1.4,0,0,0,0,0,0h0Z" fill="#fff"/><path d="M280.8,112.2c-1.3-.9-3-2.3-4.1-3.5-1.3-1.2-2.7-2.4-4.1-3.5h0c2.3,1.3,4.7,2.7,6.7,4.6.6.7,1.2,1.4,1.5,2.3h0Z" fill="#fff"/><path d="M281.8,111.8c-1.4-.7-2.3-1.8-3.2-3-.9-1.1-1.8-2.3-2.6-3.5,0,0,0,0,0,0,1.1,1,2.1,2,3.2,3,1.1,1,2.1,2.1,2.6,3.5,0,0,0,0,0,0h0Z" fill="#fff"/><path d="M281.7,110.1c-1.9-2.4-2.5-5.4-4.4-7.8,0,0,0,0,0,0,1.1,1,2.1,2.3,2.9,3.5.9,1.3,1.6,2.7,1.5,4.3,0,0,0,0,0,0h0Z" fill="#fff"/><path d="M279.7,113.4c-2.4-.2-4.3-1.8-6.5-2.6,0,0,0-.1,0-.1,1.2.2,2.3.5,3.5.8,1.2.3,2.3.8,3.1,1.8,0,0,0,0,0,0h0Z" fill="#fff"/><path d="M280.2,114.9c-1.1.7-2.3.6-3.4.4-1.1-.2-2.3-.4-3.4-.7,0,0,0-.1,0-.1,1.7,0,3.4,0,5.1,0,.6,0,1.1.2,1.7.4h0Z" fill="#fff"/><path d="M257.6,104.7c1.3.7,2,1.7,2.7,2.9,1.7,1.4,3.4,2.1,5.3,3.9,0,0,0,.1,0,.1-1,0-1.9-.4-2.6-.8-1.2-.7-1.9-2-2.9-2.9-1.2-.7-2.2-1.6-2.6-3,0,0,0,0,0,0h0Z" fill="#fff"/><path d="M262.6,95.4c1.4-.3,2.6.1,3.7,1,.3.2.5.4.8.5.6.1,1.3,0,1.8.6.2.2.5.4.6.9,0,0,0,0,0,0-1.1,0-1.8-.5-2.6-1.2-.9-.4-1.9-.2-2.8-.6-.6-.2-1.1-.5-1.6-1,0,0,0,0,0-.1h0Z" fill="#fff"/><path d="M257.7,101.4c2.7,1.6,5.1,3.7,7.8,5.3-1.5-.4-3-1.2-4.4-2-1.4-.7-2.8-1.7-3.5-3.3,0,0,0,0,0,0h0Z" fill="#fff"/><path d="M261.6,96.5c2.4.3,4.5,1.7,6.5,2.8.7.5,1.5.7,2,1.4,0,0,0,0,0,0-.5-.5-1.4-.7-2.1-1,0,0-2.2-.8-2.2-.8-1.5-.5-3-1.1-4.1-2.3,0,0,0-.1,0,0h0Z" fill="#fff"/><path d="M258.7,101c1,0,1.6.4,2.1,1.1.7.4,1.6.3,2.3.7.4.2,1.1.6,1.3,1.1-1.2.3-2.3-.2-3.1-1-.2-.2-.4-.4-.7-.5-.9-.1-1.6-.3-2-1.3,0,0,0,0,0,0h0Z" fill="#fff"/><path d="M261.4,98.3c1-.2,1.6.3,2.2.9,1,.4,2.1.2,3,1.2.2.2.5.5.5.8,0,0,0,0,0,0,0,0,0,0,0,0-1.1,0-2.1-.4-2.9-1.2-.2-.2-.4-.4-.7-.4-.9,0-1.6-.2-2.1-1.1,0,0,0,0,0,0h0Z" fill="#fff"/><path d="M264.2,93c1.1-.2,2.3,0,3.2.5.5.3,1,.5,1.5.6.6.1,1.3.2,1.7.7,0,0-.2-.2-.2-.2,1.3.6,2.4,1.7,2.8,3,0,0,0,0,0,0-1.1-.7-2.4-1.6-3.3-2.4-.3-.3-.7-.6-1.1-.8-.9-.6-2.1-.3-3.1-.7-.5-.2-1-.4-1.5-.7h0Z" fill="#fff"/><path d="M257.7,103.2c1,.4,1.8.9,2.5,1.7,0,0,2.3,2,2.3,2h0c-.9-.3-1.9-.8-2.8-1.3-1-.5-1.9-1.1-2.1-2.3,0,0,0,0,0,0h0Z" fill="#fff"/><path d="M264.7,92.3c1-.6,2.1-.3,3.1.2,1,.4,1.9.8,2.8,1.3h0c0,0-3-.5-3-.5-1.1,0-1.9-.3-2.9-.9,0,0,0-.1,0-.1h0Z" fill="#fff"/><path d="M263.3,94.6c1.4-1.1,3,.1,4.3.8.2.1.4.2.5.5,0,0-.1,0-.1,0-1-.5-2.4-.5-3.5-.7-.4-.1-.7-.3-1.2-.5h0Z" fill="#fff"/><path d="M257.8,106.5c1.5.9,1.8,2.8,3,4,0,0,0,0,0,0-.7-.4-1.4-1-2-1.7-.7-.6-1.2-1.4-1.1-2.4,0,0,0,0,0,0h0Z" fill="#fff"/><path d="M260.3,99.2c1.7.2,2.7,1.9,4.3,2.6,0,0,0,0,0,0-.9-.1-1.7-.4-2.5-.8-.9-.3-1.6-.9-1.9-1.8,0,0,0,0,0,0h0Z" fill="#fff"/><path d="M259.2,100.2c.8-.3,1.4,0,1.9.5.5.4,1,.8,1.5,1.3,0,0,0,0,0,0-.9-.4-1.9-.6-2.7-1-.3-.2-.5-.4-.7-.8h0Z" fill="#fff"/><path d="M318.2,119.4c-.8,1.3-2.1,1.8-3.4,2-1.2.5-2.3,1.5-3.6,1.8-.9.2-1.8.3-2.8,0h0c2.3-1.1,4.1-1.3,6.2-2,1.1-.8,2.1-1.6,3.5-1.8,0,0,0,0,0,0h0Z" fill="#fff"/><path d="M316.5,109.1c-1.3.5-2.5.5-3.8.2-.3,0-.6-.1-.9,0-.3,0-.6.2-.9.3-.5.1-1.5,0-1.9,0,.4-.6,1.2-.8,1.8-.8.3,0,.7.2,1,.2,1,0,1.9-.6,2.8-.5.6,0,1.3.2,1.9.6,0,0,0,0,0,.1h0Z" fill="#fff"/><path d="M319.2,116.3c-1.1,1.3-2.7,1.8-4.3,2-1.6.2-3.3.5-4.8.4,1.5-.4,3.1-.7,4.6-1.2,1.5-.6,2.9-1,4.5-1.3,0,0,0,0,0,0h0Z" fill="#fff"/><path d="M317.1,110.3c-2.1,1.2-4.7.8-7,.9-.7,0-1.7,0-2.3.3,0,0,0,0,0,0,.1-.3.8-.4,1.1-.5.8-.2,2.7-.5,3.5-.6,1.6-.3,3.1-.5,4.7-.1,0,0,0,0,0,.1h0Z" fill="#fff"/><path d="M318.4,115.6c-.4.5-1,.7-1.5.7-.6-.1-1.1-.2-1.6,0-1,.5-2.2.6-3.2,0,0,0,0,0,0-.1.5-.3,1-.5,1.6-.6.8-.2,1.6.3,2.4.1.8-.4,1.4-.7,2.4-.3,0,0,0,0,0,.1h0Z" fill="#fff"/><path d="M316.7,112.1c-.8.7-1.6.5-2.4.3-.8,0-1.5.6-2.3.6-.5,0-1.1,0-1.6-.2,0,0,0,0,0,0,.8-.9,2.1-1,3.2-.7.3,0,.5.1.8,0,.8-.4,1.5-.6,2.4,0,0,0,0,0,0,.1h0Z" fill="#fff"/><path d="M315.6,106.2c-1.1.2-2.1.3-3.2,0-.5-.2-1.1-.2-1.6,0-.4,0-1.1.3-1.3.4-1.3.5-2.6.9-3.9,1.2,0,0,0,0,0,0,.8-1.2,2.2-1.9,3.6-2,0,0-.2,0-.2,0,.6-.3,1.3-.1,1.9,0,1.1.2,2.2-.4,3.3-.2.5.1,1.1.3,1.6.6h0Z" fill="#fff"/><path d="M318.6,118c-.6,1-1.7,1.3-2.7,1.5-1,.2-2,.3-3.1.4h0c0-.1,2.8-1.2,2.8-1.2.9-.5,1.8-.7,2.9-.8,0,0,0,0,0,0h0Z" fill="#fff"/><path d="M315.5,105.4c-1.1.2-2,.2-3,0,0,0-3-.4-3-.4,0,0,0-.1,0-.1,1-.2,2-.3,3.1-.3,1.1-.1,2.2,0,3,.8,0,0,0,0,0,0h0Z" fill="#fff"/><path d="M316,108c-1.6.4-3.2-.6-4.8-.3,0,0,0,0,0,0,.4-.4.8-.3,1.2-.5,1.3-.1,2.9-.6,3.7.8,0,0,0,0,0,0h0Z" fill="#fff"/><path d="M317.4,113.3c-.6.8-1.4,1.1-2.4,1.1-.9,0-1.7,0-2.6,0,0,0,0-.1,0-.1,1.2-.2,2.4-.7,3.6-1.1.4,0,.8,0,1.3,0h0Z" fill="#fff"/><path d="M318.2,114.7c-.9.9-2.4.4-3.8.6,0,0,0-.1,0-.1.6-.3,1.2-.5,1.8-.7.7-.3,1.4-.4,2,.2,0,0,0,.1,0,.1h0Z" fill="#fff"/><path d="M303.5,138.4c-.9-1.1-1.2-2.3-1.5-3.7-1.1-1.9-2.4-3.2-3.4-5.6,0,0,0,0,0,0,.9.3,1.6,1.1,2.1,1.8.8,1.1,1,2.5,1.6,3.7.8,1.1,1.5,2.3,1.3,3.8,0,0-.1,0-.1,0h0Z" fill="#fff"/><path d="M297,145.6c-1.2-.6-1.9-1.8-2.2-3.1,0-.3-.2-.6-.4-.9-.2-.3-.5-.5-.7-.7-.4-.6-.6-1.2-.3-2,0,0,0,0,0,0,.8.8,1,1.5,1.2,2.5.4.8,1.3,1.4,1.7,2.2.3.6.5,1.1.6,1.8,0,0,0,0,0,0h0Z" fill="#fff"/><path d="M302.5,141.6c-1.1-3-1.6-6.1-2.6-9.1.9,1.3,1.5,2.8,2.2,4.3.7,1.5,1.1,3.1.6,4.8,0,0,0,0-.1,0h0Z" fill="#fff"/><path d="M298.5,146.2c-1.7-1.7-2.3-4.2-3.3-6.3-.2-.8-.7-1.5-.6-2.3,0,0,0,0,0,0,0,.7.7,1.4,1,2.1,0,0,1.2,2,1.2,2,.9,1.4,1.6,2.8,1.7,4.4,0,0,0,0,0,0h0Z" fill="#fff"/><path d="M302.6,143.5c-.8-.6-.9-1.3-1-2.2-.3-.7-1.1-1.2-1.4-2-.1-.4-.5-1.3-.3-1.7,1.1.5,1.6,1.6,1.7,2.7,0,.3,0,.6.2.8.6.6,1,1.3.8,2.3,0,0,0,0,0,0h0Z" fill="#fff"/><path d="M299.7,145.9c-.9-.5-1.1-1.2-1.2-2.1-.5-1-1.5-1.5-1.6-2.8,0-.2,0-.7.1-.9,0,0,0,0,0,0h0c.8.8,1.4,1.7,1.5,2.8,0,.3.1.5.3.8.6.6,1.1,1.2,1,2.2,0,0,0,0,0,0h0Z" fill="#fff"/><path d="M291.8,142.9c-1-.5-1.8-1.4-2.1-2.4-.2-.5-.4-1-.8-1.4-.4-.5-.9-1-.9-1.6,0,0,0,.2,0,.2-.6-1.3-.8-2.8-.2-4.1,0,0,.1,0,.1,0,.4,1.3.8,2.8,1,3.9,0,.4.2.9.3,1.4.3,1.1,1.4,1.6,1.9,2.5.3.5.5.9.7,1.5,0,0,0,0,0,0h0Z" fill="#fff"/><path d="M291,143.3c-1.2-.2-1.8-1.2-2.3-2.1-.5-.9-1-1.8-1.4-2.8h0c0,0,1.9,2.3,1.9,2.3.8.7,1.3,1.5,1.6,2.5,0,0,0,0,0,0h0Z" fill="#fff"/><path d="M293.9,143.1c-1.7,0-2.3-2-2.8-3.4,0-.2-.2-.4,0-.7h0c.4,1.1,1.5,2,2.2,2.9.2.3.4.7.6,1.1h0Z" fill="#fff"/><path d="M300.7,145.5c-1.8-2.1-2-4.9-3.4-7.3,0,0,0,0,0,0,.9,1.1,1.6,2.2,2.2,3.4.7,1.2,1.3,2.5,1.1,3.9,0,0,0,0,0,0h0Z" fill="#fff"/><path d="M301.7,144.1c-.8-.2-1.1-.9-1.2-1.6-.2-.6-.3-1.3-.3-1.9h0c.5.8,1.1,1.6,1.5,2.4,0,.3.1.6,0,1h0Z" fill="#fff"/><path d="M292.4,84.6c-.5,1.4-1.4,2.2-2.4,3.2-1.1,1.9-1.5,3.7-2.9,5.8,0,0-.1,0-.1,0-.2-1,0-1.9.4-2.7.5-1.3,1.6-2.2,2.4-3.3.5-1.3,1.2-2.5,2.6-3.1,0,0,0,0,0,0h0Z" fill="#fff"/><path d="M302,86.4c.1,1.4-.5,2.6-1.5,3.5-.2.2-.4.5-.6.8-.2.6-.3,1.3-.8,1.7-.3.2-.5.5-1,.5,0,0,0,0,0,0,.3-1.1.7-1.7,1.5-2.4.5-.8.5-1.9,1-2.7.3-.5.7-1,1.2-1.5,0,0,0,0,0,0h0Z" fill="#fff"/><path d="M295.6,83.8c-2,2.5-4.4,4.5-6.4,7,.6-1.4,1.6-2.8,2.6-4.1.9-1.3,2.1-2.6,3.8-3,0,0,0,0,0,0h0Z" fill="#fff"/><path d="M301.7,84.7c-.6,2.3-2.3,4.2-3.7,6.1-.5.6-.9,1.4-1.7,1.7,0,0,0,0,0,0,.6-.4.9-1.3,1.3-1.9,0,0,1.1-2.1,1.1-2.1.7-1.4,1.5-2.8,2.9-3.8,0,0,.1,0,0,0h0Z" fill="#fff"/><path d="M297.2,82.6c0,1-.6,1.5-1.4,2-.5.6-.5,1.6-1,2.2-.3.3-.8,1-1.3,1.1-.1-1.2.5-2.2,1.4-2.9.2-.2.4-.4.6-.6.2-.8.6-1.6,1.5-1.8,0,0,0,0,0,0h0Z" fill="#fff"/><path d="M300.7,83.9c0,1-.5,1.6-1.2,2.1-.6,1-.5,2.1-1.6,2.8-.2.1-.6.5-.9.4,0,0,0,0,0,0,0,0,0,0,0,0,.2-1.1.7-2,1.6-2.7.2-.2.4-.4.5-.6.2-.8.4-1.6,1.4-2,0,0,0,0,0,0h0Z" fill="#fff"/><path d="M303.6,90.3c0,1.1-.2,2.2-1,3.1-.4.4-.6.9-.8,1.4-.2.6-.4,1.3-.9,1.6,0,0,.2-.1.2-.1-.8,1.2-2,2.1-3.4,2.3,0,0,0,0,0,0,.9-1,2-2.2,2.8-2.9.3-.3.7-.6,1-1,.7-.8.6-2.1,1.2-3,.2-.5.5-.9.9-1.4h0Z" fill="#fff"/><path d="M304.1,92.5c.4,1.1,0,2.1-.6,3-.5.9-1,1.8-1.6,2.6h0s1-2.9,1-2.9c.2-1,.6-1.9,1.3-2.7,0,0,.1,0,.1,0h0Z" fill="#fff"/><path d="M302.5,88.4c.9,1.5-.6,3-1.4,4.1-.2.1-.3.3-.6.4h0c.7-1,.8-2.4,1.2-3.5.2-.4.4-.7.7-1.1h.1Z" fill="#fff"/><path d="M299.9,83.2c-.9,2.6-3.1,4.3-4.5,6.7,0,0,0,0,0,0,.5-1.3,1.1-2.5,1.7-3.7.6-1.2,1.5-2.4,2.7-3,0,0,0,0,0,0h0Z" fill="#fff"/><path d="M298.1,83.1c.2.8-.2,1.4-.7,1.8-.5.5-1,.9-1.5,1.3h0c.5-.9.8-1.8,1.3-2.6.2-.2.5-.4.9-.6h0Z" fill="#fff"/><path d="M269.8,146.5c.3-1.4,1.1-2.4,2-3.4.8-2.1,1.1-3.9,2.2-6.2,0,0,.1,0,.1,0,.3.9.2,1.9,0,2.8-.3,1.3-1.4,2.3-2,3.6-.3,1.3-.9,2.6-2.2,3.3,0,0,0,0,0,0h0Z" fill="#fff"/><path d="M260.7,136.2c0-1.4.7-2.5,1.7-3.4.3-.2.5-.4.6-.7.2-.6.4-1.3.9-1.7.3-.2.5-.4,1-.5,0,0,0,0,0,0-.3,1.1-.8,1.6-1.7,2.3-.5.8-.6,1.8-1.2,2.6-.4.5-.7,1-1.3,1.4,0,0,0,0,0,0h0Z" fill="#fff"/><path d="M266,146.2c1.3-2.9,3.2-5.5,4.5-8.3-.2,1.5-.9,3.1-1.5,4.6-.6,1.5-1.4,3-2.9,3.8,0,0,0,0,0,0h0Z" fill="#fff"/><path d="M261.3,138.1c.7-2.3,2.6-4,4-5.8.6-.6,1-1.3,1.8-1.6,0,0,0,0,0,0-.6.4-1,1.3-1.4,1.9,0,0-1.3,2-1.3,2-.8,1.4-1.7,2.7-3.1,3.6,0,0,0,0,0,0h0Z" fill="#fff"/><path d="M265.1,144.8c0-1,.5-1.5,1.2-2.1.4-.7.4-1.6.8-2.3.2-.4.7-1.1,1.2-1.2.2,1.2-.3,2.3-1.2,3-.2.2-.4.4-.5.6-.2.8-.4,1.6-1.4,2,0,0,0,0,0,0h0Z" fill="#fff"/><path d="M262.8,139.4c0-1,.6-1.5,1.3-2,.6-.9.6-2.1,1.7-2.7.2-.1.6-.4.9-.3,0,0,0,0,0,0h0c-.3,1.1-.8,2-1.8,2.6-.2.2-.4.3-.6.6-.2.8-.5,1.6-1.5,1.9,0,0,0,0,0,0h0Z" fill="#fff"/><path d="M259.3,132.2c0-1.1.4-2.2,1.2-3,.4-.4.7-.8.9-1.3.3-.5.4-1.3,1-1.6,0,0-.2.1-.2.1.8-1.1,2.1-2,3.5-2.1,0,0,0,0,0,0-1,1-2.1,2-3,2.7-.4.3-.7.6-1,.9-.8.8-.7,2-1.3,2.9-.3.5-.6.9-1,1.3h0Z" fill="#fff"/><path d="M267.8,147.1c.2-1.1.6-1.9,1.2-2.8,0,0,1.5-2.7,1.5-2.7h0c-.2,1-.5,2-.8,3-.3,1-.8,2.1-1.9,2.5,0,0,0,0,0,0h0Z" fill="#fff"/><path d="M260.1,134.4c-.8-1.6.7-3,1.7-4,.2-.1.3-.3.6-.4h0c-.7,1-1,2.4-1.4,3.4-.2.4-.4.7-.7,1h-.1Z" fill="#fff"/><path d="M272.7,144.1c.1-1.8,1.7-2.9,2.3-4.5,0,0,.1,0,.1,0,0,.9-.3,1.7-.6,2.5-.2.9-.7,1.7-1.7,2,0,0,0,0,0,0h0Z" fill="#fff"/><path d="M263.3,140.7c.6-1.7,2.4-2.3,3.4-3.7,0,0,0,0,0,0-.3.8-.7,1.6-1.3,2.3-.5.8-1.2,1.4-2.2,1.5,0,0,0,0,0,0h0Z" fill="#fff"/><path d="M264.3,142.7c-.1-.8.3-1.4.8-1.8.5-.4,1-.8,1.6-1.2h0c-.5.9-.9,1.8-1.5,2.5-.2.2-.5.4-.9.5h0Z" fill="#fff"/><path d="M281.3,117.8c-1.4,1.1-3,1.5-4.6,2-2.5,1.3-4.5,3.3-7.3,4.1,0,0,0,0,0,0,.7-.9,1.6-1.6,2.6-2.2,1.4-.9,3.1-1.3,4.6-2,1.4-1,2.9-1.8,4.7-1.8,0,0,0,0,0,0h0Z" fill="#fff"/><path d="M282.5,117.9c-1.5,1.6-3.1,2.8-4.8,4.1-2.4,2.6-4,5.9-6.8,8,1.1-3.5,4-5.9,6.6-8.3,1.3-1.7,2.8-3.3,5-3.9,0,0,0,0,0,0h0Z" fill="#fff"/><path d="M282.6,118.1c-.1,1.5-1,2.7-1.8,3.8-.9,2.2-1.2,4.6-2.7,6.5,0,0,0,0-.1,0,0-1,.2-2,.4-2.9.4-1.4,1.5-2.5,2.1-3.8.3-1.4.8-2.8,2-3.8,0,0,0,0,0,0h0Z" fill="#fff"/><path d="M282.2,118c-1.3.9-3.1,2.1-4.5,2.8-1.5.9-3.1,1.9-4.6,2.8h0c2-1.9,4.1-3.7,6.5-5,.8-.4,1.7-.7,2.7-.7,0,0,0,.1,0,.1h0Z" fill="#fff"/><path d="M281.8,118.6c-.3,2.4-2.7,3.7-4.4,5.2,0,0,0,0,0,0,.7-.9,1.4-1.8,2-2.7.6-1,1.3-1.8,2.3-2.5,0,0,0,0,0,0h0Z" fill="#fff"/><path d="M287.4,118.2c1.8.3,3.1,1.4,4.3,2.6,1.4,1,3,1.7,4.2,2.8.8.8,1.6,1.6,2.1,2.7,0,0,0,.1,0,0-2.6-1.3-4.3-3.5-6.5-5.3-1.5-.7-3-1.5-4.2-2.8,0,0,0-.1,0,0h0Z" fill="#fff"/><path d="M286.4,118.2c1.9,1.1,3.1,3,3.9,5,1.9,2.9,4.2,6,4.5,9.6-2.2-2.8-3-6.3-4.7-9.4-1.3-1.6-2.6-3.2-3.7-5.1,0,0,0-.1,0,0h0Z" fill="#fff"/><path d="M286.1,118.2c.8,1.3.8,2.8.6,4.2.1,1.4.7,2.8.6,4.3,0,1-.2,1.9-.6,2.9,0,0,0,0-.1,0-.8-2.4-.2-4.7-.3-7.1-.4-1.4-.8-2.8-.4-4.2,0,0,0,0,.1,0h0Z" fill="#fff"/><path d="M287.1,118.4c1.4.5,2.5,1.5,3.4,2.7,1,1.1,2,2.1,3,3.2h0c-1.2-.8-2.3-1.7-3.4-2.6-1.2-.9-2.3-1.8-3-3.2,0,0,0,0,0,0h0Z" fill="#fff"/><path d="M286.5,118.7c1,.8,1.4,2,1.6,3.2.3,1.2.4,2.3.5,3.5h-.1c-.6-1.7-1.3-3.2-1.9-4.9-.1-.6-.2-1.1-.2-1.8h0Z" fill="#fff"/><path d="M290.1,113.5c1-1.5,2.6-2.3,4.2-2.8,1.5-.8,2.8-2,4.4-2.6,1.1-.4,2.1-.7,3.3-.8,0,0,0,0,0,0-2.2,1.8-5,2.4-7.5,3.6-1.3,1.1-2.6,2.1-4.3,2.6,0,0,0,0,0,0h0Z" fill="#fff"/><path d="M289.3,114.5c1.7-1.4,3.9-1.7,6.1-1.8,3.4-.7,7.1-1.7,10.5-.5-3.4,1-7,.4-10.5.9-2,.6-3.9,1.3-6.1,1.5,0,0,0,0,0,0h0Z" fill="#fff"/><path d="M289.2,114.5c1.5-.4,2.9,0,4.2.7,1.4.3,2.9.2,4.3.7.9.3,1.8.7,2.6,1.4,0,0,0,.1,0,0-2.5,0-4.5-1.2-6.8-1.8-1.4,0-2.9,0-4.2-.9,0,0,0,0,0-.1h0Z" fill="#fff"/><path d="M289.1,114.1c1.3-1.4,3.1-2,4.9-2.3,1.8-.4,3.5-.7,5.3-1h0c-2.6.9-5.1,1.8-7.6,2.7,0,0-2.6.7-2.6.7h0Z" fill="#fff"/><path d="M289.9,114.3c1.1-.6,2.4-.6,3.6-.3,1.2.2,2.3.5,3.5.8h0c-1.8,0-3.5,0-5.3,0-.6,0-1.1-.2-1.7-.4h0Z" fill="#fff"/><path d="M285.7,110.1c.9-1.5,2.2-2.5,3.6-3.5,1.8-2.1,3-4.7,5.3-6.4,0,0,.1,0,0,0-.4,1.1-.9,2.1-1.6,3-1,1.4-2.5,2.3-3.6,3.6-.9,1.4-2.1,2.7-3.8,3.4,0,0,0,0,0,0h0Z" fill="#fff"/><path d="M284.8,110.2c.6-2.1,1.5-3.9,2.4-5.8,1-3.4.9-7.1,2.4-10.2.5,3.6-.9,7-2.1,10.3-.4,2.1-1,4.2-2.6,5.7,0,0-.1,0,0,0h0Z" fill="#fff"/><path d="M285.3,110.1c.7-1.4,1.8-3.3,2.7-4.6,1-1.5,1.9-3.1,2.8-4.6h0c-1,2.6-2,5.1-3.5,7.4-.6.7-1.2,1.4-2.1,1.9h0Z" fill="#fff"/><path d="M285,109.5c-.5-2.4.4-4.6.5-7,0,0,.1,0,.1,0,.2,1.2.3,2.4.3,3.5,0,1.2,0,2.4-.8,3.5,0,0-.1,0-.1,0h0Z" fill="#fff"/><path d="M287.7,116.3c1.2-.3,0-1.2.2-1.5s.5-.4.5-.7.2-.4-.4-.9-.5,0-.8-.3-.3-.7-.6-.9-.3-.4-.6-.3-.4.3-.6,0-.5-.1-.8-.1-.8-.2-1.1,0,0,.4-.5.2-.7-.4-.9,0-.3.6-.2.9,0,.5.1,1-.5.6-.3,1,.5,1,.7.9.3.2.7.5.7,1.1.9.8.4-.3.8-.2.4.5.8.4.9-.4.9-.7,1.1-.4,1.1-.4Z" fill="none" stroke="#fff" stroke-miterlimit="10" stroke-width=".5"/><path d="M283.1,112.8c-.9.2,0,.9-.2,1.1s-.4.3-.4.5-.2.3.3.7.4,0,.6.2.2.5.4.7.2.3.5.2.3-.2.4,0,.4.1.6.1.6.2.8,0,0-.3.4-.2.5.3.7,0,.3-.4.1-.7,0-.4,0-.8.4-.4.3-.8-.3-.8-.5-.7-.2-.2-.5-.4-.5-.8-.7-.7-.3.2-.6.1-.3-.4-.6-.4-.7.3-.7.5-.8.3-.8.3Z" fill="none" stroke="#fff" stroke-miterlimit="10" stroke-width=".4"/><path d="M286.7,114.9c.5-.4-.2-.6-.2-.8s.2-.3.1-.4,0-.3-.4-.4-.2.1-.4,0-.3-.3-.5-.4-.2-.1-.4,0-.2.2-.3.1-.3,0-.4,0-.4,0-.5.2,0,.2-.2.2-.4,0-.5.2,0,.3,0,.5,0,.3.2.5-.1.4,0,.6.4.4.5.3.2,0,.4.1.5.4.6.2.2-.2.4-.2.3.1.5,0,.4-.4.3-.5.5-.4.5-.4Z" fill="none" stroke="#fff" stroke-miterlimit="10" stroke-width=".3"/><path d="M39.5,280.9c.2.3.4.5.5.7,0,0,0,0,0,0,.2,0,.5,0,.7,0,.2-.3.5-.4.9-.5,0-.2.2-.3.2-.5-4.3-9.1-5.3-20.4,3-22s3.2-4.1,5.3-3.7c4.7.8,4.6,5.7,5.4,8.9,1.6,6.8-3.6,13.3-10.9,17.3-.3.5-.4.9-.4,1.2.3.1.5.4.6.7.4.1.9,0,1.2,0,1.7-1.2,3.4-3.1,7.5-5.2,2.9-1.5,5.1-5.2,8.3-5.8,3.7-.6,9.6,1.7,10,6.3.1,1.2-1.2,3-1.3,4.1-.2,3.9,0,5.9-2.1,7.7-2.2,1.7-5.3,2.3-9.2,1.4-3.5-.8-7.7-2.7-12.5-5.9-.4,0-.8,0-1.1,0-.2.3-.5.5-1,.5,0,0,0,0,0,0,0,0,0,0,0,.1,0,.5-.3.9-.7,1,0,.3,0,.6,0,.7,6.1,2.5,21.2,7.5,17.1,16.2-.5,1.1.4,3.9-1.6,5.7-2.7,1.8-5.4,0-6.9.4-5.3,1-9.6-6.5-10.8-21.4-.1-.4-.3-.6-.5-.7,0,0,0,0-.1,0-.4-.2-.8,0-1.2.2-.3,3-.9,7.4-2.5,11.1-1.6,3.7-5.1,8.3-9.3,8-1.9-.1-3.8-4.6-6.5-6.7-3.7-2.2-3.2-4.5-2.7-7.7.9-6,7-10.4,18.7-8.7.5,0,.9-.2,1-.3,0-.1.1-.2.2-.4,0-.3-.4-.6-.7-.9-6.3-1.5-23.2,2.2-20.5-15s1,.4,3.7-9.2c3.4-2.8,11.7,1.9,18.1,22.5Z" fill="none" stroke="#fff" stroke-miterlimit="10" stroke-width="1.7"/><path d="M40,288.1c-1.4.3-.7-1.3-1-1.5s-.7-.2-.9-.5-.5-.4,0-1.2.6-.2.7-.7,0-.9.1-1.3.1-.6.5-.6.6,0,.6-.3.5-.4.8-.6.8-.6,1.2-.5.2.5.6,0,.5-.8,1-.4.7.4.6.9.3.6.4,1.2.8.4.9.9,0,1.4-.3,1.4-.2.4-.5.9-.2,1.5-.5,1.4-.6,0-.9.2-.2.7-.6.9-1.2,0-1.3-.3-1.4.1-1.4.1Z" fill="none" stroke="#fff" stroke-miterlimit="10" stroke-width=".6"/><path d="M39.2,287.9c0,1.6-.8,2.9-1.7,4.1-.7,1.3-1,2.8-1.9,4.1-.6.8-1.2,1.6-2,2.2,0,0,0,0,0,0,.8-2.4,2.5-4.2,3.7-6.4.4-1.4.9-2.8,1.9-4,0,0,0,0,0,0h0Z" fill="#fff"/><path d="M38.1,286.2c-.6,1.9-2,3.2-3.6,4.3-1.4,1.3-2.5,2.8-4.1,3.9-1,.7-2.1,1.4-3.3,1.8,0,0,0,0,0,0,2.1-2.4,4.9-3.7,7.3-5.8,1.2-1.5,2.3-2.9,3.7-4.1,0,0,0,0,0,0h0Z" fill="#fff"/><path d="M38,285c-.9,1-2.1,1.5-3.4,1.7-1.2.5-2.2,1.4-3.4,1.7-.8.2-1.7.4-2.6.3,0,0,0,0,0,0,1.8-1.3,3.9-1.5,5.9-2.3,1-.8,2.1-1.4,3.4-1.5,0,0,0,0,0,0h0Z" fill="#fff"/><path d="M38.6,286.9c-.3,1.7-1.5,2.9-2.7,4-1.2,1.1-2.4,2.2-3.6,3.2,0,0,0,0,0,0,1.6-1.7,3.1-3.6,4.6-5.4,0,0,1.7-1.7,1.7-1.7h0Z" fill="#fff"/><path d="M39.5,287.2c-.3,1.3-1,2.4-1.9,3.4-.8,1-1.6,2-2.4,3,0,0,0,0,0,0,.9-1.7,1.8-3.4,2.8-5,.4-.5.8-1,1.4-1.4h0Z" fill="#fff"/><path d="M39.6,288.6c.2,1.4-.1,2.7-.8,4-.6,1.2-1.2,2.4-2.1,3.5h0c.6-1.2,1.1-2.5,1.5-3.7.3-1.3.7-2.5,1.4-3.7,0,0,0,0,0,0h0Z" fill="#fff"/><path d="M37.5,286c-1.1,1.9-3.5,2.3-5.4,3.1,0,0,0,0,0,0,.9-.6,1.8-1.1,2.6-1.7.8-.7,1.7-1.2,2.8-1.4,0,0,0,0,0,0h0Z" fill="#fff"/><path d="M37.6,284.7c-1.8,1-3.9.7-5.9,1.1,0,0,0,0,0,0,.9-.4,1.9-.7,2.9-1,1-.4,2-.5,3.1,0,0,0,0,0,0,0h0Z" fill="#fff"/><path d="M19,296.3c.1-1.3,1-2.2,1.9-3,.8-.9,1.2-2.1,2.2-2.9.6-.5,1.3-1,2.2-1.1h0c-1.2,1.6-2.8,2.7-4.2,4.1-.5,1.1-1,2.1-2.1,2.8,0,0,0,0,0,0h0Z" fill="#fff"/><path d="M24.6,303.7c.8-.9,1.7-1.4,2.9-1.7.3,0,.6-.2.8-.3.2-.2.4-.4.6-.6.4-.3,1.1-.6,1.6-.7-.1.7-.6,1.1-1.2,1.3-.3.1-.6.1-.8.2-.7.4-1.3,1.2-2.1,1.5-.5.2-1.1.4-1.7.3,0,0,0,0,0,0h0Z" fill="#fff"/><path d="M19.5,299.1c.3-1.5,1.4-2.5,2.6-3.3,1.1-.8,2.4-1.7,3.6-2.3-1,.9-2.2,1.8-3.1,2.8-.5.5-2.6,2.8-3.1,2.8h0Z" fill="#fff"/><path d="M23.6,303c1.2-1.8,3.4-2.5,5.2-3.5.5-.3,1.4-.7,1.7-1.1,0,0,0,0,0,0,0,.2-.2.4-.3.5-.2.3-.9.8-1.2,1-1,.7-2.4,1.8-3.4,2.4-.6.3-1.2.6-2,.8,0,0,0,0,0,0h0Z" fill="#fff"/><path d="M20.4,299.3c.2-.5.5-.9.9-1.1.5-.1,1-.3,1.2-.7.6-.8,1.5-1.4,2.5-1.3,0,0,0,0,0,0-.3.5-.6.8-1,1.1-.5.4-1.4.4-1.9.9-.4.6-.9,1.2-1.7,1.2,0,0,0,0,0,0h0Z" fill="#fff"/><path d="M23.2,301.4c.3-.8,1-1.1,1.7-1.2.6-.4,1-1.1,1.6-1.4.4-.2.9-.4,1.4-.5,0,0,0,0,0,0-.3,1.1-1.2,1.6-2.2,1.8-.2,0-.5.1-.7.3-.5.6-1,1.1-1.9,1,0,0,0,0,0,0h0Z" fill="#fff"/><path d="M26.3,305.6c.8-.6,1.6-1.1,2.5-1.2.5,0,.9-.3,1.3-.6.3-.3.6-.6.9-.9.7-.8,1.7-1.7,2.6-2.5,0,0,0,0,0,0-.2,1.3-1,2.3-2,3,0,0,.1-.2.1-.2-.3.5-1,.6-1.4.8-.9.3-1.5,1.2-2.5,1.4-.5.1-1,.2-1.5.2h0Z" fill="#fff"/><path d="M19.2,297.6c0-1,.8-1.7,1.6-2.3.7-.6,1.5-1.1,2.3-1.5h0c0,0-1.8,2.1-1.8,2.1-.6.8-1.1,1.3-2,1.8,0,0,0,0,0,0h0Z" fill="#fff"/><path d="M26.8,306.3c.8-.6,1.5-.9,2.4-1.1,0,0,2.5-.9,2.5-.9h0c-.7.6-1.5,1.1-2.3,1.5-.8.5-1.7.9-2.7.6,0,0,0,0,0,0h0Z" fill="#fff"/><path d="M25.3,304.4c1.1-1,2.8-.8,3.9-1.7,0,0,0,0,0,0-.1.4-.5.6-.8.9-.9.6-2.1,1.6-3.2.9,0,0,0,0,0,0h0Z" fill="#fff"/><path d="M18.9,294.7c-.2-.9,0-1.6.6-2.2.4-.6,1-1.2,1.6-1.7h0c-.6,1-.9,2.1-1.4,3.1-.2.3-.4.6-.8.9h0Z" fill="#fff"/><path d="M22.1,300.8c.1-.9.7-1.4,1.4-1.8.7-.4,1.3-.8,2.1-1h0c-.9.7-1.6,1.6-2.4,2.4-.3.2-.6.4-1.1.5h0Z" fill="#fff"/><path d="M21,300c.4-1.1,1.8-1.3,2.8-1.9,0,0,0,0,0,0-.3.5-.7.9-1.1,1.3-.4.5-.9.8-1.6.6,0,0,0,0,0,0h0Z" fill="#fff"/><path d="M70.4,276.1c-1.3,0-2.3-.6-3.3-1.2-1.9-.4-3.8-.3-5.7-.9,0,0,0,0,0,0,.8-.4,1.6-.4,2.4-.4,1.2,0,2.3.8,3.4,1.1,1.2,0,2.4.4,3.3,1.4,0,0,0,0,0,0h0Z" fill="#fff"/><path d="M70.2,285.4c-1,.8-2.1.9-3.3.7-.3,0-.6,0-.8,0-.5.2-1.1.5-1.7.3-.2,0-.8-.2-.8-.5.9-.4,1.6-.3,2.5-.1.8,0,1.6-.6,2.4-.6.6,0,1.1,0,1.7.1,0,0,0,0,0,0h0Z" fill="#fff"/><path d="M71.6,278.7c-2.8-.2-5.5-.9-8.3-1.1,1.3-.3,2.8-.2,4.3-.2,1.4,0,2.9.2,4.1,1.2,0,0,0,0,0,0h0Z" fill="#fff"/><path d="M70.5,284.2c-2,.7-4.2.4-6.3.4-.4,0-1.2,0-1.6-.1-.2,0-.7-.2-.5-.3.5.2,1.5,0,2.1,0,1.2,0,2.9-.4,4.2-.4.7,0,1.4.1,2.1.4,0,0,0,0,0,0h0Z" fill="#fff"/><path d="M71,279.4c-.8.5-1.4.3-2.1,0-.7,0-1.4.4-2.1.4-.4,0-1.1,0-1.5-.4.8-.7,1.9-.8,2.8-.4.2,0,.5.1.7.1.7-.3,1.4-.4,2.1.2,0,0,0,0,0,0h0Z" fill="#fff"/><path d="M70,282.7c-.7.6-1.4.4-2.1.2-.2,0-.5,0-.7.1-1,.4-2,.5-2.9-.2,0,0,0,0,0,0,.9-.4,1.8-.5,2.8-.2.2,0,.5.1.7,0,.7-.3,1.4-.5,2.1,0,0,0,0,0,0,0h0Z" fill="#fff"/><path d="M69.8,287.9c-.8.6-1.7,1-2.7.9-.5,0-1,0-1.4.1-.5.1-1.2.4-1.7.2,0,0,.2,0,.2,0-1.2,0-2.5-.4-3.4-1.3,0,0,0,0,0,0,1.7.1,3.2.5,4.8.8,1,.1,1.8-.6,2.7-.7.5,0,.9-.1,1.4,0h0Z" fill="#fff"/><path d="M70.9,277.3c-1,.1-1.8,0-2.6-.3,0,0-2.6-.6-2.6-.6h0c.9-.2,1.8-.2,2.7-.1.9,0,1.9.1,2.6,1,0,0,0,0,0,0h0Z" fill="#fff"/><path d="M69.8,288.7c-.6.9-1.6,1-2.5,1.1-.9,0-1.8.1-2.7.1h0c0,0,2.6-.8,2.6-.8.9-.4,1.7-.5,2.6-.4,0,0,0,0,0,0h0Z" fill="#fff"/><path d="M69.9,286.3c-.7,1.4-2.5,1.1-3.7,1.1-.2,0-.4,0-.6-.2h0c1,0,2.1-.6,3.1-.9.4,0,.7,0,1.1,0h0Z" fill="#fff"/><path d="M70.5,281.5c-1.5.5-2.9-.4-4.4-.3,0,0,0,0,0,0,.7-.2,1.5-.3,2.3-.4.8-.1,1.6,0,2.2.7,0,0,0,0,0,0h0Z" fill="#fff"/><path d="M70.9,280.2c-.5.5-1.1.6-1.7.4-.6,0-1.1-.2-1.7-.4h0c.9-.2,1.7-.4,2.5-.4.2,0,.8.2.9.4h0Z" fill="#fff"/><path d="M55.3,261.2c.4,1.3,0,2.4-.6,3.5-.4,1.1-.3,2.4-.9,3.5-.4.7-.9,1.4-1.6,1.8,0,0,0,0,0,0,.5-1.9,1.6-3.5,2.3-5.3,0-1.2.2-2.3.8-3.4,0,0,0,0,0,0h0Z" fill="#fff"/><path d="M48.6,255.7c0,1.2-.5,2.2-1.2,3.1-.2.2-.3.5-.4.7,0,.3,0,.6,0,.9,0,.5-.4,1.2-.8,1.5-.2-.3-.2-.7-.2-.9,0-.6.4-1.1.7-1.5.3-.8.2-1.7.6-2.5.3-.5.6-1,1.1-1.3,0,0,0,0,0,0h0Z" fill="#fff"/><path d="M54,258.5c.7,1.3.5,2.9,0,4.2-.4,1.4-.7,2.8-1.4,4,.2-1.4.5-2.8.6-4.2,0-1.4.2-2.7.5-4.1,0,0,0,0,0,0h0Z" fill="#fff"/><path d="M49.9,254.9c.2,2.1-1,4.1-1.7,6-.2.5-.6,1.4-.6,1.9,0,0,0,0,0,0-.2-.2,0-.4,0-.6,0-.4.2-1.2.3-1.6.3-1.2.7-2.9,1.1-4,.3-.6.6-1.3,1-1.9,0,0,0,0,0,0h0Z" fill="#fff"/><path d="M53.9,256.8c.2.5.2,1,0,1.5-.3.4-.6.8-.5,1.3,0,1-.3,2-1.2,2.6,0,0,0,0,0,0,0-.5,0-1,.1-1.5.2-.7.8-1.2.9-1.9,0-.8,0-1.4.6-2,0,0,0,0,0,0h0Z" fill="#fff"/><path d="M51,255.1c.3.9-.1,1.5-.6,2-.2.7,0,1.5-.3,2.1-.2.4-.5.9-.8,1.3,0,0,0,0,0,0-.5-1.1,0-2,.5-2.8.1-.2.3-.4.3-.6,0-.8,0-1.5.8-2,0,0,0,0,0,0h0Z" fill="#fff"/><path d="M44.5,258.7c-.2,1-.5,1.8-1.2,2.6-.3.4-.5.8-.6,1.3-.2,1.6-.2,3.1-.5,4.8,0,0,0,0,0,0-.7-1.1-.7-2.4-.3-3.6,0,0,0,.2,0,.2,0-.5.4-1.1.6-1.6.5-.8.4-1.9,1-2.7.3-.4.6-.8,1-1.1,0,0,0,0,0,0h0Z" fill="#fff"/><path d="M43.7,258.5c-.2.9-.6,1.7-1.1,2.4,0,0-1.4,2.3-1.4,2.3h0c.2-.9.5-1.8.8-2.6.3-.9.7-1.8,1.7-2.1,0,0,0,0,0,0h0Z" fill="#fff"/><path d="M46.2,258.3c-.3,1.5-1.6,2.4-2,3.8,0,0,0,0,0,0-.2-.4,0-.8,0-1.2.3-1.1.6-2.5,1.9-2.7,0,0,0,0,0,0h0Z" fill="#fff"/><path d="M52,255.3c.5,2.5-1,4.7-2.1,6.8,0,0,0,0,0,0,.4-1.1.7-2.3.9-3.4.2-1.2.4-2.3,1.1-3.4,0,0,0,0,0,0h0Z" fill="#fff"/><path d="M53,256.4c.4,1.1-.5,2.2-.9,3.3,0,0,0,0,0,0,0-.6,0-1.2,0-1.7,0-.6.2-1.2.8-1.5,0,0,0,0,0,0h0Z" fill="#fff"/><path d="M52,309.7c-1.3-.3-2-1.3-2.6-2.4-.8-.9-1.9-1.5-2.5-2.6-.4-.7-.8-1.5-.7-2.4h0c1.3,1.4,2.1,3.2,3.3,4.7,1,.7,1.9,1.4,2.5,2.5,0,0,0,0,0,0h0Z" fill="#fff"/><path d="M60.1,307c-1-.6-1.6-1.5-2-2.6-.1-.3-.2-.5-.4-.7-.2-.2-.5-.3-.7-.5-.4-.3-.8-1-.9-1.4.7,0,1.1.5,1.5,1,.1.3.2.6.4.8.5.7,1.4,1.1,1.8,1.8.3.5.5,1,.5,1.7,0,0,0,0,0,0h0Z" fill="#fff"/><path d="M54.9,310.1c-1.5-.1-2.7-1.1-3.7-2.1-1-1-2.1-2.1-2.7-3.3,1.1.9,2.1,1.9,3.2,2.7.6.4,3.1,2.2,3.2,2.7h0Z" fill="#fff"/><path d="M60.1,308.5c-1.9-.9-3-3-4.2-4.6-.3-.4-.9-1.3-1.3-1.5,0,0,0,0,0,0,.2,0,.4.2.5.2.3.2.9.8,1.2,1.1.8.9,2.1,2.1,2.9,3,.4.6.8,1.1,1.1,1.8,0,0,0,0,0,0h0Z" fill="#fff"/><path d="M56.5,310.9c-.6,0-1-.4-1.3-.8-.2-.5-.4-.9-.9-1.1-.9-.5-1.6-1.3-1.6-2.3,0,0,0,0,0,0,.5.2.9.5,1.2.9.5.5.6,1.3,1.1,1.8.7.3,1.3.7,1.4,1.6,0,0,0,0,0,0h0Z" fill="#fff"/><path d="M59.4,309.3c-.9-.2-1.2-.8-1.4-1.6-.4-.6-1.2-.8-1.6-1.4-.3-.4-.5-.8-.7-1.3,0,0,0,0,0,0,1.1.2,1.7,1,2.1,1.9,0,.2.2.4.4.6.7.4,1.2.8,1.3,1.7,0,0,0,0,0,0h0Z" fill="#fff"/><path d="M61.1,303.3c-.7-.7-1.3-1.4-1.6-2.3-.1-.5-.4-.9-.8-1.2-.3-.3-.6-.5-1-.7-.9-.6-1.9-1.4-2.8-2.2,0,0,0,0,0,0,1.3,0,2.5.7,3.3,1.6,0,0-.2-.1-.2-.1.5.2.8.9,1,1.3.4.9,1.4,1.4,1.8,2.3.2.4.3.9.4,1.4h0Z" fill="#fff"/><path d="M61.2,301.3c-.7-.7-1.1-1.3-1.5-2.2,0,0-1.2-2.4-1.2-2.4h0c.6.6,1.2,1.3,1.8,2,.6.7,1.1,1.6.9,2.6,0,0,0,0,0,0h0Z" fill="#fff"/><path d="M60.3,305.1c-1.1-1-1.2-2.6-2.2-3.7,0,0,0,0,0,0,.4,0,.7.4,1,.7.7.9,1.9,1.8,1.3,3.1,0,0,0,0,0,0h0Z" fill="#fff"/><path d="M58.8,310c-2.3-.9-3.5-3.3-4.8-5.3,0,0,0,0,0,0,.8.9,1.6,1.8,2.5,2.6.9.8,1.7,1.6,2.3,2.7,0,0,0,0,0,0h0Z" fill="#fff"/><path d="M57.2,310.3c-1.2-.2-1.6-1.6-2.3-2.5,0,0,0,0,0,0,.5.3,1,.6,1.5,1,.6.3.9.8.9,1.5,0,0,0,0,0,0h0Z" fill="#fff"/><path d="M24.7,258.2c1.2.5,1.9,1.5,2.3,2.7.7,1,1.7,1.7,2.2,2.9.3.7.6,1.5.4,2.4h0c-1.2-1.6-1.7-3.4-2.7-5.1-.9-.8-1.7-1.6-2.2-2.8,0,0,0,0,0,0h0Z" fill="#fff"/><path d="M18,268.3c1.1.6,1.7,1.4,2.2,2.5.1.3.3.5.5.7.2.2.5.3.7.4.4.3.8.9,1,1.4-.7,0-1.2-.4-1.5-.9-.2-.2-.2-.6-.4-.8-.5-.6-1.4-1-1.9-1.7-.3-.5-.6-1-.6-1.6,0,0,0,0,0,0h0Z" fill="#fff"/><path d="M21.4,258.9c1.4.5,2.3,1.7,3,3,.7,1.2,1.5,2.5,1.9,3.8-.8-1.1-1.6-2.4-2.5-3.4-.9-1.1-1.7-2.1-2.5-3.3,0,0,0,0,0,0h0Z" fill="#fff"/><path d="M18.3,266.5c2,.8,3.1,2.8,4.5,4.4.4.4.9,1.2,1.4,1.4,0,0,0,0,0,0-.2,0-.4-.1-.6-.2-.3-.2-1-.8-1.2-1-.9-.9-2.3-1.9-3.1-2.9-.4-.5-.8-1.1-1.2-1.8,0,0,0,0,0,0h0Z" fill="#fff"/><path d="M20.8,260.2c.6.1.9.4,1.2.9.2.5.3.9.8,1.2.9.6,1.5,1.4,1.4,2.5,0,0,0,0,0,0-.5-.2-.8-.6-1.1-.9-.5-.5-.5-1.4-1-1.9-.7-.4-1.2-.8-1.3-1.7,0,0,0,0,0,0h0Z" fill="#fff"/><path d="M19.4,265.2c.9.2,1.2.8,1.5,1.5.5.5,1.3.7,1.7,1.3.3.4.6.8.8,1.3,0,0,0,0,0,0-1.2,0-1.8-.9-2.2-1.8-.1-.2-.2-.4-.4-.6-.7-.3-1.3-.7-1.4-1.6,0,0,0,0,0,0h0Z" fill="#fff"/><path d="M17.3,272c.8.6,1.4,1.3,1.7,2.2.2.5.5.8.8,1.1.3.2.7.5,1,.7.9.5,2,1.3,3,2,0,0,0,0,0,0-1.3,0-2.5-.5-3.4-1.4,0,0,.2,0,.2,0-.5-.2-.8-.8-1.1-1.2-.5-.9-1.5-1.3-1.9-2.2-.2-.4-.4-.9-.5-1.4h0Z" fill="#fff"/><path d="M22.9,257.8c1,.2,1.6,1.1,1.9,2,.4.8.8,1.6,1.1,2.5h0s-1.6-2.1-1.6-2.1c-.6-.7-1.1-1.4-1.4-2.3,0,0,0,0,0,0h0Z" fill="#fff"/><path d="M17.8,270c1.2.9,1.3,2.5,2.4,3.5,0,0,0,0,0,0-.4,0-.7-.4-1-.6-.8-.8-2-1.7-1.5-3,0,0,0,0,0,0h0Z" fill="#fff"/><path d="M27.5,259.9c.9.2,1.4.8,1.7,1.5.4.7.7,1.4.8,2.1h0c-.6-.9-1.4-1.7-2.1-2.5-.2-.3-.4-.6-.4-1.1h0Z" fill="#fff"/><path d="M19.7,264c.9,0,1.6.4,2.1,1,.5.6,1,1.2,1.4,1.8h0c-.8-.7-1.8-1.2-2.7-1.9-.3-.3-.5-.5-.7-.9h0Z" fill="#fff"/><path d="M20.3,262.1c1.2.2,1.7,1.5,2.5,2.3,0,0,0,0,0,0-.5-.2-1-.5-1.5-.9-.6-.3-1-.7-1-1.5,0,0,0,0,0,0h0Z" fill="#fff"/><path d="M38.2,282c-1.6.2-3-.3-4.3-1-1.4-.5-3-.6-4.3-1.2-.9-.4-1.8-.9-2.5-1.6,0,0,0,0,0,0,2.5.3,4.6,1.8,6.9,2.7,1.5.2,2.9.4,4.3,1.2,0,0,0,0,0,0h0Z" fill="#fff"/><path d="M39.3,281.8c-1.9-.3-3.5-1.5-4.8-2.8-1.5-1.1-3.2-2.1-4.5-3.4-.9-.9-1.7-1.9-2.3-3,0,0,0,0,0,0,2.7,1.7,4.5,4.2,6.9,6.2,1.6.9,3.2,1.8,4.7,3,0,0,0,0,0,0h0Z" fill="#fff"/><path d="M39.3,281.5c-1.2-.7-1.8-1.8-2.3-3-.7-1.1-1.7-1.9-2.3-3.1-.4-.8-.7-1.6-.7-2.5,0,0,0,0,0,0,1.6,1.5,2.1,3.6,3.2,5.4.9.9,1.7,1.8,2.1,3.1,0,0,0,0,0,0h0Z" fill="#fff"/><path d="M39,281.8c-1.7.2-3.2-.5-4.6-1.4-1.4-.8-2.8-1.6-4.1-2.5,0,0,0,0,0,0,2.2,1,4.4,1.9,6.6,2.8,0,0,2.1,1.1,2.1,1.1h0Z" fill="#fff"/><path d="M38.5,281.3c-1.9-.9-2.9-2.7-4.5-4,0,0,0,0,0,0,.9.5,1.7,1.1,2.6,1.7.9.6,1.7,1.3,1.9,2.4,0,0,0,0,0,0h0Z" fill="#fff"/><path d="M43.4,280.7c.9-1.3,2.1-2.1,3.3-2.9,1.7-1.8,2.9-4,5-5.4,0,0,0,0,0,0-.4,1-.9,1.8-1.5,2.6-.9,1.2-2.3,2-3.3,3-.9,1.2-1.9,2.3-3.5,2.8,0,0,0,0,0,0h0Z" fill="#fff"/><path d="M42.6,280.9c.7-1.8,1.6-3.3,2.6-4.9,1.1-2.9,1.4-6.1,3-8.8.2,3.2-1.4,6.1-2.7,8.9-.5,1.8-1.3,3.6-2.8,4.8,0,0,0,0,0,0h0Z" fill="#fff"/><path d="M42.3,281c-.5-1.3-.4-2.5-.2-3.8-.2-2.1-1-4.1-.6-6.2,0,0,0,0,0,0,1.2,1.9.9,4.1.8,6.2.3,1.2.5,2.5,0,3.8,0,0,0,0,0,0h0Z" fill="#fff"/><path d="M43.2,280.7c.4-1.3,1.2-2.3,2.2-3.2.9-.9,1.8-1.9,2.7-2.8,0,0,0,0,0,0-1.1,1.6-2.1,3.2-3.4,4.7-.5.5-.9.9-1.5,1.2,0,0,0,0,0,0h0Z" fill="#fff"/><path d="M42.6,280.5c-.3-2.1.8-4,1-6.1,0,0,0,0,0,0,0,1,0,2.1,0,3.1,0,1.1-.2,2.1-1,3,0,0,0,0,0,0h0Z" fill="#fff"/><path d="M46.6,284.6c1.6.2,2.8,1,4.1,1.7,2.4.8,4.9.9,7,2.2,0,0,0,0,0,0-1,0-2,0-3-.3-1.5-.3-2.7-1.2-4.1-1.7-1.5-.3-2.9-.8-4-1.9,0,0,0,0,0,0h0Z" fill="#fff"/><path d="M45.6,283.7c1.9,0,3.7.3,5.5.6,3.1,0,6.1-.9,9.3-.6,0,0,0,0,0,0-1.2.5-2.4.7-3.7.9-1.9.3-3.8,0-5.6-.1-1.9.2-3.8.2-5.5-.8,0,0,0,0,0,0h0Z" fill="#fff"/><path d="M45.6,283.8c1.1-.9,2.3-1.1,3.5-1.3,1.9-.9,3.6-2.2,5.8-2.5,0,0,0,0,0,0-.6.7-1.3,1.1-2.1,1.5-1.1.6-2.5.7-3.6,1.1-1.1.7-2.3,1.2-3.6,1.1,0,0,0,0,0,0h0Z" fill="#fff"/><path d="M45.6,284.1c1.4.1,3.3.4,4.7.8,1.6.3,3.1.6,4.7.8h0c-2.4,0-4.8,0-7.2-.4-.8-.2-1.6-.5-2.2-1.1h0Z" fill="#fff"/><path d="M46.2,283.9c1.9-1.1,4-.8,6.1-1.3,0,0,0,0,0,0-1,.4-1.9.8-2.9,1.1-1,.4-2.1.6-3.1.2,0,0,0,0,0,0h0Z" fill="#fff"/><path d="M43.1,288.1c1.6.3,2.7,1.3,3.7,2.5,1.2.9,2.6,1.6,3.6,2.7.7.7,1.3,1.5,1.8,2.4,0,0,0,0,0,0-2.2-1.2-3.6-3.3-5.5-5-1.3-.7-2.6-1.4-3.6-2.6,0,0,0,0,0,0h0Z" fill="#fff"/><path d="M42.3,288.1c1.6,1.1,2.5,2.9,3,4.7.8,1.7,1.9,3.3,2.4,5.1.4,1.2.7,2.4.7,3.7,0,0,0,0,0,0-1.6-2.7-2.1-5.8-3.3-8.7-1-1.5-2-3-2.8-4.8,0,0,0,0,0,0h0Z" fill="#fff"/><path d="M42.8,288.1c1.6.6,2.6,2,3.5,3.3.9,1.3,1.7,2.7,2.5,4.1,0,0,0,0,0,0-1.4-1.9-3-3.7-4.6-5.5,0,0-1.4-1.9-1.4-1.9,0,0,0,0,0,0h0Z" fill="#fff"/><path d="M42.6,288.8c.8.8,1.1,1.9,1.1,2.9.1,1,.2,2.1.2,3.1h0c-.3-1.5-.9-3-1.3-4.5,0-.5-.1-1,0-1.6h0Z" fill="#fff"/><path d="M44,282.5c1.1,0,.2,1,.4,1.3s.5.3.6.5.2.4-.2.9-.4,0-.6.3-.2.6-.4.9-.2.4-.5.3-.4-.2-.5,0-.4.2-.7.2-.7.3-.9,0,0-.4-.4-.2-.6.4-.8,0-.4-.5-.2-.8-.1-.5,0-.9-.5-.4-.4-.9.3-1,.5-.9.3-.2.6-.5.5-1,.7-.8.4.2.7,0,.3-.5.6-.5.8.3.8.5,1,.2,1,.2Z" fill="none" stroke="#fff" stroke-miterlimit="10" stroke-width=".4"/><path d="M40.4,286.1c-.8,0-.2-.8-.3-1s-.4-.2-.4-.4-.2-.3.1-.7.3,0,.5-.3,0-.5.3-.7.2-.3.4-.3.3.1.4,0,.3-.1.5-.2.5-.2.7-.1,0,.3.3.1.4-.4.6,0,.3.3.2.6,0,.4,0,.7.4.3.4.6-.2.7-.4.7-.2.2-.4.4-.3.8-.5.7-.3-.1-.5,0-.2.4-.5.4-.6-.2-.7-.4-.8-.1-.8-.1Z" fill="none" stroke="#fff" stroke-miterlimit="10" stroke-width=".3"/><path d="M43.3,283.8c.5.2-.1.6,0,.7s.2.2.2.4,0,.2-.3.4-.2,0-.4,0-.2.3-.4.4-.2.1-.3,0-.2-.2-.3,0-.2,0-.4,0-.4,0-.5-.1,0-.2-.2-.2-.4.1-.4-.1,0-.3,0-.4,0-.3.2-.5-.2-.3,0-.5.3-.4.4-.3.2,0,.4-.1.4-.4.5-.3.2.2.3.2.3-.2.4-.1.4.3.3.4.4.3.4.3Z" fill="none" stroke="#fff" stroke-miterlimit="10" stroke-width=".2"/><path d="M305.4,234.2c-.3-.1-.5-.2-.7-.2,0,0,0,0,0,0,0,.2-.3.3-.4.3,0,.3-.1.5-.3.7,0,.1,0,.3,0,.4,7,3.6,13,10.2,8.5,15.2-.9,1,0,4.1-1.6,4.8-3.3,1.7-5.6-1.4-7.6-3-4.2-3.5-4-10-1.3-16,0-.5-.2-.8-.3-1-.2,0-.5,0-.7-.2-.3.1-.6.4-.8.5-.5,1.6-.6,3.6-2.2,6.8s-.7,5.7-2.5,7.5c-2,2.2-6.8,3.4-9.2.8-.6-.7-.7-2.5-1.1-3.2-1.7-2.5-2.8-3.7-2.3-5.8.5-2.1,2.2-3.9,5.1-5.2,2.6-1.2,6.1-1.9,10.6-2.2.3-.2.5-.3.7-.5,0-.3,0-.6.3-.8,0,0,0,0,0,0,0,0,0,0,0,0-.2-.3-.2-.7,0-1-.1-.2-.3-.3-.4-.4-5,1.3-16.8,5.4-18.4-2-.2-.9-2.1-2.2-1.7-4.3.9-2.4,3.3-2.6,4.1-3.5,2.8-3.1,9.1-.5,16.9,8.3.2.2.5.2.6.3,0,0,0,0,.1,0,.4,0,.5-.4.6-.7-1.3-2-3-5.1-3.7-8.1s-.7-7.6,2-9.4c1.3-.8,4.5,1,7.3,1.1,3.4-.4,4.1,1.3,5.4,3.5,2.3,4.2.6,9.8-7.6,14.3-.3.3-.4.5-.5.7,0,.1,0,.2,0,.3.1.2.5.2.9.2,4.6-2.1,13.5-12.4,19.9-.3.9,1.7-.8.2,2.1,7.5-.8,3.4-8.3,4.4-22-5.5Z" fill="none" stroke="#fff" stroke-miterlimit="10" stroke-width="1.4"/><path d="M301.7,229.9c.7-.9,1,.5,1.4.4s.5-.2.8-.2.5,0,.6.7-.3.4,0,.8.5.5.5.9.2.4,0,.6-.4.2-.3.5-.1.5-.2.8-.2.8-.5.9-.3-.2-.4.3,0,.8-.5.8-.6,0-.8-.3-.5-.2-.8-.5-.7.2-1-.1-.7-.8-.5-1,0-.4,0-.8-.6-1-.3-1.1.4-.2.5-.6-.2-.6,0-.8.7-.6,1-.4.8-.7.8-.7Z" fill="none" stroke="#fff" stroke-miterlimit="10" stroke-width=".5"/><path d="M302.3,229.6c-.7-1-.9-2.2-.9-3.4-.2-1.2-.7-2.3-.7-3.4,0-.8,0-1.6.2-2.4,0,0,0,0,0,0,.7,1.9.4,3.8.7,5.8.4,1.1.8,2.2.7,3.4,0,0,0,0,0,0h0Z" fill="#fff"/><path d="M303.8,230.2c-.5-1.5-.2-3,.2-4.4.3-2.4.5-5.1,2-7-.1,2.5-1.3,4.7-1.8,7.1,0,1.4,0,3.1-.4,4.3h0Z" fill="#fff"/><path d="M304.4,230.9c0-1.1.6-1.9,1.3-2.7.7-1.5,1.2-3.2,2.7-4.1,0,0,0,0,0,0-.5,1.7-1.7,2.8-2.6,4.2-.3,1-.6,1.9-1.4,2.6,0,0,0,0,0,0h0Z" fill="#fff"/><path d="M303.1,229.9c-1-2.4.1-5,.6-7.5,0,1.7-.3,3.8-.3,5.6,0,0-.2,1.8-.2,1.8h0Z" fill="#fff"/><path d="M302.4,230.2c-.4-1-.5-2-.4-3,0-.8,0-2.6.1-3,.2,1.5.5,3,.6,4.5,0,.3,0,1.4-.3,1.5h0Z" fill="#fff"/><path d="M301.7,229.4c-.8-.8-1.2-1.8-1.4-2.9-.1-.9-.5-2.4-.3-3.2.2,1.5.8,3,1.4,4.4,0,.3.4,1.4.3,1.6h0Z" fill="#fff"/><path d="M304.3,230c-.1-.9.2-1.7.6-2.4.3-.5,1-1.9,1.4-2.1-.5,1.1-.8,2.3-1.2,3.4-.1.2-.5,1-.8,1h0Z" fill="#fff"/><path d="M304.8,230.9c.3-.8.8-1.3,1.5-1.8.5-.4,1.5-1.6,1.7-1.6-.6,1-1.2,2.1-2.1,2.9-.2.2-.9.7-1.1.5h0Z" fill="#fff"/><path d="M311,214.8c.5.9.5,1.8.2,2.8,0,.9.2,1.9,0,2.8-.2.6-.4,1.2-.9,1.7h0c0-1.6.5-3,.7-4.5-.2-.9-.3-1.8,0-2.7,0,0,0,0,0,0h0Z" fill="#fff"/><path d="M304,212.8c0,1.3-.8,2-1.4,3,0,.7-.2,1.3-.7,1.8-.2-.2-.2-.5-.1-.7,0-.5.4-.8.6-1.2.3-.6.2-1.3.6-1.9.2-.4.5-.7.9-1,0,0,0,0,0,0h0Z" fill="#fff"/><path d="M309.3,213.3c.8,2-.4,4.6-1.3,6.4.2-1.1.5-2.2.6-3.2.1-.8.2-2.7.6-3.2h0Z" fill="#fff"/><path d="M305,212.8c0,2.2-1.7,4.2-2.1,6.2-.1-.3,0-.6,0-.9.1-.5.5-1.9.7-2.4.3-1.1.7-2.1,1.4-3,0,0,0,0,0,0h0Z" fill="#fff"/><path d="M308.6,213.6c.1.4.1.8,0,1.1-.2.3-.5.6-.4,1,0,.8-.3,1.6-1,2,0,0,0,0,0,0,0-.4,0-.8.1-1.1.1-.5.7-.9.8-1.5,0-.6,0-1.1.5-1.6,0,0,0,0,0,0h0Z" fill="#fff"/><path d="M305.9,213.6c.2.7-.1,1.1-.5,1.6-.2.5,0,1.2-.3,1.6-.1.3-.4.8-.7,1-.5-1.2.4-1.9.8-2.7,0-.6,0-1.1.7-1.5,0,0,0,0,0,0h0Z" fill="#fff"/><path d="M302,212.4c-.2,1.4-1.2,1.8-1.5,3-.2,1.3-.3,2.4-.6,3.8,0,0,0,0,0,0-.5-.9-.5-1.9-.1-2.8,0,0,0,.2,0,.2,0-.4.3-.9.5-1.2.5-.6.4-1.5.9-2.1.1-.2.7-.9.9-.8h0Z" fill="#fff"/><path d="M310.2,214.1c.5.7.3,1.5,0,2.2-.2.5-.5,1.9-.8,2,0,0,.2-2.1.2-2.1,0-.5.2-2,.5-2.1h0Z" fill="#fff"/><path d="M301.4,212.3c-.2.7-.5,1.3-1,1.8,0,0-1.2,1.7-1.2,1.7-.1-.3.5-1.6.7-2,.3-.7.6-1.4,1.4-1.6,0,0,0,0,0,0h0Z" fill="#fff"/><path d="M303.2,212.7c-.3,1.1-1.3,1.9-1.7,2.9-.1-.4,0-.6,0-.9.2-.6.3-1.2.7-1.6.1-.1.7-.6.9-.4h0Z" fill="#fff"/><path d="M311.8,215.8c.5.4.7,1,.7,1.7,0,.6,0,1.2-.2,1.8h0c0-.9-.4-1.7-.6-2.5,0-.2,0-.8.1-.9h0Z" fill="#fff"/><path d="M306.9,213.5c.3.6.3,1.2,0,1.8-.2.6-.5,1.1-.8,1.6h0c.3-.9.3-1.7.4-2.6,0-.2.3-.8.5-.8h0Z" fill="#fff"/><path d="M308,213.4c.2.5,0,.9-.2,1.3,0,0-.6,1.2-.6,1.2-.2,0,0-1.1,0-1.4,0-.5.2-1,.7-1.2,0,0,0,0,0,0h0Z" fill="#fff"/><path d="M288.4,251.8c.8-.6,1.7-.7,2.6-.8,1.4-.7,2.6-1.6,4-2.1,0,0,0,0,0,0-.3.6-.8,1-1.3,1.4-.8.5-1.8.6-2.7.9-.8.5-1.7.9-2.7.7,0,0,0,0,0,0h0Z" fill="#fff"/><path d="M284.1,245.8c.3-1.3,1.3-1.7,2.3-2.4.4-.6.9-1.2,1.7-1.1,0,0,0,0,0,0-.3.6-.9,1-1.5,1.2-.5.4-.7,1.1-1.2,1.5-.3.3-.7.5-1.1.7,0,0,0,0,0,0h0Z" fill="#fff"/><path d="M286.4,250.7c1.8-1.2,3.9-2,5.7-3.2-1.1,1.2-2.5,2.3-4,3-.5.2-1.1.3-1.7.3,0,0,0,0,0,0h0Z" fill="#fff"/><path d="M284.4,246.8c.9-1.4,2.4-2.3,3.7-3.2,0,0,.7-.5.7-.5.3-.1.4-.3.8-.3,0,0,0,0,0,0-.8.4-1.8,1.6-2.5,2.1-.8.8-1.6,1.5-2.7,1.9,0,0,0,0,0,0h0Z" fill="#fff"/><path d="M286.4,250c.2-.7.7-.8,1.3-1,.5-.3.7-.9,1.1-1.2.3-.2.7-.5,1.1-.5-.2,1.2-1.2,1.4-2.1,1.9-.3.5-.7.9-1.4.9,0,0,0,0,0,0h0Z" fill="#fff"/><path d="M285.5,247.4c.2-.7.7-.9,1.2-1.1.7-.7,1-1.7,2.3-1.6,0,0,0,0,0,0-.4.7-.9,1.2-1.7,1.4-.2,0-.4.2-.5.3-.3.5-.6,1-1.3,1,0,0,0,0,0,0h0Z" fill="#fff"/><path d="M283.1,244.1c.3-1.4,1.3-1.7,2.2-2.6.3-.3.5-.8,1-.9,0,0-.2,0-.2,0,.8-.6,1.8-1,2.7-.8,0,0,0,0,0,0-1.1.7-2.2,1.2-3.4,1.8-.7.4-.8,1.2-1.4,1.7-.2.2-.8.8-.9.7h0Z" fill="#fff"/><path d="M287.5,251.3c.6-.5,1.1-.8,1.8-1.1,0,0,1.9-.9,1.9-.9,0,.3-1.3,1.1-1.7,1.4-.6.5-1.3.8-2.1.6,0,0,0,0,0,0h0Z" fill="#fff"/><path d="M282.8,243.6c0-.8.5-1.4,1.1-1.9.4-.3,1.4-1.4,1.7-1.3,0,0-1.3,1.7-1.3,1.7-.2.5-1.2,1.6-1.5,1.5h0Z" fill="#fff"/><path d="M283.8,245.2c-.2-1,.8-1.6,1.5-2.2.3-.1.5-.4.8-.4h0c-.8.5-1.5,2.4-2.3,2.6h0Z" fill="#fff"/><path d="M285.7,248.4c.7-1,2-1.1,2.9-1.9,0,0,0,0,0,0-.3.5-.8.9-1.2,1.3-.5.5-1,.7-1.7.6,0,0,0,0,0,0h0Z" fill="#fff"/><path d="M286,249.4c0-.6.4-.9.9-1.1.3-.1,1.1-.6,1.3-.5,0,0-1,.9-1,.9-.3.4-.6.6-1.2.6,0,0,0,0,0,0h0Z" fill="#fff"/><path d="M304.9,253.9c-.8-.6-1.1-1.5-1.2-2.5-.3-.9-.9-1.6-1.1-2.6,0-.6-.1-1.3.2-1.9h0c.6,1.5.6,3,1,4.4.5.8,1,1.5,1.1,2.5,0,0,0,0,0,0h0Z" fill="#fff"/><path d="M311.6,254.3c-.8-1-.6-2-.8-3.2-.3-.5-.7-.8-.6-1.9.5.2.7.7.8,1.1,0,.2,0,.5,0,.7.2.6.7,1.2.8,1.9,0,.4,0,.9,0,1.4,0,0,0,0,0,0h0Z" fill="#fff"/><path d="M306.9,255c-1.9-1.1-2.6-3.8-3.1-5.8.5.9,1,2,1.6,2.9.4.7,1.5,2.2,1.5,2.9h0Z" fill="#fff"/><path d="M311.2,255.4c-1.5-1.6-1.4-4.3-2.3-6.2.3.1.4.5.5.7.2.5.8,1.8,1,2.3.5,1,.8,2,.8,3.2,0,0,0,0,0,0h0Z" fill="#fff"/><path d="M307.8,256.1c-.4-.2-.6-.5-.7-.9,0-.4,0-.8-.3-1.1-.5-.6-.9-1.5-.5-2.2.3.3.5.6.6,1,.2.5,0,1.1.3,1.6.4.4.7.9.6,1.6,0,0,0,0,0,0h0Z" fill="#fff"/><path d="M310.4,255.8c-.6-.4-.6-1-.6-1.6-.2-.5-.7-.9-.8-1.5,0-.2-.2-1.1,0-1.2,1.2.6.8,1.6,1.1,2.6.4.5.7.9.4,1.6,0,0,0,0,0,0h0Z" fill="#fff"/><path d="M312.8,250.4c-.7-1.2-.2-2.2-.7-3.3-.6-1.1-1.4-2.1-1.9-3.3,0,0,0,0,0,0,.9.4,1.6,1.2,1.9,2.1,0,0-.1-.1-.1-.1.3.3.3.9.4,1.3,0,.8.6,1.4.6,2.2,0,.2,0,1.1-.2,1.2h0Z" fill="#fff"/><path d="M313.4,250.2c-.3-.7-.4-1.3-.4-2,0,0-.2-2.1-.2-2.1.3.1.6,1.5.8,2,.2.7.4,1.5,0,2.1,0,0,0,0,0,0h0Z" fill="#fff"/><path d="M311.9,251.5c-.5-1.1-.2-2.3-.5-3.4.3.2.4.5.5.8.2.6.5,1.1.5,1.7,0,.2-.2.9-.5.9h0Z" fill="#fff"/><path d="M309.7,256.1c-.8-.7-1.1-1.5-1.4-2.5-.2-.7-.7-2.3-.5-2.8.4,1.3,1.1,2.6,1.6,3.8,0,.3.4,1.2.2,1.4h0Z" fill="#fff"/><path d="M308.5,255.9c-.5-.3-.6-.7-.7-1.2,0,0-.3-1.3-.3-1.3.2,0,.7.8.9,1.1.3.4.5.9.2,1.4,0,0,0,0,0,0h0Z" fill="#fff"/><path d="M284,222c1-.4,1.9-.1,2.8.2.9.2,1.9,0,2.8.4.6.3,1.2.6,1.5,1.1h0c-1.5-.2-2.8-.9-4.3-1.4-.9,0-1.8,0-2.7-.4,0,0,0,0,0,0h0Z" fill="#fff"/><path d="M280.2,227.6c1.3-.2,2,.5,3.1.9.6,0,1-.2,1.9.5-.4.3-.9.3-1.4.1-.2,0-.4-.3-.6-.3-.6-.2-1.4,0-2-.3-.4-.2-.8-.4-1.1-.8,0,0,0,0,0,0h0Z" fill="#fff"/><path d="M281.9,223.2c1.9-1.1,4.6-.2,6.6.4-1.1,0-2.2-.2-3.3-.2-.8,0-2.7.1-3.3-.2h0Z" fill="#fff"/><path d="M279.5,226.6c2.2-.4,4.4,1.1,6.5,1.3-.3.2-.6,0-.9,0-.5,0-1.9-.3-2.4-.3-1.1-.1-2.2-.4-3.1-.9,0,0,0,0,0,0h0Z" fill="#fff"/><path d="M280.6,223.4c.4-.2.8-.2,1.1-.1.3.2.7.4,1.1.3.8-.1,1.6,0,2.1.7,0,0,0,0,0,0-.4,0-.8,0-1.1,0-.5,0-1-.5-1.6-.6-.6.1-1.1.2-1.6-.3,0,0,0,0,0,0h0Z" fill="#fff"/><path d="M279.5,225.8c.6-.3,1.1,0,1.6.3.5.1,1.2,0,1.7,0,.3,0,.8.3,1,.5-1.2.7-1.9-.1-2.8-.4-.6,0-1.1,0-1.6-.5,0,0,0,0,0,0h0Z" fill="#fff"/><path d="M281.3,230.3c1.4,0,2,.9,3.1,1.1,1.3,0,2.5,0,3.8,0,0,0,0,0,0,0-.8.6-1.8.8-2.8.5,0,0,.2,0,.2,0-.4.1-.9-.2-1.3-.3-.7-.4-1.5-.2-2.2-.6-.2-.1-.9-.6-.9-.8h0Z" fill="#fff"/><path d="M282.2,231.6c.8,0,1.3.3,2,.7,0,0,1.9.9,1.9.9-.2.2-1.6-.3-2.1-.4-.7-.2-1.5-.4-1.8-1.2,0,0,0,0,0,0h0Z" fill="#fff"/><path d="M280.9,228.8c1.2.1,2,1.1,3.2,1.3-.3.2-.6,0-.9,0-.6-.1-1.2-.2-1.7-.5-.2-.1-.7-.6-.5-.8h0Z" fill="#fff"/><path d="M279.6,225c1-.3,1.9-.2,2.8.1.7.2,2.3.6,2.6,1-1.4-.3-2.8-.4-4.1-.6-.3,0-1.3-.3-1.3-.5h0Z" fill="#fff"/><path d="M280.4,224.1c.5-.2.9-.2,1.3,0,0,0,1.3.4,1.3.4,0,.2-1,.1-1.4.2-.5,0-1,0-1.3-.5,0,0,0,0,0,0h0Z" fill="#fff"/><path d="M325.4,241.4c-1,.3-1.9,0-2.7-.6-.9-.3-1.9-.3-2.7-.8-.5-.3-1.1-.7-1.4-1.3h0c1.5.4,2.7,1.3,4.1,1.9.9,0,1.8.2,2.7.7,0,0,0,0,0,0h0Z" fill="#fff"/><path d="M324.8,231.9c-1.3.3-2.1-.4-3.2-.7-.6,0-1,.2-2-.3.4-.3.9-.3,1.4-.2.2,0,.4.2.6.3.6.1,1.4,0,2,.2.4.1.8.4,1.2.7,0,0,0,0,0,0h0Z" fill="#fff"/><path d="M327.2,239.4c-2.1.6-4.5-.9-6.3-1.9,1,.3,2.1.7,3.2,1,.8.2,2.6.5,3.1,1h0Z" fill="#fff"/><path d="M325.5,233.1c-2.1.5-4.4-.8-6.5-.9.3-.2.6-.1.9-.1.5,0,1.9.1,2.5.2,1.1,0,2.2.2,3.2.7,0,0,0,0,0,0h0Z" fill="#fff"/><path d="M326.9,238.3c-.4.2-.8.2-1.1,0-.3-.2-.6-.4-1.1-.4-.8,0-1.6-.2-2.1-.9,0,0,0,0,0,0,.4,0,.8,0,1.1,0,.5.1,1,.6,1.5.7.6,0,1.1,0,1.6.4,0,0,0,0,0,0h0Z" fill="#fff"/><path d="M325.4,234.5c-.6.3-1.1,0-1.7-.2-.5-.1-1.1.1-1.7,0-.3,0-.9-.3-1.1-.5,1.1-.7,1.9,0,2.8.2.6-.1,1.1-.1,1.6.4,0,0,0,0,0,0h0Z" fill="#fff"/><path d="M323.5,229.2c-1.4,0-2-.8-3.2-.9-1.3,0-2.4.2-3.8.2,0,0,0,0,0,0,.8-.7,1.8-.9,2.8-.7,0,0-.2,0-.2,0,.4-.1.9.1,1.3.3.7.3,1.5,0,2.2.5.2.1,1,.5.9.7h0Z" fill="#fff"/><path d="M326.8,240.7c-.7.3-1.5,0-2.1-.3-.4-.2-1.8-.8-1.8-1.1,0,0,2,.6,2,.6.5,0,1.9.6,1.9.9h0Z" fill="#fff"/><path d="M324.2,230.7c-1.2,0-2.1-.9-3.2-1.1.3-.2.6,0,.9-.1.6,0,1.2.1,1.8.4.2,0,.7.6.6.8h0Z" fill="#fff"/><path d="M322.9,241.6c-.6.3-1.2.2-1.8-.2-.6-.3-1.1-.6-1.5-.9,0,0,0,0,0,0,.8.3,1.7.4,2.5.6.2,0,.8.3.8.5h0Z" fill="#fff"/><path d="M325.8,235.4c-.5.5-1.2.5-1.8.3-.6,0-1.2-.2-1.7-.5,0,0,0,0,0,0,.9,0,1.7,0,2.6,0,.2,0,.8,0,.9.3h0Z" fill="#fff"/><path d="M326.3,236.8c-.5.3-.9.2-1.3,0,0,0-1.3-.3-1.3-.3,0-.2,1-.2,1.4-.2.5,0,1,0,1.3.5,0,0,0,0,0,0h0Z" fill="#fff"/><path d="M305.7,232.8c.9-.9,2-1.2,3.2-1.4,1.1-.4,2.1-1,3.3-1.3.8-.2,1.6-.3,2.4-.2,0,0,0,0,0,0-1.7,1-3.7,1-5.6,1.6-1,.6-2,1.1-3.2,1.3,0,0,0,0,0,0h0Z" fill="#fff"/><path d="M305.1,233.5c1.4-.7,2.9-.7,4.4-.5,2.4,0,5.1-.3,7.3.9-2.5.3-4.8-.5-7.3-.6-1.4.1-3.1.5-4.4.3h0Z" fill="#fff"/><path d="M305.3,233.6c1.1-.1,2,.3,2.8.8,1.6.5,3.3.7,4.5,2,0,0,0,0,0,0-1.7-.2-3-1.2-4.5-1.9-1-.1-2-.3-2.8-1,0,0,0,0,0,0h0Z" fill="#fff"/><path d="M305.3,233.4c2-1.7,4.8-1.4,7.3-1.7,0,0,0,0,0,0-1.8.4-3.6.9-5.4,1.4,0,0-1.8.3-1.8.3h0Z" fill="#fff"/><path d="M305.9,233.5c.8-.2,1.6-.1,2.4,0,.6.2,2.2.2,2.3.4-1.2.1-2.4.3-3.6.1-.2,0-1.1-.3-1.1-.6h0Z" fill="#fff"/><path d="M303,236.1c0,1.2-.3,2.3-.7,3.4-.2,1.9,0,3.9-.6,5.8,0,0,0,0,0,0-.2-.8-.3-1.6-.3-2.4,0-1.2.5-2.3.7-3.5,0-1.2.1-2.4.8-3.4,0,0,0,0,0,0h0Z" fill="#fff"/><path d="M303.5,235.6c.4,1.4.5,2.8.7,4.3.7,2.3,1.9,4.4,2.3,6.9-1.6-1.7-2-4.5-2.5-6.8-.6-1.4-.9-2.9-.5-4.4,0,0,0,0,0,0h0Z" fill="#fff"/><path d="M303.6,235.4c.9.5,1.4,1.4,1.9,2.3,1.1,1.2,2.6,2.1,3.3,3.6,0,0,0,0,0,0-.7-.3-1.2-.7-1.7-1.1-.7-.7-1.1-1.6-1.8-2.4-.8-.6-1.5-1.3-1.8-2.4,0,0,0,0,0,0h0Z" fill="#fff"/><path d="M303.2,236.1c.3,1,.3,2,.1,3-.1.7-.2,2.5-.5,3,0-1.5-.2-3-.1-4.5,0-.5.2-1,.4-1.5h0Z" fill="#fff"/><path d="M303.7,235.9c.6.6,1,1.3,1.2,2.1.2.6,1,2,.9,2.3-.8-1-1.6-2-2.1-3.1-.1-.4-.2-.8-.2-1.3h0Z" fill="#fff"/><path d="M299.2,235.2c-1.1.6-2.2.7-3.4.8-1.8.6-3.5,1.7-5.5,1.9,0,0,0,0,0,0,.6-.5,1.3-.9,2-1.2,1.1-.5,2.3-.5,3.4-.9,1.1-.5,2.2-.9,3.4-.7,0,0,0,0,0,0h0Z" fill="#fff"/><path d="M300.2,235.3c-1.2.9-2.4,1.6-3.7,2.2-1.9,1.5-3.4,3.5-5.5,4.7.9-2.1,3.4-3.6,5.4-4.9,1.1-1,2.3-1.9,3.8-2.1,0,0,0,0,0,0h0Z" fill="#fff"/><path d="M300.3,235.2c-.3,1-.9,1.8-1.6,2.5-.8,1.5-1.2,3.1-2.5,4.3,0,0,0,0,0,0,0-.7.3-1.3.6-1.9.4-.9,1.2-1.6,1.8-2.4.4-1,.8-1.8,1.7-2.4,0,0,0,0,0,0h0Z" fill="#fff"/><path d="M300.1,235c-.9.6-2.3,1.3-3.3,1.7-1.1.5-2.3,1.3-3.4,1.6,1.5-1.1,3-2.3,4.7-3.1.6-.2,1.2-.4,1.9-.4h0Z" fill="#fff"/><path d="M299.8,235.4c-.3.8-.9,1.4-1.5,1.9-.5.4-1.5,1.7-1.8,1.7.6-1.1,1.2-2.2,2.1-3.1.3-.3.7-.5,1.1-.6h0Z" fill="#fff"/><path d="M299.8,231.4c-1.1.5-2.3.4-3.5.2-1.2,0-2.4.2-3.5,0-.8-.1-1.5-.3-2.3-.7,0,0,0,0,0,0,2-.3,3.8.4,5.8.5,1.2-.2,2.3-.3,3.5,0,0,0,0,0,0,0h0Z" fill="#fff"/><path d="M300.2,230.9c-1.5,0-2.9-.7-4.1-1.5-2.2-1.1-4.7-2-6.1-4.1,2.3.9,4.1,2.7,6.2,3.9,1.3.5,3,.9,4,1.7h0Z" fill="#fff"/><path d="M299.9,231.2c-2.5.6-5-1-7.3-1.8,1.7.3,3.7.9,5.5,1.2,0,0,1.8.5,1.8.5h0Z" fill="#fff"/><path d="M299.7,230.7c-.9-.1-1.6-.7-2.1-1.3-.4-.4-1.5-1.6-1.6-1.9.9.8,2,1.5,2.9,2.2.2.2.8.8.7,1h0Z" fill="#fff"/><path d="M301.8,235.3c-.7.4-.6-.6-.9-.6s-.4,0-.6,0-.3-.1-.3-.7.3-.2.2-.5-.2-.5-.2-.7,0-.3.2-.4.3,0,.3-.3.2-.3.4-.5.3-.5.5-.5.2.2.3-.1.1-.5.5-.4.4.1.5.4.3.2.5.6.5,0,.7.3.3.8,0,.8,0,.3-.1.6.2.9,0,.9-.3,0-.5.3,0,.4-.2.6-.7.2-.8,0-.7.3-.7.3Z" fill="none" stroke="#fff" stroke-miterlimit="10" stroke-width=".3"/><path d="M302.4,231.3c.5-.4.5.4.7.4s.3,0,.5,0,.2,0,.2.5-.2.2-.2.4.2.3.2.5,0,.3-.1.3-.3,0-.2.2-.1.2-.2.4-.2.4-.4.4-.2-.2-.3,0,0,.4-.4.3-.3,0-.4-.3-.2-.2-.4-.4-.4,0-.5-.2-.2-.6,0-.6,0-.2,0-.4-.2-.6,0-.6.3,0,.3-.2,0-.3.1-.5.5-.2.6,0,.5-.3.5-.3Z" fill="none" stroke="#fff" stroke-miterlimit="10" stroke-width=".3"/><path d="M301.6,234.1c-.4,0-.2-.4-.3-.5s-.2,0-.3-.2-.1-.1,0-.4.2,0,.2-.2,0-.3,0-.4,0-.2.2-.2.2,0,.2,0,.2-.1.3-.2.3-.2.4-.1,0,.1.2,0,.2-.2.3-.1.2.1.2.3,0,.2.1.4.2.1.3.3,0,.4-.1.4,0,.1-.2.3,0,.5-.2.4-.2,0-.3,0,0,.2-.2.3-.4,0-.4-.1-.4,0-.4,0Z" fill="none" stroke="#fff" stroke-miterlimit="10" stroke-width=".2"/><path d="M24.2,169.2c-.2,0-.4-.1-.5-.2,0,0,0,0,0,0,0,.1-.2.2-.3.3,0,.2,0,.4-.3.6,0,.1,0,.2,0,.4,5.8,3,10.8,8.5,7.1,12.6s0,3.4-1.3,4c-2.8,1.4-4.7-1.2-6.3-2.5-3.5-2.9-3.4-8.4-1.1-13.3,0-.4-.1-.7-.3-.8-.2,0-.4,0-.6-.1-.3,0-.5.3-.6.4-.4,1.3-.5,3-1.9,5.7-.9,1.9-.6,4.7-2,6.3-1.7,1.8-5.7,2.9-7.7.6-.5-.6-.5-2.1-.9-2.6-1.4-2.1-2.4-3.1-1.9-4.8.4-1.8,1.9-3.3,4.3-4.4,2.2-1,5.1-1.6,8.9-1.8.2-.1.4-.3.6-.4,0-.2,0-.5.3-.7,0,0,0,0,0,0,0,0,0,0,0,0-.2-.2-.2-.6,0-.8-.1-.2-.2-.3-.3-.3-4.1,1.1-14,4.5-15.3-1.7s-1.7-1.9-1.4-3.6c.7-2,2.8-2.2,3.4-2.9,2.3-2.6,7.6-.4,14.1,6.9.2.1.4.2.5.2,0,0,0,0,.1,0,.3,0,.5-.3.5-.6-1.1-1.7-2.5-4.2-3.1-6.8-.6-2.6-.6-6.4,1.7-7.9s3.8.9,6,.9c2.8-.3,3.4,1.1,4.5,2.9,1.9,3.5.5,8.2-6.3,11.9-.2.3-.4.4-.4.6,0,0,0,.2,0,.3.1.2.4.2.7.2,3.9-1.7,11.2-10.3,16.6-.2.8,1.4-.7.2,1.7,6.3-.7,2.8-6.9,3.6-18.3-4.6Z" fill="none" stroke="#fff" stroke-miterlimit="10" stroke-width="1.1"/><path d="M21.1,165.6c.6-.7.8.4,1.1.4s.4-.2.7-.1.4,0,.5.6c.1.6-.2.3,0,.6s.4.4.4.7.2.4,0,.5-.3.2-.2.4,0,.4-.2.6-.2.6-.4.7-.3-.2-.3.2,0,.6-.4.6-.5,0-.7-.2-.4-.2-.7-.4-.6.1-.8-.1-.6-.7-.4-.8,0-.3,0-.7-.5-.8-.3-.9.3-.2.4-.5-.2-.5,0-.7.6-.5.8-.4.7-.6.7-.6Z" fill="none" stroke="#fff" stroke-miterlimit="10" stroke-width=".4"/><path d="M21.6,165.4c-.6-.8-.8-1.8-.8-2.8-.3-1.5-1-3.4-.4-4.8.6,1.6.4,3.2.6,4.8.3.9.7,1.8.6,2.8,0,0,0,0,0,0h0Z" fill="#fff"/><path d="M22.8,165.8c-.4-1.2-.2-2.5.2-3.7.3-2,.4-4.2,1.7-5.9-.1,2.1-1.1,3.9-1.5,5.9,0,1.2,0,2.6-.4,3.6h0Z" fill="#fff"/><path d="M23.4,166.4c0-.9.5-1.6,1.1-2.2.6-1.2,1-2.6,2.3-3.4,0,0,0,0,0,0-.4,1.4-1.4,2.3-2.2,3.5-.2.8-.5,1.6-1.2,2.2,0,0,0,0,0,0h0Z" fill="#fff"/><path d="M22.3,165.7c-.8-2,.1-4.2.5-6.2,0,1.4-.2,3.1-.2,4.7,0,0-.2,1.5-.2,1.5h0Z" fill="#fff"/><path d="M21.7,165.9c-.4-.8-.4-1.6-.4-2.5,0-.8,0-1.8.1-2.5.1,1.6.9,3.6.2,5h0Z" fill="#fff"/><path d="M21.1,165.2c-1.3-1.3-1.4-3.3-1.4-5,.3.7.4,1.7.7,2.5.2.6.8,1.9.7,2.5h0Z" fill="#fff"/><path d="M23.2,165.7c-.2-1.4.9-2.6,1.6-3.7,0,.4-.5,1.4-.6,1.9-.2.7-.4,1.3-.9,1.8,0,0,0,0,0,0h0Z" fill="#fff"/><path d="M23.6,166.4c.3-.6.7-1.1,1.2-1.5,0,0,1.4-1.4,1.4-1.4,0,.4-.8,1.3-1,1.7-.4.6-.9,1.1-1.6,1.3,0,0,0,0,0,0h0Z" fill="#fff"/><path d="M28.8,153.1c.4.7.4,1.5.2,2.3,0,.8.2,1.6,0,2.3,0,.3-.5,1.4-.8,1.4,0-1.3.4-2.5.6-3.7-.2-.8-.3-1.5,0-2.3,0,0,0,0,0,0h0Z" fill="#fff"/><path d="M23,151.4c0,1-.7,1.7-1.1,2.5,0,.6-.2,1.1-.6,1.5-.2-.1-.1-.5-.1-.6,0-.4.3-.7.5-1,.3-.9.3-1.9,1.3-2.4,0,0,0,0,0,0h0Z" fill="#fff"/><path d="M27.4,151.8c.7,1.8-.3,3.8-1.1,5.4.5-1.7.5-4.2,1.1-5.4h0Z" fill="#fff"/><path d="M23.8,151.4c0,1.9-1.4,3.4-1.8,5.2,0,0,0,0,0,0,0-.5.1-.9.2-1.4l.4-1.3c.2-.6.7-2.2,1.2-2.5h0Z" fill="#fff"/><path d="M26.9,152c.2.5,0,1-.3,1.4-.2.8,0,1.6-.9,2.1,0,0,0,0,0,0-.1-1,.4-1.4.8-2.2,0-.5,0-.9.4-1.3,0,0,0,0,0,0h0Z" fill="#fff"/><path d="M24.6,152c.1.6-.1.9-.4,1.3-.2.4,0,1-.3,1.4-.1.3-.3.6-.6.8-.4-.9.3-1.5.6-2.2,0-.5,0-1,.6-1.3,0,0,0,0,0,0h0Z" fill="#fff"/><path d="M21.3,151.1c-.1,1.2-1.3,1.8-1.4,2.9,0,.9-.2,1.7-.4,2.7,0,0,0,0,0,0-.4-.7-.4-1.6-.1-2.4,0,0,0,.1,0,.1,0-.4.2-.7.4-1,.5-.9.5-1.8,1.5-2.4,0,0,0,0,0,0h0Z" fill="#fff"/><path d="M28.2,152.5c.4.6.3,1.2,0,1.8-.2.4-.4,1.5-.6,1.7,0,0,.2-1.8.2-1.8,0-.4.1-1.6.4-1.7h0Z" fill="#fff"/><path d="M20.8,150.9c-.2,1-1,1.8-1.8,3,0-.3.4-1.3.6-1.7.2-.6.5-1.1,1.2-1.3,0,0,0,0,0,0h0Z" fill="#fff"/><path d="M22.3,151.3c-.2,1-1.1,1.6-1.4,2.5-.1-.6.3-1.6.7-2.1.1-.1.6-.5.8-.3h0Z" fill="#fff"/><path d="M29.5,153.9c.4.4.6.9.5,1.4,0,.3,0,1.4-.2,1.5,0-.7-.3-1.4-.5-2.1,0-.2,0-.7.1-.8h0Z" fill="#fff"/><path d="M25.4,151.9c.3.5.2,1,0,1.5-.1.3-.5,1.3-.7,1.3.2-.7.2-1.4.4-2.1,0-.1.2-.7.4-.7h0Z" fill="#fff"/><path d="M26.3,151.9c.1.4,0,.7-.2,1.1,0,0-.5,1-.5,1-.2-.1,0-.9,0-1.1,0-.4.2-.8.6-1,0,0,0,0,0,0h0Z" fill="#fff"/><path d="M10,183.9c.7-.5,1.4-.6,2.2-.7,1.1-.6,2.1-1.3,3.3-1.8.1.3-.8,1-1.1,1.2-.7.4-1.5.5-2.2.8-.7.4-1.4.8-2.2.6,0,0,0,0,0,0h0Z" fill="#fff"/><path d="M6.4,178.9c.2-1.1,1.1-1.4,1.9-2,.2-.3.4-.7.8-.8.2,0,.4-.2.6,0-.3.5-.7.8-1.3,1-.6.7-1,1.6-2,1.9,0,0,0,0,0,0h0Z" fill="#fff"/><path d="M8.3,183c1.5-1,3.2-1.7,4.8-2.7-.9,1-2.1,1.9-3.3,2.5-.4.1-.9.3-1.4.2,0,0,0,0,0,0h0Z" fill="#fff"/><path d="M6.7,179.7c.5-.8,1.2-1.4,2-1.9,0,0,1.1-.8,1.1-.8.2-.1,1.1-.8,1.2-.6-.7.3-1.5,1.3-2,1.8-.4.5-2.1,1.8-2.3,1.5h0Z" fill="#fff"/><path d="M8.3,182.3c.2-.5.6-.7,1.1-.8.5-.3.8-1.3,1.8-1.4-.2,1-1,1.1-1.7,1.6-.3.4-.6.8-1.2.7,0,0,0,0,0,0h0Z" fill="#fff"/><path d="M7.6,180.2c.1-.6.5-.8,1-.9.6-.6.9-1.4,1.9-1.3,0,0,0,0,0,0-.4.9-1.1,1-1.8,1.4-.2.4-.5.8-1.1.8,0,0,0,0,0,0h0Z" fill="#fff"/><path d="M5.6,177.4c.2-1.1,1.1-1.4,1.8-2.2.3-.3.4-.6.8-.7,0,0-.1,0-.1,0,.6-.5,1.5-.8,2.3-.7,0,0,0,0,0,0-.9.6-1.9,1-2.8,1.5-.6.3-.7,1-1.2,1.4-.2.1-.6.6-.8.6h0Z" fill="#fff"/><path d="M9.2,183.4c.8-.7,1.8-1,3.1-1.6,0,.3-1,.9-1.4,1.1-.5.4-1.1.7-1.7.5,0,0,0,0,0,0h0Z" fill="#fff"/><path d="M5.3,177c0-.7.4-1.2.9-1.6.3-.3,1.1-1.1,1.4-1.1,0,0-1.1,1.4-1.1,1.4-.2.3-1,1.3-1.2,1.2h0Z" fill="#fff"/><path d="M6.2,178.3c-.2-.9.6-1.4,1.2-1.8.2-.1.4-.3.7-.3h0c-.7.5-1.2,2-1.9,2.1h0Z" fill="#fff"/><path d="M7.8,181c.6-.9,1.7-.9,2.4-1.6,0,.2-.7.9-1,1.1-.4.4-.9.6-1.4.5,0,0,0,0,0,0h0Z" fill="#fff"/><path d="M8,181.9c0-.5.3-.7.7-.9.3-.1.9-.5,1.1-.4,0,0-.8.8-.8.8-.3.3-.5.5-1,.5,0,0,0,0,0,0h0Z" fill="#fff"/><path d="M23.7,185.7c-.7-.5-.9-1.3-1-2.1-.3-.7-.8-1.4-.9-2.2,0-.3-.1-1.5.2-1.6.5,1.2.5,2.5.9,3.7.4.7.8,1.3.9,2.1,0,0,0,0,0,0h0Z" fill="#fff"/><path d="M29.3,185.9c-.7-.8-.5-1.7-.7-2.6-.3-.5-.6-1-.5-1.5.2,0,.4.3.5.4.2.3.2.7.2,1.1.3.9.9,1.7.6,2.7,0,0,0,0,0,0h0Z" fill="#fff"/><path d="M25.4,186.6c-1.6-.9-2.1-3.2-2.6-4.8.7,1.6,2.3,3.7,2.6,4.8h0Z" fill="#fff"/><path d="M29,186.8c-1.2-1.4-1.1-3.5-1.9-5.1.3,0,.6.9.7,1.2,0,0,.5,1.3.5,1.3.2.4.9,2.5.7,2.7h0Z" fill="#fff"/><path d="M26.2,187.4c-.5-.3-.6-.7-.6-1.2-.4-.7-1-1.3-.7-2.2,0,0,0,0,0,0,.7.7.6,1.4.8,2.2.3.4.6.7.5,1.3,0,0,0,0,0,0h0Z" fill="#fff"/><path d="M28.3,187.2c-.5-.3-.5-.8-.5-1.3-.1-.4-.6-.8-.7-1.2,0-.3-.1-.7,0-1,.9.5.7,1.4.9,2.1.3.4.6.8.4,1.3,0,0,0,0,0,0h0Z" fill="#fff"/><path d="M30.3,182.7c-.6-1-.1-2.2-.8-3.1-.5-.7-1-1.5-1.4-2.3,0,0,0,0,0,0,.8.3,1.3,1,1.6,1.8,0,0,0-.1,0-.1.3.3.2.7.3,1,.2,1,.8,1.7.4,2.8,0,0,0,0,0,0h0Z" fill="#fff"/><path d="M30.8,182.5c-.5-1-.3-2-.5-3.4.3.2.5,1.2.6,1.7.2.6.3,1.2,0,1.8,0,0,0,0,0,0h0Z" fill="#fff"/><path d="M29.6,183.6c-.4-.9-.1-1.9-.4-2.8.5.4.8,1.5.8,2.1,0,.2-.1.8-.4.7h0Z" fill="#fff"/><path d="M27.8,187.4c-1.2-1.1-1.3-2.9-1.6-4.4,0,0,0,0,0,0,.3.7.6,1.5.9,2.2.2.4.9,1.8.7,2.2h0Z" fill="#fff"/><path d="M26.7,187.2c-.4-.3-.5-.5-.5-1,0,0-.3-1.1-.3-1.1.2,0,.5.7.7.9.3.3.4.7.2,1.1,0,0,0,0,0,0h0Z" fill="#fff"/><path d="M6.3,159c.8-.3,1.6-.1,2.3.2.8.2,1.6,0,2.3.4.3.1,1.3.7,1.2,1-1.3-.2-2.4-.8-3.6-1.2-.8,0-1.5,0-2.3-.3,0,0,0,0,0,0h0Z" fill="#fff"/><path d="M3.1,163.7c1-.2,1.7.5,2.6.8.6,0,1.1,0,1.6.4-.1.2-.4.2-.6.2-.4,0-.7-.2-1.1-.4-.9-.2-1.9,0-2.6-.9,0,0,0,0,0,0h0Z" fill="#fff"/><path d="M4.6,160c1.7-.9,3.8-.2,5.5.3-1.7-.2-4.2,0-5.5-.3h0Z" fill="#fff"/><path d="M2.6,162.9c1.8-.3,3.6.9,5.4,1,0,0,0,0,0,0-.5.1-.9,0-1.4,0l-1.4-.2c-.5,0-2.6-.5-2.6-.8h0Z" fill="#fff"/><path d="M3.5,160.2c.5-.3,1-.1,1.4.1.8,0,1.6-.2,2.2.6,0,0,0,0,0,0-.9.3-1.5-.2-2.3-.5-.5,0-.9.1-1.4-.3,0,0,0,0,0,0h0Z" fill="#fff"/><path d="M2.6,162.2c.5-.2,1,0,1.4.2.4.1,1,0,1.4,0,.3,0,.7.2.9.4-.9.5-1.5,0-2.3-.3-.5,0-1,0-1.3-.4,0,0,0,0,0,0h0Z" fill="#fff"/><path d="M4.1,166c1.2,0,1.9,1.1,3.1.9.9,0,1.8,0,2.7,0,0,0,0,0,0,0-.7.5-1.5.6-2.3.4,0,0,.1,0,.1,0-.4,0-.7-.1-1-.3-.9-.4-1.9-.2-2.6-1.1,0,0,0,0,0,0h0Z" fill="#fff"/><path d="M4.8,167.1c1.1.1,1.9.8,3.2,1.4-.3.1-1.3-.2-1.8-.3-.6-.1-1.2-.4-1.5-1,0,0,0,0,0,0h0Z" fill="#fff"/><path d="M3.8,164.7c1,.1,1.7.9,2.6,1.1-.6.2-1.7,0-2.2-.4-.1-.1-.6-.5-.4-.7h0Z" fill="#fff"/><path d="M2.7,161.6c1.6-.5,3.1.3,4.6.9,0,0,0,0,0,0-.8-.2-1.5-.3-2.3-.4-.5,0-2-.2-2.3-.6h0Z" fill="#fff"/><path d="M3.4,160.8c.4-.2.7-.1,1.1,0,0,0,1.1.3,1.1.3,0,.2-.8.1-1.1.1-.4,0-.8,0-1.1-.5,0,0,0,0,0,0h0Z" fill="#fff"/><path d="M40.9,175.2c-.8.2-1.6,0-2.3-.5-.7-.3-1.6-.2-2.3-.6-.3-.1-1.2-.8-1.1-1.1,1.2.4,2.3,1.1,3.4,1.6.8,0,1.5.1,2.2.6,0,0,0,0,0,0h0Z" fill="#fff"/><path d="M40.4,167.3c-1,.2-1.8-.4-2.7-.6-.6,0-1.1,0-1.6-.3,0-.2.4-.2.6-.2.4,0,.7.2,1.1.3.9,0,1.9,0,2.6.8,0,0,0,0,0,0h0Z" fill="#fff"/><path d="M42.3,173.5c-1.8.5-3.7-.7-5.2-1.6,1.6.7,4.1,1,5.2,1.6h0Z" fill="#fff"/><path d="M40.9,168.3c-1.8.4-3.6-.7-5.4-.7,0,0,0,0,0,0,.5-.2.9,0,1.4,0h1.4c.5.1,2.6.5,2.7.8h0Z" fill="#fff"/><path d="M42.1,172.6c-.5.2-1,0-1.4-.2-.8-.1-1.6,0-2.2-.8,0,0,0,0,0,0,1-.2,1.4.4,2.2.6.5,0,.9,0,1.3.4,0,0,0,0,0,0h0Z" fill="#fff"/><path d="M40.8,169.4c-.5.3-.9,0-1.4-.2-.5,0-1,.1-1.4,0-.3,0-.7-.2-.9-.4.8-.6,1.5,0,2.3.2.5,0,1-.1,1.4.3,0,0,0,0,0,0h0Z" fill="#fff"/><path d="M39.3,165.1c-1.2.1-2-.9-3.1-.7-.9.1-1.8.2-2.7.1,0,0,0,0,0,0,.6-.5,1.5-.7,2.3-.6,0,0-.1,0-.1,0,.4-.1.7.1,1.1.2.9.3,1.9,0,2.6.9,0,0,0,0,0,0h0Z" fill="#fff"/><path d="M41.9,174.6c-.6.3-1.2,0-1.8-.3-.4-.2-1.4-.6-1.5-.9,0,0,1.7.5,1.7.5.4,0,1.6.4,1.6.7h0Z" fill="#fff"/><path d="M39.8,166.3c-1,0-1.8-.8-2.7-.9.6-.2,1.7,0,2.2.2.1,0,.6.5.5.7h0Z" fill="#fff"/><path d="M38.7,175.4c-.5.2-1,.1-1.5-.1-.3-.2-1.2-.6-1.3-.8.7.3,1.4.4,2.1.5.1,0,.6.2.7.5h0Z" fill="#fff"/><path d="M41.1,170.2c-.4.4-1,.4-1.5.3-.3,0-1.4-.2-1.4-.5.7,0,1.4,0,2.2,0,.2,0,.7,0,.7.3h0Z" fill="#fff"/><path d="M41.6,171.4c-.4.2-.7.2-1.1,0,0,0-1.1-.3-1.1-.3,0-.2.8-.2,1.1-.2.4,0,.8,0,1.1.4,0,0,0,0,0,0h0Z" fill="#fff"/><path d="M24.4,168.1c.7-.7,1.7-1,2.7-1.2,1.5-.6,3.2-1.6,4.7-1.1-1.5.8-3.1.9-4.6,1.3-.9.5-1.7.9-2.7,1.1,0,0,0,0,0,0h0Z" fill="#fff"/><path d="M23.9,168.6c1.1-.6,2.4-.6,3.6-.4,2,0,4.2-.3,6.1.7-2.1.2-4-.4-6.1-.5-1.2.1-2.6.5-3.6.2h0Z" fill="#fff"/><path d="M24,168.7c.9,0,1.7.3,2.4.7,1.3.4,2.8.6,3.8,1.7,0,0,0,0,0,0-1.4-.2-2.5-1-3.8-1.6-.8-.1-1.6-.3-2.3-.8,0,0,0,0,0,0h0Z" fill="#fff"/><path d="M24.1,168.5c1.6-1.4,4-1.2,6.1-1.4-1.4.5-3.1.7-4.5,1.2,0,0-1.5.3-1.5.3h0Z" fill="#fff"/><path d="M24.5,168.6c.7-.2,1.3-.1,2,0,0,0,2,.3,2,.3-.4.2-1.4.1-2,.2-.7,0-1.4,0-1.9-.5,0,0,0,0,0,0h0Z" fill="#fff"/><path d="M22.2,170.8c0,1-.2,1.9-.6,2.8-.2,1.6,0,3.2-.5,4.8-.7-1.4,0-3.3.3-4.8,0-1,.1-2,.7-2.8,0,0,0,0,0,0h0Z" fill="#fff"/><path d="M22.6,170.4c.3,1.2.4,2.4.6,3.6.6,1.9,1.6,3.7,1.9,5.7-1.4-1.4-1.7-3.8-2.1-5.7-.5-1.1-.8-2.4-.4-3.6,0,0,0,0,0,0h0Z" fill="#fff"/><path d="M22.7,170.2c.8.5,1.2,1.1,1.6,1.9.9,1,2.2,1.7,2.8,3-1.4-.5-2.1-1.8-2.9-2.9-.7-.5-1.3-1.1-1.5-2,0,0,0,0,0,0h0Z" fill="#fff"/><path d="M22.3,170.7c.3.8.2,1.7.1,2.5-.1.8-.1,1.8-.4,2.5,0-1.5-.5-3.8.3-5h0Z" fill="#fff"/><path d="M22.7,170.6c.5.5.8,1.1,1,1.7.2.6.8,1.5.8,1.9-.6-.8-1.3-1.6-1.7-2.6,0-.2-.3-.9,0-1.1h0Z" fill="#fff"/><path d="M19,170c-.9.5-1.8.6-2.8.7-1.5.5-2.9,1.4-4.6,1.6,1-1.2,3-1.4,4.5-1.8.9-.4,1.8-.7,2.9-.6,0,0,0,0,0,0h0Z" fill="#fff"/><path d="M19.9,170.1c-1,.8-2,1.3-3.1,1.9-1.6,1.2-2.8,3-4.6,3.9,1-1.9,2.8-3,4.5-4.1.9-.9,1.9-1.6,3.2-1.8,0,0,0,0,0,0h0Z" fill="#fff"/><path d="M19.9,170c-.2.9-.7,1.5-1.3,2.1-.7,1.2-1,2.6-2.1,3.6,0-1.5,1.1-2.5,1.9-3.7.3-.8.7-1.5,1.5-2,0,0,0,0,0,0h0Z" fill="#fff"/><path d="M19.7,169.9c-.8.5-1.9,1.1-2.7,1.4-.9.4-1.9,1.1-2.8,1.4,1.3-.9,2.5-1.9,4-2.6.3-.1,1.3-.5,1.6-.2h0Z" fill="#fff"/><path d="M19.5,170.2c-.3.7-.7,1.1-1.2,1.6-.5.4-1.1,1.3-1.5,1.4.5-.9,1-1.8,1.7-2.6.2-.1.8-.6,1-.5h0Z" fill="#fff"/><path d="M19.5,166.8c-.9.4-1.9.4-2.9.2-1.6,0-3.5.3-4.8-.6,1.7-.2,3.2.3,4.8.4,1-.1,1.9-.3,2.9,0,0,0,0,0,0,0h0Z" fill="#fff"/><path d="M19.8,166.5c-1.3,0-2.4-.5-3.4-1.3-1.8-.9-3.9-1.7-5.1-3.4,1.9.7,3.4,2.2,5.2,3.2,1.1.4,2.5.7,3.3,1.4h0Z" fill="#fff"/><path d="M19.6,166.7c-2.1.5-4.1-.8-6-1.5,1.4.2,3.1.7,4.6,1,0,0,1.5.5,1.5.5h0Z" fill="#fff"/><path d="M19.4,166.3c-1.4-.3-2.2-1.6-3.1-2.6.4.1,1.2.9,1.7,1.2.6.4,1.1.8,1.5,1.4,0,0,0,0,0,0h0Z" fill="#fff"/><path d="M21.2,170.1c-.6.4-.5-.5-.7-.5s-.3,0-.5,0-.3,0-.2-.5.2-.2.2-.4-.2-.4-.1-.6,0-.3.1-.4.3,0,.3-.2.2-.3.3-.4.3-.4.5-.4.2.2.3,0,.1-.5.4-.4.4,0,.4.3.2.2.4.5.4,0,.6.3.2.6,0,.7,0,.2,0,.5.2.7,0,.7-.3,0-.4.2,0,.4-.1.5-.5.2-.6,0-.6.3-.6.3Z" fill="none" stroke="#fff" stroke-miterlimit="10" stroke-width=".3"/><path d="M21.6,166.8c.4-.3.4.3.6.4s.3,0,.4,0,.2,0,.2.4-.2.1-.1.3.1.3.1.4,0,.2,0,.3-.2,0-.2.2-.1.2-.2.3-.2.3-.3.3-.1-.1-.2,0,0,.3-.3.3-.3,0-.3-.2-.2-.1-.3-.3-.3,0-.4-.2-.2-.5,0-.5,0-.2,0-.4-.1-.5,0-.5.2,0,.3-.2,0-.3,0-.4.4-.2.5,0,.4-.2.4-.2Z" fill="none" stroke="#fff" stroke-miterlimit="10" stroke-width=".2"/><path d="M21,169.1c-.4,0-.2-.3-.3-.4s-.2,0-.2-.1-.1,0,0-.3.1,0,.2-.2,0-.2,0-.3,0-.2.1-.2.2,0,.2,0,.1-.1.2-.1.2-.2.3-.1,0,.1.2,0,.1-.2.3,0,.2.1.2.2,0,.1.1.3.2.1.2.2,0,.4,0,.4,0,0-.1.2,0,.4-.2.3-.2,0-.2,0,0,.2-.2.2-.3,0-.3,0-.4,0-.4,0Z" fill="none" stroke="#fff" stroke-miterlimit="10" stroke-width=".1"/><path d="M50.3,65c-.4.2-.6.4-.8.6,0,0,0,0,0,0,0,.3,0,.5,0,.8.3.2.5.6.5,1,.2.1.4.2.5.3,10.4-4.5,23.2-5.2,24.7,4.3.3,1.9,4.5,3.8,4,6.2-1.1,5.3-6.6,5-10.2,5.7-7.8,1.5-14.9-4.6-19.1-13-.6-.4-1-.5-1.4-.5-.2.3-.5.5-.8.6-.2.4-.1,1-.1,1.3,1.3,2,3.4,4,5.6,8.7,1.5,3.3,5.7,5.9,6.2,9.6.6,4.2-2.3,10.7-7.5,11-1.3,0-3.4-1.5-4.5-1.6-4.3-.3-6.7-.2-8.6-2.7-1.9-2.5-2.4-6.1-1.2-10.5,1-3.9,3.4-8.6,7.2-13.9,0-.5,0-.9,0-1.2-.4-.2-.6-.6-.6-1.1,0,0,0,0,0,0,0,0,0,0-.1,0-.5,0-1-.4-1.1-.8-.3,0-.6,0-.8,0-3,6.8-9.3,23.6-18.9,18.7-1.2-.6-4.4.3-6.4-2-1.9-3.2.1-6.1-.1-7.8-1-6,7.7-10.6,24.6-11.4.4-.1.7-.3.9-.5,0,0,0-.1.1-.2.3-.4,0-.9-.2-1.4-3.4-.4-8.4-1.3-12.4-3.3-4.1-2-9.2-6.1-8.7-10.9s5.3-4.1,7.8-7.1c2.6-4.1,5.2-3.5,8.8-2.8,6.7,1.3,11.5,8.3,9,21.5,0,.6.2,1,.3,1.2.1,0,.3.1.4.3.3,0,.7-.4,1-.8,1.9-7.1-1.6-26.3,17.8-22.5,2.8.5-.5,1.1,10.3,4.5,3.1,4-2.6,13.2-26.2,19.5Z" fill="none" stroke="#fff" stroke-miterlimit="10" stroke-width="1.9"/><path d="M42,65.4c-.3-1.6,1.4-.7,1.7-1.1s.2-.8.6-1,.4-.5,1.4,0,.2.6.8.8,1,0,1.4.2.7.2.7.6-.1.7.3.7.4.5.6,1,.7.9.5,1.3-.5.2,0,.7.9.6.4,1.2-.5.7-1,.7-.6.4-1.3.4-.4.9-1.1,1-1.6,0-1.5-.4-.4-.3-1-.6-1.7-.3-1.5-.7.1-.7-.2-1.1-.8-.3-1-.7,0-1.3.4-1.5,0-1.5,0-1.5Z" fill="#fff" stroke="#fff" stroke-miterlimit="10" stroke-width=".6"/><path d="M42.3,64.4c-1.8,0-3.3-1-4.6-2.1-1.5-.8-3.2-1.3-4.5-2.3-.9-.7-1.8-1.4-2.4-2.4,0,0,0-.1,0,0,2.7.9,4.7,3,7,4.5,1.6.5,3.1,1.1,4.5,2.3,0,0,0,.1,0,0h0Z" fill="#fff"/><path d="M44.3,63.2c-2.1-.7-3.5-2.4-4.7-4.2-2.4-2.6-5.2-5.2-6-8.7,2.6,2.4,4.1,5.7,6.3,8.4,1.6,1.4,3.1,2.7,4.5,4.4,0,0,0,.1,0,0h0Z" fill="#fff"/><path d="M45.7,63.2c-1.1-1.1-1.6-2.4-1.8-3.9-1-2.2-2.5-4.3-2.1-6.8,0,0,0,0,.1,0,1.4,2,1.6,4.4,2.3,6.7.8,1.2,1.5,2.4,1.6,4,0,0,0,0,0,0h0Z" fill="#fff"/><path d="M43.4,63.8c-1.9-.4-3.2-1.8-4.4-3.2-1.2-1.4-2.3-2.8-3.4-4.2h0c1.9,1.8,3.9,3.6,5.9,5.4,0,0,1.9,1.9,1.9,1.9,0,0,0,0,0,0h0Z" fill="#fff"/><path d="M43.1,64.8c-1.5-.4-2.6-1.2-3.7-2.2-1.1-.9-2.2-1.9-3.3-2.8h0c1.3.6,2.5,1.4,3.7,2.2,1.3.7,2.5,1.5,3.3,2.8,0,0,0,0,0,0h0Z" fill="#fff"/><path d="M41.5,64.9c-1.6.2-3.1-.3-4.4-1-1.4-.7-2.7-1.5-3.8-2.5,0,0,0,0,0,0,1.3.7,2.7,1.3,4.1,1.8,1.5.4,2.8.8,4.1,1.7,0,0,0,.1,0,.1h0Z" fill="#fff"/><path d="M44.5,62.6c-1.1-.6-1.7-1.7-2.1-2.9-.5-1.1-.9-2.2-1.2-3.4h0c.8,1.5,1.9,2.9,2.7,4.4.2.5.4,1.1.5,1.7h0Z" fill="#fff"/><path d="M45.9,62.8c-1-2.1-.6-4.4-1-6.7,0,0,.1,0,.1,0,.4,1.1.8,2.2,1,3.3.4,1.1.5,2.3,0,3.5,0,0-.1,0-.1,0h0Z" fill="#fff"/><path d="M33.7,41.3c1.5.2,2.5,1.2,3.3,2.3,1,.9,2.3,1.4,3.2,2.6.5.7,1.1,1.5,1.1,2.5,0,0-.1,0-.1,0-2-1.7-2.8-3.3-4.4-4.9-1.2-.6-2.3-1.2-3.1-2.4,0,0,0,0,0,0h0Z" fill="#fff"/><path d="M25,47.3c1,.9,1.5,2,1.8,3.3,0,.3.2.6.3.9.2.3.5.5.7.7.3.4.7,1.3.7,1.8-.8-.1-1.2-.7-1.5-1.4-.1-.3-.1-.7-.2-1-.4-.8-1.3-1.5-1.6-2.4-.2-.6-.4-1.2-.3-2,0,0,0,0,0,0h0Z" fill="#fff"/><path d="M30.4,41.7c1.6.4,2.8,1.7,3.7,3.1.9,1.3,1.9,2.7,2.4,4.2-1-1.2-2-2.5-3-3.7-1.1-1.1-2.1-2.2-3.1-3.5,0,0,0-.1,0,0h0Z" fill="#fff"/><path d="M25.9,46.2c1.9,1.4,2.7,4,3.8,6,.4.6.7,1.5,1.2,2,0,0,0,0,0,0-.4,0-.7-.6-.9-.8-.5-.6-1.6-2.2-2-2.9-1-1.3-1.7-2.6-2.1-4.2,0,0,0,0,0,0h0Z" fill="#fff"/><path d="M30.1,42.8c.6.2,1,.6,1.2,1.1.1.6.2,1.1.8,1.4.9.7,1.5,1.7,1.4,2.9,0,0,0,0,0,0-.5-.3-.9-.8-1.2-1.2-.5-.6-.5-1.6-.9-2.2-.7-.5-1.3-1-1.3-2,0,0,0,0,0,0h0Z" fill="#fff"/><path d="M27.7,45.8c.9.4,1.2,1.2,1.3,2,.4.7,1.2,1.1,1.6,1.9.3.5.4,1,.5,1.6,0,0,0,0,0,0-1.2-.3-1.8-1.4-2-2.6,0-.3-.1-.5-.3-.8-.7-.5-1.2-1.1-1.1-2.1,0,0,0,0,0,0h0Z" fill="#fff"/><path d="M22.8,49.2c.7.9,1.2,1.8,1.3,2.9,0,.5.3,1,.6,1.5.2.3.8.9.9,1,1,1,1.9,2,2.8,3.1,0,0,0,0,0,0-1.4-.2-2.6-1.2-3.3-2.4,0,0,.2.1.2.1-.6-.4-.7-1.1-.9-1.7-.3-1.1-1.3-1.8-1.5-2.9-.1-.5-.2-1.1-.1-1.7h.1Z" fill="#fff"/><path d="M32.2,41.5c1.2,0,1.9,1,2.5,1.9.6.8,1.2,1.7,1.7,2.6h0c0,0-2.2-2.1-2.2-2.1-.8-.7-1.4-1.3-1.9-2.3,0,0,0,0,0,0h0Z" fill="#fff"/><path d="M22.1,49.7c.7.9,1,1.7,1.2,2.8,0,0,.9,2.9.9,2.9h0c-.6-.8-1.1-1.7-1.6-2.6-.5-.9-1-2-.5-3.1,0,0,.1,0,.1,0h0Z" fill="#fff"/><path d="M24.3,48.1c.5.8.8,1.4.9,2.3.2.8.5,1.7.8,2.3-.5-.2-.7-.6-1-.9-.4-.7-1-1.5-1.2-2.3,0-.4,0-.9.3-1.4,0,0,.1,0,.1,0h0Z" fill="#fff"/><path d="M35.5,41.3c1-.2,1.8.2,2.5.8.7.5,1.3,1.1,1.9,1.8,0,0,0,0,0,0-1-.7-2.2-1.1-3.3-1.7-.3-.2-.7-.5-1-.9,0,0,0,0,0,0h0Z" fill="#fff"/><path d="M28.5,44.6c1,.2,1.6.8,2,1.7.4.8.8,1.6,1,2.4h0c-.7-1-1.6-1.9-2.5-2.8-.2-.4-.4-.7-.5-1.2h0Z" fill="#fff"/><path d="M29.4,43.4c1.2.4,1.4,2,2.1,3.2,0,0,0,0,0,0-.5-.4-1-.9-1.4-1.3-.5-.5-.9-1.1-.7-1.9,0,0,0,0,0,0h0Z" fill="#fff"/><path d="M54.4,100.1c.1-1.4.7-2.5,1.4-3.7.5-2.2.5-4.1,1.3-6.4,0,0,0,0,0,0,.5.9.4,1.9.3,2.7-.1,1.4-1,2.5-1.4,3.8-.1,1.4-.5,2.7-1.7,3.6,0,0,0,0,0,0h0Z" fill="#fff"/><path d="M43.9,99.5c-.8-1.1-1-2.4-.7-3.7,0-.3.1-.6,0-1-.2-.6-.5-1.2-.2-1.9,0-.2.2-.9.6-.9.4,1.1.3,1.8,0,2.8,0,.9.6,1.8.6,2.8,0,.6,0,1.2-.2,1.9,0,0,0,0-.1,0h0Z" fill="#fff"/><path d="M51.4,101.4c.3-3.2,1.2-6.2,1.6-9.3.3,1.5.2,3.2,0,4.8,0,1.6-.4,3.3-1.6,4.5,0,0-.1,0,0,0h0Z" fill="#fff"/><path d="M45.2,100c-.8-2.2-.3-4.8-.2-7.1.1-.8,0-1.7.5-2.4,0,0,0,0,0,0-.2.7,0,1.6,0,2.3,0,0,.2,2.4.2,2.4.2,1.6.3,3.2-.4,4.7,0,0,0,0-.1,0h0Z" fill="#fff"/><path d="M50.6,100.7c-.5-.9-.3-1.6,0-2.4,0-.8-.4-1.6-.4-2.4,0-.4.1-1.4.5-1.6.8,1,.8,2.1.4,3.2-.1.3-.2.5-.1.8.3.8.4,1.6-.3,2.4,0,0,0,0-.1,0h0Z" fill="#fff"/><path d="M47,99.4c-.6-.8-.4-1.6-.2-2.4,0-1.1-.7-2-.2-3.2,0-.2.2-.7.5-.8,0,0,0,0,0,0h0c.4,1.1.5,2.1,0,3.2,0,.3-.1.5-.1.8.3.8.5,1.6,0,2.4,0,0,0,0-.1,0h0Z" fill="#fff"/><path d="M41,99c-.7-.9-1-2-.9-3.1,0-.6,0-1.1,0-1.6-.1-.6-.4-1.3-.1-1.9,0,0,0,.2,0,.2,0-1.4.5-2.8,1.6-3.8,0,0,0,0,0,0-.2,1.3-.5,2.9-.8,4-.1.4-.2.9-.3,1.4-.2,1.1.6,2.1.6,3.1,0,.5,0,1.1,0,1.6,0,0-.1,0-.1,0h0Z" fill="#fff"/><path d="M53,100.7c0-1.1,0-2,.5-3,0,0,.8-2.9.8-2.9h.1c0,1,0,2.1,0,3.1,0,1.1-.2,2.2-1.2,2.9,0,0,0,0,0,0h0Z" fill="#fff"/><path d="M40.2,98.9c-.9-.7-1.1-1.8-1.1-2.9,0-1,0-2.1,0-3.1h.1s.7,2.9.7,2.9c.4,1,.5,1.9.4,3,0,0,0,0,0,0h0Z" fill="#fff"/><path d="M42.9,99.2c-1.5-.8-1.2-2.8-1-4.3,0-.2,0-.4.3-.6h0c0,1.2.5,2.5.8,3.6,0,.4,0,.8,0,1.3h0Z" fill="#fff"/><path d="M48.3,100c-.5-1.7.6-3.3.5-5,0,0,.1,0,.1,0,.2.8.3,1.7.3,2.6,0,.9,0,1.8-.9,2.5,0,0,0,0,0,0h0Z" fill="#fff"/><path d="M49.7,100.6c-.6-.6-.6-1.3-.4-1.9.1-.6.3-1.3.5-1.9,0,0,.1,0,.1,0,0,1,.3,1.9.3,2.9,0,.3-.2.6-.4,1,0,0-.1,0-.1,0h0Z" fill="#fff"/><path d="M71.8,83.7c-1.4.4-2.7-.2-3.9-.9-1.3-.5-2.7-.5-3.9-1.2-.8-.5-1.6-1-2-1.9h0c2.4.8,3.8,1.9,5.9,2.8,1.4.1,2.6.3,3.8,1.1,0,0,0,.1,0,.1h0Z" fill="#fff"/><path d="M78.3,76.4c-1.4,0-2.5-.6-3.5-1.5-.2-.2-.5-.4-.8-.5-.3,0-.7,0-1,0-.6-.1-1.3-.5-1.7-.9.7-.4,1.4-.2,2,.1.3.2.5.4.8.6.9.4,1.9.3,2.8.8.6.3,1.1.7,1.4,1.3,0,0,0,0,0,0h0Z" fill="#fff"/><path d="M74.9,82.3c-1.5.7-3.2.4-4.8,0-1.5-.5-3.2-.9-4.5-1.7,1.5.3,3.1.7,4.7.9,1.6.1,3,.3,4.6.8,0,0,0,0,0,.1h0Z" fill="#fff"/><path d="M79.1,77.9c-2.4.1-4.6-1.3-6.7-2.2-.7-.3-1.5-.8-2.2-.8,0,0,0,0,0,0,.3-.2.9,0,1.3,0,.8.1,2.6.7,3.4,1,1.6.4,3,.9,4.3,1.9,0,0,0,0,0,0h0Z" fill="#fff"/><path d="M76.9,82.3c-.6.2-1.2.2-1.7,0-.5-.3-.9-.7-1.5-.6-1.2,0-2.2-.4-2.9-1.4,0,0,0,0,0,0,.6,0,1.1,0,1.6.2.8.2,1.4.9,2.1,1.1.9,0,1.6,0,2.3.8,0,0,0,0,0,.1h0Z" fill="#fff"/><path d="M78.9,79.1c-1,.3-1.6-.2-2.3-.7-.7-.3-1.7-.1-2.4-.5-.5-.2-1-.5-1.4-.9,0,0,0,0,0,0,1.1-.5,2.3,0,3.2.7.2.2.4.3.7.4.9,0,1.7.1,2.2,1,0,0,0,0,0,0h0Z" fill="#fff"/><path d="M75.1,71.6c-1.1-.3-2-.7-2.9-1.4-.4-.4-.9-.6-1.4-.8-.4,0-1.1-.2-1.3-.2-1.4,0-2.7-.3-4.1-.6,0,0,0-.1,0-.1,1.3-.7,2.8-.7,4.1-.2,0,0-.2,0-.2,0,.7,0,1.2.4,1.7.7.9.6,2.2.6,3,1.3.4.3.8.7,1.2,1.2h0Z" fill="#fff"/><path d="M75.3,70.7c-1.1-.3-1.9-.7-2.7-1.4,0,0-2.5-1.7-2.5-1.7h0c1,.2,1.9.6,2.9,1,1,.4,2,.9,2.3,2,0,0,0,0,0,0h0Z" fill="#fff"/><path d="M75.5,73.6c-.9-.3-1.5-.6-2.1-1.2-.6-.5-1.5-1-2.1-1.3.5-.2.9,0,1.3.1.8.3,1.7.5,2.4,1,.3.3.6.7.6,1.2h0Z" fill="#fff"/><path d="M78.7,80.2c-1.4.3-2.8-.1-4-.7-1.3-.5-2.5-1.1-3.6-1.9,0,0,0,0,0,0,1.9.7,3.9,1.1,5.8,1.7.6.2,1.2.5,1.8.9,0,0,0,.1,0,.1h0Z" fill="#fff"/><path d="M77.3,81.3c-1.2.4-2.3-.6-3.6-1.1,0,0,0-.1,0-.1.7,0,1.3,0,2,.1.7,0,1.4.3,1.7,1,0,0,0,0,0,0h0Z" fill="#fff"/><path d="M17.1,78c.4-1.4,1.6-2.2,2.8-2.9,1.1-.8,1.8-2.1,3-2.7.8-.4,1.7-.8,2.7-.7h0c-2,1.8-3.7,2.3-5.5,3.6-.8,1.1-1.6,2.1-2.9,2.7,0,0,0,0,0,0h0Z" fill="#fff"/><path d="M19.9,87.3c.8-1.1,1.8-1.8,3.1-2.2.3,0,.6-.2.8-.5.2-.2.4-.5.6-.8.4-.4,1.2-.9,1.7-1,0,.8-.6,1.3-1.1,1.6-.3.1-.6.2-.9.4-.8.5-1.3,1.5-2.1,1.9-.6.3-1.2.5-1.9.5,0,0,0,0,0,0h0Z" fill="#fff"/><path d="M16.6,81.3c.2-1.7,1.3-3,2.6-4,1.2-1.1,2.5-2.2,3.8-3-1,1.2-2.2,2.3-3.2,3.5-1,1.3-1.9,2.4-3.1,3.5,0,0-.1,0,0,0h0Z" fill="#fff"/><path d="M18.2,87.2c1.1-2.1,3.5-3.2,5.4-4.6.6-.4,1.4-.9,1.8-1.5,0,0,0,0,0,0,0,.4-.5.8-.7,1-.5.6-2,1.9-2.6,2.4-1.1,1.1-2.4,2.1-3.9,2.7,0,0,0,0,0,0h0Z" fill="#fff"/><path d="M15.7,83c.1-.6.4-1.1.9-1.4.5-.2,1-.4,1.3-1,.6-1,1.5-1.7,2.7-1.7,0,0,0,0,0,0-.2.6-.6,1-1,1.3-.6.5-1.5.7-2.1,1.2-.4.8-.8,1.4-1.8,1.6,0,0,0,0,0,0h0Z" fill="#fff"/><path d="M17.3,86.4c.3-1,1-1.3,1.8-1.6.6-.5,1-1.4,1.6-1.8.4-.3,1-.5,1.5-.7,0,0,0,0,0,0-.2,1.2-1.2,1.9-2.3,2.3-.3,0-.5.2-.7.4-.5.7-1,1.3-2,1.4,0,0,0,0,0,0h0Z" fill="#fff"/><path d="M24,88.5c.8-.8,1.6-1.4,2.7-1.7.5-.1,1-.4,1.4-.8.3-.3.7-.9.9-1,.8-1.1,1.7-2.1,2.6-3.2,0,0,0,0,0,0,0,1.4-.8,2.7-1.9,3.6,0,0,.1-.2.1-.2-.3.6-1,.8-1.5,1.1-1,.4-1.6,1.5-2.7,1.9-.5.2-1,.4-1.6.4,0,0,0,0,0,0h0Z" fill="#fff"/><path d="M26.3,88.8c.8-.8,1.6-1.2,2.6-1.6,0,0,2.8-1.3,2.8-1.3h0c-.8.8-1.6,1.4-2.4,2-.8.7-1.8,1.2-3,.9,0,0,0-.1,0-.1h0Z" fill="#fff"/><path d="M22,87.6c.7-.6,1.3-1,2.1-1.2.7-.3,1.6-.7,2.2-1.2,0,.5-.5.7-.8,1.1-.7.5-1.3,1.2-2.1,1.5-.4.1-.9.2-1.4,0h0Z" fill="#fff"/><path d="M16.6,85.6c.5-1.4,1.5-2.3,2.7-3,1.1-.8,2.3-1.5,3.5-2.1,0,0,0,0,0,0-1.6,1.2-3,2.7-4.4,4.1-.5.4-1.1.8-1.8,1.1h0Z" fill="#fff"/><path d="M16.3,83.8c.2-1.2,1.8-1.7,2.9-2.5,0,0,0,0,0,0-.3.6-.7,1.1-1.1,1.6-.4.6-.9,1-1.8.9,0,0,0,0,0,0h0Z" fill="#fff"/><path d="M76.5,49.2c-.6,1.4-1.8,2-3.1,2.5-1.1.7-2,1.8-3.3,2.3-.8.3-1.8.6-2.7.4,0,0,0-.1,0-.1,2.2-1.4,3.9-1.8,5.9-2.8.9-1,1.8-1.9,3.2-2.3,0,0,0,0,0,0h0Z" fill="#fff"/><path d="M65.3,41.3c-.7,1.2-1.7,1.9-2.9,2.4-.3.1-.6.3-.8.5-.2.2-.3.6-.5.8-.3.4-1.1.9-1.6,1.1,0-.8.5-1.3,1-1.7.3-.2.6-.2.9-.4.7-.6,1.2-1.6,2-2.1.5-.3,1.1-.6,1.9-.7,0,0,0,0,0,0h0Z" fill="#fff"/><path d="M75.8,45.6c-.6,1.6-2,2.6-3.5,3.3-1.4.7-2.9,1.6-4.4,1.9,1.3-.9,2.7-1.7,4-2.6,1.2-1,2.4-1.9,3.8-2.7,0,0,0,0,0,0h0Z" fill="#fff"/><path d="M67.3,41.7c-1,2.2-3.3,3.4-5.1,4.9-.6.5-1.4,1-1.7,1.6,0,0,0,0,0,0,0-.3.4-.8.6-1.1.5-.6,1.9-2,2.5-2.6,1.1-1.2,2.2-2.2,3.7-2.9,0,0,0,0,0,0h0Z" fill="#fff"/><path d="M74.3,44.8c-.2.6-.5,1-1,1.3-.5.2-1.1.3-1.4.8-.7,1-1.6,1.6-2.8,1.5,0,0,0,0,0,0,.3-.6.7-.9,1.1-1.3.6-.5,1.6-.5,2.2-1,.5-.7.9-1.3,1.9-1.4,0,0,0,0,0,0h0Z" fill="#fff"/><path d="M68.7,43.1c-.2,1-.9,1.4-1.7,1.7-.6.5-.9,1.4-1.5,1.9-.4.3-.9.6-1.5.8,0,0,0,0,0,0,0-1.2,1.1-2,2.1-2.5.3-.1.5-.2.7-.4.4-.8.9-1.4,1.9-1.5,0,0,0,0,0,0h0Z" fill="#fff"/><path d="M61.2,40.3c-.7.9-1.5,1.5-2.6,1.9-.5.2-1,.5-1.3.9-.3.3-.7.9-.8,1.1-.7,1.2-1.5,2.2-2.4,3.3,0,0,0,0,0,0,0-1.4.7-2.8,1.7-3.7,0,0-.1.2-.1.2.3-.6.9-.9,1.5-1.2,1-.5,1.5-1.6,2.5-2.1.5-.2,1-.4,1.6-.5h0Z" fill="#fff"/><path d="M76.9,47.2c-.3,1.1-1.3,1.7-2.3,2.1-.9.4-1.9.8-2.9,1.1h0c0,0,2.5-1.9,2.5-1.9.8-.7,1.6-1.2,2.6-1.5,0,0,0,0,0,0h0Z" fill="#fff"/><path d="M63.4,40.9c-1.1,1.3-2.9,1.4-4.1,2.6,0,0,0,0,0,0,0-.5.4-.8.7-1.1.9-.9,2-2.2,3.4-1.6,0,0,0,.1,0,.1h0Z" fill="#fff"/><path d="M74.5,52.4c-.2,1-.9,1.5-1.8,1.9-.8.4-1.6.7-2.5.9h0c1.1-.7,2-1.6,3-2.4.4-.2.7-.4,1.2-.5h0Z" fill="#fff"/><path d="M70.1,43.4c0,1-.5,1.7-1.2,2.3-.6.6-1.4,1.1-2.1,1.5,0,0,0,0,0,0,.9-.9,1.5-2,2.3-3,.3-.3.6-.6,1.1-.8h0Z" fill="#fff"/><path d="M72.2,44.2c-.2,1.3-1.7,1.8-2.7,2.7,0,0,0,0,0,0,.3-.6.6-1.1,1-1.7.4-.6.9-1.1,1.7-1,0,0,0,0,0,0h0Z" fill="#fff"/><path d="M49,63.5c-.2-1.8.4-3.4,1.3-4.9.6-1.6.8-3.3,1.6-4.8.5-1,1.1-2,2-2.8,0,0,.1,0,0,0-.5,2.8-2.2,5.1-3.3,7.7-.3,1.7-.6,3.3-1.5,4.8,0,0,0,0-.1,0h0Z" fill="#fff"/><path d="M49.2,64.8c.4-2.2,1.8-3.9,3.4-5.3,2.1-2.8,4.3-6,7.6-7.4-1.9,3-5,4.9-7.3,7.6-1.1,1.8-2.1,3.5-3.6,5.2,0,0-.1,0,0,0h0Z" fill="#fff"/><path d="M49.5,64.8c.9-1.3,2.1-1.9,3.5-2.4,2-1.4,3.8-3.1,6.4-3.2,0,0,0,0,0,0-1.8,1.7-4.1,2.3-6.2,3.4-1,1-2.2,1.9-3.6,2.2,0,0,0,0,0,0h0Z" fill="#fff"/><path d="M49.3,64.5c-.2-1.9.7-3.6,1.7-5.2.9-1.6,1.9-3.1,3-4.5h0c-1.2,2.4-2.3,4.9-3.4,7.4,0,0-1.3,2.4-1.3,2.4h-.1Z" fill="#fff"/><path d="M49.8,63.9c1.1-2.1,3.2-3.2,4.7-4.9,0,0,0,0,0,0-.6,1-1.3,1.9-2,2.8-.7,1-1.5,1.8-2.8,2.1,0,0,0,0,0,0h0Z" fill="#fff"/><path d="M50.2,69.5c1.4,1,2.3,2.4,3.2,3.9,2,2,4.4,3.4,5.9,5.9,0,0,0,.1,0,0-1.1-.4-2-1.1-2.9-1.8-1.3-1.1-2.1-2.6-3.3-3.9-1.3-1.1-2.5-2.3-3-4,0,0,0,0,0,0h0Z" fill="#fff"/><path d="M50.1,68.5c2,.9,3.7,2,5.4,3.2,3.2,1.4,6.9,1.8,9.8,3.8-3.6,0-6.8-1.8-10-3.5-2-.6-4.1-1.6-5.3-3.4,0,0,0-.1,0,0h0Z" fill="#fff"/><path d="M50,68.3c1.4-.5,2.8-.3,4.3,0,2.4-.2,4.6-1,7.1-.5,0,0,0,0,0,.1-.9.5-1.8.7-2.8.9-1.4.2-2.9-.2-4.3-.2-1.4.3-2.9.5-4.3-.2,0,0,0,0,0-.1h0Z" fill="#fff"/><path d="M50.3,69.3c1.4.5,2.5,1.5,3.5,2.6,1,1,2,2.1,3,3.1h0c-1.2-.8-2.3-1.6-3.5-2.5-1.2-.8-2.3-1.8-3-3.1,0,0,0,0,0,0h0Z" fill="#fff"/><path d="M50.6,68.6c2.4-.2,4.5,1,6.9,1.4,0,0,0,.1,0,.1-1.2,0-2.4,0-3.6-.2-1.2,0-2.4-.3-3.3-1.2,0,0,0,0,0,0h0Z" fill="#fff"/><path d="M45.8,72.9c-.3,1.7-1.2,3.1-2.1,4.5-1,2.6-1.2,5.4-2.8,7.9,0,0-.1,0-.1,0,0-1.2.2-2.3.5-3.4.4-1.6,1.5-3,2.1-4.6.4-1.7,1-3.3,2.4-4.5,0,0,.1,0,0,0h0Z" fill="#fff"/><path d="M46.8,71.9c0,2.2-.5,4.1-.9,6.2,0,3.5.9,7.1.2,10.5-1.4-3.3-.9-7-.5-10.5-.2-2.1,0-4.3,1.1-6.2,0,0,.1,0,0,0h0Z" fill="#fff"/><path d="M46.7,71.8c.9,1.2,1.2,2.6,1.3,4.1.9,2.2,2.3,4.1,2.5,6.6,0,0,0,0,0,0-.7-.7-1.2-1.5-1.7-2.4-.6-1.3-.6-2.8-1.1-4.2-.7-1.3-1.3-2.6-1.1-4.1,0,0,0,0,.1,0h0Z" fill="#fff"/><path d="M46.4,71.8c-.2,1.6-.6,3.7-1.1,5.2-.4,1.7-.8,3.5-1.1,5.3h-.1c.1-2.7.2-5.5.9-8.1.3-.9.7-1.8,1.3-2.4h0Z" fill="#fff"/><path d="M46.6,72.5c1.1,2.2.7,4.6,1.2,6.9,0,0-.1,0-.1,0-.5-1.1-.8-2.2-1.1-3.4-.4-1.2-.6-2.4,0-3.6,0,0,.1,0,.1,0h0Z" fill="#fff"/><path d="M42,68.8c-.4,1.7-1.6,3-3,4.1-1.1,1.3-1.9,2.8-3.2,3.9-.8.7-1.8,1.4-2.8,1.9,0,0,0,0,0,0,1.5-2.5,3.9-4,5.8-6,.9-1.5,1.7-2.9,3.1-3.9,0,0,.1,0,0,0h0Z" fill="#fff"/><path d="M41.9,67.9c-1.3,1.8-3.4,2.6-5.4,3.2-3.2,1.5-6.5,3.4-10.1,3.1,3.1-1.8,6.7-2.2,9.9-3.4,1.8-1.1,3.5-2.2,5.5-3,0,0,0,0,0,0h0Z" fill="#fff"/><path d="M41.9,68.5c-.7,1.8-2.3,2.9-3.9,3.8-1.5,1-3.1,1.8-4.7,2.7h0c2.2-1.6,4.3-3.3,6.4-5,0,0,2.2-1.5,2.2-1.5h0Z" fill="#fff"/><path d="M41.2,68.3c-.9.9-2.1,1.1-3.4,1.2-1.2.1-2.4.1-3.6,0h0c1.7-.4,3.4-1,5.1-1.4.6,0,1.2-.1,1.8,0h0Z" fill="#fff"/><path d="M48.3,70.1c-.1,1.2-1.2.2-1.5.4s-.3.5-.6.6-.4.3-1-.3,0-.5-.4-.7-.7-.2-1-.5-.4-.3-.3-.6.2-.5,0-.6-.2-.5-.2-.8-.3-.8,0-1.1.4,0,.2-.5-.5-.7,0-.9.5-.4.9-.2.5-.1,1,0,.5-.5,1-.5,1.1.4,1,.7.2.3.5.6,1.1.6.9.8-.2.5,0,.8.5.4.5.7-.3.9-.6.9-.3,1.1-.3,1.1Z" fill="#fff" stroke="#fff" stroke-miterlimit="10" stroke-width=".5"/><path d="M44.3,65.9c0-.9.9-.2,1.1-.3s.2-.4.5-.5.3-.2.8.2,0,.4.3.5.5.1.7.3.3.2.3.4-.2.4,0,.4.2.4.2.6.2.6,0,.8-.3,0-.1.4.4.5,0,.7-.4.3-.7.2-.4,0-.8,0-.4.4-.7.4-.8-.2-.8-.5-.2-.2-.4-.5-.9-.4-.7-.6.2-.4,0-.6-.4-.3-.4-.5.2-.7.4-.7.2-.8.2-.8Z" fill="#fff" stroke="#fff" stroke-miterlimit="10" stroke-width=".4"/><path d="M46.7,69.2c-.3.6-.6-.1-.8,0s-.3.2-.4.2-.3,0-.4-.3.1-.2,0-.4-.3-.2-.4-.4-.2-.2,0-.4.2-.2.1-.3,0-.3,0-.5,0-.4.2-.5.2,0,.2-.2-.1-.4.2-.5.3,0,.5,0,.3,0,.5.2.4-.2.6,0,.5.4.4.5,0,.2.1.4.4.5.3.6-.2.2-.2.4.2.3.1.5-.3.4-.5.3-.4.5-.4.5Z" fill="#fff" stroke="#fff" stroke-miterlimit="10" stroke-width=".3"/><path d="M320,139.5c.1,0,.2,0,.3,0,.6.1.7,1.3,1.1,1.4.5.2,1.2.4,1.5.9.2.5-.4,1.2-.4,1.2,0,0,.6,1.4.3,2-.2.4-1,1-1.2,1.4-2.1,3.7-5.4,6.2-8.5,6.2s-4-1.2-5.5-3.9c-.5-6.8,4.5-8.8,9.1-8.8s.4,0,.6,0c0,0,0,0,0,0,.9,0,1.8-.6,2.6-.6M320,138.5h0c-.6,0-1.1.2-1.5.3-.4.1-.8.2-1.1.2-.2,0-.5,0-.7,0-3.4,0-6.3,1-8,2.9-1.6,1.7-2.3,4-2.1,6.9v.2s.1.2.1.2c2,3.7,4.6,4.4,6.4,4.4,3.3,0,6.9-2.6,9.3-6.7,0,0,.3-.3.4-.4.3-.3.7-.7.9-1.1.3-.7.1-1.6,0-2.3.3-.5.5-1.2.2-1.8-.4-.7-1.2-1.1-1.8-1.3,0,0,0-.2-.1-.2-.2-.5-.5-1.2-1.3-1.3-.2,0-.4,0-.6,0h0Z" fill="#fff"/><path d="M307.8,148.7c.2-2.2,2.2-3.6,4.1-4.4,1-.7,2.2-1.2,3.5-1.1,0,0,0,0,0,0-1.1.5-2.3.8-3.4,1.2-1.8.9-3,2.7-4.2,4.2h0Z" fill="#fff"/><path d="M308.3,150.3c2.1,0,4.2-.3,6.1-1.1,1.1-.7,2.1-1.4,3.2-2,0,0,0,0,0,0-.8,1-2,1.7-3.2,2.1-1.8,1-4.3,2.1-6.2.9h0Z" fill="#fff"/><path d="M309.5,153c.6.7,1.3,1.4,2.6,1.7,2.5.6,4.4-.8,4.4-.8-2.1.8-3.7.9-6.1-1.6,0,0-.8-1.6-2.7-2.8,0-2.2-.9-3.7-.9-3.7-.8-3.4.1-4.7,2-6,0,0-2.2.8-3.1,3.2-.5,1.3-.2,2.4.1,3.3.1,1.3-1.3,2.3-1.9,3.5-.2.4-.2.8-.1,1.2,0,0,0,0,0,0,0,.2.1.4.3.7.2.3.3.5.4.6,0,0,0,0,0,0,.3.3.6.5,1.1.5,1.3,0,2.9-.6,3.9,0Z" fill="none" stroke="#fff" stroke-linecap="round" stroke-linejoin="round" stroke-width="1"/><path d="M308.1,148.7c0-.8.7-1.5,1.3-1.9.9-.9,2-2,3.3-2-1.1,1.1-2.8,1.3-3.7,2.7,0,0-.9,1.2-.9,1.2h0Z" fill="#fff"/><path d="M309.1,150.2c.8-.3,1.6-.4,2.4-.6,1.3-.5,2.4-1.5,3.8-1.7-1,1-2.4,1.4-3.7,1.8-.7.4-1.7.8-2.4.4h0Z" fill="#fff"/><path d="M308.5,149.6c1.2-.6,2.7-.7,3.9-1.3-1.1.7-2.6,1.6-3.9,1.3h0Z" fill="#fff"/><path d="M312.1,146.8c-1.4.5-2.5,1.6-3.8,2.2.2-.7,1-1.2,1.7-1.5.6-.3,1.5-.7,2.1-.7h0Z" fill="#fff"/><path d="M311.1,148c-.7.5-1.9,1.5-2.8,1.2.4-.4.8-.6,1.4-.7.5-.1,1-.4,1.4-.5h0Z" fill="#fff"/><path d="M307.7,146.5c-.1-.8.4-1.6,1-2.1.7-1,1.6-2.3,2.9-2.6-.9,1.3-2.5,1.8-3.1,3.3,0,0-.7,1.3-.7,1.3h0Z" fill="#fff"/><path d="M311,143.4c-1.2.9-1.8,2.3-2.9,3.3,0-.7.6-1.4,1.1-1.9.5-.5,1.2-1.2,1.8-1.4h0Z" fill="#fff"/><path d="M309.7,144.9c-.4.8-.9,2.2-1.9,2.4.2-.5.5-.9.9-1.3.4-.3.7-.9,1-1.1h0Z" fill="#fff"/><path d="M310.4,152.1h1.5c1.6.2,2.8-1,4.4-1.2-.8,1-2.3,1.2-3.6,1.4-.7.3-1.6.4-2.3-.1,0,0,0,0,0,0h0Z" fill="#fff"/><path d="M314.7,150.7c-1.3.7-3,1.4-4.4.9,1.4-.4,3-.4,4.4-.9h0Z" fill="#fff"/><path d="M313,150.8c-1,0-2,.6-3,.4,0-.3,1.1-.5,1.5-.5.5,0,1.1,0,1.5.1h0Z" fill="#fff"/><path d="M304.5,151.6c0-.4-.2-.9.1-1.3.2-.2.4-.3.6-.4.8-.7,1.1-1.8,1.4-2.7.6,1.1-.4,2.2-1.3,2.8-.5.5-.4,1.3-.8,1.6h0Z" fill="#fff"/><path d="M307,152c.2-.4.6-.4.9-.4.2,0,1,.2.9.4-.5,0-.9.1-1.3.2-.1,0-.4,0-.5-.2h0Z" fill="#fff"/><path d="M322,140.7c-.4.3-.7.4-1.2.6-.4.1-1.1.7-1.3.6.6-.6,1.5-1.8,2.5-1.2,0,0,0,0,0,0h0Z" fill="#fff"/><path d="M323.6,143.2c-.5.4-1,.5-1.6.6-.5,0-1.4.3-1.7.1.8-.3,1.6-.6,2.5-.8.2,0,.8,0,.9.1h0Z" fill="#fff"/><path d="M298.1,191c.4.8.7,1.7.3,2.6-.6.8-1.4,1-1.9,1.9-1,1.4-2.6,1.5-3.4,3-.4,0-.2-1-.2-1.4.3-1.4,2-1.7,3.1-2.2,1.9-.6,1.1-2.4,2-3.9,0,0,.1,0,.1,0M298.7,189.8h-.7c-.6,0-.9.3-1.1.6h0c-.4.8-.6,1.5-.7,2.2-.2,1-.2,1.1-.7,1.2h0s0,0,0,0c-.2,0-.4.2-.7.3-1.1.4-2.7,1-3.1,2.7h0s0,0,0,0c-.4,2,.4,2.6,1,2.7l.9.2.4-.8c.3-.5.7-.8,1.3-1.2.7-.4,1.4-.9,2-1.7h0s0,0,0,0c.1-.2.3-.4.7-.6.4-.3.9-.6,1.2-1.2h0c0,0,0-.2,0-.2.5-1.2.4-2.4-.3-3.6l-.4-.6h0Z" fill="#fff"/><path d="M306.8,173.7c-1.4,2.1-.5,3.1-.5,4.6s-1.1,2-1.1,3,.5,2.1.2,3.6c-.3,1.5-5.2,5.2-5.2,5.2-.8.6-1.3,1-1.7,1-.6,0-.9-.8-1.1-3-1-7.9,3.1-10.3,3.1-10.3,1.8-2.5,6.4-4,6.4-4M309.3,171.8l-2.9,1c-.2,0-4.8,1.6-6.8,4.2-.9.6-4.4,3.6-3.4,11.2.2,1.7.5,3.8,2.1,3.8s1.3-.4,2.3-1.2c1.6-1.2,5.3-4.1,5.6-5.8.3-1.2,0-2.1,0-2.9,0-.3-.1-.7-.1-1,0-.2,0-.3.3-.7.3-.5.8-1.2.8-2.3,0-.5,0-1-.2-1.4-.2-.9-.3-1.5.5-2.6l1.7-2.5h0Z" fill="#fff"/><path d="M297.8,189.6c.3-5.8,4-10.9,8.4-14.5,0,0,0,0,0,0-4.4,3.7-6.9,9.1-8.4,14.4h0Z" fill="#fff"/><path d="M297.8,190.5c0-1.2.4-2.4,1.1-3.4.8-1.8,1.6-3.8,3.2-5.1-.8,1.9-2.2,3.4-3.1,5.1-.4,1.1-.6,2.5-1.2,3.4h0Z" fill="#fff"/><path d="M297.8,190.6c1.1-4.3,4.5-7.5,7.7-10.3-3,3-5.6,6.6-7.7,10.3h0Z" fill="#fff"/><path d="M298.1,190.9c.2-1.3,1.1-2.3,2.1-3.2,1.4-1.6,2.9-3.3,4.9-3.9-1.4,1.6-3.3,2.6-4.8,4.1-.8,1-1.4,2.2-2.2,3h0Z" fill="#fff"/><path d="M298.6,190.8c.1-.9.8-1.5,1.5-1.9.9-1,1.9-2.1,3.3-2.3-.9,1.1-2.2,1.6-3.2,2.5-.5.6-1,1.4-1.6,1.8h0Z" fill="#fff"/><path d="M304.8,191.7c1.5,0,7.3,1,6.4,1.4-1,.4-1.3,1.7-2.2,2.6-.7.7-1.3,1.8-4,1.8s-2.4-.2-4.1-.6l-2.5-1.2s1.4-1.6,2.3-2.3c.9-.8,3-1.5,4-1.6,0,0,.1,0,.2,0M304.8,190.7c-.1,0-.2,0-.3,0-1.1.1-3.4.9-4.5,1.9-1,.8-2.4,2.4-2.4,2.4l-.9,1,1.2.6,2.5,1.2h0s0,0,0,0c1.7.4,3.2.7,4.4.7,2.7,0,3.8-1.1,4.4-1.8,0,0,.2-.2.2-.2.5-.5.8-1,1.1-1.4.3-.5.5-.9.8-1,.6-.2.8-.8.7-1.2-.1-.7-.7-1.1-3.6-1.6-1.3-.2-3-.5-3.9-.5h0Z" fill="#fff"/><path d="M298.4,195.6c2.5.1,5.2.9,7.5-.4.8-.6,1.8-1.2,2.8-1.3.4,0,1.4-.4,1.5-.3-.5.1-1,.3-1.5.4-1.6.3-2.6,1.7-4.1,2.2-2,.7-4.4.2-6.3-.6h0Z" fill="#fff"/><path d="M298.6,195.7c1.3-.5,2.7-.2,4-.6,1.3-.4,2.5-.8,3.8-1.3-.6,1.3-2.5,1.4-3.8,1.5-1.3,0-2.8.9-4.1.3h0Z" fill="#fff"/><path d="M298,195.7c1.1-.4,2.7-1,3.8-1.3,1.3-.3,2.7-1,3.9-1.2-1.8.8-3.7,1.7-5.6,2.3-.5,0-1.6.4-2,.2h0Z" fill="#fff"/><path d="M298.8,195.6c0-.8.6-1.2,1.2-1.4.8-.7,1.5-1.5,2.6-1.6,0,0,0,0,0,0-.7.9-1.7,1.1-2.6,1.7-.4.5-.8.9-1.3,1.3,0,0,0,0,0,0h0Z" fill="#fff"/><path d="M298.2,195.6c.8-.9,2-.9,3-1.5,1-.6,1.7-1.3,2.8-1.7-.4,1-1.7,1.7-2.7,1.9-1.1.4-1.9,1.3-3.1,1.3,0,0,0,0,0,0h0Z" fill="#fff"/><path d="M298.7,195.7c1.9.5,3.8,1,5.6,1.3-1.8,0-4.4.2-5.6-1.3h0Z" fill="#fff"/><path d="M272.4,180c.4.4,5.6,3.4,7.4,2.8-.6-.1,5.3-1.4,8.4,5.7.8,2,1,3.4.4,3.8-.4.3-1.2.1-2.1-.2-.5-.8-4.7,0-5.7-.4-.9-.9-1.1-2.1-1.7-2.9-.6-.8-1.8-.6-2.9-2.3-1.1-1.8-.8-2.7-3.8-6.6M268.1,176.1c1,1.2,2.4,3,3.7,4.6,1.8,2.2,2,2.9,2.4,4.1.2.5.4,1.1.7,1.7.7,1.3,1.8,2.1,2.4,2.4.5.3.6.4.7.5.2.3.3.6.4.9.3.7.6,1.7,1.4,2.6,1.5,1.1,4.3-.2,6.4,1.1,1.2.4,2.2.7,2.9,0,1.6-2,.9-4,.5-5.2-1.6-6.1-9.5-7.7-9.6-6.9-2.3.3-7.4-3.2-8.1-3.6-1.3-.7-2.7-1.6-3.9-2h0Z" fill="#fff"/><path d="M288.3,190.2c-5.7-7.9-7.9-1.6-14.2-7.7,6,5.5,9.5-.8,14.2,7.7t0,0Z" fill="#fff"/><path d="M288.8,191.3c-3.2-4.1-5.7-4.7-7.9-4.5,1-.6,2.3-.6,3.7.4,1.2.9,3.6,2.1,4.2,4.2h0Z" fill="#fff"/><path d="M288.9,191.4c-5.1-5.2-6.8-2.9-10.7-3,3.5-.3,6.3-3.2,10.7,3h0Z" fill="#fff"/><path d="M288.8,192c-.9-.6-1.8-1.3-2.6-1.8-2.5-2.1-3.6.3-5.8.6,2.1-1.8,3.1-2.4,5.9-1.1.8.5,2.1,1.3,2.4,2.4h0Z" fill="#fff"/><path d="M288.3,192.3c-1.3-.4-2.2-1.7-3.2-1.6-.9,0-1.7.4-2.4.4,1-1.7,2.2-.8,3.9-.4.5.2,1.4.8,1.6,1.6t0,0Z" fill="#fff"/><path d="M29.2,96s3.4,3.5,3.9,6.5c0,0,2.5,4-2,10.6-1,1.5-1.6,2.2-2.1,2.2s-.8-.6-1.3-1.7c0,0-2.7-5.6-2.3-7,.4-1.4,1.3-2.2,1.8-3.1.5-.9-.3-1.8.4-3.2.7-1.3,1.9-1.8,1.6-4.3M27.8,93.2l.4,3c.2,1.4-.2,1.8-.7,2.5-.3.3-.5.7-.8,1.2-.5,1-.4,1.8-.3,2.4,0,.4,0,.6,0,.7-.1.2-.3.5-.5.8-.5.6-1,1.4-1.3,2.6-.4,1.6,1.5,5.9,2.3,7.7.6,1.2,1.1,2.3,2.2,2.3s1.8-.9,2.9-2.6c4.3-6.3,2.6-10.5,2.1-11.5-.6-3.2-4-6.7-4.1-6.9l-2.1-2.2h0Z" fill="#fff"/><path d="M29.8,114.3c1.3-5.5,1.3-11.4-.8-16.6,0,0,0,0,0,0,2.3,5.1,3.3,11.6.8,16.7h0Z" fill="#fff"/><path d="M29.4,115.1c0-1.2.3-2.4.5-3.5,0-2-.5-4-.4-6,.9,1.9.7,4,.5,6,0,0,0,1.2,0,1.2,0,.7-.2,1.8-.7,2.3h0Z" fill="#fff"/><path d="M29.4,115.1c0-4.3-.8-8.6-2.1-12.6,1.5,3.9,3.2,8.5,2.1,12.6h0Z" fill="#fff"/><path d="M29,115.3c-.2-1.3-.3-2.5-.5-3.7-.6-2-1.9-3.8-2.4-5.8,1.5,1.6,2,3.7,2.6,5.8.5,1.1.9,2.7.3,3.7h0Z" fill="#fff"/><path d="M28.6,115c-.3-.8-.4-1.5-.5-2.3-.5-1.2-1.5-2.3-1.7-3.7,1.1.9,1.5,2.3,1.9,3.6.4.7.7,1.6.4,2.4,0,0,0,0,0,0h0Z" fill="#fff"/><path d="M19.8,108.7c.7,0,5,3.1,5.6,3.8.6.8,1.6,2.8,1.7,3.9.1,1.2,0,3.3,0,3.3l-2.6-.9c-5.6-3.2-5-5.2-5-6.5s.7-2.4.2-3.4c0-.1,0-.2,0-.2M19.8,107.7h0c-.4,0-.7.2-.9.5,0,.1-.3.6,0,1.1.1.3,0,.7-.1,1.3-.1.5-.2,1.1-.2,1.8,0,.1,0,.2,0,.3,0,1.9.4,4.1,5.5,7h0s0,0,0,0l2.6.9,1.3.4v-1.4c0,0,.1-2.2,0-3.4-.1-1.5-1.2-3.6-1.9-4.5-.5-.6-5.1-4.1-6.4-4.1h0Z" fill="#fff"/><path d="M27.1,119.7c-2.4-1.1-4.9-2.8-5.4-5.5-.1-1.6-.8-3-1.6-4.3,0,0,0,0,0,0,.3.4.6.9.9,1.3.6.8.9,1.9,1.1,2.9.6,2.6,3.4,3.9,5,5.6h0Z" fill="#fff"/><path d="M26.9,119.6c-1.3-.7-1.8-2.1-2.6-3.1-.9-1-2.1-2.4-1.6-3.7.6,1.3,1.2,2.3,1.8,3.6.7,1.2,2.1,2,2.5,3.3h0Z" fill="#fff"/><path d="M27.3,119.9c-2-1.9-2.6-4.7-3.7-7.2,1,1.6,1.9,3.6,2.9,5.3,0,0,.9,1.8.9,1.8h0Z" fill="#fff"/><path d="M26.8,119.3c-.1-.6-.1-1.2,0-1.8-.2-1-.8-1.9-.6-3,0,0,0,0,0,0,.8.9.7,1.9.8,3,.2.6.4,1.3-.1,1.9,0,0,0,0,0,0h0Z" fill="#fff"/><path d="M27.2,119.7c-.9-.9-.8-2.1-1.3-3.1-.6-.9-1-2.3-.6-3.3.5,1,.6,2.1.8,3.2.3,1.1,1.1,1.9,1.1,3.2,0,0,0,0,0,0h0Z" fill="#fff"/><path d="M26.8,119.5c-2,0-3.6-1.7-4.9-3,.8.4,1.6,1.2,2.4,1.6.8.5,1.8.8,2.5,1.4h0Z" fill="#fff"/><path d="M19.6,222.8c1.2,0,8.5,5.2,9.5,6.4,1.1,1.4,2.7,4.7,2.9,6.7.2,2,0,5.6,0,5.6l-4.5-1.5c-9.5-5.4-8.5-8.8-8.5-11,0-2.2,1.1-4.2.4-5.8,0-.2,0-.3.1-.3M19.6,221.8h0c-.4,0-.8.2-1,.5-.1.2-.3.6,0,1.2.3.7,0,1.6-.1,2.6-.2.8-.4,1.8-.4,2.9,0,.2,0,.4,0,.6,0,2.4-.1,6,9,11.3h0s0,0,0,0l4.5,1.5,1.3.4v-1.4c0-.1.2-3.6,0-5.7-.2-2.3-2-5.9-3.1-7.2-.9-1.1-8.5-6.8-10.3-6.8h0Z" fill="#fff"/><path d="M31.9,241.4c-4-1.8-8.3-4.7-9.2-9.4-.3-1.8-.5-3.4-1.5-5-.4-.8-.8-1.6-1.3-2.3h0c.5.7,1,1.4,1.5,2.2.5.8,1,1.5,1.3,2.4.3.9.3,1.8.6,2.6,1.1,4.4,5.7,6.6,8.6,9.5h0Z" fill="#fff"/><path d="M31.6,241.3c-2.2-1.2-3-3.5-4.5-5.3-1.5-1.6-3.6-4-2.8-6.3,1,2.1,2.1,4,3.1,6.1,1.2,2,3.3,3.3,4.2,5.5,0,0,0,0,0,0h0Z" fill="#fff"/><path d="M32.3,241.9c-3.3-3.1-4.5-8.1-6.3-12.2,0,0,0,0,0,0,1.5,3.1,3.2,6,4.8,9,0,0,1.4,3.1,1.4,3.1h0Z" fill="#fff"/><path d="M31.5,240.8c-.2-1.1-.2-2,0-3.1-.4-1.8-1.4-3.1-1.1-5.1,0,0,0,0,0,0,.5.6.8,1.2,1,1.9.3,1,.1,2.1.3,3.2.2.7.6,1.4.4,2.1,0,.4-.2.8-.5,1,0,0,0,0,0,0h0Z" fill="#fff"/><path d="M32.1,241.5c-1.5-1.5-1.3-3.5-2.2-5.3-1-1.6-1.6-3.6-1.1-5.6,0,0,0,0,0,0,.9,1.7,1,3.6,1.4,5.5.5,1.9,1.9,3.2,1.9,5.4,0,0,0,0,0,0h0Z" fill="#fff"/><path d="M31.5,241.2c-3.5,0-6.1-2.9-8.3-5.2,0,0,0,0,0,0,1.3,1,2.6,2,4,2.8,1,.6,3.7,1.8,4.2,2.4h0Z" fill="#fff"/><path d="M55.9,202.9c.5,2.5-2.6,4.7-2.4,7.1,0,1.7,1,4,.4,6-.7,2.2-3.2,2.8-4.4,4.4-2,3.3-3,6.9-4.6,10.6h0s-.2,0-.2,0c-.3-4,.9-8.6,4.2-11.1,1.1-.9,2.2-1.6,3-2.6,1.6-2-.6-4.1-.5-7.3,0-1.6,1-2.9,2-4,1-1,1.9-1.7,2.2-3h.2M55.9,201.9h-.2c-.5,0-.8.3-1,.7-.2.8-.8,1.3-1.5,2-.2.2-.4.4-.5.5-1.5,1.5-2.2,3.1-2.3,4.6,0,1.5.4,2.8.7,3.8.5,1.4.6,2.2,0,2.9-.5.7-1.2,1.2-2,1.8-.3.2-.5.4-.8.6-3.2,2.4-4.9,6.9-4.6,12,0,.5.4.9.8.9,0,0,.3,0,.3,0,.4,0,.7-.2.9-.6.5-1.2,1-2.5,1.5-3.7.9-2.4,1.7-4.6,3-6.7.4-.5,1-.9,1.6-1.4,1.1-.8,2.4-1.7,2.9-3.3.4-1.5.1-2.9-.1-4.2-.1-.7-.3-1.4-.3-2,0,0,0,0,0-.1,0-.8.5-1.7,1.1-2.6.8-1.3,1.7-2.8,1.3-4.5,0-.5-.5-.8-1-.8h0Z" fill="#fff"/></svg>