<?xml version="1.0" encoding="UTF-8"?><svg id="Layer_1" xmlns="http://www.w3.org/2000/svg" width="280.8" height="317.1" viewBox="0 0 280.8 317.1"><path d="M52.1,171.4c-1.1,0-2.3-.2-3.6-.7h-.1s0-.1,0-.1c-2.1-2.1-3.1-4.4-3-6.8.2-3.7,3.1-6.5,4.8-7.9.3-.3.6-.7.9-1.1.4-.6.7-1.2,1.3-1.5.2,0,.3-.1.5-.1.4,0,.7.2,1,.3.2,0,.4.2.5.2.5-.2,1.1-.4,1.6-.4s.4,0,.6.1c.6.2.8,1,.8,1.4.5.3,1.5.9,1.7,1.6,0,.4,0,.8,0,1.3,0,.3,0,.6,0,.8.8,4.3,0,8.3-1.9,10.7-1.3,1.5-3,2.3-5,2.3Z" fill="#eee9e0"/><path d="M52.8,153.7c.5,0,1.1.5,1.5.5s.1,0,.2,0c.4-.1,1-.4,1.4-.4s.2,0,.4,0c.5.2.5,1.3.5,1.3,0,0,1.5.7,1.6,1.4.1.5,0,1.5,0,2,1.1,6.3-1,12.3-6.4,12.3s-2.1-.2-3.4-.7c-5.4-5.4-2.3-10.7,1.7-13.9.9-.7,1.2-2.1,2.1-2.6,0,0,.2,0,.3,0M52.8,152.6c-.3,0-.5,0-.8.2-.7.4-1.2,1.1-1.5,1.7-.2.4-.5.8-.7,1-1.8,1.4-4.8,4.4-5,8.3-.1,2.5.9,5,3.2,7.2l.2.2h.2c1.3.6,2.6.8,3.8.8,2.2,0,4-.9,5.4-2.5,2.1-2.5,2.9-6.7,2.1-11.1,0-.1,0-.4,0-.7,0-.5,0-1,0-1.5-.2-.8-1-1.4-1.7-1.8-.1-.6-.4-1.3-1.1-1.6-.2,0-.5-.1-.8-.1-.6,0-1.2.2-1.6.4,0,0-.2,0-.2-.1-.3-.1-.8-.3-1.2-.3h0Z" fill="#4b1428"/><path d="M48.8,170c-1.4-2-.7-4.5.3-6.5.4-1.3,1-2.5,2.1-3.4,0,0,0,0,0,0-.5,1.2-1.3,2.3-2,3.4-.9,2-.6,4.3-.4,6.4h0Z" fill="#4b1428"/><path d="M50.3,171c1.7-1.4,3.2-3.1,4.2-5.2.4-1.3.7-2.6,1.3-3.9,0,0,0,0,0,0,0,1.4-.5,2.7-1.1,3.9-.8,2-2,4.7-4.4,5.1h0Z" fill="#4b1428"/><path d="M53.2,172.3c1,.2,2.1.2,3.3-.4,2.5-1.3,3-3.7,3-3.7-1.1,2.1-2.4,3.4-6.1,2.9,0,0-1.8-.7-4.2-.4-1.6-1.7-3.3-2.4-3.3-2.4-3-2.2-3.2-3.9-2.6-6.2,0,0-1.3,2.2-.2,4.8.5,1.4,1.5,2.1,2.4,2.6,1,1,.6,2.8.9,4.2.1.5.4.8.7,1.1,0,0,0,0,0,0,.2,0,.4.2.7.3.3.1.6.2.8.2,0,0,0,0,0,0,.4,0,.9,0,1.2-.3,1.1-.9,1.9-2.5,3.2-2.7Z" fill="#eee9e0" stroke="#4b1428" stroke-linecap="round" stroke-linejoin="round" stroke-width="1.1"/><path d="M49,169.7c-.6-.7-.5-1.7-.2-2.5.1-1.3.3-3,1.3-3.9-.1,1.7-1.4,3.1-1.1,4.8,0,0,0,1.6,0,1.6h0Z" fill="#4b1428"/><path d="M50.9,170.3c.5-.8,1-1.5,1.5-2.1.7-1.3.9-2.8,1.8-4,0,1.5-1,2.8-1.7,4.1-.3.8-.8,1.8-1.7,2.1h0Z" fill="#4b1428"/><path d="M50,170.2c.6-1.3,1.6-2.4,2.3-3.8-.4,1.3-1,3.1-2.3,3.8h0Z" fill="#4b1428"/><path d="M50.9,165.4c-.8,1.4-.9,3-1.5,4.5-.3-.7,0-1.7.3-2.4.3-.7.7-1.6,1.2-2.1h0Z" fill="#4b1428"/><path d="M51,167.1c-.2.9-.5,2.5-1.4,2.9,0-.6.3-1,.6-1.5.3-.4.5-1.1.8-1.4h0Z" fill="#4b1428"/><path d="M47.1,168.3c-.7-.6-.8-1.5-.7-2.4-.1-1.3-.3-3,.5-4.1.2,1.7-.8,3.3-.2,4.9,0,0,.4,1.6.4,1.6h0Z" fill="#4b1428"/><path d="M47.6,163.4c-.4,1.6,0,3.2,0,4.8-.5-.6-.5-1.6-.4-2.4,0-.8.1-1.8.5-2.4h0Z" fill="#4b1428"/><path d="M47.7,165.6c.2.9.8,2.5.2,3.2-.2-.5-.2-1.1-.2-1.6,0-.5,0-1.2,0-1.6h0Z" fill="#4b1428"/><path d="M53.3,170.9l1.2-1.1c1.4-.9,1.6-2.8,2.7-4.1,0,1.4-1.1,2.6-1.9,3.6-.4.7-1,1.4-2,1.5,0,0,0,0,0,0h0Z" fill="#4b1428"/><path d="M55.8,166.7c-.6,1.4-1.4,3.3-2.9,3.8.9-1.3,2.2-2.4,2.9-3.8h0Z" fill="#4b1428"/><path d="M54.5,168.1c-.8.8-1.2,1.8-2.2,2.4-.2-.3.5-1.2.9-1.4.4-.3.9-.9,1.3-1h0Z" fill="#4b1428"/><path d="M48.1,174.7c-.4-.3-.8-.6-.9-1.2,0-.3.1-.5.2-.7.1-.8-.2-1.5-.4-2.3-.1-.3-.3-.6-.4-.9.1,0,.5.3.6.4.8.7.5,1.9.4,2.8-.1.8.6,1.4.5,1.9h0Z" fill="#4b1428"/><path d="M50.4,173.2c0-.4.1-.7.5-.9.2-.1.9-.5,1-.4-.4.3-.6.7-.9,1.1-.1,0-.4.3-.6.2h0Z" fill="#4b1428"/><path d="M54.7,153.6c-.2.5-.3.9-.6,1.3-.3.4-.4,1.3-.6,1.4,0-.9,0-2.5,1.1-2.7,0,0,0,0,0,0h0Z" fill="#4b1428"/><path d="M57.8,154.4c-.1.7-.5,1.2-.9,1.6-.4.3-1,1.2-1.3,1.3.5-.8.9-1.6,1.4-2.4.2-.1.6-.6.8-.5h0Z" fill="#4b1428"/><path d="M243.5,157.3c-.4-1.5-.5-3.1-.6-4.7,0-.4,0-.7,0-1.1v-.3c0-.4,0-.8-.1-1.1-1-2.1-2.9-4.6-5.2-6.7h0c0,0,0-.1,0-.1-1.9-3.1-2-6.8-2.1-10.4,0-1,0-2-.1-3,0-.9-.3-1.5-.8-2.4-.1-.2-.2-.4-.3-.6-1-3.3-.9-6.6.2-10.3h0c0,0,0-.1,0-.1.8-1.4,1.7-2.8,2.6-4.1.8-1.2,1.7-2.5,2.4-3.8l.5-.8c1.2-1.9,2.4-3.8,4.4-5.2h.1c0,0,.2-.1.2-.1.3,0,.5.2.6.4,0,.2,0,.5-.1.6-1.4,2.1-2.5,4.5-3.6,6.8-1.2,2.6-2.5,5.3-4.2,7.7-.6,2.1-1.2,5.3-.7,7.9.3.6,1,2.6.7,4.1-.5,3.7-.7,8.4,1.8,11.5,2.8,1.8,4.9,4.4,6,7.7.3.9.1,2,0,3,0,.4-.1.8-.1,1.2,0,.5-.1,1-.2,1.5,0,.9-.1,1.8-.5,2.5l-.6,1.3-.4-1.4Z" fill="#eee9e0"/><path d="M244.7,103c0,0,.2.1,0,.2-3,4.5-4.6,10.1-7.8,14.5-.8,2.4-1.2,5.8-.7,8.3.4,1,1,2.7.7,3.8-.5,4-.7,8.8,2,12,2.8,1.7,4.8,4.4,5.9,7.5.3,1.1-.1,2.8-.2,3.9-.2,1.2-.1,2.7-.6,3.8-.5-1.8-.5-3.8-.7-5.7,0-.5,0-1.1-.2-1.6-1.2-2.5-3.3-5-5.4-6.9-2.4-3.9-1.8-8.8-2.1-13.1,0-1.2-.5-1.9-1.2-3.2-1-3.4-.8-6.6.2-9.9,1.6-2.8,3.5-5.1,5-7.8,1.3-2.1,2.6-4.4,4.7-5.8,0,0,0,0,0,0M244.7,102c-.2,0-.5,0-.7.2-2,1.4-3.3,3.4-4.5,5.4-.2.3-.3.5-.5.8h0s0,0,0,0c-.7,1.3-1.5,2.5-2.4,3.7-.9,1.3-1.8,2.6-2.6,4.1h0c0,.1,0,.2,0,.2-1.1,3.9-1.2,7.2-.2,10.6h0c0,0,0,.2,0,.2.1.2.2.4.3.7.5.9.7,1.3.7,2.1h0s0,0,0,0c0,.9,0,1.9.1,2.9,0,3.6.2,7.4,2.2,10.6h0c0,.1.1.2.1.2,2.3,2.1,4.1,4.5,5.1,6.6,0,.1,0,.5,0,.8,0,.1,0,.2,0,.3h0s0,0,0,0c0,.4,0,.7,0,1.1,0,1.6.2,3.3.6,4.8l.8,2.8,1.2-2.7c.4-.8.5-1.8.5-2.7,0-.5,0-.9.2-1.3h0c0,0,0-.2,0-.2,0-.3,0-.7.1-1.1.1-1,.3-2.2,0-3.2-1.2-3.4-3.4-6.2-6.2-8-2.4-2.9-2.1-7.4-1.7-11,.3-1.6-.4-3.5-.8-4.3-.4-2.4,0-5.5.7-7.5,1.7-2.4,3-5.1,4.2-7.7,1.1-2.4,2.2-4.6,3.5-6.7.3-.3.3-.8.2-1.2-.2-.5-.6-.8-1.1-.8h0Z" fill="#4b1428"/><path d="M39,246.6c-.5-1.5-.6-3.1-.7-4.7,0-.4,0-.7,0-1.1v-.3c0-.4,0-.8-.1-1.1-1-2.1-3-4.6-5.3-6.6h0s0-.1,0-.1c-2-3.1-2.1-6.8-2.2-10.3,0-1,0-2-.2-3,0-.9-.3-1.5-.8-2.4-.1-.2-.2-.4-.3-.6-1.1-3.3-1-6.6,0-10.3h0c0,0,0-.1,0-.1.8-1.5,1.7-2.8,2.5-4.1.8-1.2,1.6-2.5,2.4-3.8l.5-.8c1.2-1.9,2.4-3.9,4.3-5.3h.1c0-.1.2-.1.2-.1.3,0,.5.2.6.4,0,.2,0,.5,0,.6-1.4,2.1-2.4,4.5-3.5,6.8-1.2,2.6-2.4,5.4-4.1,7.7-.6,2.1-1.1,5.4-.6,7.9.3.6,1.1,2.6.8,4.1-.4,3.7-.6,8.4,2,11.4,2.8,1.7,4.9,4.4,6.2,7.6.3.9.1,2,0,3,0,.4-.1.8-.1,1.2,0,.5-.1,1-.1,1.5,0,.9-.1,1.8-.4,2.5l-.6,1.3-.4-1.4Z" fill="#eee9e0"/><path d="M39.3,192.4c0,0,.2.1,0,.2-2.9,4.5-4.5,10.2-7.6,14.6-.7,2.5-1.1,5.8-.6,8.3.5,1,1,2.6.8,3.8-.5,4-.6,8.8,2.2,12,2.8,1.7,4.8,4.3,6,7.4.4,1.1,0,2.8-.1,3.9-.2,1.2,0,2.7-.5,3.8-.5-1.8-.6-3.8-.7-5.7,0-.5,0-1.1-.2-1.6-1.2-2.4-3.3-4.9-5.5-6.8-2.4-3.8-1.9-8.8-2.3-13.1,0-1.2-.5-1.9-1.2-3.2-1.1-3.4-.9-6.6,0-9.9,1.5-2.8,3.4-5.2,4.9-7.9,1.3-2.1,2.5-4.4,4.6-5.9,0,0,0,0,0,0M39.3,191.3h0c-.3,0-.5,0-.7.2-2,1.5-3.2,3.5-4.4,5.4-.2.3-.3.5-.5.8h0s0,0,0,0c-.7,1.3-1.5,2.5-2.3,3.8-.9,1.3-1.8,2.7-2.6,4.1h0c0,.1,0,.2,0,.2-1.1,3.9-1.1,7.2,0,10.6h0c0,0,0,.2,0,.2.1.2.2.4.3.6.5.9.7,1.3.7,2.1h0s0,0,0,0c0,.9.1,1.9.2,2.9.1,3.6.3,7.4,2.3,10.6h0c0,.1.1.2.1.2,2.3,2,4.2,4.4,5.2,6.5,0,.1,0,.5,0,.8,0,.1,0,.2,0,.3h0s0,0,0,0c0,.4,0,.7,0,1.1.1,1.6.2,3.3.7,4.8l.9,2.8,1.2-2.7c.4-.8.4-1.8.5-2.7,0-.5,0-.9.1-1.3h0c0,0,0-.2,0-.2,0-.3,0-.7.1-1.1.1-1,.3-2.2,0-3.2-1.3-3.4-3.4-6.1-6.3-7.9-2.4-2.9-2.3-7.3-1.8-11,.3-1.6-.5-3.5-.8-4.3-.5-2.4,0-5.5.5-7.5,1.7-2.4,2.9-5.1,4.1-7.7,1.1-2.4,2.1-4.7,3.4-6.7.2-.3.3-.8.2-1.2-.2-.5-.6-.8-1.1-.8h0Z" fill="#4b1428"/><path d="M28.3,147.5c-.3,0-.5-.2-.6-.4,0-.2,0-.4,0-.6,1.3-2.2,2.2-4.6,3.2-7,1.1-2.7,2.2-5.5,3.7-7.9.5-2.1.9-5.4.2-7.9-.3-.6-1.2-2.5-1-4.1.3-3.8.2-8.4-2.5-11.4-2.9-1.6-5.1-4.1-6.5-7.4-.3-.8-.2-2-.2-3,0-.4,0-.8,0-1.2,0-.5,0-1,0-1.5,0-.9,0-1.8.3-2.5l.5-1.4.5,1.4c.5,1.5.7,3.1.9,4.7,0,.4,0,.7.1,1.1v.3c0,.4,0,.8.2,1.1,1.1,2.1,3.2,4.4,5.6,6.4h0s0,.1,0,.1c2.1,3,2.4,6.7,2.7,10.2,0,1,.2,2,.3,3,0,.9.4,1.5.9,2.3.1.2.2.4.4.6,1.2,3.3,1.3,6.5.4,10.3h0c0,0,0,.1,0,.1-.7,1.5-1.6,2.9-2.4,4.2-.8,1.3-1.5,2.6-2.2,3.9l-.5.9c-1.1,2-2.2,4-4.1,5.4h-.1c0,.1-.3.1-.3.1Z" fill="#eee9e0"/><path d="M25.8,93c.6,1.7.7,3.8,1,5.6,0,.5,0,1.1.3,1.5,1.3,2.4,3.6,4.8,5.8,6.6,2.6,3.7,2.3,8.7,2.8,12.9,0,1.2.6,1.9,1.3,3.1,1.2,3.3,1.2,6.5.4,9.9-1.4,2.9-3.2,5.3-4.6,8.1-1.2,2.1-2.3,4.5-4.4,6.1,0,0,0,0,0,0,0,0-.2-.1,0-.2,2.7-4.7,4-10.4,7-14.9.6-2.5.9-5.9.2-8.3-.5-1-1.1-2.6-1-3.8.3-4,.2-8.8-2.7-11.9-2.9-1.6-5-4.1-6.3-7.1-.4-1,0-2.8,0-3.9.2-1.2,0-2.7.4-3.8M25.8,89.9l-1.1,2.7c-.3.9-.4,1.8-.4,2.7,0,.5,0,.9,0,1.3h0c0,0,0,.2,0,.2,0,.3,0,.7,0,1.1,0,1.1-.2,2.2.2,3.2,1.4,3.4,3.7,6,6.6,7.6,2.5,2.7,2.6,7.2,2.3,10.9-.2,1.6.6,3.4,1,4.3.6,2.4.3,5.5-.2,7.5-1.5,2.5-2.7,5.2-3.7,7.9-1,2.4-1.9,4.8-3.1,6.9-.2.3-.3.8-.1,1.1.2.4.6.7,1.1.7s.5,0,.7-.3c1.9-1.5,3.1-3.6,4.2-5.6.2-.3.3-.6.5-.8h0s0,0,0,0c.7-1.3,1.4-2.6,2.2-3.9.8-1.3,1.6-2.7,2.4-4.2h0c0-.1,0-.2,0-.2.9-3.9.8-7.3-.4-10.6h0c0,0,0-.2,0-.2-.1-.2-.3-.4-.4-.6-.5-.8-.8-1.3-.8-2h0s0,0,0,0c-.1-.9-.2-1.9-.3-2.9-.3-3.6-.6-7.4-2.8-10.5h0c0-.1-.1-.2-.1-.2-2.4-1.9-4.4-4.2-5.5-6.3,0-.1,0-.5-.1-.8,0-.1,0-.2,0-.3h0s0,0,0,0c0-.3,0-.7-.1-1.1-.2-1.6-.4-3.3-.9-4.8l-1-2.7h0Z" fill="#4b1428"/><path d="M122.6,247.9c-1,0-1.4-.9-1.4-1.5s.4-1.5,1.4-1.5h9.5c2.1,0,2.7-1.2,2.7-2.6v-124.6c0-1.5-.6-2.2-2.2-2.2h-10.4c-1,0-1.5-.5-1.5-1.1s.6-1.5,1.5-1.5h40c27.6,0,45.6,12.5,45.6,66.8s-21.8,68.1-45.6,68.1h-39.6ZM155.4,115.8c-1.4,0-2.2.9-2.2,2.2v124.3c0,1.5.4,2.6,2.1,2.6h6.9c17.3,0,28.4-18.7,28.4-65.1s-11-64-28.4-64h-6.8Z" fill="#4c1127"/><path d="M79,204.2c-1,0-1.4-.9-1.4-1.5s.4-1.5,1.4-1.5h9.5c2.1,0,2.7-1.2,2.7-2.6v-124.3c0-1.5-.6-2.2-2.2-2.2h-10.4c-1,0-1.5-1-1.5-1.6s.6-1.2,1.5-1.2h37.1c23.1,0,37.6,9,37.6,39.2s-14.1,35.8-36.9,35.8h-6.9v54.4c0,1.6.9,2.6,2.6,2.6h10.4c1.1,0,1.7.7,1.7,1.5s-.6,1.5-1.7,1.5h-43.5ZM111.8,72.1c-1.4,0-2.2.9-2.2,2.2v66.7h6.9c11.8,0,17.6-7.8,17.6-32.6s-6.4-36.4-19.2-36.4h-3.1Z" fill="#4c1127"/><path d="M247.1,159.1c-12.9-19.1,15.8-112.3-25.3-111.7-.2,0,0-.3-.1-.4C208.1,9.9,146.9,5.1,139.3,4.7h0c-7.6.5-68.8,5.2-82.3,42.3,0,.1,0,.4-.1.4-41.1-.6-12.4,92.6-25.3,111.7,12.9,19.1-15.8,111.2,25.3,110.6.2,0,0,.3.1.4,13.6,37.1,74.7,41.9,82.3,42.3h0c7.6-.5,68.8-5.2,82.3-42.3,0-.1,0-.4.1-.4,41.1.6,12.4-91.4,25.3-110.6ZM218.3,265.4c-.2,0,0,.3-.1.4-13,35.7-71.6,40.3-78.8,40.7h0c-7.3-.4-65.9-5-78.8-40.7,0-.1,0-.4-.1-.4-39.3.5-11.9-87.9-24.2-106.3,12.4-18.4-15.1-108,24.2-107.4.2,0,0-.3.1-.4C73.4,15.6,132,11.1,139.3,10.6c-.4,0-.7,0-.7,0h1.4s-.2,0-.7,0c7.3.4,65.9,5,78.8,40.7,0,.1,0,.4.1.4,39.4-.5,11.9,89,24.2,107.4-12.3,18.4,15.1,106.9-24.2,106.3Z" fill="#4c1127"/><path d="M237.7,251v-.5c0-1.3,1.7-6.5,3.5-9,.5-.7,1-1.2,1.6-1.8.9-.9,1.7-1.7,1.9-2.8.3-2.8,1.1-5.6,1.9-8.3.4-1.3.7-2.6,1.1-3.9.2-.7.8-1.2,1.2-1.7.1-.1.3-.3.4-.4.9-.9,1.7-2.1,2.3-3.1,1.4-2.9.8-6.2.1-9.7-.4-1.9-.7-3.9-.7-5.8,0-.8,0-2.9,1.5-3.8.2-.1.5-.3.7-.4.1,0,.3-.1.4-.2,0-.5-.3-1.1-.5-1.7,0-.2-.1-.4-.2-.5-2.4-4.4-2.3-9.4-2.2-14.2,0-2,0-4.2,0-6.2-.3-1.3-1.1-2.5-2-3.8-.6-1-1.3-2.1-1.8-3.2-.3-.7-.5-1.5-.6-2.2-.2-1.1-.7-2.2-1.2-3.4-.3-.7-.6-1.4-.9-2.1-.9-2-1-5,.6-6.8.2-.3.2-.6.1-.9,0-.1,0-.3,0-.4v-1.2c0-2.6-.2-5.6-.4-8h0c0,0,0-.1,0-.1.5-2.8,2.7-4.9,4.6-6.5,1-1,1.5-2.8,2-4.3,0-.3.2-.6.3-.9v-.3c.3-.6.5-1.3,1.1-1.8,1-1,2.2-1.5,3.4-2l.6-.2h.1c.3,0,.5.2.5.4v.4c0,0-.3.2-.3.2l-.5.3c-1,.5-2.1,1.1-2.8,1.9-.4.5-.5,1.3-.7,2.1-.1.5-.2,1.1-.4,1.6-.4,2.2-1.8,3.7-3.1,5.2-1.2,1.3-2.3,2.5-2.7,4.2.3,3.2.5,6.6.5,10.2,0,.8-.5,1.5-.8,2-.2.4-.5.7-.6,1.1-.4,1.7.3,3.5,1,5.4.2.6.5,1.2.7,1.8.3.6.4,1.4.4,2.1,0,.7.1,1.3.4,1.9.4,1.1,1,2.1,1.6,3.1.8,1.3,1.6,2.7,2.1,4.3.2,2.3.2,4.5.2,6.7,0,1.9,0,3.8.2,5.7,0,2.1.9,4,1.7,6,.5,1.1,1,2.3,1.4,3.5h0c0,.5.2.9.1,1.4-.2.9-.8,1.3-1.2,1.6h-.1c-1.2.6-1.2,1-1.1,2.3,0,1.8.4,3.6.8,5.5.7,3.8,1.5,7.7-.4,11.4-.8,1.6-1.8,2.6-2.6,3.5-.4.5-.8.9-1.2,1.4-.4,1.3-.8,2.6-1.2,3.9-.8,2.6-1.6,5.2-2,7.8-.3,1.7-1.6,2.8-2.7,3.8-.5.5-1.1,1-1.5,1.5-1.4,1.7-3.1,6.2-3.7,7.7-.2.6-.3.8-.6.8h-.5Z" fill="#eee9e0"/><path d="M256.7,129.1c0,0,.1.1,0,.1-1.2.7-2.6,1.3-3.4,2.3-.8,1-.7,2.6-1.2,3.8-.7,4.1-5,5.6-5.8,9.5.4,3.4.5,6.8.5,10.2-.1,1.2-1.2,2-1.4,2.9-.6,2.4.8,5,1.7,7.5.5,1.3.3,2.7.8,4,1,2.6,2.9,4.6,3.7,7.3.4,4.1,0,8.2.4,12.3,0,3.4,2.2,6.3,3.1,9.6,0,.4.2.7.1,1.2-.1.7-.7,1-1,1.2-1.5.6-1.5,1.3-1.4,2.7.2,5.4,3.1,11.2.5,16.6-1.2,2.3-2.8,3.4-3.9,4.9-1.1,3.9-2.6,7.9-3.2,11.8-.4,2.3-2.8,3.5-4.1,5-1.7,2.2-3.9,8.3-3.9,8.3s0,0,0,0c0-1.2,1.7-6.4,3.4-8.7,1.2-1.7,3.2-2.7,3.6-4.8.5-4.2,1.9-8.1,2.9-12.2.2-.8,1-1.3,1.5-1.8.9-.9,1.8-2.1,2.4-3.2,2.3-4.9-.5-10.6-.5-15.8,0-1.1,0-2.7,1.2-3.4.5-.3,1.2-.5,1.4-.8,0-.8-.4-1.8-.7-2.7-3.3-6.3-1.7-13.4-2.2-20.3-.7-2.5-2.8-4.6-3.8-7.1-.3-.6-.5-1.4-.5-2.1-.3-2-1.4-3.7-2.1-5.6-.8-1.8-1-4.6.5-6.3.4-.6.2-1.1.3-1.7,0-2.8-.1-6.5-.4-9.3.4-2.5,2.5-4.6,4.4-6.2,1.3-1.3,1.9-3.7,2.5-5.4.2-.6.4-1.4.9-2,1.1-1.1,2.4-1.6,3.7-2.1,0,0,0,0,0,0M256.7,128.2h-.4c0,0-.4.3-.4.3-1.2.5-2.5,1-3.6,2.1-.6.6-.9,1.4-1.1,2,0,.1,0,.2,0,.3,0,.3-.2.6-.3.9-.5,1.5-1,3.2-1.9,4.1-1.9,1.6-4.2,3.8-4.7,6.8h0c0,.1,0,.3,0,.3.2,2.4.3,5.4.3,8v1.2c0,.1,0,.3,0,.4,0,.4,0,.5,0,.7-1.8,2.1-1.6,5.2-.6,7.3.3.7.6,1.4.9,2.1.5,1.1,1,2.2,1.2,3.3,0,.7.3,1.6.6,2.4.5,1.2,1.2,2.2,1.8,3.3.8,1.2,1.5,2.4,1.9,3.7.1,2,.1,4.1,0,6.1,0,4.8-.2,9.8,2.2,14.4,0,.2.1.3.2.5.2.4.3.9.4,1.3,0,0,0,0-.1,0-.3.1-.5.2-.8.4-1.2.7-1.8,2.3-1.7,4.3,0,1.9.4,3.9.7,5.8.6,3.4,1.2,6.6,0,9.4-.5,1-1.4,2.1-2.2,3-.1.1-.2.2-.4.4-.5.5-1.1,1-1.4,1.8h0s0,0,0,0c-.3,1.3-.7,2.6-1.1,3.9-.8,2.7-1.6,5.5-1.9,8.4-.2,1-.9,1.7-1.8,2.5-.6.6-1.2,1.1-1.7,1.8-1.7,2.4-3.5,7.8-3.5,9.3v1h1c.7,0,.9-.5,1.1-1.1,1.5-3.9,2.8-6.5,3.6-7.6.4-.5.9-.9,1.4-1.4,1.2-1,2.5-2.2,2.9-4.1.4-2.6,1.2-5.2,2-7.8.4-1.2.8-2.5,1.1-3.8.3-.4.7-.8,1.1-1.3.9-.9,1.9-2,2.7-3.6,1.9-3.9,1.2-7.9.4-11.7-.4-1.9-.7-3.6-.7-5.3h0c0-1.3,0-1.4.8-1.8h0s0,0,0,0h0c.4-.3,1.2-.8,1.4-1.9h0s0,0,0,0c0-.7,0-1.1-.1-1.5h0c-.4-1.4-.9-2.6-1.4-3.7-.9-2-1.7-3.8-1.7-5.8h0s0,0,0,0c-.1-1.9-.1-3.8-.2-5.7,0-2.2,0-4.4-.2-6.7h0c0,0,0-.2,0-.2-.5-1.7-1.3-3-2.1-4.4-.6-1-1.2-2-1.6-3-.2-.5-.3-1.1-.4-1.7,0-.7-.2-1.5-.5-2.2-.2-.6-.4-1.2-.7-1.8-.7-1.9-1.4-3.6-1-5.1,0-.3.3-.6.5-.9.4-.6.8-1.3.9-2.2h0s0,0,0,0c0-3.6-.2-7-.5-10.2.4-1.5,1.4-2.7,2.6-3.9,1.3-1.4,2.8-3,3.2-5.4.2-.5.3-1.1.4-1.6.2-.7.3-1.4.6-1.9.6-.7,1.6-1.2,2.6-1.7.2,0,.4-.2.5-.3.4-.2.6-.7.5-1.2-.1-.5-.5-.8-1-.8h0Z" fill="#4b1428"/><path d="M35.3,175l-.2-.5c-.8-2.7-1.7-5.5-2.9-8.2-.3-.6-.7-1.2-1.1-1.8-.9-1.3-1.9-2.7-1.8-4.6.3-2.9,0-5.8,0-8.7,0-1.4-.2-2.9-.2-4.3-.2-.6-.6-1.1-.9-1.7-.6-1.1-1.4-2.4-1.8-4.2-1-4.3.8-8.3,2.6-12.1.9-1.9,1.7-3.7,2.2-5.5.4-1.4.5-1.8-.6-2.6h0s0-.1,0-.1c-.3-.3-.9-.9-.8-1.9,0-.6.3-1,.5-1.4h0c.7-1.3,1.5-2.4,2.3-3.5,1.4-1.9,2.8-3.7,3.3-5.9.6-2,1.2-4,1.6-6,.6-2.3,1.2-4.6,1.9-6.9.9-1.7,2.1-2.9,3.3-4.1.9-.9,1.8-1.9,2.5-2.9.4-.6.6-1.2.9-1.9.3-.7.5-1.5,1-2.1.3-.6.7-1.2,1.1-1.8,1.3-1.9,2.4-3.7,2.4-5.5,0-.4-.1-.8-.3-1.2-.2-.6-.5-1.4-.4-2.2.9-3.8,2-7.4,3.1-10.7,0-1.9-.8-3.4-1.7-5-1-1.8-2-3.7-1.9-6.1,0-.6,0-1.2,0-1.7,0-.9,0-1.7-.2-2.4-.5-1-1.4-1.8-2.3-2.5l-.7-.6v-.4c.2-.2.4-.4.7-.4h.2l.6.4c1.1.8,2.3,1.6,3,2.9.4.7.5,1.5.5,2.1v.4c0,.3,0,.6,0,1,.1,1.8.3,3.8,1,5,1.5,2,3.3,4.7,3.1,7.8h0c0,0,0,.1,0,.1-.8,2.5-1.7,5.6-2.4,8.3l-.4,1.3c0,.1,0,.3-.1.4-.1.4-.2.7,0,1.1,1.2,2.2.3,5.3-1.2,7.3-.4.7-.9,1.3-1.4,2-.9,1.1-1.7,2.2-2.2,3.4-.2.7-.6,1.5-1.2,2.2-.7,1.1-1.7,2-2.6,3-1.2,1.2-2.3,2.3-3,3.7-.7,2-1.2,4.3-1.6,6.4-1.1,5.1-2.3,10.3-5.9,14.5,0,.1-.2.3-.3.5-.4.6-.8,1.2-.9,1.7,0,0,.3.2.4.3.2.2.5.3.7.6,1.3,1.3.8,3.5.5,4.4-.5,2-1.4,4-2.2,5.9-1.5,3.4-3.1,6.9-2.4,10.3.3,1.1.9,2.5,1.6,3.7,0,.2.2.3.3.5.4.6.8,1.2.8,2,0,1.5,0,3,0,4.4,0,3,.2,6.1-.2,9.2,0,1.2.6,2.2,1.3,3.3.4.7.9,1.4,1.2,2.2,1,2.7,1.7,5.5,2.3,8.2l.2.7-.2.3c-.1.1-.3.2-.5.2h-.4Z" fill="#eee9e0"/><path d="M46.8,44s0,0,0,0c1.2.8,2.5,1.6,3.3,3,.4.7.4,1.6.5,2.3.2,2,.2,4.6,1.2,6.2,1.6,2.1,3.2,4.7,3,7.5-1,2.9-2,6.7-2.8,9.7-.1.6-.4,1.1-.2,1.8,1.1,2.1.2,5-1.1,6.8-1.2,1.9-2.8,3.5-3.6,5.5-.2.7-.6,1.5-1.1,2.1-1.7,2.4-4.4,4.2-5.7,6.7-2.3,7.1-2.4,14.9-7.5,20.9-.5.8-1.2,1.8-1.4,2.6.1.3.8.7,1.2,1.1,1,1,.7,2.7.4,3.9-1.3,5.5-5.7,10.9-4.6,16.5.3,1.3,1,2.7,1.6,3.9.4.7,1.1,1.4,1.1,2.2,0,4.5.5,9-.1,13.5-.1,2.2,1.7,3.7,2.5,5.8,1.1,2.8,1.7,5.7,2.3,8.6,0,0,0,0,0,0s0,0,0,0c-.8-2.8-1.7-5.7-2.9-8.3-.9-1.9-3-3.7-2.9-6.2.4-4.3-.2-8.8-.3-13.2-.8-1.8-2.1-3.2-2.7-5.9-1.4-6.2,3.2-11.7,4.7-17.3.4-1.4.6-2.2-.8-3.1-.3-.3-.8-.7-.7-1.5,0-.6.3-.9.5-1.3,1.8-3.2,4.8-5.9,5.7-9.4,1.4-4.2,2.1-8.7,3.6-12.9,1.5-2.7,4-4.4,5.7-6.9.9-1.2,1-2.8,1.9-4,1.5-2.5,3.7-4.9,3.7-7.6,0-1.1-.9-2.1-.7-3.4.9-3.6,1.9-7.2,3.1-10.7.2-4.2-3.9-6.8-3.6-11.2-.2-1.4.2-3-.3-4.3-.6-1.3-1.8-2.2-2.9-3.1,0,0,0-.1,0-.1M46.8,42.9c-.5,0-.9.3-1.1.8-.2.4,0,.9.3,1.2.2.1.3.3.5.4.9.8,1.8,1.5,2.2,2.4.2.6.2,1.3.2,2.1,0,.6,0,1.2,0,1.8-.2,2.6.9,4.6,1.9,6.3.9,1.5,1.7,3,1.6,4.7-1.2,3.3-2.2,6.8-3.1,10.6h0s0,0,0,0c-.1,1,.2,1.8.4,2.5.1.4.3.8.3,1,0,1.7-1.1,3.4-2.4,5.2-.4.6-.8,1.2-1.2,1.8-.5.7-.8,1.5-1,2.2-.2.7-.5,1.3-.8,1.8-.7,1-1.6,1.9-2.5,2.9-1.2,1.2-2.4,2.5-3.3,4.2h0c0,0,0,.2,0,.2-.8,2.3-1.4,4.7-2,7-.5,2-1,4-1.6,6h0s0,0,0,0c-.6,2.1-1.9,3.8-3.3,5.7-.8,1.1-1.6,2.2-2.3,3.4h0c-.2.5-.4,1-.5,1.7h0s0,0,0,0c0,1.2.6,1.9,1,2.3h0s0,.1,0,.1h0c.8.6.8.6.4,2h0c-.5,1.9-1.3,3.6-2.2,5.5-1.8,3.9-3.6,7.9-2.6,12.4.5,1.9,1.2,3.2,1.9,4.4.3.5.6,1,.8,1.5,0,1.4.1,2.9.2,4.2.2,2.8.3,5.8,0,8.6-.1,2,1,3.6,1.9,4.9.4.6.8,1.2,1.1,1.7,1.2,2.6,2.1,5.5,2.9,8.2.1.5.6.8,1.1.8s.7-.2.9-.4c.2-.3.3-.6.2-1v-.5c-.7-2.7-1.3-5.5-2.4-8.3-.3-.9-.8-1.6-1.2-2.3-.7-1-1.2-2-1.2-3,.4-3.1.3-6.2.2-9.2,0-1.4,0-2.9,0-4.4h0s0,0,0,0c0-.9-.5-1.7-.9-2.2-.1-.2-.2-.3-.3-.5-.6-1.1-1.2-2.5-1.5-3.6-.6-3.3.8-6.5,2.4-10,.9-1.9,1.8-4,2.2-6,.4-1.2.8-3.5-.7-4.9-.2-.2-.5-.4-.7-.6,0,0,0,0,0,0,.2-.4.5-.8.8-1.3.1-.2.2-.3.3-.5,3.7-4.3,4.8-9.6,6-14.7.5-2.1,1-4.3,1.6-6.4.7-1.3,1.8-2.3,2.9-3.5.9-.9,1.9-1.9,2.7-3,.6-.7,1-1.6,1.2-2.3.5-1.1,1.3-2.2,2.1-3.2.5-.6,1-1.3,1.4-2,1.5-2,2.5-5.2,1.2-7.8,0-.2,0-.3,0-.7,0-.1,0-.3.1-.5l.3-1.2c.7-2.7,1.6-5.9,2.4-8.3h0c0-.1,0-.3,0-.3.2-3.2-1.6-6-3.2-8.1-.7-1.2-.8-3.1-.9-4.8,0-.3,0-.7,0-1,0-.1,0-.2,0-.3,0-.7,0-1.6-.6-2.4-.8-1.4-2.1-2.3-3.2-3l-.4-.3-.3-.2h-.4Z" fill="#4b1428"/><path d="M238.9,101.9c.1-.3.3-.6.4-.7,0,0,0,0,0,0,.2,0,.4,0,.6,0,.2.2.5.4.9.3.1.1.2.3.3.4-2.8,9-2.3,19.7,5.7,20.2,1.6,0,3.5,3.4,5.5,2.8,4.3-1.4,3.6-6,3.9-9,.6-6.6-5.1-12-12.5-14.7-.4-.5-.5-.8-.5-1.1.2-.2.4-.4.5-.7.4-.2.8-.2,1.1-.2,1.8.9,3.6,2.5,7.7,3.9,2.9,1,5.4,4.2,8.5,4.3,3.6,0,8.7-2.9,8.5-7.2,0-1.1-1.6-2.7-1.7-3.6-.7-3.6-.8-5.6-3-6.9s-5.2-1.4-8.8,0c-3.2,1.2-6.9,3.6-10.9,7.2-.4,0-.7.1-1,.1-.2-.3-.6-.4-1-.4,0,0,0,0,0,0,0,0,0,0,0-.1,0-.4-.4-.8-.8-.9,0-.3,0-.5,0-.7,5.4-3.1,18.8-9.7,13.9-17.3-.6-.9-.1-3.7-2.2-5.1-2.8-1.3-5.1.6-6.5.6-5.1-.3-8.1,7.3-7.3,21.4,0,.3-.2.6-.3.8,0,0,0,0-.1.1-.3.3-.8.2-1.2,0-.6-2.8-1.8-6.8-3.8-10s-5.9-7.1-9.8-6.3-3,4.8-5.2,7.1c-3.2,2.5-2.4,4.6-1.5,7.6,1.6,5.5,7.9,8.8,18.6,5.7.5,0,.8,0,1,.2,0,.1.1.2.2.3,0,.3-.3.6-.6.9-5.7,2.2-22,1-17.2,16.7s.9-.5,4.6,8.1c3.6,2.2,10.7-3.3,14-23.4Z" fill="#eee9e0" stroke="#4b1428" stroke-miterlimit="10" stroke-width="1.6"/><path d="M238.5,95c-1.3-.1-.5,1.3-.8,1.5s-.6.2-.8.6-.4.4,0,1.2.5,0,.7.6,0,.8.3,1.2.2.5.6.5.6-.1.6.2.5.3.9.4.8.5,1.1.3.1-.5.6-.1.6.7,1,.3.6-.5.5-.9.2-.6.3-1.1.7-.4.7-1-.2-1.3-.5-1.3-.3-.3-.6-.7-.4-1.4-.7-1.2-.6.1-.9,0-.3-.7-.7-.8-1.1.2-1.2.5-1.3,0-1.3,0Z" fill="#eee9e0" stroke="#4b1428" stroke-miterlimit="10" stroke-width=".5"/><path d="M237.6,95.4c-1.1-1-1.7-2.2-2.3-3.5-1.4-1.8-3.3-3.3-4.3-5.5,0,0,0,0,0,0,.9.5,1.6,1.1,2.2,1.8,1,1,1.5,2.4,2.3,3.5,1,1,1.9,2.2,2.1,3.6,0,0,0,0,0,0h0Z" fill="#4b1428"/><path d="M236.8,97.2c-1.5-1-2.7-2.2-4-3.4-2.5-1.6-5.3-2.5-7.5-4.4,0,0,0,0,0,0,1.2.2,2.3.7,3.3,1.2,1.6.8,2.9,2.1,4.3,3.1,1.6.8,3.1,1.9,3.9,3.5,0,0,0,0,0,0h0Z" fill="#4b1428"/><path d="M236.9,98.3c-1.3,0-2.3-.4-3.4-1-2-.4-3.9-.3-5.8-1.3,0,0,0,0,0,0,.8-.2,1.6-.1,2.4,0,1.2.2,2.2.9,3.4,1.2,1.2,0,2.4.3,3.4,1.2,0,0,0,0,0,0h0Z" fill="#4b1428"/><path d="M237.2,96.4c-1.1-.8-2.5-1.9-3.4-2.9-1.1-1-2.3-2-3.4-2.9h0c1.9,1.1,3.9,2.3,5.6,3.8.5.6,1,1.2,1.3,2h0Z" fill="#4b1428"/><path d="M238,96c-1.1-.6-1.9-1.5-2.6-2.5-.7-1-1.5-1.9-2.2-2.9h0c1.3,1.2,2.7,2.4,3.9,3.8.4.5.7,1,.9,1.6h0Z" fill="#4b1428"/><path d="M238,94.6c-1.6-2-2.1-4.5-3.6-6.5,0,0,0,0,0,0,.9.9,1.7,1.9,2.4,3,.8,1.1,1.3,2.3,1.3,3.6,0,0,0,0,0,0h0Z" fill="#4b1428"/><path d="M236.3,97.4c-2-.2-3.6-1.5-5.4-2.2,0,0,0,0,0,0,1,.2,1.9.4,2.9.7,1,.2,1.9.6,2.6,1.5,0,0,0,0,0,0h0Z" fill="#4b1428"/><path d="M236.7,98.6c-1.8,1-3.8,0-5.7-.3,0,0,0,0,0,0,1,0,1.9,0,2.8,0,1,0,1.9,0,2.8.3,0,0,0,0,0,0h0Z" fill="#4b1428"/><path d="M217.8,90.1c1.1.6,1.7,1.4,2.3,2.4,1.4,1.1,3.1,1.9,4.4,3.2,0,0,0,0,0,0-.8,0-1.6-.3-2.2-.7-1-.6-1.6-1.6-2.4-2.4-1-.6-1.9-1.3-2.2-2.5,0,0,0,0,0,0h0Z" fill="#4b1428"/><path d="M222,82.4c1.1-.2,2.2.1,3.1.8.2.2.4.3.7.4.5,0,1.1,0,1.5.5.2.1.6.5.5.8-.9,0-1.5-.4-2.2-1-.7-.3-1.6-.2-2.3-.5-.5-.2-.9-.4-1.4-.9,0,0,0,0,0,0h0Z" fill="#4b1428"/><path d="M217.9,87.4c2.3,1.4,4.3,3.1,6.5,4.5-1.3-.3-2.5-1-3.7-1.6-1.2-.6-2.4-1.5-2.9-2.8,0,0,0,0,0,0h0Z" fill="#4b1428"/><path d="M221.2,83.2c2,.2,3.7,1.4,5.4,2.3,0,0,.9.5.9.5.3.2.6.3.8.7,0,0,0,0,0,0-.9-.6-2.6-1.1-3.6-1.5-1.3-.4-2.5-.9-3.4-1.9,0,0,0,0,0,0h0Z" fill="#4b1428"/><path d="M218.7,87c.8,0,1.3.4,1.8.9.6.3,1.4.2,1.9.6.3.2.9.5,1.1.9-1,.3-1.9-.2-2.6-.9-.2-.2-.3-.3-.6-.4-.7,0-1.4-.3-1.7-1.1,0,0,0,0,0,0h0Z" fill="#4b1428"/><path d="M221,84.7c.8-.2,1.4.2,1.9.7.2.1.4.2.7.2,1,.1,1.9.4,2.3,1.4,0,0,0,0,0,0-.9,0-1.8-.4-2.4-1-.2-.2-.4-.3-.6-.4-.7,0-1.4-.2-1.8-.9,0,0,0,0,0,0h0Z" fill="#4b1428"/><path d="M223.4,80.4c.9-.2,1.9,0,2.7.4.4.3.8.4,1.3.5.5.1,1.1.2,1.5.6,0,0-.1-.1-.1-.1,1.1.5,2,1.4,2.3,2.5,0,0,0,0,0,0-1.4-.8-2.4-1.8-3.7-2.7-.8-.5-1.8-.3-2.6-.6-.4-.1-.8-.3-1.2-.6h0Z" fill="#4b1428"/><path d="M217.9,88.9c.9.3,1.5.8,2.1,1.4,0,0,2,1.6,2,1.6h0c-.8-.3-1.6-.6-2.3-1.1-.8-.4-1.6-.9-1.8-1.9,0,0,0,0,0,0h0Z" fill="#4b1428"/><path d="M223.7,79.7c.9-.5,1.8-.2,2.6.2.8.3,1.6.7,2.3,1.1h0c0,0-2.5-.4-2.5-.4-.9,0-1.6-.3-2.4-.7,0,0,0,0,0,0h0Z" fill="#4b1428"/><path d="M222.6,81.7c1.2-.9,2.5.1,3.6.7.1.1.3.2.4.4h0c-.8-.5-2-.4-2.9-.6-.3-.1-.6-.2-1-.4h0Z" fill="#4b1428"/><path d="M218,91.6c1.3.8,1.5,2.3,2.5,3.3,0,0,0,0,0,0-.6-.4-1.2-.8-1.7-1.4-.6-.5-1-1.2-.9-2,0,0,0,0,0,0h0Z" fill="#4b1428"/><path d="M220.1,85.5c1.5.2,2.3,1.6,3.6,2.2,0,0,0,0,0,0-.7-.1-1.4-.3-2.1-.7-.7-.3-1.3-.7-1.6-1.5,0,0,0,0,0,0h0Z" fill="#4b1428"/><path d="M219.1,86.3c.6-.3,1.2,0,1.6.4.4.3.9.7,1.2,1.1h0c-.8-.2-1.6-.4-2.3-.7-.1-.1-.6-.5-.5-.7h0Z" fill="#4b1428"/><path d="M268.5,102.4c-.7,1-1.7,1.5-2.9,1.7-1,.4-1.9,1.3-3,1.5-.7.1-1.5.3-2.3,0,0,0,0,0,0,0,1.7-.8,3.5-1,5.2-1.6.9-.7,1.8-1.3,2.9-1.5,0,0,0,0,0,0h0Z" fill="#4b1428"/><path d="M267,93.7c-1.5.7-2.5.1-3.9,0-.3,0-.5.2-.8.3-.5.1-1.2,0-1.6,0,.4-.5,1-.6,1.5-.6.3,0,.5.1.8.2.8,0,1.6-.5,2.4-.4.5,0,1.1.2,1.6.5,0,0,0,0,0,0h0Z" fill="#4b1428"/><path d="M269.3,99.8c-.9,1.1-2.3,1.5-3.6,1.7-1.3.2-2.7.5-4,.3,1.2-.4,2.6-.6,3.8-1,1.3-.5,2.4-.8,3.7-1.1,0,0,0,0,0,0h0Z" fill="#4b1428"/><path d="M267.5,94.8c-1.8,1-3.9.7-5.9.8-.7,0-1.4,0-1.9.2,0,0,0,0,0,0,.2-.3.7-.3,1-.4,0,0,1-.2,1-.2,1.9-.3,4-.9,5.9-.4,0,0,0,0,0,0h0Z" fill="#4b1428"/><path d="M268.6,99.2c-.4.4-.8.6-1.3.6-.5,0-.9-.2-1.4,0-.9.4-1.8.5-2.7,0,0,0,0,0,0,0,.4-.3.9-.4,1.3-.5.6-.1,1.4.2,2,0,.6-.3,1.2-.6,2-.3,0,0,0,0,0,0h0Z" fill="#4b1428"/><path d="M267.2,96.3c-.6.5-1.3.5-2,.3-.7,0-1.3.5-2,.5-.4,0-1.1,0-1.4-.2.7-.8,1.7-.8,2.6-.6.2,0,.5,0,.7,0,.6-.3,1.3-.5,2,0,0,0,0,0,0,0h0Z" fill="#4b1428"/><path d="M266.3,91.4c-.9.2-1.8.2-2.7,0-.4-.1-.9-.2-1.3,0-1.5.4-2.8,1-4.4,1.4,0,0,0,0,0,0,.7-1,1.8-1.5,3-1.7,0,0-.2,0-.2,0,.4-.3,1.1-.1,1.6,0,.9.2,1.8-.4,2.7-.1.5,0,.9.2,1.3.5,0,0,0,0,0,0h0Z" fill="#4b1428"/><path d="M268.8,101.2c-.5.9-1.4,1.1-2.3,1.2-.8.2-1.7.3-2.6.3h0c0,0,2.4-1,2.4-1,.8-.4,1.5-.6,2.4-.6,0,0,0,0,0,0h0Z" fill="#4b1428"/><path d="M266.2,90.7c-.9.2-1.6.1-2.5,0,0,0-2.5-.4-2.5-.4h0c.8-.2,1.7-.3,2.6-.3.9,0,1.8,0,2.5.7,0,0,0,0,0,0h0Z" fill="#4b1428"/><path d="M266.6,92.9c-1.4.3-2.7-.5-4-.3,0,0,0,0,0,0,.3-.3.7-.3,1-.4,1.1-.1,2.4-.5,3.1.6,0,0,0,0,0,0h0Z" fill="#4b1428"/><path d="M267.8,97.3c-.5.7-1.2.9-2,.9-.7,0-1.5,0-2.2,0,0,0,0,0,0,0,1.1-.2,2-.6,3-.9.3,0,.7,0,1.1,0h0Z" fill="#4b1428"/><path d="M268.4,98.4c-.9.8-2.1.3-3.2.5,0,0,0,0,0,0,.5-.2,1-.4,1.5-.6.6-.2,1.1-.3,1.6.1,0,0,0,0,0,0h0Z" fill="#4b1428"/><path d="M256.2,118.2c-.8-.9-1-2-1.2-3.1-.9-1.6-2.1-2.9-2.9-4.6,0,0,0,0,0,0,.8.3,1.3.9,1.8,1.5.7.9.8,2.1,1.3,3.1.7.9,1.2,1.9,1.1,3.2,0,0,0,0,0,0h0Z" fill="#4b1428"/><path d="M250.7,124.3c-1-.5-1.6-1.5-1.9-2.6,0-.3-.1-.5-.3-.7-.1-.2-.4-.4-.6-.6-.3-.5-.5-1-.3-1.6,0,0,0,0,0,0,.6.6.9,1.3,1,2.1.4.7,1.1,1.2,1.5,1.9.2.5.4.9.5,1.5,0,0,0,0,0,0h0Z" fill="#4b1428"/><path d="M255.3,120.9c-.9-2.5-1.3-5.1-2.2-7.6.8,1.1,1.3,2.4,1.8,3.6.5,1.2.9,2.6.5,4,0,0,0,0,0,0h0Z" fill="#4b1428"/><path d="M252,124.8c-1.4-1.4-2-3.5-2.7-5.2-.2-.6-.6-1.3-.5-2,0,0,0,0,0,0,.3,1,1.3,2.5,1.8,3.5.7,1.1,1.3,2.3,1.4,3.7,0,0,0,0,0,0h0Z" fill="#4b1428"/><path d="M255.4,122.5c-.7-.5-.8-1.1-.8-1.8-.2-.6-.9-1-1.1-1.7-.1-.4-.4-1-.2-1.4.9.4,1.4,1.3,1.4,2.3,0,.2,0,.5.2.7.5.5.9,1.1.6,1.9,0,0,0,0,0,0h0Z" fill="#4b1428"/><path d="M253,124.5c-.7-.4-.9-1-1-1.7,0-.2-.2-.4-.4-.6-.7-.7-1.2-1.5-.9-2.6,0,0,0,0,0,0,.7.6,1.1,1.4,1.2,2.3,0,.2,0,.5.2.6.5.5.9,1,.8,1.8,0,0,0,0,0,0h0Z" fill="#4b1428"/><path d="M246.4,122c-.8-.4-1.5-1.1-1.8-2-.1-.5-.4-.8-.6-1.2-.3-.4-.8-.9-.8-1.4,0,0,0,.2,0,.2-.5-1.1-.6-2.3-.2-3.4,0,0,0,0,0,0,.5,1.5.7,3,1.1,4.4.3.9,1.2,1.3,1.6,2.1.2.4.4.8.6,1.2h0Z" fill="#4b1428"/><path d="M245.7,122.3c-1-.2-1.5-1-1.9-1.8-.4-.7-.8-1.5-1.1-2.3h0s1.6,1.9,1.6,1.9c.6.6,1.1,1.2,1.4,2.1,0,0,0,0,0,0h0Z" fill="#4b1428"/><path d="M248.1,122.2c-1.5,0-1.9-1.7-2.3-2.8,0-.2-.1-.3,0-.6h0c.4.9,1.3,1.7,1.9,2.4.2.3.3.6.5.9h0Z" fill="#4b1428"/><path d="M253.8,124.2c-1.5-1.8-1.7-4.1-2.8-6.1,0,0,0,0,0,0,.7.9,1.3,1.9,1.9,2.9.6,1,1.1,2.1,1,3.3,0,0,0,0,0,0h0Z" fill="#4b1428"/><path d="M254.7,123c-.7-.2-.9-.7-1-1.3-.1-.5-.2-1.1-.3-1.6,0,0,0,0,0,0,.4.7.9,1.4,1.2,2.1,0,.2.2.8,0,.9h0Z" fill="#4b1428"/><path d="M246.9,73.3c-.4,1.1-1.2,1.9-2,2.6-.9,1.6-1.4,3.3-2.5,4.9,0,0,0,0,0,0-.2-.8,0-1.6.3-2.3.4-1.1,1.4-1.8,2-2.7.4-1.1,1-2.1,2.2-2.5,0,0,0,0,0,0h0Z" fill="#4b1428"/><path d="M254.9,74.8c0,1.2-.4,2.1-1.2,2.9-.2.2-.4.4-.5.6-.2.5-.2,1.1-.7,1.5-.2.1-.5.5-.8.4.2-.9.6-1.4,1.3-2,.4-.7.4-1.6.8-2.2.3-.4.6-.9,1-1.2,0,0,0,0,0,0h0Z" fill="#4b1428"/><path d="M249.6,72.6c-1.7,2.1-3.7,3.8-5.3,5.8.5-1.2,1.4-2.3,2.1-3.4.8-1.1,1.8-2.1,3.1-2.5,0,0,0,0,0,0h0Z" fill="#4b1428"/><path d="M254.6,73.4c-.5,1.9-1.9,3.5-3.1,5.1-.4.5-.8,1.2-1.4,1.5,0,0,0,0,0,0,.7-.8,1.4-2.4,2-3.4.6-1.2,1.3-2.4,2.4-3.1,0,0,0,0,0,0h0Z" fill="#4b1428"/><path d="M250.9,71.7c0,.8-.5,1.3-1.1,1.7-.4.5-.4,1.3-.8,1.8-.2.3-.6.8-1.1.9-.1-1,.4-1.9,1.2-2.4.2-.1.4-.3.5-.5.2-.7.5-1.3,1.3-1.5,0,0,0,0,0,0h0Z" fill="#4b1428"/><path d="M253.9,72.8c0,.8-.4,1.3-1,1.8-.1.2-.2.4-.3.6-.2.9-.7,1.8-1.7,2.1,0,0,0,0,0,0,.2-.9.6-1.7,1.4-2.3.2-.1.3-.3.4-.5.1-.7.4-1.3,1.1-1.7,0,0,0,0,0,0h0Z" fill="#4b1428"/><path d="M256.2,78.1c0,.9-.2,1.9-.8,2.6-.3.4-.5.7-.7,1.2-.2.4-.3,1.1-.8,1.4,0,0,.2-.1.2-.1-.6,1-1.6,1.8-2.8,1.9,0,0,0,0,0,0,1-1.3,2.1-2.2,3.2-3.3.6-.7.5-1.7,1-2.5.2-.4.4-.8.8-1.1h0Z" fill="#4b1428"/><path d="M256.6,79.9c.3.9,0,1.8-.5,2.5-.4.8-.9,1.5-1.4,2.2h0s.8-2.4.8-2.4c.2-.9.5-1.6,1.1-2.3,0,0,0,0,0,0h0Z" fill="#4b1428"/><path d="M255.3,76.5c.7,1.3-.5,2.5-1.2,3.5-.1.1-.2.3-.5.3h0c.6-.8.7-2,1-2.9.1-.3.3-.6.5-.9h0Z" fill="#4b1428"/><path d="M253.2,72.2c-.8,2.2-2.6,3.6-3.7,5.6,0,0,0,0,0,0,.4-1.1.9-2.1,1.5-3.1.5-1,1.2-2,2.3-2.5,0,0,0,0,0,0h0Z" fill="#4b1428"/><path d="M251.7,72.1c.2.7-.1,1.2-.6,1.5-.4.4-.8.8-1.2,1.1h0c.4-.8.7-1.5,1.1-2.2.1-.1.6-.5.8-.4h0Z" fill="#4b1428"/><path d="M228,125c.3-1.2.9-2,1.7-2.9.7-1.7,1-3.5,1.9-5.1,0,0,0,0,0,0,.3.8.1,1.6,0,2.3-.3,1.1-1.1,2-1.6,3-.3,1.1-.8,2.2-1.8,2.8,0,0,0,0,0,0h0Z" fill="#4b1428"/><path d="M220.4,116.4c0-1.2.6-2.1,1.4-2.8.2-.2.4-.4.5-.6.1-.2.2-.5.3-.8.3-.5.7-.9,1.3-1,0,0,0,0,0,0-.2.8-.7,1.4-1.4,1.9-.4.6-.5,1.5-1,2.2-.3.4-.6.8-1.1,1.2,0,0,0,0,0,0h0Z" fill="#4b1428"/><path d="M224.9,124.8c1.1-2.4,2.6-4.6,3.7-6.9-.2,1.3-.7,2.6-1.2,3.8-.5,1.3-1.2,2.5-2.4,3.2,0,0,0,0,0,0h0Z" fill="#4b1428"/><path d="M220.9,118c.6-1.9,2.2-3.4,3.4-4.9.4-.4.9-1.1,1.5-1.4,0,0,0,0,0,0-.8.7-1.6,2.3-2.2,3.2-.7,1.2-1.4,2.3-2.6,3,0,0,0,0,0,0h0Z" fill="#4b1428"/><path d="M224.1,123.6c0-.8.4-1.3,1-1.7.4-.6.3-1.3.7-1.9.2-.3.6-.9,1-1,.2,1-.3,1.9-1,2.5-.2.2-.3.3-.4.5-.1.7-.4,1.3-1.2,1.6,0,0,0,0,0,0h0Z" fill="#4b1428"/><path d="M222.2,119.1c0-.8.5-1.3,1.1-1.7.2-.2.2-.4.3-.6.3-.9.8-1.7,1.9-2,0,0,0,0,0,0-.2.9-.7,1.6-1.5,2.2-.2.1-.4.3-.5.5-.2.7-.4,1.3-1.2,1.6,0,0,0,0,0,0h0Z" fill="#4b1428"/><path d="M219.3,113.1c0-.9.3-1.9,1-2.5.3-.3.6-.7.8-1.1.2-.4.4-1.1.9-1.3,0,0-.2.1-.2.1.7-1,1.7-1.7,2.9-1.7,0,0,0,0,0,0-1.1,1.2-2.3,2-3.4,3.1-.7.6-.6,1.7-1.1,2.4-.2.4-.5.7-.8,1.1h0Z" fill="#4b1428"/><path d="M226.3,125.5c.2-.9.5-1.6,1-2.3,0,0,1.2-2.2,1.2-2.2h0c-.2.9-.4,1.7-.7,2.5-.2.9-.6,1.7-1.5,2.1,0,0,0,0,0,0h0Z" fill="#4b1428"/><path d="M219.9,114.9c-.6-1.3.6-2.5,1.4-3.4.1-.1.2-.3.5-.3h0c-.6.8-.8,2-1.2,2.8-.2.3-.3.5-.6.9h0Z" fill="#4b1428"/><path d="M230.4,123c.1-1.5,1.4-2.4,1.9-3.7,0,0,0,0,0,0,0,.7-.2,1.4-.5,2.1-.2.7-.6,1.4-1.4,1.7,0,0,0,0,0,0h0Z" fill="#4b1428"/><path d="M222.6,120.1c.5-1.4,2-1.9,2.8-3.1,0,0,0,0,0,0-.3.7-.6,1.3-1.1,1.9-.4.7-1,1.2-1.8,1.2,0,0,0,0,0,0h0Z" fill="#4b1428"/><path d="M223.4,121.8c-.1-.7.2-1.1.7-1.5.4-.4.8-.7,1.3-1h0c-.4.7-.8,1.5-1.2,2.1-.1.1-.6.5-.8.4h0Z" fill="#4b1428"/><path d="M237.6,101.1c-1.2.9-2.5,1.3-3.8,1.7-2.1,1.1-3.8,2.7-6.1,3.4,0,0,0,0,0,0,.6-.8,1.4-1.4,2.1-1.9,1.2-.8,2.6-1.1,3.9-1.7,1.2-.8,2.4-1.5,3.9-1.5,0,0,0,0,0,0h0Z" fill="#4b1428"/><path d="M238.6,101.1c-1.2,1.3-2.6,2.3-4,3.4-2,2.2-3.3,4.8-5.6,6.7,0,0,0,0,0,0,.4-1.1,1.1-2.1,1.8-3.1,1-1.4,2.5-2.5,3.7-3.8,1.1-1.4,2.4-2.8,4.1-3.3,0,0,0,0,0,0h0Z" fill="#4b1428"/><path d="M238.7,101.3c-.1,1.3-.8,2.2-1.5,3.2-.7,1.9-1,3.8-2.3,5.5,0,0,0,0,0,0,0-.8.1-1.6.4-2.4.4-1.2,1.2-2.1,1.7-3.2.3-1.2.7-2.3,1.7-3.1,0,0,0,0,0,0h0Z" fill="#4b1428"/><path d="M238.4,101.2c-1.1.8-2.6,1.8-3.8,2.4-1.3.8-2.6,1.6-3.8,2.4,0,0,0,0,0,0,1.7-1.5,3.4-3,5.4-4.1.7-.3,1.4-.6,2.2-.6h0Z" fill="#4b1428"/><path d="M238,101.7c-.3,2-2.3,3.1-3.7,4.4,0,0,0,0,0,0,.6-.8,1.1-1.5,1.7-2.3.5-.8,1.1-1.5,1.9-2.1,0,0,0,0,0,0h0Z" fill="#4b1428"/><path d="M242.7,101.4c1.5.3,2.6,1.1,3.6,2.2,1.1.8,2.5,1.4,3.5,2.4.7.6,1.3,1.4,1.8,2.2,0,0,0,0,0,0-2.2-1.1-3.6-3-5.4-4.4-1.3-.6-2.5-1.2-3.5-2.3,0,0,0,0,0,0h0Z" fill="#4b1428"/><path d="M241.8,101.4c1.6.9,2.6,2.5,3.3,4.1,1.6,2.5,3.5,5,3.7,8-1.8-2.3-2.5-5.3-4-7.8-1.1-1.4-2.2-2.6-3.1-4.2,0,0,0,0,0,0h0Z" fill="#4b1428"/><path d="M241.7,101.4c.7,1.1.7,2.3.5,3.5.3,2,.9,4,0,5.9,0,0,0,0,0,0-.6-2-.2-3.9-.2-5.9-.4-1.2-.6-2.3-.3-3.5,0,0,0,0,0,0h0Z" fill="#4b1428"/><path d="M242.5,101.5c1.2.5,2.1,1.3,2.9,2.2.8.9,1.7,1.8,2.5,2.7h0c-1.4-1.1-2.9-2.1-4.3-3.3-.4-.5-.8-.9-1.1-1.5h0Z" fill="#4b1428"/><path d="M242,101.8c1.6,1.4,1.5,3.7,1.8,5.6,0,0,0,0,0,0-.3-.9-.7-1.8-1-2.7-.4-.9-.8-1.8-.7-2.8,0,0,0,0,0,0h0Z" fill="#4b1428"/><path d="M245,97.4c.9-1.2,2.1-1.9,3.5-2.3,1.2-.7,2.3-1.7,3.6-2.2.9-.3,1.8-.6,2.8-.7,0,0,0,0,0,0-1.9,1.5-4.2,2-6.3,3-1.1.9-2.2,1.7-3.6,2.2,0,0,0,0,0,0h0Z" fill="#4b1428"/><path d="M244.3,98.3c1.5-1.2,3.3-1.4,5.1-1.5,1.7-.3,3.5-.8,5.2-.8,1.2,0,2.4,0,3.5.4,0,0,0,0,0,0-2.9.7-5.8.3-8.7.7-1.7.5-3.3,1-5.1,1.3,0,0,0,0,0,0h0Z" fill="#4b1428"/><path d="M244.2,98.3c1.3-.3,2.4,0,3.5.6,1.2.3,2.4.2,3.6.6.8.3,1.5.6,2.1,1.2,0,0,0,0,0,0-2.1,0-3.8-1-5.7-1.5-1.2,0-2.4,0-3.5-.7,0,0,0,0,0,0h0Z" fill="#4b1428"/><path d="M244.2,98c2.1-2.2,5.7-2.2,8.6-2.7,0,0,0,0,0,0-2.2.6-4.3,1.4-6.4,2.1,0,0-2.2.6-2.2.6h0Z" fill="#4b1428"/><path d="M244.8,98.1c1.9-.9,4,0,5.9.4,0,0,0,0,0,0-1,0-2,0-2.9,0-1,0-1.9,0-2.9-.4,0,0,0,0,0,0h0Z" fill="#4b1428"/><path d="M241.3,94.6c.8-1.3,1.8-2.1,3-2.9,1.5-1.8,2.5-3.9,4.5-5.4,0,0,0,0,0,0-.3.9-.8,1.7-1.3,2.5-.8,1.2-2,2-3,3-.8,1.2-1.7,2.3-3.1,2.8,0,0,0,0,0,0h0Z" fill="#4b1428"/><path d="M240.5,94.7c.5-1.7,1.2-3.2,2-4.8.8-2.8.8-5.8,2-8.5,0,0,0,0,0,0,.1,1.2,0,2.4-.2,3.5-.3,1.8-1.1,3.4-1.6,5.1-.3,1.8-.9,3.5-2.2,4.8,0,0,0,0,0,0h0Z" fill="#4b1428"/><path d="M241,94.6c.6-1.2,1.5-2.8,2.3-3.8.8-1.3,1.6-2.6,2.3-3.9,0,0,0,0,0,0-.8,2.1-1.7,4.3-2.9,6.2-.5.6-1,1.2-1.7,1.6h0Z" fill="#4b1428"/><path d="M240.7,94.1c-.5-2,.4-3.9.4-5.8,0,0,0,0,0,0,.1,1,.2,2,.2,3,0,1,0,2-.7,2.9,0,0,0,0,0,0h0Z" fill="#4b1428"/><path d="M243,99.8c1-.2,0-1,.2-1.3s.4-.3.4-.6.2-.4-.3-.8-.4,0-.6-.2-.2-.6-.5-.8-.3-.3-.5-.2-.4.2-.5,0-.4-.1-.7-.1-.7-.1-.9,0,0,.4-.4.2-.6-.3-.8,0-.3.5-.1.8,0,.5,0,.9-.4.5-.3.9.4.9.6.8.3.2.6.4.6.9.8.7.4-.2.7-.1.4.4.7.4.7-.4.7-.6.9-.3.9-.3Z" fill="#eee9e0" stroke="#4b1428" stroke-miterlimit="10" stroke-width=".4"/><path d="M239.1,96.9c-.7.1,0,.8-.2.9s-.3.2-.4.4-.1.3.2.6.3,0,.5.2.2.4.3.6.2.3.4.2.3-.2.4,0,.3,0,.5.1.5.1.7,0,0-.3.3-.1.4.3.6,0,.2-.4.1-.6,0-.3,0-.7.3-.3.3-.6-.3-.7-.4-.6-.2-.1-.4-.3-.4-.7-.6-.6-.3.2-.5,0-.3-.3-.5-.3-.6.2-.6.4-.7.2-.7.2Z" fill="#eee9e0" stroke="#4b1428" stroke-miterlimit="10" stroke-width=".3"/><path d="M242.1,98.6c.4-.3-.2-.5-.1-.7s.1-.2.1-.4,0-.2-.3-.3-.2.1-.4,0-.2-.2-.4-.3-.2-.1-.3,0-.1.2-.2.1-.2,0-.4,0-.4,0-.4.2,0,.2-.2.2-.4,0-.4.2,0,.3,0,.4,0,.2.2.4-.1.3,0,.5.4.4.5.3.2,0,.4,0,.4.3.5.2.1-.2.3-.2.3.1.4,0,.3-.3.2-.4.4-.3.4-.3Z" fill="#eee9e0" stroke="#4b1428" stroke-miterlimit="10" stroke-width=".2"/><path d="M35.3,238.2c.2.3.3.5.5.6,0,0,0,0,0,0,.2,0,.4,0,.6,0,.2-.2.5-.4.8-.4,0-.1.2-.3.2-.4-3.9-7.7-4.9-17.6,2.8-18.2,1.5-.1,2.9-3.1,4.9-2.6,4.3,1,4.2,4.9,4.9,7.4,1.4,5.5-3.4,10.6-10.1,13.9-.3.4-.4.8-.4,1,.3.1.4.3.5.6.4.1.8,0,1.1,0,1.5-1,3.1-2.6,6.9-4.2,2.7-1.2,4.7-4.2,7.6-4.7,3.4-.5,8.7,1.1,9,4.4,0,.9-1.2,2.4-1.2,3.1-.2,2.9,0,4.5-2,6-2,1.5-4.8,2.2-8.4,1.7-3.2-.4-6.9-1.8-11.3-4.4-.4,0-.7,0-1,0-.2.3-.5.4-.9.4,0,0,0,0,0,0,0,0,0,0,0,.1,0,.4-.3.7-.6.9,0,.3,0,.5,0,.6,5.5,2.2,19.1,5.1,15.3,12.1-.5.9.3,3-1.5,4.7-2.5,1.7-4.8.7-6.1,1-4.7,1.4-8.6-4.5-9.7-17-.1-.3-.3-.5-.4-.6,0,0,0,0-.1,0-.4-.2-.8,0-1.1.2-.2,2.5-.8,6.3-2.3,9.4-1.5,3.2-4.6,7.3-8.4,7.1-1.7,0-3.5-4-5.9-6-3.4-2.1-2.9-4.2-2.5-7.1.8-5.5,6.3-8.8,16.9-6.9.5,0,.8-.2.9-.3,0-.1.1-.2.2-.3,0-.3-.3-.6-.6-.8-5.7-1.3-21.1.7-18.6-14.9.4-2.2.9.5,3.3-7.8,3.1-2.1,10.7,3.7,16.5,21.3Z" fill="#eee9e0" stroke="#4b1428" stroke-miterlimit="10" stroke-width="1.4"/><path d="M35.8,244.3c-1.3.3-.6-1.1-.9-1.3-.3-.2-.6-.1-.9-.4-.2-.3-.4-.3,0-1,.3-.7.5-.1.6-.6s0-.7.1-1.1c.2-.3.1-.5.5-.5.4,0,.5,0,.6-.2,0-.3.4-.3.8-.5.3-.1.7-.5,1-.4.3.1.2.4.6,0,.4-.4.5-.7.9-.3.5.3.6.4.6.7,0,.4.3.5.4,1,0,.5.7.3.8.8.1.5,0,1.1-.3,1.1-.3,0-.2.3-.5.7-.2.4-.2,1.2-.5,1.1-.3,0-.5,0-.8.2-.3.2-.2.6-.6.7-.4.1-1.1,0-1.2-.3,0-.3-1.2.1-1.2.1Z" fill="#eee9e0" stroke="#4b1428" stroke-miterlimit="10" stroke-width=".5"/><path d="M35,244.2c0,1.3-.7,2.5-1.5,3.5-.6,1.1-.9,2.4-1.7,3.5-.5.7-1.1,1.4-1.8,1.9,0,0,0,0,0,0,.7-2.1,2.3-3.6,3.4-5.5.4-1.2.8-2.4,1.7-3.4,0,0,0,0,0,0h0Z" fill="#4b1428"/><path d="M34,242.7c-.5,1.6-1.8,2.7-3.2,3.6-1.9,1.8-4.1,4.2-6.7,4.7,1.9-2,4.4-3.2,6.6-4.9,1.1-1.2,2.1-2.4,3.4-3.5,0,0,0,0,0,0t0,0Z" fill="#4b1428"/><path d="M33.9,241.7c-.8.9-1.9,1.2-3.1,1.4-1.7.8-3.3,1.9-5.4,1.6,0,0,0,0,0,0,1.6-1.1,3.5-1.2,5.3-1.8.9-.6,1.9-1.2,3.1-1.2,0,0,0,0,0,0h0Z" fill="#4b1428"/><path d="M34.5,243.3c-.7,2.7-3.6,4.3-5.7,6,0,0,0,0,0,0,1.5-1.5,2.8-3.1,4.2-4.6,0,0,1.5-1.4,1.5-1.4,0,0,0,0,0,0h0Z" fill="#4b1428"/><path d="M35.3,243.6c-.3,1.1-.9,2-1.7,2.9-.6.6-1.8,2.3-2.2,2.5.8-1.4,1.6-2.9,2.6-4.3.4-.4.8-.8,1.3-1.2,0,0,0,0,0,0t0,0Z" fill="#4b1428"/><path d="M35.4,244.8c.2,1.2-.1,2.3-.7,3.4-.4.8-1.3,2.5-2,2.9.9-1.5,1.3-3.1,1.8-4.7.2-.5.4-1,.8-1.5,0,0,0,0,0,0t0,0Z" fill="#4b1428"/><path d="M33.5,242.6c-.5.8-1.3,1.3-2.2,1.6-.6.2-2.3,1-2.7.8,1.2-.6,2.3-1.4,3.5-2.1.4-.2.8-.3,1.4-.4,0,0,0,0,0,0t0,0Z" fill="#4b1428"/><path d="M33.6,241.4c-.9.4-1.7.5-2.6.5-.7,0-2.5.3-2.7.2,1.3-.4,2.6-.9,4-1,.5,0,1,0,1.4.3,0,0,0,0,0,0t0,0Z" fill="#4b1428"/><path d="M16.7,250.9c.1-1.2.9-2,1.7-2.6.7-.8,1.1-1.8,1.9-2.5.6-.4,1.2-.8,2-.8,0,0,0,0,0,0-1.1,1.3-2.5,2.2-3.8,3.4-.5,1-.9,1.8-1.8,2.5,0,0,0,0,0,0h0Z" fill="#4b1428"/><path d="M21.8,257.8c.9-1.2,2.1-1.2,3.3-1.7.2-.1.4-.4.5-.6.4-.3.9-.5,1.4-.6,0,.6-.5.9-1,1.2-.2,0-.5.1-.8.2-.7.4-1.1,1.1-1.9,1.3-.5.2-1,.3-1.6.3,0,0,0,0,0,0h0Z" fill="#4b1428"/><path d="M17.2,253.6c.3-1.3,1.3-2.2,2.4-2.9,1-.7,2.1-1.5,3.3-1.9-.9.8-2,1.5-2.8,2.4-.6.6-2.2,2.3-2.8,2.4t0,0Z" fill="#4b1428"/><path d="M20.9,257.1c1.4-2,4.4-2.6,6.3-4.1,0,.4-.4.5-.6.7-.5.4-1.8,1.3-2.3,1.7-1,.8-2,1.4-3.3,1.7,0,0,0,0,0,0h0Z" fill="#4b1428"/><path d="M18.1,253.8c.2-.5.4-.8.8-1,.4-.1.9-.2,1.1-.6.6-.7,1.3-1.2,2.3-1.1,0,0,0,0,0,0-.2.4-.6.7-.9.9-.5.4-1.2.4-1.8.7-.4.6-.8,1-1.6,1,0,0,0,0,0,0h0Z" fill="#4b1428"/><path d="M20.5,255.7c.3-.7.9-.9,1.6-1,.5-.3.9-1,1.4-1.2.3-.2,1-.4,1.3-.4-.4,1.5-1.7,1.4-2.6,1.9-.4.5-.9,1-1.7.9,0,0,0,0,0,0h0Z" fill="#4b1428"/><path d="M23.4,259.5c.7-.6,1.4-1,2.3-1.1.4,0,.8-.3,1.2-.5,1.1-1,1.9-2,3.1-3,0,0,0,0,0,0-.2,1.1-.9,2-1.8,2.6,0,0,0,0,.1-.1-.2.4-.9.6-1.3.7-.8.3-1.4,1.1-2.3,1.3-.4.1-.9.2-1.3.2,0,0,0,0,0,0t0,0Z" fill="#4b1428"/><path d="M17,252.1c0-.9.7-1.5,1.4-2,.5-.3,1.8-1.3,2.1-1.2,0,0-1.6,1.7-1.6,1.7-.5.7-1,1.1-1.8,1.5,0,0,0,0,0,0t0,0Z" fill="#4b1428"/><path d="M23.8,260c.7-.5,1.3-.8,2.2-1,0,0,2.3-.8,2.3-.8,0,.3-1.6,1.1-2,1.4-.7.5-1.5.8-2.4.5,0,0,0,0,0,0h0Z" fill="#4b1428"/><path d="M22.5,258.4c1.1-.8,2.5-.8,3.6-1.5-.1.4-.5.5-.7.8-.6.4-1.1.8-1.8,1-.2,0-1.1,0-1.1-.3h0Z" fill="#4b1428"/><path d="M16.7,249.5c-.2-.8,0-1.4.6-2,.4-.5.9-1,1.4-1.4,0,0,0,0,0,0-.5.8-.8,1.8-1.2,2.6-.1.2-.5.8-.8.7h0Z" fill="#4b1428"/><path d="M19.5,255.1c0-.8.6-1.3,1.3-1.6.6-.4,1.2-.7,1.9-.8,0,0,0,0,0,0-.8.6-1.5,1.3-2.2,2-.2,0-.8.5-1,.4t0,0Z" fill="#4b1428"/><path d="M18.5,254.4c.4-1.1,1.6-1.1,2.5-1.7,0,0,0,0,0,0-.3.4-.7.8-1,1.1-.4.4-.8.7-1.5.5,0,0,0,0,0,0t0,0Z" fill="#4b1428"/><path d="M63.5,234c-1.2,0-2.1-.3-3-.7-1.7-.2-3.5-.1-5.2-.6,0,0,0,0,0,0,.7-.4,1.5-.4,2.2-.4,1.1,0,2,.6,3.1.8,1.1,0,2.2.2,3,.9,0,0,0,0,0,0h0Z" fill="#4b1428"/><path d="M63.1,241.1c-1.2.9-2.4.7-3.8.8-.3,0-.5.2-.8.3-.6.1-1.1.1-1.5-.2,0,0,0,0,0,0,.7-.3,1.5-.3,2.2-.2.7,0,1.5-.5,2.2-.6.5,0,1,0,1.5,0,0,0,0,0,0,0t0,0Z" fill="#4b1428"/><path d="M64.5,235.9c-2.5,0-5-.4-7.5-.4,1.9-.3,3.9-.5,5.8-.3.6.1,1.2.3,1.7.6,0,0,0,0,0,0t0,0Z" fill="#4b1428"/><path d="M63.5,240.2c-1.8.7-3.8.6-5.7.7-.3,0-.6,0-1,0-.3,0-.6,0-1-.1,0,0,0,0,0,0,1,0,2.7-.3,3.8-.5,1.3-.3,2.6-.4,3.8-.1,0,0,0,0,0,0t0,0Z" fill="#4b1428"/><path d="M64,236.5c-.7.4-1.3.3-1.9.1-.6,0-1.3.4-1.9.4-.4,0-1,0-1.3-.2.8-.6,1.7-.7,2.6-.5.2,0,.4,0,.6,0,.7-.2,1.3-.4,1.9,0,0,0,0,0,0,0h0Z" fill="#4b1428"/><path d="M63,239c-.6.5-1.3.4-1.9.3-1.1.2-2.1.9-3.2.1,0,0,0,0,0,0,.8-.4,1.7-.5,2.5-.3.2,0,.4,0,.6,0,.6-.3,1.3-.5,1.9-.1,0,0,0,0,0,0h0Z" fill="#4b1428"/><path d="M62.7,243c-.7.5-1.6.9-2.5.9-.4,0-.9,0-1.3.2-.4.1-1.1.4-1.5.2,0,0,.1,0,.2,0-1.1.1-2.3-.1-3.1-.8,0,0,0,0,0,0,1.6,0,2.9.2,4.3.3.9,0,1.6-.6,2.5-.7.3,0,1.2-.3,1.3,0t0,0Z" fill="#4b1428"/><path d="M63.9,234.9c-.9.1-1.6,0-2.4-.1,0,0-2.4-.4-2.4-.4.2-.2,2-.2,2.5-.2.9,0,1.8,0,2.3.6,0,0,0,0,0,0h0Z" fill="#4b1428"/><path d="M62.7,243.6c-.5.7-1.4.9-2.3,1-.5,0-2.3.4-2.5.2,0,0,2.3-.8,2.3-.8.6-.3,2.2-.7,2.4-.5t0,0Z" fill="#4b1428"/><path d="M62.9,241.8c-.5,1-1.9,1-2.9,1.1-.3,0-.7,0-1-.1,0,0,0,0,0,0,.9,0,1.9-.6,2.8-.8.2,0,.9-.2,1.1,0t0,0Z" fill="#4b1428"/><path d="M63.4,238.1c-1.4.5-2.6-.1-4,0,0,0,0,0,0,0,.7-.2,1.4-.3,2.1-.4.7-.1,1.5,0,2,.4,0,0,0,0,0,0t0,0Z" fill="#4b1428"/><path d="M63.9,237.2c-.4.4-1,.5-1.6.4-.5,0-1-.1-1.5-.2,0,0,0,0,0,0,.8-.1,1.5-.3,2.3-.4.2,0,.7,0,.8.3t0,0Z" fill="#4b1428"/><path d="M49.8,222.6c.3,1,0,1.9-.6,2.8-.3.9-.3,1.9-.9,2.8-.4.5-.8,1.1-1.5,1.4,0,0,0,0,0,0,.5-1.5,1.5-2.8,2.2-4.2,0-1,.2-1.8.8-2.7,0,0,0,0,0,0t0,0Z" fill="#4b1428"/><path d="M43.7,217.7c0,1.4-.9,2-1.5,3.1,0,.7-.2,1.4-.7,1.9-.3-.2-.2-.6-.2-.8,0-.5.4-.9.7-1.2.3-.6.2-1.4.6-2,.2-.4.6-.7,1.1-1,0,0,0,0,0,0h0Z" fill="#4b1428"/><path d="M48.6,220.3c.6,1.1.4,2.3,0,3.4-.3,1.1-.7,2.3-1.3,3.2.2-1.1.5-2.2.6-3.3,0-.6.3-3.1.6-3.3h0Z" fill="#4b1428"/><path d="M44.9,217.2c.2,2.2-1.8,4.3-2.2,6.4-.2-.3,0-.6,0-.9.1-.5.5-1.9.7-2.5.3-1.1.7-2.1,1.5-3.1,0,0,0,0,0,0h0Z" fill="#4b1428"/><path d="M48.5,219c.2.4.2.8,0,1.2-.3.3-.5.6-.5,1.1,0,.8-.3,1.6-1.1,2.1,0,0,0,0,0,0,0-.4,0-.8.1-1.2.1-.5.7-.9.9-1.5,0-.6,0-1.2.6-1.6,0,0,0,0,0,0t0,0Z" fill="#4b1428"/><path d="M45.9,217.4c.2.7-.1,1.2-.5,1.6-.2.5,0,1.2-.3,1.7-.1.3-.5.8-.7,1-.6-1.3.4-1.9.8-2.8,0-.6,0-1.2.7-1.6,0,0,0,0,0,0t0,0Z" fill="#4b1428"/><path d="M39.9,219.9c-.2,1.5-1.3,1.9-1.7,3.1-.2,1.3-.2,2.6-.5,4,0,0,0,0,0,0-.6-1-.7-2.1-.3-3.1,0,0,0,.1,0,.2,0-.5.3-.9.5-1.3.5-.6.4-1.6,1-2.2.2-.3.6-.6.9-.8,0,0,0,0,0,0h0Z" fill="#4b1428"/><path d="M39.2,219.7c-.2.8-.5,1.3-1,1.9,0,0-1.3,1.8-1.3,1.8-.2-.3.5-1.7.7-2.1.3-.7.7-1.4,1.6-1.6,0,0,0,0,0,0h0Z" fill="#4b1428"/><path d="M41.5,219.7c-.3,1.2-1.5,1.9-1.9,3-.1-.4,0-.7,0-1,.2-.6.4-1.2.8-1.7.1-.1.8-.6,1-.4h0Z" fill="#4b1428"/><path d="M46.8,217.6c.2,1,0,2-.5,2.9-.3.6-1,2.3-1.5,2.5.5-1.3.8-2.8,1.2-4.1.2-.4.4-.9.7-1.3,0,0,0,0,0,0t0,0Z" fill="#4b1428"/><path d="M47.8,218.6c.4,1-.5,1.7-.8,2.6-.2-.1,0-1.1,0-1.4,0-.5.2-1,.8-1.2,0,0,0,0,0,0h0Z" fill="#4b1428"/><path d="M46.5,261.7c-1.1-.2-1.8-.9-2.4-1.7-.7-.7-1.7-1.1-2.2-1.9-.3-.5-.7-1.2-.6-1.9,0,0,0,0,0,0,1.2,1.1,1.9,2.5,2.9,3.7.9.5,1.7.9,2.2,1.8,0,0,0,0,0,0h0Z" fill="#4b1428"/><path d="M53.8,258.6c-1.3-.5-1.5-1.5-2.2-2.4-.2-.1-.4-.2-.6-.3-.4-.3-.7-.7-.8-1.1.6,0,1,.3,1.3.6.1.2.2.4.3.6.4.5,1.2.7,1.6,1.3.3.4.4.8.5,1.2,0,0,0,0,0,0h0Z" fill="#4b1428"/><path d="M49.1,261.7c-1.3,0-2.4-.6-3.3-1.4-.9-.7-1.8-1.5-2.4-2.5,1,.6,1.9,1.4,2.9,2,.7.4,2.6,1.4,2.8,1.9t0,0Z" fill="#4b1428"/><path d="M53.8,259.8c-2.2-.7-3.2-3.1-5-4.4.4,0,.6.3.8.4.5.3,1.6,1.2,2,1.6.9.7,1.7,1.4,2.2,2.4,0,0,0,0,0,0h0Z" fill="#4b1428"/><path d="M50.5,262.1c-.5,0-.9-.2-1.1-.5-.2-.4-.3-.7-.8-.8-.8-.3-1.4-.9-1.4-1.7,0,0,0,0,0,0,.5.1.8.3,1.1.6.4.3.6,1,1,1.3.6.2,1.1.4,1.3,1.1,0,0,0,0,0,0t0,0Z" fill="#4b1428"/><path d="M53.1,260.6c-.8,0-1-.5-1.3-1.1-.4-.4-1.1-.5-1.5-.9-.2-.2-.6-.7-.6-1,1.5,0,1.6,1.1,2.2,1.8.6.2,1.1.5,1.1,1.2,0,0,0,0,0,0t0,0Z" fill="#4b1428"/><path d="M54.7,255.7c-.7-.5-1.1-1-1.4-1.7-.1-.4-.4-.6-.7-.9-1.1-.7-2.3-1.2-3.4-2.1,0,0,0,0,0,0,1.1,0,2.2.4,2.9,1,0,0-.1,0-.2,0,.5.1.7.6.9,1,.4.7,1.3.9,1.6,1.6.2.3.3.7.3,1.1,0,0,0,0,0,0h0Z" fill="#4b1428"/><path d="M54.8,254.1c-.6-.5-1-.9-1.3-1.6,0,0-1.1-1.8-1.1-1.8.3,0,1.3,1.1,1.6,1.4.6.5,1,1.1.8,1.9,0,0,0,0,0,0h0Z" fill="#4b1428"/><path d="M54,257.2c-1-.7-1.1-1.9-1.9-2.7.4,0,.6.3.9.4.4.4,1,.8,1.2,1.3,0,.2.2.9-.1,1h0Z" fill="#4b1428"/><path d="M52.5,261.2c-1.1-.2-1.8-.8-2.5-1.5-.4-.5-1.7-1.8-1.7-2.3,1,1,2.2,1.8,3.3,2.7.3.3.6.7.9,1.1,0,0,0,0,0,0h0Z" fill="#4b1428"/><path d="M51.1,261.6c-1.1,0-1.4-1.1-2-1.7,0,0,0,0,0,0,.5.2.9.4,1.3.6.5.2.8.5.8,1.1,0,0,0,0,0,0h0Z" fill="#4b1428"/><path d="M21.8,217.2c1.1.6,1.7,1.6,2.1,2.7.6,1,1.5,1.7,2,2.8.3.7.5,1.4.4,2.2,0,0,0,0,0,0-1-1.5-1.6-3.2-2.5-4.8-.8-.8-1.6-1.6-2-2.7,0,0,0,0,0,0h0Z" fill="#4b1428"/><path d="M15.8,225.4c1.4.9,1.6,2.1,2.4,3.2.2.2.5.3.7.5.4.4.7.9.9,1.4-.6,0-1.1-.5-1.4-.9-.1-.2-.2-.5-.4-.7-.5-.6-1.3-1.1-1.7-1.8-.3-.5-.5-1-.6-1.6,0,0,0,0,0,0t0,0Z" fill="#4b1428"/><path d="M18.9,217.4c1.3.7,2.1,1.9,2.8,3.1.6,1.2,1.4,2.4,1.7,3.6-.8-1.1-1.4-2.3-2.2-3.3-.5-.7-2.1-2.7-2.2-3.4t0,0Z" fill="#4b1428"/><path d="M16,223.9c2.3,1.3,3.6,4.3,5.4,6-.4,0-.6-.4-.9-.6-.5-.4-1.7-1.7-2.1-2.1-1-1-1.8-2-2.4-3.2,0,0,0,0,0,0t0,0Z" fill="#4b1428"/><path d="M18.3,218.5c.5.2.9.5,1.1.9.1.5.3.9.7,1.2.8.6,1.3,1.4,1.3,2.4,0,0,0,0,0,0-.4-.3-.8-.6-1-1-.4-.5-.5-1.3-.9-1.8-.6-.4-1.1-.9-1.2-1.7,0,0,0,0,0,0t0,0Z" fill="#4b1428"/><path d="M17.1,222.8c.8.3,1.1.9,1.4,1.5.4.5,1.2.8,1.6,1.4.2.3.6.9.7,1.3-1.6-.3-1.7-1.6-2.4-2.5-.6-.4-1.2-.8-1.3-1.6,0,0,0,0,0,0t0,0Z" fill="#4b1428"/><path d="M15.1,228.7c.7.7,1.2,1.4,1.6,2.2.2.4.4.8.7,1.1,1.2,1,2.4,1.7,3.6,2.8,0,0,0,0,0,0-1.2,0-2.3-.7-3-1.6,0,0,.1,0,.2,0-.5-.2-.7-.8-1-1.2-.4-.8-1.4-1.3-1.7-2.2-.2-.4-.4-.9-.4-1.3,0,0,0,0,0,0h0Z" fill="#4b1428"/><path d="M20.1,216.7c.9.4,1.4,1.2,1.8,2,.2.5,1.1,2.1.9,2.4,0,0-1.5-2.1-1.5-2.1-.6-.7-1-1.4-1.3-2.2,0,0,0,0,0,0h0Z" fill="#4b1428"/><path d="M15.5,227c1.1,1,1.3,2.5,2.2,3.6-.4-.1-.6-.4-.9-.7-.5-.6-1.1-1.1-1.3-1.8,0-.2-.3-1.1,0-1.1t0,0Z" fill="#4b1428"/><path d="M24.4,219.1c.8.3,1.3.9,1.6,1.6.3.6.6,1.3.8,2,0,0,0,0,0,0-.5-.9-1.3-1.7-1.9-2.5,0-.2-.5-.9-.3-1.1h0Z" fill="#4b1428"/><path d="M17.3,221.8c.8,0,1.4.6,1.9,1.2.5.6.9,1.2,1.3,1.8,0,0,0,0,0,0-.8-.8-1.6-1.4-2.5-2.1-.1-.2-.7-.8-.6-1t0,0Z" fill="#4b1428"/><path d="M17.9,220.2c1.1.4,1.5,1.6,2.2,2.4,0,0,0,0,0,0-.5-.3-.9-.6-1.4-1-.5-.3-.9-.8-.9-1.5,0,0,0,0,0,0h0Z" fill="#4b1428"/><path d="M34.1,239.1c-1.4.2-2.7-.3-4-1-1.3-.5-2.7-.6-3.9-1.3-.8-.4-1.6-.9-2.3-1.6,0,0,0,0,0,0,2.3.5,4.2,1.9,6.3,2.7,1.4.2,2.6.5,3.9,1.2,0,0,0,0,0,0h0Z" fill="#4b1428"/><path d="M35.1,239c-1.8-.3-3.2-1.4-4.4-2.6-2.2-1.6-5.1-3.6-6.1-6.1,2.4,1.7,4.1,4.1,6.3,5.9,1.5.9,2.9,1.7,4.2,2.7,0,0,0,0,0,0h0Z" fill="#4b1428"/><path d="M35.1,238.8c-1.1-.6-1.6-1.6-2-2.7-1.2-1.5-2.6-2.9-2.7-4.9,0,0,0,0,0,0,1.4,1.4,1.9,3.2,2.9,4.8.8.8,1.6,1.6,1.9,2.7,0,0,0,0,0,0t0,0Z" fill="#4b1428"/><path d="M34.9,239c-3,0-5.5-2.2-7.9-3.7,0,0,0,0,0,0,2,1,4,1.9,6,2.7,0,0,1.9,1,1.9,1,0,0,0,0,0,0t0,0Z" fill="#4b1428"/><path d="M34.4,238.5c-.9-.4-1.5-1-2.1-1.7-.4-.5-1.9-1.7-1.9-2,1.2.8,2.4,1.5,3.4,2.4.3.4.6.7.7,1.2,0,0,0,0,0,0h0Z" fill="#4b1428"/><path d="M38.9,238.2c.8-1.1,1.9-1.7,3-2.4,1.5-1.5,2.6-3.2,4.6-4.4,0,0,0,0,0,0-.3.8-.8,1.5-1.4,2.1-.9,1-2.1,1.6-3,2.4-.8,1-1.8,1.9-3.2,2.3,0,0,0,0,0,0t0,0Z" fill="#4b1428"/><path d="M38.1,238.3c.6-1.5,1.5-2.7,2.4-4,1-2.4,1.3-5,2.8-7.2.1,2.6-1.3,5-2.5,7.3-.5,1.5-1.2,3-2.6,4,0,0,0,0,0,0h0Z" fill="#4b1428"/><path d="M37.9,238.4c-.5-1.1-.3-2.1-.2-3.2-.2-1.8-.9-3.5-.6-5.3,0,0,0,0,0,0,.4.7.6,1.4.8,2.1.2,1.1,0,2.1,0,3.2.3,1.1.5,2.1,0,3.2,0,0,0,0,0,0t0,0Z" fill="#4b1428"/><path d="M38.7,238.1c.4-1.1,1.1-1.9,2-2.6.6-.5,2-2,2.5-2.2-1,1.3-2,2.6-3.1,3.8-.4.4-.9.7-1.4,1,0,0,0,0,0,0h0Z" fill="#4b1428"/><path d="M38.1,238c-.2-.9,0-1.7.3-2.6.2-.6.5-2.3.7-2.5,0,1.3,0,2.7-.2,3.9-.2.4-.4.8-.7,1.2,0,0,0,0,0,0t0,0Z" fill="#4b1428"/><path d="M41.7,241.4c1.4.2,2.5.8,3.7,1.4,2.1.6,4.4.6,6.4,1.5,0,0,0,0,0,0-.9.1-1.8,0-2.7-.1-1.3-.2-2.5-.9-3.7-1.3-1.3-.2-2.7-.6-3.6-1.5,0,0,0,0,0,0h0Z" fill="#4b1428"/><path d="M40.9,240.7c1.7,0,3.3.2,5,.4,2.8,0,5.7-1,8.4-.7-2.7,1.2-5.6,1-8.5.9-1.7.2-3.5.2-5-.6,0,0,0,0,0,0t0,0Z" fill="#4b1428"/><path d="M40.8,240.8c1-.7,2.1-.9,3.2-1.1,1.8-.7,3.3-1.8,5.3-2,0,0,0,0,0,0-.5.5-1.2.9-1.9,1.3-1,.5-2.2.6-3.3.9-1,.6-2.1,1-3.3.9,0,0,0,0,0,0h0Z" fill="#4b1428"/><path d="M40.8,241c1.3.1,3,.3,4.2.6,1.2.3,3.3.3,4.3.6-2.2,0-4.4.1-6.5-.3-.7-.2-1.4-.4-2-.9,0,0,0,0,0,0t0,0Z" fill="#4b1428"/><path d="M41.4,240.8c.9-.5,1.7-.6,2.7-.7.7,0,2.6-.5,2.8-.4-1.3.5-2.7,1.1-4.1,1.3-.5,0-1,0-1.5-.2,0,0,0,0,0,0h0Z" fill="#4b1428"/><path d="M38.6,244.3c1.4.3,2.4,1.1,3.3,2,1,.8,2.3,1.2,3.2,2.1.6.6,1.2,1.2,1.6,1.9,0,0,0,0,0,0-2-.9-3.3-2.5-4.9-3.9-1.2-.6-2.3-1.1-3.2-2.1,0,0,0,0,0,0h0Z" fill="#4b1428"/><path d="M37.9,244.4c1.5.9,2.2,2.4,2.7,3.9,1.3,2.3,2.9,4.5,2.8,7.1-1.5-2.1-1.9-4.7-3-7-.9-1.3-1.8-2.5-2.5-3.9,0,0,0,0,0,0t0,0Z" fill="#4b1428"/><path d="M38.3,244.4c2.7,1.1,3.9,3.9,5.4,6,0,0,0,0,0,0-1.3-1.5-2.7-2.9-4.1-4.4,0,0-1.3-1.6-1.3-1.6,0,0,0,0,0,0t0,0Z" fill="#4b1428"/><path d="M38.1,244.9c.7.7,1,1.5,1,2.4,0,.6.3,2.3,0,2.6-.3-1.3-.8-2.5-1.1-3.7,0-.4-.1-.9,0-1.3,0,0,0,0,0,0t0,0Z" fill="#4b1428"/><path d="M39.4,239.6c1,0,.2.9.4,1.1.2.2.4.2.5.5,0,.2.2.3-.2.7-.4.4-.4,0-.6.3-.2.3-.1.5-.3.7-.2.2-.2.3-.5.3-.3,0-.4-.2-.5,0,0,.2-.4.1-.7.2-.3,0-.6.2-.8,0-.2-.1,0-.3-.4-.1-.4.2-.5.4-.8,0-.2-.3-.3-.4-.2-.7.1-.3,0-.4,0-.8,0-.4-.4-.4-.4-.7,0-.3.3-.8.5-.8.2,0,.2-.2.5-.4.3-.2.4-.8.6-.7.2.1.4.2.6,0,.3-.1.3-.4.6-.4.3,0,.8.2.8.4,0,.2.9.2.9.2Z" fill="#eee9e0" stroke="#4b1428" stroke-miterlimit="10" stroke-width=".4"/><path d="M36.1,242.6c-.7,0-.2-.7-.3-.8-.2-.2-.3-.2-.4-.3,0-.2-.2-.2.1-.6.3-.3.3,0,.4-.2.1-.2,0-.4.2-.6.1-.2.1-.2.3-.2.2,0,.3.1.4,0,0-.1.3-.1.5-.2.2,0,.5-.2.6,0,.2,0,0,.2.3,0,.3-.1.4-.3.6,0,.2.2.3.3.2.5,0,.2,0,.3,0,.6,0,.3.3.3.3.5,0,.3-.2.6-.3.6-.2,0-.2.1-.4.3-.2.2-.3.6-.5.5-.2,0-.3-.1-.5,0-.2,0-.2.3-.4.3-.2,0-.6-.2-.6-.3,0-.2-.7-.1-.7-.1Z" fill="#eee9e0" stroke="#4b1428" stroke-miterlimit="10" stroke-width=".3"/><path d="M38.8,240.8c.5.2-.1.5,0,.6,0,.1.2.2.2.3,0,.1,0,.2-.3.3-.3.1-.2,0-.3,0-.2.1-.2.2-.3.3-.1,0-.2.1-.3,0-.1,0-.2-.1-.2,0,0,0-.2,0-.4,0-.1,0-.4,0-.4-.1,0-.1,0-.2-.2-.1-.2,0-.3,0-.4-.1,0-.2,0-.3,0-.4.1-.1,0-.2.1-.4.1-.2-.1-.3,0-.4,0-.2.3-.4.4-.3,0,0,.2,0,.3-.1.2,0,.4-.3.5-.2,0,.1.2.1.3.1.2,0,.2-.1.4,0,.1,0,.3.3.3.4,0,.1.4.3.4.3Z" fill="#eee9e0" stroke="#4b1428" stroke-miterlimit="10" stroke-width=".2"/><path d="M257.2,198.2c-.2,0-.4-.2-.6-.2,0,0,0,0,0,0,0,.1-.2.2-.3.3,0,.2,0,.5-.3.6,0,.1,0,.3,0,.4,5.8,3.3,12.1,7.5,8.5,12.1-.8,1,.4,3.3-1,4.2-3.1,2.2-5.6.2-7.5-1-4.3-2.3-3.9-8.8-1.6-14.4,0-.4-.1-.7-.3-.9-.2,0-.4,0-.6-.1-.3.1-.5.3-.7.5-.4,1.5-.6,3.3-2.1,6.6-1.1,2.3-.7,5.5-2.3,7.6-1.9,2.4-6.6,4.9-8.8,2.4-.5-.6-.5-2.6-.8-3.3-1.4-2.5-2.2-3.7-1.6-6.1.7-2.4,2.4-4.5,5-6,2.3-1.3,5.4-2.2,9.2-2.5.2-.2.4-.3.6-.5,0-.3,0-.6.3-.7,0,0,0,0,0,0,0,0,0,0,0,0-.2-.3-.2-.6,0-.9-.1-.2-.2-.3-.3-.4-4,1-14.7,5.8-14.8-2.4,0-1-1.3-2.5-.6-4.8,1.1-2.6,3.1-2.6,3.8-3.5,2.8-3.2,6.5.8,12.5,9.2.2.2.4.2.5.2,0,0,0,0,.1,0,.3,0,.5-.3.5-.6-1-1.9-2.2-4.8-2.5-7.8-.4-3,.1-7.3,2.2-8.6.9-.5,3.1,1.7,5,2.1,2.3.2,2.9,1.7,3.8,3.8,1.7,3.8,1,7.9-5.7,11.7-.2.3-.4.5-.4.6,0,0,0,.2,0,.3.1.2.4.2.7.2,4.2-2.3,9.8-9.2,16.5-.2,1.1,1.2-.8.3,2.9,5.1.2,1.9-7.3,4.7-19.4-3.5Z" fill="#eee9e0" stroke="#4b1428" stroke-miterlimit="10" stroke-width="1.1"/><path d="M254.1,194.3c.6-.8.8.5,1.1.4.3,0,.4-.2.7-.1.2,0,.4,0,.5.7.1.6-.2.3,0,.7.2.3.4.5.4.8,0,.3.2.4,0,.6-.2.2-.3.2-.2.4.1.2,0,.4-.2.7-.1.3-.2.7-.4.8-.2,0-.3-.2-.3.3,0,.4,0,.7-.4.7-.4,0-.5,0-.7-.2-.2-.3-.4-.2-.7-.5-.3-.3-.6.2-.8-.1-.3-.3-.5-.8-.4-.9.2-.2,0-.3,0-.7,0-.4-.5-.9-.2-1,.2,0,.3-.2.4-.5,0-.3-.2-.5,0-.8.1-.3.6-.5.8-.4.2.1.7-.7.7-.7Z" fill="#fff" stroke="#4b1428" stroke-miterlimit="10" stroke-width=".4"/><path d="M254.6,194.1c-.6-.9-.7-2-.6-3.1-.3-1.7-.8-3.9,0-5.4.4,1.8.1,3.6.3,5.4.3,1,.6,2,.5,3.1,0,0,0,0,0,0t0,0Z" fill="#4b1428"/><path d="M255.8,194.6c-.4-1.3-.2-2.7.2-3.9.3-2.1.5-4.5,1.7-6.1-.1,2.2-1.1,4-1.5,6.1,0,1.3,0,2.8-.4,3.9h0Z" fill="#4b1428"/><path d="M256.3,195.3c0-1,.5-1.7,1-2.3.6-1.3.9-2.7,2.1-3.4,0,0,0,0,0,0-.4,1.4-1.3,2.3-2,3.5-.2.8-.5,1.6-1.2,2.3,0,0,0,0,0,0h0Z" fill="#4b1428"/><path d="M255.3,194.4c-.8-2.2.2-4.6.6-6.7,0,1.5-.3,3.4-.3,5,0,0-.2,1.7-.2,1.7,0,0,0,0,0,0t0,0Z" fill="#4b1428"/><path d="M254.7,194.6c-.3-.9-.4-1.8-.3-2.8,0-.9,0-2,.2-2.8,0,1.7.7,4,0,5.5h0Z" fill="#4b1428"/><path d="M254.1,193.9c-1.2-1.5-1.2-3.7-1.1-5.6.2.8.3,2,.6,2.8.2.7.7,2.2.6,2.8h0Z" fill="#4b1428"/><path d="M256.2,194.5c-.2-1.6.9-2.8,1.5-3.9,0,.4-.5,1.4-.6,2-.2.7-.4,1.3-.9,1.9,0,0,0,0,0,0t0,0Z" fill="#4b1428"/><path d="M256.6,195.3c.3-.7.7-1.1,1.2-1.6,0,0,1.3-1.4,1.3-1.4,0,.4-.7,1.3-1,1.7-.4.6-.8,1.1-1.5,1.3,0,0,0,0,0,0t0,0Z" fill="#4b1428"/><path d="M261.3,181.9c.4.8.3,1.6.2,2.4,0,.8.2,1.6,0,2.4,0,.3-.4,1.4-.7,1.3,0-1.3.3-2.5.5-3.7-.1-.8-.3-1.6,0-2.3,0,0,0,0,0,0h0Z" fill="#4b1428"/><path d="M256.4,179c0,1.1-.7,1.7-1.1,2.5,0,.6-.2,1.2-.6,1.6-.2-.2,0-.5,0-.7,0-.4.3-.7.5-1,.3-.9.4-2,1.2-2.4,0,0,0,0,0,0h0Z" fill="#4b1428"/><path d="M260.1,180.3c.5,1.9-.3,3.8-1,5.4.4-1.7.5-4.3,1-5.4t0,0Z" fill="#4b1428"/><path d="M257.1,179.2c0,2-1.3,3.4-1.8,5.3,0,0,0,0,0,0,0-.6.2-1,.3-1.5.1-.5.3-.9.4-1.4.2-.7.7-2.2,1.1-2.4t0,0Z" fill="#4b1428"/><path d="M259.7,180.4c.2.6,0,1-.3,1.4-.2.8,0,1.7-.8,2.1,0,0,0,0,0,0-.1-1,.4-1.4.7-2.1,0-.5,0-1,.4-1.3,0,0,0,0,0,0h0Z" fill="#4b1428"/><path d="M257.8,180c.1.6-.1,1-.4,1.3-.2.4,0,1-.3,1.4-.1.3-.3.6-.5.8-.3-1.1.3-1.6.6-2.3,0-.5.1-1,.5-1.3,0,0,0,0,0,0h0Z" fill="#4b1428"/><path d="M255.1,178.4c-.2,1.2-1.2,1.7-1.4,3-.1.9-.3,1.9-.5,2.9,0,0,0,0,0,0-.3-.9-.2-1.9,0-2.7,0,0,0,0,0,.1,0-.5.3-.7.5-1,.5-.9.5-2,1.4-2.4,0,0,0,0,0,0h0Z" fill="#4b1428"/><path d="M260.8,181.2c.3.6.2,1.3,0,1.9-.1.4-.3,1.5-.5,1.6,0,0,.1-1.8.1-1.8,0-.4.1-1.6.3-1.7h0Z" fill="#4b1428"/><path d="M254.7,178.1c-.3,1.1-1,1.8-1.8,3,0-.4.5-1.3.6-1.8.2-.6.6-1.2,1.1-1.3,0,0,0,0,0,0h0Z" fill="#4b1428"/><path d="M255.9,178.8c-.3,1-1,1.5-1.4,2.4,0-.7.4-1.7.7-2.2.1-.1.5-.4.6-.2h0Z" fill="#4b1428"/><path d="M261.9,182.8c.7.9.5,2,.4,3-.1-.1-.2-1.1-.3-1.5-.2-.5-.3-1-.1-1.5,0,0,0,0,0,0t0,0Z" fill="#4b1428"/><path d="M258.5,180.1c.4,1.1-.2,2.1-.7,2.9,0-.2.2-1,.2-1.5,0-.5.1-1,.4-1.4,0,0,0,0,0,0t0,0Z" fill="#4b1428"/><path d="M259.2,180.2c0,.5,0,.8-.2,1.1,0,0-.4,1-.4,1-.1-.1,0-.9,0-1.2,0-.4.2-.8.5-.9,0,0,0,0,0,0h0Z" fill="#4b1428"/><path d="M241.5,217c.8-.8,1.6-1.1,2.5-1.4,1.3-.9,2.5-2.1,3.8-2.8.1.3-.9,1.4-1.2,1.6-.8.7-1.7.9-2.5,1.4-.8.7-1.6,1.3-2.6,1.2,0,0,0,0,0,0t0,0Z" fill="#4b1428"/><path d="M238,211.2c.4-1.4,1.4-2,2.3-2.9.3-.4.5-.9.9-1.1.2,0,.5-.3.7-.2-.4.7-.9,1.1-1.5,1.5-.8,1-1.2,2.1-2.4,2.7,0,0,0,0,0,0h0Z" fill="#4b1428"/><path d="M239.7,216.2c1.8-1.6,3.8-2.8,5.5-4.3-1.1,1.3-2.4,2.7-3.9,3.8-.5.3-1.1.6-1.6.6,0,0,0,0,0,0t0,0Z" fill="#4b1428"/><path d="M238.2,212.2c.7-1.1,1.5-2,2.4-2.7,0,0,1.3-1.2,1.3-1.2.2-.2,1.3-1.1,1.4-.9-.7.5-1.7,1.8-2.4,2.5-.4.7-2.5,2.6-2.7,2.3h0Z" fill="#4b1428"/><path d="M239.8,215.4c.3-.8.8-1,1.3-1.3.5-.5,1-1.9,2.2-2.1-.3,1.3-1.2,1.6-2,2.3-.3.6-.7,1.1-1.4,1.2,0,0,0,0,0,0h0Z" fill="#4b1428"/><path d="M239.1,212.8c.2-.8.7-1.1,1.2-1.4.7-.8,1.1-2,2.2-2,0,0,0,0,0,0-.6,1.2-1.2,1.4-2.1,2.1-.3.6-.7,1.1-1.3,1.3,0,0,0,0,0,0t0,0Z" fill="#4b1428"/><path d="M237.2,209.4c.4-1.5,1.4-2,2.2-3,.3-.4.5-.8.9-1,0,0-.1,0-.1,0,.7-.7,1.6-1.1,2.5-1,0,0,0,0,0,0-1.1.8-2.1,1.4-3.1,2.1-.6.5-.9,1.4-1.4,2-.2.2-.7.9-.9.8t0,0Z" fill="#4b1428"/><path d="M240.7,216.6c.9-1.1,2.2-1.6,3.6-2.7,0,.4-1.2,1.3-1.6,1.7-.6.6-1.3,1.1-2,1,0,0,0,0,0,0h0Z" fill="#4b1428"/><path d="M237,208.9c0-.9.6-1.6,1.2-2.2.4-.4,1.3-1.5,1.6-1.6,0,0-1.3,1.9-1.3,1.9-.2.5-1.2,1.8-1.5,1.8t0,0Z" fill="#4b1428"/><path d="M237.8,210.5c-.1-1.1.9-1.9,1.5-2.6.3-.2.5-.4.8-.5,0,0,0,0,0,0-.8.6-1.5,2.6-2.3,3h0Z" fill="#4b1428"/><path d="M239.3,213.8c.7-1.2,1.9-1.5,2.8-2.5,0,.3-.9,1.3-1.2,1.6-.5.6-1,.9-1.6.9,0,0,0,0,0,0h0Z" fill="#4b1428"/><path d="M239.5,214.9c0-.6.4-1,.9-1.3.3-.2,1.1-.8,1.2-.7,0,0-.9,1.2-.9,1.2-.3.5-.6.8-1.1.9,0,0,0,0,0,0h0Z" fill="#4b1428"/><path d="M257.4,215.8c-.8-.4-1.2-1.1-1.3-2-.3-.7-.9-1.3-1.1-2.2,0-.3-.2-1.6.2-1.8.6,1.2.7,2.6,1.1,3.8.5.6,1,1.2,1.2,2,0,0,0,0,0,0h0Z" fill="#4b1428"/><path d="M264,214.6c-.9-.6-.8-1.6-1.1-2.4-.4-.4-.7-.8-.8-1.4.3,0,.5.2.6.3.3.3.3.7.4,1,.5.8,1.3,1.4,1,2.5,0,0,0,0,0,0h0Z" fill="#4b1428"/><path d="M259.5,216.3c-2-.5-2.7-2.8-3.3-4.5.8,1.6,2.8,3.4,3.3,4.5t0,0Z" fill="#4b1428"/><path d="M263.6,215.6c-1.6-1-1.7-3.2-2.7-4.6.3,0,.7.8.9,1,0,0,.7,1.1.7,1.1.3.3,1.3,2.2,1.1,2.5h0Z" fill="#4b1428"/><path d="M260.4,216.9c-.6-.1-.8-.6-.8-1.1-.5-.6-1.3-1.1-.9-2.2,0,0,0,0,0,0,.9.5.7,1.3,1.1,2.1.4.3.8.6.7,1.2,0,0,0,0,0,0h0Z" fill="#4b1428"/><path d="M262.9,216.1c-.6-.2-.7-.7-.7-1.2-.2-.4-.7-.6-.9-1.1-.1-.3-.2-.7-.2-1,1.1.3,1,1.2,1.3,1.9.4.3.7.6.6,1.2,0,0,0,0,0,0h0Z" fill="#4b1428"/><path d="M264.7,211.2c-.8-.8-.4-2.1-1.2-2.9-.6-.6-1.2-1.3-1.7-2.1,0,0,0,0,0,0,.9.2,1.5.8,1.9,1.5,0,0,0,0-.1,0,.3.3.3.6.4,1,.3.9,1.1,1.5.8,2.6,0,0,0,0,0,0t0,0Z" fill="#4b1428"/><path d="M265.2,210.9c-.6-.8-.6-1.9-1-3.2.3.1.7,1.1.9,1.5.3.5.5,1.1.1,1.7,0,0,0,0,0,0t0,0Z" fill="#4b1428"/><path d="M264,212.3c-.6-.8-.4-1.8-.8-2.7.6.3,1,1.3,1.2,1.9,0,.2,0,.8-.3.8h0Z" fill="#4b1428"/><path d="M262.3,216.5c-1.5-.8-1.9-2.5-2.3-4,0,0,0,0,0,0,.4.7.8,1.4,1.2,2,.3.4,1.2,1.6,1,2.1h0Z" fill="#4b1428"/><path d="M261.1,216.6c-.5-.2-.6-.4-.7-.8,0,0-.4-1-.4-1,.2,0,.7.5.9.7.3.3.5.6.3,1.1,0,0,0,0,0,0h0Z" fill="#4b1428"/><path d="M240.9,185.4c.8-.3,1.5,0,2.1.5.7.3,1.4.2,2.1.7.2.2,1.1,1,1,1.3-1.1-.4-2.1-1.2-3.1-1.8-.7,0-1.4-.1-2-.6,0,0,0,0,0,0h0Z" fill="#4b1428"/><path d="M237,191.2c1-.2,1.6.7,2.4,1.1.6,0,1.1,0,1.5.5-.1.3-.4.2-.6.2-.4,0-.7-.3-1-.5-.9-.2-1.8-.2-2.3-1.3,0,0,0,0,0,0t0,0Z" fill="#4b1428"/><path d="M239.2,186.6c1.7-1,3.5.2,5,.9-1.6-.5-3.9-.3-5-.9h0Z" fill="#4b1428"/><path d="M236.7,190.1c1.8-.3,3.2,1.4,4.9,1.6,0,0,0,0,0,0-.5.2-.9,0-1.3-.1-.4-.1-.8-.2-1.3-.3-.4,0-2.4-.8-2.3-1.2t0,0Z" fill="#4b1428"/><path d="M238.1,186.7c.5-.3.9,0,1.3.3.7.1,1.5,0,2,1,0,0,0,0,0,0-.9.3-1.3-.4-2-.8-.5,0-.9,0-1.2-.5,0,0,0,0,0,0t0,0Z" fill="#4b1428"/><path d="M236.9,189.2c.6-.3.9,0,1.2.4.4.2.9,0,1.3.2.3.1.6.3.7.6-.9.6-1.4-.2-2.1-.6-.5,0-.9,0-1.2-.6,0,0,0,0,0,0h0Z" fill="#4b1428"/><path d="M237.5,194.3c1.1,0,1.7,1.4,2.9,1.3.9,0,1.7,0,2.7,0,0,0,0,0,0,0-.7.6-1.6.8-2.4.5,0,0,0,0,.1,0-.4.1-.7-.2-1-.4-.9-.5-1.8-.3-2.3-1.5,0,0,0,0,0,0t0,0Z" fill="#4b1428"/><path d="M238,195.7c1,.1,1.8,1,3,1.8-.3.2-1.3-.3-1.7-.4-.6-.2-1.1-.5-1.3-1.3,0,0,0,0,0,0t0,0Z" fill="#4b1428"/><path d="M237.4,192.6c.9.2,1.5,1.2,2.4,1.5-.6.2-1.6-.2-2.1-.6-.1-.1-.5-.7-.3-.9h0Z" fill="#4b1428"/><path d="M237,188.4c1.6-.5,2.9.7,4.1,1.5,0,0,0,0,0,0-.7-.3-1.4-.5-2.1-.6-.5,0-1.9-.4-2-.9h0Z" fill="#4b1428"/><path d="M237.9,187.4c.4-.2.7-.1,1,.1.3.2.6.4.9.5-.1.2-.8,0-1.1,0-.4,0-.7-.1-.9-.7,0,0,0,0,0,0h0Z" fill="#4b1428"/><path d="M275.1,202.9c-.8.3-1.7.1-2.5-.2-.8-.2-1.7,0-2.5-.4-.3-.1-1.4-.6-1.3-.9,1.3.3,2.5.8,3.9,1.1.8,0,1.6,0,2.5.3,0,0,0,0,0,0h0Z" fill="#4b1428"/><path d="M273.2,196.3c-1,.2-1.8-.3-2.7-.6-.5,0-1.1,0-1.6-.3,0-.2.4-.2.5-.2.4,0,.7.2,1.1.3.9.1,1.9,0,2.7.7,0,0,0,0,0,0h0Z" fill="#4b1428"/><path d="M276.3,201.5c-1.8.5-4.1-.3-5.7-1,1.8.5,4.4.6,5.7,1h0Z" fill="#4b1428"/><path d="M273.9,197.2c-1.7.4-3.8-.6-5.5-.6,0,0,0,0,0,0,.5-.2.9,0,1.4,0,.5,0,.9,0,1.4.1.5,0,2.6.3,2.8.6h0Z" fill="#4b1428"/><path d="M275.9,200.7c-.5.2-1,.1-1.5-.1-.9,0-1.7.1-2.4-.5,0,0,0,0,0,0,1-.2,1.5.2,2.4.4.5,0,1-.1,1.5.2,0,0,0,0,0,0t0,0Z" fill="#4b1428"/><path d="M274,198.2c-.5.2-.9,0-1.4-.1-.5,0-.9.1-1.4,0-.3,0-.7-.2-1-.3.8-.5,1.5,0,2.4.1.5,0,.9-.1,1.4.2,0,0,0,0,0,0t0,0Z" fill="#4b1428"/><path d="M271.8,194.4c-1.1,0-2-.9-3.1-.8-.8,0-1.7,0-2.6,0,0,0,0,0,0,0,.6-.5,1.4-.6,2.1-.4,0,0,0,0-.1,0,.4,0,.7.1,1,.3.9.3,1.8.2,2.7,1,0,0,0,0,0,0t0,0Z" fill="#4b1428"/><path d="M276.2,202.4c-.6.3-1.3.2-1.9,0-.4-.2-1.6-.4-1.8-.7,0,0,1.9.3,1.9.3.4,0,1.7.2,1.8.4h0Z" fill="#4b1428"/><path d="M272.5,195.4c-1,0-1.8-.7-2.8-.9.5-.2,1.6,0,2.2.3.1,0,.7.4.6.6h0Z" fill="#4b1428"/><path d="M272.9,203.3c-1,.5-2.2-.1-3.1-.5.1,0,1.1.2,1.6.2.6,0,1,0,1.5.3,0,0,0,0,0,0h0Z" fill="#4b1428"/><path d="M274.5,198.8c-.7.6-2,.2-3,0,.1-.1,1.1,0,1.5,0,.5,0,.9-.1,1.5,0,0,0,0,0,0,0t0,0Z" fill="#4b1428"/><path d="M275.1,199.8c-.4.2-.7.2-1.1,0-.4,0-.8-.1-1.2-.2,0-.2.8-.2,1.1-.2.4,0,.8,0,1.2.3,0,0,0,0,0,0h0Z" fill="#4b1428"/><path d="M257.4,197c.7-.8,1.6-1.1,2.6-1.2,1.4-.6,3-1.5,4.6-1-1.4.8-3,.8-4.5,1.2-.8.5-1.6,1-2.6,1.1,0,0,0,0,0,0h0Z" fill="#4b1428"/><path d="M256.9,197.6c1.1-.7,2.4-.6,3.6-.5,2,0,4.2-.2,6.1.7-2.1.2-4.1-.4-6.1-.5-1.2.1-2.5.5-3.6.3h0Z" fill="#4b1428"/><path d="M257,197.7c.9-.1,1.7.3,2.4.7,1.4.4,2.8.5,3.9,1.6,0,0,0,0,0,0-1.5-.1-2.7-.9-4-1.5-.8,0-1.7-.2-2.4-.8,0,0,0,0,0,0h0Z" fill="#4b1428"/><path d="M257.1,197.5c1.6-1.5,4-1.2,6-1.4-1.3.4-3,.7-4.4,1.2,0,0-1.5.3-1.5.3,0,0,0,0,0,0h0Z" fill="#4b1428"/><path d="M257.5,197.6c.7-.2,1.3-.1,2,0,.7,0,1.3.2,2,.3-.4.2-1.4.2-2,.2-.7,0-1.4,0-2-.5,0,0,0,0,0,0h0Z" fill="#4b1428"/><path d="M255.2,200c0,1.1-.2,2.1-.6,3.1-.2,1.8.1,3.5-.4,5.3-.8-1.5,0-3.7.2-5.4,0-1.1.1-2.2.7-3.1,0,0,0,0,0,0h0Z" fill="#4b1428"/><path d="M255.6,199.5c.4,1.3.5,2.5.6,3.8.6,2.1,1.8,3.8,2.3,5.9-1.6-1.2-2-3.8-2.5-5.8-.5-1.2-.8-2.5-.5-3.9,0,0,0,0,0,0h0Z" fill="#4b1428"/><path d="M255.6,199.4c.8.5,1.2,1.2,1.7,2,1,1,2.4,1.7,3.1,3-1.6-.3-2.3-1.7-3.2-2.8-.7-.5-1.3-1.1-1.6-2.1,0,0,0,0,0,0h0Z" fill="#4b1428"/><path d="M255.3,199.9c.3.9.3,1.8.1,2.7-.1.9,0,2-.4,2.7,0-1.6-.6-4.1.2-5.5t0,0Z" fill="#4b1428"/><path d="M255.7,199.8c.5.5.8,1.1,1.1,1.8.2.6.9,1.5.9,1.9-.7-.8-1.4-1.6-1.9-2.6,0-.2-.3-1-.1-1.2t0,0Z" fill="#4b1428"/><path d="M252,199.3c-.9.6-1.9.7-2.9.9-1.6.7-3.1,1.8-4.8,2.2,1.2-1.6,3.2-1.9,4.8-2.4.9-.5,1.9-.9,2.9-.7,0,0,0,0,0,0h0Z" fill="#4b1428"/><path d="M252.8,199.3c-1,.9-2.1,1.5-3.3,2.3-1.7,1.5-3.1,3.7-5.1,5.1,1.2-2.4,3.2-3.9,5-5.3,1-1,2-1.9,3.3-2.1,0,0,0,0,0,0t0,0Z" fill="#4b1428"/><path d="M252.8,199.2c-.2,1-.8,1.7-1.4,2.4-.7,1.4-1.1,3.1-2.3,4.3,0-1.8,1.3-3.1,2.1-4.4.3-.9.8-1.8,1.5-2.3,0,0,0,0,0,0h0Z" fill="#4b1428"/><path d="M252.7,199.1c-.8.6-2,1.3-2.8,1.7-1,.5-2,1.4-3,1.8,1.4-1.2,2.7-2.4,4.2-3.2.3-.1,1.4-.6,1.6-.3t0,0Z" fill="#4b1428"/><path d="M252.4,199.5c-.3.8-.8,1.3-1.3,1.9-.5.4-1.2,1.6-1.6,1.7.6-1.1,1.1-2.2,1.9-3,.2-.2.8-.7,1-.6t0,0Z" fill="#4b1428"/><path d="M252.5,195.6c-.9.5-1.9.4-2.9.1-1.5,0-3.5.3-4.7-.8,1.7-.3,3.1.4,4.7.6,1-.2,1.9-.3,2.9,0,0,0,0,0,0,0t0,0Z" fill="#4b1428"/><path d="M252.9,195.3c-1.3,0-2.4-.7-3.3-1.5-1.7-1.1-3.6-2.1-4.5-4.3,1.7,1,3,2.9,4.6,4.1,1,.5,2.4.9,3.2,1.7t0,0Z" fill="#4b1428"/><path d="M252.7,195.5c-2.1.5-4-1-5.8-1.9,1.3.3,2.9,1,4.4,1.3,0,0,1.4.5,1.4.5,0,0,0,0,0,0h0Z" fill="#4b1428"/><path d="M252.5,195c-1.4-.3-2.1-1.9-2.8-3.1.4.1,1,1.1,1.5,1.5.6.4,1,.9,1.4,1.6,0,0,0,0,0,0t0,0Z" fill="#4b1428"/><path d="M254.2,199.3c-.6.4-.5-.5-.7-.6-.2,0-.3,0-.5,0-.2-.1-.3-.1-.2-.6,0-.5.2-.2.2-.5,0-.3-.2-.4-.1-.7,0-.2,0-.3.2-.4.2,0,.3,0,.3-.2,0-.2.2-.3.3-.4.1-.2.3-.4.5-.4.2,0,.2.2.3,0,.1-.3.1-.5.4-.4.3.1.4.1.4.3,0,.2.2.2.4.5.1.3.4,0,.6.3.1.3.2.7,0,.7-.2,0,0,.2,0,.5,0,.3.2.8,0,.8-.2,0-.3,0-.4.3-.1.2,0,.4-.1.6-.2.2-.6.2-.7,0,0-.1-.6.3-.6.3Z" fill="#eee9e0" stroke="#4b1428" stroke-miterlimit="10" stroke-width=".3"/><path d="M254.7,195.6c.4-.3.4.4.5.4.2,0,.3,0,.4,0,.1,0,.2,0,.2.4,0,.4-.2.1-.1.4,0,.2.1.3.1.5,0,.2,0,.2,0,.3-.1,0-.2,0-.2.2,0,.1-.1.2-.2.3-.1.1-.2.3-.3.4-.1,0-.1-.1-.2,0,0,.2,0,.4-.3.3-.2,0-.3,0-.3-.2,0-.2-.2-.2-.3-.4-.1-.2-.3,0-.4-.2-.1-.2-.2-.5,0-.6.1,0,0-.2,0-.4,0-.2-.1-.6,0-.6.1,0,.2,0,.3-.2,0-.2,0-.3,0-.4.1-.1.4-.2.5,0,0,0,.4-.2.4-.2Z" fill="#eee9e0" stroke="#4b1428" stroke-miterlimit="10" stroke-width=".2"/><path d="M254,198.2c-.4,0-.2-.4-.3-.4,0,0-.2,0-.2-.1,0,0-.1-.1,0-.3.1-.2.1,0,.2-.2,0-.2,0-.3,0-.4,0-.1,0-.2.1-.2.1,0,.2,0,.2,0,0,0,.1-.1.2-.2,0,0,.2-.2.3-.1,0,0,0,.1.2,0,.1-.1.1-.2.3-.1.1.1.2.1.2.3,0,.1,0,.2,0,.3,0,.2.2.1.2.3,0,.2,0,.4,0,.4,0,0,0,.1-.1.2,0,.1,0,.4-.2.4,0,0-.2,0-.2,0,0,0,0,.2-.2.2-.1,0-.3,0-.3,0,0,0-.4,0-.4,0Z" fill="#eee9e0" stroke="#4b1428" stroke-miterlimit="10" stroke-width=".1"/><path d="M25.2,144c-.2-.1-.3-.2-.4-.2,0,0,0,0,0,0,0,.1-.2.2-.3.3,0,.2,0,.5-.2.6,0,.1,0,.3,0,.4,4.6,3.3,8.9,9.7,4.8,14-.8.9-.8,3.7-2.2,4.3-3,1.3-4-1.6-5.1-3.1-2.4-3.3-.9-8.9,1.1-14.3,0-.4,0-.7-.2-.9-.2,0-.3,0-.5-.1-.2,0-.4.3-.5.5-.4,1.4-.6,3.2-2.2,6-1.1,2-1.4,5-3.2,6.5-2,1.8-6.1,2.6-7.1.2-.3-.6.2-2.1,0-2.7-.6-2.2-1.1-3.2-.3-4.9.8-1.8,2.3-3.3,4.4-4.4,1.9-1,4.3-1.6,7.4-1.8.2-.1.3-.3.5-.4,0-.3,0-.5.2-.7,0,0,0,0,0,0,0,0,0,0,0,0-.1-.3-.1-.6,0-.9,0-.2-.2-.3-.2-.3-3.2,1.2-11.6,4.6-11.9-1.7,0-.8-1.2-1.9-.9-3.6.6-2,2.1-2.3,2.5-3,1.5-2.7,5.4-.8,10.9,6.9.2.1.3.2.4.2,0,0,0,0,0,0,.2,0,.3-.3.4-.6-.9-1.8-2.2-4.5-3-7.1-.8-2.7-1.6-6.6-.6-8.3.5-.8,2.8.7,4.3.6,1.7-.5,2.7.9,4,2.9,2.4,3.6,2.7,9-2.5,13-.2.3-.3.5-.3.6,0,0,0,.2,0,.3.1.2.4.2.6.2,3.3-1.8,7-11.6,13.1-.3.8,1.7-.4.2,2.1,7.2-.4,3.3-6,3.7-15.2-5.4Z" fill="#eee9e0" stroke="#4b1428" stroke-miterlimit="10" stroke-width=".9"/><path d="M22.6,140.1c.4-.8.7.4.9.4.2,0,.3-.2.5-.1.2,0,.3,0,.4.7.1.6-.2.3,0,.7.1.3.3.5.4.8,0,.3.1.4,0,.6-.2.2-.3.2-.2.4,0,.2,0,.4-.2.7,0,.3-.1.7-.3.8-.2,0-.2-.2-.3.2,0,.4,0,.7-.3.7-.3,0-.4,0-.5-.2-.1-.3-.3-.2-.5-.5-.2-.3-.5.1-.7-.1-.2-.3-.4-.8-.3-.9.1-.1,0-.3,0-.7,0-.4-.4-.9-.2-1,.2,0,.3-.2.3-.5,0-.3-.1-.5,0-.8.1-.3.5-.5.6-.4.1.1.5-.6.5-.7Z" fill="#eee9e0" stroke="#4b1428" stroke-miterlimit="10" stroke-width=".3"/><path d="M23,139.9c-.5-.9-.7-1.9-.8-3-.4-1.6-1.2-3.6-1-5.1.7,1.7.8,3.4,1.1,5.1.3.9.8,2.1.7,3h0Z" fill="#4b1428"/><path d="M24,140.4c-.4-1.3-.3-2.7-.2-3.9,0-2.2-.3-4.5.1-6.3.4,2.2,0,4.2,0,6.4,0,1.3.3,2.8,0,3.9t0,0Z" fill="#4b1428"/><path d="M24.4,141c0-1,.3-1.7.7-2.4.3-1.3.4-3.1,1.3-3.7,0,1.5-.7,2.5-1.1,3.8-.1.9-.3,1.7-.8,2.3,0,0,0,0,0,0h0Z" fill="#4b1428"/><path d="M23.6,140.2c-.8-2.1-.3-4.5-.4-6.7.3,1.5.3,3.4.5,5,0,0,0,1.7,0,1.7,0,0,0,0,0,0t0,0Z" fill="#4b1428"/><path d="M23.1,140.4c-.5-1.2-.6-4-.7-5.4.3,1.7,1.1,3.7.7,5.4t0,0Z" fill="#4b1428"/><path d="M22.6,139.7c-1-1.2-1.4-3.8-1.5-5.3.3,1.8,1.4,3.5,1.5,5.3h0Z" fill="#4b1428"/><path d="M24.3,140.2c-.1-.8,0-1.5.2-2.2.2-.6.3-1.5.6-1.9-.3,1.2-.2,3.2-.9,4h0Z" fill="#4b1428"/><path d="M24.7,141c.2-1.1,1.3-2.2,1.8-3.2,0,.6-.4,1.3-.6,1.9-.2.6-.9,1.5-1.2,1.3t0,0Z" fill="#4b1428"/><path d="M25.8,126.5c.6.8.8,1.6.9,2.5.2.8.6,1.7.7,2.5,0,.4,0,1.5-.2,1.5-.3-1.4-.3-2.7-.6-4.1-.3-.8-.6-1.6-.8-2.4,0,0,0,0,0,0t0,0Z" fill="#4b1428"/><path d="M21.3,124.9c.3,1.1,0,1.8,0,2.6.1.6.2,1.2,0,1.6-.4-.6-.3-1.2-.1-1.7,0-.9-.3-2,.1-2.6,0,0,0,0,0,0h0Z" fill="#4b1428"/><path d="M24.4,125.2c1.1,1.9,1,4,.9,5.8,0-1.9-.7-4.1-.9-5.8h0Z" fill="#4b1428"/><path d="M21.9,124.9c.7,1.9.1,3.7.2,5.5-.2-.2-.1-1.1-.2-1.5,0,0,0-1.4,0-1.4,0-.8-.2-2.1,0-2.6h0Z" fill="#4b1428"/><path d="M24.1,125.5c.3.6.3,1,.2,1.5.1.8.5,1.8,0,2.3,0,0,0,0,0,0-.3-1,0-1.6-.1-2.3-.2-.5-.3-1-.1-1.4,0,0,0,0,0,0h0Z" fill="#4b1428"/><path d="M22.6,125.6c.3.6.2,1,.1,1.4,0,.9.4,1.5,0,2.3-.5-.9-.2-1.6-.2-2.4-.1-.5-.2-1,0-1.4,0,0,0,0,0,0h0Z" fill="#4b1428"/><path d="M20.1,124.7c.2,1.1-.2,1.7-.2,2.6.2,1.1.4,2.1.4,3.3-.4-.3-.7-1.9-.6-2.5,0,0,0,.1,0,.1-.1-.5,0-.7,0-1.1.1-.6-.1-1.3,0-1.8,0-.2.2-.7.3-.7t0,0Z" fill="#4b1428"/><path d="M25.2,125.9c.4.6.6,1.3.6,1.9,0,.5.2,1.5,0,1.8,0,0-.4-1.9-.4-1.9-.1-.4-.4-1.6-.3-1.8h0Z" fill="#4b1428"/><path d="M19.8,124.6c.2,1.1-.2,2.1-.4,3.2-.1-.5,0-1.2,0-1.8,0-.6.2-1.6.4-1.4t0,0Z" fill="#4b1428"/><path d="M20.9,124.9c.1,1-.3,1.7-.3,2.6-.2-.6-.2-1-.2-1.6,0-.5,0-1,.4-1.1,0,0,0,0,0,0h0Z" fill="#4b1428"/><path d="M26.5,127.3c.4.4.7.9.8,1.5.1.4.4,1.4.3,1.6-.2-1-1.2-2.4-1.1-3.1h0Z" fill="#4b1428"/><path d="M23.1,125.4c.4.5.5,1.1.5,1.6,0,.4,0,1.3-.1,1.4,0-.9-.6-2.5-.3-3h0Z" fill="#4b1428"/><path d="M23.7,125.3c.2.5.3.8.2,1.2,0,.4,0,.7,0,1.1-.1-.1-.2-.9-.3-1.2-.2-.6,0-1.1.1-1h0Z" fill="#4b1428"/><path d="M10.5,158.9c.8-.4,1.5-.5,2.2-.6,1.2-.5,2.3-1.2,3.5-1.6,0,.4-1,1-1.3,1.2-.7.4-1.5.4-2.2.7-.7.4-1.5.7-2.2.5,0,0,0,0,0,0t0,0Z" fill="#4b1428"/><path d="M8.9,153.8c.5-1.1,1.4-1.4,2.2-1.9.4-.5.9-1.1,1.4-.9-.4.5-.8.8-1.3,1-.7.7-1.2,1.5-2.2,1.8,0,0,0,0,0,0t0,0Z" fill="#4b1428"/><path d="M9.3,157.9c1.7-.9,3.5-1.5,5.1-2.5-1.1,1-2.4,1.8-3.7,2.4-.3,0-1.3.3-1.3,0t0,0Z" fill="#4b1428"/><path d="M8.9,154.6c.7-.8,1.4-1.3,2.3-1.8.4-.3.8-.5,1.2-.8.3-.2,1-.7,1.2-.6-.6.3-1.5,1.3-2.2,1.8-.5.5-1.9,1.5-2.4,1.4t0,0Z" fill="#4b1428"/><path d="M9.5,157.3c.4-.5.8-.7,1.3-.8.6-.4,1.2-1.3,2.1-1.3-.4,1-1.3,1.1-2,1.5-.4.4-.8.7-1.3.7,0,0,0,0,0,0h0Z" fill="#4b1428"/><path d="M9.5,155.2c.3-.6.7-.8,1.2-.9.7-.6,1.2-1.4,2-1.3,0,0,0,0,0,0-.5.8-1.2,1-1.9,1.4-.3.4-.7.8-1.2.8,0,0,0,0,0,0h0Z" fill="#4b1428"/><path d="M8.6,152.3c.4-1.1,1.4-1.4,2.1-2.1.3-.3.4-.6.8-.7,0,0-.1,0-.1,0,.4-.4,1.7-.9,2-.6-.9.6-1.7.9-2.7,1.4-.5.3-.8,1-1.3,1.4-.2.1-.7.6-.8.5t0,0Z" fill="#4b1428"/><path d="M9.9,158.5c.9-.7,2.2-.9,3.3-1.4-.3.4-1.1.8-1.6,1.1-.6.4-1.7.7-1.7.4h0Z" fill="#4b1428"/><path d="M8.4,151.8c.2-.7.6-1.2,1.1-1.5.4-.3,1-1,1.4-1.1,0,0-1.2,1.4-1.2,1.4-.2.3-1.1,1.2-1.4,1.2t0,0Z" fill="#4b1428"/><path d="M8.8,153.2c0-.9.9-1.3,1.5-1.8,0,0,.8-.5.6-.2-.8.5-1.3,1.7-2.2,2h0Z" fill="#4b1428"/><path d="M9.4,156c.4-.4.8-.6,1.3-.8.4-.1,1.1-.7,1.3-.6-.6.6-2,1.9-2.6,1.4h0Z" fill="#4b1428"/><path d="M9.4,156.8c.2-.5.5-.7.9-.8.3,0,.9-.5,1.1-.4,0,0-.9.8-.9.8-.3.4-1,.6-1.1.4h0Z" fill="#4b1428"/><path d="M22.5,161.6c-.5-.6-.5-1.4-.4-2.2,0-.8-.3-1.5-.3-2.3,0-.4.2-1.5.5-1.7.2,1.3,0,2.6,0,3.9.2.7.4,1.4.3,2.3,0,0,0,0,0,0t0,0Z" fill="#4b1428"/><path d="M27.6,162.3c-.4-.9,0-1.9,0-2.9-.2-.5-.3-1.1-.2-1.7.6.3.5,1.1.4,1.7.1,1,.5,1.9-.1,2.9,0,0,0,0,0,0t0,0Z" fill="#4b1428"/><path d="M23.8,162.7c-1.2-1.1-1.1-3.5-1.1-5.3.3,1.8,1.1,3.5,1.1,5.3h0Z" fill="#4b1428"/><path d="M27,163.2c-.8-1.6-.1-3.9-.6-5.6.3.2.3.9.4,1.3,0,0,.2,1.4.2,1.4.1.8.3,2.1,0,2.9t0,0Z" fill="#4b1428"/><path d="M24.3,163.7c-.4-.3-.3-.8-.2-1.4-.1-.8-.5-1.5,0-2.4,0,0,0,0,0,0,.5.7.2,1.5.1,2.3.2.4.4.8,0,1.4,0,0,0,0,0,0t0,0Z" fill="#4b1428"/><path d="M26.4,163.5c-.3-.4-.3-.9-.1-1.4-.1-.9-.5-1.2-.1-2.4.7.5.4,1.5.3,2.4.2.4.3.9,0,1.5,0,0,0,0,0,0h0Z" fill="#4b1428"/><path d="M29.3,158.9c-.3-1,.1-2,0-3-.4-1.1-.8-1.9-1.1-3,.5,0,1.2,1.3,1.2,1.9,0,0,0-.1,0-.1.2.4.1.7.1,1.2,0,.7.3,1.3.2,2,0,.2-.1,1-.3,1t0,0Z" fill="#4b1428"/><path d="M29.7,158.7c-.2-1,0-2.5,0-3.8.2.4.2,1.3.3,1.9.2.6,0,1.9-.4,1.9t0,0Z" fill="#4b1428"/><path d="M28.4,159.8c-.2-1,.3-2.1.1-3.1.3.4.3,1,.4,1.5,0,.5,0,1.2-.5,1.6,0,0,0,0,0,0h0Z" fill="#4b1428"/><path d="M25.8,163.8c-.4-.6-.5-1.4-.5-2.3,0-.8,0-1.8.2-2.5,0,1.6.8,3.2.3,4.8h0Z" fill="#4b1428"/><path d="M24.9,163.5c-.3-.3-.3-.6-.2-1.1,0,0,0-1.2,0-1.2.2,0,.3.7.4,1,.2.4,0,1.2-.2,1.2h0Z" fill="#4b1428"/><path d="M11.2,133.5c.6-.3,1.1-.2,1.7.1.6.1,1.1,0,1.7.3.2.1,1,.6,1,1-1-.2-1.8-.8-2.7-1.1-.6,0-1.1,0-1.7-.3,0,0,0,0,0,0h0Z" fill="#4b1428"/><path d="M8.8,138.3c.8-.2,1.3.4,2,.8.4,0,.9,0,1.2.3-.4.5-.9.1-1.3-.2-.7-.1-1.5,0-1.9-.9,0,0,0,0,0,0t0,0Z" fill="#4b1428"/><path d="M10,134.6c1.2-1,2.8-.3,4,.2-1.3-.2-2.8.2-4-.2t0,0Z" fill="#4b1428"/><path d="M8.4,137.5c1.4-.4,2.7.9,4,1-.1.2-.8,0-1.1,0,0,0-1-.2-1-.2-.6-.1-1.6-.3-1.9-.8t0,0Z" fill="#4b1428"/><path d="M9.2,134.8c.4-.3.7-.2,1,0,.6,0,1.2-.2,1.7.6,0,0,0,0,0,0-.7.3-1.1-.2-1.7-.4-.4.1-.7.2-1-.2,0,0,0,0,0,0t0,0Z" fill="#4b1428"/><path d="M8.5,136.8c.4-.2.7,0,1,.2.6.1,1.1-.2,1.7.5-.6.6-1.2,0-1.7-.3-.4,0-.7,0-1-.4,0,0,0,0,0,0t0,0Z" fill="#4b1428"/><path d="M9.4,140.6c.8,0,1.2.8,2,.9.9,0,1.6,0,2.5,0-.2.5-1.4.7-1.9.5,0,0,.1,0,.1,0-.4,0-.5-.1-.8-.3-.4-.3-1-.2-1.4-.5-.1-.1-.6-.4-.5-.7h0Z" fill="#4b1428"/><path d="M9.8,141.7c.8,0,1.6.9,2.4,1.4-.4.1-1-.2-1.4-.3-.5,0-1.2-.7-1-1.1h0Z" fill="#4b1428"/><path d="M9.2,139.4c.7.1,1.3.9,2,1.1-.4.2-.8,0-1.2-.1-.4,0-.8-.4-.8-.9,0,0,0,0,0,0t0,0Z" fill="#4b1428"/><path d="M8.5,136.2c.6-.3,1.2-.2,1.8,0,.5.2,1.3.4,1.6.8-1.1-.4-2.5,0-3.4-.9h0Z" fill="#4b1428"/><path d="M9.1,135.4c.3-.2.5-.2.8,0,.3.1.5.2.8.3,0,.2-.6.1-.8.2-.4.1-.8-.3-.8-.5t0,0Z" fill="#4b1428"/><path d="M39.1,150.9c-.7.2-1.3-.1-1.9-.6-.6-.3-1.3-.3-1.9-.8-.3-.2-1-.9-1-1.3,1,.5,1.9,1.3,2.9,1.9.7,0,1.3.2,1.9.7,0,0,0,0,0,0h0Z" fill="#4b1428"/><path d="M37.9,141.9c-.8.3-1.4-.4-2.2-.7-.4.1-.9,0-1.3-.3.3-.5.9-.2,1.3,0,.7.1,1.5,0,2.2.8,0,0,0,0,0,0t0,0Z" fill="#4b1428"/><path d="M40.2,149.1c-1.5.5-3.2-.9-4.5-1.9,1.4.8,3.1,1,4.5,1.9t0,0Z" fill="#4b1428"/><path d="M38.5,143c-1.4.5-3-.8-4.4-.8.1-.3.8,0,1.1-.1,0,0,1.1.1,1.1.1.6,0,1.7.2,2.2.8h0Z" fill="#4b1428"/><path d="M40,147.9c-.4.3-.8,0-1.2-.3-.7-.1-1.4,0-1.9-.9,0,0,0,0,0,0,.7-.2,1.2.4,1.9.8.4,0,.8,0,1.1.4,0,0,0,0,0,0t0,0Z" fill="#4b1428"/><path d="M38.6,144.3c-.4.3-.8,0-1.1-.2-.7,0-1.1.3-1.9-.4.6-.7,1.2,0,1.9.2.4-.1.7-.1,1.1.3,0,0,0,0,0,0t0,0Z" fill="#4b1428"/><path d="M36.6,139.4c-.8.1-1.5-.7-2.2-.8-.8,0-1.5.2-2.4.2,0-.6,1.2-.9,1.6-.7,0,0,0,0,0,0,.4-.1.5.1.9.2.5.3,1,0,1.5.4.2.1.7.4.7.7h0Z" fill="#4b1428"/><path d="M40,150.3c-.5.3-1.1,0-1.5-.3-.4-.3-1.1-.6-1.3-1.1,0,0,1.4.6,1.4.6.3,0,1.2.5,1.4.9t0,0Z" fill="#4b1428"/><path d="M37.3,140.7c-.8,0-1.5-.9-2.3-1,.4-.2.8,0,1.2,0,.4,0,.9.3,1.1,1,0,0,0,0,0,0h0Z" fill="#4b1428"/><path d="M37.3,151.1c-.4.3-.9.1-1.3-.2-.3-.2-1-.7-1.1-1,.7.5,2,.4,2.3,1.2h0Z" fill="#4b1428"/><path d="M39,145.2c-.3.4-.7.5-1.2.3-.3,0-1.1-.3-1.2-.5.7.2,1.8-.4,2.4.2t0,0Z" fill="#4b1428"/><path d="M39.4,146.6c-.3.2-.6.2-.9,0-.3-.1-.6-.2-.9-.3,0-.2.7-.2.9-.2.4-.1.9.3.9.5h0Z" fill="#4b1428"/><path d="M25.3,142.8c.6-.8,1.3-1.1,2-1.3,1.1-.6,2.3-1.7,3.6-1.3-1,.9-2.3,1-3.5,1.5-.6.5-1.4,1.2-2.1,1.1h0Z" fill="#4b1428"/><path d="M25,143.3c.9-.7,1.9-.7,2.9-.5,1.6,0,3.3-.3,4.9.8-1.6.2-3.3-.5-4.9-.6-.9.1-2,.5-2.9.2h0Z" fill="#4b1428"/><path d="M25.1,143.5c.7,0,1.3.3,1.9.8,1,.4,2.5.6,3.1,2-1.2-.2-2.1-1.1-3.1-1.8-.7-.1-1.3-.3-1.9-.9,0,0,0,0,0,0h0Z" fill="#4b1428"/><path d="M25.1,143.3c1.3-1.5,3.1-1.3,4.7-1.6-1,.5-2.4.8-3.5,1.3,0,0-1.2.3-1.2.3,0,0,0,0,0,0h0Z" fill="#4b1428"/><path d="M25.5,143.3c.8-.3,2.2.3,3.1.4-.4.3-1.1.2-1.6.2-.5.1-1.5-.2-1.6-.6h0Z" fill="#4b1428"/><path d="M23.5,145.7c0,1.1-.3,2.1-.6,3-.3,1.7-.3,3.5-1.1,5.1-.2-1.7.5-3.5.9-5.2,0-1.1.2-2.1.8-3,0,0,0,0,0,0t0,0Z" fill="#4b1428"/><path d="M23.9,145.3c.2,1.3.3,2.6.3,3.9.3,2.1,1.1,4.1.9,6.3-.9-1.8-.9-4.1-1.1-6.2-.3-1.2-.5-2.8-.1-3.9t0,0Z" fill="#4b1428"/><path d="M23.9,145.1c.6.5.9,1.3,1.2,2.1.7,1.1,1.8,1.9,2.2,3.4-1.2-.5-1.6-2-2.3-3.2-.5-.6-1-1.2-1.1-2.2,0,0,0,0,0,0h0Z" fill="#4b1428"/><path d="M23.7,145.7c.3,1.3-.2,4.1-.6,5.4.2-1.7,0-3.9.6-5.4h0Z" fill="#4b1428"/><path d="M24,145.5c.4.5.6,1.2.8,1.9.1.7.5,1.4.5,2.1-.5-1.1-1.6-2.6-1.3-4h0Z" fill="#4b1428"/><path d="M21,144.9c-.8.5-1.5.6-2.3.7-1.3.5-2.6,1.6-3.9,1.6,1.2-1.2,2.6-1.4,3.9-1.8.7-.4,1.7-.9,2.4-.5t0,0Z" fill="#4b1428"/><path d="M21.7,145c-.8.8-1.7,1.4-2.7,1.9-1.4,1.3-2.7,3.1-4.5,4,1.2-1.9,2.9-3,4.4-4.2.8-.8,1.8-1.9,2.7-1.8t0,0Z" fill="#4b1428"/><path d="M21.7,144.9c-.2.9-.7,1.6-1.2,2.2-.7,1.3-1.1,2.8-2.2,3.7.3-1.6,1.3-2.6,2.1-3.8.3-.8.7-1.6,1.3-2.1,0,0,0,0,0,0h0Z" fill="#4b1428"/><path d="M21.6,144.7c-.7.5-1.6,1.2-2.3,1.5-.8.4-1.7,1.1-2.5,1.4,1.2-1,2.3-2,3.5-2.7.3-.1,1.1-.5,1.3-.2h0Z" fill="#4b1428"/><path d="M21.4,145.1c-.3.7-.6,1.2-1.1,1.7-.4.4-.9,1.2-1.4,1.5.7-1.1,1.4-3,2.5-3.2h0Z" fill="#4b1428"/><path d="M21.4,141.5c-.7.5-1.5.4-2.3.2-1.2,0-2.8.3-3.8-.6,1.3-.3,2.5.3,3.8.4.7-.1,1.7-.4,2.3,0t0,0Z" fill="#4b1428"/><path d="M21.7,141.1c-1,0-1.9-.6-2.7-1.3-1.4-.9-3-1.7-4-3.5,1.5.7,2.6,2.2,4,3.3.9.4,1.9.8,2.6,1.5h0Z" fill="#4b1428"/><path d="M21.5,141.3c-1.7.5-3.2-.8-4.7-1.6,1.1.2,2.4.8,3.6,1,0,0,1.2.5,1.2.5,0,0,0,0,0,0h0Z" fill="#4b1428"/><path d="M21.4,140.9c-.6-.1-1-.6-1.4-1.1-.3-.5-.9-1.1-1.1-1.7.7.9,2.1,1.6,2.5,2.8h0Z" fill="#4b1428"/><path d="M22.8,145c-.5.4-.4-.5-.6-.6-.2,0-.3,0-.4,0-.1-.1-.2-.1-.2-.6,0-.5.2-.2.2-.5,0-.3-.1-.4-.1-.6,0-.2,0-.3.1-.4.1,0,.2,0,.2-.2,0-.2.1-.3.2-.4.1-.2.2-.4.3-.4.1,0,.1.2.2,0,0-.3,0-.5.3-.4.2.1.3.1.4.3,0,.2.2.2.3.5.1.3.3,0,.5.3.1.3.2.7,0,.7-.1,0,0,.2,0,.5,0,.3.1.8,0,.8-.1,0-.2,0-.3.3,0,.2,0,.4-.1.5-.1.1-.4.2-.5,0,0-.1-.5.3-.5.3Z" fill="#eee9e0" stroke="#4b1428" stroke-miterlimit="10" stroke-width=".2"/><path d="M23.1,141.4c.3-.3.3.4.5.4.1,0,.2,0,.3,0,.1,0,.2,0,.2.4,0,.4-.1.1,0,.4,0,.2.1.3.1.5,0,.2,0,.2,0,.3-.1,0-.2,0-.1.2,0,.1,0,.2-.2.3,0,.1-.2.3-.3.4-.1,0-.1-.1-.2,0,0,.2,0,.4-.2.3-.2,0-.2,0-.3-.2,0-.2-.2-.2-.2-.4,0-.2-.3,0-.3-.2,0-.2-.2-.5,0-.6,0,0,0-.2,0-.4,0-.2-.1-.6,0-.6.1,0,.2,0,.2-.2,0-.2,0-.3,0-.4,0-.1.3-.2.4,0,0,0,.3-.2.3-.2Z" fill="#eee9e0" stroke="#4b1428" stroke-miterlimit="10" stroke-width=".2"/><path d="M22.6,143.9c-.3,0-.1-.4-.2-.4,0,0-.1,0-.2-.1,0,0,0-.1,0-.3,0-.2.1,0,.1-.2,0-.1,0-.2,0-.4,0-.1,0-.2.1-.2,0,0,.1,0,.1,0,0,0,0-.1.2-.2,0,0,.2-.2.2-.1,0,0,0,.1.1,0,0-.1.1-.2.2-.1.1.1.1.1.1.3,0,.1,0,.2,0,.3,0,.2.2.1.2.3,0,.2,0,.4,0,.4,0,0,0,.1-.1.2,0,.1,0,.4-.1.4,0,0-.1,0-.2,0,0,0,0,.2-.1.2,0,0-.2,0-.3,0,0,0-.3,0-.3,0Z" fill="#eee9e0" stroke="#4b1428" stroke-miterlimit="10" stroke-width=".1"/><path d="M44.7,57c-.3.2-.5.3-.7.5,0,0,0,0,0,0,0,.2,0,.4,0,.6.3.2.4.5.4.8.1,0,.3.2.5.2,8.7-3.7,19.4-4.3,20.6,3.6.3,1.6,3.7,3.1,3.3,5.2-.9,4.4-5.6,4.2-8.6,4.8-6.5,1.3-12.4-3.9-16-10.9-.5-.3-.9-.4-1.1-.4-.1.3-.4.5-.7.5-.1.4-.1.8,0,1.1,1.1,1.6,2.8,3.3,4.6,7.3,1.3,2.8,4.8,5,5.2,8,.5,3.5-1.9,9-6.3,9.2-1.1,0-2.8-1.3-3.8-1.4-3.6-.3-5.6-.2-7.1-2.2-1.6-2.1-2-5.1-1-8.8.9-3.3,2.8-7.2,6-11.6,0-.4,0-.7,0-1-.3-.2-.5-.5-.5-.9,0,0,0,0,0,0,0,0,0,0-.1,0-.4,0-.8-.3-1-.7-.3,0-.5,0-.6,0-2.5,5.6-7.8,19.7-15.8,15.6-1-.5-3.7.3-5.3-1.7-1.6-2.6.1-5.1-.1-6.5-.8-5,6.5-8.8,20.5-9.5.3-.1.6-.2.7-.4,0,0,0,0,0-.1.2-.4,0-.8-.2-1.1-2.8-.3-7-1.1-10.4-2.7-3.4-1.7-7.7-5.1-7.2-9.1s4.4-3.4,6.5-5.9c2.2-3.4,4.3-2.9,7.4-2.3,5.6,1.1,9.6,6.9,7.6,17.9,0,.5.2.8.3,1,.1,0,.2.1.3.2.3,0,.6-.3.8-.6,1.6-5.9-1.3-22,14.9-18.8,2.3.5-.4,1,8.6,3.8,2.6,3.3-2.2,11-21.9,16.3Z" fill="#eee9e0" stroke="#4b1428" stroke-miterlimit="10" stroke-width="1.6"/><path d="M37.8,57.2c-.3-1.3,1.2-.6,1.4-.9s.2-.6.5-.9.4-.4,1.2,0,.1.5.6.7.8,0,1.2.1.5.1.6.5,0,.6.2.6.4.5.5.8.6.8.4,1.1-.4.2,0,.6.7.5.4,1-.4.6-.9.6-.5.3-1.1.4-.4.7-.9.8-1.3,0-1.3-.3-.4-.2-.8-.5-1.4-.2-1.3-.6,0-.6-.2-.9-.7-.2-.8-.6,0-1.1.3-1.2,0-1.3,0-1.3Z" fill="#eee9e0" stroke="#4b1428" stroke-miterlimit="10" stroke-width=".5"/><path d="M38,56.5c-1.5,0-2.7-.8-3.8-1.7-1.2-.7-2.6-1.1-3.8-1.9-.8-.6-1.5-1.2-2-2,0,0,0,0,0,0,2.3.8,3.9,2.5,5.9,3.8,1.3.5,2.6.9,3.7,1.9,0,0,0,0,0,0h0Z" fill="#4b1428"/><path d="M39.7,55.5c-1.7-.6-3-2-3.9-3.5-1.2-1.3-2.5-2.5-3.5-4-.6-1-1.2-2-1.6-3.2,0,0,0,0,0,0,2.2,2.1,3.4,4.8,5.2,7,1.3,1.1,2.6,2.2,3.8,3.6,0,0,0,0,0,0h0Z" fill="#4b1428"/><path d="M40.8,55.4c-1-.9-1.3-2-1.5-3.2-.9-1.8-2.1-3.6-1.8-5.7,0,0,0,0,0,0,1.2,1.7,1.3,3.7,1.9,5.6.7,1,1.3,2,1.3,3.3,0,0,0,0,0,0h0Z" fill="#4b1428"/><path d="M39,55.9c-2.9-.8-4.7-4-6.5-6.2,0,0,0,0,0,0,1.6,1.6,3.3,3.1,5,4.6,0,0,1.5,1.6,1.5,1.6h0Z" fill="#4b1428"/><path d="M38.7,56.8c-1.2-.3-2.2-1-3.1-1.9-.9-.8-1.9-1.6-2.8-2.4,0,0,0,0,0,0,1.6.9,3.2,1.8,4.6,2.8.5.4.9.8,1.3,1.4,0,0,0,0,0,0h0Z" fill="#4b1428"/><path d="M37.4,56.9c-1.3.2-2.6-.2-3.7-.9-1.1-.6-2.2-1.3-3.2-2.1,0,0,0,0,0,0,1.6.9,3.4,1.5,5.2,2.1.6.2,1.1.5,1.7.9h0Z" fill="#4b1428"/><path d="M39.9,54.9c-1.8-1.1-2.1-3.4-2.7-5.2,0,0,0,0,0,0,.5.9,1,1.7,1.5,2.5.6.8,1.1,1.6,1.2,2.7,0,0,0,0,0,0h0Z" fill="#4b1428"/><path d="M41.1,55.1c-.9-1.8-.5-3.7-.9-5.6,0,0,0,0,0,0,.3.9.6,1.8.9,2.7.3.9.4,1.9,0,2.9,0,0,0,0,0,0h0Z" fill="#4b1428"/><path d="M30.8,37.1c1.2.2,2.1,1,2.7,1.9.8.8,1.9,1.2,2.6,2.1.4.6.9,1.3.9,2.1h0c-1.4-1.2-2.4-2.7-3.7-4-1-.5-1.9-1-2.6-2,0,0,0,0,0,0h0Z" fill="#4b1428"/><path d="M23.6,42.1c1.3,1.1,1.2,2.2,1.7,3.5.1.2.4.4.6.6.3.4.6,1,.6,1.5-.6-.1-1-.6-1.2-1.1,0-.3,0-.6-.2-.8-.4-.7-1.1-1.2-1.4-2-.2-.5-.3-1-.2-1.6,0,0,0,0,0,0h0Z" fill="#4b1428"/><path d="M28.1,37.5c1.4.4,2.3,1.4,3.1,2.6.7,1.1,1.6,2.3,2,3.5-.9-1-1.6-2.1-2.5-3.1-.5-.5-2.5-2.5-2.5-3h0Z" fill="#4b1428"/><path d="M24.3,41.2c1.6,1.2,2.3,3.3,3.2,5,.4.7.6,1.1,1,1.7-.4,0-.5-.5-.8-.7,0,0-.6-.8-.6-.8-1.1-1.6-2.5-3.2-2.9-5.2,0,0,0,0,0,0h0Z" fill="#4b1428"/><path d="M27.9,38.4c.5.2.8.5,1,.9.1.5.2.9.6,1.2.8.6,1.2,1.4,1.1,2.4,0,0,0,0,0,0-.4-.3-.7-.6-1-1-.4-.5-.4-1.3-.8-1.9-.6-.4-1.1-.8-1.1-1.7,0,0,0,0,0,0h0Z" fill="#4b1428"/><path d="M25.8,40.9c.8.3,1,1,1.1,1.7.3.6,1,1,1.3,1.6.2.3.4,1.1.4,1.4-1-.3-1.5-1.2-1.7-2.1,0-.2-.1-.5-.3-.6-.6-.5-1-1-.9-1.8,0,0,0,0,0,0h0Z" fill="#4b1428"/><path d="M21.7,43.7c.6.7,1,1.5,1.1,2.4,0,.5.2.9.5,1.2,1,1.1,2.1,2.1,3.1,3.4,0,0,0,0,0,0-1.2-.2-2.2-1-2.8-2,0,0,.1.1.1.1-.4-.3-.6-.9-.7-1.4-.2-.9-1.1-1.5-1.3-2.4-.1-.4-.2-.9-.1-1.4h0Z" fill="#4b1428"/><path d="M29.6,37.3c1,0,1.6.8,2.1,1.6.5.7,1,1.4,1.4,2.2h0c0,0-1.8-1.7-1.8-1.7-.7-.5-1.2-1.1-1.6-1.9,0,0,0,0,0,0h0Z" fill="#4b1428"/><path d="M21.1,44.2c.5.7.8,1.4,1,2.3,0,0,.7,2.4.7,2.4h0c-.5-.7-.9-1.4-1.3-2.2-.5-.8-.8-1.6-.4-2.6,0,0,0,0,0,0h0Z" fill="#4b1428"/><path d="M23,42.8c.9,1.1.7,2.6,1.4,3.8,0,0,0,0,0,0-.4-.1-.5-.5-.8-.8-.5-.9-1.4-2-.7-3.1,0,0,0,0,0,0h0Z" fill="#4b1428"/><path d="M32.3,37.1c.8-.2,1.5.1,2.1.7.6.4,1.1.9,1.5,1.5,0,0,0,0,0,0-.9-.6-1.9-1-2.8-1.4-.3-.2-.6-.4-.8-.8h0Z" fill="#4b1428"/><path d="M26.5,39.9c.8.1,1.3.7,1.7,1.4.4.6.7,1.3.9,2h0c-.6-.9-1.4-1.5-2.1-2.3-.2-.3-.4-.6-.5-1h0Z" fill="#4b1428"/><path d="M27.3,38.9c1.1.4,1.2,1.7,1.7,2.7,0,0,0,0,0,0-.4-.3-.8-.7-1.2-1.1-.5-.4-.7-.9-.6-1.6,0,0,0,0,0,0h0Z" fill="#4b1428"/><path d="M48.2,86.3c0-1.2.6-2.1,1.2-3.1.4-1.8.5-3.6,1.1-5.4,0,0,0,0,0,0,.4.7.4,1.5.3,2.3-.1,1.2-.8,2.1-1.2,3.2-.1,1.1-.4,2.3-1.4,3,0,0,0,0,0,0h0Z" fill="#4b1428"/><path d="M39.4,85.8c-.7-.9-.8-2-.6-3.1,0-.3,0-.5,0-.8,0-.3-.2-.5-.2-.8,0-.6,0-1.2.5-1.6,0,0,0,0,0,0,.3.8.2,1.5,0,2.3,0,.8.5,1.5.5,2.3,0,.5,0,1-.2,1.6,0,0,0,0,0,0h0Z" fill="#4b1428"/><path d="M45.6,87.4c.3-2.6,1-5.2,1.3-7.8.2,1.3.1,2.7,0,4,0,1.3-.3,2.8-1.3,3.8,0,0,0,0,0,0h0Z" fill="#4b1428"/><path d="M40.5,86.1c-.6-1.9-.3-4-.2-5.9,0,0,.1-1,.1-1,0-.3,0-.7.3-1,0,0,0,0,0,0-.2,1,.1,2.8.1,3.9.2,1.3.2,2.7-.3,3.9,0,0,0,0,0,0h0Z" fill="#4b1428"/><path d="M45,86.8c-.4-.7-.2-1.3,0-2,0-.7-.4-1.3-.3-2,0-.4,0-1.1.4-1.4.6.8.6,1.8.3,2.7,0,.2-.1.4-.1.7.2.7.3,1.4-.3,2,0,0,0,0,0,0h0Z" fill="#4b1428"/><path d="M41.9,85.7c-.5-.7-.4-1.3-.1-2,0-.2,0-.4-.1-.7-.3-.9-.4-1.9.3-2.7,0,0,0,0,0,0,.4.9.4,1.7,0,2.6,0,.2-.1.4,0,.7.3.7.4,1.3,0,2,0,0,0,0,0,0h0Z" fill="#4b1428"/><path d="M37,85.3c-.6-.8-.9-1.7-.7-2.6,0-.5,0-.9,0-1.4,0-.5-.3-1.1,0-1.6,0,0,0,.2,0,.2,0-1.2.4-2.4,1.3-3.2,0,0,0,0,0,0-.2,1.6-.6,3-.9,4.5-.2.9.5,1.7.5,2.6,0,.4,0,.9,0,1.4,0,0,0,0,0,0h0Z" fill="#4b1428"/><path d="M47,86.8c0-.9,0-1.7.4-2.5,0,0,.7-2.5.7-2.5h0c0,.9,0,1.7,0,2.6,0,.9-.2,1.8-1,2.4,0,0,0,0,0,0h0Z" fill="#4b1428"/><path d="M36.2,85.3c-.8-.6-.9-1.5-.9-2.4,0-.9,0-1.7,0-2.6h0s.6,2.5.6,2.5c.3.8.4,1.6.3,2.5,0,0,0,0,0,0h0Z" fill="#4b1428"/><path d="M38.5,85.5c-1.3-.7-1-2.4-.9-3.6,0-.2,0-.4.2-.5h0c0,1,.4,2.1.7,3,0,.3,0,.6,0,1.1h0Z" fill="#4b1428"/><path d="M43,86.2c-.4-1.4.5-2.7.4-4.2,0,0,0,0,0,0,.2.7.3,1.4.3,2.2,0,.8,0,1.5-.7,2,0,0,0,0,0,0h0Z" fill="#4b1428"/><path d="M44.2,86.7c-.5-.5-.5-1-.3-1.6.1-.5.3-1.1.4-1.6h0c0,.8.2,1.6.2,2.4,0,.2-.2.8-.4.8h0Z" fill="#4b1428"/><path d="M62.7,72.5c-1.2.3-2.3-.1-3.3-.7-1.1-.4-2.2-.4-3.2-1-.6-.4-1.3-.9-1.7-1.6h0c1.8.5,3.2,1.6,4.9,2.3,1.1.1,2.2.2,3.2.9,0,0,0,0,0,0h0Z" fill="#4b1428"/><path d="M68.1,66.5c-1.6,0-2.3-1-3.6-1.6-.3,0-.5,0-.8,0-.5-.1-1.1-.4-1.4-.8.6-.3,1.2-.2,1.7,0,.2.1.4.4.7.5.7.3,1.6.3,2.3.7.5.3.9.6,1.2,1.1,0,0,0,0,0,0h0Z" fill="#4b1428"/><path d="M65.3,71.4c-1.3.6-2.7.4-4,0-1.3-.4-2.7-.8-3.8-1.4,1.3.2,2.6.6,3.9.7,1.3.1,2.5.3,3.8.7,0,0,0,0,0,0h0Z" fill="#4b1428"/><path d="M68.8,67.7c-2,.1-3.8-1.1-5.6-1.8-.6-.3-1.2-.6-1.8-.7,0,0,0,0,0,0,.4-.2.7,0,1,0,0,0,1,.2,1,.2,1.8.6,3.9.9,5.5,2.2,0,0,0,0,0,0h0Z" fill="#4b1428"/><path d="M66.9,71.4c-.5.2-1,.2-1.4,0-.4-.3-.7-.6-1.3-.5-1,0-1.9-.3-2.4-1.2,0,0,0,0,0,0,.5,0,1,0,1.4.1.6.2,1.1.8,1.8,1,.7,0,1.4,0,1.9.6,0,0,0,0,0,0h0Z" fill="#4b1428"/><path d="M68.6,68.7c-.8.2-1.4-.1-1.9-.6-.6-.2-1.4,0-2-.4-.4-.2-.8-.5-1.2-.8,0,0,0,0,0,0,1-.4,1.9,0,2.6.6.2.1.4.3.6.3.7,0,1.4,0,1.8.8,0,0,0,0,0,0h0Z" fill="#4b1428"/><path d="M65.4,62.4c-.9-.2-1.7-.6-2.4-1.2-.3-.3-.7-.5-1.2-.6-1.5-.2-2.9-.3-4.5-.7,0,0,0,0,0,0,1-.6,2.3-.6,3.4-.2,0,0-.2,0-.2,0,.5,0,1,.4,1.4.6.8.5,1.8.5,2.5,1.1.4.3.7.6,1,1,0,0,0,0,0,0h0Z" fill="#4b1428"/><path d="M65.6,61.7c-.9-.2-1.5-.6-2.2-1.2,0,0-2.1-1.4-2.1-1.4h0c.8.2,1.6.5,2.4.8.8.3,1.7.8,1.9,1.7,0,0,0,0,0,0h0Z" fill="#4b1428"/><path d="M65.8,64.1c-1.4-.3-2.2-1.6-3.5-2,0,0,0,0,0,0,.4-.2.7,0,1.1,0,1,.4,2.4.6,2.5,1.9,0,0,0,0,0,0h0Z" fill="#4b1428"/><path d="M68.4,69.6c-2.3.3-4.4-1.1-6.4-2.2,0,0,0,0,0,0,1.1.4,2.1.7,3.2,1,1.1.2,2.2.5,3.1,1.2,0,0,0,0,0,0h0Z" fill="#4b1428"/><path d="M67.2,70.6c-1.1.4-2-.6-3-1,0,0,0,0,0,0,.6,0,1.1,0,1.6.1.6,0,1.1.2,1.4.8,0,0,0,0,0,0h0Z" fill="#4b1428"/><path d="M17,67.8c.4-1.2,1.3-1.9,2.3-2.4.9-.7,1.5-1.7,2.5-2.3.7-.3,1.4-.7,2.2-.6h0c-1.4,1.3-3.1,2-4.6,3-.7.9-1.3,1.7-2.4,2.2,0,0,0,0,0,0h0Z" fill="#4b1428"/><path d="M19.4,75.6c.9-1.4,2-1.5,3.3-2.2.2-.2.3-.4.5-.6.3-.4.9-.7,1.4-.8,0,.7-.5,1.1-1,1.4-.2.1-.5.2-.8.3-.7.5-1.1,1.2-1.8,1.6-.5.3-1,.4-1.6.5,0,0,0,0,0,0h0Z" fill="#4b1428"/><path d="M16.6,70.6c.2-1.4,1.1-2.5,2.1-3.4,1-.9,2.1-1.9,3.2-2.5-.8,1-1.9,1.9-2.7,2.9-.4.5-2.2,2.9-2.6,2.9h0Z" fill="#4b1428"/><path d="M17.9,75.5c1-1.8,3-2.7,4.5-3.8.7-.5,1.1-.7,1.6-1.2,0,.4-.4.6-.6.9,0,0-.7.7-.7.7-1.5,1.3-2.9,2.9-4.7,3.6,0,0,0,0,0,0h0Z" fill="#4b1428"/><path d="M15.8,72c.1-.5.4-.9.8-1.2.4-.2.9-.3,1.1-.8.5-.8,1.2-1.4,2.3-1.5,0,0,0,0,0,0-.2.5-.5.8-.8,1.1-.5.5-1.3.6-1.7,1-.3.6-.7,1.2-1.5,1.3,0,0,0,0,0,0h0Z" fill="#4b1428"/><path d="M17.2,74.8c.2-.8.8-1.1,1.5-1.3.5-.4.8-1.1,1.4-1.5.3-.2,1-.6,1.3-.6-.2,1.1-1,1.6-1.9,2-.2,0-.4.2-.6.3-.4.6-.8,1.1-1.6,1.2,0,0,0,0,0,0h0Z" fill="#4b1428"/><path d="M22.7,76.6c.7-.7,1.4-1.2,2.3-1.4.4-.1.8-.4,1.1-.7,1-1.2,1.8-2.4,2.9-3.5,0,0,0,0,0,0,0,1.2-.7,2.3-1.6,3,0,0,.1-.2.1-.2-.2.5-.9.7-1.3.9-.9.4-1.3,1.3-2.2,1.6-.4.2-.9.3-1.4.3,0,0,0,0,0,0h0Z" fill="#4b1428"/><path d="M24.6,76.8c.7-.6,1.3-1,2.1-1.3,0,0,2.3-1.1,2.3-1.1h0c-.6.6-1.3,1.2-2,1.7-.7.6-1.5,1-2.5.8,0,0,0,0,0,0h0Z" fill="#4b1428"/><path d="M21.1,75.8c1-1,2.5-1,3.5-1.9,0,0,0,0,0,0,0,.4-.4.6-.7.9-.8.7-1.8,1.7-2.9,1.2,0,0,0,0,0,0h0Z" fill="#4b1428"/><path d="M16.5,74.2c.9-2.2,3.3-3.2,5.2-4.3,0,0,0,0,0,0-.9.7-1.7,1.5-2.5,2.2-.8.8-1.6,1.6-2.7,2.1,0,0,0,0,0,0h0Z" fill="#4b1428"/><path d="M16.3,72.7c.3-1.1,1.6-1.4,2.4-2.1,0,0,0,0,0,0-.3.5-.6.9-1,1.3-.3.5-.8.9-1.5.8,0,0,0,0,0,0h0Z" fill="#4b1428"/><path d="M66.6,43.8c-.5,1.1-1.5,1.7-2.6,2.1-1,.6-1.7,1.5-2.8,1.9-.7.3-1.5.5-2.3.3h0c1.5-1.1,3.3-1.6,4.9-2.5.8-.8,1.5-1.6,2.7-1.9,0,0,0,0,0,0h0Z" fill="#4b1428"/><path d="M57.3,37.2c-.8,1.4-1.9,1.6-3.1,2.4-.2.2-.3.5-.4.7-.3.4-.9.8-1.3.9,0-.7.4-1.1.9-1.4.2-.1.5-.2.7-.4.6-.5,1-1.3,1.7-1.7.5-.3,1-.5,1.6-.5,0,0,0,0,0,0h0Z" fill="#4b1428"/><path d="M66,40.7c-.5,1.3-1.7,2.2-2.9,2.8-1.2.6-2.4,1.3-3.7,1.6,1.1-.7,2.3-1.4,3.3-2.2,1-.8,2-1.6,3.2-2.2,0,0,0,0,0,0h0Z" fill="#4b1428"/><path d="M58.9,37.5c-.8,1.8-2.8,2.9-4.3,4.1-.6.5-1,.8-1.5,1.3,0-.4.4-.6.5-.9,0,0,.7-.7.7-.7,1.4-1.4,2.7-3,4.5-3.8,0,0,0,0,0,0h0Z" fill="#4b1428"/><path d="M64.8,40.1c-.1.5-.4.9-.8,1.1-.5.1-.9.3-1.2.7-.6.8-1.4,1.3-2.4,1.3,0,0,0,0,0,0,.2-.5.6-.8.9-1,.5-.4,1.3-.5,1.8-.9.4-.6.8-1.1,1.6-1.2,0,0,0,0,0,0h0Z" fill="#4b1428"/><path d="M60.1,38.6c-.2.8-.8,1.1-1.4,1.4-.5.4-.7,1.2-1.3,1.6-.3.3-.8.5-1.2.7,0,0,0,0,0,0,.1-1.1.9-1.7,1.8-2.1.2,0,.4-.2.6-.4.3-.6.7-1.2,1.6-1.3,0,0,0,0,0,0h0Z" fill="#4b1428"/><path d="M53.8,36.4c-.6.7-1.3,1.3-2.2,1.6-.4.1-.8.4-1.1.7-.9,1.2-1.6,2.5-2.7,3.7,0,0,0,0,0,0,0-1.2.6-2.3,1.4-3.1,0,0,0,.2,0,.2.2-.5.8-.7,1.2-1,.8-.4,1.3-1.4,2.1-1.7.4-.2.9-.3,1.3-.4h0Z" fill="#4b1428"/><path d="M67,42.1c-.3.9-1.1,1.4-1.9,1.8-.8.4-1.6.7-2.4,1,0,0,0,0,0,0l2.1-1.5c.7-.6,1.3-1,2.2-1.2,0,0,0,0,0,0h0Z" fill="#4b1428"/><path d="M55.6,36.9c-.9,1.1-2.4,1.2-3.4,2.1,0,0,0,0,0,0,0-.4.4-.6.6-.9.8-.7,1.7-1.8,2.9-1.3,0,0,0,0,0,0h0Z" fill="#4b1428"/><path d="M64.9,46.4c-.2.8-.8,1.3-1.5,1.6-.7.3-1.3.6-2.1.7,0,0,0,0,0,0,.9-.5,1.7-1.3,2.5-1.9.3-.2.6-.3,1-.4h0Z" fill="#4b1428"/><path d="M61.2,38.9c0,.8-.4,1.5-1,1.9-.5.5-1.1.9-1.8,1.2,0,0,0,0,0,0,.8-.8,1.3-1.7,1.9-2.5.3-.2.5-.5.9-.6h0Z" fill="#4b1428"/><path d="M63,39.6c-.2,1.2-1.5,1.5-2.3,2.2,0,0,0,0,0,0,.3-.5.5-1,.9-1.4.3-.5.7-.9,1.4-.9,0,0,0,0,0,0h0Z" fill="#4b1428"/><path d="M43.6,55.7c-.2-1.5.4-2.8,1.1-4.1.5-1.3.6-2.8,1.3-4,.4-.8.9-1.6,1.6-2.3,0,0,0,0,0,0-.4,2.4-1.8,4.3-2.7,6.4-.2,1.4-.5,2.7-1.3,4,0,0,0,0,0,0h0Z" fill="#4b1428"/><path d="M43.8,56.7c.3-1.8,1.5-3.3,2.8-4.5,1.8-2.3,3.6-5,6.3-6.1-1.6,2.5-4.2,4.1-6.1,6.3-.9,1.5-1.8,3-3,4.3,0,0,0,0,0,0h0Z" fill="#4b1428"/><path d="M44.1,56.8c.7-1.1,1.8-1.6,2.9-2,1.6-1.1,3.2-2.6,5.3-2.7,0,0,0,0,0,0-1.5,1.4-3.4,1.9-5.2,2.8-.9.8-1.8,1.6-3,1.9,0,0,0,0,0,0h0Z" fill="#4b1428"/><path d="M43.8,56.5c-.1-1.6.6-3,1.4-4.3.8-1.3,1.6-2.6,2.5-3.8h0c-1,2-1.9,4.1-2.8,6.1,0,0-1.1,2-1.1,2,0,0,0,0,0,0h0Z" fill="#4b1428"/><path d="M44.3,56.1c.9-1.8,2.6-2.7,3.9-4.1,0,0,0,0,0,0-.5.8-1.1,1.6-1.7,2.4-.6.8-1.3,1.5-2.3,1.7,0,0,0,0,0,0h0Z" fill="#4b1428"/><path d="M44.7,60.7c1.2.9,1.9,2,2.7,3.2,1.7,1.7,3.7,2.9,5,4.9,0,0,0,0,0,0-.9-.4-1.7-.9-2.4-1.5-1.1-.9-1.8-2.2-2.7-3.2-1.1-.9-2.1-1.9-2.5-3.4,0,0,0,0,0,0h0Z" fill="#4b1428"/><path d="M44.6,59.9c1.7.7,3.1,1.7,4.5,2.6,2.7,1.1,5.6,1.6,8.2,3.1,0,0,0,0,0,0-1.2,0-2.4-.3-3.5-.6-1.7-.5-3.2-1.5-4.8-2.3-1.7-.5-3.4-1.3-4.5-2.8,0,0,0,0,0,0h0Z" fill="#4b1428"/><path d="M44.5,59.7c1.2-.4,2.4-.3,3.6,0,2-.2,3.9-.8,5.9-.4,0,0,0,0,0,0-.7.4-1.5.6-2.3.7-1.2.2-2.4-.2-3.6-.1-1.2.3-2.4.4-3.6-.1,0,0,0,0,0,0h0Z" fill="#4b1428"/><path d="M44.7,60.5c1.2.4,2.1,1.2,2.9,2.2.9.9,1.7,1.7,2.5,2.6,0,0,0,0,0,0-1.5-1.1-3-2.1-4.3-3.3-.4-.4-.8-.9-1.1-1.5h0Z" fill="#4b1428"/><path d="M44.9,60c2-.2,3.8.9,5.7,1.2,0,0,0,0,0,0-1,0-2,0-3-.2-1,0-2-.3-2.8-1,0,0,0,0,0,0h0Z" fill="#4b1428"/><path d="M40.9,63.6c-.3,1.5-1,2.6-1.8,3.8-.8,2.2-1,4.5-2.3,6.6,0,0,0,0,0,0,0-1,.1-1.9.4-2.8.4-1.4,1.2-2.5,1.8-3.8.3-1.4.8-2.7,2-3.7,0,0,0,0,0,0h0Z" fill="#4b1428"/><path d="M41.8,62.7c0,1.8-.4,3.5-.7,5.2,0,2.9.7,5.8.2,8.7,0,0,0,0,0,0-.4-1.1-.6-2.3-.7-3.5-.2-1.8.2-3.5.3-5.3-.2-1.8,0-3.6.9-5.2,0,0,0,0,0,0h0Z" fill="#4b1428"/><path d="M41.7,62.6c.8,1,1,2.2,1.1,3.4.7,1.9,1.9,3.5,2.1,5.5,0,0,0,0,0,0-.6-.6-1-1.3-1.4-2-.5-1.1-.5-2.3-.9-3.5-.6-1.1-1.1-2.2-.9-3.4,0,0,0,0,0,0h0Z" fill="#4b1428"/><path d="M41.4,62.6c-.2,1.3-.5,3.1-.9,4.4-.3,1.5-.6,2.9-.9,4.4h0c.1-2.3.2-4.6.7-6.8.2-.7.6-1.5,1.1-2h0Z" fill="#4b1428"/><path d="M41.6,63.2c.9,1.8.6,3.8,1,5.8,0,0,0,0,0,0-.4-.9-.7-1.9-1-2.8-.3-1-.5-2,0-3,0,0,0,0,0,0h0Z" fill="#4b1428"/><path d="M37.7,60.2c-.4,1.5-1.4,2.5-2.5,3.4-.9,1.1-1.6,2.4-2.7,3.3-.7.6-1.5,1.2-2.4,1.6,0,0,0,0,0,0,1.2-2.1,3.2-3.3,4.9-5,.7-1.2,1.4-2.4,2.6-3.3,0,0,0,0,0,0h0Z" fill="#4b1428"/><path d="M37.7,59.4c-1.1,1.5-2.8,2.2-4.5,2.7-1.6.7-3.1,1.7-4.9,2.1-1.1.3-2.3.5-3.5.5,0,0,0,0,0,0,2.6-1.4,5.5-1.8,8.3-2.8,1.5-.9,2.9-1.8,4.6-2.5,0,0,0,0,0,0h0Z" fill="#4b1428"/><path d="M37.7,59.8c-1.3,2.7-4.7,3.9-7.2,5.4,0,0,0,0,0,0,1.8-1.3,3.6-2.7,5.3-4.1,0,0,1.9-1.2,1.9-1.2h0Z" fill="#4b1428"/><path d="M37.1,59.7c-1.6,1.4-3.8,1-5.8,1.1,0,0,0,0,0,0,1-.2,1.9-.4,2.9-.7,1-.3,1.9-.5,2.9-.4,0,0,0,0,0,0h0Z" fill="#4b1428"/><path d="M43,61.2c-.1,1-1,.1-1.2.3s-.3.4-.5.5-.4.2-.8-.2,0-.4-.3-.6-.6-.2-.8-.4-.4-.2-.3-.5.2-.4,0-.5-.2-.4-.2-.7-.2-.7,0-.9.4,0,.2-.4-.4-.5,0-.8.4-.3.7-.2.5,0,.9,0,.4-.4.8-.4.9.3.8.5.2.2.5.5.9.5.8.7-.2.4,0,.7.4.3.4.6-.3.8-.5.8-.2.9-.2.9Z" fill="#eee9e0" stroke="#4b1428" stroke-miterlimit="10" stroke-width=".4"/><path d="M39.7,57.7c0-.8.7-.1.9-.3s.2-.3.4-.4.3-.2.6.2,0,.3.2.5.5.1.6.3.3.2.2.4-.1.3,0,.4.1.3.2.5.2.5,0,.7-.3,0-.1.3.3.4,0,.6-.3.3-.5.2-.3,0-.7,0-.3.3-.6.3-.7-.2-.6-.4-.2-.2-.4-.4-.7-.3-.6-.5.1-.3,0-.5-.3-.2-.4-.5.2-.6.4-.6.1-.7.1-.7Z" fill="#eee9e0" stroke="#4b1428" stroke-miterlimit="10" stroke-width=".3"/><path d="M41.7,60.5c-.2.5-.5-.1-.7,0s-.2.2-.4.2-.2,0-.4-.3,0-.2,0-.4-.3-.2-.3-.3-.1-.2,0-.3.2-.2,0-.2,0-.2,0-.4,0-.4.1-.4.2,0,.2-.2,0-.3.1-.4.3,0,.4,0,.2,0,.4.2.3-.1.5,0,.4.3.3.4,0,.2.1.4.4.4.3.5-.2.2-.2.3.1.2,0,.4-.3.3-.4.3-.3.4-.3.4Z" fill="#eee9e0" stroke="#4b1428" stroke-miterlimit="10" stroke-width=".2"/><path d="M264.2,130.6c-1.4,0-3.4-.6-5-3.5h0c0,0,0-.2,0-.2-.2-2.3.4-4.1,1.6-5.5,1.4-1.5,3.6-2.3,6.4-2.3s.3,0,.5,0h0c.4,0,.7-.1,1.1-.2.4-.1.8-.2,1.2-.2s.3,0,.4,0c.5.1.7.5.8.9,0,.1.1.3.2.4.5.2,1.2.4,1.4.9.2.5,0,1-.2,1.3.2.5.4,1.3.2,1.8-.1.3-.4.5-.6.8-.2.2-.4.3-.4.5-1.9,3.3-4.8,5.4-7.4,5.4Z" fill="#eee9e0"/><path d="M269.9,119.1c0,0,.2,0,.3,0,.5.1.6,1.1,1,1.2.4.1,1,.4,1.2.7.2.4-.3,1-.3,1,0,0,.5,1.2.3,1.7-.2.4-.8.9-1,1.2-1.8,3.1-4.5,5.2-7.1,5.2s-3.4-1-4.6-3.3c-.4-5.7,3.7-7.3,7.6-7.3s.3,0,.5,0c0,0,0,0,0,0,.8,0,1.5-.5,2.2-.5M269.9,118.3h0c-.5,0-.9.1-1.3.3-.3.1-.6.2-.9.2-.2,0-.4,0-.6,0-2.9,0-5.2.9-6.7,2.4-1.3,1.4-1.9,3.4-1.7,5.8v.2s0,.2,0,.2c1.6,3.1,3.8,3.7,5.3,3.7,2.8,0,5.8-2.1,7.8-5.6,0,0,.2-.3.3-.4.3-.3.6-.6.7-.9.3-.6.1-1.4,0-1.9.2-.4.4-1,.1-1.5-.3-.6-1-.9-1.5-1.1,0,0,0-.1,0-.2-.2-.4-.5-1-1.1-1.1-.1,0-.3,0-.5,0h0Z" fill="#4b1428"/><path d="M259.7,126.8c.2-1.9,1.8-3,3.4-3.7.9-.6,1.9-1,2.9-.9-.8.5-1.9.7-2.9,1.1-1.5.8-2.5,2.2-3.5,3.5h0Z" fill="#4b1428"/><path d="M260.1,128.2c1.7,0,3.5-.2,5.1-.9.9-.5,1.8-1.3,2.7-1.6-.7.9-1.7,1.4-2.7,1.7-1.5.8-3.6,1.8-5.1.8h0Z" fill="#4b1428"/><path d="M261.2,130.4c.5.6,1.1,1.2,2.1,1.4,2.1.5,3.7-.7,3.7-.7-1.7.7-3.1.8-5.1-1.4,0,0-.7-1.3-2.3-2.4,0-1.8-.7-3.1-.7-3.1-.7-2.8.1-3.9,1.6-5,0,0-1.8.6-2.6,2.7-.4,1.1-.2,2,.1,2.8.1,1.1-1.1,2-1.6,2.9-.2.3-.2.7,0,1,0,0,0,0,0,0,0,.1.1.3.2.6.1.2.3.4.4.5,0,0,0,0,0,0,.2.2.5.4.9.4,1.1,0,2.4-.5,3.3,0Z" fill="#eee9e0" stroke="#4b1428" stroke-linecap="round" stroke-linejoin="round" stroke-width=".8"/><path d="M260,126.8c0-1,1-1.4,1.6-2,.6-.6,1.5-1.2,2.3-1.2-.9.9-2.4,1.1-3,2.3,0,0-.8,1-.8,1,0,0,0,0,0,0h0Z" fill="#4b1428"/><path d="M260.9,128.1c.9-.4,1.8-.3,2.6-.8.8-.5,1.6-.9,2.5-1.1-.5.7-1.6,1.1-2.4,1.3-.9.2-1.8,1-2.7.6h0Z" fill="#4b1428"/><path d="M260.4,127.6c1-.5,2.3-.6,3.3-1.1-.9.6-2.2,1.3-3.3,1.1h0Z" fill="#4b1428"/><path d="M263.4,125.2c-1.2.4-2.1,1.3-3.2,1.9.2-.6.9-1,1.4-1.3.5-.3,1.2-.6,1.8-.6h0Z" fill="#4b1428"/><path d="M262.5,126.3c-.6.4-1.5,1.2-2.3,1,.5-.5,1.6-.7,2.3-1h0Z" fill="#4b1428"/><path d="M259.6,125c-.2-1,.7-1.6,1.2-2.3.5-.7,1.2-1.4,2-1.6-.7,1.1-2.1,1.5-2.6,2.8,0,0-.6,1.1-.6,1.1h0Z" fill="#4b1428"/><path d="M262.4,122.4c-1,.8-1.5,1.9-2.5,2.8,0-.6.5-1.2,1-1.6.4-.4,1-1,1.5-1.1h0Z" fill="#4b1428"/><path d="M261.4,123.7c-.3.7-.8,1.8-1.5,2,.2-.6,1.1-1.4,1.5-2h0Z" fill="#4b1428"/><path d="M261.9,129.6h1.3c1.3.1,2.4-.9,3.7-1-.5.6-1.5,1-2.3,1.1-.8,0-1.9.6-2.6,0h0Z" fill="#4b1428"/><path d="M265.5,128.5c-1.1.5-2.5,1.2-3.6.7,1.2-.3,2.5-.3,3.6-.7h0Z" fill="#4b1428"/><path d="M264.1,128.6c-.9,0-1.6.5-2.5.3.2-.3.9-.4,1.2-.4.4,0,1,0,1.3,0h0Z" fill="#4b1428"/><path d="M257,129.3c0-.4-.2-.7,0-1.1.3-.3.7-.4.8-.7.4-.6.6-1.2.8-1.9.4.7,0,1.6-.6,2-.3.2-.6.5-.7.8-.1.2-.2.8-.4,1h0Z" fill="#4b1428"/><path d="M259.1,129.6c.2-.3.5-.4.8-.3.2,0,.8.1.8.3-.4,0-.7.1-1.1.2-.1,0-.4,0-.4-.2h0Z" fill="#4b1428"/><path d="M271.6,120.2c-.3.2-.7.4-1,.5-.3,0-.9.5-1,.5.5-.5,1.2-1.5,2.1-1,0,0,0,0,0,0h0Z" fill="#4b1428"/><path d="M273,122.2c-.4.3-.9.4-1.4.5-.5,0-1.1.2-1.4,0,.8-.2,2-1,2.8-.6h0Z" fill="#4b1428"/><path d="M247.3,168.8c-.5-.1-.7-.7-.5-1.7.3-1.2,1.4-1.6,2.3-2,.2,0,.4-.2.6-.2.7-.2.8-.6.9-1.4,0-.5.2-1.1.5-1.6v-.2c.1,0,.8,0,.8,0v.3c.7.9.8,1.8.4,2.6-.3.5-.7.7-1,1-.3.2-.5.4-.7.6-.5.7-1,1-1.6,1.3-.5.3-1,.6-1.3,1.2l-.2.3h-.4Z" fill="#eee9e0"/><path d="M251.6,162.1c.4.7.6,1.4.2,2.2-.5.7-1.2.9-1.6,1.5-.8,1.2-2.2,1.3-2.8,2.5-.3,0-.2-.9-.1-1.2.3-1.2,1.7-1.4,2.6-1.8,1.6-.5.9-2,1.6-3.2,0,0,.1,0,.1,0M252.2,161.1h-.6c-.5,0-.8.3-.9.5h0c-.4.6-.5,1.3-.5,1.8-.1.8-.2.9-.5,1h0s0,0,0,0c-.2,0-.4.1-.6.2-.9.3-2.3.8-2.6,2.3h0s0,0,0,0c-.3,1.6.3,2.2.9,2.3l.7.2.4-.7c.2-.4.6-.7,1.1-1,.5-.3,1.2-.7,1.7-1.5h0s0,0,0,0c.1-.2.3-.3.5-.5.3-.2.7-.5,1-1h0c0,0,0-.2,0-.2.4-1,.3-2-.3-3l-.3-.5h0Z" fill="#4b1428"/><path d="M251.9,162.6c-.9,0-1.2-1.2-1.4-2.8-.8-6.3,2.2-8.6,2.7-9,1.6-2.1,5.4-3.4,5.5-3.4l1.2-.4-.7,1c-.8,1.1-.6,1.7-.5,2.5,0,.3.1.7.1,1.1,0,.8-.3,1.3-.6,1.7-.2.3-.3.5-.3.8,0,.3,0,.6.1.9.1.6.2,1.4,0,2.3-.3,1.3-3.8,4-4.5,4.6-.7.5-1.2.9-1.7.9Z" fill="#eee9e0"/><path d="M258.9,147.7c-1.2,1.7-.4,2.6-.4,3.8,0,1.2-.9,1.6-.9,2.5s.4,1.8.1,3-4.4,4.3-4.4,4.3c-.6.5-1.1.8-1.4.8-.5,0-.7-.7-.9-2.5-.8-6.6,2.6-8.6,2.6-8.6,1.5-2.1,5.4-3.3,5.4-3.3M261,146.1l-2.4.8c-.2,0-4,1.3-5.7,3.5-.7.5-3.6,3-2.8,9.4.2,1.4.4,3.2,1.8,3.2s1.1-.4,1.9-1c1.3-1,4.4-3.5,4.7-4.8.2-1,0-1.8,0-2.4,0-.3,0-.6,0-.8,0-.1,0-.3.3-.6.3-.4.6-1,.7-1.9,0-.4,0-.8-.1-1.2-.1-.7-.2-1.2.4-2.2l1.4-2.1h0Z" fill="#4b1428"/><path d="M251.4,161c.2-4.8,3.3-9.1,7-12.1,0,0,0,0,0,0-3.7,3.1-5.8,7.6-7,12h0Z" fill="#4b1428"/><path d="M251.4,161.7c0-1,.4-2,.9-2.9.7-1.5,1.3-3.2,2.7-4.2-.7,1.6-1.8,2.8-2.6,4.3-.3.9-.5,2-1,2.8h0Z" fill="#4b1428"/><path d="M251.4,161.8c.9-3.6,3.7-6.2,6.4-8.6-2.5,2.4-4.7,5.6-6.4,8.6h0Z" fill="#4b1428"/><path d="M251.7,162.1c.2-1.1.9-1.9,1.7-2.6,1.2-1.3,2.4-2.7,4.1-3.3-1.4,1.6-3.5,2.4-4.6,4.3,0,0-1.2,1.7-1.2,1.7,0,0,0,0,0,0h0Z" fill="#4b1428"/><path d="M252,162c.1-.7.6-1.2,1.2-1.6.8-.8,1.6-1.8,2.8-2-.7.9-1.8,1.3-2.7,2.1-.4.5-.8,1.2-1.3,1.5h0Z" fill="#4b1428"/><path d="M257.4,168c-1,0-2.2-.2-3.6-.5l-2.7-1.3.4-.4c0,0,1.2-1.3,2-2,.9-.7,2.7-1.4,3.6-1.5,0,0,.1,0,.2,0s5.6.5,5.8,1.4c0,.2,0,.4-.3.6-.4.1-.6.5-.9,1-.2.4-.5.8-.8,1.1,0,0-.1.1-.2.2-.5.6-1.3,1.4-3.4,1.4h0Z" fill="#eee9e0"/><path d="M257.2,162.7c1.2,0,6.1.8,5.3,1.2-.8.3-1.1,1.4-1.9,2.2-.6.5-1.1,1.5-3.3,1.5s-2-.1-3.5-.5l-2.1-1s1.2-1.3,1.9-1.9c.8-.6,2.5-1.3,3.3-1.4,0,0,0,0,.2,0M257.2,161.9c-.1,0-.2,0-.3,0-.9.1-2.8.8-3.8,1.6-.8.7-2,2-2,2l-.8.8,1,.5,2.1,1h0s0,0,0,0c1.5.4,2.7.6,3.7.6,2.3,0,3.1-.9,3.7-1.5,0,0,.1-.1.2-.2.4-.4.7-.8.9-1.2.2-.4.4-.7.7-.8.5-.2.7-.7.6-1-.1-.6-.6-.9-3-1.3-1.1-.2-2.5-.4-3.2-.4h0Z" fill="#4b1428"/><path d="M251.9,166c1.7,0,3.4.5,5.1.1.9-.2,1.5-.7,2.3-1.2.8-.4,1.7-.5,2.6-.7,0,0,0,0,0,0-.8.2-1.7.5-2.4.8-.7.5-1.4,1.1-2.3,1.4-1.7.5-3.7.2-5.2-.5h0Z" fill="#4b1428"/><path d="M252,166.1c1.1-.5,2.3-.2,3.4-.5,1.1-.4,2.1-.6,3.2-1.1-.5,1.1-2.1,1.2-3.1,1.3-1.1,0-2.4.7-3.4.3h0Z" fill="#4b1428"/><path d="M251.6,166.1c1.8-.7,4.5-1.5,6.4-2.1-.9.6-2.1,1-3.1,1.4-1,.4-2.3,1-3.3.7h0Z" fill="#4b1428"/><path d="M252.2,166c0-.6.5-1,1-1.2.7-.6,1.2-1.3,2.2-1.3,0,0,0,0,0,0-.5.8-1.4,1-2.1,1.4-.3.4-.6.7-1.1,1.1,0,0,0,0,0,0h0Z" fill="#4b1428"/><path d="M251.8,166c.7-.7,1.7-.7,2.5-1.2.8-.5,1.4-1.1,2.4-1.4-.4.9-1.4,1.4-2.3,1.6-.7.2-1.7,1.2-2.6,1.1h0Z" fill="#4b1428"/><path d="M252.1,166.1c1.5.4,3.2.9,4.7,1.1-1.5,0-3.7.2-4.7-1.1h0Z" fill="#4b1428"/><path d="M244,163.9c-.5.4-1.2.3-2.1,0-1.2-.9-4,0-5-.6-.6-.6-.8-1.3-1.1-1.9-.1-.3-.2-.5-.4-.8-.2-.2-.4-.3-.8-.5-.5-.3-1.2-.7-1.7-1.7-.3-.5-.4-.9-.6-1.3-.4-1-.7-1.8-2.3-3.9-.5-.7-1.1-1.4-1.6-2.1.6.3,1.1.7,1.7,1,.6.5,4.8,3,6.5,2.7t0,0c-.6-.3,5.2-.6,7.4,5.2.5,1.3.9,2.9,0,3.8t0,0Z" fill="#eee9e0"/><path d="M230.2,153c.4.4,4.6,2.8,6.2,2.4-.5,0,4.4-1.2,7,4.7.7,1.7.9,2.9.4,3.2-.3.3-1,0-1.8-.1-.4-.7-3.9,0-4.7-.3-.7-.7-.9-1.7-1.4-2.4-.5-.6-1.5-.5-2.4-1.9-.9-1.5-.6-2.3-3.2-5.5M226.6,149.7c.9,1,2,2.5,3.1,3.8,1.5,1.8,1.7,2.4,2,3.4.2.4.3.9.6,1.5.6,1.1,1.5,1.7,2,2,.4.2.5.3.6.4.1.2.2.5.3.7.2.6.5,1.4,1.1,2.2,1.3.9,3.6-.2,5.4.9,1,.4,1.8.6,2.4,0,1.3-1.7.7-3.4.4-4.3-1.4-5.1-7.9-6.5-8-5.8-1.9.3-6.2-2.7-6.7-3-1.1-.6-2.3-1.3-3.3-1.7h0Z" fill="#4b1428"/><path d="M243.5,161.5c-4.8-6.6-6.6-1.3-11.9-6.4,5,4.6,7.9-.7,11.9,6.4t0,0Z" fill="#4b1428"/><path d="M243.9,162.4c-2.7-3.4-4.8-3.9-6.6-3.8.9-.5,2-.5,3.1.3,1,.7,3,1.8,3.5,3.5h0Z" fill="#4b1428"/><path d="M243.9,162.5c-4.3-4.4-5.7-2.4-8.9-2.5,3-.3,5.3-2.6,8.9,2.5h0Z" fill="#4b1428"/><path d="M243.9,163c-.8-.5-1.5-1.1-2.1-1.5-2.1-1.8-3,.3-4.8.5,1.7-1.5,2.6-2,4.9-.9.7.4,1.7,1.1,2,2h0Z" fill="#4b1428"/><path d="M243.5,163.3c-1.1-.4-1.9-1.5-2.6-1.4-.8,0-1.4.3-2,.4.8-1.4,1.8-.7,3.3-.3.4.2,1.2.7,1.3,1.3t0,0Z" fill="#4b1428"/><path d="M26.9,99.4c-.7,0-1-.7-1.5-1.6-.4-.8-2.3-4.9-1.9-6.1.2-.9.7-1.5,1.1-2,.2-.2.3-.5.5-.7.1-.2.1-.5,0-.9,0-.5-.1-1.1.2-1.8.2-.4.4-.6.6-.9.5-.6.9-1.1.7-2.4l-.2-1.3.9.9c.1.1,2.9,3,3.4,5.6.3.6,1.9,4-1.7,9.2-1,1.5-1.5,2-2.1,2h0Z" fill="#eee9e0"/><path d="M27.1,82.9s2.9,2.9,3.3,5.4c0,0,2.1,3.4-1.7,8.9-.9,1.3-1.4,1.8-1.8,1.8s-.7-.5-1.1-1.4c0,0-2.2-4.7-1.9-5.9.3-1.2,1.1-1.8,1.5-2.6s-.2-1.5.3-2.6,1.6-1.5,1.3-3.6M25.9,80.5l.3,2.5c.2,1.1-.2,1.5-.6,2.1-.2.3-.5.6-.6,1-.4.8-.3,1.5-.3,2,0,.3,0,.5,0,.6-.1.2-.3.4-.4.7-.4.5-.9,1.2-1.1,2.1-.4,1.4,1.3,4.9,2,6.4.5,1,.9,1.9,1.9,1.9s1.5-.7,2.5-2.2c3.6-5.3,2.2-8.8,1.8-9.6-.5-2.7-3.3-5.6-3.5-5.7l-1.8-1.8h0Z" fill="#4b1428"/><polygon points="27.6 98.2 27 99.3 26.2 98.1 26.8 98 27.2 98 27.6 98.2" fill="#fff" stroke="#4b1428" stroke-miterlimit="10" stroke-width="2.2"/><path d="M27.6,98.1c1.1-4.6,1.1-9.5-.7-13.9,0,0,0,0,0,0,1.9,4.2,2.8,9.7.6,13.9h0Z" fill="#4b1428"/><path d="M27.3,98.7c0-1,.2-2,.4-3,0-1.7-.5-3.3-.3-5,.7,1.6.6,3.3.4,5,0,0,0,1,0,1,0,.6-.2,1.5-.6,1.9h0Z" fill="#4b1428"/><path d="M27.2,98.8c0-3.6-.7-7.2-1.7-10.5,1.3,3.2,2.7,7.1,1.7,10.5h0Z" fill="#4b1428"/><path d="M26.9,98.9l-.3-2.1c0-2.1-1.7-3.9-2.1-5.9,1.2,1.3,1.7,3.1,2.1,4.8.4.9.7,2.3.3,3.1h0Z" fill="#4b1428"/><path d="M26.6,98.7c-.2-.7-.3-1.3-.4-1.9-.4-1-1.2-1.9-1.4-3.1,1,.7,1.2,1.9,1.6,3,.3.6.6,1.3.4,2,0,0,0,0,0,0h0Z" fill="#4b1428"/><path d="M23.1,102.3c-4.5-2.6-4.5-4.4-4.5-5.5,0-.1,0-.2,0-.3,0-.5,0-1,.2-1.4.1-.5.2-1,0-1.3-.1-.2,0-.4,0-.5v-.2c.1,0,.4,0,.4,0,.8,0,4.6,2.8,5,3.3.6.7,1.4,2.4,1.5,3.5,0,1,0,2.7,0,2.8v.6s-2.8-.9-2.8-.9Z" fill="#eee9e0"/><path d="M19.3,93.4c.6,0,4.2,2.6,4.7,3.1.5.7,1.3,2.3,1.4,3.3,0,1,0,2.7,0,2.7l-2.2-.7c-4.7-2.7-4.2-4.3-4.2-5.4,0-1.1.6-2,.2-2.9,0,0,0-.1,0-.1M19.3,92.6c-.3,0-.6.2-.8.4,0,.1-.3.5,0,.9.1.2,0,.6,0,1.1,0,.4-.2.9-.2,1.5,0,0,0,.2,0,.3,0,1.6.3,3.4,4.6,5.9h0s0,0,0,0l2.2.7,1.1.4v-1.1c0,0,.1-1.8,0-2.9-.1-1.2-1-3-1.6-3.7-.4-.5-4.3-3.5-5.3-3.5h0Z" fill="#4b1428"/><path d="M25.3,102.6c-2-.9-4.1-2.3-4.5-4.6-.1-1.3-.6-2.5-1.4-3.6,0,0,0,0,0,0,.5.7,1,1.4,1.4,2.3.2.9.3,1.7.8,2.4.9,1.5,2.6,2.3,3.7,3.5h0Z" fill="#4b1428"/><path d="M25.2,102.5c-1.1-.6-1.5-1.7-2.2-2.6-.7-.8-1.8-2-1.4-3.1.5,1.1,1,2,1.5,3,.5,1,1.7,1.6,2,2.7h0Z" fill="#4b1428"/><path d="M25.5,102.8c-1.6-1.5-2.4-4.1-3-6,0,0,1.6,3,1.6,3,.5.8,1.1,2.1,1.5,3,0,0,0,0,0,0h0Z" fill="#4b1428"/><path d="M25.1,102.3c0-.5,0-1,0-1.5-.2-.8-.7-1.6-.5-2.5,0,0,0,0,0,0,.7.7.6,1.6.6,2.5.2.5.4,1.1,0,1.5,0,0,0,0,0,0h0Z" fill="#4b1428"/><path d="M25.4,102.6c-.7-.7-.7-1.7-1.1-2.6-.5-.8-.9-1.9-.5-2.8.4.9.5,1.7.7,2.7.2.9,1.1,1.7.9,2.7h0Z" fill="#4b1428"/><path d="M25.1,102.5c-1.7,0-3-1.4-4.1-2.5.6.3,1.3,1,2,1.3.7.4,1.5.7,2.1,1.2h0Z" fill="#4b1428"/><path d="M26.4,204.1c-7.5-2.2-7.7-6.6-7.4-8.7,0-.2,0-.4,0-.6,0-.9.3-1.8.4-2.5.3-1,.5-1.9.2-2.8,0-.4,0-.6,0-.7,0,0,.2-.2.4-.2,1,.9,6.3,6.3,7.3,6.6.9.9,2.7,3.4,3.1,5,.3,1.4.5,3.9.5,4,0,.2,0,.3,0,.5-1.6-.1-3.2-.4-4.7-.6Z" fill="#eee9e0"/><path d="M20.2,189.1c.8.8,6,6,7,6.3.9.9,2.6,3.3,3,4.8.3,1.4.5,4,.4,4-1.4-.2-2.7-.4-4-.6-8-2.4-7.2-6.9-7.1-8.7,0-2.1,1.1-3.7.6-5.6,0-.2,0-.3,0-.3M20.2,188.1c-.3,0-.6,0-.8.3-.1.2-.3.5-.1,1.1.2.7,0,1.6-.3,2.5-.2.8-.5,1.6-.5,2.6,0,.2,0,.4,0,.6-.4,2.1-.1,7,7.6,9.2,0,0,0,0,0,0,0,0,0,0,0,0,1.3.2,2.7.4,4.1.5.4,0,.8,0,1.2,0,0-.3,0-.6,0-.9,0-.1-.1-2.4-.5-3.9-.4-1.7-2.3-4.3-3.3-5.3-1-.2-6.3-6-7.6-6.9t0,0Z" fill="#4b1428"/><path d="M30.4,204.2c-3.8-1.1-7.1-2.4-8-6.2-.3-1.5-.5-2.8-1.2-4.4-.3-.8-.6-1.6-.9-2.5,0,0,0,0,0,0,.4.8.7,1.6,1.1,2.4.8,1.5,1.2,3,1.5,4.3,1,3.5,4.7,4.2,7.5,6.4t0,0Z" fill="#4b1428"/><path d="M30.2,204.1c-2-.7-2.8-2.5-4.1-3.7-1.3-1-3-2.6-2.5-4.5.8,1.7,1.7,2.9,2.7,4.3,1.1,1.3,2.9,2.2,3.9,3.8,0,0,0,0,0,0t0,0Z" fill="#4b1428"/><path d="M30.8,204.5c-3.3-2.2-4.4-5.7-6-8.6,1.4,2,2.9,4.1,4.5,6.3,0,0,1.5,2.3,1.5,2.2,0,0,0,0,0,0t0,0Z" fill="#4b1428"/><path d="M30,203.7c-.2-.8-.3-1.5-.2-2.3-.5-1.3-1.5-2.3-1.3-3.7,0,0,0,0,0,0,.5.4.8.9,1,1.4.4.7.3,1.5.5,2.3.4.8.8,1.6,0,2.4,0,0,0,0,0,0t0,0Z" fill="#4b1428"/><path d="M30.6,204.2c-1.4-1-1.4-2.6-2.3-3.8-.9-1.1-1.7-2.7-1.3-4,.8,1.2,1.1,2.5,1.6,3.9.5,1.4,1.9,2.4,2,3.9,0,0,0,0,0,0t0,0Z" fill="#4b1428"/><path d="M30,204.1c-3.2.5-5.3-1.4-7.2-2.9,0,0,0,0,0,0,1.1.6,2.2,1.1,3.4,1.6,1.2.4,2.7.7,3.8,1.4t0,0Z" fill="#4b1428"/><path d="M38.5,199.4c-.2,0-.3-.2-.4-.4-.3-4.1,1.1-7.7,3.7-9.6.2-.2.4-.3.6-.5.7-.5,1.3-1,1.7-1.6.7-.8.4-1.7,0-2.8-.3-.9-.6-1.8-.5-3,0-1.2.7-2.4,1.8-3.6.1-.2.3-.3.4-.4.6-.6,1.1-1.1,1.3-1.9,0-.2.2-.3.4-.3h.2c.2,0,.4.1.4.3.3,1.3-.4,2.4-1.1,3.5-.5.9-1,1.7-.9,2.5,0,.6,0,1.2.2,1.8.2,1,.4,2.2.1,3.3-.4,1.2-1.3,1.9-2.3,2.5-.6.4-1.1.8-1.5,1.3-1.1,1.8-1.8,3.7-2.5,5.7-.4,1-.8,2-1.2,3.1,0,.2-.2.2-.4.2s-.2,0-.2,0Z" fill="#eee9e0"/><path d="M47.9,175.6c.5,2.1-2.2,3.9-2,5.9,0,1.4.8,3.3.3,5-.6,1.8-2.6,2.3-3.7,3.7-1.7,2.7-2.5,5.8-3.8,8.9h0s-.2,0-.2,0c-.2-3.3.7-7.2,3.5-9.3.9-.7,1.9-1.3,2.5-2.2,1.3-1.7-.5-3.4-.4-6.1,0-1.3.9-2.4,1.7-3.3.8-.8,1.6-1.4,1.9-2.5h.2M47.9,174.7h-.2c-.4,0-.7.3-.8.6-.2.7-.6,1.1-1.2,1.7-.1.1-.3.3-.5.5-1.2,1.3-1.9,2.6-1.9,3.9,0,1.3.3,2.3.6,3.2.4,1.2.5,1.8,0,2.4-.4.6-1,1-1.7,1.5-.2.2-.4.3-.7.5-2.7,2-4.1,5.8-3.8,10,0,.4.3.7.7.8,0,0,.3,0,.3,0,.3,0,.6-.2.8-.5.4-1,.8-2.1,1.2-3.1.7-2,1.5-3.9,2.5-5.6.3-.4.8-.8,1.4-1.2.9-.7,2-1.4,2.4-2.7.4-1.2.1-2.4,0-3.5-.1-.6-.2-1.2-.2-1.7,0,0,0,0,0,0,0-.6.4-1.4.9-2.2.7-1.1,1.4-2.3,1.1-3.8,0-.4-.4-.6-.8-.6h0Z" fill="#4b1428"/></svg>